<svg width="30" height="30" viewBox="0 0 30 30" fill="none" xmlns="http://www.w3.org/2000/svg">
<path fill-rule="evenodd" clip-rule="evenodd" d="M8.0772 21.8215C8.19029 21.9363 8.18853 22.1215 8.07369 22.2346C7.95884 22.3477 7.77369 22.3459 7.6606 22.2311C5.7563 20.2986 4.69576 17.7129 4.69576 15C4.69576 14.5986 4.72037 14.1932 4.76666 13.7941C4.77098 13.756 4.78281 13.719 4.80145 13.6854C4.82009 13.6518 4.84518 13.6222 4.87528 13.5983C4.90538 13.5744 4.9399 13.5567 4.97686 13.5461C5.01383 13.5356 5.0525 13.5325 5.09068 13.5369C5.25123 13.5551 5.36666 13.7004 5.34791 13.8609C5.30337 14.2406 5.28169 14.618 5.28169 15C5.28169 17.5635 6.27779 19.9951 8.0772 21.8215ZM24.4606 6.26836L25.1514 8.4082C25.1719 8.47266 25.2294 8.51426 25.2967 8.51426L27.5456 8.51016C27.6932 8.51016 27.7553 8.7 27.6352 8.78672L25.8135 10.1051C25.759 10.1443 25.7368 10.2123 25.7579 10.2762L26.4569 12.4131C26.5026 12.5531 26.3409 12.6709 26.2219 12.5836L24.4055 11.2582C24.351 11.2184 24.2801 11.2184 24.2256 11.2582L22.4092 12.5836C22.2903 12.6703 22.1286 12.5525 22.1743 12.4131L22.8733 10.2762C22.8944 10.2123 22.8721 10.1443 22.8176 10.1051L20.996 8.78672C20.8764 8.7 20.9379 8.51016 21.0856 8.51016L23.3344 8.51426C23.4018 8.51426 23.4592 8.47266 23.4797 8.4082L24.1706 6.26836C24.2163 6.12773 24.4155 6.12773 24.4612 6.26836H24.4606ZM5.83248 6.26836L6.5233 8.4082C6.5438 8.47266 6.60123 8.51426 6.66861 8.51426L8.91744 8.51016C9.06509 8.51016 9.1272 8.7 9.00708 8.78672L7.18541 10.1051C7.13091 10.1443 7.10865 10.2123 7.12974 10.2762L7.82876 12.4131C7.87447 12.5531 7.71275 12.6709 7.5938 12.5836L5.7774 11.2582C5.72291 11.2184 5.65201 11.2184 5.59751 11.2582L3.78111 12.5836C3.66216 12.6703 3.50044 12.5525 3.54615 12.4131L4.24517 10.2762C4.26626 10.2123 4.244 10.1443 4.18951 10.1051L2.36783 8.78672C2.2483 8.7 2.30982 8.51016 2.45748 8.51016L4.7063 8.51426C4.77369 8.51426 4.83111 8.47266 4.85162 8.4082L5.54244 6.26836C5.58814 6.12773 5.78736 6.12773 5.83306 6.26836H5.83248ZM15.1465 1.04297L15.8374 3.18281C15.8579 3.24727 15.9153 3.28887 15.9827 3.28828L18.2315 3.28418C18.3792 3.28418 18.4413 3.47402 18.3211 3.56074L16.4995 4.8791C16.445 4.91895 16.4227 4.98633 16.4438 5.0502L17.1428 7.18711C17.1885 7.32715 17.0268 7.44492 16.9079 7.35762L15.0915 6.03223C15.037 5.99238 14.9661 5.99238 14.9116 6.03223L13.0952 7.35762C12.9762 7.44434 12.8145 7.32656 12.8602 7.18711L13.5592 5.0502C13.5803 4.98633 13.5581 4.91836 13.5036 4.8791L11.6819 3.56074C11.5624 3.47402 11.6239 3.28418 11.7715 3.28418L14.0204 3.28828C14.0877 3.28828 14.1452 3.24668 14.1657 3.18281L14.8565 1.04297C14.9022 0.902344 15.1014 0.902344 15.1471 1.04297H15.1465ZM15.0012 19.8369C11.6116 19.8879 8.79791 22.4291 8.31802 25.7021C8.22193 26.3584 8.49087 26.9713 9.03814 27.3451C10.8504 28.5826 13.5223 29.0625 15.0012 29.0625C16.4801 29.0625 19.1526 28.5826 20.9643 27.3451C21.5116 26.9713 21.7805 26.3578 21.6844 25.7021C21.2045 22.4291 18.3903 19.8879 15.0012 19.8369ZM15.0012 12.6064C13.2575 12.6064 11.8442 14.0197 11.8442 15.7635C11.8442 17.5072 13.2575 18.9205 15.0012 18.9205C16.745 18.9205 18.1583 17.5072 18.1583 15.7635C18.1583 14.0197 16.745 12.6064 15.0012 12.6064ZM9.44537 7.02305C10.1185 6.55316 10.8485 6.17061 11.618 5.88457C11.654 5.87118 11.6869 5.85085 11.715 5.82473C11.7431 5.7986 11.7657 5.76721 11.7816 5.73233C11.7976 5.69746 11.8065 5.65978 11.8079 5.62146C11.8093 5.58314 11.8031 5.54492 11.7897 5.50898C11.7763 5.47305 11.756 5.44011 11.7299 5.41203C11.7037 5.38396 11.6723 5.3613 11.6375 5.34536C11.6026 5.32942 11.5649 5.3205 11.5266 5.31912C11.4883 5.31774 11.45 5.32392 11.4141 5.3373C10.5985 5.64077 9.82452 6.04634 9.1108 6.54434C8.97896 6.63633 8.94615 6.81855 9.03873 6.95039C9.13072 7.08223 9.31294 7.11504 9.44478 7.02246L9.44537 7.02305ZM18.3844 5.88457C19.1538 6.17084 19.8838 6.55338 20.5571 7.02305C20.6889 7.11504 20.8711 7.08281 20.9631 6.95098C21.0551 6.81914 21.0229 6.63691 20.8911 6.54492C20.178 6.04746 19.4034 5.64023 18.5883 5.33789C18.5524 5.3245 18.5142 5.31832 18.4759 5.3197C18.4375 5.32109 18.3999 5.33 18.365 5.34594C18.3301 5.36189 18.2987 5.38454 18.2726 5.41262C18.2465 5.44069 18.2261 5.47364 18.2127 5.50957C18.1994 5.5455 18.1932 5.58372 18.1946 5.62205C18.1959 5.66037 18.2049 5.69804 18.2208 5.73292C18.2367 5.7678 18.2594 5.79919 18.2875 5.82531C18.3155 5.85143 18.3485 5.87177 18.3844 5.88516V5.88457ZM24.6551 13.8609C24.6464 13.7839 24.6685 13.7065 24.7167 13.6457C24.765 13.585 24.8353 13.5459 24.9124 13.5369C24.9894 13.5281 25.0668 13.5503 25.1276 13.5985C25.1883 13.6467 25.2274 13.7171 25.2364 13.7941C25.2827 14.1926 25.3067 14.598 25.3067 14.9994C25.3067 17.7123 24.2461 20.298 22.3419 22.2305C22.2288 22.3453 22.0436 22.3471 21.9288 22.234C21.8139 22.1209 21.8122 21.9357 21.9253 21.8209C23.7247 19.9945 24.7208 17.5629 24.7208 14.9994C24.7208 14.6174 24.6991 14.24 24.6551 13.8604V13.8609Z" fill="#386BB7"/>
</svg>
