<svg width="30" height="30" viewBox="0 0 30 30" fill="none" xmlns="http://www.w3.org/2000/svg">
<path d="M23.4783 3.13232C21.5193 3.13232 19.9293 4.71932 19.9293 6.68132C19.9263 7.22132 20.0493 7.75832 20.2893 8.24432C20.6763 9.03332 21.3393 9.65432 22.1553 9.98732L22.1493 9.97232C22.5723 10.1433 23.0223 10.2333 23.4783 10.2303C25.4403 10.2303 27.0303 8.64032 27.0303 6.68132C27.0303 4.71932 25.4403 3.13232 23.4783 3.13232ZM5.18189 14.445H1.55789C1.15889 14.445 0.79289 14.157 0.75389 13.761C0.743126 13.655 0.754761 13.548 0.788038 13.4468C0.821316 13.3456 0.875494 13.2525 0.947059 13.1736C1.01862 13.0946 1.10598 13.0316 1.20345 12.9887C1.30093 12.9457 1.40636 12.9236 1.51289 12.924H5.18189C5.39189 12.924 5.58089 13.008 5.71889 13.146C5.85689 13.284 5.94089 13.473 5.94089 13.683C5.94089 14.103 5.60189 14.445 5.18189 14.445Z" fill="#FF4D69"/>
<path d="M29.2491 13.0141C29.2341 13.4311 29.0511 13.8241 28.7421 14.1001L24.6861 17.8411C24.5241 17.9911 24.2871 18.0181 24.0981 17.9131L20.4711 15.9151L19.0311 17.3491L21.3021 21.1651C21.4161 21.3511 21.3951 21.5851 21.2571 21.7531L17.4447 26.3155C17.3163 26.4724 17.1577 26.6021 16.9785 26.6969C16.7992 26.7917 16.6027 26.8497 16.4007 26.8675H16.3827C16.0167 26.8675 15.6507 26.7565 15.3687 26.5225C15.0512 26.2609 14.8407 25.892 14.7772 25.4856C14.7136 25.0792 14.8013 24.6635 15.0237 24.3175L16.7037 21.6595L14.6757 19.3495L6.45902 25.1305C6.20402 25.3075 5.89502 25.4035 5.58302 25.4035C5.12102 25.4035 4.68302 25.1995 4.38602 24.8455C4.14022 24.5517 4.0142 24.1761 4.03311 23.7935C4.05201 23.411 4.21445 23.0496 4.48802 22.7815L11.784 15.4588L11.856 15.3868L12.798 14.4448L15.516 11.7268L14.511 10.4518C14.4571 10.3822 14.3896 10.3243 14.3126 10.2817C14.2355 10.2391 14.1506 10.2126 14.063 10.2039C13.9754 10.1952 13.887 10.2045 13.8031 10.2311C13.7192 10.2577 13.6416 10.3012 13.575 10.3588L12.195 11.5438C12.0363 11.6652 11.8552 11.7542 11.662 11.8056C11.4689 11.857 11.2675 11.8698 11.0695 11.8433C10.8714 11.8169 10.6804 11.7516 10.5076 11.6513C10.3347 11.551 10.1833 11.4176 10.062 11.2588C9.84842 10.9784 9.73857 10.6327 9.75115 10.2805C9.76373 9.92823 9.89796 9.59123 10.131 9.32681L14.499 4.90211C14.694 4.70711 15.012 4.70711 15.207 4.90211L19.4427 8.85611L21.5727 10.8451L24.1587 13.2541C24.3897 13.4671 24.7437 13.4731 24.9807 13.2691L26.6847 11.7931C27.2847 11.2741 28.1844 11.3101 28.7484 11.8681L28.7874 11.9101C29.0874 12.1981 29.2521 12.6001 29.2491 13.0141Z" fill="#FF4D69"/>
<path d="M8.83006 16.5751L7.30306 18.0961H2.55106C2.13106 18.0961 1.78906 17.7571 1.78906 17.3371C1.78906 16.9171 2.13106 16.5751 2.55106 16.5751H8.83006ZM5.16706 20.2231L3.64006 21.7441H2.83606C2.41606 21.7441 2.07406 21.4051 2.07406 20.9851C2.07406 20.5651 2.41606 20.2231 2.83606 20.2231H5.16706ZM12.4931 12.9241L10.9661 14.4451H9.49906C9.07906 14.4451 8.74006 14.1031 8.74006 13.6831C8.74006 13.2631 9.07906 12.9241 9.49906 12.9241H12.4931Z" fill="#FF4D69"/>
</svg>
