<svg width="30" height="30" viewBox="0 0 30 30" fill="none" xmlns="http://www.w3.org/2000/svg">
<g clip-path="url(#clip0_817_2203)">
<path d="M12.4184 13.0927C14.5194 13.9516 16.3559 15.4812 17.5816 17.3939V6.9723H19.7791L15 0L10.2209 6.9723H12.4184V13.0927ZM16.1234 18.3807C14.4632 15.7703 11.5482 14.0351 8.23623 14.0351H5.99139V11.8336L0 16.6215L5.99133 21.4095V19.2079H8.23617C10.1367 19.2079 11.7441 20.4851 12.251 22.2274C13.2048 20.6454 14.5351 19.3239 16.1234 18.3807ZM30 21.1823L24.0086 16.3944V18.596H21.7638C16.6107 18.596 12.4184 22.7961 12.4184 27.9587V30H17.5816V27.9586C17.5816 25.6483 19.4578 23.7687 21.7638 23.7687H24.0086V25.9703L30 21.1823Z" fill="#FDB600"/>
</g>
<defs>
<clipPath id="clip0_817_2203">
<rect width="30" height="30" fill="white"/>
</clipPath>
</defs>
</svg>
