<svg width="30" height="30" viewBox="0 0 30 30" fill="none" xmlns="http://www.w3.org/2000/svg">
<path d="M20.6241 7.89941V19.6875C20.6241 19.9362 20.5253 20.1746 20.3495 20.3505C20.1737 20.5263 19.9352 20.625 19.6866 20.625H7.89844C9.12656 24.9469 13.1016 28.125 17.8116 28.125C23.4975 28.125 28.1241 23.4985 28.1241 17.8125C28.1241 13.1025 24.9459 9.12848 20.6241 7.89941Z" fill="#17D262"/>
<path d="M17.8125 7.5C18.7884 7.5 19.7297 7.64531 20.625 7.89937V2.8125C20.625 2.56386 20.5262 2.3254 20.3504 2.14959C20.1746 1.97377 19.9361 1.875 19.6875 1.875H2.8125C2.56386 1.875 2.3254 1.97377 2.14959 2.14959C1.97377 2.3254 1.875 2.56386 1.875 2.8125V19.6875C1.875 19.9361 1.97377 20.1746 2.14959 20.3504C2.3254 20.5262 2.56386 20.625 2.8125 20.625H7.89937C7.63653 19.7105 7.50212 18.764 7.5 17.8125C7.5 12.1266 12.1266 7.5 17.8125 7.5Z" fill="#17D262"/>
</svg>
