<svg width="46" height="46" viewBox="0 0 46 46" fill="none" xmlns="http://www.w3.org/2000/svg">
<path d="M39.8549 25.438L39.2648 25.7786C39.0998 25.8724 38.9044 25.8972 38.7213 25.8475C38.5381 25.7977 38.382 25.6776 38.2871 25.5132C38.1922 25.3488 38.1662 25.1536 38.2147 24.9701C38.2632 24.7866 38.3824 24.6298 38.5461 24.5338L39.1427 24.1888C38.3585 23.0224 37.3555 22.0191 36.1893 21.2347L35.8443 21.8327C35.7483 21.9964 35.5915 22.1156 35.408 22.1641C35.2245 22.2126 35.0292 22.1866 34.8649 22.0916C34.7005 21.9967 34.5803 21.8407 34.5306 21.6575C34.4809 21.4743 34.5056 21.2789 34.5994 21.114L34.9401 20.5231C33.6806 19.9016 32.3109 19.5346 30.9094 19.4429V20.125C30.9094 20.3156 30.8337 20.4984 30.6989 20.6332C30.5641 20.768 30.3813 20.8437 30.1906 20.8437C30 20.8437 29.8172 20.768 29.6824 20.6332C29.5476 20.4984 29.4719 20.3156 29.4719 20.125V19.4421C28.0703 19.5341 26.7006 19.9014 25.4411 20.5231L25.7818 21.1132C25.8298 21.195 25.861 21.2855 25.8739 21.3794C25.8867 21.4733 25.8809 21.5688 25.8566 21.6605C25.8324 21.7521 25.7903 21.838 25.7327 21.9133C25.6751 21.9886 25.6032 22.0518 25.5211 22.0992C25.4391 22.1466 25.3484 22.1773 25.2544 22.1895C25.1604 22.2017 25.0649 22.1952 24.9734 22.1704C24.882 22.1455 24.7963 22.1029 24.7214 22.0448C24.6465 21.9867 24.5838 21.9144 24.5369 21.832L24.1919 21.2354C23.0255 22.0196 22.0223 23.0226 21.2379 24.1888L21.8359 24.5338C21.9183 24.5806 21.9906 24.6433 22.0487 24.7182C22.1068 24.7931 22.1494 24.8788 22.1743 24.9703C22.1991 25.0617 22.2056 25.1572 22.1934 25.2512C22.1812 25.3452 22.1505 25.4359 22.1031 25.518C22.0557 25.6001 21.9925 25.672 21.9172 25.7295C21.8419 25.7871 21.756 25.8292 21.6643 25.8535C21.5727 25.8777 21.4772 25.8836 21.3833 25.8707C21.2893 25.8579 21.1989 25.8266 21.1171 25.7786L20.5263 25.438C19.9048 26.6975 19.5377 28.0672 19.446 29.4687H20.1281C20.3187 29.4687 20.5016 29.5444 20.6364 29.6792C20.7712 29.814 20.8469 29.9968 20.8469 30.1875C20.8469 30.3781 20.7712 30.5609 20.6364 30.6957C20.5016 30.8305 20.3187 30.9062 20.1281 30.9062H19.4453C19.5372 32.3078 19.9046 33.6775 20.5263 34.937L21.1164 34.5963C21.1982 34.5483 21.2886 34.517 21.3825 34.5042C21.4765 34.4914 21.572 34.4972 21.6636 34.5214C21.7553 34.5457 21.8412 34.5878 21.9165 34.6454C21.9918 34.7029 22.055 34.7748 22.1024 34.8569C22.1498 34.939 22.1804 35.0297 22.1927 35.1237C22.2049 35.2177 22.1984 35.3132 22.1736 35.4046C22.1487 35.4961 22.106 35.5818 22.048 35.6567C21.9899 35.7316 21.9176 35.7943 21.8352 35.8411L21.2386 36.1861C22.0228 37.3525 23.0257 38.3558 24.1919 39.1402L24.5369 38.5422C24.6329 38.3785 24.7898 38.2593 24.9733 38.2108C25.1568 38.1623 25.352 38.1884 25.5164 38.2833C25.6807 38.3782 25.8009 38.5342 25.8506 38.7174C25.9004 38.9006 25.8756 39.096 25.7818 39.261L25.4411 39.8518C26.7007 40.4733 28.0704 40.8404 29.4719 40.932V40.25C29.4719 40.0593 29.5476 39.8765 29.6824 39.7417C29.8172 39.6069 30 39.5312 30.1906 39.5312C30.3813 39.5312 30.5641 39.6069 30.6989 39.7417C30.8337 39.8765 30.9094 40.0593 30.9094 40.25V40.9328C32.3109 40.8408 33.6806 40.4735 34.9401 39.8518L34.5994 39.261C34.5056 39.096 34.4809 38.9006 34.5306 38.7174C34.5803 38.5342 34.7005 38.3782 34.8649 38.2833C35.0292 38.1884 35.2245 38.1623 35.408 38.2108C35.5915 38.2593 35.7483 38.3785 35.8443 38.5422L36.1893 39.1402C37.3558 38.3558 38.359 37.3526 39.1434 36.1861L38.5454 35.8411C38.3816 35.7451 38.2625 35.5883 38.214 35.4048C38.1655 35.2213 38.1915 35.0261 38.2864 34.8617C38.3813 34.6973 38.5374 34.5772 38.7206 34.5274C38.9037 34.4777 39.0991 34.5025 39.2641 34.5963L39.8549 34.937C40.5897 33.4615 40.9722 31.8357 40.9722 30.1875C40.9722 28.5392 40.5897 26.9134 39.8549 25.438ZM38.8156 30.9062H30.9094V37.375C30.9094 37.5656 30.8337 37.7484 30.6989 37.8832C30.5641 38.018 30.3813 38.0937 30.1906 38.0937C30 38.0937 29.8172 38.018 29.6824 37.8832C29.5476 37.7484 29.4719 37.5656 29.4719 37.375V30.1875C29.4719 29.9968 29.5476 29.814 29.6824 29.6792C29.8172 29.5444 30 29.4687 30.1906 29.4687H38.8156C39.0063 29.4687 39.1891 29.5444 39.3239 29.6792C39.4587 29.814 39.5344 29.9968 39.5344 30.1875C39.5344 30.3781 39.4587 30.5609 39.3239 30.6957C39.1891 30.8305 39.0063 30.9062 38.8156 30.9062Z" fill="#3A7BD5"/>
<path d="M41.343 20.0517L42.199 19.1957C42.2676 19.1294 42.3224 19.05 42.3601 18.9624C42.3977 18.8747 42.4176 18.7803 42.4184 18.6849C42.4192 18.5895 42.401 18.4948 42.3649 18.4065C42.3288 18.3182 42.2754 18.2379 42.2079 18.1704C42.1404 18.1029 42.0602 18.0496 41.9718 18.0134C41.8835 17.9773 41.7889 17.9591 41.6934 17.9599C41.598 17.9608 41.5037 17.9806 41.416 18.0183C41.3283 18.0559 41.249 18.1107 41.1827 18.1793L40.3267 19.0354C37.7393 16.6751 34.408 15.2937 30.9096 15.1304V12.9375C30.9096 12.7469 30.8339 12.5641 30.6991 12.4293C30.5643 12.2945 30.3815 12.2188 30.1908 12.2188C30.0002 12.2188 29.8174 12.2945 29.6826 12.4293C29.5478 12.5641 29.4721 12.7469 29.4721 12.9375V15.1297C26.0379 15.2874 22.76 16.6109 20.1789 18.8818C17.5979 21.1526 15.8678 24.2354 15.2741 27.6215C14.6803 31.0077 15.2584 34.4951 16.9128 37.5087C18.5673 40.5222 21.1994 42.8819 24.3751 44.1987C27.5508 45.5154 31.0804 45.7105 34.3819 44.7518C37.6833 43.7932 40.5595 41.7379 42.536 38.9251C44.5126 36.1123 45.4715 32.7098 45.2546 29.2788C45.0377 25.8479 43.658 22.5932 41.343 20.0517ZM30.1908 42.4062C27.7742 42.4062 25.4118 41.6896 23.4025 40.347C21.3931 39.0044 19.827 37.0961 18.9022 34.8634C17.9774 32.6307 17.7354 30.1739 18.2069 27.8037C18.6783 25.4335 19.8421 23.2564 21.5509 21.5475C23.2597 19.8387 25.4369 18.675 27.8071 18.2035C30.1773 17.7321 32.6341 17.974 34.8668 18.8988C37.0994 19.8237 39.0077 21.3898 40.3504 23.3991C41.693 25.4085 42.4096 27.7709 42.4096 30.1875C42.3984 33.4247 41.1075 36.5261 38.8185 38.8151C36.5294 41.1042 33.428 42.3951 30.1908 42.4062Z" fill="#3A7BD5"/>
<path d="M33.7812 2.15625H25.1562V1.4375C25.1562 1.24688 25.0805 1.06406 24.9457 0.929267C24.8109 0.794475 24.6281 0.71875 24.4375 0.71875C24.2469 0.71875 24.0641 0.794475 23.9293 0.929267C23.7945 1.06406 23.7188 1.24688 23.7188 1.4375V2.15625H12.9375V1.4375C12.9375 1.24688 12.8618 1.06406 12.727 0.929267C12.5922 0.794475 12.4094 0.71875 12.2188 0.71875C12.0281 0.71875 11.8453 0.794475 11.7105 0.929267C11.5757 1.06406 11.5 1.24688 11.5 1.4375V2.15625H2.875C2.3033 2.15682 1.75518 2.38418 1.35093 2.78843C0.94668 3.19268 0.719321 3.7408 0.71875 4.3125V31.625C0.719321 32.1967 0.94668 32.7448 1.35093 33.1491C1.75518 33.5533 2.3033 33.7807 2.875 33.7812H33.7812C34.3529 33.7807 34.9011 33.5533 35.3053 33.1491C35.7096 32.7448 35.9369 32.1967 35.9375 31.625V4.3125C35.9369 3.7408 35.7096 3.19268 35.3053 2.78843C34.9011 2.38418 34.3529 2.15682 33.7812 2.15625ZM34.5 31.625C34.4998 31.8156 34.424 31.9983 34.2893 32.133C34.1545 32.2678 33.9718 32.3436 33.7812 32.3438H2.875C2.68443 32.3436 2.50173 32.2678 2.36698 32.133C2.23223 31.9983 2.15644 31.8156 2.15625 31.625V8.625H34.5V31.625ZM34.5 7.1875H2.15625V4.3125C2.15644 4.12193 2.23223 3.93923 2.36698 3.80448C2.50173 3.66973 2.68443 3.59394 2.875 3.59375H11.5V4.3125C11.5 4.50312 11.5757 4.68594 11.7105 4.82073C11.8453 4.95552 12.0281 5.03125 12.2188 5.03125C12.4094 5.03125 12.5922 4.95552 12.727 4.82073C12.8618 4.68594 12.9375 4.50312 12.9375 4.3125V3.59375H23.7188V4.3125C23.7188 4.50312 23.7945 4.68594 23.9293 4.82073C24.0641 4.95552 24.2469 5.03125 24.4375 5.03125C24.6281 5.03125 24.8109 4.95552 24.9457 4.82073C25.0805 4.68594 25.1562 4.50312 25.1562 4.3125V3.59375H33.7812C33.9718 3.59394 34.1545 3.66973 34.2893 3.80448C34.424 3.93923 34.4998 4.12193 34.5 4.3125V7.1875Z" fill="white"/>
<path d="M5.03125 19.4062H11.5C11.6906 19.4062 11.8734 19.3305 12.0082 19.1957C12.143 19.0609 12.2188 18.8781 12.2188 18.6875V12.2188C12.2188 12.0281 12.143 11.8453 12.0082 11.7105C11.8734 11.5757 11.6906 11.5 11.5 11.5H5.03125C4.84063 11.5 4.65781 11.5757 4.52302 11.7105C4.38823 11.8453 4.3125 12.0281 4.3125 12.2188V18.6875C4.3125 18.8781 4.38823 19.0609 4.52302 19.1957C4.65781 19.3305 4.84063 19.4062 5.03125 19.4062ZM5.75 12.9375H10.7812V17.9688H5.75V12.9375ZM15.0938 19.4062H21.5625C21.7531 19.4062 21.9359 19.3305 22.0707 19.1957C22.2055 19.0609 22.2812 18.8781 22.2812 18.6875V12.2188C22.2812 12.0281 22.2055 11.8453 22.0707 11.7105C21.9359 11.5757 21.7531 11.5 21.5625 11.5H15.0938C14.9031 11.5 14.7203 11.5757 14.5855 11.7105C14.4507 11.8453 14.375 12.0281 14.375 12.2188V18.6875C14.375 18.8781 14.4507 19.0609 14.5855 19.1957C14.7203 19.3305 14.9031 19.4062 15.0938 19.4062ZM15.8125 12.9375H20.8438V17.9688H15.8125V12.9375ZM25.1562 19.4062H31.625C31.8156 19.4062 31.9984 19.3305 32.1332 19.1957C32.268 19.0609 32.3438 18.8781 32.3438 18.6875V12.2188C32.3438 12.0281 32.268 11.8453 32.1332 11.7105C31.9984 11.5757 31.8156 11.5 31.625 11.5H25.1562C24.9656 11.5 24.7828 11.5757 24.648 11.7105C24.5132 11.8453 24.4375 12.0281 24.4375 12.2188V18.6875C24.4375 18.8781 24.5132 19.0609 24.648 19.1957C24.7828 19.3305 24.9656 19.4062 25.1562 19.4062ZM25.875 12.9375H30.9062V17.9688H25.875V12.9375ZM5.03125 29.4688H11.5C11.6906 29.4688 11.8734 29.393 12.0082 29.2582C12.143 29.1234 12.2188 28.9406 12.2188 28.75V22.2812C12.2188 22.0906 12.143 21.9078 12.0082 21.773C11.8734 21.6382 11.6906 21.5625 11.5 21.5625H5.03125C4.84063 21.5625 4.65781 21.6382 4.52302 21.773C4.38823 21.9078 4.3125 22.0906 4.3125 22.2812V28.75C4.3125 28.9406 4.38823 29.1234 4.52302 29.2582C4.65781 29.393 4.84063 29.4688 5.03125 29.4688ZM5.75 23H10.7812V28.0312H5.75V23ZM15.0938 29.4688H21.5625C21.7531 29.4688 21.9359 29.393 22.0707 29.2582C22.2055 29.1234 22.2812 28.9406 22.2812 28.75V22.2812C22.2812 22.0906 22.2055 21.9078 22.0707 21.773C21.9359 21.6382 21.7531 21.5625 21.5625 21.5625H15.0938C14.9031 21.5625 14.7203 21.6382 14.5855 21.773C14.4507 21.9078 14.375 22.0906 14.375 22.2812V28.75C14.375 28.9406 14.4507 29.1234 14.5855 29.2582C14.7203 29.393 14.9031 29.4688 15.0938 29.4688ZM15.8125 23H20.8438V28.0312H15.8125V23ZM25.1562 29.4688H31.625C31.8156 29.4688 31.9984 29.393 32.1332 29.2582C32.268 29.1234 32.3438 28.9406 32.3438 28.75V22.2812C32.3438 22.0906 32.268 21.9078 32.1332 21.773C31.9984 21.6382 31.8156 21.5625 31.625 21.5625H25.1562C24.9656 21.5625 24.7828 21.6382 24.648 21.773C24.5132 21.9078 24.4375 22.0906 24.4375 22.2812V28.75C24.4375 28.9406 24.5132 29.1234 24.648 29.2582C24.7828 29.393 24.9656 29.4688 25.1562 29.4688ZM25.875 23H30.9062V28.0312H25.875V23Z" fill="white"/>
</svg>
