<svg width="49" height="50" viewBox="0 0 49 50" fill="none" xmlns="http://www.w3.org/2000/svg">
<path d="M27.5952 41.043C27.7404 40.5045 27.7343 39.9376 27.5776 39.4023L29.1036 38.543C29.6888 39.3232 30.4321 39.9764 31.287 40.4616C32.1419 40.9468 33.0898 41.2535 34.0714 41.3625V43.0812C33.3202 43.2714 32.6655 43.7236 32.2301 44.3531C31.7947 44.9826 31.6084 45.7462 31.7061 46.5008C31.8039 47.2553 32.179 47.949 32.7611 48.4518C33.3432 48.9546 34.0924 49.232 34.8682 49.232C35.6441 49.232 36.3932 48.9546 36.9754 48.4518C37.5575 47.949 37.9326 47.2553 38.0303 46.5008C38.1281 45.7462 37.9418 44.9826 37.5064 44.3531C37.071 43.7236 36.4163 43.2714 35.6651 43.0812V41.3625C36.6466 41.2535 37.5946 40.9468 38.4495 40.4616C39.3043 39.9764 40.0477 39.3232 40.6328 38.543L42.1588 39.4023C41.9473 40.1421 42.0185 40.9321 42.359 41.6241C42.6996 42.316 43.286 42.8624 44.0083 43.1604C44.7305 43.4585 45.5389 43.4879 46.2817 43.2431C47.0245 42.9982 47.6506 42.4959 48.0424 41.8306C48.4342 41.1652 48.5649 40.3826 48.4098 39.6295C48.2547 38.8764 47.8246 38.2047 47.2001 37.7405C46.5757 37.2763 45.7999 37.0515 45.0184 37.1083C44.2369 37.1652 43.5035 37.4997 42.9557 38.0492L41.4361 37.1875C41.8344 36.3004 42.0401 35.3418 42.0401 34.3726C42.0401 33.4034 41.8344 32.4448 41.4361 31.5578L42.9557 30.6984C43.4978 31.244 44.2247 31.5762 44.9994 31.6325C45.7741 31.6888 46.5431 31.4652 47.1612 31.0039C47.7793 30.5426 48.2039 29.8755 48.3549 29.1284C48.5059 28.3814 48.3728 27.6059 47.9808 26.9484C47.5946 26.2895 46.9762 25.7915 46.2418 25.548C45.5074 25.3045 44.7077 25.3323 43.9927 25.6262C43.2778 25.92 42.6969 26.4597 42.3593 27.1438C42.0216 27.8279 41.9503 28.6094 42.1588 29.3414L40.6328 30.2008C40.0477 29.4205 39.3043 28.7673 38.4495 28.2821C37.5946 27.7969 36.6466 27.4902 35.6651 27.3812V25.6625C36.4163 25.4723 37.071 25.0201 37.5064 24.3906C37.9418 23.7611 38.1281 22.9975 38.0303 22.243C37.9326 21.4884 37.5575 20.7947 36.9754 20.2919C36.3932 19.7891 35.6441 19.5117 34.8682 19.5117C34.0924 19.5117 33.3432 19.7891 32.7611 20.2919C32.179 20.7947 31.8039 21.4884 31.7061 22.243C31.6084 22.9975 31.7947 23.7611 32.2301 24.3906C32.6655 25.0201 33.3202 25.4723 34.0714 25.6625V27.3812C33.0898 27.4902 32.1419 27.7969 31.287 28.2821C30.4321 28.7673 29.6888 29.4205 29.1036 30.2008L27.5784 29.3414C27.7904 28.6009 27.7193 27.81 27.3785 27.1172C27.0378 26.4244 26.4508 25.8774 25.7278 25.5789C25.0048 25.2804 24.1955 25.251 23.4519 25.496C22.7083 25.7411 22.0815 26.2439 21.6893 26.9099C21.297 27.576 21.1662 28.3596 21.3215 29.1135C21.4768 29.8673 21.9075 30.5397 22.5327 31.0044C23.1578 31.469 23.9345 31.6939 24.7169 31.6368C25.4992 31.5798 26.2334 31.2447 26.7816 30.6945L28.3012 31.5539C27.9029 32.4409 27.6972 33.3995 27.6972 34.3687C27.6972 35.3379 27.9029 36.2965 28.3012 37.1836L26.7816 38.043C26.3872 37.6429 25.89 37.3546 25.3424 37.2086C24.7335 37.0486 24.0899 37.0692 23.4929 37.2678C22.896 37.4665 22.3725 37.8342 21.9887 38.3244C21.6049 38.8147 21.378 39.4056 21.3366 40.0223C21.2953 40.639 21.4415 41.2539 21.7566 41.7891C22.0717 42.3244 22.5416 42.7561 23.107 43.0295C23.6723 43.303 24.3076 43.406 24.9327 43.3254C25.5577 43.2449 26.1443 42.9845 26.6184 42.5771C27.0924 42.1697 27.4326 41.6336 27.596 41.0367L27.5952 41.043Z" fill="#3A7BD5"/>
<path d="M34.8622 28.9063C34.2662 28.9073 33.6743 29.0022 33.1091 29.1875L30.8699 24.8C31.9724 24.0514 32.7625 22.9381 33.0953 21.6644C33.4282 20.3908 33.2813 19.0421 32.6817 17.8661C32.0821 16.69 31.07 15.7653 29.8311 15.2618C28.5922 14.7584 27.2097 14.7098 25.9372 15.125L23.698 10.7375C24.6744 10.0734 25.409 9.12095 25.7946 8.01893C26.1803 6.91692 26.1969 5.72294 25.842 4.61103C25.4872 3.49911 24.7793 2.52737 23.8217 1.83742C22.8641 1.14748 21.7068 0.775391 20.5184 0.775391C19.3301 0.775391 18.1727 1.14748 17.2151 1.83742C16.2575 2.52737 15.5497 3.49911 15.1948 4.61103C14.84 5.72294 14.8566 6.91692 15.2422 8.01893C15.6279 9.12095 16.3625 10.0734 17.3389 10.7375L15.0997 15.125C13.8275 14.7112 12.4459 14.7608 11.208 15.2646C9.97003 15.7684 8.95877 16.6927 8.35951 17.8682C7.76024 19.0436 7.61311 20.3913 7.94509 21.6645C8.27706 22.9376 9.0659 24.0508 10.167 24.8L7.92781 29.1875C6.5876 28.7475 5.12712 28.8215 3.84033 29.3946C2.55353 29.9678 1.53596 30.9975 0.992411 32.2766C0.448864 33.5557 0.419701 34.9892 0.910791 36.2885C1.40188 37.5878 2.37676 38.6566 3.63922 39.2796C4.90168 39.9026 6.35799 40.0336 7.71503 39.6463C9.07207 39.259 10.2291 38.3821 10.9532 37.1922C11.6774 36.0022 11.9148 34.5875 11.6179 33.2327C11.3209 31.878 10.5115 30.6839 9.35263 29.8906L11.5934 25.5C12.731 25.8743 13.9621 25.8743 15.0997 25.5L17.3373 29.8875C16.3609 30.5516 15.6263 31.5041 15.2406 32.6061C14.855 33.7081 14.8384 34.9021 15.1933 36.014C15.5481 37.1259 16.2559 38.0976 17.2135 38.7876C18.1711 39.4775 19.3285 39.8496 20.5168 39.8496C21.7052 39.8496 22.8626 39.4775 23.8201 38.7876C24.7777 38.0976 25.4856 37.1259 25.8404 36.014C26.1953 34.9021 26.1787 33.7081 25.7931 32.6061C25.4074 31.5041 24.6728 30.5516 23.6964 29.8875L25.9372 25.5C27.0748 25.8743 28.3059 25.8743 29.4434 25.5L31.6811 29.8875C30.5887 30.634 29.8051 31.7394 29.4723 33.0034C29.1395 34.2674 29.2794 35.6065 29.8667 36.7781C30.454 37.9497 31.4499 38.8763 32.6739 39.3902C33.898 39.9041 35.2693 39.9712 36.5394 39.5794C37.8096 39.1876 38.8947 38.3628 39.5981 37.2544C40.3015 36.146 40.5767 34.8272 40.374 33.537C40.1712 32.2468 39.5039 31.0704 38.4928 30.2209C37.4817 29.3715 36.1937 28.9051 34.8622 28.9063ZM10.1591 34.375C10.1591 35.1476 9.92538 35.9028 9.48758 36.5452C9.04977 37.1876 8.42749 37.6883 7.69944 37.9839C6.97139 38.2796 6.17027 38.3569 5.39738 38.2062C4.62448 38.0555 3.91454 37.6834 3.35731 37.1371C2.80009 36.5908 2.42061 35.8948 2.26687 35.1371C2.11313 34.3793 2.19204 33.5939 2.49361 32.8801C2.79517 32.1664 3.30586 31.5563 3.96109 31.1271C4.61632 30.6979 5.38665 30.4688 6.17469 30.4688C7.23102 30.47 8.24373 30.8819 8.99067 31.6142C9.73761 32.3465 10.1578 33.3394 10.1591 34.375ZM16.5341 6.25001C16.5341 5.47743 16.7677 4.72219 17.2056 4.07981C17.6434 3.43743 18.2656 2.93676 18.9937 2.64111C19.7217 2.34545 20.5229 2.26809 21.2958 2.41882C22.0686 2.56954 22.7786 2.94158 23.3358 3.48787C23.893 4.03417 24.2725 4.7302 24.4263 5.48794C24.58 6.24568 24.5011 7.03109 24.1995 7.74487C23.898 8.45864 23.3873 9.06871 22.732 9.49794C22.0768 9.92716 21.3065 10.1563 20.5184 10.1563C19.4621 10.155 18.4494 9.74307 17.7025 9.01078C16.9555 8.27848 16.5353 7.28563 16.5341 6.25001ZM13.3466 24.2188C12.5585 24.2188 11.7882 23.9897 11.133 23.5604C10.4777 23.1312 9.96705 22.5211 9.66548 21.8074C9.36391 21.0936 9.28501 20.3082 9.43875 19.5504C9.59249 18.7927 9.97196 18.0967 10.5292 17.5504C11.0864 17.0041 11.7964 16.632 12.5693 16.4813C13.3421 16.3306 14.1433 16.408 14.8713 16.7036C15.5994 16.9993 16.2216 17.4999 16.6595 18.1423C17.0973 18.7847 17.3309 19.5399 17.3309 20.3125C17.3297 21.3481 16.9095 22.341 16.1625 23.0733C15.4156 23.8056 14.4029 24.2175 13.3466 24.2188ZM24.5028 34.375C24.5028 35.1476 24.2691 35.9028 23.8313 36.5452C23.3935 37.1876 22.7712 37.6883 22.0432 37.9839C21.3151 38.2796 20.514 38.3569 19.7411 38.2062C18.9682 38.0555 18.2583 37.6834 17.7011 37.1371C17.1438 36.5908 16.7644 35.8948 16.6106 35.1371C16.4569 34.3793 16.5358 33.5939 16.8374 32.8801C17.1389 32.1664 17.6496 31.5563 18.3048 31.1271C18.9601 30.6979 19.7304 30.4688 20.5184 30.4688C21.5748 30.47 22.5875 30.8819 23.3344 31.6142C24.0814 32.3465 24.5016 33.3394 24.5028 34.375ZM22.2716 29.1875C21.134 28.8132 19.9029 28.8132 18.7653 29.1875L16.5261 24.8C17.2661 24.2978 17.8709 23.6272 18.2886 22.8456C18.7063 22.0641 18.9245 21.1949 18.9245 20.3125C18.9245 19.4302 18.7063 18.561 18.2886 17.7794C17.8709 16.9978 17.2661 16.3272 16.5261 15.825L18.7653 11.4375C19.9029 11.8118 21.134 11.8118 22.2716 11.4375L24.5092 15.825C23.7692 16.3272 23.1644 16.9978 22.7467 17.7794C22.329 18.561 22.1108 19.4302 22.1108 20.3125C22.1108 21.1949 22.329 22.0641 22.7467 22.8456C23.1644 23.6272 23.7692 24.2978 24.5092 24.8L22.2716 29.1875ZM27.6903 24.2188C26.9023 24.2188 26.1319 23.9897 25.4767 23.5604C24.8215 23.1312 24.3108 22.5211 24.0092 21.8074C23.7077 21.0936 23.6288 20.3082 23.7825 19.5504C23.9362 18.7927 24.3157 18.0967 24.8729 17.5504C25.4302 17.0041 26.1401 16.632 26.913 16.4813C27.6859 16.3306 28.487 16.408 29.2151 16.7036C29.9431 16.9993 30.5654 17.4999 31.0032 18.1423C31.441 18.7847 31.6747 19.5399 31.6747 20.3125C31.6734 21.3481 31.2532 22.341 30.5063 23.0733C29.7594 23.8056 28.7467 24.2175 27.6903 24.2188ZM34.8622 38.2813C34.0742 38.2813 33.3038 38.0522 32.6486 37.6229C31.9934 37.1937 31.4827 36.5836 31.1811 35.8699C30.8795 35.1561 30.8006 34.3707 30.9544 33.6129C31.1081 32.8552 31.4876 32.1592 32.0448 31.6129C32.602 31.0666 33.312 30.6945 34.0849 30.5438C34.8578 30.3931 35.6589 30.4705 36.3869 30.7661C37.115 31.0618 37.7373 31.5624 38.1751 32.2048C38.6129 32.8472 38.8466 33.6024 38.8466 34.375C38.8453 35.4106 38.4251 36.4035 37.6782 37.1358C36.9312 37.8681 35.9185 38.28 34.8622 38.2813Z" fill="white"/>
</svg>
