<svg width="45" height="45" viewBox="0 0 45 45" fill="none" xmlns="http://www.w3.org/2000/svg">
<path d="M32.1303 31.5416V34.4314C32.3892 34.3125 32.6151 34.1321 32.7883 33.9058C32.9614 33.6796 33.0766 33.4144 33.1238 33.1334C33.1933 32.7913 33.1289 32.4355 32.944 32.1393C32.759 31.8432 32.4683 31.6293 32.1303 31.5416ZM30.0983 28.2559C29.9604 28.9815 30.3584 29.1945 30.724 29.4076V27.3889C30.5622 27.4783 30.4222 27.6024 30.314 27.7523C30.2058 27.9022 30.1321 28.0741 30.0983 28.2559Z" fill="#3A7BD5"/>
<path d="M31.4844 23.9062C30.0937 23.9062 28.7343 24.3186 27.578 25.0912C26.4217 25.8638 25.5205 26.962 24.9884 28.2468C24.4562 29.5315 24.3169 30.9453 24.5882 32.3092C24.8595 33.6732 25.5292 34.926 26.5125 35.9093C27.4959 36.8927 28.7487 37.5623 30.1126 37.8336C31.4766 38.1049 32.8903 37.9657 34.1751 37.4335C35.4599 36.9014 36.558 36.0001 37.3307 34.8439C38.1033 33.6876 38.5156 32.3281 38.5156 30.9375C38.5136 29.0733 37.7721 27.2861 36.454 25.9679C35.1358 24.6497 33.3486 23.9083 31.4844 23.9062ZM34.5134 33.3668C34.4078 33.9758 34.1258 34.5404 33.7025 34.9908C33.2793 35.4412 32.7332 35.7576 32.132 35.9009V36.5625C32.132 36.749 32.0579 36.9278 31.926 37.0597C31.7942 37.1915 31.6153 37.2656 31.4288 37.2656C31.2424 37.2656 31.0635 37.1915 30.9316 37.0597C30.7998 36.9278 30.7257 36.749 30.7257 36.5625V35.9691C30.006 35.9236 29.3141 35.6741 28.7309 35.2498C28.5749 35.1476 28.4658 34.9876 28.4277 34.8049C28.3895 34.6223 28.4255 34.432 28.5277 34.2759C28.6299 34.1199 28.7899 34.0108 28.9726 33.9727C29.1552 33.9345 29.3455 33.9705 29.5016 34.0727C29.8585 34.3418 30.2814 34.5096 30.7257 34.5586V30.9867C29.3631 30.3722 28.4117 29.6227 28.7183 27.9949C28.8038 27.4851 29.0411 27.013 29.3993 26.6403C29.7574 26.2676 30.2197 26.0116 30.7257 25.9059V25.3125C30.7257 25.126 30.7998 24.9472 30.9316 24.8153C31.0635 24.6835 31.2424 24.6094 31.4288 24.6094C31.6153 24.6094 31.7942 24.6835 31.926 24.8153C32.0579 24.9472 32.132 25.126 32.132 25.3125V25.8504C32.7081 25.9473 33.2491 26.1923 33.702 26.5613C33.8358 26.6879 33.9145 26.8621 33.9212 27.0462C33.9279 27.2303 33.8621 27.4097 33.7379 27.5457C33.6137 27.6818 33.441 27.7637 33.2571 27.7738C33.0731 27.7839 32.8926 27.7214 32.7542 27.5998C32.5686 27.4565 32.3574 27.3498 32.132 27.2855V30.0438C32.2965 30.1057 32.4624 30.1669 32.6241 30.2238C33.2711 30.4228 33.8217 30.8536 34.1704 31.4337C34.5191 32.0137 34.6413 32.7022 34.5134 33.3668Z" fill="#3A7BD5"/>
<path d="M42.0305 32.2615V29.6135L43.685 28.2016C43.9946 27.9373 44.2019 27.5729 44.2709 27.1716C44.3399 26.7704 44.2662 26.3576 44.0625 26.0051L42.0446 22.5105C41.841 22.158 41.5204 21.8879 41.1384 21.747C40.7565 21.6061 40.3372 21.6034 39.9535 21.7392L37.9039 22.4655L35.6103 21.1416L35.2151 19.0041C35.141 18.6037 34.9291 18.2418 34.6161 17.9814C34.3031 17.7209 33.9088 17.5782 33.5016 17.5781H29.4657C29.0587 17.5784 28.6646 17.721 28.3518 17.9813C28.0389 18.2416 27.8271 18.6032 27.7528 19.0034L27.357 21.1409L25.0634 22.4655L23.0138 21.7392C22.6301 21.6033 22.211 21.606 21.8291 21.7469C21.4472 21.8878 21.1268 22.158 20.9234 22.5105L18.9054 26.0051C18.7018 26.3576 18.6281 26.7704 18.6971 27.1716C18.766 27.5729 18.9733 27.9373 19.283 28.2016L20.9368 29.6135V32.2615L19.283 33.6734C18.9733 33.9377 18.766 34.3021 18.6971 34.7034C18.6281 35.1046 18.7018 35.5174 18.9054 35.8699L20.9234 39.3645C21.1271 39.7167 21.4476 39.9867 21.8293 40.1275C22.2111 40.2684 22.6301 40.2713 23.0138 40.1358L25.0634 39.4095L27.357 40.7334L27.7528 42.8709C27.8269 43.2712 28.0387 43.633 28.3516 43.8934C28.6644 44.1539 29.0586 44.2966 29.4657 44.2969H33.5016C33.9087 44.2968 34.3029 44.1542 34.6159 43.8939C34.9289 43.6336 35.1409 43.2719 35.2151 42.8716L35.6103 40.7341L37.9039 39.4095L39.9535 40.1358C40.3373 40.2712 40.7563 40.2683 41.1382 40.1274C41.52 39.9866 41.8407 39.7167 42.0446 39.3645L44.0625 35.8699C44.2662 35.5174 44.3399 35.1046 44.2709 34.7034C44.2019 34.3021 43.9946 33.9377 43.685 33.6734L42.0305 32.2615ZM31.4836 39.375C29.8148 39.375 28.1835 38.8801 26.796 37.953C25.4085 37.0259 24.327 35.7081 23.6884 34.1664C23.0498 32.6246 22.8827 30.9281 23.2083 29.2914C23.5338 27.6547 24.3374 26.1513 25.5174 24.9713C26.6974 23.7913 28.2008 22.9877 29.8376 22.6621C31.4743 22.3366 33.1708 22.5037 34.7125 23.1423C36.2543 23.7809 37.572 24.8623 38.4992 26.2499C39.4263 27.6374 39.9211 29.2687 39.9211 30.9375C39.9187 33.1745 39.029 35.3192 37.4472 36.901C35.8654 38.4829 33.7207 39.3726 31.4836 39.375Z" fill="#3A7BD5"/>
<path d="M18.2819 0.703153C15.459 0.698077 12.6766 1.37411 10.1708 2.67387C7.66501 3.97363 5.50977 5.85875 3.88801 8.16924C2.26625 10.4797 1.22585 13.1474 0.855119 15.9458C0.484384 18.7442 0.794255 21.5907 1.75843 24.2438C1.06819 25.4208 0.704127 26.7605 0.703747 28.125C0.710789 30.1741 1.52792 32.1373 2.97687 33.5863C4.42583 35.0352 6.389 35.8524 8.43812 35.8594C9.80261 35.859 11.1423 35.495 12.3194 34.8047C14.7312 35.6751 17.3043 36.0072 19.8581 35.7776C22.4119 35.5479 24.8845 34.7622 27.1024 33.4756C29.3203 32.1889 31.2298 30.4325 32.6968 28.3295C34.1638 26.2265 35.1528 23.828 35.5944 21.3022C36.036 18.7764 35.9196 16.1846 35.2532 13.7086C34.5868 11.2326 33.3866 8.93249 31.7369 6.96959C30.0871 5.00669 28.0278 3.42859 25.7035 2.34606C23.3791 1.26352 20.846 0.702769 18.2819 0.703153ZM2.11 28.125C2.10761 27.0984 2.35506 26.0865 2.83098 25.1769C3.3069 24.2672 3.99701 23.4869 4.84177 22.9035C5.68652 22.32 6.66055 21.9508 7.67982 21.8278C8.69908 21.7048 9.73298 21.8316 10.6923 22.1973C11.6516 22.563 12.5075 23.1567 13.1862 23.927C13.8649 24.6973 14.346 25.6212 14.588 26.619C14.8299 27.6167 14.8255 28.6583 14.5751 29.654C14.3246 30.6496 13.8357 31.5694 13.1505 32.3339C12.9595 31.7042 12.6447 31.119 12.2245 30.6127C11.8043 30.1063 11.2872 29.6889 10.7036 29.385C11.2549 28.9206 11.6501 28.2978 11.8357 27.6013C12.0212 26.9047 11.9881 26.1679 11.7409 25.4907C11.4937 24.8135 11.0442 24.2287 10.4535 23.8155C9.86281 23.4024 9.15936 23.1807 8.43847 23.1807C7.71759 23.1807 7.01413 23.4024 6.42342 23.8155C5.8327 24.2287 5.38328 24.8135 5.13606 25.4907C4.88883 26.1679 4.85575 26.9047 5.0413 27.6013C5.22684 28.2978 5.62205 28.9206 6.17336 29.385C5.58971 29.6889 5.07263 30.1063 4.65245 30.6127C4.23227 31.119 3.91746 31.7042 3.72648 32.3339C2.68649 31.1787 2.1107 29.6795 2.11 28.125ZM6.32875 26.7188C6.32875 26.3016 6.45246 25.8938 6.68424 25.5469C6.91602 25.2 7.24546 24.9296 7.6309 24.77C8.01634 24.6103 8.44046 24.5685 8.84964 24.6499C9.25882 24.7313 9.63467 24.9322 9.92968 25.2272C10.2247 25.5222 10.4256 25.8981 10.507 26.3073C10.5884 26.7164 10.5466 27.1406 10.3869 27.526C10.2273 27.9114 9.95691 28.2409 9.61003 28.4727C9.26314 28.7044 8.85532 28.8282 8.43812 28.8282C7.87885 28.8276 7.34265 28.6052 6.94719 28.2097C6.55172 27.8143 6.32931 27.278 6.32875 26.7188ZM4.95765 33.4041C5.03943 32.5376 5.44146 31.7328 6.08513 31.1471C6.7288 30.5613 7.56781 30.2367 8.43812 30.2367C9.30843 30.2367 10.1474 30.5613 10.7911 31.1471C11.4348 31.7328 11.8368 32.5376 11.9186 33.4041C10.8867 34.088 9.67612 34.4528 8.43812 34.4528C7.20013 34.4528 5.98957 34.088 4.95765 33.4041ZM26.9648 31.9135L26.6252 31.3264C26.5793 31.2457 26.518 31.175 26.4447 31.1182C26.3714 31.0614 26.2876 31.0196 26.1981 30.9953C26.1087 30.971 26.0152 30.9647 25.9233 30.9766C25.8313 30.9886 25.7427 31.0186 25.6623 31.065C25.582 31.1113 25.5117 31.1731 25.4554 31.2468C25.399 31.3204 25.3578 31.4045 25.3341 31.4942C25.3104 31.5838 25.3047 31.6773 25.3173 31.7691C25.3298 31.861 25.3604 31.9495 25.4073 32.0295L25.7477 32.6201C23.6544 33.7153 21.3453 34.3349 18.985 34.4349V33.75C18.985 33.5635 18.9109 33.3847 18.7791 33.2528C18.6472 33.121 18.4684 33.0469 18.2819 33.0469C18.0954 33.0469 17.9165 33.121 17.7847 33.2528C17.6528 33.3847 17.5787 33.5635 17.5787 33.75V34.4208C16.263 34.3675 14.9587 34.1526 13.6954 33.781C14.4603 33.0755 15.0747 32.2228 15.5018 31.274C15.929 30.3252 16.16 29.2998 16.1809 28.2595C16.2019 27.2192 16.0125 26.1854 15.624 25.2201C15.2355 24.2548 14.6559 23.378 13.9201 22.6423C13.1843 21.9066 12.3074 21.3271 11.3421 20.9388C10.3768 20.5504 9.34292 20.3611 8.30261 20.3822C7.2623 20.4033 6.23699 20.6344 5.28823 21.0617C4.33946 21.4889 3.48682 22.1035 2.78148 22.8685C2.40977 21.6049 2.19487 20.3004 2.14164 18.9844H2.81312C2.9996 18.9844 3.17844 18.9103 3.31031 18.7785C3.44217 18.6466 3.51625 18.4678 3.51625 18.2813C3.51625 18.0948 3.44217 17.916 3.31031 17.7841C3.17844 17.6522 2.9996 17.5782 2.81312 17.5782H2.12758C2.22786 15.2175 2.848 12.9081 3.94375 10.8148L4.53437 11.1558C4.61437 11.2027 4.70285 11.2333 4.79472 11.2459C4.88659 11.2584 4.98005 11.2527 5.06969 11.229C5.15934 11.2053 5.24342 11.1641 5.31708 11.1078C5.39074 11.0514 5.45253 10.9811 5.49889 10.9008C5.54526 10.8205 5.57528 10.7318 5.58723 10.6399C5.59919 10.5479 5.59283 10.4545 5.56854 10.365C5.54424 10.2755 5.50248 10.1917 5.44567 10.1184C5.38886 10.0452 5.31811 9.98383 5.2375 9.938L4.64898 9.59839C5.92085 7.60924 7.60983 5.92026 9.59898 4.64839L9.93859 5.2362C10.0325 5.39638 10.1859 5.51291 10.3654 5.56037C10.5449 5.60783 10.7359 5.58236 10.8967 5.48952C11.0575 5.39668 11.1751 5.24401 11.2237 5.06482C11.2724 4.88564 11.2482 4.69448 11.1564 4.53308L10.8161 3.94245C12.9093 2.84729 15.2185 2.22763 17.5787 2.12768V2.81253C17.5787 2.99901 17.6528 3.17785 17.7847 3.30971C17.9165 3.44157 18.0954 3.51565 18.2819 3.51565C18.4684 3.51565 18.6472 3.44157 18.7791 3.30971C18.9109 3.17785 18.985 2.99901 18.985 2.81253V2.12698C21.3454 2.22737 23.6545 2.84751 25.7477 3.94315L25.4073 4.53378C25.3156 4.69519 25.2914 4.88634 25.34 5.06553C25.3887 5.24471 25.5062 5.39738 25.667 5.49022C25.8278 5.58306 26.0188 5.60853 26.1983 5.56107C26.3778 5.51361 26.5313 5.39708 26.6252 5.2369L26.9648 4.64839C28.9539 5.92026 30.6429 7.60924 31.9148 9.59839L31.327 9.938C31.2463 9.98383 31.1756 10.0452 31.1188 10.1184C31.062 10.1917 31.0202 10.2755 30.9959 10.365C30.9716 10.4545 30.9653 10.5479 30.9772 10.6399C30.9892 10.7318 31.0192 10.8205 31.0656 10.9008C31.1119 10.9811 31.1737 11.0514 31.2474 11.1078C31.321 11.1641 31.4051 11.2053 31.4948 11.229C31.5844 11.2527 31.6779 11.2584 31.7697 11.2459C31.8616 11.2333 31.9501 11.2027 32.0301 11.1558L32.62 10.8148C33.7157 12.9081 34.3359 15.2175 34.4362 17.5782H33.7506C33.5641 17.5782 33.3853 17.6522 33.2534 17.7841C33.1216 17.916 33.0475 18.0948 33.0475 18.2813C33.0475 18.4678 33.1216 18.6466 33.2534 18.7785C33.3853 18.9103 33.5641 18.9844 33.7506 18.9844H34.4362C34.3359 21.345 33.7157 23.6544 32.62 25.7478L32.0294 25.4067C31.9494 25.3598 31.8609 25.3292 31.769 25.3167C31.6771 25.3041 31.5837 25.3099 31.4941 25.3336C31.4044 25.3573 31.3203 25.3985 31.2467 25.4548C31.173 25.5111 31.1112 25.5814 31.0649 25.6618C31.0185 25.7421 30.9885 25.8307 30.9765 25.9227C30.9646 26.0146 30.9709 26.1081 30.9952 26.1975C31.0195 26.287 31.0613 26.3708 31.1181 26.4441C31.1749 26.5174 31.2456 26.5787 31.3262 26.6246L31.9148 26.9642C30.6429 28.9533 28.9539 30.6416 26.9648 31.9135Z" fill="white"/>
<path d="M20.693 19.7016C20.9513 19.2726 21.089 18.7819 21.0916 18.2812C21.0898 17.6594 20.8817 17.0558 20.5 16.5649C20.1183 16.074 19.5845 15.7236 18.9823 15.5686V5.625C18.9823 5.43852 18.9082 5.25968 18.7763 5.12782C18.6444 4.99595 18.4656 4.92188 18.2791 4.92188C18.0926 4.92188 17.9138 4.99595 17.7819 5.12782C17.6501 5.25968 17.576 5.43852 17.576 5.625V15.5686C16.9139 15.739 16.3368 16.1452 15.9529 16.7109C15.5691 17.2767 15.4049 17.963 15.4912 18.6412C15.5775 19.3194 15.9084 19.9428 16.4217 20.3943C16.935 20.8459 17.5955 21.0946 18.2791 21.0938C18.7798 21.0911 19.2705 20.9534 19.6994 20.6951L26.2195 27.2159C26.3521 27.3439 26.5297 27.4148 26.7141 27.4132C26.8985 27.4116 27.0748 27.3377 27.2052 27.2073C27.3355 27.0769 27.4095 26.9006 27.4111 26.7162C27.4127 26.5319 27.3418 26.3543 27.2137 26.2216L20.693 19.7016ZM18.2791 19.6875C18.001 19.6875 17.7291 19.605 17.4979 19.4505C17.2666 19.296 17.0864 19.0764 16.9799 18.8194C16.8735 18.5624 16.8456 18.2797 16.8999 18.0069C16.9542 17.7341 17.0881 17.4835 17.2848 17.2869C17.4814 17.0902 17.732 16.9563 18.0048 16.902C18.2776 16.8478 18.5603 16.8756 18.8173 16.982C19.0742 17.0885 19.2939 17.2687 19.4484 17.5C19.6029 17.7312 19.6854 18.0031 19.6854 18.2812C19.685 18.6541 19.5367 19.0116 19.2731 19.2752C19.0094 19.5389 18.652 19.6871 18.2791 19.6875Z" fill="white"/>
</svg>
