<svg width="45" height="52" viewBox="0 0 45 52" fill="none" xmlns="http://www.w3.org/2000/svg">
<path d="M15.7893 46.5855C17.3823 47.1984 19.132 47.1679 20.7052 46.4999C22.2783 45.832 23.565 44.5732 24.3199 42.9634L11.4498 37.9917C11.053 39.7397 11.2759 41.5815 12.0762 43.1663C12.8765 44.7511 14.1981 45.9681 15.7893 46.5855Z" fill="#3A7BD5"/>
<path d="M22.8531 25.9716C20.5763 25.0923 18.105 24.9493 15.7517 25.5606C13.3983 26.1719 11.2686 27.51 9.63192 29.4058C7.9952 31.3015 6.92496 33.6698 6.55653 36.211C6.18811 38.7523 6.53805 41.3524 7.5621 43.6826C8.58615 46.0128 10.2383 47.9684 12.3097 49.3021C14.381 50.6358 16.7786 51.2877 19.1991 51.1755C21.6196 51.0632 23.9543 50.1917 25.9081 48.6712C27.8619 47.1508 29.347 45.0496 30.1755 42.6335C30.7267 41.0293 30.9745 39.3256 30.9047 37.6197C30.835 35.9138 30.449 34.2392 29.7689 32.6917C29.0889 31.1442 28.128 29.7542 26.9413 28.6011C25.7546 27.448 24.3654 26.5545 22.8531 25.9716ZM26.0542 42.7708C25.6772 43.8756 25.0987 44.8907 24.3518 45.758C23.6048 46.6253 22.704 47.3278 21.7009 47.8253C20.6978 48.3227 19.6122 48.6054 18.5061 48.6571C17.3999 48.7089 16.295 48.5286 15.2546 48.1267C14.2142 47.7248 13.2587 47.1092 12.4427 46.315C11.6267 45.5207 10.9663 44.5636 10.4993 43.4982C10.0323 42.4329 9.76779 41.2803 9.72096 40.1063C9.67413 38.9324 9.84588 37.7602 10.2264 36.6568C10.2959 36.4545 10.4383 36.2898 10.6222 36.1989C10.8061 36.1079 11.0165 36.0982 11.2072 36.1717L25.5963 41.7292C25.6909 41.7656 25.7778 41.8214 25.852 41.8935C25.9263 41.9655 25.9864 42.0524 26.0289 42.1492C26.0714 42.246 26.0955 42.3507 26.0999 42.4573C26.1042 42.564 26.0887 42.6705 26.0542 42.7708ZM35.3259 31.9605C36.9175 31.3436 38.2396 30.1267 39.0402 28.5418C39.8408 26.957 40.0639 25.1149 39.667 23.3667L28.3105 27.7534C29.5275 29.013 30.5108 30.5041 31.2091 32.149C32.567 32.5366 34.0045 32.4708 35.3259 31.9605Z" fill="#3A7BD5"/>
<path d="M43.9641 19.1157C42.977 16.2359 41.0627 13.8189 38.5593 12.2917C36.0558 10.7644 33.1244 10.2252 30.2826 10.7692C27.4409 11.3131 24.8717 12.9053 23.0289 15.2645C21.186 17.6237 20.1881 20.5982 20.2113 23.6624C22.6782 23.9486 25.0255 24.9405 27.0024 26.5322L39.9093 21.5467C40.0037 21.5102 40.104 21.4937 40.2044 21.4984C40.3048 21.503 40.4033 21.5285 40.4944 21.5736C40.5855 21.6186 40.6673 21.6823 40.7352 21.7609C40.8031 21.8395 40.8557 21.9315 40.8901 22.0318C41.6516 24.2594 41.5493 26.7166 40.6057 28.8644C39.6621 31.0121 37.9543 32.6749 35.8569 33.488C34.575 33.9869 33.1969 34.1421 31.845 33.9398C32.0924 34.794 32.2649 35.6706 32.3603 36.5584C33.8201 36.5749 35.2706 36.3106 36.6416 35.7785C38.1541 35.1956 39.5434 34.302 40.7301 33.1488C41.9169 31.9957 42.8778 30.6056 43.5578 29.058C44.2379 27.5104 44.6238 25.8357 44.6936 24.1298C44.7633 22.4238 44.5154 20.7199 43.9641 19.1157Z" fill="#3A7BD5"/>
<path d="M36.9174 22.6646C36.4098 22.3291 35.8294 22.1379 35.232 22.1094C34.6346 22.081 34.0404 22.2162 33.5065 22.5021L26.8379 26.0406C25.8818 26.5464 24.8284 26.8105 23.7601 26.8125C24.8707 25.8633 25.6764 24.5719 26.0663 23.1163C26.4561 21.6607 26.4108 20.1126 25.9366 18.6855C25.4625 17.2584 24.5828 16.0225 23.4188 15.1483C22.2549 14.2742 20.8641 13.8047 19.4382 13.8047C18.0122 13.8047 16.6214 14.2742 15.4575 15.1483C14.2935 16.0225 13.4138 17.2584 12.9397 18.6855C12.4655 20.1126 12.4202 21.6607 12.81 23.1163C13.1999 24.5719 14.0056 25.8633 15.1162 26.8125C14.0479 26.8105 12.9945 26.5464 12.0384 26.0406L5.36979 22.5013C4.53828 22.0601 3.57566 21.9875 2.6937 22.2995C1.81175 22.6115 1.0827 23.2825 0.666942 24.1649C0.251184 25.0474 0.182773 26.0689 0.476758 27.0049C0.770744 27.9408 1.40304 28.7145 2.23456 29.1557L7.49211 31.945C9.01475 32.7461 10.2954 33.9839 11.189 35.5181C12.0825 37.0523 12.5532 38.8214 12.5475 40.625C12.5475 40.8404 12.6282 41.0471 12.7718 41.1995C12.9154 41.3519 13.1101 41.4375 13.3132 41.4375C13.5162 41.4375 13.7109 41.3519 13.8545 41.1995C13.9981 41.0471 14.0788 40.8404 14.0788 40.625C14.0855 38.5194 13.5362 36.454 12.4931 34.6629C11.4501 32.8718 9.95495 31.4267 8.17734 30.4915L2.91979 27.7013C2.46615 27.4442 2.12498 27.0094 1.96892 26.4893C1.81286 25.9693 1.85423 25.4051 2.08423 24.917C2.31423 24.4288 2.71469 24.0552 3.20036 23.8757C3.68603 23.6961 4.21855 23.7248 4.68456 23.9557L11.3539 27.4941C12.524 28.1131 13.8134 28.436 15.1208 28.4375H23.7563C25.0634 28.4358 26.3525 28.113 27.5224 27.4941L34.191 23.9549C34.4232 23.8272 34.6771 23.7498 34.9378 23.7271C35.1985 23.7045 35.4608 23.7371 35.7095 23.8229C35.9583 23.9088 36.1884 24.0463 36.3866 24.2274C36.5849 24.4085 36.7472 24.6296 36.8642 24.8779C36.9812 25.1261 37.0505 25.3966 37.0681 25.6736C37.0858 25.9505 37.0514 26.2284 36.9669 26.4911C36.8825 26.7538 36.7496 26.9961 36.5762 27.2039C36.4027 27.4116 36.1921 27.5807 35.9565 27.7013L30.699 30.4915C28.9214 31.4267 27.4263 32.8718 26.3832 34.6629C25.3401 36.454 24.7908 38.5194 24.7975 40.625C24.7975 40.8404 24.8782 41.0471 25.0218 41.1995C25.1654 41.3519 25.3601 41.4375 25.5632 41.4375C25.7662 41.4375 25.961 41.3519 26.1045 41.1995C26.2481 41.0471 26.3288 40.8404 26.3288 40.625C26.3232 38.8214 26.7938 37.0523 27.6873 35.5181C28.5809 33.9839 29.8616 32.7461 31.3842 31.945L36.6418 29.1549C37.1999 28.8586 37.6733 28.4096 38.0133 27.8542C38.3532 27.2989 38.5472 26.6572 38.5753 25.9957C38.6034 25.3341 38.4645 24.6765 38.1731 24.0909C37.8816 23.5054 37.4481 23.013 36.9174 22.6646ZM14.0788 21.125C14.0788 20.0001 14.3931 18.9005 14.982 17.9652C15.5709 17.0298 16.4079 16.3009 17.3872 15.8704C18.3665 15.4399 19.4441 15.3273 20.4837 15.5467C21.5233 15.7662 22.4783 16.3079 23.2278 17.1033C23.9773 17.8987 24.4878 18.9121 24.6945 20.0154C24.9013 21.1186 24.7952 22.2622 24.3896 23.3015C23.9839 24.3407 23.297 25.229 22.4157 25.8539C21.5343 26.4789 20.4981 26.8125 19.4382 26.8125C18.0173 26.8107 16.655 26.211 15.6503 25.1447C14.6456 24.0785 14.0804 22.6328 14.0788 21.125Z" fill="white"/>
<path d="M19.4375 25.1875C20.4524 25.1862 21.4254 24.7578 22.1431 23.9962C22.8607 23.2346 23.2644 22.202 23.2656 21.125C23.2656 20.9095 23.185 20.7029 23.0414 20.5505C22.8978 20.3981 22.7031 20.3125 22.5 20.3125C22.2969 20.3125 22.1022 20.3981 21.9586 20.5505C21.815 20.7029 21.7344 20.9095 21.7344 21.125C21.7344 21.7715 21.4924 22.3915 21.0616 22.8486C20.6309 23.3057 20.0467 23.5625 19.4375 23.5625C18.8283 23.5625 18.2441 23.3057 17.8134 22.8486C17.3826 22.3915 17.1406 21.7715 17.1406 21.125C17.1406 20.9095 17.06 20.7029 16.9164 20.5505C16.7728 20.3981 16.5781 20.3125 16.375 20.3125C16.1719 20.3125 15.9772 20.3981 15.8336 20.5505C15.69 20.7029 15.6094 20.9095 15.6094 21.125C15.6106 22.202 16.0143 23.2346 16.7319 23.9962C17.4496 24.7578 18.4226 25.1862 19.4375 25.1875ZM19.4375 12.1875C20.4975 12.1875 21.5337 11.8539 22.415 11.229C23.2964 10.604 23.9833 9.71577 24.3889 8.67651C24.7946 7.63726 24.9007 6.49369 24.6939 5.39043C24.4871 4.28716 23.9767 3.27374 23.2272 2.47833C22.4776 1.68292 21.5227 1.14124 20.4831 0.921786C19.4434 0.702333 18.3659 0.814964 17.3866 1.24544C16.4073 1.67591 15.5702 2.40489 14.9813 3.3402C14.3924 4.2755 14.0781 5.37512 14.0781 6.5C14.0797 8.00789 14.6449 9.45353 15.6496 10.5198C16.6544 11.586 18.0166 12.1858 19.4375 12.1875ZM19.4375 2.4375C20.1946 2.4375 20.9348 2.67576 21.5643 3.12216C22.1938 3.56855 22.6845 4.20303 22.9742 4.94535C23.264 5.68768 23.3398 6.50451 23.1921 7.29256C23.0444 8.08061 22.6798 8.80447 22.1444 9.37262C21.609 9.94077 20.9269 10.3277 20.1843 10.4844C19.4417 10.6412 18.672 10.5607 17.9725 10.2533C17.273 9.94578 16.6752 9.42508 16.2545 8.75701C15.8339 8.08893 15.6094 7.30349 15.6094 6.5C15.6106 5.42296 16.0143 4.39039 16.7319 3.62881C17.4496 2.86722 18.4226 2.43879 19.4375 2.4375ZM33.2188 18.6875C34.2787 18.6875 35.3149 18.3539 36.1963 17.729C37.0776 17.104 37.7645 16.2158 38.1702 15.1765C38.5758 14.1373 38.6819 12.9937 38.4751 11.8904C38.2684 10.7872 37.7579 9.77374 37.0084 8.97833C36.2589 8.18292 35.3039 7.64124 34.2643 7.42179C33.2247 7.20233 32.1471 7.31496 31.1678 7.74544C30.1885 8.17591 29.3515 8.90489 28.7626 9.8402C28.1737 10.7755 27.8594 11.8751 27.8594 13C27.861 14.5079 28.4262 15.9535 29.4309 17.0198C30.4356 18.086 31.7979 18.6858 33.2188 18.6875ZM33.2188 8.9375C33.9759 8.9375 34.716 9.17576 35.3455 9.62216C35.9751 10.0686 36.4657 10.703 36.7555 11.4454C37.0452 12.1877 37.121 13.0045 36.9733 13.7926C36.8256 14.5806 36.461 15.3045 35.9256 15.8726C35.3903 16.4408 34.7082 16.8277 33.9656 16.9844C33.223 17.1412 32.4533 17.0607 31.7538 16.7533C31.0543 16.4458 30.4564 15.9251 30.0358 15.257C29.6151 14.5889 29.3906 13.8035 29.3906 13C29.3918 11.923 29.7956 10.8904 30.5132 10.1288C31.2309 9.36722 32.2038 8.93879 33.2188 8.9375ZM5.65625 18.6875C6.71623 18.6875 7.75241 18.3539 8.63376 17.729C9.5151 17.104 10.202 16.2158 10.6077 15.1765C11.0133 14.1373 11.1194 12.9937 10.9126 11.8904C10.7059 10.7872 10.1954 9.77374 9.4459 8.97833C8.69638 8.18292 7.74143 7.64124 6.70181 7.42179C5.6622 7.20233 4.5846 7.31496 3.60531 7.74544C2.62601 8.17591 1.78899 8.90489 1.20009 9.8402C0.611197 10.7755 0.296875 11.8751 0.296875 13C0.298496 14.5079 0.863664 15.9535 1.86839 17.0198C2.87312 18.086 4.23535 18.6858 5.65625 18.6875ZM5.65625 8.9375C6.41338 8.9375 7.15351 9.17576 7.78304 9.62216C8.41257 10.0686 8.90323 10.703 9.19298 11.4454C9.48272 12.1877 9.55853 13.0045 9.41082 13.7926C9.26311 14.5806 8.89852 15.3045 8.36314 15.8726C7.82777 16.4408 7.14566 16.8277 6.40308 16.9844C5.6605 17.1412 4.89079 17.0607 4.19129 16.7533C3.49179 16.4458 2.89392 15.9251 2.47328 15.257C2.05264 14.5889 1.82812 13.8035 1.82812 13C1.82934 11.923 2.23305 10.8904 2.9507 10.1288C3.66835 9.36722 4.64134 8.93879 5.65625 8.9375Z" fill="white"/>
<path d="M5.65625 15.4375C6.26523 15.4369 6.8491 15.1798 7.27971 14.7229C7.71033 14.2659 7.95252 13.6463 7.95312 13C7.95312 12.7845 7.87246 12.5778 7.72888 12.4255C7.5853 12.2731 7.39056 12.1875 7.1875 12.1875C6.98444 12.1875 6.7897 12.2731 6.64612 12.4255C6.50254 12.5778 6.42188 12.7845 6.42188 13C6.42188 13.2155 6.34121 13.4222 6.19763 13.5745C6.05405 13.7269 5.85931 13.8125 5.65625 13.8125C5.45319 13.8125 5.25845 13.7269 5.11487 13.5745C4.97129 13.4222 4.89062 13.2155 4.89062 13C4.89062 12.7845 4.80996 12.5778 4.66638 12.4255C4.5228 12.2731 4.32806 12.1875 4.125 12.1875C3.92194 12.1875 3.7272 12.2731 3.58362 12.4255C3.44004 12.5778 3.35938 12.7845 3.35938 13C3.35998 13.6463 3.60217 14.2659 4.03279 14.7229C4.4634 15.1798 5.04727 15.4369 5.65625 15.4375ZM19.4375 8.9375C20.0465 8.93685 20.6303 8.67984 21.061 8.22286C21.4916 7.76588 21.7338 7.14627 21.7344 6.5C21.7344 6.28451 21.6537 6.07785 21.5101 5.92548C21.3665 5.7731 21.1718 5.6875 20.9688 5.6875C20.7657 5.6875 20.571 5.7731 20.4274 5.92548C20.2838 6.07785 20.2031 6.28451 20.2031 6.5C20.2031 6.71549 20.1225 6.92215 19.9789 7.07452C19.8353 7.2269 19.6406 7.3125 19.4375 7.3125C19.2344 7.3125 19.0397 7.2269 18.8961 7.07452C18.7525 6.92215 18.6719 6.71549 18.6719 6.5C18.6719 6.28451 18.5912 6.07785 18.4476 5.92548C18.304 5.7731 18.1093 5.6875 17.9062 5.6875C17.7032 5.6875 17.5085 5.7731 17.3649 5.92548C17.2213 6.07785 17.1406 6.28451 17.1406 6.5C17.1412 7.14627 17.3834 7.76588 17.814 8.22286C18.2447 8.67984 18.8285 8.93685 19.4375 8.9375ZM33.2188 15.4375C33.8277 15.4369 34.4116 15.1798 34.8422 14.7229C35.2728 14.2659 35.515 13.6463 35.5156 13C35.5156 12.7845 35.435 12.5778 35.2914 12.4255C35.1478 12.2731 34.9531 12.1875 34.75 12.1875C34.5469 12.1875 34.3522 12.2731 34.2086 12.4255C34.065 12.5778 33.9844 12.7845 33.9844 13C33.9844 13.2155 33.9037 13.4222 33.7601 13.5745C33.6165 13.7269 33.4218 13.8125 33.2188 13.8125C33.0157 13.8125 32.821 13.7269 32.6774 13.5745C32.5338 13.4222 32.4531 13.2155 32.4531 13C32.4531 12.7845 32.3725 12.5778 32.2289 12.4255C32.0853 12.2731 31.8906 12.1875 31.6875 12.1875C31.4844 12.1875 31.2897 12.2731 31.1461 12.4255C31.0025 12.5778 30.9219 12.7845 30.9219 13C30.9225 13.6463 31.1647 14.2659 31.5953 14.7229C32.0259 15.1798 32.6098 15.4369 33.2188 15.4375Z" fill="white"/>
</svg>
