<svg width="49" height="51" viewBox="0 0 49 51" fill="none" xmlns="http://www.w3.org/2000/svg">
<path d="M39.0151 33.0942L31.9635 45.3063C31.8936 45.4274 31.793 45.528 31.6719 45.5979C31.5507 45.6679 31.4133 45.7047 31.2734 45.7047C31.1336 45.7047 30.9962 45.6679 30.875 45.5979C30.7539 45.528 30.6533 45.4274 30.5833 45.3063L23.5318 33.0942C20.7351 33.8112 18.256 35.4371 16.484 37.7164C14.7119 39.9958 13.7475 42.7993 13.7422 45.6864V49.4078C13.7422 49.6191 13.8261 49.8218 13.9756 49.9713C14.125 50.1207 14.3277 50.2047 14.5391 50.2047H48.0078C48.2192 50.2047 48.4218 50.1207 48.5713 49.9713C48.7207 49.8218 48.8047 49.6191 48.8047 49.4078V45.6864C48.7997 42.7991 47.8354 39.9954 46.0633 37.7158C44.2913 35.4363 41.8119 33.8111 39.0151 33.0942ZM24.1016 43.032H20.1172C19.9058 43.032 19.7032 42.9481 19.5537 42.7986C19.4043 42.6492 19.3203 42.4465 19.3203 42.2351C19.3203 42.0238 19.4043 41.8211 19.5537 41.6717C19.7032 41.5222 19.9058 41.4383 20.1172 41.4383H24.1016C24.3129 41.4383 24.5156 41.5222 24.665 41.6717C24.8145 41.8211 24.8984 42.0238 24.8984 42.2351C24.8984 42.4465 24.8145 42.6492 24.665 42.7986C24.5156 42.9481 24.3129 43.032 24.1016 43.032Z" fill="#3A7BD5"/>
<path d="M26.7534 32.6735C26.2298 32.6765 25.7069 32.7111 25.1875 32.7771L31.2716 43.3141L37.3558 32.7771C36.8364 32.7111 36.3135 32.6765 35.7899 32.6735H26.7534Z" fill="#3A7BD5"/>
<path d="M39.2422 22.3141C39.2422 17.9131 35.6745 14.3453 31.2734 14.3453C26.8724 14.3453 23.3047 17.9131 23.3047 22.3141V23.111C23.3047 27.512 26.8724 31.0797 31.2734 31.0797C35.6745 31.0797 39.2422 27.512 39.2422 23.111V22.3141Z" fill="#3A7BD5"/>
<path d="M37.6484 34.2673V8.81507C37.6484 8.60373 37.5645 8.40104 37.415 8.2516C37.2656 8.10216 37.0629 8.0182 36.8516 8.0182H31.4527C31.321 7.85488 31.1686 7.70943 30.9993 7.5855L21.6177 1.30692C21.1978 0.981102 20.6829 0.801488 20.1515 0.795446C19.6201 0.789403 19.1012 0.957264 18.674 1.27345L9.27331 7.53689C9.09745 7.67537 8.9414 7.83732 8.80953 8.0182H3.38281C3.17147 8.0182 2.96878 8.10216 2.81934 8.2516C2.66989 8.40104 2.58594 8.60373 2.58594 8.81507V34.2673C1.9521 34.2679 1.3444 34.52 0.896209 34.9682C0.448017 35.4164 0.195945 36.024 0.195312 36.6579V38.2516C0.195945 38.8855 0.448017 39.4932 0.896209 39.9414C1.3444 40.3896 1.9521 40.6416 2.58594 40.6423H37.6484C38.2823 40.6416 38.89 40.3896 39.3382 39.9414C39.7864 39.4932 40.0384 38.8855 40.0391 38.2516V36.6579C40.0384 36.024 39.7864 35.4164 39.3382 34.9682C38.89 34.52 38.2823 34.2679 37.6484 34.2673ZM19.6008 2.56917C19.7594 2.45156 19.9529 2.39075 20.1502 2.39653C20.3475 2.40232 20.5372 2.47435 20.6885 2.60104L30.0877 8.89317C30.1844 8.97204 30.2628 9.07094 30.3176 9.18305C30.3724 9.29517 30.4023 9.41784 30.4051 9.5426C30.4079 9.66735 30.3836 9.79124 30.3339 9.9057C30.2842 10.0202 30.2102 10.1225 30.1172 10.2056L20.7148 16.5551C20.5556 16.6751 20.3603 16.7372 20.161 16.7315C19.9617 16.7257 19.7704 16.6522 19.6183 16.5232L10.2367 10.1586C10.1331 10.0784 10.0493 9.97528 9.99194 9.85739C9.93459 9.7395 9.90519 9.60997 9.90603 9.47887C9.90662 9.35669 9.93305 9.23601 9.9836 9.12476C10.0341 9.01352 10.1076 8.91422 10.1993 8.8334L19.6008 2.56917ZM12.9852 13.947L18.6812 17.811C19.1029 18.1441 19.6231 18.3281 20.1605 18.3342C20.6979 18.3402 21.2221 18.168 21.6512 17.8445L27.3289 14.0099V21.9348C27.3161 22.0707 27.2505 22.1962 27.1462 22.2843C27.0419 22.3724 26.9072 22.416 26.7711 22.4058H13.543C13.4069 22.4162 13.2722 22.3728 13.1679 22.2848C13.0635 22.1969 12.9979 22.0715 12.9852 21.9356V13.947ZM4.17969 9.61195H8.32902C8.34687 9.97019 8.44303 10.3202 8.61072 10.6372C8.77841 10.9543 9.01356 11.2308 9.29961 11.4472L11.3914 12.8656V21.9348C11.4037 22.4937 11.6372 23.0248 12.0405 23.4118C12.4438 23.7989 12.9841 24.0102 13.543 23.9995H26.7711C27.3298 24.0102 27.87 23.799 28.2733 23.4121C28.6766 23.0253 28.9101 22.4943 28.9227 21.9356V12.9333L31.0527 11.495C31.3402 11.2714 31.5738 10.9861 31.7364 10.6602C31.899 10.3343 31.9864 9.97611 31.9922 9.61195H36.0547V34.2194H4.17969V9.61195ZM38.4453 38.2516C38.4453 38.463 38.3614 38.6657 38.2119 38.8151C38.0625 38.9646 37.8598 39.0485 37.6484 39.0485H2.58594C2.37466 39.0483 2.17209 38.9643 2.02269 38.8149C1.8733 38.6655 1.78927 38.4629 1.78906 38.2516V36.6579C1.78927 36.4466 1.8733 36.244 2.02269 36.0946C2.17209 35.9452 2.37466 35.8612 2.58594 35.861H37.6484C37.8598 35.861 38.0625 35.945 38.2119 36.0944C38.3614 36.2439 38.4453 36.4465 38.4453 36.6579V38.2516Z" fill="white"/>
<path d="M31.6719 29.486H8.5625C8.35116 29.486 8.14847 29.5699 7.99902 29.7194C7.84958 29.8688 7.76562 30.0715 7.76562 30.2828C7.76562 30.4942 7.84958 30.6969 7.99902 30.8463C8.14847 30.9958 8.35116 31.0797 8.5625 31.0797H31.6719C31.8832 31.0797 32.0859 30.9958 32.2354 30.8463C32.3848 30.6969 32.4688 30.4942 32.4688 30.2828C32.4688 30.0715 32.3848 29.8688 32.2354 29.7194C32.0859 29.5699 31.8832 29.486 31.6719 29.486Z" fill="white"/>
</svg>
