<svg width="51" height="49" viewBox="0 0 51 49" fill="none" xmlns="http://www.w3.org/2000/svg">
<path d="M34.4386 36.1503L31.2511 32.1659C31.119 32.0008 31.0579 31.7899 31.0813 31.5797C31.1047 31.3695 31.2106 31.1772 31.3758 31.0451C31.541 30.913 31.7518 30.852 31.962 30.8754C32.1722 30.8987 32.3645 31.0047 32.4966 31.1698L35.0681 34.3852L40.1331 28.1951C38.8268 26.8724 37.0637 26.0999 35.2058 26.036C33.3479 25.9722 31.536 26.6219 30.142 27.8518C28.748 29.0818 27.8776 30.7986 27.7095 32.65C27.5414 34.5014 28.0883 36.3469 29.238 37.8078C30.3876 39.2687 32.0529 40.2342 33.8919 40.506C35.7309 40.7779 37.6043 40.3356 39.1274 39.2698C40.6506 38.204 41.7081 36.5957 42.0829 34.7748C42.4576 32.954 42.1212 31.0587 41.1427 29.4781L35.6785 36.1559C35.6033 36.2479 35.5085 36.322 35.401 36.3727C35.2935 36.4234 35.1761 36.4494 35.0572 36.4489C34.9384 36.4483 34.8212 36.4212 34.7141 36.3696C34.6071 36.3179 34.513 36.243 34.4386 36.1503Z" fill="#3A7BD5"/>
<path d="M49.2485 30.8225C48.9496 30.4654 48.7329 30.0469 48.6136 29.5968C48.4944 29.1466 48.4755 28.6757 48.5584 28.2175C48.6541 25.8914 48.2397 25.1662 46.1559 24.0793C45.7159 23.9205 45.3163 23.6666 44.9856 23.3358C44.6549 23.0049 44.4012 22.6053 44.2426 22.1652C43.1413 20.0559 42.3986 19.6694 40.1044 19.7618C39.6457 19.8443 39.1745 19.8252 38.724 19.7058C38.2735 19.5864 37.8547 19.3697 37.497 19.0709C35.5224 17.8135 34.6426 17.7832 32.6202 19.0709C32.2628 19.3697 31.8442 19.5864 31.394 19.7057C30.9437 19.8251 30.4728 19.8443 30.0144 19.7618C27.6923 19.6622 26.9615 20.0854 25.877 22.1636C25.7181 22.6037 25.4642 23.0034 25.1334 23.3344C24.8026 23.6653 24.4029 23.9194 23.9629 24.0785C21.8687 25.1686 21.4647 25.9041 21.5595 28.2167C21.6423 28.6751 21.6234 29.146 21.5041 29.5963C21.3849 30.0465 21.1682 30.4651 20.8694 30.8225C19.6064 32.8067 19.5849 33.6848 20.8694 35.7001C21.1683 36.0572 21.3851 36.4757 21.5044 36.9258C21.6236 37.376 21.6424 37.8469 21.5595 38.3051C21.4639 40.624 21.8711 41.3524 23.9613 42.4433C24.4013 42.6022 24.8009 42.8561 25.1318 43.1869C25.4626 43.5178 25.7165 43.9174 25.8754 44.3574C26.9791 46.4731 27.7146 46.8484 30.0144 46.7608C30.4727 46.6779 30.9437 46.6967 31.394 46.816C31.8443 46.9352 32.2629 47.152 32.6202 47.4509C34.6044 48.7139 35.4825 48.7354 37.4978 47.4509C37.8549 47.1519 38.2733 46.9351 38.7235 46.8159C39.1737 46.6966 39.6446 46.6778 40.1028 46.7608C42.3795 46.85 43.1309 46.4866 44.241 44.359C44.3999 43.919 44.6538 43.5193 44.9846 43.1885C45.3154 42.8577 45.7151 42.6038 46.1551 42.4449C48.2461 41.3532 48.6533 40.624 48.5584 38.3059C48.4757 37.8475 48.4946 37.3766 48.6138 36.9263C48.7331 36.476 48.9498 36.0575 49.2485 35.7001C50.5116 33.7159 50.5331 32.8378 49.2485 30.8225ZM35.0594 42.0265C33.6233 42.029 32.2086 41.6787 30.9397 41.0063C29.6708 40.3339 28.5865 39.36 27.7822 38.1703C26.9779 36.9806 26.4782 35.6115 26.3271 34.1834C26.176 32.7553 26.378 31.3119 26.9155 29.9803C27.453 28.6486 28.3094 27.4693 29.4095 26.5462C30.5095 25.6231 31.8196 24.9844 33.2243 24.6863C34.6291 24.3881 36.0856 24.4397 37.4658 24.8365C38.846 25.2332 40.1075 25.963 41.1395 26.9616L41.6137 26.3823C41.7481 26.2209 41.9408 26.1191 42.1498 26.099C42.3589 26.079 42.5674 26.1422 42.73 26.2751C42.8927 26.4079 42.9963 26.5996 43.0184 26.8084C43.0405 27.0173 42.9793 27.2264 42.848 27.3903L42.1946 28.1888C43.1301 29.4982 43.6864 31.0402 43.8024 32.6452C43.9184 34.2503 43.5896 35.8562 42.8521 37.2865C42.1146 38.7169 40.9971 39.9161 39.6222 40.7525C38.2474 41.5889 36.6686 42.0292 35.0594 42.0265Z" fill="#3A7BD5"/>
<path d="M34.25 11.6177C33.8769 11.1602 33.4065 10.7916 32.873 10.5388C32.3396 10.286 31.7564 10.1553 31.1661 10.1562H10.2808C9.69043 10.1553 9.10729 10.286 8.57381 10.5388C8.04033 10.7916 7.56994 11.1602 7.19687 11.6177L1.41714 18.682C0.986058 19.2236 0.766772 19.9035 0.800204 20.5949C0.833636 21.2862 1.1175 21.9418 1.59882 22.4393L18.8002 39.6406C19.0527 39.8934 19.3526 40.094 19.6826 40.2308C20.0127 40.3676 20.3665 40.4381 20.7238 40.4381C21.0811 40.4381 21.4349 40.3676 21.765 40.2308C22.0951 40.094 22.395 39.8934 22.6475 39.6406L39.8488 22.4401C40.3313 21.9433 40.6161 21.2876 40.6497 20.5959C40.6833 19.9042 40.4634 19.224 40.0313 18.6828L34.25 11.6177ZM38.7977 19.6925C38.8041 19.7004 38.8057 19.7108 38.8121 19.7187H28.5507L33.0427 12.6592L38.7977 19.6925ZM20.7238 37.1201L15.4541 21.3125H25.9944L20.7238 37.1201ZM15.8374 19.7187L20.7238 12.3899L25.6103 19.7187H15.8374ZM31.6952 11.809L27.0829 19.0557L22.2124 11.75H31.1661C31.3441 11.75 31.5215 11.7698 31.6952 11.809ZM19.2353 11.75L14.3648 19.0557L9.75245 11.809C9.92584 11.7698 10.103 11.7501 10.2808 11.75H19.2353ZM8.40493 12.6592L12.8969 19.7187H2.63556C2.64193 19.7108 2.64432 19.6996 2.65149 19.6917L8.40493 12.6592ZM2.7256 21.3125H13.7743L19.2982 37.8859L2.7256 21.3125ZM22.1478 37.8859L27.6726 21.3125H38.722L22.1478 37.8859ZM19.9269 1.39062V6.17187C19.9269 6.38322 20.0109 6.58591 20.1603 6.73535C20.3098 6.88479 20.5125 6.96875 20.7238 6.96875C20.9352 6.96875 21.1379 6.88479 21.2873 6.73535C21.4367 6.58591 21.5207 6.38322 21.5207 6.17187V1.39062C21.5207 1.17928 21.4367 0.976592 21.2873 0.827149C21.1379 0.677706 20.9352 0.59375 20.7238 0.59375C20.5125 0.59375 20.3098 0.677706 20.1603 0.827149C20.0109 0.976592 19.9269 1.17928 19.9269 1.39062ZM31.994 1.77711L29.6034 5.76148C29.4991 5.94241 29.4699 6.15707 29.5223 6.35925C29.5746 6.56144 29.7043 6.735 29.8833 6.84258C30.0623 6.95015 30.2764 6.98315 30.4795 6.93447C30.6826 6.88578 30.8585 6.75931 30.9692 6.58227L33.3599 2.59789C33.416 2.50815 33.4537 2.40813 33.4708 2.30366C33.4879 2.19918 33.484 2.09236 33.4593 1.98942C33.4346 1.88647 33.3897 1.78948 33.3271 1.7041C33.2645 1.61872 33.1856 1.54666 33.0948 1.49213C33.0041 1.43761 32.9034 1.40171 32.7986 1.38653C32.6939 1.37135 32.5871 1.37719 32.4846 1.40372C32.3822 1.43025 32.286 1.47694 32.2018 1.54105C32.1175 1.60515 32.0469 1.6854 31.994 1.77711ZM8.36031 1.50458C8.17921 1.61344 8.04877 1.78978 7.99766 1.9948C7.94656 2.19983 7.97897 2.41676 8.08778 2.59789L10.4784 6.58227C10.5313 6.67397 10.6019 6.75422 10.6861 6.81833C10.7704 6.88244 10.8665 6.92912 10.969 6.95565C11.0715 6.98218 11.1782 6.98803 11.283 6.97285C11.3878 6.95767 11.4885 6.92177 11.5792 6.86724C11.6699 6.81271 11.7489 6.74066 11.8115 6.65528C11.874 6.56989 11.919 6.4729 11.9437 6.36996C11.9683 6.26702 11.9723 6.16019 11.9552 6.05572C11.9381 5.95124 11.9004 5.85122 11.8442 5.76148L9.45362 1.77711C9.34475 1.59601 9.16842 1.46557 8.96339 1.41446C8.75837 1.36336 8.54144 1.39577 8.36031 1.50458Z" fill="white"/>
</svg>
