<svg width="30" height="30" viewBox="0 0 30 30" fill="none" xmlns="http://www.w3.org/2000/svg">
<path d="M22.1251 20.3438C21.8912 20.3438 21.6595 20.3898 21.4434 20.4793C21.2273 20.5688 21.0309 20.7 20.8655 20.8654C20.7 21.0308 20.5688 21.2271 20.4793 21.4432C20.3898 21.6594 20.3437 21.891 20.3437 22.1249V27.4688C20.3437 27.9412 20.5313 28.3943 20.8654 28.7283C21.1994 29.0624 21.6525 29.2501 22.1249 29.2501C22.5973 29.2501 23.0504 29.0624 23.3845 28.7283C23.7185 28.3943 23.9062 27.9412 23.9062 27.4688V26.5778H26.5783C27.0507 26.5778 27.5038 26.3901 27.8378 26.0561C28.1719 25.722 28.3595 25.269 28.3595 24.7966C28.3595 24.3241 28.1719 23.8711 27.8378 23.537C27.5038 23.203 27.0507 23.0153 26.5783 23.0153H23.9062V22.1249C23.9062 21.891 23.8602 21.6593 23.7707 21.4432C23.6812 21.2271 23.55 21.0307 23.3846 20.8653C23.2192 20.6999 23.0229 20.5686 22.8067 20.4791C22.5906 20.3896 22.359 20.3435 22.1251 20.3435V20.3438ZM3.42187 16.7813H6.09367V17.6717C6.09367 18.1441 6.28134 18.5972 6.61539 18.9312C6.94944 19.2653 7.40251 19.453 7.87492 19.453C8.34734 19.453 8.80041 19.2653 9.13446 18.9312C9.46851 18.5972 9.65617 18.1441 9.65617 17.6717V12.3281C9.65617 11.8557 9.46851 11.4026 9.13446 11.0686C8.80041 10.7345 8.34734 10.5469 7.87492 10.5469C7.40251 10.5469 6.94944 10.7345 6.61539 11.0686C6.28134 11.4026 6.09367 11.8557 6.09367 12.3281V13.2185H3.42187C2.94946 13.2185 2.49639 13.4062 2.16234 13.7402C1.82829 14.0743 1.64063 14.5273 1.64062 14.9998C1.64063 15.4722 1.82829 15.9252 2.16234 16.2593C2.49639 16.5933 2.94946 16.7813 3.42187 16.7813ZM15.0001 13.2188H26.5783C27.0507 13.2188 27.5038 13.4065 27.8378 13.7405C28.1719 14.0746 28.3595 14.5276 28.3595 15.0001C28.3595 15.4725 28.1719 15.9255 27.8378 16.2596C27.5038 16.5936 27.0507 16.7813 26.5783 16.7813H15.0001C14.5277 16.7813 14.0746 16.5936 13.7405 16.2596C13.4065 15.9255 13.2188 15.4725 13.2188 15.0001C13.2188 14.5276 13.4065 14.0746 13.7405 13.7405C14.0746 13.4065 14.5277 13.2188 15.0001 13.2188ZM3.42187 3.42171H15.0001C15.4725 3.42171 15.9256 3.60937 16.2596 3.94342C16.5937 4.27747 16.7813 4.73054 16.7813 5.20296C16.7813 5.67537 16.5937 6.12844 16.2596 6.46249C15.9256 6.79654 15.4725 6.98421 15.0001 6.98421H3.42187C2.94946 6.98421 2.49639 6.79654 2.16234 6.46249C1.82829 6.12844 1.64062 5.67537 1.64062 5.20296C1.64062 4.73054 1.82829 4.27747 2.16234 3.94342C2.49639 3.60937 2.94946 3.42171 3.42187 3.42171ZM26.5783 3.42171H23.9065V2.53101C23.9065 2.05859 23.7188 1.60552 23.3848 1.27147C23.0507 0.937423 22.5976 0.749756 22.1252 0.749756C21.6528 0.749756 21.1997 0.937423 20.8657 1.27147C20.5316 1.60552 20.344 2.05859 20.344 2.53101V7.87491C20.344 8.34732 20.5316 8.80039 20.8657 9.13444C21.1997 9.46849 21.6528 9.65616 22.1252 9.65616C22.5976 9.65616 23.0507 9.46849 23.3848 9.13444C23.7188 8.80039 23.9065 8.34732 23.9065 7.87491V6.98421H26.5783C27.0507 6.98421 27.5038 6.79654 27.8378 6.46249C28.1719 6.12844 28.3595 5.67537 28.3595 5.20296C28.3595 4.73054 28.1719 4.27747 27.8378 3.94342C27.5038 3.60937 27.0507 3.42171 26.5783 3.42171ZM3.42187 23.0156H15.0001C15.4725 23.0156 15.9256 23.2033 16.2596 23.5373C16.5937 23.8714 16.7813 24.3244 16.7813 24.7969C16.7813 25.2693 16.5937 25.7223 16.2596 26.0564C15.9256 26.3904 15.4725 26.5781 15.0001 26.5781H3.42187C2.94946 26.5781 2.49639 26.3904 2.16234 26.0564C1.82829 25.7223 1.64063 25.2693 1.64062 24.7969C1.64062 24.3244 1.82829 23.8714 2.16234 23.5373C2.49639 23.2033 2.94946 23.0156 3.42187 23.0156Z" fill="#17D262"/>
</svg>
