<svg width="30" height="30" viewBox="0 0 30 30" fill="none" xmlns="http://www.w3.org/2000/svg">
<g clip-path="url(#clip0_776_1945)">
<path d="M19.6875 10.3125C20.8841 11.5088 22.012 12.7719 23.0658 14.0958C23.6199 12.9116 23.9068 11.62 23.9062 10.3125C23.9062 7.70719 22.7752 5.36719 20.9859 3.73734C19.3791 4.43016 17.5978 5.48625 15.7795 6.82688C17.149 7.91162 18.4539 9.07548 19.6875 10.3125ZM19.688 25.3125L19.6875 23.9062H18.75V22.0312H19.688L19.6875 20.625H18.75V18.6867C18.75 18.6 18.774 18.5149 18.8194 18.441C18.8649 18.3671 18.9299 18.3073 19.0073 18.2681C20.446 17.5446 21.6615 16.4445 22.5244 15.0848L22.5234 15.0839L22.5342 15.0698C22.5502 15.045 22.568 15.0211 22.5834 14.9958C21.4807 13.5839 20.292 12.2412 19.0242 10.9753C17.7601 9.70619 16.4193 8.51583 15.0094 7.41094C13.5921 8.51424 12.2448 9.70466 10.9753 10.9753C9.70745 12.2417 8.51953 13.5857 7.41844 14.9995C8.28487 16.3984 9.52207 17.5299 10.9927 18.2681C11.1506 18.3483 11.25 18.51 11.25 18.6867V20.625H10.3125V22.0312H11.25V23.9062H10.3125V25.3125H12.2297V26.25C12.4538 27.578 13.6087 28.5938 15 28.5938C16.3912 28.5938 17.5458 27.578 17.7703 26.25V25.3125H19.688ZM15.9375 13.125C15.9375 13.0008 15.9867 12.8812 16.0748 12.7936L17.4811 11.3873L18.1439 12.0502L16.875 13.3191V20.625H15.9375V13.125ZM11.8561 12.0502L12.5189 11.3873L13.9252 12.7936C13.9687 12.8371 14.0033 12.8887 14.0269 12.9456C14.0505 13.0025 14.0626 13.0634 14.0625 13.125V20.625H13.125V13.3191L11.8561 12.0502ZM6.10031 10.4995C6.11484 11.1928 6.20812 11.8702 6.37406 12.5231C6.51022 13.0616 6.69699 13.5859 6.93188 14.0892C7.98689 12.7675 9.11572 11.5064 10.313 10.312C11.5498 9.07252 12.8579 7.90631 14.2308 6.81938C12.352 5.43188 10.5769 4.40297 9.01359 3.73688C7.22484 5.36766 6.09375 7.70766 6.09375 10.3125C6.09375 10.3753 6.09891 10.4372 6.10031 10.4995ZM20.1694 3.07406C18.6637 1.98986 16.8554 1.40642 15 1.40625C13.0678 1.40625 11.2828 2.03156 9.82172 3.08063C11.4384 3.81844 13.1953 4.87734 15.0009 6.22922C16.7892 4.88859 18.5461 3.81844 20.1694 3.07406Z" fill="#FF4D69"/>
<path d="M29.5312 3.28125C29.5312 1.73016 28.2698 0.46875 26.7188 0.46875C26.2215 0.469175 25.7332 0.601516 25.3037 0.85227C24.8743 1.10302 24.519 1.46322 24.2742 1.89609C23.348 1.95281 22.2984 2.21531 21.1688 2.65266C21.4444 2.87531 21.7106 3.10875 21.9609 3.35906C22.6683 3.10969 23.3358 2.93625 23.9414 2.86031C23.919 2.99952 23.9072 3.14025 23.9062 3.28125C23.9062 4.83234 25.1677 6.09375 26.7188 6.09375C26.8608 6.09375 26.9991 6.07969 27.1355 6.05953C26.9306 7.67531 26.0723 9.74203 24.7003 11.9705C24.4713 13.3384 23.954 14.6419 23.1825 15.7945C23.4627 16.1727 23.7353 16.5566 24 16.9458C23.822 17.1197 23.6805 17.3274 23.5839 17.5567C23.4873 17.7861 23.4376 18.0324 23.4375 18.2812C23.4375 19.3153 24.2784 20.1562 25.3125 20.1562C25.4963 20.1562 25.6706 20.1216 25.8389 20.0719C27.3277 23.092 27.5986 25.4972 26.5481 26.5481C25.5197 27.5761 23.2472 27.3516 20.3503 25.9753C20.2634 26.0625 20.1601 26.1316 20.0463 26.1788C19.9326 26.2259 19.8106 26.2501 19.6875 26.25H18.8288C21.1027 27.4866 23.1 28.1175 24.6581 28.1175C25.7358 28.1175 26.6044 27.817 27.2109 27.2105C28.6069 25.8145 28.4016 23.1159 26.648 19.5938C26.9937 19.2444 27.1876 18.7727 27.1875 18.2812C27.1875 17.2472 26.3466 16.4062 25.3125 16.4062C25.14 16.4062 24.9759 16.4372 24.817 16.4813C24.4794 15.9793 24.1291 15.4861 23.7666 15.0019C26.4 11.4858 27.9581 8.15672 28.1081 5.72344C28.5398 5.47823 28.8989 5.1231 29.1488 4.69415C29.3988 4.2652 29.5307 3.77772 29.5312 3.28125ZM2.8125 11.7188C2.8125 12.7528 3.65344 13.5938 4.6875 13.5938C5.03297 13.5938 5.35359 13.4963 5.63016 13.3317C5.31689 12.3559 5.15702 11.3374 5.15625 10.3125C5.15625 10.1789 5.17078 10.0495 5.17641 9.91734C5.01757 9.87057 4.85307 9.84581 4.6875 9.84375C4.50375 9.84375 4.32938 9.87844 4.16109 9.92813C2.67234 6.90797 2.40094 4.50281 3.45187 3.45187C4.26141 2.64234 5.90156 2.61703 8.03813 3.36C8.28635 3.1132 8.54749 2.87974 8.82047 2.66062C6.15937 1.63594 3.98016 1.59844 2.78906 2.78906C1.39312 4.185 1.59844 6.88359 3.35203 10.4058C3.00638 10.7554 2.81252 11.2271 2.8125 11.7188ZM9.64922 25.9744C8.30625 26.6119 7.08938 27.0075 6.05906 27.1369C6.07969 27 6.09375 26.8612 6.09375 26.7188C6.09375 25.1677 4.83234 23.9062 3.28125 23.9062C3.13781 23.9062 2.99766 23.9203 2.85984 23.9414C3.13266 21.7575 4.58484 18.8273 6.81844 15.795C6.62828 15.5113 6.4532 15.2178 6.29391 14.9156C3.66891 18.3994 2.04891 21.7781 1.89609 24.2742C1.46322 24.519 1.10302 24.8743 0.85227 25.3037C0.601516 25.7332 0.469175 26.2215 0.46875 26.7188C0.46875 28.2698 1.73016 29.5312 3.28125 29.5312C3.77818 29.5307 4.26609 29.3985 4.69532 29.1481C5.12455 28.8977 5.47978 28.5381 5.72484 28.1058C7.22766 28.012 9.09844 27.3773 11.1717 26.25H10.3125C10.1892 26.2501 10.0672 26.2257 9.95333 26.1784C9.83949 26.1311 9.73614 26.0618 9.64922 25.9744Z" fill="#FF4D69"/>
</g>
<defs>
<clipPath id="clip0_776_1945">
<rect width="30" height="30" fill="white"/>
</clipPath>
</defs>
</svg>
