<svg width="30" height="30" viewBox="0 0 30 30" fill="none" xmlns="http://www.w3.org/2000/svg">
<path d="M27.9582 6.17991C27.8982 5.27991 27.0582 4.61991 26.1582 4.73991C21.2982 5.39991 17.6982 2.93991 16.0182 1.43991C15.4182 0.899912 14.5182 0.899912 13.9782 1.43991C12.2982 2.87991 8.69822 5.39991 3.83821 4.73991C2.93821 4.61991 2.09821 5.27991 2.03821 6.17991C1.79821 11.0999 2.15821 24.8999 14.9982 28.9799C27.8382 24.8999 28.2582 11.0999 27.9582 6.17991ZM14.9982 22.3199C10.9182 22.3199 7.67822 19.0199 7.67822 14.9999C7.67822 10.9799 10.9182 7.67991 14.9982 7.67991C19.0782 7.67991 22.3182 10.9199 22.3182 14.9999C22.3182 19.0799 19.0782 22.3199 14.9982 22.3199Z" fill="#386BB7"/>
<path d="M13.5589 13.14C13.5589 12.66 13.7989 12.3 14.0989 12C14.3389 11.82 14.6389 11.7 14.9389 11.7C15.5989 11.7 16.3789 12.24 16.3789 13.14V14.28H13.4989V13.14H13.5589ZM17.9389 14.82C17.8189 14.64 17.6989 14.52 17.5189 14.4C17.3989 14.34 17.2789 14.28 17.1589 14.28V13.14C17.1589 12.12 16.3189 10.98 14.9989 10.98C13.7989 10.98 12.8389 11.94 12.8389 13.14V14.28C12.7189 14.28 12.5989 14.34 12.4789 14.4C12.2989 14.52 12.1189 14.64 11.9989 14.82C11.8789 15 11.8789 15.18 11.8789 15.36V17.88C11.8789 18.54 12.4189 18.96 12.9589 18.96H17.0389C17.2789 18.96 17.4589 18.9 17.6389 18.78C17.8189 18.66 17.9389 18.6 17.9989 18.42C18.1189 18.24 18.1789 18.06 18.1789 17.82V15.3C18.1189 15.18 18.0589 15 17.9389 14.82ZM15.2989 16.68L15.3589 17.16C15.3589 17.34 15.2389 17.46 15.0589 17.46H14.8789C14.6989 17.46 14.5789 17.34 14.5789 17.16L14.6389 16.68C14.4589 16.56 14.3989 16.38 14.3989 16.2C14.3989 15.9 14.6389 15.66 14.9389 15.66C15.2389 15.66 15.4789 15.9 15.4789 16.2C15.5389 16.38 15.4789 16.56 15.2989 16.68Z" fill="#386BB7"/>
</svg>
