<svg width="30" height="30" viewBox="0 0 30 30" fill="none" xmlns="http://www.w3.org/2000/svg">
<g clip-path="url(#clip0_776_1924)">
<path d="M12.3633 30V27.3047C10.4244 27.3047 8.84766 25.728 8.84766 23.7891C8.84766 21.8501 10.4244 20.2734 12.3633 20.2734V17.6367H7.45031L7.86832 16.4626C7.93529 16.2753 7.96927 16.0778 7.96875 15.8789C7.96875 14.9099 7.17996 14.1211 6.21094 14.1211C5.24191 14.1211 4.45312 14.9099 4.45312 15.8789C4.45312 16.0798 4.48658 16.2763 4.55355 16.4626L4.97156 17.6367H0C0.436113 24.2046 5.79539 29.5639 12.3633 30Z" fill="#FDB600"/>
<path d="M6.21094 12.3632C8.14986 12.3632 9.72656 13.9399 9.72656 15.8788H12.3633V10.9658L13.5374 11.3838C14.6198 11.7692 15.878 10.8955 15.8789 9.72646C15.878 8.55658 14.6206 7.67598 13.5374 8.06908L12.3633 8.48709V3.61865C5.79539 4.05477 0.436113 9.31092 0 15.8788H2.69531C2.69531 13.9399 4.27201 12.3632 6.21094 12.3632ZM26.3812 17.6366H23.7891C23.7891 19.5755 22.2124 21.1522 20.2734 21.1522C18.3345 21.1522 16.7578 19.5755 16.7578 17.6366H14.1211V22.5496L12.9469 22.1316C11.8603 21.7411 10.6046 22.6191 10.6055 23.789C10.6046 24.9588 11.8612 25.8369 12.9469 25.4463L14.1211 25.0283V29.9999C20.689 29.5638 25.9451 24.2045 26.3812 17.6366Z" fill="#FDB600"/>
<path d="M26.4258 7.08984V3.57422H22.9102C22.9102 1.63529 21.3335 0 19.3945 0C17.4556 0 15.8789 1.63529 15.8789 3.57422H14.1211V6.21094C16.06 6.21094 17.6367 7.78764 17.6367 9.72656C17.6367 11.6655 16.06 13.2422 14.1211 13.2422V15.8789H19.0341L18.6161 17.0531C18.5491 17.2403 18.5151 17.4378 18.5156 17.6367C18.5156 18.6057 19.3044 19.3945 20.2734 19.3945C21.2425 19.3945 22.0312 18.6057 22.0312 17.6367C22.0312 17.4359 21.9978 17.2393 21.9308 17.0531L21.5128 15.8789H26.4258V14.1211C28.3647 14.1211 30 12.5444 30 10.6055C30 8.66654 28.3647 7.08984 26.4258 7.08984Z" fill="#FDB600"/>
</g>
<defs>
<clipPath id="clip0_776_1924">
<rect width="30" height="30" fill="white"/>
</clipPath>
</defs>
</svg>
