<svg width="31" height="32" viewBox="0 0 31 32" fill="none" xmlns="http://www.w3.org/2000/svg">
<path d="M7.76165 8.47178C7.76165 7.44991 8.06467 6.45099 8.63239 5.60134C9.20011 4.75168 10.007 4.08946 10.9511 3.69841C11.8952 3.30735 12.934 3.20504 13.9363 3.40439C14.9385 3.60375 15.8591 4.09583 16.5817 4.8184C17.3043 5.54097 17.7963 6.46158 17.9957 7.46382C18.1951 8.46605 18.0927 9.5049 17.7017 10.449C17.3106 11.3931 16.6484 12.2 15.7988 12.7677C14.9491 13.3354 13.9502 13.6385 12.9283 13.6385C11.558 13.6385 10.2439 13.0941 9.27493 12.1252C8.30599 11.1562 7.76165 9.84207 7.76165 8.47178ZM16.9209 24.3851C16.5787 24.066 16.3348 23.6557 16.2181 23.2025C16.1014 22.7494 16.1167 22.2724 16.2621 21.8276C16.4035 21.3767 16.6707 20.9756 17.0322 20.6713C17.3937 20.3669 17.8345 20.1721 18.3029 20.1097L19.9175 19.8772C19.9175 19.8772 20.1759 19.8527 20.2534 19.6964L20.77 18.663C20.8114 18.5882 20.8294 18.5027 20.8217 18.4176C20.8056 18.3448 20.7699 18.2778 20.7184 18.2239C20.0391 17.5408 19.2229 17.0092 18.3235 16.6642C17.4241 16.3191 16.4619 16.1683 15.5 16.2218H10.3334C5.08919 16.2218 3.22919 20.058 3.22919 23.3518C3.22919 26.2968 4.7921 27.8468 7.75002 27.8468H17.5538C17.7604 27.8468 17.8922 27.6918 17.9542 27.356L18.2125 25.8705C18.2264 25.8073 18.2229 25.7415 18.2024 25.6802C18.1819 25.6188 18.1453 25.564 18.0963 25.5218L16.9209 24.3851ZM28.2449 22.9888C28.3213 22.9153 28.3753 22.8217 28.4008 22.7187C28.4262 22.6158 28.422 22.5078 28.3886 22.4071C28.3553 22.3065 28.2941 22.2174 28.2122 22.15C28.1303 22.0827 28.031 22.0398 27.9259 22.0265L25.3529 21.661C25.2612 21.6483 25.1739 21.6136 25.0986 21.5598C25.0232 21.506 24.962 21.4348 24.9201 21.3523L23.8041 19.141C23.7519 19.0396 23.6727 18.9545 23.5753 18.8952C23.4779 18.8358 23.366 18.8044 23.252 18.8044C23.1379 18.8044 23.026 18.8358 22.9286 18.8952C22.8312 18.9545 22.7521 19.0396 22.6998 19.141L21.5851 21.3523C21.5431 21.4348 21.4819 21.5059 21.4065 21.5597C21.3312 21.6134 21.244 21.6482 21.1524 21.661L18.5794 22.0265C18.4739 22.0394 18.3742 22.0819 18.292 22.1492C18.2098 22.2165 18.1484 22.3058 18.115 22.4066C18.0815 22.5074 18.0774 22.6157 18.1032 22.7188C18.1289 22.8219 18.1834 22.9155 18.2603 22.9888L20.1203 24.7636C20.1873 24.8269 20.2376 24.9057 20.2667 24.9932C20.2957 25.0806 20.3027 25.1739 20.2869 25.2647L19.862 27.6918C19.844 27.8043 19.8578 27.9196 19.9018 28.0247C19.9458 28.1298 20.0182 28.2205 20.111 28.2867C20.2037 28.3528 20.3131 28.3918 20.4268 28.3992C20.5405 28.4066 20.654 28.3822 20.7545 28.3286L22.9852 27.1816C23.0679 27.1389 23.1596 27.1166 23.2526 27.1166C23.3456 27.1166 23.4373 27.1389 23.52 27.1816L25.752 28.3299C25.8525 28.3831 25.9658 28.4073 26.0793 28.3997C26.1928 28.3921 26.3019 28.3531 26.3944 28.287C26.487 28.2208 26.5593 28.1303 26.6032 28.0254C26.6472 27.9205 26.661 27.8054 26.6432 27.6931L26.2209 25.2635C26.2052 25.1728 26.212 25.0796 26.2409 24.9922C26.2697 24.9048 26.3196 24.8258 26.3862 24.7623L28.2449 22.9888Z" fill="#17D262"/>
</svg>
