<svg width="48" height="48" viewBox="0 0 48 48" fill="none" xmlns="http://www.w3.org/2000/svg">
<rect width="48" height="48" rx="24" fill="#F2F2F2"/>
<path d="M25.4668 26.4072C24.9354 26.7616 24.318 26.9489 23.6815 26.9489C23.045 26.9489 22.4277 26.7616 21.8962 26.4072L13.1422 20.5711C13.0937 20.5387 13.0464 20.505 13 20.4703V30.0334C13 31.1298 13.8898 32 14.9666 32H32.3963C33.4928 32 34.3629 31.1102 34.3629 30.0334V20.4702C34.3165 20.505 34.2691 20.5389 34.2204 20.5713L25.4668 26.4072Z" fill="#0F0F16"/>
<path d="M13.8366 19.5296L22.5905 25.3658C22.9219 25.5867 23.3017 25.6971 23.6815 25.6971C24.0613 25.6971 24.4411 25.5866 24.7725 25.3658L33.5264 19.5296C34.0503 19.1805 34.363 18.5964 34.363 17.9659C34.363 16.8819 33.4811 16 32.3971 16H14.9659C13.8819 16 13 16.8819 13 17.967C13 18.5964 13.3128 19.1805 13.8366 19.5296Z" fill="#0F0F16"/>
</svg>
