<svg width="48" height="48" viewBox="0 0 48 48" fill="none" xmlns="http://www.w3.org/2000/svg">
<rect width="48" height="48" rx="24" fill="#F2F2F2"/>
<path d="M34.4231 29.1458L31.3465 26.0756C30.2477 24.9791 28.3797 25.4178 27.9402 26.8431C27.6106 27.83 26.5118 28.3783 25.5229 28.1589C23.3253 27.6107 20.3585 24.7598 19.8091 22.4572C19.4795 21.4703 20.1388 20.3738 21.1277 20.0449C22.5561 19.6063 22.9956 17.7423 21.8968 16.6458L18.8202 13.5757C17.9412 12.8081 16.6226 12.8081 15.8535 13.5757L13.7658 15.659C11.678 17.852 13.9855 23.6633 19.1499 28.8168C24.3142 33.9703 30.1378 36.3826 32.3354 34.1896L34.4231 32.1063C35.1923 31.2291 35.1923 29.9133 34.4231 29.1458Z" fill="#0F0F16"/>
</svg>
