<svg width="48" height="48" viewBox="0 0 48 48" fill="none" xmlns="http://www.w3.org/2000/svg">
<rect width="48" height="48" rx="24" fill="#F2F2F2"/>
<path fill-rule="evenodd" clip-rule="evenodd" d="M24 12C29.5194 12 34 16.3526 34 21.7143C34 24.5063 32.5659 27.38 30.7653 29.7931C28.2512 33.1634 25.1071 35.6206 25.1071 35.6206V35.6211C24.4606 36.1263 23.5394 36.1263 22.8929 35.6211V35.6206C22.8929 35.6206 19.7488 33.1634 17.2347 29.7931C15.4341 27.38 14 24.5063 14 21.7143C14 16.3526 18.4806 12 24 12ZM24 17.7143C26.2724 17.7143 28.1176 19.5069 28.1176 21.7143C28.1176 23.9217 26.2724 25.7143 24 25.7143C21.7276 25.7143 19.8824 23.9217 19.8824 21.7143C19.8824 19.5069 21.7276 17.7143 24 17.7143Z" fill="#0F0F16"/>
</svg>
