<svg width="30" height="30" viewBox="0 0 30 30" fill="none" xmlns="http://www.w3.org/2000/svg">
<g clip-path="url(#clip0_705_5582)">
<path d="M12.0586 11.4249C15.9613 15.2865 16.9596 15.8203 18.5723 15.8203C20.0701 15.8203 21.0133 15.447 25.086 11.4249C21.7498 8.10416 20.4829 7.03125 18.5723 7.03125C16.6617 7.03125 15.3948 8.10416 12.0586 11.4249ZM21.209 11.4258C21.209 12.8797 20.0262 14.0625 18.5723 14.0625C17.1183 14.0625 15.9356 12.8797 15.9356 11.4258C15.9356 9.97184 17.1183 8.78906 18.5723 8.78906C20.0262 8.78906 21.209 9.97184 21.209 11.4258Z" fill="#FF4D69"/>
<path d="M18.5742 12.3047C19.0596 12.3047 19.4531 11.9112 19.4531 11.4258C19.4531 10.9404 19.0596 10.5469 18.5742 10.5469C18.0888 10.5469 17.6953 10.9404 17.6953 11.4258C17.6953 11.9112 18.0888 12.3047 18.5742 12.3047Z" fill="#FF4D69"/>
<path d="M18.5742 0C12.2742 0 7.14841 5.12578 7.14841 11.4258C7.14841 14.26 8.1919 16.851 9.907 18.8501L8.02731 20.7298L7.40593 20.1084C7.06263 19.7651 6.5064 19.7651 6.1631 20.1084L0.770537 25.5008C-0.256846 26.5282 -0.256846 28.2002 0.770537 29.2301C1.7988 30.2567 3.47311 30.2569 4.49903 29.2293L9.89159 23.8369C10.2349 23.4936 10.2349 22.9373 9.89159 22.594L9.27015 21.9727L11.1498 20.093C13.1489 21.8081 15.74 22.8516 18.5742 22.8516C24.8742 22.8516 30 17.7258 30 11.4258C30 5.12578 24.8742 0 18.5742 0ZM26.9547 12.0472C22.3542 16.6477 20.9448 17.5781 18.5742 17.5781C16.0791 17.5781 14.5462 16.3997 10.1937 12.0472C9.8504 11.7039 9.8504 11.1476 10.1937 10.8043C13.9908 7.00635 15.7246 5.27344 18.5742 5.27344C21.4238 5.27344 23.1576 7.00635 26.9547 10.8044C27.298 11.1477 27.298 11.7039 26.9547 12.0472Z" fill="#FF4D69"/>
</g>
<defs>
<clipPath id="clip0_705_5582">
<rect width="30" height="30" fill="white"/>
</clipPath>
</defs>
</svg>
