<svg width="30" height="30" viewBox="0 0 30 30" fill="none" xmlns="http://www.w3.org/2000/svg">
<path d="M14.375 15.625C18.172 15.625 21.25 12.547 21.25 8.75C21.25 4.95304 18.172 1.875 14.375 1.875C10.578 1.875 7.5 4.95304 7.5 8.75C7.5 12.547 10.578 15.625 14.375 15.625Z" fill="#FDB600"/>
<path fill-rule="evenodd" clip-rule="evenodd" d="M21.2117 27.8587C21.3875 28.0342 21.6258 28.1329 21.8742 28.1329C22.1227 28.1329 22.3609 28.0342 22.5367 27.8587L27.198 23.1974C27.991 22.4032 28.4364 21.3267 28.4364 20.2043C28.4364 19.0819 27.991 18.0054 27.198 17.2112C26.5082 16.5224 25.6021 16.0925 24.6323 15.9939C23.6626 15.8953 22.6885 16.1341 21.8742 16.6699C21.06 16.1341 20.0859 15.8953 19.1161 15.9939C18.1463 16.0925 17.2402 16.5224 16.5505 17.2112C15.761 18.0023 15.316 19.0734 15.3125 20.1911C15.309 21.3088 15.7472 22.3826 16.5317 23.1787L21.2117 27.8587Z" fill="#FDB600"/>
<path fill-rule="evenodd" clip-rule="evenodd" d="M19.1012 27.5149L15.6425 24.0561C14.6905 23.0907 14.1297 21.8069 14.0683 20.4525C14.0069 19.098 14.4492 17.7687 15.31 16.7211C15.0013 16.7086 14.69 16.7024 14.375 16.7024C10.2225 16.7024 6.54625 17.7411 4.26375 19.2974C2.5225 20.4849 1.5625 21.9936 1.5625 23.5774V25.3899C1.56316 25.9533 1.78726 26.4934 2.18563 26.8918C2.584 27.2901 3.12412 27.5142 3.6875 27.5149H19.1012Z" fill="#FDB600"/>
</svg>
