<svg width="30" height="30" viewBox="0 0 30 30" fill="none" xmlns="http://www.w3.org/2000/svg">
<g clip-path="url(#clip0_705_5573)">
<path d="M15.5146 19.1882C16.7838 19.1882 17.9328 18.6732 18.7648 17.8429C19.5969 17.0109 20.1102 15.8613 20.1102 14.5927C20.1102 13.3242 19.5969 12.1746 18.7648 11.3425C17.9328 10.5123 16.7832 9.99722 15.5146 9.99722C14.2461 9.99722 13.0965 10.5123 12.2656 11.3425C11.4336 12.1746 10.9186 13.3242 10.9186 14.5927C10.9186 15.8613 11.4336 17.0109 12.2656 17.8429C13.0965 18.6732 14.2455 19.1882 15.5146 19.1882ZM14.2027 12.2519C14.4336 12.0662 14.7207 11.9279 15.04 11.8582V11.2951C15.04 11.0326 15.2527 10.8199 15.5152 10.8199C15.7795 10.8199 15.9922 11.0326 15.9922 11.2951V11.8582C16.2629 11.9179 16.5119 12.0275 16.7229 12.174C17.0797 12.4212 17.3293 12.7769 17.4037 13.1835C17.4518 13.4408 17.2807 13.6886 17.0234 13.7367C16.7645 13.783 16.5166 13.6119 16.4703 13.3546C16.4422 13.2017 16.3373 13.0605 16.1832 12.9544C16.0074 12.8332 15.7748 12.7587 15.5152 12.7587C15.2311 12.7587 14.9773 12.8484 14.7975 12.9931C14.648 13.1126 14.5549 13.272 14.5549 13.4384C14.5549 13.6042 14.648 13.7625 14.7975 13.8837C14.9768 14.0285 15.2311 14.1164 15.5152 14.1164H15.5287C16.0238 14.1228 16.4773 14.2921 16.8125 14.5617C17.1828 14.8605 17.4137 15.2794 17.4137 15.7476C17.4137 16.2158 17.1828 16.6365 16.8125 16.9335C16.5816 17.1193 16.2945 17.2576 15.977 17.3273V17.8904C15.977 18.1529 15.7625 18.3656 15.5 18.3656C15.2375 18.3656 15.023 18.1529 15.023 17.8904V17.3273C14.7523 17.2675 14.5033 17.158 14.2941 17.0115C13.9373 16.7642 13.6859 16.4085 13.6115 16.0019C13.5652 15.7447 13.7346 15.4968 13.9936 15.4488C14.2508 15.4025 14.4986 15.5736 14.5449 15.8308C14.573 15.9837 14.6797 16.125 14.832 16.231C15.0078 16.3523 15.2404 16.4267 15.5 16.4267C15.7842 16.4267 16.0379 16.3371 16.2178 16.1923C16.3672 16.0728 16.4604 15.9134 16.4604 15.747C16.4604 15.5812 16.3672 15.423 16.2178 15.3017C16.0385 15.157 15.7842 15.0691 15.5 15.0691H15.4865C14.9932 15.0626 14.5379 14.8933 14.2027 14.6238C13.8324 14.325 13.6016 13.906 13.6016 13.4378C13.6016 12.9697 13.8324 12.549 14.2027 12.2519ZM25.5564 14.5904C25.5564 15.0058 25.3607 15.3609 25.0098 15.5818L24.2006 16.0916C23.6826 16.4185 23.5045 17.0847 23.7887 17.6279L24.2357 18.4798C24.4285 18.8466 24.4186 19.2539 24.2123 19.6124C24.0049 19.9693 23.6557 20.1802 23.2426 20.1955L22.2875 20.2335C21.6764 20.2587 21.1877 20.7451 21.1631 21.358L21.1232 22.3195C21.1068 22.7332 20.8959 23.08 20.5367 23.288C20.1781 23.4943 19.7709 23.5025 19.4059 23.3097L18.5586 22.8644C18.0172 22.5785 17.351 22.7566 17.0223 23.2746L16.5072 24.0884C16.2863 24.4371 15.9295 24.6333 15.5158 24.6333C15.3711 24.6333 15.2352 24.6099 15.1092 24.5636C15.0811 24.4207 15.0377 24.283 14.9814 24.1535C15.2059 23.8429 15.34 23.4626 15.34 23.0507C15.34 22.0124 14.4928 21.1658 13.4551 21.1658H11.5566C11.7096 20.264 11.6826 19.241 11.4617 18.3802C11.5033 18.4253 11.5467 18.4699 11.5912 18.515C12.5961 19.5199 13.983 20.141 15.5141 20.141C17.0469 20.141 18.4338 19.5199 19.4369 18.515C20.4418 17.5119 21.0629 16.1232 21.0629 14.5921C21.0629 13.0605 20.4418 11.6724 19.4369 10.6693C18.4338 9.6644 17.0469 9.04331 15.5141 9.04331C13.9824 9.04331 12.5961 9.6644 11.5912 10.6693C10.5881 11.6724 9.96699 13.0611 9.96699 14.5921C9.96699 15.3064 10.1018 15.989 10.3473 16.6154C9.16309 15.8695 7.59512 16.78 7.79609 18.464C7.80781 19.1783 7.56992 19.6435 7.22129 20.0337C7.0584 19.9341 6.9207 19.7929 6.81934 19.6154C6.61191 19.255 6.60312 18.8496 6.7959 18.4828L7.24121 17.6373C7.52715 17.0958 7.34902 16.4296 6.83105 16.1009L6.01719 15.5859C5.66856 15.3632 5.47227 15.0082 5.47227 14.5945C5.47227 14.1791 5.66973 13.824 6.02012 13.6031L6.82754 13.0933C7.07723 12.9363 7.25852 12.6909 7.3352 12.4061C7.41188 12.1214 7.37832 11.8181 7.24121 11.557L6.79414 10.705C6.60137 10.3382 6.60957 9.93101 6.81758 9.57417C7.025 9.21558 7.37246 9.00464 7.78613 8.9894L8.74121 8.95132C9.3541 8.92788 9.84219 8.4398 9.86738 7.82866L9.90723 6.86538C9.92363 6.45171 10.1346 6.10483 10.4937 5.89683C10.8523 5.69116 11.2578 5.68237 11.6246 5.87515L12.4701 6.32046C13.0133 6.6064 13.6795 6.42827 14.0064 5.9103L14.5232 5.09644C14.7441 4.7478 15.0998 4.55151 15.5146 4.55151C15.9283 4.55151 16.2834 4.74722 16.5043 5.09819L17.0141 5.90679C17.1709 6.1566 17.4165 6.33788 17.7014 6.41427C17.9863 6.49067 18.2896 6.45653 18.5504 6.3187L19.4041 5.87163C19.7697 5.68061 20.1764 5.68882 20.535 5.89683C20.8936 6.10425 21.1027 6.45171 21.1197 6.86538L21.1561 7.82046C21.1675 8.11519 21.2895 8.3948 21.4979 8.60353C21.7063 8.81225 21.9858 8.93476 22.2805 8.94663L23.242 8.98647C23.6557 9.00288 24.0043 9.21265 24.2105 9.573C24.4162 9.93159 24.425 10.3371 24.2322 10.7039L23.7869 11.5494C23.501 12.0908 23.6791 12.757 24.1971 13.0857L25.0109 13.6007C25.3625 13.8216 25.5582 14.1767 25.5564 14.5904ZM13.4551 23.983H13.2576C13.7691 23.983 14.1893 24.4013 14.1893 24.9146C14.1893 25.4261 13.7691 25.8462 13.2576 25.8462H13.1346C13.6479 25.8462 14.0662 26.2646 14.0662 26.7779C14.0662 27.2894 13.6479 27.7095 13.1346 27.7095H12.7689C13.2822 27.7095 13.7006 28.1279 13.7006 28.6412C13.7006 29.1527 13.2822 29.5728 12.7689 29.5728H7.26113C7.10645 29.5728 6.9752 29.5476 6.83281 29.4949L6.02715 29.1925C5.99551 29.1808 5.96387 29.1708 5.93398 29.1609V22.4917C6.07871 22.4167 6.20645 22.3125 6.31777 22.1777C7.20957 21.0931 8.8127 20.6062 8.74766 18.3925C8.59004 17.3015 9.63301 16.896 10.2125 17.8148C10.8652 18.846 10.8406 21.0603 10.2641 22.1197H13.4545C13.9678 22.1197 14.3861 22.538 14.3861 23.0513C14.3867 23.5628 13.9684 23.983 13.4551 23.983ZM4.98301 22.347V29.3894C4.98301 29.7251 4.70703 30.0005 4.37188 30.0005H2.39844C2.06445 30.0005 1.78906 29.7246 1.78906 29.3894V22.347C1.78906 22.0113 2.06504 21.7376 2.39844 21.7376H4.37188C4.70703 21.7376 4.98301 22.0113 4.98301 22.347ZM15.0395 2.07886V0.475732C15.0395 0.213232 15.2521 -0.0012207 15.5146 -0.0012207C15.7789 -0.0012207 15.9916 0.213232 15.9916 0.475732V2.07827C15.9916 2.34253 15.7789 2.55522 15.5146 2.55522C15.2521 2.55522 15.0395 2.34312 15.0395 2.07886ZM21.3611 3.51909L22.1615 2.13042C22.2248 2.02182 22.3283 1.94256 22.4496 1.90986C22.571 1.87717 22.7003 1.89368 22.8096 1.95581C22.8637 1.98683 22.9111 2.02822 22.9491 2.07761C22.9872 2.12699 23.0151 2.1834 23.0314 2.2436C23.0476 2.3038 23.0518 2.36661 23.0437 2.42843C23.0356 2.49025 23.0154 2.54986 22.9842 2.60386L22.1838 3.99253C22.0525 4.2187 21.7637 4.29839 21.5357 4.16714C21.3078 4.03706 21.2299 3.74644 21.3611 3.51909ZM27.9781 7.94526L26.5895 8.74741C26.5354 8.77864 26.4757 8.79889 26.4138 8.80702C26.3518 8.81514 26.2889 8.81098 26.2286 8.79476C26.1683 8.77854 26.1118 8.75059 26.0623 8.7125C26.0128 8.67441 25.9714 8.62694 25.9402 8.5728C25.809 8.34663 25.8869 8.05601 26.1131 7.92476L27.5018 7.12261C27.7291 6.99136 28.0197 7.06929 28.151 7.29546C28.2822 7.52339 28.2061 7.81401 27.9781 7.94526ZM8.0457 2.60503C7.91445 2.37769 7.99238 2.08706 8.21855 1.95581C8.4459 1.82456 8.73652 1.90249 8.86777 2.12866L9.66992 3.51733C9.80117 3.74468 9.72324 4.0353 9.49707 4.16655C9.26973 4.2978 8.9791 4.22163 8.84785 3.9937L8.0457 2.60503ZM5.08906 8.5728C4.95781 8.80015 4.66719 8.87866 4.43984 8.74741L3.05293 7.94526C2.82559 7.81401 2.74707 7.52339 2.87832 7.29604C3.01133 7.06987 3.30195 6.99194 3.52754 7.12319L4.91621 7.92534C4.97018 7.9564 5.01749 7.99781 5.05541 8.0472C5.09333 8.09659 5.12112 8.15299 5.13718 8.21315C5.15324 8.27332 5.15726 8.33606 5.149 8.39778C5.14074 8.4595 5.12037 8.51898 5.08906 8.5728Z" fill="#386BB7"/>
</g>
<defs>
<clipPath id="clip0_705_5573">
<rect width="30" height="30" fill="white"/>
</clipPath>
</defs>
</svg>
