<svg width="25" height="25" viewBox="0 0 25 25" fill="none" xmlns="http://www.w3.org/2000/svg">
<path fill-rule="evenodd" clip-rule="evenodd" d="M19.0709 2.77686L17.1134 5.20215C17.0915 5.22852 17.0875 5.25488 17.1037 5.28516C17.1178 5.31543 17.1393 5.32959 17.1735 5.32959H18.0348C18.1964 5.32959 18.3278 5.46045 18.3278 5.62256V9.18652C18.3498 9.20557 18.3717 9.22461 18.3917 9.24561L18.7765 9.62988C19.0063 9.85874 19.1431 10.1647 19.1605 10.4886C19.1778 10.8124 19.0744 11.1312 18.8703 11.3833L18.5954 11.7212C18.7428 11.957 18.8766 12.1992 18.9938 12.4482H19.7272C19.9225 12.4482 20.0841 12.2886 20.0841 12.0918V5.62207C20.0841 5.46045 20.2155 5.3291 20.3771 5.3291H21.2365C21.2702 5.3291 21.2921 5.31494 21.3063 5.28467C21.3224 5.2544 21.318 5.22803 21.2985 5.20215L19.339 2.77686C19.3034 2.73291 19.2614 2.71338 19.2052 2.71338C19.1486 2.71338 19.1071 2.73291 19.0709 2.77686ZM14.5241 14.9605L12.9113 16.5742C12.8556 16.6289 12.7819 16.6602 12.7038 16.6602C12.6256 16.6602 12.5524 16.6289 12.4962 16.5742L11.4538 15.5312L9.97866 17.0059C9.95146 17.0332 9.91911 17.0548 9.88349 17.0696C9.84788 17.0843 9.80969 17.0919 9.77114 17.0918C9.69741 17.0918 9.62173 17.063 9.56362 17.0059C9.50897 16.9508 9.4783 16.8764 9.4783 16.7988C9.4783 16.7213 9.50897 16.6468 9.56362 16.5918L11.2462 14.9102C11.2999 14.8555 11.3756 14.8242 11.4538 14.8242C11.5314 14.8242 11.6051 14.855 11.6613 14.9102L12.7038 15.9531L14.111 14.5469H13.7082C13.5446 14.5469 13.4152 14.4155 13.4152 14.2539C13.4152 14.0918 13.5446 13.9609 13.7082 13.9609H14.8166C14.9782 13.9609 15.1095 14.0923 15.1095 14.2539V15.3638C15.1095 15.5254 14.9782 15.6567 14.8166 15.6567C14.6549 15.6567 14.5236 15.5254 14.5236 15.3638V14.9605H14.5241ZM12.4948 10.6812C15.1657 10.6812 17.3405 12.8545 17.3405 15.5259C17.3405 18.1973 15.1657 20.3706 12.4948 20.3706C9.82339 20.3706 7.65102 18.1973 7.65102 15.5259C7.65053 12.8545 9.82339 10.6812 12.4948 10.6812ZM12.2238 7.50146H12.7682C13.1408 7.50146 13.4518 7.78125 13.4899 8.15185L13.5597 8.79443C13.5714 8.92188 13.6671 9.02588 13.7931 9.05078C14.6403 9.21973 15.4357 9.54932 16.1574 10.0308C16.2628 10.102 16.4044 10.0957 16.5041 10.0151L17.0065 9.6084C17.2975 9.37402 17.714 9.396 17.9772 9.65967L18.362 10.0444C18.6251 10.3081 18.6471 10.7256 18.4137 11.0156L18.007 11.5186C17.9274 11.6182 17.9191 11.7588 17.9909 11.8652C18.4733 12.5859 18.8024 13.3813 18.9718 14.229C18.9835 14.2903 19.0147 14.3463 19.0607 14.3885C19.1067 14.4307 19.1651 14.457 19.2272 14.4634L19.8712 14.5317C20.2399 14.5708 20.5211 14.8818 20.5211 15.2549V15.7988C20.5211 16.1714 20.2399 16.4824 19.8712 16.5215L19.2272 16.5898C19.0998 16.6035 18.9957 16.6982 18.9718 16.8237C18.8024 17.6709 18.4733 18.4663 17.9909 19.1875C17.9191 19.2939 17.9269 19.4346 18.007 19.5342L18.4137 20.0376C18.5265 20.1772 18.5836 20.3536 18.574 20.5329C18.5645 20.7121 18.4889 20.8815 18.362 21.0083L17.9772 21.3931C17.714 21.6567 17.2975 21.6787 17.0065 21.4443L16.5041 21.0381C16.4044 20.9575 16.2628 20.9512 16.1574 21.0225C15.4357 21.5039 14.6403 21.833 13.7931 22.002C13.6676 22.0269 13.5719 22.1309 13.5597 22.2583L13.4899 22.9009C13.4718 23.0795 13.3878 23.245 13.2545 23.3652C13.1211 23.4854 12.9478 23.5518 12.7682 23.5513H12.2238C11.8512 23.5513 11.5402 23.272 11.5001 22.9009L11.4323 22.2583C11.4181 22.1309 11.3249 22.0269 11.1969 22.002C10.3517 21.8335 9.5563 21.5034 8.83462 21.022C8.78615 20.9898 8.72924 20.9726 8.67104 20.9727C8.60708 20.9727 8.54165 20.9946 8.48745 21.0376L7.98501 21.4438C7.69399 21.6782 7.27749 21.6562 7.0143 21.3926L6.62954 21.0078C6.5017 20.8814 6.42556 20.712 6.41599 20.5325C6.40642 20.353 6.4641 20.1764 6.57778 20.0371L6.98452 19.5342C7.02329 19.4854 7.04571 19.4257 7.0486 19.3634C7.05149 19.3012 7.03471 19.2397 7.00063 19.1875C6.51821 18.4668 6.18911 17.6714 6.01968 16.8237C5.99575 16.6978 5.89028 16.603 5.76235 16.5898L5.12026 16.5215C4.74966 16.4824 4.47036 16.1714 4.47036 15.7988V15.2539C4.47036 14.8809 4.74966 14.5703 5.12026 14.5308L5.7643 14.4624C5.82635 14.4558 5.88465 14.4295 5.93063 14.3873C5.9766 14.3451 6.00781 14.2893 6.01968 14.228C6.18911 13.3809 6.51821 12.5854 7.00063 11.8647C7.07046 11.7583 7.0646 11.6177 6.98452 11.5181L6.57778 11.0146C6.4641 10.8753 6.40642 10.6986 6.41599 10.5191C6.42556 10.3395 6.5017 10.1699 6.62954 10.0435L7.0143 9.65869C7.27749 9.39502 7.69399 9.37305 7.98501 9.60742L8.48745 10.0142C8.58706 10.0947 8.72866 10.1011 8.83413 10.0298C9.55581 9.54834 10.3512 9.21875 11.1964 9.0498C11.2579 9.03786 11.314 9.00652 11.3563 8.96038C11.3987 8.91424 11.4251 8.85574 11.4318 8.79346L11.4997 8.15088C11.5397 7.78125 11.8507 7.50146 12.2238 7.50146ZM12.4948 10.0952C15.4909 10.0952 17.9269 12.5317 17.9269 15.5259C17.9269 18.52 15.4909 20.9565 12.4948 20.9565C9.50063 20.9565 7.0646 18.52 7.0646 15.5259C7.0646 12.5313 9.50063 10.0952 12.4948 10.0952ZM7.87807 5.20215L5.9186 2.77686C5.88247 2.73291 5.84292 2.71338 5.78725 2.71338C5.72964 2.71338 5.6896 2.73291 5.65347 2.77686L3.69399 5.20215C3.67397 5.22852 3.67007 5.25488 3.68423 5.28516C3.70034 5.31543 3.72231 5.32959 3.756 5.32959H4.61538C4.777 5.32959 4.90835 5.46045 4.90835 5.62256V12.0928C4.90835 12.2891 5.06802 12.4492 5.26528 12.4492H5.99868C6.11636 12.2007 6.2477 11.958 6.39516 11.7227L6.12222 11.3843C5.9181 11.1322 5.8147 10.8134 5.83202 10.4895C5.84934 10.1657 5.98614 9.85972 6.21596 9.63086L6.60073 9.24658C6.62075 9.22559 6.64272 9.20654 6.6647 9.1875V5.62354C6.6647 5.46191 6.79604 5.33057 6.95766 5.33057H7.81899C7.85268 5.33057 7.87466 5.31641 7.88882 5.28613C7.902 5.2544 7.90005 5.22852 7.87807 5.20215ZM14.588 3.67529L12.6281 1.25C12.5924 1.20605 12.5524 1.18652 12.4943 1.18652C12.4386 1.18652 12.3966 1.20605 12.3629 1.25L10.4035 3.67529C10.3815 3.70117 10.3795 3.72754 10.3937 3.75781C10.4079 3.78809 10.4293 3.80225 10.4635 3.80225H11.3249C11.4865 3.80225 11.6178 3.93359 11.6178 4.09522V7.06299C11.7995 6.96826 12.0045 6.91504 12.2238 6.91504H12.7682C12.9855 6.91504 13.193 6.96826 13.3742 7.06299V4.09522C13.3742 3.93359 13.5055 3.80225 13.6671 3.80225H14.5265C14.5602 3.80225 14.5841 3.78809 14.5983 3.75781C14.612 3.72754 14.6076 3.70117 14.588 3.67529Z" fill="#17D262"/>
</svg>
