<svg width="40" height="40" viewBox="0 0 40 40" fill="none" xmlns="http://www.w3.org/2000/svg">
<g clip-path="url(#clip0_675_7330)">
<path d="M6.11889 4.72041H6.11553C5.92921 4.72001 5.74467 4.75652 5.57254 4.82784C5.40042 4.89915 5.24413 5.00385 5.11269 5.1359C4.97869 5.2689 4.87244 5.42719 4.80012 5.60158C4.7278 5.77598 4.69085 5.963 4.69141 6.1518V27.6152C4.69141 28.4022 5.33424 29.0441 6.12455 29.0462C9.45628 29.0541 15.0382 29.7485 18.889 33.7783V11.3163C18.889 11.0495 18.8209 10.7988 18.6923 10.5914C15.5317 5.50156 9.45816 4.72822 6.11889 4.72041ZM35.3089 27.6152V6.15166C35.3089 5.76755 35.1593 5.40675 34.8876 5.13577C34.7562 5.00375 34.5999 4.89907 34.4278 4.82776C34.2557 4.75645 34.0712 4.71992 33.8849 4.72028H33.8814C30.5423 4.72822 24.4687 5.50156 21.308 10.5914C21.1794 10.7988 21.1114 11.0495 21.1114 11.3163V33.7782C24.9622 29.7484 30.5442 29.054 33.8759 29.046C34.6661 29.044 35.3089 28.4021 35.3089 27.6152Z" fill="white"/>
<path d="M38.5689 9.67017H37.531V27.6151C37.531 29.6247 35.8937 31.2634 33.8811 31.2684C31.0551 31.2751 26.3954 31.8277 23.0953 34.9511C28.8028 33.5536 34.8195 34.462 38.2485 35.2435C38.4585 35.2919 38.6768 35.2922 38.887 35.2443C39.0972 35.1964 39.2938 35.1015 39.4621 34.9668C39.6303 34.8332 39.7661 34.6632 39.8593 34.4695C39.9524 34.2759 40.0005 34.0637 40 33.8488V11.1013C40.0001 10.3122 39.358 9.67017 38.5689 9.67017ZM2.46896 27.6151V9.67017H1.43112C0.642157 9.67017 0 10.3122 0 11.1013V33.8484C0 34.2861 0.196095 34.6937 0.537914 34.9664C0.706179 35.1012 0.902785 35.1961 1.11297 35.244C1.32316 35.2919 1.54147 35.2916 1.75152 35.243C5.18049 34.4615 11.1973 33.5532 16.9046 34.9507C13.6046 31.8274 8.94495 31.275 6.11894 31.2682C4.10641 31.2634 2.46896 29.6247 2.46896 27.6151Z" fill="white"/>
</g>
<defs>
<clipPath id="clip0_675_7330">
<rect width="40" height="40" fill="white"/>
</clipPath>
</defs>
</svg>
