<svg width="40" height="40" viewBox="0 0 40 40" fill="none" xmlns="http://www.w3.org/2000/svg">
<path d="M33.9653 8.16665C32.4904 6.68907 30.5567 5.75712 28.4819 5.5239C26.4072 5.29069 24.3149 5.77008 22.5487 6.88331L26.2487 10.65C26.3965 10.8136 26.5104 11.0048 26.5838 11.2127C26.6571 11.4206 26.6885 11.641 26.6761 11.8612C26.6637 12.0813 26.6078 12.2967 26.5115 12.4951C26.4152 12.6934 26.2806 12.8707 26.1153 13.0166C25.8072 13.2884 25.4095 13.4368 24.9987 13.4333C24.7633 13.4351 24.5302 13.387 24.3148 13.2922C24.0993 13.1974 23.9064 13.0581 23.7487 12.8833L19.0487 8.16665C18.3747 7.49328 17.5984 6.93077 16.7487 6.49998C15.0149 5.6118 13.0447 5.2947 11.1199 5.59406C9.19499 5.89341 7.41412 6.79388 6.03201 8.16665C4.30251 10.1798 3.35156 12.746 3.35156 15.4C3.35156 18.054 4.30251 20.6202 6.03201 22.6333C9.13201 25.9666 16.6653 33.6833 20.0487 33.6833C22.682 33.6833 27.8487 29 31.432 25.35C32.332 24.45 33.0987 23.6833 33.7653 22.9333L34.0153 22.6666C35.7468 20.6452 36.6943 18.069 36.6852 15.4074C36.676 12.7458 35.7107 10.1761 33.9653 8.16665ZM23.332 22.5H21.6653V24.1666C21.6653 24.6087 21.4897 25.0326 21.1772 25.3452C20.8646 25.6577 20.4407 25.8333 19.9987 25.8333C19.5566 25.8333 19.1327 25.6577 18.8202 25.3452C18.5076 25.0326 18.332 24.6087 18.332 24.1666V22.5H16.6653C16.2233 22.5 15.7994 22.3244 15.4868 22.0118C15.1743 21.6993 14.9987 21.2753 14.9987 20.8333C14.9987 20.3913 15.1743 19.9674 15.4868 19.6548C15.7994 19.3422 16.2233 19.1666 16.6653 19.1666H18.332V17.5C18.332 17.058 18.5076 16.634 18.8202 16.3215C19.1327 16.0089 19.5566 15.8333 19.9987 15.8333C20.4407 15.8333 20.8646 16.0089 21.1772 16.3215C21.4897 16.634 21.6653 17.058 21.6653 17.5V19.1666H23.332C23.774 19.1666 24.198 19.3422 24.5105 19.6548C24.8231 19.9674 24.9987 20.3913 24.9987 20.8333C24.9987 21.2753 24.8231 21.6993 24.5105 22.0118C24.198 22.3244 23.774 22.5 23.332 22.5Z" fill="white"/>
</svg>
