<svg width="40" height="40" viewBox="0 0 40 40" fill="none" xmlns="http://www.w3.org/2000/svg">
<g clip-path="url(#clip0_675_7567)">
<path d="M15.6812 17.9443H13.3475L12.6006 15.1843H15.3075L15.6812 17.9443ZM13.6938 19.2781L14.4406 22.0381H16.2281L15.8544 19.2781H13.6938ZM17.0275 17.9443H19.4675V15.1843H16.6544L17.0275 17.9443ZM17.5744 22.0381H19.4681V19.2781H17.2013L17.5744 22.0381ZM20.8013 22.0381H22.7075L23.0812 19.2781H20.8013V22.0381ZM20.8013 17.9443H23.255L23.6281 15.1843H20.8013V17.9443ZM24.055 22.0381H24.8281C25.4281 22.0381 25.9612 21.6381 26.1219 21.0512L26.5881 19.2781H24.415L24.055 22.0381ZM27.3881 15.1843H24.975L24.6012 17.9443H26.9481L27.6019 15.4643C27.6112 15.4302 27.6124 15.3943 27.6055 15.3596C27.5985 15.3249 27.5836 15.2923 27.5619 15.2643C27.5402 15.2395 27.5135 15.2196 27.4835 15.2058C27.4536 15.192 27.4211 15.1847 27.3881 15.1843ZM17.9344 28.0781C17.9344 28.3587 17.4281 28.3587 17.4281 28.0781C17.4305 28.0117 17.4579 27.9486 17.5048 27.9017C17.5518 27.8547 17.6149 27.8273 17.6813 27.825C17.7477 27.8273 17.8109 27.8548 17.8579 27.9019C17.9049 27.949 17.9322 28.0116 17.9344 28.0781ZM23.8812 28.0781C23.8812 28.3587 23.3875 28.3587 23.3875 28.0781C23.3875 27.945 23.495 27.825 23.6413 27.825C23.775 27.825 23.8812 27.9443 23.8812 28.0781ZM23.8812 28.0781C23.8812 28.3587 23.3875 28.3587 23.3875 28.0781C23.3875 27.945 23.495 27.825 23.6413 27.825C23.775 27.825 23.8812 27.9443 23.8812 28.0781ZM17.9344 28.0781C17.9344 28.3587 17.4281 28.3587 17.4281 28.0781C17.4305 28.0117 17.4579 27.9486 17.5048 27.9017C17.5518 27.8547 17.6149 27.8273 17.6813 27.825C17.7477 27.8273 17.8109 27.8548 17.8579 27.9019C17.9049 27.949 17.9322 28.0116 17.9344 28.0781ZM17.9344 28.0781C17.9344 28.3587 17.4281 28.3587 17.4281 28.0781C17.4305 28.0117 17.4579 27.9486 17.5048 27.9017C17.5518 27.8547 17.6149 27.8273 17.6813 27.825C17.7477 27.8273 17.8109 27.8548 17.8579 27.9019C17.9049 27.949 17.9322 28.0116 17.9344 28.0781ZM23.8812 28.0781C23.8812 28.3587 23.3875 28.3587 23.3875 28.0781C23.3875 27.945 23.495 27.825 23.6413 27.825C23.775 27.825 23.8812 27.9443 23.8812 28.0781ZM23.8812 28.0781C23.8812 28.3587 23.3875 28.3587 23.3875 28.0781C23.3875 27.945 23.495 27.825 23.6413 27.825C23.775 27.825 23.8812 27.9443 23.8812 28.0781ZM17.9344 28.0781C17.9344 28.3587 17.4281 28.3587 17.4281 28.0781C17.4305 28.0117 17.4579 27.9486 17.5048 27.9017C17.5518 27.8547 17.6149 27.8273 17.6813 27.825C17.7477 27.8273 17.8109 27.8548 17.8579 27.9019C17.9049 27.949 17.9322 28.0116 17.9344 28.0781ZM17.9344 28.0781C17.9344 28.3587 17.4281 28.3587 17.4281 28.0781C17.4305 28.0117 17.4579 27.9486 17.5048 27.9017C17.5518 27.8547 17.6149 27.8273 17.6813 27.825C17.7477 27.8273 17.8109 27.8548 17.8579 27.9019C17.9049 27.949 17.9322 28.0116 17.9344 28.0781ZM23.8812 28.0781C23.8812 28.3587 23.3875 28.3587 23.3875 28.0781C23.3875 27.945 23.495 27.825 23.6413 27.825C23.775 27.825 23.8812 27.9443 23.8812 28.0781ZM23.8812 28.0781C23.8812 28.3587 23.3875 28.3587 23.3875 28.0781C23.3875 27.945 23.495 27.825 23.6413 27.825C23.775 27.825 23.8812 27.9443 23.8812 28.0781ZM17.9344 28.0781C17.9344 28.3587 17.4281 28.3587 17.4281 28.0781C17.4305 28.0117 17.4579 27.9486 17.5048 27.9017C17.5518 27.8547 17.6149 27.8273 17.6813 27.825C17.7477 27.8273 17.8109 27.8548 17.8579 27.9019C17.9049 27.949 17.9322 28.0116 17.9344 28.0781ZM17.9344 28.0781C17.9344 28.3587 17.4281 28.3587 17.4281 28.0781C17.4305 28.0117 17.4579 27.9486 17.5048 27.9017C17.5518 27.8547 17.6149 27.8273 17.6813 27.825C17.7477 27.8273 17.8109 27.8548 17.8579 27.9019C17.9049 27.949 17.9322 28.0116 17.9344 28.0781ZM23.8812 28.0781C23.8812 28.3587 23.3875 28.3587 23.3875 28.0781C23.3875 27.945 23.495 27.825 23.6413 27.825C23.775 27.825 23.8812 27.9443 23.8812 28.0781ZM23.8812 28.0781C23.8812 28.3587 23.3875 28.3587 23.3875 28.0781C23.3875 27.945 23.495 27.825 23.6413 27.825C23.775 27.825 23.8812 27.9443 23.8812 28.0781ZM17.9344 28.0781C17.9344 28.3587 17.4281 28.3587 17.4281 28.0781C17.4305 28.0117 17.4579 27.9486 17.5048 27.9017C17.5518 27.8547 17.6149 27.8273 17.6813 27.825C17.7477 27.8273 17.8109 27.8548 17.8579 27.9019C17.9049 27.949 17.9322 28.0116 17.9344 28.0781ZM37.4825 6.9037V29.1587L33.6419 25.9187C33.2747 25.6131 32.8133 25.4434 32.3356 25.4381C32.0676 25.438 31.8022 25.4907 31.5546 25.5932C31.307 25.6958 31.082 25.8461 30.8925 26.0356C30.703 26.2251 30.5527 26.4501 30.4502 26.6977C30.3476 26.9453 30.2949 27.2107 30.295 27.4787V33.4256H2.97375C2.18527 33.4249 1.42927 33.1114 0.871722 32.5539C0.31418 31.9963 0.000662036 31.2403 0 30.4518L0 6.9037H37.4825ZM19.2681 28.0787C19.2671 27.658 19.0995 27.2549 18.802 26.9575C18.5045 26.6601 18.1013 26.4927 17.6806 26.4918C17.2602 26.493 16.8573 26.6606 16.56 26.9579C16.2628 27.2553 16.0954 27.6582 16.0944 28.0787C16.0937 28.2873 16.1343 28.4939 16.2138 28.6868C16.2933 28.8796 16.4102 29.0548 16.5577 29.2023C16.7052 29.3498 16.8804 29.4666 17.0732 29.5461C17.266 29.6256 17.4727 29.6662 17.6813 29.6656C17.8899 29.6662 18.0966 29.6256 18.2894 29.5461C18.4823 29.4665 18.6575 29.3496 18.805 29.202C18.9525 29.0545 19.0694 28.8792 19.1489 28.6863C19.2283 28.4934 19.2689 28.2873 19.2681 28.0787ZM25.215 28.0787C25.215 27.2118 24.5081 26.4918 23.6413 26.4918C23.2207 26.4928 22.8176 26.6603 22.5203 26.9577C22.2229 27.2551 22.0554 27.6581 22.0544 28.0787C22.0537 28.2873 22.0943 28.494 22.1739 28.6869C22.2534 28.8798 22.3704 29.055 22.5179 29.2025C22.6655 29.35 22.8407 29.4668 23.0336 29.5463C23.2265 29.6258 23.4332 29.6663 23.6419 29.6656C23.8494 29.6648 24.0548 29.623 24.2462 29.5428C24.4377 29.4625 24.6114 29.3453 24.7575 29.1979C24.9036 29.0505 25.0192 28.8757 25.0977 28.6835C25.1762 28.4914 25.2161 28.2863 25.215 28.0787ZM28.6281 14.4643C28.3219 14.0775 27.8819 13.8512 27.3881 13.8512H12.2406L11.8538 12.3712C11.7545 12.0059 11.5374 11.6836 11.236 11.4545C10.9347 11.2254 10.566 11.1023 10.1875 11.1043H9.2C8.82687 11.1043 8.53375 11.3981 8.53375 11.7706C8.53375 12.1443 8.8275 12.4375 9.20062 12.4375H10.1875C10.2717 12.4373 10.3536 12.4645 10.4209 12.515C10.4882 12.5655 10.5373 12.6366 10.5606 12.7175L13.7475 24.625C13.9744 25.505 14.7744 26.105 15.6806 26.105H26.3619C26.735 26.105 27.0281 25.8112 27.0281 25.4381C27.0275 25.2616 26.9571 25.0925 26.8323 24.9677C26.7075 24.8429 26.5384 24.7725 26.3619 24.7718H15.6806C15.3744 24.7718 15.1075 24.5718 15.0275 24.2781L14.7875 23.3718H24.8281C25.4144 23.3712 25.9841 23.1775 26.4492 22.8208C26.9144 22.4641 27.2492 21.9641 27.4019 21.3981L28.895 15.7981C28.956 15.5702 28.9637 15.3313 28.9174 15.1C28.8711 14.8687 28.7721 14.6512 28.6281 14.4643ZM23.8812 28.0781C23.8812 28.3587 23.3875 28.3587 23.3875 28.0781C23.3875 27.9443 23.495 27.825 23.6413 27.825C23.775 27.825 23.8812 27.9443 23.8812 28.0781ZM17.9344 28.0781C17.9344 28.3587 17.4281 28.3587 17.4281 28.0781C17.4305 28.0117 17.4579 27.9486 17.5048 27.9017C17.5518 27.8547 17.6149 27.8273 17.6813 27.825C17.7477 27.8273 17.8109 27.8548 17.8579 27.9019C17.9049 27.949 17.9322 28.0116 17.9344 28.0781ZM17.9344 28.0781C17.9344 28.3587 17.4281 28.3587 17.4281 28.0781C17.4305 28.0117 17.4579 27.9486 17.5048 27.9017C17.5518 27.8547 17.6149 27.8273 17.6813 27.825C17.7477 27.8273 17.8109 27.8548 17.8579 27.9019C17.9049 27.949 17.9322 28.0116 17.9344 28.0781ZM23.8812 28.0781C23.8812 28.3587 23.3875 28.3587 23.3875 28.0781C23.3875 27.9443 23.495 27.825 23.6413 27.825C23.775 27.825 23.8812 27.9443 23.8812 28.0781ZM23.8812 28.0781C23.8812 28.3587 23.3875 28.3587 23.3875 28.0781C23.3875 27.9443 23.495 27.825 23.6413 27.825C23.775 27.825 23.8812 27.9443 23.8812 28.0781ZM17.9344 28.0781C17.9344 28.3587 17.4281 28.3587 17.4281 28.0781C17.4305 28.0117 17.4579 27.9486 17.5048 27.9017C17.5518 27.8547 17.6149 27.8273 17.6813 27.825C17.7477 27.8273 17.8109 27.8548 17.8579 27.9019C17.9049 27.949 17.9322 28.0116 17.9344 28.0781ZM17.9344 28.0781C17.9344 28.3587 17.4281 28.3587 17.4281 28.0781C17.4305 28.0117 17.4579 27.9486 17.5048 27.9017C17.5518 27.8547 17.6149 27.8273 17.6813 27.825C17.7477 27.8273 17.8109 27.8548 17.8579 27.9019C17.9049 27.949 17.9322 28.0116 17.9344 28.0781ZM23.8812 28.0781C23.8812 28.3587 23.3875 28.3587 23.3875 28.0781C23.3875 27.9443 23.495 27.825 23.6413 27.825C23.775 27.825 23.8812 27.9443 23.8812 28.0781ZM23.8812 28.0781C23.8812 28.3587 23.3875 28.3587 23.3875 28.0781C23.3875 27.9443 23.495 27.825 23.6413 27.825C23.775 27.825 23.8812 27.9443 23.8812 28.0781ZM17.9344 28.0781C17.9344 28.3587 17.4281 28.3587 17.4281 28.0781C17.4305 28.0117 17.4579 27.9486 17.5048 27.9017C17.5518 27.8547 17.6149 27.8273 17.6813 27.825C17.7477 27.8273 17.8109 27.8548 17.8579 27.9019C17.9049 27.949 17.9322 28.0116 17.9344 28.0781ZM17.9344 28.0781C17.9344 28.3587 17.4281 28.3587 17.4281 28.0781C17.4305 28.0117 17.4579 27.9486 17.5048 27.9017C17.5518 27.8547 17.6149 27.8273 17.6813 27.825C17.7477 27.8273 17.8109 27.8548 17.8579 27.9019C17.9049 27.949 17.9322 28.0116 17.9344 28.0781ZM23.8812 28.0781C23.8812 28.3587 23.3875 28.3587 23.3875 28.0781C23.3875 27.9443 23.495 27.825 23.6413 27.825C23.775 27.825 23.8812 27.9443 23.8812 28.0781ZM37.4825 4.40995V5.57058H0V4.41058C0 2.77058 1.33312 1.44995 2.97375 1.44995H34.5088C36.1488 1.44995 37.4825 2.76995 37.4825 4.40995ZM10.6275 3.83745C10.6275 3.49058 10.3475 3.21058 10.0006 3.21058H3.14687C2.9807 3.21058 2.82133 3.27659 2.70383 3.39409C2.58633 3.5116 2.52031 3.67096 2.52031 3.83714C2.52031 4.00331 2.58633 4.16268 2.70383 4.28019C2.82133 4.39769 2.9807 4.4637 3.14687 4.4637H10C10.3469 4.4637 10.6275 4.1837 10.6275 3.83745ZM29.455 3.83745C29.4545 3.66074 29.3841 3.4914 29.2591 3.36645C29.1342 3.24149 28.9648 3.17107 28.7881 3.17058C28.4281 3.17058 28.1219 3.47683 28.1219 3.83745C28.1219 4.21058 28.4281 4.5037 28.7881 4.5037C29.1619 4.5037 29.455 4.20995 29.455 3.83745ZM32.215 3.83745C32.215 3.47683 31.9088 3.17058 31.5487 3.17058C31.3719 3.17091 31.2024 3.24125 31.0773 3.36623C30.9523 3.4912 30.8817 3.66063 30.8813 3.83745C30.8813 4.21058 31.175 4.5037 31.5481 4.5037C31.7246 4.50304 31.8937 4.43264 32.0185 4.30783C32.1433 4.18303 32.2143 4.01395 32.215 3.83745ZM34.9619 3.83745C34.9614 3.66085 34.891 3.4916 34.7662 3.36667C34.6414 3.24173 34.4722 3.17124 34.2956 3.17058C34.1189 3.17107 33.9496 3.24149 33.8246 3.36645C33.6997 3.4914 33.6292 3.66074 33.6287 3.83745C33.6287 4.21058 33.9225 4.5037 34.2956 4.5037C34.6688 4.5037 34.9619 4.20995 34.9619 3.83745ZM23.8812 28.0781C23.8812 28.3587 23.3875 28.3587 23.3875 28.0781C23.3875 27.9443 23.495 27.825 23.6413 27.825C23.775 27.825 23.8812 27.9443 23.8812 28.0781ZM17.9344 28.0781C17.9344 28.3587 17.4281 28.3587 17.4281 28.0781C17.4305 28.0117 17.4579 27.9486 17.5048 27.9017C17.5518 27.8547 17.6149 27.8273 17.6813 27.825C17.7477 27.8273 17.8109 27.8548 17.8579 27.9019C17.9049 27.949 17.9322 28.0116 17.9344 28.0781ZM17.9344 28.0781C17.9344 28.3587 17.4281 28.3587 17.4281 28.0781C17.4305 28.0117 17.4579 27.9486 17.5048 27.9017C17.5518 27.8547 17.6149 27.8273 17.6813 27.825C17.7477 27.8273 17.8109 27.8548 17.8579 27.9019C17.9049 27.949 17.9322 28.0116 17.9344 28.0781ZM17.9344 28.0781C17.9344 28.3587 17.4281 28.3587 17.4281 28.0781C17.4305 28.0117 17.4579 27.9486 17.5048 27.9017C17.5518 27.8547 17.6149 27.8273 17.6813 27.825C17.7477 27.8273 17.8109 27.8548 17.8579 27.9019C17.9049 27.949 17.9322 28.0116 17.9344 28.0781ZM39.7494 32.8162L32.78 26.94C32.3231 26.555 31.6244 26.88 31.6244 27.4775L31.6269 36.5937C31.6269 37.1899 32.3219 37.5156 32.7806 37.135L34.6944 35.5437L35.7544 37.8237C35.8947 38.1254 36.1491 38.359 36.4616 38.4731C36.7742 38.5872 37.1193 38.5725 37.4209 38.4321C37.7226 38.2918 37.9562 38.0374 38.0703 37.7249C38.1844 37.4123 38.1697 37.0673 38.0294 36.7656L36.97 34.4862L39.42 34.0475C40.0062 33.9425 40.205 33.2012 39.7494 32.8162Z" fill="white"/>
</g>
<defs>
<clipPath id="clip0_675_7567">
<rect width="40" height="40" fill="white"/>
</clipPath>
</defs>
</svg>
