<svg width="25" height="25" viewBox="0 0 25 25" fill="none" xmlns="http://www.w3.org/2000/svg">
<g clip-path="url(#clip0_675_7241)">
<path fill-rule="evenodd" clip-rule="evenodd" d="M12.4886 0.0197754C19.3917 0.0197754 24.9886 5.61484 24.9886 12.5215C24.9886 19.4246 19.3918 25.0197 12.4886 25.0197C5.58535 25.0197 -0.0117188 19.4246 -0.0117188 12.5215C-0.0117188 5.61465 5.58511 0.0197754 12.4886 0.0197754ZM12.4867 15.4162C13.0373 15.4162 13.5755 15.2528 14.0333 14.9469C14.4912 14.641 14.848 14.2061 15.0586 13.6974C15.2693 13.1887 15.3244 12.6289 15.217 12.0889C15.1095 11.5488 14.8444 11.0528 14.455 10.6634C14.0657 10.2741 13.5696 10.009 13.0295 9.90154C12.4895 9.79412 11.9297 9.84926 11.421 10.06C10.9123 10.2707 10.4775 10.6275 10.1716 11.0853C9.86566 11.5432 9.70236 12.0814 9.70234 12.632C9.70322 13.3702 9.99686 14.0779 10.5188 14.5998C11.0408 15.1218 11.7485 15.4154 12.4867 15.4162ZM8.42075 11.5487C8.41122 11.5845 8.39117 11.6167 8.36318 11.6411C8.33519 11.6655 8.30055 11.6809 8.26372 11.6854L7.32026 11.8013C7.31309 11.802 7.30642 11.8053 7.30162 11.8107C7.29682 11.8161 7.29423 11.8231 7.29438 11.8303V13.4337C7.29425 13.4409 7.29685 13.4479 7.30165 13.4532C7.30645 13.4586 7.31309 13.462 7.32026 13.4626L8.26372 13.5786C8.30054 13.5831 8.33517 13.5985 8.36315 13.6229C8.39114 13.6473 8.41119 13.6794 8.42075 13.7153C8.51606 14.0745 8.65892 14.4193 8.84556 14.7407C8.86425 14.7728 8.87287 14.8098 8.87031 14.8468C8.86775 14.8839 8.85413 14.9193 8.8312 14.9485L8.2458 15.6979C8.24128 15.7034 8.23903 15.7105 8.23949 15.7177C8.23995 15.7248 8.24309 15.7315 8.24829 15.7365L9.38213 16.8703C9.387 16.8755 9.39368 16.8786 9.4008 16.8791C9.40792 16.8795 9.41494 16.8772 9.42041 16.8726L10.1699 16.2872C10.1991 16.2644 10.2346 16.2508 10.2716 16.2483C10.3086 16.2458 10.3455 16.2544 10.3776 16.273C10.6991 16.4595 11.0439 16.6023 11.403 16.6978C11.4388 16.7074 11.471 16.7275 11.4953 16.7555C11.5197 16.7834 11.5351 16.818 11.5397 16.8548L11.6557 17.7984C11.6563 17.8055 11.6596 17.8121 11.6649 17.8169C11.6703 17.8217 11.6772 17.8242 11.6843 17.824H13.288C13.2952 17.8242 13.3022 17.8217 13.3075 17.817C13.3129 17.8122 13.3162 17.8056 13.3168 17.7984L13.4333 16.8549C13.4379 16.8181 13.4534 16.7835 13.4777 16.7555C13.5021 16.7275 13.5342 16.7075 13.57 16.6979C13.9292 16.6024 14.274 16.4595 14.5954 16.273C14.6275 16.2544 14.6644 16.2458 14.7014 16.2484C14.7384 16.2509 14.7738 16.2644 14.803 16.2873L15.5524 16.8727C15.5579 16.8773 15.565 16.8796 15.5721 16.8792C15.5793 16.8787 15.586 16.8756 15.5909 16.8704L16.7247 15.7366C16.7299 15.7316 16.733 15.7249 16.7335 15.7178C16.7339 15.7106 16.7317 15.7035 16.7271 15.698L16.1419 14.9486C16.119 14.9194 16.1054 14.884 16.1028 14.8469C16.1003 14.8098 16.1089 14.7729 16.1276 14.7408C16.3141 14.4194 16.457 14.0745 16.5524 13.7154C16.562 13.6795 16.5821 13.6474 16.6101 13.623C16.6381 13.5986 16.6727 13.5832 16.7096 13.5787L17.653 13.4627C17.6602 13.4621 17.6668 13.4587 17.6716 13.4533C17.6764 13.4479 17.6789 13.441 17.6788 13.4338V11.8305C17.6789 11.8233 17.6764 11.8163 17.6716 11.8109C17.6668 11.8055 17.6602 11.8022 17.653 11.8015L16.7097 11.6855C16.6728 11.681 16.6382 11.6656 16.6102 11.6412C16.5822 11.6169 16.5621 11.5847 16.5525 11.5488C16.457 11.1897 16.3142 10.8449 16.1277 10.5234C16.109 10.4914 16.1004 10.4544 16.103 10.4174C16.1055 10.3804 16.1191 10.3449 16.142 10.3157L16.7274 9.56641C16.7319 9.56084 16.7342 9.55377 16.7337 9.54661C16.7333 9.53944 16.7301 9.53272 16.7249 9.52778L15.5911 8.39399C15.5862 8.38874 15.5795 8.38556 15.5724 8.38513C15.5652 8.38469 15.5582 8.38703 15.5527 8.39165L14.8031 8.97695C14.7739 8.99977 14.7385 9.01332 14.7015 9.01585C14.6645 9.01839 14.6276 9.00979 14.5955 8.99116C14.2741 8.80467 13.9293 8.66181 13.5701 8.56636C13.5343 8.55674 13.5021 8.53664 13.4778 8.50864C13.4534 8.48064 13.438 8.44601 13.4334 8.40918L13.3174 7.46572C13.3168 7.4586 13.3134 7.45199 13.3081 7.44724C13.3027 7.44248 13.2958 7.43995 13.2886 7.44014H11.6847C11.6776 7.43998 11.6707 7.44254 11.6653 7.44729C11.66 7.45203 11.6567 7.45862 11.6561 7.46572L11.5401 8.40918C11.5356 8.446 11.5201 8.48062 11.4957 8.50862C11.4714 8.53662 11.4393 8.55672 11.4034 8.56636C11.0443 8.66182 10.6995 8.80467 10.378 8.99116C10.3459 9.00978 10.309 9.01837 10.272 9.01584C10.235 9.01331 10.1995 8.99977 10.1703 8.97695L9.42061 8.39155C9.41515 8.38694 9.40813 8.3846 9.40099 8.38504C9.39386 8.38548 9.38717 8.38865 9.38232 8.3939L8.24849 9.52769C8.24329 9.53263 8.24015 9.53935 8.23969 9.54651C8.23922 9.55367 8.24148 9.56074 8.246 9.56631L8.8314 10.3156C8.85429 10.3448 8.8679 10.3803 8.87045 10.4173C8.87301 10.4543 8.86441 10.4913 8.84575 10.5233C8.65926 10.8448 8.5164 11.1896 8.42095 11.5487L8.42075 11.5487ZM7.27495 11.4323C7.17778 11.4443 7.08834 11.4914 7.02345 11.5647C6.95855 11.638 6.92268 11.7325 6.92256 11.8304V13.4338C6.92269 13.5317 6.95857 13.6262 7.02346 13.6996C7.08835 13.7729 7.17778 13.82 7.27495 13.832L8.09526 13.9328C8.18626 14.2396 8.30912 14.5361 8.46182 14.8174L7.95303 15.469C7.89281 15.5462 7.86284 15.6427 7.86877 15.7404C7.87469 15.8381 7.9161 15.9302 7.9852 15.9996L9.11899 17.1333C9.18827 17.2024 9.28042 17.2439 9.37812 17.2499C9.47582 17.2559 9.57235 17.226 9.64956 17.1658L10.3014 16.6568C10.5826 16.8096 10.879 16.9324 11.1859 17.0233L11.2868 17.8439C11.2987 17.9411 11.3458 18.0304 11.419 18.0953C11.4923 18.1602 11.5867 18.196 11.6846 18.1961H13.2883C13.3862 18.1961 13.4806 18.1602 13.5539 18.0954C13.6272 18.0305 13.6743 17.9411 13.6863 17.8439L13.787 17.0233C14.0939 16.9326 14.3904 16.8098 14.6715 16.6568L15.3234 17.1658C15.4006 17.226 15.4972 17.2559 15.5949 17.25C15.6926 17.244 15.7847 17.2025 15.8541 17.1334L16.9878 15.9996C17.0569 15.9302 17.0983 15.838 17.1042 15.7404C17.1101 15.6427 17.0802 15.5462 17.02 15.469L16.5112 14.8174C16.664 14.5362 16.7869 14.2397 16.8777 13.9328L17.698 13.832C17.7952 13.8199 17.8846 13.7728 17.9495 13.6995C18.0144 13.6262 18.0502 13.5317 18.0504 13.4338V11.8305C18.0503 11.7326 18.0144 11.6381 17.9495 11.5648C17.8846 11.4915 17.7952 11.4444 17.698 11.4323L16.8777 11.3315C16.7868 11.0246 16.664 10.7282 16.5112 10.4469L17.02 9.79531C17.0802 9.71813 17.1101 9.62164 17.1042 9.52395C17.0983 9.42626 17.0569 9.33409 16.9878 9.26475L15.8541 8.13091C15.7848 8.06178 15.6926 8.02033 15.5949 8.01435C15.4972 8.00837 15.4007 8.03827 15.3234 8.09844L14.6715 8.60752C14.3904 8.45453 14.0939 8.33168 13.787 8.24102L13.6863 7.42036C13.6743 7.32322 13.6272 7.23382 13.5539 7.16895C13.4806 7.10409 13.3862 7.06825 13.2883 7.06816H11.6847C11.5869 7.06829 11.4924 7.10415 11.4192 7.16901C11.3459 7.23387 11.2989 7.32325 11.2869 7.42036L11.186 8.24102C10.8791 8.33173 10.5826 8.45458 10.3015 8.60752L9.64971 8.09844C9.5725 8.03827 9.47598 8.00837 9.37828 8.01435C9.28059 8.02033 9.18843 8.06178 9.11914 8.13091L7.98535 9.26475C7.91625 9.33407 7.87484 9.42624 7.86891 9.52394C7.86299 9.62165 7.89295 9.71815 7.95317 9.79531L8.46196 10.4469C8.3092 10.7282 8.18635 11.0246 8.09541 11.3315L7.2751 11.4323L7.27495 11.4323ZM17.7659 7.60903C19.9767 9.9313 20.4007 13.4948 18.7954 16.2748C17.9518 17.7472 16.6189 18.8774 15.0285 19.469C13.438 20.0606 11.6905 20.0762 10.0898 19.5131C10.2044 19.1788 10.1877 18.8135 10.0431 18.4911C9.89852 18.1687 9.63687 17.9132 9.31109 17.7764C8.9853 17.6396 8.61971 17.6317 8.28829 17.7542C7.95687 17.8767 7.68436 18.1206 7.52592 18.4364C7.36747 18.7522 7.33492 19.1164 7.43485 19.4554C7.53477 19.7943 7.75971 20.0826 8.06415 20.262C8.36859 20.4413 8.7298 20.4983 9.07468 20.4215C9.41957 20.3446 9.72237 20.1396 9.92183 19.8479C11.1537 20.2856 12.4771 20.4007 13.766 20.1822C15.0549 19.9637 16.2664 19.4189 17.2852 18.5997C18.304 17.7805 19.0961 16.7142 19.5862 15.5022C20.0763 14.2902 20.2479 12.973 20.0849 11.6759C19.8769 10.054 19.1592 8.54008 18.0353 7.35249C18.0184 7.33481 17.9983 7.32061 17.9759 7.31072C17.9536 7.30082 17.9296 7.29542 17.9051 7.29482C17.8807 7.29422 17.8564 7.29844 17.8337 7.30723C17.8109 7.31602 17.79 7.32921 17.7724 7.34605C17.7547 7.36288 17.7405 7.38304 17.7306 7.40536C17.7207 7.42769 17.7153 7.45174 17.7147 7.47616C17.7141 7.50057 17.7183 7.52486 17.7271 7.54764C17.7359 7.57042 17.7491 7.59125 17.7659 7.60894V7.60903ZM7.19961 18.0995C7.23636 18.0995 7.27228 18.0886 7.30283 18.0681C7.33339 18.0477 7.3572 18.0187 7.37126 17.9847C7.38532 17.9507 7.38901 17.9134 7.38185 17.8773C7.3747 17.8413 7.35702 17.8081 7.33105 17.7821C6.17641 16.6256 5.44401 15.1146 5.25153 13.4917C5.05904 11.8688 5.41764 10.2284 6.26972 8.83385C7.1218 7.43932 8.41789 6.37169 9.94978 5.80244C11.4817 5.2332 13.1604 5.1954 14.7164 5.69512C14.6435 5.93085 14.6268 6.18041 14.6678 6.42374C14.7089 6.66707 14.8064 6.89738 14.9526 7.09616C15.0988 7.29495 15.2896 7.45666 15.5097 7.56831C15.7297 7.67996 15.9729 7.73843 16.2197 7.73901C16.3583 7.73893 16.4963 7.72066 16.6302 7.68467C16.8798 7.61788 17.1091 7.4908 17.2979 7.31461C17.4868 7.13841 17.6296 6.9185 17.7135 6.67421C17.7975 6.42993 17.8201 6.16875 17.7795 5.91366C17.7388 5.65856 17.6361 5.41736 17.4804 5.21128C17.3246 5.00519 17.1207 4.84053 16.8863 4.73177C16.652 4.62302 16.3946 4.57351 16.1367 4.58759C15.8787 4.60167 15.6282 4.67892 15.4072 4.81253C15.1861 4.94615 15.0012 5.13204 14.8688 5.35386C11.443 4.22842 7.66538 5.66821 5.85518 8.80357C5.0137 10.2632 4.67651 11.9594 4.89573 13.6298C5.11495 15.3003 5.87838 16.852 7.06797 18.0451C7.08522 18.0624 7.1057 18.0761 7.12825 18.0854C7.1508 18.0947 7.17496 18.0995 7.19937 18.0995H7.19961ZM9.34106 19.3905C9.41332 19.2656 9.44236 19.1204 9.42368 18.9774C9.40501 18.8343 9.33966 18.7014 9.23777 18.5993C9.13588 18.4972 9.00315 18.4315 8.86015 18.4125C8.71714 18.3935 8.57187 18.4222 8.44683 18.4942C8.3218 18.5661 8.22401 18.6773 8.16861 18.8105C8.11321 18.9437 8.10331 19.0915 8.14043 19.2309C8.17756 19.3703 8.25963 19.4935 8.37394 19.5815C8.48825 19.6695 8.6284 19.7174 8.77266 19.7176C8.88778 19.7178 9.00091 19.6876 9.10069 19.6302C9.20046 19.5728 9.28337 19.4901 9.34106 19.3905ZM16.3637 5.91689C16.3209 5.89198 16.2723 5.87882 16.2228 5.87876C16.1978 5.87876 16.173 5.88205 16.1489 5.88853C16.0856 5.90545 16.0302 5.94381 15.992 5.99705C15.9538 6.05029 15.9352 6.11513 15.9395 6.18051C15.9437 6.2459 15.9705 6.30778 16.0153 6.35562C16.0601 6.40347 16.1201 6.4343 16.185 6.44288C16.25 6.45146 16.3159 6.43724 16.3716 6.40266C16.4272 6.36808 16.4692 6.31528 16.4902 6.25324C16.5113 6.1912 16.5102 6.12377 16.4872 6.06244C16.4641 6.00111 16.4205 5.94967 16.3638 5.91689H16.3637ZM16.2214 6.8168C16.3805 6.81717 16.5343 6.75968 16.6541 6.65504C16.7739 6.5504 16.8516 6.40576 16.8726 6.24808C16.8937 6.09039 16.8567 5.93043 16.7685 5.79802C16.6803 5.66561 16.547 5.56979 16.3934 5.52842C16.2398 5.48704 16.0764 5.50295 15.9336 5.57316C15.7909 5.64337 15.6785 5.7631 15.6176 5.91003C15.5566 6.05696 15.5511 6.22105 15.6021 6.37171C15.6532 6.52238 15.7573 6.64933 15.8951 6.72891C15.9943 6.78623 16.1068 6.81653 16.2214 6.8168ZM8.91519 18.8178C8.87236 18.7928 8.82368 18.7797 8.77412 18.7797C8.74939 18.7798 8.72477 18.7831 8.70088 18.7895C8.63755 18.8064 8.58203 18.8447 8.54379 18.8979C8.50554 18.9511 8.48695 19.016 8.49117 19.0814C8.49538 19.1468 8.52216 19.2087 8.56692 19.2566C8.61168 19.3045 8.67167 19.3353 8.73664 19.3439C8.80161 19.3525 8.86756 19.3383 8.92323 19.3037C8.9789 19.2691 9.02085 19.2163 9.04193 19.1543C9.06301 19.0922 9.06192 19.0247 9.03883 18.9634C9.01575 18.9021 8.9721 18.8506 8.91533 18.8179L8.91519 18.8178Z" fill="#FDB600"/>
</g>
<defs>
<clipPath id="clip0_675_7241">
<rect width="25" height="25" fill="white" transform="translate(0 -0.000488281)"/>
</clipPath>
</defs>
</svg>
