<svg width="40" height="40" viewBox="0 0 40 40" fill="none" xmlns="http://www.w3.org/2000/svg">
<path d="M15.9124 35.104H7.00044C6.63244 35.104 6.32844 35.4081 6.32844 35.7761C6.32844 36.2881 6.27244 36.696 6.67244 37.104C6.88044 37.312 7.17644 37.4481 7.49644 37.4481H15.9124C16.9364 37.4481 17.4804 36.2001 16.7364 35.4561C16.5204 35.2321 16.2324 35.104 15.9124 35.104ZM8.24044 33.9841H14.5364V32.8881C14.5364 32.5761 14.7844 32.3281 15.0964 32.3281H20.2884V29.0801C20.2884 28.8321 20.4564 28.608 20.7044 28.5441L22.3604 28.0961L20.4084 25.144C20.2644 24.928 20.3284 24.6881 20.3444 24.3761C20.5684 19.6881 16.8564 15.6161 12.0004 15.6161C7.38444 15.6161 3.64844 19.3521 3.64844 23.9681C3.64844 25.5121 4.06444 26.9601 4.80044 28.2001C5.55244 29.4721 6.62444 30.5281 7.91244 31.2561C8.10444 31.3441 8.24044 31.5361 8.24044 31.7681V33.9841ZM30.7924 24.9601C32.6324 24.9601 34.1284 26.456 34.1284 28.3041C34.1284 30.1441 32.6324 31.6401 30.7924 31.6401C28.9524 31.6401 27.4484 30.1441 27.4484 28.3041C27.4564 26.456 28.9524 24.9601 30.7924 24.9601ZM26.1684 31.6401C28.0164 31.6401 28.9524 33.8881 27.6404 35.1921C26.3284 36.5041 24.0884 35.5681 24.0884 33.7201C24.0884 32.5761 25.0244 31.6401 26.1684 31.6401ZM21.2084 13.9521C22.5044 13.7441 23.6724 13.0401 24.4644 11.9921L22.1924 10.6241C21.7764 10.3761 21.2564 10.6721 21.2484 11.1441L21.2084 13.9521ZM20.1764 14.7601C20.1204 14.6001 20.0964 14.3761 20.0964 14.2001L20.1364 11.1361C20.1524 9.79205 21.6164 8.97605 22.7684 9.67205L25.3284 11.2081C25.5924 11.3681 25.7924 11.5681 25.9444 11.8321L30.9524 20.5041C31.0244 20.6401 31.0884 20.7761 31.1284 20.9201C34.0644 20.6961 36.3684 18.2401 36.3684 15.2641C36.3684 12.8001 34.7924 10.6481 32.4964 9.88005C32.2324 9.79205 32.0804 9.52005 32.1284 9.25605C32.7444 5.77605 30.0884 2.57605 26.5444 2.57605C24.0964 2.57605 21.9284 4.15205 21.1684 6.43205C21.0564 6.75205 20.6884 6.90405 20.3844 6.75205C17.8804 5.48805 14.7764 6.66405 13.7764 9.32005C13.6804 9.57605 13.4164 9.72005 13.1604 9.67205C9.32844 9.01605 5.97644 12.3201 6.58444 16.1601C6.58444 16.1841 6.59244 16.2081 6.59244 16.2321C10.1764 13.7201 15.0164 14.0001 18.2884 16.8881C19.5124 17.9681 20.4564 19.3601 20.9924 20.944H23.7204L20.3444 15.1041C20.2644 14.9841 20.2164 14.8721 20.1764 14.7601ZM24.0084 13.9841L28.9284 22.3841L29.7524 21.9041C30.0484 21.736 30.1524 21.3521 29.9764 21.0561L25.2244 12.8321C24.8724 13.272 24.4644 13.6641 24.0084 13.9841ZM27.9604 22.944L23.0404 14.5441C22.5764 14.7601 22.0884 14.9201 21.5764 15.0241L25.1284 21.1761C25.1444 21.2001 25.1524 21.2241 25.1684 21.2481L26.2884 23.192C26.4564 23.4881 26.8404 23.592 27.1364 23.424L27.9604 22.944Z" fill="white"/>
</svg>
