<svg width="29" height="30" viewBox="0 0 29 30" fill="none" xmlns="http://www.w3.org/2000/svg">
<g clip-path="url(#clip0_245_117)">
<path d="M28.5469 14.5759C28.5469 13.41 27.6578 12.4576 26.5237 12.3348C26.2107 10.6585 25.5509 9.06622 24.5866 7.65988C24.9144 7.26116 25.0945 6.76143 25.0963 6.24522C25.0963 5.63985 24.8607 5.07118 24.433 4.64343C23.6083 3.81874 22.306 3.77433 21.417 4.48982C20.0106 3.52511 18.4181 2.86499 16.7416 2.5518C16.6179 1.41808 15.6659 0.529053 14.5 0.529053C13.3341 0.529053 12.3821 1.41808 12.2588 2.55226C10.5824 2.86544 8.98989 3.52556 7.5835 4.49027C6.69492 3.77433 5.39219 3.81874 4.5675 4.64343C4.3565 4.85329 4.18922 5.10292 4.07535 5.37787C3.96148 5.65282 3.90328 5.94763 3.90412 6.24522C3.90412 6.76858 4.08945 7.25886 4.41389 7.65988C3.44949 9.06617 2.78968 10.6585 2.47678 12.3348C1.34216 12.4576 0.453125 13.4096 0.453125 14.5759C0.453125 15.7423 1.34216 16.6943 2.47633 16.8171C2.78931 18.4933 3.44912 20.0856 4.41344 21.492C4.08557 21.8907 3.9055 22.3904 3.90367 22.9066C3.90367 23.512 4.1393 24.0807 4.56705 24.5084C4.77731 24.719 5.0271 24.8859 5.30207 24.9995C5.57703 25.1132 5.87175 25.1715 6.1693 25.1709C6.68488 25.168 7.18387 24.9884 7.58305 24.662C8.98964 25.6266 10.5823 26.2865 12.2588 26.5996C12.3816 27.7338 13.3337 28.6228 14.5 28.6228C15.6659 28.6228 16.6179 27.7338 16.7412 26.5996C18.4177 26.2865 20.0103 25.6265 21.417 24.662C21.8162 24.9882 22.3152 25.1678 22.8307 25.1709C23.4107 25.1709 23.9912 24.9502 24.433 24.5084C24.644 24.2986 24.8112 24.0489 24.9251 23.774C25.039 23.499 25.0972 23.2042 25.0963 22.9066C25.0946 22.3904 24.9145 21.8907 24.5866 21.492C25.5509 20.0856 26.2107 18.4933 26.5237 16.8171C27.6578 16.6943 28.5469 15.7423 28.5469 14.5759ZM21.4115 21.1553L19.1975 19.2816C19.3831 18.9515 19.4818 18.5796 19.4844 18.2009C19.4844 18.0632 19.4672 17.93 19.4436 17.7995L24.3913 15.8202C24.6825 16.2567 25.1162 16.5787 25.6183 16.731C25.3278 18.2276 24.7381 19.6501 23.8847 20.9133C23.494 20.7071 23.0514 20.6201 22.6118 20.6631C22.1721 20.7062 21.7548 20.8773 21.4115 21.1553ZM7.77155 21.3048C7.65774 21.1919 7.53228 21.0913 7.39727 21.0049L9.24738 15.455C9.33619 15.4659 9.42364 15.4822 9.51562 15.4822C9.81663 15.4821 10.1146 15.4218 10.3919 15.3048C10.6693 15.1879 10.9204 15.0166 11.1306 14.8011L15.1131 17.3781C15.0087 17.6399 14.9545 17.919 14.9531 18.2009C14.9531 18.3654 14.9726 18.5249 15.0061 18.6794L8.09327 21.7208C8.00257 21.5701 7.8946 21.4305 7.77155 21.3048ZM5.11487 20.9138C4.26142 19.6505 3.67176 18.228 3.38122 16.7314C4.30287 16.4469 4.97894 15.5986 4.98302 14.5854L7.42763 14.0965C7.62256 14.5487 7.95924 14.9253 8.38689 15.1695L6.55037 20.6791C6.05908 20.5971 5.55446 20.6796 5.11487 20.9138ZM6.1693 8.50949C6.37411 8.50949 6.57666 8.47188 6.77558 8.4166L8.16984 11.4041C7.88689 11.6123 7.65647 11.8837 7.49693 12.1968C7.3374 12.5098 7.25315 12.8557 7.25091 13.207L4.8063 13.696C4.67597 13.3925 4.48096 13.1211 4.2349 12.9008C3.98884 12.6805 3.69765 12.5165 3.38167 12.4204C3.67208 10.9239 4.26159 9.50135 5.11487 8.23807C5.43904 8.41296 5.80098 8.50613 6.1693 8.50949ZM7.77155 7.84702C7.87155 7.74628 7.96196 7.63645 8.04161 7.51896L14.0804 9.7148C14.0641 9.82355 14.0469 9.93185 14.0469 10.0447C14.0469 10.2264 14.0741 10.4008 14.1144 10.5703L11.3277 11.8712C10.9144 11.3157 10.2592 10.9509 9.51562 10.9509C9.33392 10.9509 9.15947 10.9781 8.99 11.0184L7.58214 8.00154C7.64558 7.95079 7.71264 7.90593 7.77155 7.84702ZM21.2285 7.84702C21.4387 8.05755 21.6885 8.22445 21.9635 8.33814C22.2384 8.45183 22.5332 8.51006 22.8307 8.50949C23.195 8.50949 23.5553 8.41207 23.8851 8.23807C24.7385 9.50137 25.3281 10.9239 25.6188 12.4204C25.1516 12.5632 24.7432 12.8535 24.4547 13.2478L18.5174 10.549C18.5541 10.3863 18.5781 10.2187 18.5781 10.0447C18.5751 9.80535 18.5336 9.56806 18.4553 9.34188L21.1782 7.78585C21.1963 7.80533 21.2094 7.82844 21.2285 7.84702ZM17.4249 15.9561L17.0067 12.1902C17.4609 12.0441 17.8573 11.7579 18.139 11.3728L24.0768 14.0716C24.0375 14.2369 24.017 14.4061 24.0156 14.5759C24.0156 14.7137 24.0328 14.8469 24.0564 14.9778L19.1087 16.9566C18.9211 16.6743 18.6723 16.4377 18.3808 16.2645C18.0894 16.0913 17.7627 15.9859 17.4249 15.9561ZM16.1063 12.2895L16.5246 16.0554C16.1771 16.1653 15.8614 16.3576 15.6043 16.6159L11.6213 14.0385C11.7258 13.777 11.78 13.4982 11.7812 13.2166C11.7812 13.0348 11.7541 12.8604 11.7137 12.6909L14.5 11.3905C14.6895 11.6448 14.9305 11.8564 15.2073 12.0113C15.4841 12.1662 15.7904 12.261 16.1063 12.2895ZM16.6551 3.4576C18.1512 3.74831 19.5733 4.33763 20.8365 5.19035C20.6605 5.51428 20.5672 5.8766 20.5646 6.24522C20.5646 6.51166 20.6176 6.76858 20.7055 7.01236L18.0058 8.55526C17.5903 8.0831 16.989 7.77905 16.3125 7.77905C16.2794 7.77905 16.2486 7.78721 16.2155 7.78902L15.476 4.83057C15.7564 4.69513 16.0059 4.50329 16.2087 4.26705C16.4116 4.03081 16.5636 3.75525 16.6551 3.4576ZM14.5 5.0603C14.5331 5.0603 14.5639 5.05215 14.597 5.05033L15.3365 8.00879C14.9453 8.197 14.6163 8.49343 14.3885 8.86293L8.39233 6.68249C8.41997 6.53976 8.43492 6.39385 8.43492 6.24522C8.43492 5.86958 8.33433 5.51297 8.16305 5.19035C9.42615 4.33745 10.8483 3.74811 12.3445 3.4576C12.6304 4.38197 13.4827 5.0603 14.5 5.0603ZM12.3449 25.6943C10.8488 25.4037 9.42662 24.8144 8.1635 23.9615C8.33478 23.6389 8.43537 23.2823 8.43537 22.9066C8.43537 22.7938 8.41906 22.6846 8.4032 22.5749L15.3745 19.5073C15.5641 19.7715 15.8083 19.9918 16.0905 20.1534L14.7687 24.1183C14.6794 24.1079 14.592 24.0916 14.5 24.0916C13.4827 24.0916 12.6304 24.7699 12.3449 25.6943ZM15.6287 24.4042L16.9505 20.4394C17.0393 20.4502 17.1268 20.4666 17.2188 20.4666C17.7255 20.4644 18.2166 20.2908 18.6121 19.974L20.8351 21.8549C20.6604 22.1781 20.5677 22.5392 20.5651 22.9066C20.5651 23.2823 20.6657 23.6393 20.837 23.962C19.5738 24.8148 18.1517 25.4042 16.6555 25.6947C16.4878 25.1507 16.1211 24.6899 15.6287 24.4042Z" fill="#386BB7"/>
</g>
<defs>
<clipPath id="clip0_245_117">
<rect width="29" height="29" fill="white" transform="translate(0 0.0759277)"/>
</clipPath>
</defs>
</svg>
