<svg width="30" height="30" viewBox="0 0 30 30" fill="none" xmlns="http://www.w3.org/2000/svg">
<g clip-path="url(#clip0_776_2737)">
<path d="M16.581 9.31962C16.0551 9.33315 15.6115 8.8117 15.7146 8.29206L16.0658 6.24473L14.5783 4.79474C14.4608 4.68026 14.3777 4.53521 14.3384 4.37597C14.2991 4.21674 14.3051 4.04969 14.3558 3.8937C14.4065 3.73771 14.4998 3.59902 14.6252 3.4933C14.7506 3.38758 14.9031 3.31905 15.0654 3.29547L17.1211 2.99675L18.0404 1.134C18.113 0.986929 18.2253 0.8631 18.3646 0.776515C18.5039 0.68993 18.6646 0.644043 18.8286 0.644043C18.9926 0.644043 19.1534 0.68993 19.2926 0.776515C19.4319 0.8631 19.5442 0.986929 19.6168 1.134L20.5361 2.99675L22.5918 3.29547C22.7541 3.31906 22.9066 3.38759 23.0319 3.49332C23.1573 3.59904 23.2506 3.73774 23.3013 3.89372C23.352 4.04971 23.358 4.21676 23.3187 4.37599C23.2794 4.53522 23.1963 4.68027 23.0788 4.79474L21.5914 6.24473L21.9425 8.29206C21.9702 8.45371 21.9522 8.6199 21.8904 8.77183C21.8286 8.92377 21.7255 9.05538 21.5928 9.15178C21.4601 9.24819 21.3031 9.30554 21.1395 9.31736C20.9759 9.32918 20.8123 9.29499 20.6671 9.21865L18.8285 8.25203L16.9898 9.21865C16.8638 9.28497 16.7234 9.31963 16.581 9.31962ZM22.0198 18.2196C21.494 18.2331 21.0503 17.7117 21.1533 17.192L21.5932 14.6273L19.7299 12.811C19.6125 12.6965 19.5294 12.5515 19.4901 12.3923C19.4508 12.233 19.4568 12.066 19.5075 11.91C19.5582 11.7541 19.6515 11.6154 19.7768 11.5097C19.9022 11.4039 20.0547 11.3354 20.217 11.3118L22.792 10.9377L23.9436 8.60426C24.0161 8.45719 24.1284 8.33336 24.2677 8.24677C24.407 8.16018 24.5677 8.11428 24.7317 8.11428C24.8957 8.11427 25.0565 8.16015 25.1958 8.24673C25.3351 8.33331 25.4474 8.45714 25.5199 8.6042L26.6716 10.9376L29.2466 11.3117C29.4089 11.3353 29.5614 11.4039 29.6867 11.5096C29.8121 11.6153 29.9054 11.754 29.9561 11.91C30.0068 12.0659 30.0128 12.233 29.9735 12.3922C29.9342 12.5514 29.8511 12.6965 29.7337 12.811L27.8703 14.6273L28.3102 17.192C28.3379 17.3536 28.3198 17.5198 28.258 17.6717C28.1962 17.8236 28.0931 17.9552 27.9605 18.0516C27.8278 18.148 27.6708 18.2053 27.5072 18.2172C27.3437 18.229 27.18 18.1949 27.0349 18.1186L24.7316 16.9077L22.4285 18.1186C22.3025 18.185 22.1622 18.2196 22.0198 18.2196ZM22.3421 21.0231C21.8072 20.1754 20.8897 19.6679 19.8875 19.6655L17.6086 19.6586L18.0024 17.9612C18.1708 17.2355 18.0427 16.49 17.6415 15.8621C17.1084 14.9946 16.103 14.5264 15.0974 14.6403C14.9864 14.6403 14.8778 14.6718 14.784 14.7311C14.6903 14.7905 14.6153 14.8752 14.5678 14.9754L13.2942 17.6641C12.9557 18.3783 12.4329 18.9894 11.7797 19.4344L9.15773 21.2197V29.3561H17.4832C18.9452 29.3561 20.2944 28.5023 20.9203 27.181L22.511 23.8232C22.9401 22.9174 22.877 21.8707 22.3421 21.0231ZM4.12113 21.2205C3.7975 21.2205 3.53516 21.4829 3.53516 21.8065V28.766C3.53516 29.0897 3.7975 29.352 4.12113 29.352H7.39987V21.2205H4.12113Z" fill="#FF4D69"/>
<path d="M8.28644 10.9601C10.4553 10.9601 12.2135 9.20188 12.2135 7.03302C12.2135 4.86416 10.4553 3.10596 8.28644 3.10596C6.11758 3.10596 4.35938 4.86416 4.35938 7.03302C4.35938 9.20188 6.11758 10.9601 8.28644 10.9601Z" fill="#FF4D69"/>
<path d="M8.28804 12.718C7.39098 12.718 6.54196 12.5089 5.7867 12.1372C3.29668 12.3602 1.23329 14.2188 0.783559 16.7204L0.0157016 20.9911C-0.0188121 21.1829 0.00257583 21.383 0.0897685 21.5573C0.16262 21.7039 0.274922 21.8272 0.414043 21.9134C0.553164 21.9996 0.713583 22.0453 0.877256 22.0453H2.36398V20.3416C2.36398 19.8562 2.75752 19.4626 3.24294 19.4626H8.6156L10.7911 17.9813C11.1858 17.7124 11.5017 17.3432 11.7063 16.9116L12.9799 14.2228C13.1552 13.8526 13.4233 13.5429 13.7476 13.3142C12.9143 12.6578 11.8936 12.2366 10.7887 12.1376C10.0335 12.509 9.18481 12.718 8.28804 12.718Z" fill="#FF4D69"/>
</g>
<defs>
<clipPath id="clip0_776_2737">
<rect width="30" height="30" fill="white"/>
</clipPath>
</defs>
</svg>
