<svg width="30" height="30" viewBox="0 0 30 30" fill="none" xmlns="http://www.w3.org/2000/svg">
<g clip-path="url(#clip0_776_2710)">
<path d="M9.89749 17.6876L13.1813 30L2.32422 17.6876H9.89749ZM9.96023 15.9287H2.32422L7.34356 10.9094C7.50889 10.7446 7.73228 10.652 7.96562 10.652H12.9756L9.96023 15.9287ZM18.0166 15.9287H11.9859L15.0013 10.652L18.0166 15.9287ZM18.2846 17.6876L15.0013 30L11.718 17.6876H18.2846ZM20.0423 15.9287L17.0269 10.652H22.0369C22.2702 10.652 22.4936 10.7446 22.659 10.9094L27.6783 15.9287H20.0423ZM20.105 17.6876H27.6783L16.8213 30L20.105 17.6876ZM15.0013 5.01476C14.5156 5.01476 14.1218 4.621 14.1218 4.13531V0.879454C14.1218 0.393761 14.5156 0 15.0013 0C15.487 0 15.8807 0.393761 15.8807 0.879454V4.13531C15.8807 4.621 15.487 5.01476 15.0013 5.01476ZM6.25907 6.83066L4.63114 4.01101C4.38824 3.5904 4.53235 3.05253 4.95302 2.80968C5.37364 2.56683 5.91157 2.71089 6.15436 3.13156L7.78229 5.95121C8.02519 6.37182 7.88108 6.9097 7.46041 7.15254C7.04155 7.39439 6.50298 7.25321 6.25907 6.83066ZM22.5422 7.1526C22.1215 6.90975 21.9774 6.37188 22.2203 5.95127L23.8482 3.13162C24.0911 2.71095 24.6289 2.56683 25.0496 2.80974C25.4702 3.05259 25.6143 3.59046 25.3714 4.01107L23.7435 6.83072C23.4999 7.25262 22.9615 7.39474 22.5422 7.1526Z" fill="#17D262"/>
</g>
<defs>
<clipPath id="clip0_776_2710">
<rect width="30" height="30" fill="white"/>
</clipPath>
</defs>
</svg>
