<svg width="30" height="30" viewBox="0 0 30 30" fill="none" xmlns="http://www.w3.org/2000/svg">
<path d="M24.668 8.84766H23.7891C20.8811 8.84766 18.5156 11.2131 18.5156 14.1211V16.8204L20.8536 15.4703L22.0312 17.511V14.1211C22.0312 13.1521 22.82 12.3633 23.7891 12.3633H24.668V14.5605L30 10.6055L24.668 6.65039V8.84766ZM15 0L11.0458 5.33203H13.2422L13.2428 14.1211H16.7578V5.33203H18.9542L15 0ZM5.33203 12.3633H6.21094C7.17996 12.3633 7.96875 13.1521 7.96875 14.1211V17.511L9.14637 15.4703L11.4844 16.8204V14.1211C11.4844 11.2131 9.11889 8.84766 6.21094 8.84766H5.33203V6.65039L0 10.6055L5.33203 14.5605V12.3633Z" fill="#386BB7"/>
<path d="M15 23.7891C15.4854 23.7891 15.8789 23.3956 15.8789 22.9102C15.8789 22.4247 15.4854 22.0312 15 22.0312C14.5146 22.0312 14.1211 22.4247 14.1211 22.9102C14.1211 23.3956 14.5146 23.7891 15 23.7891Z" fill="#386BB7"/>
<path d="M20.2089 17.8719L18.4047 18.9139C17.9103 18.4933 17.3559 18.1723 16.7568 17.9595V15.8789H13.2412V17.9595C12.6412 18.1723 12.0868 18.4933 11.5941 18.9139L9.78906 17.8719L8.03125 20.9172L9.82252 21.9514C9.76504 22.2639 9.72555 22.5814 9.72555 22.9102C9.72555 23.2389 9.76504 23.5573 9.82252 23.8689L8.03125 24.9031L9.78906 27.9484L11.5932 26.9064C12.0876 27.327 12.6421 27.648 13.2412 27.8609V30H16.7568V27.8609C17.3567 27.648 17.9112 27.327 18.4039 26.9064L20.2089 27.9484L21.9667 24.9031L20.1754 23.8689C20.2329 23.5564 20.2724 23.2389 20.2724 22.9102C20.2724 22.5814 20.2329 22.263 20.1754 21.9514L21.9667 20.9172L20.2089 17.8719ZM14.999 25.5469C13.545 25.5469 12.3623 24.3641 12.3623 22.9102C12.3623 21.4562 13.545 20.2734 14.999 20.2734C16.4529 20.2734 17.6357 21.4562 17.6357 22.9102C17.6357 24.3641 16.4529 25.5469 14.999 25.5469Z" fill="#386BB7"/>
</svg>
