<svg width="30" height="30" viewBox="0 0 30 30" fill="none" xmlns="http://www.w3.org/2000/svg">
<path d="M20.2227 11.0625H22.8125C22.7422 13.1895 21.8105 15.2051 20.2227 16.6289C19.373 17.3965 18.8867 18.4863 18.8867 19.6113V20.3145H15.2773V16.4355H16.0508C16.8535 16.4355 17.5039 15.7852 17.5039 14.9824C17.5039 14.5957 17.3516 14.2266 17.082 13.957C16.8125 13.6875 16.4492 13.5352 16.0566 13.5352H15.2832V11.0566H17.8965C18.0547 11.0566 18.1836 10.9277 18.1836 10.7695V9.70898C18.1836 9.47461 18.2715 9.25195 18.4355 9.08789C18.5996 8.92383 18.8164 8.83594 19.0566 8.83594C19.5371 8.83594 19.9355 9.22852 19.9355 9.71484V10.7754C19.9355 10.9336 20.0645 11.0625 20.2227 11.0625Z" fill="#FDB600"/>
<path d="M22.8125 10.4883H20.5098V9.71484C20.5098 8.91211 19.8594 8.26172 19.0566 8.26172C18.6699 8.26172 18.3008 8.41406 18.0312 8.68359C17.7617 8.95312 17.6094 9.31641 17.6094 9.70898V10.4824H15.2832V7.86328C15.2832 7.70508 15.1543 7.57617 14.9961 7.57617H13.9355C13.4551 7.57617 13.0566 7.18359 13.0566 6.69727C13.0566 6.46289 13.1445 6.24023 13.3086 6.07617C13.4727 5.91211 13.6895 5.82422 13.9297 5.82422H14.9902C15.1484 5.82422 15.2773 5.69531 15.2773 5.53711V2.97656C17.1875 3.04102 18.9805 3.79102 20.3809 5.11523C21.875 6.53906 22.7305 8.43164 22.8125 10.4883ZM19.6953 21.1523V22.1309C19.6953 22.2773 19.5781 22.3945 19.4316 22.3945H10.584C10.5078 22.3945 10.4434 22.3711 10.3906 22.3184C10.3437 22.2715 10.3203 22.207 10.3203 22.1367V21.1582C10.3203 21.0117 10.4375 20.8945 10.584 20.8945V20.8887H19.1152C19.1328 20.8945 19.1504 20.8945 19.1738 20.8945C19.1914 20.8945 19.2148 20.8945 19.2324 20.8887H19.4316C19.5781 20.8887 19.6953 21.0059 19.6953 21.1523ZM18.875 22.9688V23.6426C18.875 24.1699 18.4473 24.5977 17.9199 24.5977H12.0723C11.8203 24.5977 11.5801 24.5098 11.4043 24.334C11.2227 24.1582 11.123 23.9121 11.123 23.6426V22.9688H18.875ZM12.8633 25.1719H17.1055C16.9648 26.2148 16.0684 27.0234 14.9844 27.0234C13.9004 27.0234 13.0039 26.2148 12.8633 25.1719Z" fill="#FDB600"/>
<path d="M14.7109 8.15039V10.4824H11.9805C11.8223 10.4824 11.6934 10.6113 11.6934 10.7695V11.8301C11.6934 12.3105 11.3008 12.709 10.8145 12.709C10.5801 12.709 10.3574 12.6211 10.1934 12.457C10.0293 12.293 9.94141 12.0762 9.94141 11.8359V10.7754C9.94141 10.6172 9.8125 10.4883 9.6543 10.4883H7.1875C7.33398 6.48633 10.5625 3.20508 14.5762 2.98828C14.6172 2.98828 14.6641 2.98242 14.7051 2.98242V5.25H13.9316C13.5449 5.25 13.1758 5.40234 12.9063 5.67188C12.6367 5.94141 12.4844 6.30469 12.4844 6.69727C12.4844 7.5 13.1348 8.15039 13.9375 8.15039H14.7109Z" fill="#FDB600"/>
<path d="M16.6797 14.3614C16.8438 14.5255 16.9316 14.7422 16.9316 14.9825C16.9316 15.4688 16.5391 15.8672 16.0527 15.8672H14.9922C14.834 15.8672 14.7051 15.9962 14.7051 16.1544V20.3145H11.125V19.5294C11.125 18.4278 10.6621 17.3907 9.85938 16.6876C8.21289 15.252 7.25781 13.2305 7.1875 11.0626H9.36719V11.836C9.36719 12.2227 9.51953 12.5919 9.78906 12.8614C10.0586 13.1309 10.4219 13.2833 10.8145 13.2833C11.6113 13.2833 12.2676 12.627 12.2676 11.8301V11.0567H14.7109V13.8223C14.7109 13.9805 14.8398 14.1094 14.998 14.1094H16.0586C16.293 14.1094 16.5156 14.1973 16.6797 14.3614ZM26.2715 10.4825C26.4297 10.4825 26.5586 10.6114 26.5586 10.7696C26.5586 10.9278 26.4297 11.0567 26.2715 11.0567H24.6719C24.5137 11.0567 24.3848 10.9278 24.3848 10.7696C24.3848 10.6114 24.5137 10.4825 24.6719 10.4825H26.2715ZM25.7969 13.2364C25.9492 13.2891 26.0254 13.4532 25.9727 13.5997C25.9316 13.7169 25.8203 13.793 25.7031 13.793C25.6738 13.793 25.6387 13.7872 25.6094 13.7755L24.1387 13.2715C23.9863 13.2188 23.9102 13.0547 23.9629 12.9083C24.0156 12.7618 24.1797 12.6797 24.3262 12.7325L25.7969 13.2364ZM25.9668 7.93951C26.0195 8.09186 25.9375 8.25006 25.791 8.30279L24.3203 8.8067C24.291 8.82428 24.2617 8.82428 24.2266 8.82428C24.1094 8.82428 23.998 8.74811 23.957 8.63092C23.9043 8.47858 23.9863 8.32037 24.1328 8.26764L25.6035 7.76373C25.7559 7.711 25.9141 7.79303 25.9668 7.93951ZM5.86328 8.26764C6.01562 8.32037 6.0918 8.48444 6.03906 8.63092C5.99805 8.75397 5.88672 8.82428 5.76953 8.82428C5.74023 8.82428 5.70508 8.81842 5.67578 8.8067L4.20508 8.30279C4.05273 8.25006 3.97656 8.086 4.0293 7.93951C4.08203 7.78717 4.24609 7.711 4.39258 7.76373L5.86328 8.26764ZM6.0332 12.9083C6.08594 13.0606 6.00391 13.2188 5.85742 13.2715L4.38672 13.7755C4.35742 13.7872 4.32813 13.793 4.29297 13.793C4.17578 13.793 4.06445 13.7169 4.02344 13.5997C3.9707 13.4473 4.05273 13.2891 4.19922 13.2364L5.66992 12.7325C5.82227 12.6797 5.98047 12.7618 6.0332 12.9083ZM5.32422 10.4825C5.48242 10.4825 5.61133 10.6114 5.61133 10.7696C5.60547 10.9278 5.47656 11.0567 5.31836 11.0567H3.72461C3.56641 11.0567 3.4375 10.9278 3.4375 10.7696C3.4375 10.6114 3.56641 10.4825 3.72461 10.4825H5.32422Z" fill="#FDB600"/>
</svg>
