<svg width="30" height="30" viewBox="0 0 30 30" fill="none" xmlns="http://www.w3.org/2000/svg">
<g clip-path="url(#clip0_776_3943)">
<path d="M11.9112 15.2272C11.9567 15.2272 11.9567 15.2727 11.9567 15.2727L16.8658 10.3636L16.8203 10.3181L11.1839 4.68175C11.1385 4.68175 11.1385 4.6363 11.1385 4.6363L6.2294 9.54539L6.27486 9.59084L11.9112 15.2272ZM8.04759 19.0908C8.54759 19.5908 9.41122 19.5908 9.95668 19.0908C10.1385 18.7272 12.6385 17.2272 11.2749 15.8636L5.63849 10.2272C5.09304 9.72721 4.27486 9.72721 3.7294 10.2272L2.41122 11.5454C1.91122 12.0454 1.91122 12.909 2.41122 13.4545L8.04759 19.0908ZM17.4567 9.68175C17.9567 10.1818 18.8203 10.1818 19.3658 9.68175L20.684 8.36357C21.2294 7.81812 21.184 6.99993 20.684 6.45448L15.0476 0.818115C14.5476 0.318115 13.6839 0.318115 13.1385 0.818115L11.8203 2.18175C11.3203 2.68175 11.3203 3.54539 11.8203 4.09084L17.4567 9.68175ZM28.3658 23.1818L16.4567 12.0908L13.6839 14.8636L24.7749 26.8181C25.7294 27.8636 27.4112 27.9545 28.4567 26.8636C29.5021 25.8181 29.4567 24.1818 28.3658 23.1818ZM16.7749 25.8181C16.9567 25.5454 17.0476 25.2272 17.0476 24.909C17.0476 24.0454 16.3658 23.3181 15.5476 23.3181H4.27486C3.45668 23.3181 2.77486 23.9999 2.77486 24.909C2.77486 25.2727 2.86577 25.5908 3.04759 25.8181C1.7294 26.3181 0.820312 27.5908 0.820312 29.0908C0.820312 29.3181 1.00213 29.5454 1.27486 29.5454H18.593C18.8203 29.5454 19.0476 29.3181 19.0476 29.0908C19.0021 27.5908 18.093 26.3181 16.7749 25.8181Z" fill="#FF4D69"/>
</g>
<defs>
<clipPath id="clip0_776_3943">
<rect width="30" height="30" fill="white"/>
</clipPath>
</defs>
</svg>
