<svg width="30" height="30" viewBox="0 0 30 30" fill="none" xmlns="http://www.w3.org/2000/svg">
<path d="M9.63984 16.3521C9.77109 16.8724 9.97734 17.3697 10.2525 17.83C10.3297 17.9582 10.3618 18.1084 10.3437 18.2569C10.3256 18.4054 10.2583 18.5436 10.1527 18.6494L9.46359 19.3385L10.657 20.5319L11.3461 19.8429C11.4518 19.7371 11.5899 19.6698 11.7383 19.6517C11.8868 19.6336 12.037 19.6657 12.165 19.743C12.6253 20.0183 13.1234 20.2247 13.6434 20.3557C13.942 20.4307 14.1511 20.6974 14.1511 21.0044V21.9794H15.8395V21.0049C15.8397 20.8554 15.8899 20.7102 15.982 20.5925C16.0742 20.4748 16.203 20.3913 16.3481 20.3552C16.8678 20.2242 17.3654 20.0178 17.8252 19.7425C17.9535 19.6653 18.104 19.6332 18.2527 19.6515C18.4014 19.6697 18.5397 19.7373 18.6455 19.8433L19.3336 20.5314L20.5275 19.338L19.8384 18.6489C19.7325 18.543 19.6652 18.4047 19.6471 18.256C19.629 18.1073 19.6612 17.9569 19.7386 17.8286C20.0136 17.3689 20.2198 16.8715 20.3508 16.3521C20.387 16.207 20.4707 16.0782 20.5884 15.986C20.7062 15.8939 20.8514 15.8437 21.0009 15.8435H21.9745V14.156H21.0009C20.8514 14.1557 20.7062 14.1056 20.5884 14.0134C20.4707 13.9213 20.387 13.7925 20.3508 13.6474C20.2195 13.1271 20.0133 12.6302 19.7381 12.1699C19.661 12.0417 19.6289 11.8915 19.647 11.743C19.6651 11.5945 19.7323 11.4564 19.838 11.3505L20.527 10.6614L19.3336 9.46801L18.6445 10.1571C18.5387 10.2626 18.4006 10.3298 18.2523 10.3479C18.1039 10.366 17.9537 10.334 17.8256 10.2569C17.3654 9.98163 16.8673 9.77522 16.3472 9.64426C16.2023 9.60829 16.0735 9.52489 15.9815 9.40734C15.8894 9.28979 15.8393 9.14483 15.8391 8.99551V8.02051H14.1506V8.99457C14.1504 9.14407 14.1003 9.28922 14.0081 9.40694C13.916 9.52466 13.7871 9.60819 13.642 9.64426C13.1227 9.77551 12.6253 9.98129 12.165 10.2569C12.0367 10.3338 11.8865 10.3656 11.7381 10.3475C11.5897 10.3293 11.4516 10.2621 11.3456 10.1566L10.6566 9.46754L9.46266 10.6614L10.1517 11.3505C10.2576 11.4564 10.325 11.5948 10.3431 11.7434C10.3612 11.8921 10.329 12.0426 10.2516 12.1708C9.97661 12.6305 9.77036 13.128 9.63937 13.6474C9.60314 13.7925 9.5195 13.9213 9.40171 14.0134C9.28393 14.1056 9.13876 14.1557 8.98922 14.156H8.01562V15.8435H8.98922C9.29625 15.8435 9.56344 16.0525 9.63937 16.3516L9.63984 16.3521ZM14.9953 10.908C17.2519 10.908 19.088 12.7441 19.088 15.0007C19.0909 16.0735 18.6697 17.104 17.9161 17.8675C17.5423 18.2508 17.0964 18.5563 16.6041 18.7665C16.1117 18.9767 15.5827 19.0875 15.0473 19.0924H14.9953C14.9662 19.0924 14.9358 19.0919 14.9062 19.0896C13.8562 19.0788 12.8372 18.6438 12.0741 17.8661C11.3205 17.1027 10.8993 16.0724 10.9022 14.9997C10.9022 12.7432 12.7387 10.9071 14.9953 10.9071V10.908Z" fill="#386BB7"/>
<path d="M8.00125 24.4717C9.93062 26.0856 12.2852 27.3076 14.9997 28.1054C17.7109 27.3071 20.0631 26.0851 21.9925 24.4707C25.2044 21.7703 27.0475 17.6954 27.0475 13.292V4.17715C19.9886 4.90137 16.0647 2.69871 14.9997 1.9834C13.9333 2.69824 10.0028 4.89996 2.94531 4.17715V13.292C2.94531 17.6954 4.78844 21.7703 8.00125 24.4717ZM7.07969 13.8906C7.07969 13.5203 7.38156 13.2189 7.75188 13.2189H8.78547C8.92043 12.749 9.10819 12.296 9.34516 11.8684L8.61391 11.1371C8.48804 11.0111 8.4173 10.8403 8.41722 10.6622C8.41713 10.484 8.4877 10.3132 8.61344 10.187L10.1828 8.61762C10.435 8.36449 10.8784 8.36262 11.133 8.61762L11.8647 9.34887C12.292 9.11161 12.7449 8.92383 13.2147 8.78918V7.75512C13.2147 7.38481 13.5166 7.0834 13.8869 7.0834H16.1059C16.4763 7.0834 16.7781 7.38481 16.7781 7.75512V8.78918C17.2478 8.92418 17.7006 9.11168 18.1281 9.34887L18.8594 8.61762C19.1144 8.36215 19.5569 8.36449 19.8105 8.61809L21.3789 10.1865C21.6409 10.449 21.6409 10.8756 21.3789 11.1367L20.6477 11.8679C20.8848 12.2964 21.0723 12.7492 21.2073 13.2189H22.2409C22.6113 13.2189 22.9131 13.5203 22.9131 13.8906V16.1096C22.9131 16.48 22.6113 16.7814 22.2409 16.7814H21.2073C21.0728 17.2513 20.8851 17.7043 20.6481 18.1318L21.3794 18.8631C21.6414 19.1251 21.6414 19.5507 21.3798 19.8132L19.8105 21.3826C19.5578 21.6353 19.1144 21.6371 18.8603 21.3826L18.1286 20.6514C17.7011 20.8886 17.2483 21.0761 16.7786 21.2111V22.2451C16.7786 22.6154 16.4767 22.9168 16.1064 22.9168H13.8873C13.517 22.9168 13.2152 22.6154 13.2152 22.2451V21.2111C12.7454 21.0764 12.2924 20.8886 11.8652 20.6514L11.1339 21.3826C10.8784 21.6376 10.4355 21.6357 10.1828 21.3821L8.61438 19.8137C8.48857 19.6876 8.41792 19.5168 8.41792 19.3386C8.41792 19.1605 8.48857 18.9897 8.61438 18.8636L9.34562 18.1323C9.10862 17.7046 8.92101 17.2514 8.78641 16.7814H7.75234C7.38203 16.7814 7.08016 16.48 7.08016 16.1096V13.8906H7.07969Z" fill="#386BB7"/>
<path d="M14.9586 18.1543L15.0256 18.624L15.012 18.1553C15.8783 18.1445 16.6634 17.8093 17.2517 17.2098C17.8323 16.6212 18.1566 15.8269 18.1541 15.0001C18.1541 13.2601 16.7384 11.845 14.9989 11.845C13.2594 11.845 11.8438 13.2606 11.8438 15.0001C11.8438 15.8326 12.1639 16.6173 12.7461 17.2093C13.0343 17.5051 13.3781 17.7409 13.7579 17.9031C14.1376 18.0653 14.5457 18.1507 14.9586 18.1543Z" fill="#386BB7"/>
</svg>
