<svg width="28" height="28" viewBox="0 0 28 28" fill="none" xmlns="http://www.w3.org/2000/svg">
<path d="M16.3172 15.1334L16.1719 14.5508H19.4531L19.3078 15.1334C19.2824 15.2348 19.2239 15.3248 19.1415 15.3891C19.0591 15.4534 18.9576 15.4883 18.8531 15.4883H16.7719C16.6674 15.4883 16.5659 15.4534 16.4835 15.3891C16.4011 15.3248 16.3426 15.2348 16.3172 15.1334ZM20.625 12.6758V11.2695H15V12.6758C15 12.9244 15.0988 13.1629 15.2746 13.3387C15.4504 13.5145 15.6889 13.6133 15.9375 13.6133H19.6875C19.9361 13.6133 20.1746 13.5145 20.3504 13.3387C20.5262 13.1629 20.625 12.9244 20.625 12.6758ZM27.1875 5.17578H25.3125C25.1882 5.17578 25.069 5.22517 24.981 5.31308C24.8931 5.40098 24.8438 5.52021 24.8438 5.64453C24.8438 5.76885 24.8931 5.88808 24.981 5.97599C25.069 6.0639 25.1882 6.11328 25.3125 6.11328H27.1875C27.3118 6.11328 27.431 6.0639 27.519 5.97599C27.6069 5.88808 27.6562 5.76885 27.6562 5.64453C27.6562 5.52021 27.6069 5.40098 27.519 5.31308C27.431 5.22517 27.3118 5.17578 27.1875 5.17578ZM24.8442 2.83203C24.9367 2.8321 25.0271 2.80469 25.1039 2.75328L26.5102 1.81578C26.5614 1.78162 26.6054 1.7377 26.6396 1.68654C26.6738 1.63537 26.6977 1.57797 26.7097 1.5176C26.7218 1.45722 26.7218 1.39507 26.7099 1.33468C26.6979 1.27428 26.6742 1.21684 26.64 1.16563C26.6058 1.11441 26.5619 1.07043 26.5108 1.03618C26.4596 1.00194 26.4022 0.978109 26.3418 0.966052C26.2814 0.953995 26.2193 0.953947 26.1589 0.965911C26.0985 0.977876 26.0411 1.00162 25.9898 1.03578L24.5836 1.97328C24.4999 2.02912 24.4363 2.11043 24.4024 2.20518C24.3684 2.29994 24.3659 2.4031 24.3951 2.49941C24.4243 2.59573 24.4838 2.68007 24.5647 2.73998C24.6455 2.79988 24.7436 2.83216 24.8442 2.83203ZM25.9898 10.2533C26.0933 10.3223 26.2199 10.3474 26.3418 10.323C26.4637 10.2987 26.571 10.2269 26.64 10.1234C26.709 10.02 26.7341 9.8934 26.7097 9.77147C26.6854 9.64954 26.6136 9.54228 26.5102 9.47328L25.1039 8.53578C25.0005 8.46678 24.8739 8.4417 24.7519 8.46605C24.63 8.4904 24.5227 8.56219 24.4538 8.66563C24.3848 8.76906 24.3597 8.89567 24.384 9.0176C24.4084 9.13952 24.4802 9.24678 24.5836 9.31578L25.9898 10.2533ZM10.5211 2.75328C10.6245 2.82228 10.7511 2.84736 10.8731 2.82301C10.995 2.79866 11.1023 2.72687 11.1713 2.62344C11.2402 2.52 11.2653 2.3934 11.241 2.27147C11.2166 2.14954 11.1448 2.04228 11.0414 1.97328L9.63516 1.03578C9.58394 1.00162 9.5265 0.977876 9.46611 0.965911C9.40572 0.953947 9.34356 0.953995 9.28319 0.966052C9.22281 0.978109 9.16541 1.00194 9.11424 1.03618C9.06308 1.07043 9.01916 1.11441 8.985 1.16563C8.95084 1.21684 8.92709 1.27428 8.91513 1.33468C8.90317 1.39507 8.90321 1.45722 8.91527 1.5176C8.92733 1.57797 8.95116 1.63537 8.9854 1.68654C9.01964 1.7377 9.06363 1.78162 9.11484 1.81578L10.5211 2.75328ZM10.5211 8.53578L9.11484 9.47328C9.06363 9.50745 9.01964 9.55136 8.9854 9.60253C8.95116 9.65369 8.92733 9.7111 8.91527 9.77147C8.90321 9.83184 8.90317 9.894 8.91513 9.95439C8.92709 10.0148 8.95084 10.0722 8.985 10.1234C9.01916 10.1747 9.06308 10.2186 9.11424 10.2529C9.16541 10.2871 9.22281 10.311 9.28319 10.323C9.34356 10.3351 9.40572 10.3351 9.46611 10.3232C9.5265 10.3112 9.58394 10.2874 9.63516 10.2533L11.0414 9.31578C11.1448 9.24678 11.2166 9.13952 11.241 9.0176C11.2653 8.89567 11.2402 8.76906 11.1713 8.66563C11.1023 8.56219 10.995 8.4904 10.8731 8.46605C10.7511 8.4417 10.6245 8.46678 10.5211 8.53578ZM8.4375 6.11328H10.3125C10.4368 6.11328 10.556 6.0639 10.644 5.97599C10.7319 5.88808 10.7812 5.76885 10.7812 5.64453C10.7812 5.52021 10.7319 5.40098 10.644 5.31308C10.556 5.22517 10.4368 5.17578 10.3125 5.17578H8.4375C8.31318 5.17578 8.19395 5.22517 8.10604 5.31308C8.01814 5.40098 7.96875 5.52021 7.96875 5.64453C7.96875 5.76885 8.01814 5.88808 8.10604 5.97599C8.19395 6.0639 8.31318 6.11328 8.4375 6.11328ZM14.7328 10.332H17.3438V7.71359L15.6061 5.97594C15.5207 5.88753 15.4735 5.76912 15.4745 5.64622C15.4756 5.52331 15.5249 5.40575 15.6118 5.31884C15.6987 5.23193 15.8163 5.18263 15.9392 5.18156C16.0621 5.18049 16.1805 5.22774 16.2689 5.31313L17.8125 6.85672L19.3561 5.31313C19.4445 5.22774 19.5629 5.18049 19.6858 5.18156C19.8087 5.18263 19.9263 5.23193 20.0132 5.31884C20.1001 5.40575 20.1494 5.52331 20.1505 5.64622C20.1515 5.76912 20.1043 5.88753 20.0189 5.97594L18.2812 7.71359V10.332H20.8922C21.9059 9.66878 22.6784 8.69599 23.0948 7.55839C23.5112 6.42078 23.5492 5.17914 23.2031 4.01821C22.8571 2.85727 22.1455 1.83906 21.1742 1.11508C20.203 0.391086 19.0239 0 17.8125 0C16.6011 0 15.422 0.391086 14.4508 1.11508C13.4795 1.83906 12.7679 2.85727 12.4219 4.01821C12.0758 5.17914 12.1138 6.42078 12.5302 7.55839C12.9466 8.69599 13.7191 9.66878 14.7328 10.332ZM25.125 19.107L18.7594 20.5555C18.755 21.0596 18.6199 21.5539 18.3672 21.9901C18.1145 22.4263 17.753 22.7895 17.3179 23.0441C16.8828 23.2988 16.3891 23.4361 15.8851 23.4427C15.381 23.4494 14.8838 23.3251 14.4422 23.082L9.02812 20.1195C8.91959 20.059 8.83942 19.958 8.80517 19.8385C8.77091 19.719 8.78534 19.5909 8.84531 19.482C8.87439 19.428 8.91386 19.3803 8.96147 19.3416C9.00907 19.3029 9.06386 19.274 9.12269 19.2565C9.18151 19.2391 9.2432 19.2335 9.3042 19.24C9.3652 19.2465 9.42431 19.2651 9.47812 19.2945L14.8922 22.2617C15.3277 22.5004 15.8369 22.5667 16.319 22.4476C16.8011 22.3285 17.2208 22.0326 17.495 21.6186C17.7692 21.2046 17.8779 20.7027 17.7996 20.2124C17.7212 19.722 17.4615 19.279 17.0719 18.9711L11.5922 14.6258C10.7635 13.9703 9.73786 13.6135 8.68125 13.6133H4.6875V22.5195L12.8344 26.593C13.6613 27.0061 14.5747 27.2165 15.499 27.2067C16.4233 27.1969 17.332 26.9672 18.15 26.5367L26.2875 22.2523C26.6486 22.0599 26.9277 21.7431 27.0731 21.3607C27.2186 20.9783 27.2206 20.5562 27.0788 20.1724C26.9369 19.7886 26.6609 19.4692 26.3017 19.2734C25.9424 19.0775 25.5244 19.0184 25.125 19.107ZM2.8125 12.207H0V24.3945H2.8125C3.06114 24.3945 3.2996 24.2958 3.47541 24.1199C3.65123 23.9441 3.75 23.7057 3.75 23.457V13.1445C3.75 12.8959 3.65123 12.6574 3.47541 12.4816C3.2996 12.3058 3.06114 12.207 2.8125 12.207Z" fill="#FDB600"/>
</svg>
