<svg width="27" height="19" viewBox="0 0 27 19" fill="none" xmlns="http://www.w3.org/2000/svg">
<path fill-rule="evenodd" clip-rule="evenodd" d="M13.1437 0C7.46432 0 2.56025 5.17875 0.604629 7.62188L0.599942 7.62844C0.211102 8.1237 -0.000169894 8.73518 1.02508e-07 9.36485C0.000170099 9.99452 0.211772 10.6059 0.600879 11.1009L0.605567 11.1075C2.56025 13.5506 7.46338 18.7294 13.1437 18.7294C18.8231 18.7294 23.7271 13.5506 25.6818 11.1075L25.6874 11.1009C26.0763 10.6057 26.2876 9.99419 26.2874 9.36453C26.2872 8.73486 26.0756 8.12349 25.6865 7.62844L25.6818 7.62281C23.7271 5.17875 18.8231 0 13.1437 0ZM10.8121 6.39094C11.3666 5.96173 12.0303 5.69655 12.7279 5.62549C13.4255 5.55443 14.1291 5.68033 14.7587 5.98891C15.3884 6.29749 15.919 6.77639 16.2902 7.37127C16.6614 7.96614 16.8585 8.65317 16.859 9.35438C16.859 11.4244 15.179 13.1044 13.109 13.1044C11.039 13.1044 9.359 11.4244 9.359 9.35438C9.359 9.10573 9.26023 8.86728 9.08442 8.69146C8.9086 8.51565 8.67015 8.41688 8.4215 8.41688C8.17286 8.41688 7.93441 8.51565 7.75859 8.69146C7.58278 8.86728 7.484 9.10573 7.484 9.35438C7.484 12.4584 10.0049 14.9794 13.109 14.9794C16.2131 14.9794 18.734 12.4584 18.734 9.35438C18.734 6.25031 16.2131 3.72938 13.109 3.72938C11.8106 3.72938 10.6143 4.17 9.66182 4.90969C9.46539 5.06223 9.33761 5.28655 9.30657 5.53331C9.27554 5.78007 9.34381 6.02904 9.49635 6.22547C9.64889 6.4219 9.87321 6.54968 10.12 6.58071C10.3667 6.61174 10.6157 6.54348 10.8121 6.39094Z" fill="#17D262"/>
</svg>
