<svg width="30" height="30" viewBox="0 0 30 30" fill="none" xmlns="http://www.w3.org/2000/svg">
<path fill-rule="evenodd" clip-rule="evenodd" d="M24.2019 18.126V21.6104C24.2019 25.087 21.3574 27.9315 17.8808 27.9315C14.8834 27.9315 12.3563 25.8171 11.7164 23.0063C11.7142 22.9973 11.7145 22.9879 11.7172 22.9791C11.7198 22.9703 11.7248 22.9624 11.7315 22.9561C11.7381 22.9496 11.7463 22.945 11.7552 22.9428C11.7642 22.9406 11.7736 22.9408 11.7824 22.9434C12.3807 23.1102 13.0178 23.0692 13.5897 22.8269C13.6041 22.8207 13.6188 22.821 13.633 22.8277C13.6471 22.8344 13.6567 22.8456 13.6612 22.8605C14.2033 24.6774 15.8937 26.012 17.8807 26.012C20.3016 26.012 22.2824 24.0312 22.2824 21.6104V18.126C22.2824 18.112 22.2768 18.0985 22.2668 18.0886C22.2569 18.0786 22.2434 18.073 22.2294 18.073H20.1445C20.1241 18.073 20.1066 18.0623 20.0973 18.044C20.088 18.0258 20.0896 18.0053 20.1016 17.9888L23.1993 13.7303C23.2096 13.7162 23.2246 13.7085 23.2422 13.7085C23.2597 13.7085 23.2747 13.7162 23.2851 13.7303L26.3827 17.9888C26.3947 18.0053 26.3964 18.0258 26.3871 18.044C26.3778 18.0623 26.3602 18.073 26.3398 18.073H24.255C24.2409 18.073 24.2274 18.0786 24.2175 18.0886C24.2075 18.0985 24.2019 18.112 24.2019 18.126ZM14.2621 17.5753H10.1673C10.0805 17.5753 9.97706 17.6246 9.97706 17.6942V18.2697C9.97706 18.3393 10.0806 18.3886 10.1673 18.3886H14.8717C14.9584 18.3886 15.0619 18.3394 15.0619 18.2697V17.6942C15.0619 17.6246 14.9584 17.5753 14.8717 17.5753H14.2621ZM14.1582 19.1844H10.5588C10.4865 19.1844 10.4003 19.2336 10.4003 19.3032V19.8788C10.4003 19.9484 10.4866 19.9977 10.5588 19.9977H14.4801C14.5524 19.9977 14.6387 19.9484 14.6387 19.8788V19.3032C14.6387 19.2337 14.5524 19.1844 14.4801 19.1844H14.1582ZM14.9252 16.781C15.7305 13.6146 17.5738 12.3954 17.5738 10.0022C17.5738 7.21072 15.3109 4.94782 12.5195 4.94782C9.72806 4.94782 7.4651 7.21072 7.4651 10.0022C7.4651 12.3851 9.29246 13.6041 10.1032 16.74C10.1061 16.7517 10.1129 16.762 10.1225 16.7692C10.1321 16.7765 10.1439 16.7802 10.1559 16.7798L10.1665 16.7795H10.7902C10.8035 16.7795 10.8164 16.7745 10.8262 16.7654C10.836 16.7564 10.842 16.7439 10.843 16.7306L11.2641 11.3552C11.2653 11.3399 11.2606 11.3263 11.2502 11.3151C11.2398 11.3039 11.2266 11.298 11.2113 11.298H10.912V11.2973C10.9033 11.2973 10.8945 11.297 10.8856 11.2965C9.06242 11.1728 9.13249 9.13948 10.3702 8.73322C10.8583 8.57296 11.3952 8.71636 11.7118 9.1468C11.9713 9.4996 12.0693 9.99658 12.093 10.4519C12.0945 10.4801 12.1177 10.5022 12.146 10.5022H12.8931C12.9067 10.5022 12.9197 10.497 12.9296 10.4876C12.9395 10.4783 12.9453 10.4655 12.946 10.4519C12.9834 9.73306 13.2045 8.914 13.962 8.71036C14.7289 8.5042 15.5414 9.0778 15.5625 9.96682C15.5706 10.3107 15.4501 10.6595 15.1569 10.9202C14.9334 11.1189 14.6141 11.2599 14.1819 11.2943L14.1782 11.2944L13.8273 11.2974C13.82 11.2974 13.8127 11.2989 13.8061 11.3019C13.7994 11.3048 13.7935 11.3092 13.7886 11.3147C13.7836 11.32 13.7798 11.3263 13.7774 11.3331C13.775 11.34 13.7741 11.3474 13.7748 11.3546L14.196 16.7306C14.197 16.7439 14.203 16.7563 14.2128 16.7654C14.2226 16.7744 14.2355 16.7795 14.2488 16.7795L14.9149 16.7804L14.9173 16.7804L14.9252 16.781ZM11.6938 16.7795H13.3451C13.3605 16.7795 13.3736 16.7738 13.384 16.7625C13.3945 16.7512 13.3992 16.7376 13.398 16.7223L12.9768 11.3469C12.9758 11.3336 12.9698 11.3212 12.96 11.3121C12.9502 11.3031 12.9373 11.298 12.924 11.298H12.115C12.1016 11.298 12.0887 11.3031 12.0789 11.3121C12.0691 11.3212 12.0631 11.3336 12.0621 11.3469L11.641 16.7223C11.6398 16.7376 11.6445 16.7512 11.6549 16.7625C11.6653 16.7738 11.6785 16.7795 11.6938 16.7795ZM11.2978 10.4459C11.2988 10.4611 11.2939 10.4745 11.2836 10.4855C11.2732 10.4966 11.2601 10.5023 11.2449 10.5023H10.9195C10.9181 10.5023 10.9167 10.5022 10.9152 10.5021C10.6752 10.4825 10.5121 10.4169 10.4106 10.3266C10.1625 10.106 10.2432 9.6109 10.6157 9.48862C11.1499 9.3133 11.2719 10.0295 11.2978 10.4459ZM13.794 10.5023C13.7867 10.5024 13.7795 10.5009 13.7728 10.4981C13.7662 10.4952 13.7602 10.4909 13.7553 10.4855C13.7503 10.4803 13.7464 10.4741 13.7439 10.4673C13.7415 10.4604 13.7405 10.4532 13.741 10.4459C13.767 10.0295 13.8891 9.31324 14.4232 9.48862C14.7958 9.61096 14.8762 10.1061 14.6283 10.3266C14.5267 10.4169 14.3637 10.4825 14.1236 10.5021C14.1222 10.5022 14.1207 10.5023 14.1193 10.5023H13.794ZM14.3975 20.8622C14.4001 20.8543 14.4007 20.8459 14.3993 20.8377C14.398 20.8295 14.3946 20.8217 14.3896 20.8151C14.3847 20.8083 14.3783 20.8028 14.3709 20.799C14.3634 20.7952 14.3552 20.7933 14.3469 20.7935H10.6921C10.6747 20.7935 10.6597 20.801 10.6494 20.8151C10.639 20.8291 10.6362 20.8456 10.6414 20.8622C10.8904 21.6628 11.6398 22.2484 12.5195 22.2484C13.3991 22.2484 14.1486 21.6628 14.3975 20.8622ZM21.0316 10.5806C21.1372 10.5806 21.2384 10.6225 21.313 10.6971C21.3876 10.7717 21.4296 10.8729 21.4296 10.9785C21.4296 11.084 21.3876 11.1852 21.313 11.2599C21.2384 11.3345 21.1372 11.3764 21.0316 11.3764H19.8859C19.7804 11.3764 19.6792 11.3345 19.6046 11.2599C19.5299 11.1852 19.488 11.084 19.488 10.9785C19.488 10.8729 19.5299 10.7717 19.6046 10.6971C19.6792 10.6225 19.7804 10.5806 19.8859 10.5806H21.0316ZM4.00729 11.3764C3.90176 11.3764 3.80055 11.3345 3.72592 11.2599C3.6513 11.1852 3.60938 11.084 3.60938 10.9785C3.60938 10.8729 3.6513 10.7717 3.72592 10.6971C3.80055 10.6225 3.90176 10.5806 4.00729 10.5806H5.15299C5.25853 10.5806 5.35974 10.6225 5.43437 10.6971C5.50899 10.7717 5.55092 10.8729 5.55092 10.9785C5.55092 11.084 5.50899 11.1852 5.43437 11.2599C5.35974 11.3345 5.25853 11.3764 5.15299 11.3764H4.00729ZM6.21914 5.2408C6.14597 5.16589 6.10529 5.06517 6.1059 4.96046C6.10652 4.85575 6.14839 4.75551 6.22243 4.68147C6.29647 4.60743 6.39671 4.56557 6.50142 4.56495C6.60612 4.56433 6.70685 4.60502 6.78176 4.67818L7.59188 5.4883C7.66579 5.56305 7.70712 5.66402 7.70683 5.76915C7.70654 5.87428 7.66465 5.97502 7.59032 6.04936C7.51598 6.1237 7.41525 6.1656 7.31012 6.16591C7.20499 6.16621 7.10402 6.12489 7.02926 6.05098L6.21914 5.2408ZM12.1216 2.46628C12.1216 2.36074 12.1635 2.25953 12.2381 2.18491C12.3127 2.11028 12.414 2.06836 12.5195 2.06836C12.625 2.06836 12.7262 2.11028 12.8009 2.18491C12.8755 2.25953 12.9174 2.36074 12.9174 2.46628V3.61198C12.9174 3.71751 12.8755 3.81873 12.8009 3.89335C12.7262 3.96798 12.625 4.0099 12.5195 4.0099C12.414 4.0099 12.3127 3.96798 12.2381 3.89335C12.1635 3.81873 12.1216 3.71751 12.1216 3.61198V2.46628ZM18.2571 4.67812C18.332 4.60496 18.4327 4.56427 18.5375 4.56489C18.6422 4.56551 18.7424 4.60737 18.8164 4.68141C18.8905 4.75545 18.9323 4.85569 18.933 4.9604C18.9336 5.06511 18.8929 5.16583 18.8197 5.24074L18.0096 6.05092C17.9349 6.12483 17.8339 6.16615 17.7288 6.16585C17.6236 6.16554 17.5229 6.12364 17.4486 6.0493C17.3742 5.97496 17.3323 5.87422 17.332 5.76909C17.3317 5.66396 17.3731 5.56299 17.447 5.48824L18.2571 4.67812Z" fill="#17D262"/>
</svg>
