<svg width="30" height="30" viewBox="0 0 30 30" fill="none" xmlns="http://www.w3.org/2000/svg">
<path fill-rule="evenodd" clip-rule="evenodd" d="M8.98457 14.9997C8.98457 11.6846 11.6811 8.98702 14.9997 8.98702C18.3149 8.98702 21.0113 11.6846 21.0113 14.9997C21.0113 18.3156 18.3149 21.012 14.9997 21.012C11.681 21.012 8.98457 18.3156 8.98457 14.9997ZM1.67119 14.4261C1.46377 14.8013 1.46377 15.1982 1.67119 15.5737C4.3641 20.4095 9.4709 23.4135 14.9997 23.4135C20.525 23.4135 25.6318 20.4095 28.3247 15.5737C28.5357 15.1982 28.5357 14.8013 28.3247 14.4261C25.6318 9.59036 20.525 6.58667 14.9997 6.58667C9.4709 6.58667 4.3641 9.59036 1.67119 14.4261ZM14.9997 10.9575C12.7682 10.9575 10.955 12.7707 10.955 14.9997C10.955 17.2288 12.7681 19.0419 14.9997 19.0419C17.2277 19.0419 19.0408 17.2288 19.0408 14.9997C19.0408 12.7707 17.2277 10.9575 14.9997 10.9575Z" fill="#386BB7"/>
</svg>
