<svg width="30" height="30" viewBox="0 0 30 30" fill="none" xmlns="http://www.w3.org/2000/svg">
<g clip-path="url(#clip0_776_3043)">
<path d="M14.9993 25.6904C12.6584 25.6904 10.7539 27.6236 10.7539 29.9998H19.2446C19.2446 27.6236 17.3401 25.6904 14.9993 25.6904Z" fill="#FF4D69"/>
<path d="M16.563 22.8995C16.9191 22.0408 16.5116 21.056 15.6528 20.7C14.7941 20.3439 13.8093 20.7514 13.4533 21.6102C13.0972 22.4689 13.5047 23.4537 14.3635 23.8097C15.2222 24.1658 16.207 23.7583 16.563 22.8995Z" fill="#FF4D69"/>
<path d="M27.3235 28.4832C27.3054 28.466 25.4911 26.722 23.7029 23.4462C22.1325 20.5693 20.2742 15.9095 20.1095 9.78507H22.5C23.2672 9.78507 23.666 8.86673 23.1423 8.30617L15.6423 0.278824C15.5601 0.190831 15.4606 0.120677 15.3501 0.0727134C15.2397 0.0247497 15.1205 0 15.0001 0C14.8796 0 14.7605 0.0247497 14.65 0.0727134C14.5395 0.120677 14.4401 0.190831 14.3579 0.278824L6.85785 8.30617C6.33408 8.86673 6.73287 9.78507 7.50004 9.78507H9.89061C9.7259 15.9095 7.86754 20.5693 6.29717 23.4462C4.50906 26.722 2.69471 28.466 2.67754 28.4823C2.54966 28.6031 2.46101 28.7596 2.42305 28.9314C2.38508 29.1032 2.39956 29.2824 2.46461 29.4459C2.52965 29.6094 2.64227 29.7496 2.78788 29.8483C2.9335 29.9471 3.1054 29.9999 3.28135 29.9999H8.99693C8.99693 28.3953 9.61949 26.8783 10.7499 25.7283C11.2444 25.2253 11.809 24.8206 12.4208 24.5236C11.8851 23.9168 11.5591 23.1207 11.5591 22.2495C11.5591 20.3521 13.1027 18.8085 15.0001 18.8085C16.8975 18.8085 18.4411 20.3521 18.4411 22.2495C18.4411 23.1207 18.1151 23.9167 17.5794 24.5236C18.1912 24.8206 18.7558 25.2253 19.2503 25.7284C20.3806 26.8783 21.0032 28.3953 21.0032 29.9999H26.7188C26.8945 29.9998 27.0662 29.947 27.2115 29.8484C27.357 29.7498 27.4695 29.6099 27.5345 29.4467C27.5996 29.2834 27.6143 29.1043 27.5767 28.9326C27.5391 28.7609 27.4509 28.6044 27.3235 28.4832Z" fill="#FF4D69"/>
</g>
<defs>
<clipPath id="clip0_776_3043">
<rect width="30" height="30" fill="white"/>
</clipPath>
</defs>
</svg>
