<svg width="30" height="30" viewBox="0 0 30 30" fill="none" xmlns="http://www.w3.org/2000/svg">
<path d="M7.16907 6.45681C7.16907 6.15656 7.28835 5.86862 7.50065 5.65631C7.71296 5.44401 8.0009 5.32473 8.30115 5.32473H21.6993C21.9995 5.32473 22.2875 5.44401 22.4998 5.65631C22.7121 5.86862 22.8313 6.15656 22.8313 6.45681V8.6587H24.1502V4.45304C24.1502 4.11341 23.8728 3.83605 23.5332 3.83605H13.6672C12.9936 3.83605 12.3879 3.46247 12.0823 2.86813L11.5445 1.8153C11.4313 1.6002 11.2106 1.46436 10.9672 1.46436H6.48983C6.14455 1.46436 5.86719 1.74171 5.86719 2.08134V8.6587H7.16907V6.45681Z" fill="#FDB600"/>
<path d="M8.30117 6.45679H21.6993V8.65867H8.30117V6.45679ZM25.0955 9.79075H4.90495C4.52513 9.79075 4.20419 10.1275 4.26532 10.5323L5.73136 20.4492C5.77664 20.7719 6.04834 21.0096 6.37098 21.0096H8.27287V16.6341C8.27287 15.7228 8.99174 14.9757 9.91438 14.9417C11.6578 14.8568 12.988 14.4606 13.9559 13.7247C14.2729 13.4926 14.6295 13.3738 15.0031 13.3738C15.371 13.3738 15.7276 13.4926 16.0332 13.7134C17.0125 14.4606 18.3427 14.8568 20.1031 14.9474C21.0031 14.9757 21.7219 15.7228 21.7219 16.6341V21.0096H23.6295C23.9465 21.0096 24.2238 20.7719 24.2691 20.4549L25.7351 10.5323C25.749 10.4403 25.7428 10.3464 25.717 10.2571C25.6912 10.1677 25.6464 10.085 25.5857 10.0146C25.5249 9.94413 25.4497 9.88767 25.3651 9.84904C25.2805 9.81041 25.1885 9.79053 25.0955 9.79075Z" fill="#FDB600"/>
<path d="M20.0478 16.0755C18.2195 15.9849 16.6119 15.5717 15.361 14.6264C15.1459 14.4679 14.8572 14.4679 14.6421 14.6264C13.3912 15.5717 11.7836 15.9849 9.95531 16.0755C9.64965 16.0868 9.40625 16.3359 9.40625 16.6359V21.1415C9.40625 23.1566 10.2044 25.1208 11.693 26.4849C12.9666 27.6566 14.2798 28.2793 14.7836 28.4887C14.9251 28.551 15.0779 28.551 15.2195 28.4887C15.7063 28.2849 16.9346 27.7076 18.1685 26.6151C18.1798 26.6095 18.1855 26.5925 18.1968 26.5868C19.7478 25.2227 20.5912 23.2076 20.5912 21.1359V16.6359C20.5912 16.3359 20.3534 16.0868 20.0478 16.0755ZM15.8913 21.4336C15.8341 21.4804 15.7898 21.5411 15.7626 21.6098C15.7353 21.6786 15.7261 21.7531 15.7357 21.8264C15.7991 22.243 15.9202 23.0672 15.9978 23.5959C16.0066 23.6575 16.0021 23.7204 15.9845 23.7801C15.9668 23.8398 15.9365 23.895 15.8955 23.942C15.8546 23.9889 15.804 24.0264 15.7472 24.052C15.6904 24.0775 15.6287 24.0905 15.5664 24.09H14.4366C14.3739 24.0903 14.3119 24.077 14.2549 24.0511C14.1978 24.0251 14.147 23.9871 14.106 23.9397C14.065 23.8923 14.0348 23.8365 14.0174 23.7763C14 23.716 13.9959 23.6528 14.0053 23.5908L14.2623 21.8264C14.2748 21.7547 14.2679 21.6809 14.2423 21.6128C14.2167 21.5446 14.1734 21.4845 14.1168 21.4387C13.9558 21.3072 13.8261 21.1415 13.7372 20.9536C13.6483 20.7657 13.6024 20.5604 13.6029 20.3525C13.6029 19.4315 14.5 18.7093 15.4549 19.024C15.867 19.1598 16.1964 19.4944 16.3272 19.9013C16.4182 20.1708 16.4253 20.4616 16.3474 20.7352C16.2696 21.0088 16.1106 21.2524 15.8913 21.4336Z" fill="#FDB600"/>
</svg>
