<svg width="26" height="26" viewBox="0 0 26 26" fill="none" xmlns="http://www.w3.org/2000/svg">
<path d="M15.0923 23.042H11.339C10.8545 23.042 10.4352 22.7048 10.3315 22.2315L9.91187 20.2889C9.35201 20.0436 8.82115 19.7368 8.32907 19.3743L6.43486 19.9775C5.97291 20.1248 5.47073 19.9304 5.22842 19.5104L3.34762 16.2612C3.10797 15.8411 3.19054 15.311 3.54663 14.9837L5.01601 13.6432C4.94919 13.0359 4.94919 12.4232 5.01601 11.816L3.54663 10.4786C3.19001 10.1511 3.10741 9.6204 3.34762 9.19998L5.2243 5.94879C5.4666 5.5288 5.96878 5.33437 6.43073 5.48168L8.32494 6.0849C8.57661 5.89842 8.83859 5.72629 9.10964 5.56933C9.36984 5.42259 9.63762 5.28973 9.91187 5.17131L10.3326 3.2307C10.4358 2.75737 10.8545 2.4197 11.339 2.41919H15.0923C15.5768 2.4197 15.9955 2.75737 16.0987 3.2307L16.5236 5.17234C16.8131 5.2997 17.095 5.44361 17.3681 5.60336C17.6227 5.75062 17.8688 5.91207 18.1053 6.08696L20.0006 5.48374C20.4622 5.33698 20.9638 5.53134 21.206 5.95085L23.0826 9.20204C23.3223 9.62221 23.2397 10.1523 22.8836 10.4796L21.4143 11.8201C21.4811 12.4273 21.4811 13.0401 21.4143 13.6473L22.8836 14.9878C23.2397 15.3152 23.3223 15.8452 23.0826 16.2654L21.206 19.5166C20.9638 19.9361 20.4622 20.1304 20.0006 19.9837L18.1053 19.3804C17.8655 19.5571 17.6163 19.7206 17.3588 19.8702C17.0884 20.0269 16.8096 20.1684 16.5236 20.294L16.0987 22.2315C15.9951 22.7045 15.5765 23.0416 15.0923 23.042ZM8.69925 17.0913L9.54478 17.71C9.73539 17.8504 9.93405 17.9795 10.1398 18.0967C10.3333 18.2088 10.5326 18.3106 10.7368 18.4019L11.6988 18.8236L12.1701 20.9797H14.2633L14.7345 18.8226L15.6966 18.4009C16.1166 18.2156 16.5152 17.9854 16.8855 17.7141L17.732 17.0954L19.8366 17.7657L20.8832 15.9529L19.2509 14.465L19.3664 13.4215C19.4171 12.9651 19.4171 12.5044 19.3664 12.048L19.2509 11.0045L20.8842 9.51344L19.8366 7.69967L17.732 8.36991L16.8855 7.75122C16.5151 7.4787 16.1165 7.24674 15.6966 7.05933L14.7345 6.63759L14.2633 4.48147H12.1701L11.6968 6.63862L10.7368 7.05933C10.5324 7.14908 10.3331 7.24994 10.1398 7.36145C9.93531 7.47831 9.7377 7.60672 9.54788 7.74607L8.70131 8.36475L6.59778 7.69451L5.54911 9.51344L7.18141 10.9993L7.06592 12.0439C7.01519 12.5003 7.01519 12.9609 7.06592 13.4173L7.18141 14.4609L5.54911 15.9488L6.59572 17.7615L8.69925 17.0913ZM13.2115 16.8552C10.9336 16.8552 9.08696 15.0085 9.08696 12.7306C9.08696 10.4527 10.9336 8.60604 13.2115 8.60604C15.4895 8.60604 17.3361 10.4527 17.3361 12.7306C17.3332 15.0074 15.4883 16.8523 13.2115 16.8552ZM13.2115 10.6683C12.0849 10.6695 11.1677 11.5745 11.1515 12.7011C11.1354 13.8276 12.0263 14.7586 13.1524 14.792C14.2786 14.8254 15.2231 13.9489 15.2738 12.8234V13.2359V12.7306C15.2738 11.5916 14.3505 10.6683 13.2115 10.6683Z" fill="white"/>
</svg>
