<svg width="20" height="20" viewBox="0 0 20 20" fill="none" xmlns="http://www.w3.org/2000/svg">
<path d="M10.0052 19.1735C4.85057 19.1735 0.671875 14.9948 0.671875 9.84014C0.671875 4.68554 4.85057 0.506836 10.0052 0.506836C15.1599 0.506836 19.3386 4.68554 19.3386 9.84014C19.3327 14.9924 15.1575 19.1676 10.0052 19.1735ZM10.0052 3.17351C6.32327 3.17351 3.33854 6.15824 3.33854 9.84014C3.33854 13.522 6.32327 16.5068 10.0052 16.5068C13.6871 16.5068 16.6719 13.522 16.6719 9.84014C16.6719 6.15824 13.6871 3.17351 10.0052 3.17351ZM10.0052 13.8401C7.79607 13.8401 6.00517 12.0493 6.00517 9.84014C6.00517 7.63104 7.79607 5.84014 10.0052 5.84014C12.2144 5.84014 14.0052 7.63104 14.0052 9.84014C14.0052 10.901 13.5838 11.9184 12.8337 12.6686C12.0835 13.4187 11.0661 13.8401 10.0052 13.8401Z" fill="white"/>
</svg>
