<svg width="30" height="30" viewBox="0 0 30 30" fill="none" xmlns="http://www.w3.org/2000/svg">
<path d="M28.9181 16.77V21.96C28.9181 23.52 27.7481 24.81 26.2181 24.99V27.96C26.2181 28.65 25.6481 29.22 24.9581 29.22C24.2681 29.22 23.6981 28.65 23.6981 27.96V24.99C22.1981 24.81 20.9981 23.52 20.9981 21.96V16.77C20.9981 15.18 22.1681 13.89 23.6981 13.71V2.01C23.6981 1.32 24.2681 0.75 24.9581 0.75C25.6481 0.75 26.2181 1.32 26.2181 2.01V13.71C27.7481 13.92 28.9481 15.21 28.9181 16.77ZM8.99812 16.77V21.96C8.99812 23.52 7.82812 24.81 6.29812 24.99V27.96C6.29812 28.65 5.72812 29.22 5.03812 29.22C4.34812 29.22 3.77812 28.65 3.77812 27.96V24.99C2.27812 24.81 1.07812 23.52 1.07812 21.96V16.77C1.07812 15.18 2.24812 13.89 3.77812 13.71V2.01C3.77812 1.32 4.34812 0.75 5.03812 0.75C5.72812 0.75 6.29812 1.32 6.29812 2.01V13.71C7.82812 13.92 9.02812 15.21 8.99812 16.77ZM18.9581 8.04V13.23C18.9581 14.82 17.7881 16.11 16.2581 16.29V27.99C16.2581 28.68 15.6881 29.25 14.9981 29.25C14.3081 29.25 13.7381 28.68 13.7381 27.99V16.29C12.2381 16.08 11.0381 14.79 11.0381 13.23V8.04C11.0381 6.45 12.2081 5.16 13.7381 4.98V2.01C13.7381 1.32 14.3081 0.75 14.9981 0.75C15.6881 0.75 16.2581 1.32 16.2581 2.01V4.98C17.7881 5.19 18.9881 6.48 18.9581 8.04Z" fill="#386BB7"/>
</svg>
