<svg width="30" height="30" viewBox="0 0 30 30" fill="none" xmlns="http://www.w3.org/2000/svg">
<path d="M16.5984 28.2141C16.4911 28.2143 16.387 28.1776 16.3034 28.1103C16.2199 28.0429 16.162 27.949 16.1394 27.8441C16.1168 27.7391 16.1308 27.6297 16.1792 27.5339C16.2276 27.4381 16.3074 27.3618 16.4053 27.3178C18.8691 26.2073 20.9194 24.6788 22.5005 22.7756C22.5398 22.7282 22.588 22.689 22.6425 22.6603C22.6969 22.6315 22.7565 22.6138 22.8178 22.6081C22.8791 22.6023 22.941 22.6088 22.9998 22.6269C23.0586 22.6451 23.1133 22.6747 23.1607 22.714C23.2081 22.7533 23.2473 22.8015 23.276 22.856C23.3048 22.9104 23.3225 22.97 23.3283 23.0313C23.334 23.0926 23.3276 23.1545 23.3094 23.2133C23.2912 23.2721 23.2616 23.3268 23.2223 23.3742C21.5489 25.3889 19.3856 27.0028 16.7911 28.1723C16.7306 28.1998 16.6649 28.214 16.5984 28.2141ZM27.3328 9.36094C27.2712 9.35707 27.2095 9.36541 27.1511 9.38549C27.0927 9.40557 27.0389 9.43699 26.9928 9.47794C26.9466 9.51888 26.909 9.56856 26.882 9.6241C26.8551 9.67964 26.8395 9.73995 26.8359 9.80156C26.6766 12.7125 26.2266 15.225 25.4672 17.4141C25.7812 17.4844 26.0719 17.6063 26.3344 17.775C27.1313 15.4922 27.6094 12.8766 27.7734 9.85313C27.7769 9.79187 27.7682 9.73054 27.7479 9.67264C27.7276 9.61475 27.6961 9.56142 27.6551 9.51571C27.6142 9.47 27.5647 9.4328 27.5094 9.40624C27.4541 9.37969 27.3941 9.36429 27.3328 9.36094ZM23.9859 3.5625C21.5953 3.19688 18.9328 2.46563 16.6781 1.52813C16.6218 1.50438 16.5614 1.49197 16.5002 1.49161C16.4391 1.49125 16.3785 1.50294 16.3219 1.52601C16.2653 1.54909 16.2138 1.58309 16.1704 1.62608C16.127 1.66908 16.0924 1.72021 16.0687 1.77656C15.9656 2.01563 16.0781 2.29219 16.3172 2.39063C18.6562 3.36563 21.4312 4.12969 23.9203 4.49531C23.8891 4.18291 23.9112 3.86746 23.9859 3.5625ZM26.7188 2.34375C25.6847 2.34375 24.8438 3.18469 24.8438 4.21875C24.8438 5.25281 25.6847 6.09375 26.7188 6.09375C27.7528 6.09375 28.5938 5.25281 28.5938 4.21875C28.5938 3.18469 27.7528 2.34375 26.7188 2.34375ZM24.8438 18.2813C23.8097 18.2813 22.9688 19.1222 22.9688 20.1563C22.9688 21.1903 23.8097 22.0313 24.8438 22.0313C25.8778 22.0313 26.7188 21.1903 26.7188 20.1563C26.7188 19.1222 25.8778 18.2813 24.8438 18.2813ZM13.4016 28.2141C13.5089 28.2143 13.613 28.1776 13.6966 28.1103C13.7801 28.0429 13.838 27.949 13.8606 27.8441C13.8833 27.7391 13.8692 27.6297 13.8208 27.5339C13.7724 27.4381 13.6926 27.3618 13.5947 27.3178C11.1309 26.2073 9.08063 24.6788 7.5 22.7756C7.4607 22.7282 7.41244 22.689 7.35799 22.6603C7.30354 22.6315 7.24396 22.6138 7.18265 22.6081C7.12134 22.6023 7.05951 22.6088 7.00067 22.6269C6.94184 22.6451 6.88716 22.6747 6.83977 22.714C6.79237 22.7533 6.75317 22.8015 6.72442 22.856C6.69567 22.9104 6.67793 22.97 6.67221 23.0313C6.66065 23.1552 6.69875 23.2785 6.77812 23.3742C8.45109 25.3884 10.6148 27.0028 13.2094 28.1723C13.2717 28.2005 13.3373 28.2141 13.4016 28.2141ZM2.22656 9.85313C2.39062 12.8766 2.86875 15.4922 3.66563 17.775C3.92813 17.6063 4.21875 17.4844 4.53281 17.4141C3.77344 15.225 3.32344 12.7125 3.16406 9.80156C3.16054 9.73995 3.14487 9.67964 3.11796 9.6241C3.09105 9.56856 3.05342 9.51888 3.00724 9.47794C2.96107 9.43699 2.90725 9.40557 2.84889 9.38549C2.79054 9.36541 2.72878 9.35707 2.66719 9.36094C2.40938 9.375 2.2125 9.59531 2.22656 9.85313ZM6.09375 4.21875C6.09375 4.3125 6.08906 4.40625 6.07969 4.49531C8.56875 4.12969 11.3438 3.36563 13.6828 2.39063C13.9219 2.29219 14.0344 2.01563 13.9312 1.77656C13.8328 1.54219 13.5562 1.425 13.3219 1.52813C11.0672 2.46563 8.40469 3.19688 6.01406 3.5625C6.06563 3.77344 6.09375 3.99375 6.09375 4.21875ZM1.40625 4.21875C1.40625 5.25281 2.24719 6.09375 3.28125 6.09375C4.31531 6.09375 5.15625 5.25281 5.15625 4.21875C5.15625 3.18469 4.31531 2.34375 3.28125 2.34375C2.24719 2.34375 1.40625 3.18469 1.40625 4.21875ZM3.28125 20.1563C3.28125 21.1903 4.12219 22.0313 5.15625 22.0313C6.19031 22.0313 7.03125 21.1903 7.03125 20.1563C7.03125 19.1222 6.19031 18.2813 5.15625 18.2813C4.12219 18.2813 3.28125 19.1222 3.28125 20.1563ZM15.0037 10.7883C14.5765 10.7844 14.1608 10.9276 13.8267 11.1939C13.4925 11.4602 13.2601 11.8334 13.1686 12.2508C13.005 13.0261 13.3223 13.8038 13.9781 14.2322C14.0648 14.2889 14.1303 14.3727 14.1643 14.4706C14.1983 14.5685 14.199 14.6749 14.1661 14.7731L13.3069 17.3513H16.6936L15.8339 14.7731C15.8011 14.6748 15.8018 14.5684 15.8359 14.4705C15.87 14.3727 15.9356 14.2888 16.0223 14.2322C16.284 14.0626 16.4991 13.8303 16.648 13.5563C16.7969 13.2824 16.875 12.9756 16.875 12.6638C16.875 12.0966 16.6219 11.5659 16.1813 11.2078C15.8493 10.9354 15.4332 10.787 15.0037 10.7883ZM24.5456 8.19938C24.3773 14.6527 23.1844 21.743 15.6112 25.4011C15.4195 25.4934 15.21 25.5394 15 25.5394C14.79 25.5394 14.5805 25.4934 14.3892 25.4011C6.81563 21.742 5.62266 14.6522 5.45437 8.19891C5.4459 7.86064 5.56021 7.53075 5.77616 7.27025C5.99211 7.00974 6.29509 6.83626 6.62906 6.78188C9.23531 6.36703 12.0891 5.55984 14.4595 4.56703C14.6307 4.4949 14.8145 4.45774 15.0002 4.45774C15.186 4.45774 15.3698 4.4949 15.5409 4.56703C17.9109 5.55984 20.7652 6.36703 23.3709 6.78188C23.705 6.83636 24.0079 7.00994 24.2239 7.27052C24.4398 7.5311 24.5541 7.86106 24.5456 8.19938ZM16.83 14.7961C17.1384 14.533 17.3859 14.206 17.5556 13.8379C17.7252 13.4697 17.8129 13.0691 17.8125 12.6638C17.8132 12.2453 17.7202 11.832 17.5403 11.4541C17.3604 11.0763 17.0981 10.7435 16.7728 10.4803C16.1119 9.94266 15.2461 9.73734 14.3986 9.91406C13.3392 10.1353 12.4758 10.9964 12.2517 12.0563C12.0333 13.0908 12.3905 14.1291 13.1705 14.7961L12.4172 17.0545C12.3225 17.3395 12.3703 17.6555 12.5461 17.8992C12.7219 18.143 13.0059 18.2888 13.3064 18.2888H16.6936C16.9941 18.2888 17.2786 18.1434 17.4544 17.8992C17.6302 17.6555 17.678 17.3395 17.5828 17.0545L16.83 14.7961Z" fill="#FDB600"/>
</svg>
