<svg width="30" height="30" viewBox="0 0 30 30" fill="none" xmlns="http://www.w3.org/2000/svg">
<g clip-path="url(#clip0_776_3618)">
<path fill-rule="evenodd" clip-rule="evenodd" d="M12.1999 26.7321C10.9584 26.4364 9.77211 25.9446 8.68559 25.2752L6.40201 26.2894L3.71051 23.598L4.72447 21.3151C4.05487 20.2283 3.56296 19.0416 3.26731 17.7998L0.937502 16.9031V13.0969L3.26783 12.1999C3.34691 11.8677 3.44018 11.539 3.54738 11.2147C4.25168 11.5158 5.02699 11.6827 5.84133 11.6827C6.38478 11.683 6.92561 11.6074 7.4482 11.4583L7.61713 11.6272C7.14715 12.6543 6.885 13.7964 6.885 14.9999C6.885 19.4821 10.5178 23.1149 15.0001 23.1149C16.2035 23.1149 17.3457 22.8527 18.3728 22.3828L19.7213 23.7312C19.6471 24.0843 19.6098 24.444 19.6099 24.8048C19.6099 25.2445 19.6648 25.6714 19.7677 26.0793C19.1319 26.3533 18.4736 26.5717 17.8002 26.7321L16.9031 29.0625H13.0969L12.1999 26.7321ZM15 7.86938C13.3925 7.86938 12.0893 9.17256 12.0893 10.78C12.0893 12.3875 13.3925 13.6907 15 13.6907C16.6075 13.6907 17.9107 12.3875 17.9107 10.78C17.9107 9.1725 16.6076 7.86938 15 7.86938ZM9.97049 19.414L20.0295 19.414C20.1182 19.4144 20.2057 19.3946 20.2856 19.3561C20.3654 19.3176 20.4355 19.2614 20.4904 19.1918C20.5453 19.1223 20.5837 19.0411 20.6026 18.9545C20.6215 18.8679 20.6204 18.7781 20.5995 18.692C19.9951 16.1596 17.7176 14.2766 15.0001 14.2766C12.2825 14.2766 10.005 16.1596 9.40061 18.6921C9.37966 18.7782 9.3786 18.8679 9.39749 18.9545C9.41639 19.0411 9.45475 19.1223 9.50966 19.1919C9.56458 19.2615 9.63461 19.3176 9.71446 19.3561C9.7943 19.3946 9.88185 19.4144 9.97049 19.414ZM0.937502 5.84139C0.937502 8.54971 3.13301 10.7452 5.84133 10.7452C6.49817 10.7452 7.12465 10.6157 7.69717 10.3815L11.5892 14.2735C11.9108 14.0829 12.2477 13.9196 12.5965 13.7852C11.7159 13.08 11.1519 11.9958 11.1519 10.7801C11.1519 10.1124 11.3221 9.48446 11.6214 8.93707L10.3815 7.69723C10.6158 7.12477 10.7453 6.49822 10.7453 5.84139C10.7452 3.13301 8.54965 0.937502 5.84139 0.937502C5.32222 0.937057 4.80629 1.01918 4.31291 1.18078L7.79936 4.66723L7.13754 7.13754L4.66729 7.79936L1.18072 4.31285C1.01919 4.80626 0.937095 5.32221 0.937502 5.84139ZM26.4168 26.4168L24.2149 27.0067L22.603 25.3949L23.193 23.193L25.3949 22.603L27.0067 24.2149L26.4168 26.4168ZM17.6672 20.3515L20.7671 23.4514C20.6211 23.8877 20.5469 24.3448 20.5473 24.8049C20.5473 27.1563 22.4535 29.0625 24.8049 29.0625C27.1563 29.0625 29.0624 27.1563 29.0625 24.8049C29.0624 22.4535 27.1563 20.5473 24.8049 20.5473C24.3448 20.5469 23.8877 20.6211 23.4513 20.7672L21.5535 18.8693C21.5458 19.1941 21.4334 19.5083 21.2253 19.772C20.9326 20.1428 20.5018 20.3516 20.0295 20.3516H17.6672V20.3515ZM11.2145 3.54692C11.5157 4.25133 11.6827 5.02682 11.6827 5.84139C11.683 6.38484 11.6074 6.92567 11.4583 7.44826L11.6273 7.61725C12.6544 7.14733 13.7965 6.88506 15 6.88506C19.4821 6.88506 23.1149 10.5179 23.1149 15C23.1149 16.2035 22.8527 17.3456 22.3828 18.3728L23.7312 19.7213C24.0843 19.6471 24.4441 19.6098 24.8048 19.6099C25.2346 19.6096 25.6628 19.6627 26.0796 19.7677C26.3536 19.1319 26.572 18.4736 26.7323 17.8001L29.0625 16.9031V13.0968L26.7327 12.2C26.437 10.9583 25.9451 9.77163 25.2755 8.68483L26.2895 6.40196L23.598 3.71051L21.3144 4.72471C20.2278 4.05535 19.0415 3.56355 17.8001 3.26783L16.9031 0.937502H13.0968L12.2001 3.26731C11.8677 3.3464 11.5389 3.43969 11.2145 3.54692Z" fill="#17D262"/>
</g>
<defs>
<clipPath id="clip0_776_3618">
<rect width="30" height="30" fill="white"/>
</clipPath>
</defs>
</svg>
