<svg width="30" height="30" viewBox="0 0 30 30" fill="none" xmlns="http://www.w3.org/2000/svg">
<path d="M29.2497 2.03008V27.9585C29.1246 27.9651 29.0109 27.9765 28.8969 27.9765C19.6329 27.9777 10.3683 27.9756 1.10491 27.9846C0.81031 27.9846 0.74911 27.8826 0.75001 27.5748C0.75991 24.9057 0.75241 22.236 0.76411 19.5666C0.76471 19.3866 0.84271 19.1646 0.95341 19.035C2.27251 17.4834 3.60451 15.9456 4.93351 14.4042C4.96951 14.3622 5.01121 14.3268 5.07361 14.265L10.2735 19.1952C12.4164 16.167 14.5449 13.1598 16.704 10.1085L22.4028 16.4043C24.6756 11.5851 26.9319 6.79948 29.1888 2.01538L29.2503 2.03038L29.2497 2.03008Z" fill="#FF4D69"/>
</svg>
