<svg width="30" height="30" viewBox="0 0 30 30" fill="none" xmlns="http://www.w3.org/2000/svg">
<g clip-path="url(#clip0_776_2606)">
<path d="M10.8288 5.07081C7.65603 5.07081 5.07273 7.65381 5.07273 10.8269C5.07273 14 7.65573 16.5827 10.8288 16.5827C14.0019 16.5827 16.5849 13.9997 16.5849 10.8269C16.5849 7.65411 14.0016 5.07081 10.8288 5.07081ZM10.8249 0.749906C11.203 0.755364 11.5637 0.909369 11.8291 1.17863C12.0945 1.44789 12.2433 1.81078 12.2433 2.18886C12.2433 2.56693 12.0945 2.92982 11.8291 3.19908C11.5637 3.46834 11.203 3.62235 10.8249 3.62781C10.6342 3.63056 10.4449 3.59537 10.2679 3.5243C10.0909 3.45322 9.92977 3.34766 9.79393 3.21377C9.65809 3.07988 9.55022 2.92032 9.47659 2.74437C9.40297 2.56842 9.36505 2.37959 9.36505 2.18886C9.36505 1.99812 9.40297 1.80929 9.47659 1.63334C9.55022 1.45739 9.65809 1.29783 9.79393 1.16394C9.92977 1.03005 10.0909 0.924493 10.2679 0.853415C10.4449 0.782337 10.6342 0.747152 10.8249 0.749906ZM10.8249 18.0257C11.0156 18.023 11.205 18.0581 11.382 18.1292C11.559 18.2003 11.7201 18.3058 11.8559 18.4397C11.9918 18.5736 12.0996 18.7332 12.1733 18.9091C12.2469 19.0851 12.2848 19.2739 12.2848 19.4647C12.2848 19.6554 12.2469 19.8442 12.1733 20.0202C12.0996 20.1961 11.9918 20.3557 11.8559 20.4896C11.7201 20.6235 11.559 20.729 11.382 20.8001C11.205 20.8712 11.0156 20.9064 10.8249 20.9036C10.4469 20.8981 10.0862 20.7441 9.82079 20.4749C9.55539 20.2056 9.40661 19.8427 9.40661 19.4647C9.40661 19.0866 9.55539 18.7237 9.82079 18.4544C10.0862 18.1852 10.4469 18.0312 10.8249 18.0257ZM15.9216 3.70251C16.0553 3.56891 16.214 3.46296 16.3886 3.39069C16.5632 3.31841 16.7504 3.28125 16.9394 3.2813C17.1283 3.28136 17.3155 3.31864 17.49 3.39101C17.6646 3.46338 17.8232 3.56943 17.9568 3.70311C18.0904 3.83678 18.1964 3.99546 18.2687 4.17008C18.3409 4.3447 18.3781 4.53184 18.378 4.72083C18.378 4.90982 18.3407 5.09694 18.2683 5.27152C18.196 5.4461 18.0899 5.60471 17.9562 5.73831C17.6863 6.00811 17.3202 6.15962 16.9385 6.15951C16.5568 6.1594 16.1908 6.00767 15.921 5.73771C15.6512 5.46774 15.4997 5.10166 15.4998 4.71998C15.4999 4.33831 15.6517 3.97231 15.9216 3.70251ZM3.70503 15.9179C3.97604 15.6534 4.3404 15.5064 4.71909 15.5087C5.09778 15.5111 5.46029 15.6626 5.72802 15.9304C5.99574 16.1983 6.14709 16.5608 6.14927 16.9395C6.15144 17.3182 6.00426 17.6825 5.73963 17.9534C5.46862 18.2179 5.10426 18.3649 4.72557 18.3626C4.34687 18.3603 3.98437 18.2087 3.71664 17.9409C3.44892 17.6731 3.29756 17.3105 3.29539 16.9318C3.29322 16.5531 3.4404 16.1888 3.70503 15.9179ZM3.70413 3.69981C3.83684 3.56238 3.99559 3.45275 4.17111 3.37732C4.34663 3.30188 4.53542 3.26215 4.72646 3.26044C4.91749 3.25873 5.10696 3.29508 5.2838 3.36736C5.46065 3.43964 5.62133 3.54641 5.75648 3.68144C5.89163 3.81647 5.99854 3.97706 6.07098 4.15384C6.14341 4.33062 6.17993 4.52005 6.17839 4.71109C6.17685 4.90213 6.13728 5.09095 6.062 5.26654C5.98673 5.44213 5.87724 5.60097 5.73993 5.73381C5.60722 5.87123 5.44847 5.98116 5.27295 6.05659C5.09743 6.13203 4.90864 6.17176 4.7176 6.17347C4.52657 6.17518 4.3371 6.13883 4.16025 6.06655C3.98341 5.99427 3.82273 5.8875 3.68758 5.75247C3.55243 5.61744 3.44552 5.45685 3.37308 5.28007C3.30064 5.10329 3.26413 4.91386 3.26567 4.72282C3.26721 4.53178 3.30678 4.34296 3.38205 4.16737C3.45733 3.99178 3.56682 3.83264 3.70413 3.69981Z" fill="#386BB7"/>
<path d="M12.2604 12.2648C12.3941 12.1312 12.5527 12.0252 12.7273 11.9529C12.9019 11.8806 13.0891 11.8433 13.278 11.8433C13.467 11.8433 13.6542 11.8806 13.8288 11.9529C14.0034 12.0252 14.162 12.1312 14.2956 12.2648L28.8243 26.7935C28.9617 26.9263 29.0713 27.0851 29.1466 27.2607C29.222 27.4362 29.2616 27.625 29.2633 27.8161C29.2649 28.0071 29.2285 28.1966 29.1561 28.3734C29.0837 28.5502 28.9769 28.7108 28.8418 28.8459C28.7067 28.981 28.5461 29.0878 28.3693 29.1602C28.1925 29.2326 28.003 29.269 27.812 29.2674C27.6209 29.2657 27.4321 29.2261 27.2566 29.1507C27.081 29.0754 26.9222 28.9658 26.7894 28.8284L12.2604 14.2997C11.9907 14.0299 11.8391 13.6639 11.8391 13.2823C11.8391 12.9007 11.9907 12.5347 12.2604 12.2648ZM19.4661 9.38394C19.8442 9.3894 20.2049 9.5434 20.4703 9.81266C20.7357 10.0819 20.8845 10.4448 20.8845 10.8229C20.8845 11.201 20.7357 11.5639 20.4703 11.8331C20.2049 12.1024 19.8442 12.2564 19.4661 12.2618C19.0881 12.2564 18.7274 12.1024 18.462 11.8331C18.1966 11.5639 18.0478 11.201 18.0478 10.8229C18.0478 10.4448 18.1966 10.0819 18.462 9.81266C18.7274 9.5434 19.0881 9.3894 19.4661 9.38394ZM2.19035 9.38394C2.38106 9.38119 2.57042 9.41637 2.74741 9.48745C2.92441 9.55853 3.08551 9.66408 3.22135 9.79797C3.35719 9.93186 3.46506 10.0914 3.53868 10.2674C3.61231 10.4433 3.65022 10.6322 3.65022 10.8229C3.65022 11.0136 3.61231 11.2025 3.53868 11.3784C3.46506 11.5544 3.35719 11.7139 3.22135 11.8478C3.08551 11.9817 2.92441 12.0873 2.74741 12.1583C2.57042 12.2294 2.38106 12.2646 2.19035 12.2618C1.99963 12.2646 1.81027 12.2294 1.63328 12.1583C1.45628 12.0873 1.29518 11.9817 1.15934 11.8478C1.0235 11.7139 0.915636 11.5544 0.84201 11.3784C0.768384 11.2025 0.730469 11.0136 0.730469 10.8229C0.730469 10.6322 0.768384 10.4433 0.84201 10.2674C0.915636 10.0914 1.0235 9.93186 1.15934 9.79797C1.29518 9.66408 1.45628 9.55853 1.63328 9.48745C1.81027 9.41637 1.99963 9.38119 2.19035 9.38394Z" fill="#386BB7"/>
</g>
<defs>
<clipPath id="clip0_776_2606">
<rect width="30" height="30" fill="white"/>
</clipPath>
</defs>
</svg>
