<svg width="30" height="30" viewBox="0 0 30 30" fill="none" xmlns="http://www.w3.org/2000/svg">
<path d="M29.9994 13.9559L29.9561 14.8378C29.6836 20.4036 28.1373 25.1684 22.5381 27.3563L22.1924 27.4911C22.0945 27.5292 21.9967 27.5292 21.8982 27.4911L21.5525 27.3563C20.3449 26.8847 19.3271 26.2934 18.4699 25.6009V23.3901C19.34 24.3733 20.4779 25.1925 21.958 25.7983C22.016 25.8218 22.074 25.8218 22.1309 25.7983C26.7996 23.8882 28.0488 19.8669 28.3359 15.1934C28.3424 15.0757 28.2598 14.9725 28.1414 14.9544C26.11 14.6339 23.9807 13.8264 22.1455 12.9264C22.0793 12.8931 22.0096 12.8931 21.9445 12.9264C20.1076 13.8264 17.9801 14.6339 15.9469 14.9544C15.8309 14.9725 15.7459 15.0757 15.7541 15.1934C15.7822 15.6604 15.8203 16.1204 15.8719 16.5739L14.216 16.0559C14.1809 15.654 14.1545 15.2485 14.1346 14.8384L14.0912 13.9565C14.0862 13.8547 14.12 13.7549 14.1856 13.6769C14.2513 13.599 14.344 13.5488 14.4451 13.5364L15.3205 13.4286C17.3484 13.1778 19.6172 12.3042 21.4377 11.3942L21.8631 11.1815C21.9809 11.1218 22.1074 11.1218 22.2252 11.1815L22.6506 11.3942C24.4711 12.3042 26.7398 13.1778 28.7678 13.4286L29.6432 13.5364C29.8553 13.5622 30.0094 13.745 29.9994 13.9559ZM20.7434 21.729C21.0521 22.0395 21.5537 22.0395 21.8643 21.729L25.5035 18.0897C25.8123 17.7792 25.8123 17.2776 25.5035 16.9688C25.1947 16.66 24.6932 16.66 24.3826 16.9688L21.3035 20.0479L19.7092 18.4536C19.4004 18.1448 18.8988 18.1448 18.5883 18.4536C18.2795 18.7624 18.2795 19.2657 18.5883 19.5745L20.7434 21.729ZM17.0162 18.4554C17.3367 18.8907 17.5178 19.4268 17.5178 20.0052V27.2667C17.5178 27.4659 17.4381 27.647 17.3051 27.78L17.3033 27.7835C17.1703 27.9147 16.9875 27.9962 16.7883 27.9962H13.8035V24.9335C13.8035 24.671 13.5908 24.4565 13.3266 24.4565C13.0641 24.4565 12.8514 24.671 12.8514 24.9335V27.9962H9.99141L9.24609 21.8866C9.23789 21.8268 9.18809 21.7817 9.12832 21.7817H8.39062C8.3291 21.7817 8.2793 21.8268 8.27109 21.8866L7.5252 27.9956H4.66699V24.9329C4.66699 24.6704 4.45254 24.4559 4.19004 24.4559C3.92754 24.4559 3.71309 24.6704 3.71309 24.9329V27.9956H0.728906C0.52793 27.9956 0.345117 27.9141 0.213867 27.7829V27.7811C0.0814453 27.6481 0 27.4659 0 27.2661V20.0046C0 19.4268 0.181055 18.8901 0.501563 18.4548C0.82207 18.0177 1.28027 17.6843 1.83223 17.5114L4.62422 16.6378L5.91621 16.2341V14.9802C5.32324 14.3538 4.85801 13.5335 4.57734 12.5948C4.3916 12.5286 4.22344 12.4302 4.07227 12.3089C3.73184 12.0329 3.4793 11.6327 3.32812 11.2126C3.17871 10.7972 3.12188 10.3524 3.17227 9.98036C3.20391 9.74774 3.27715 9.53504 3.39316 9.36395C3.0627 8.71297 2.84648 8.05672 2.76504 7.43563C2.68359 6.79461 2.74512 6.18817 2.97129 5.65672C3.20391 5.10711 3.60234 4.64539 4.19062 4.31317C4.49121 4.14207 4.84336 4.00614 5.24883 3.91121C5.22891 3.87137 5.20723 3.82977 5.18379 3.78993C5.03906 3.53387 4.85332 3.29481 4.70391 3.15711C4.50938 2.98133 4.49473 2.68016 4.67227 2.48621C4.74423 2.40786 4.83997 2.35536 4.94473 2.3368C6.5959 1.98993 8.57051 1.87684 10.3014 2.17918C11.5271 2.39188 12.6381 2.81551 13.452 3.51454C14.301 4.24051 14.8154 5.24539 14.7955 6.59246C14.7838 7.39461 14.5793 8.31512 14.1375 9.36278C14.2553 9.53563 14.3285 9.74832 14.3602 9.98036C14.41 10.3524 14.3537 10.7977 14.2043 11.2126C14.0531 11.6327 13.8006 12.0329 13.4602 12.3089C13.309 12.4302 13.1414 12.528 12.9551 12.5948C12.6727 13.5399 12.201 14.3655 11.6033 14.9931V16.2335L12.8941 16.6372L15.6861 17.5108C16.2387 17.6843 16.6957 18.0182 17.0162 18.4554ZM6.75644 14.4786C7.32773 15.02 8.02207 15.3405 8.76621 15.3405C9.51035 15.3405 10.2047 15.0218 10.7742 14.4804C10.7895 14.4639 10.8041 14.4487 10.8205 14.4352C11.41 13.8557 11.8652 13.0384 12.1096 12.085H12.1113C12.1564 11.9022 12.3105 11.7581 12.508 11.7311C12.6375 11.713 12.7588 11.655 12.8648 11.5682C13.0623 11.4089 13.2135 11.1598 13.3113 10.8921C13.4092 10.6179 13.4473 10.3343 13.4174 10.1081C13.4039 10.0085 13.3811 9.93231 13.3459 9.88895C13.3043 9.83739 13.2563 9.7993 13.2064 9.77411C13.1584 9.75067 13.0986 9.73895 13.0307 9.73895H12.6738V9.73719C12.4178 9.73719 12.2068 9.5327 12.2004 9.27547C12.1869 8.84188 12.1471 8.41649 12.0592 8.00809C12.0111 7.78075 11.9479 7.55809 11.8664 7.34539C10.8369 7.92664 9.80332 8.21903 8.76562 8.21903C7.72793 8.21903 6.69434 7.92664 5.66484 7.34539C5.5834 7.55809 5.52012 7.78075 5.47207 8.00809C5.38711 8.40477 5.34727 8.81668 5.33262 9.23856V9.26375C5.33262 9.52625 5.11992 9.73895 4.85742 9.73895H4.50059C4.43262 9.73895 4.37285 9.75067 4.3248 9.77411C4.275 9.7993 4.22695 9.83739 4.18535 9.88895C4.1502 9.93231 4.12734 10.0085 4.11387 10.1081C4.08398 10.3337 4.12207 10.6179 4.21992 10.8921C4.31777 11.1593 4.46895 11.4089 4.66699 11.5682C4.7666 11.6479 4.87793 11.7059 4.99922 11.7259C5.19668 11.7423 5.37129 11.8817 5.42285 12.0845C5.67363 13.0636 6.14531 13.8973 6.75644 14.4786ZM8.76621 16.2927C8.08535 16.2927 7.44258 16.0981 6.86426 15.7513V16.3577L8.75918 17.9075L10.6512 16.3595V15.7618C10.0787 16.1034 9.44063 16.2927 8.76621 16.2927ZM7.7666 18.535C7.80176 18.5151 7.82285 18.4817 7.82637 18.4419C7.83106 18.4003 7.81465 18.364 7.78301 18.3388L6.33633 17.1546C6.30469 17.1282 6.26484 17.1212 6.22676 17.1329L5.65547 17.3122C5.61914 17.3239 5.59219 17.3485 5.5793 17.3854C5.56641 17.4223 5.56934 17.4587 5.59102 17.4903L6.61055 19.0583C6.64395 19.1098 6.71367 19.128 6.76816 19.0964L7.7666 18.535ZM9.7377 19.6179L8.81777 19.0999C8.77969 19.08 8.73809 19.08 8.7 19.0999L7.78008 19.6179C7.72676 19.6477 7.70508 19.7128 7.72852 19.769L8.14687 20.7575C8.16504 20.8026 8.20664 20.829 8.25645 20.829H9.26133C9.31113 20.829 9.35273 20.8026 9.3709 20.7575L9.78926 19.769C9.8127 19.7122 9.79102 19.6477 9.7377 19.6179ZM11.9402 17.3854C11.9342 17.3681 11.9241 17.3525 11.9109 17.3397C11.8976 17.327 11.8816 17.3176 11.8641 17.3122L11.2928 17.1329C11.2529 17.1212 11.2131 17.1276 11.1814 17.1546L9.73477 18.3388C9.70312 18.364 9.68848 18.4003 9.69141 18.4419C9.69492 18.4817 9.7166 18.5151 9.75117 18.535L10.7496 19.0964C10.8047 19.128 10.8744 19.1098 10.909 19.0583L11.9273 17.4903C11.9484 17.4587 11.952 17.4218 11.9402 17.3854Z" fill="#FF4D69"/>
</svg>
