<svg width="30" height="30" viewBox="0 0 30 30" fill="none" xmlns="http://www.w3.org/2000/svg">
<g clip-path="url(#clip0_776_2410)">
<path d="M8.85035 3.26367C8.85035 1.46408 7.38627 0 5.58668 0C1.25695 0.179297 1.25818 6.34875 5.58668 6.52734C7.38633 6.52734 8.85035 5.06326 8.85035 3.26367Z" fill="#17D262"/>
<path d="M11.1719 13.1172V12.1133C10.8642 4.70092 0.30498 4.70666 0 12.1133V13.1171C0 13.6025 0.393516 13.9961 0.878906 13.9961H10.293C10.7784 13.9961 11.1719 13.6026 11.1719 13.1172ZM27.6778 3.26367C27.6778 1.46408 26.2137 0 24.4141 0C20.0844 0.179297 20.0856 6.34875 24.4141 6.52734C26.2137 6.52734 27.6778 5.06326 27.6778 3.26367ZM24.4141 6.52734C21.334 6.52734 18.8282 9.03322 18.8282 12.1133V13.1171C18.8282 13.6025 19.2217 13.9961 19.7071 13.9961H29.1211C29.6065 13.9961 30 13.6025 30 13.1171V12.1133C30 9.03322 27.4942 6.52734 24.4141 6.52734ZM5.52346 15.9414C5.52346 15.8787 5.52463 15.8163 5.5258 15.7539H3.76799C3.69803 19.5215 5.52439 22.9253 8.3526 24.9981C8.60413 24.4646 8.91889 23.9632 9.2901 23.5047C7.00213 21.7747 5.52346 19.0309 5.52346 15.9414ZM11.1213 7.29264C13.459 6.19787 16.541 6.19787 18.8787 7.29264C19.2962 6.8137 19.7737 6.39052 20.2993 6.03352C17.1882 4.28162 12.8118 4.28168 9.70078 6.03352C10.2263 6.39055 10.7038 6.81373 11.1213 7.29264ZM24.4742 15.7539C24.5425 18.8939 23.0445 21.7461 20.7099 23.5047C21.0811 23.9632 21.3959 24.4646 21.6474 24.9981C24.4755 22.9255 26.302 19.5214 26.232 15.7539H24.4742ZM18.2637 19.2676C18.2637 17.468 16.7996 16.0039 15 16.0039C10.6703 16.1832 10.6715 22.3526 15 22.5312C16.7996 22.5312 18.2637 21.0672 18.2637 19.2676ZM15 22.5312C11.9199 22.5312 9.41408 25.0371 9.41408 28.1171V29.1211C9.41408 29.6065 9.8076 30 10.293 30H19.7071C20.1925 30 20.586 29.6065 20.586 29.1211V28.1172C20.5859 25.0371 18.0801 22.5312 15 22.5312Z" fill="#17D262"/>
</g>
<defs>
<clipPath id="clip0_776_2410">
<rect width="30" height="30" fill="white"/>
</clipPath>
</defs>
</svg>
