<svg width="30" height="30" viewBox="0 0 30 30" fill="none" xmlns="http://www.w3.org/2000/svg">
<path fill-rule="evenodd" clip-rule="evenodd" d="M25.6596 10.3546V8.63081H23.6938L23.1559 10.3541H25.6596V10.3546ZM12.6207 3.8273C12.8152 3.8273 12.9723 3.98491 12.9723 4.17886V5.13101C12.9723 5.29624 13.107 5.43042 13.2723 5.43042C13.4375 5.43042 13.5723 5.29624 13.5723 5.13101V4.17886C13.5723 3.98491 13.7293 3.8273 13.9238 3.8273H14.3246C14.6363 3.8273 14.89 3.57358 14.89 3.26245C14.89 3.06792 15.0471 2.91089 15.2416 2.91089H16.3414C16.6531 2.91089 16.9068 2.65718 16.9068 2.34546V2.16968C16.9068 1.85796 16.6531 1.60425 16.3414 1.60425H14.2367C13.925 1.60425 13.6719 1.85796 13.6719 2.16968C13.6719 2.36362 13.5143 2.52124 13.3203 2.52124H12.2199C11.9082 2.52124 11.6545 2.77495 11.6545 3.08608V3.26245C11.6545 3.57417 11.9082 3.8273 12.2199 3.8273H12.6207ZM7.18906 6.98315C7.3543 6.98315 7.48906 6.84898 7.48906 6.68374V5.76148C7.48906 5.56753 7.64609 5.40991 7.84062 5.40991H8.24141C8.55313 5.40991 8.80684 5.1562 8.80684 4.84448V4.6687C8.80684 4.35698 8.55313 4.10386 8.24141 4.10386H6.35879C6.31009 4.1039 6.26191 4.09381 6.21731 4.07424C6.17271 4.05468 6.13267 4.02605 6.09972 3.99018C6.06677 3.95431 6.04164 3.91199 6.02592 3.86589C6.0102 3.8198 6.00423 3.77094 6.0084 3.72241C6.01016 3.70073 6.01133 3.67964 6.01133 3.65913C6.01133 3.25601 5.6832 2.92788 5.28008 2.92788C4.87637 2.92788 4.54824 3.25601 4.54824 3.65913C4.54824 4.04702 4.85176 4.36812 5.23906 4.38921C5.42539 4.39917 5.57129 4.55327 5.57129 4.74077V4.84565C5.57129 5.15737 5.825 5.41108 6.13672 5.41108H6.5375C6.73203 5.41108 6.88906 5.5687 6.88906 5.76265V6.68491C6.88906 6.84897 7.02383 6.98315 7.18906 6.98315ZM6.12793 10.9576H8.28535L8.16172 9.13062H6.25156L6.12793 10.9576ZM5.9873 13.0388H8.42598L8.33281 11.6607H6.08047L5.9873 13.0388ZM8.6252 15.9867L8.47344 13.7419H5.93984L5.66387 17.8212L6.84102 17.6226V16.6177C6.84108 16.5359 6.86967 16.4567 6.92186 16.3937C6.97405 16.3307 7.04658 16.2879 7.12695 16.2726L8.6252 15.9867ZM14.5367 12.0322H12.043L11.8168 15.3785L14.7254 14.8242L14.5367 12.0322ZM14.4043 10.071H12.1754L12.0904 11.3291H14.4893L14.4043 10.071ZM12.2229 9.36792H14.3568L14.2449 7.71733H12.3348L12.2229 9.36792ZM10.291 19.3716C10.0572 18.9 9.60313 18.6181 9.07637 18.6181C8.5502 18.6181 8.09609 18.9 7.8623 19.371L7.19961 20.7058L5.72598 20.9238C5.20508 21.0005 4.79727 21.3451 4.63438 21.846C4.48789 22.2972 4.57754 22.7625 4.87109 23.1193H4.14453V18.7904L7.25117 18.2666C7.42051 18.2378 7.54414 18.0914 7.54414 17.9197V16.9089L16.4451 15.2126V19.0259L16.1164 18.3632C15.8826 17.8916 15.4285 17.6103 14.9023 17.6103C14.3756 17.6103 13.9221 17.8921 13.6877 18.3632L12.5656 20.625L11.4811 20.7849L10.9531 20.707L10.291 19.3716ZM9.31777 23.3027C8.9416 22.9347 8.81445 22.4156 8.97676 21.9152C9.13965 21.4142 9.54746 21.0697 10.0684 20.9929L10.2939 20.9601L9.66113 19.6845C9.54688 19.4543 9.33359 19.3218 9.07637 19.3218C8.81914 19.3218 8.60645 19.4543 8.49219 19.6845L7.74805 21.1839C7.72284 21.2348 7.68569 21.2788 7.63977 21.3122C7.59385 21.3455 7.54053 21.3673 7.48438 21.3755L5.82852 21.6199C5.57422 21.6574 5.38262 21.8191 5.30293 22.064C5.22383 22.3083 5.28359 22.5521 5.46699 22.732L6.66348 23.9027C6.70385 23.9425 6.73407 23.9915 6.7516 24.0454C6.76914 24.0993 6.77348 24.1567 6.76426 24.2126L6.48477 25.8632C6.44141 26.1169 6.53633 26.349 6.74434 26.5001C6.95234 26.6513 7.20254 26.6695 7.43047 26.5505L8.91348 25.7748C9.01543 25.7214 9.1373 25.7214 9.23926 25.7748L10.7229 26.5505C10.768 26.574 10.8143 26.5921 10.8617 26.605L11.1219 25.0693L9.31777 23.3027ZM19.6332 21.6884L16.9543 21.2929C16.8981 21.2847 16.8448 21.2629 16.7989 21.2295C16.753 21.1962 16.7158 21.1522 16.6906 21.1013L15.4865 18.6755C15.3723 18.4453 15.1596 18.3128 14.9023 18.3128C14.6451 18.3128 14.4318 18.4447 14.3176 18.6755L13.1141 21.1013C13.0887 21.1521 13.0515 21.196 13.0056 21.2293C12.9597 21.2627 12.9065 21.2845 12.8504 21.2929L10.1709 21.6884C9.9166 21.7259 9.725 21.8876 9.6459 22.132C9.56621 22.3763 9.62598 22.6201 9.80996 22.8L11.7453 24.6943C11.7858 24.7341 11.816 24.783 11.8334 24.837C11.8509 24.8909 11.855 24.9483 11.8455 25.0042L11.3937 27.6744C11.3504 27.9281 11.4453 28.1601 11.6533 28.3113C11.8613 28.4625 12.1115 28.4806 12.3395 28.3617L14.7395 27.1066C14.8414 27.0533 14.9633 27.0533 15.0652 27.1066L17.4646 28.3617C17.6926 28.4806 17.9428 28.4625 18.1508 28.3113C18.3588 28.1601 18.4537 27.9281 18.4109 27.6744L17.9586 25.0042C17.9393 24.8906 17.9768 24.7751 18.0594 24.6943L19.9947 22.8C20.1781 22.6201 20.2385 22.3763 20.1588 22.132C20.0791 21.8876 19.8875 21.7253 19.6332 21.6884ZM20.7277 19.3218C20.985 19.3218 21.1982 19.4543 21.3125 19.6845L22.0566 21.1839C22.0818 21.2347 22.1189 21.2787 22.1647 21.312C22.2105 21.3454 22.2637 21.3672 22.3197 21.3755L23.9756 21.6199C24.2305 21.6574 24.4221 21.8191 24.5012 22.064C24.5809 22.3083 24.5211 22.5521 24.3371 22.732L23.1412 23.9027C23.1006 23.9424 23.0702 23.9913 23.0527 24.0453C23.0351 24.0993 23.0309 24.1567 23.0404 24.2126L23.3199 25.8632C23.3627 26.1169 23.2678 26.349 23.0598 26.5001C22.8518 26.6513 22.6016 26.6695 22.3736 26.5505L20.8906 25.7748C20.8403 25.7485 20.7845 25.7348 20.7277 25.7348C20.671 25.7348 20.6151 25.7485 20.5648 25.7748L19.0818 26.5505C19.0367 26.574 18.9898 26.5921 18.9424 26.605L18.6828 25.0693L20.4863 23.3033C20.8625 22.9353 20.9902 22.4162 20.8273 21.9158C20.665 21.4148 20.2566 21.0703 19.7357 20.9935L19.5107 20.9607L20.1436 19.6851C20.2578 19.4537 20.4705 19.3218 20.7277 19.3218ZM18.9939 16.0757H20.3779V15.5121H18.9939V16.0757ZM20.3779 18.6626C20.3668 18.6656 20.3557 18.6679 20.3445 18.6714H18.9939V18.1078H20.3779V18.6626ZM23.8145 18.1078H22.4305V18.6714H23.8145V18.1078ZM23.8145 15.5121H22.4305V16.0757H23.8145V15.5121ZM23.8145 12.9175H18.9939V13.4871H23.8145V12.9175ZM25.6596 11.0578V23.1193H24.933C25.2271 22.7625 25.3162 22.2972 25.1697 21.846C25.0074 21.3457 24.599 21.0005 24.0781 20.9238L22.6045 20.7064L21.9424 19.3722C21.9365 19.3611 21.9301 19.35 21.9242 19.3388C21.9711 19.3617 22.0232 19.3746 22.0789 19.3746H24.166C24.36 19.3746 24.5176 19.2175 24.5176 19.023V17.7562C24.5176 17.5623 24.36 17.4046 24.166 17.4046H22.0789C21.885 17.4046 21.7273 17.5623 21.7273 17.7562V19.023C21.7273 19.0341 21.7279 19.0453 21.7291 19.0564C21.5566 18.8644 21.3311 18.7278 21.0811 18.6638V17.7562C21.0811 17.5623 20.9234 17.4046 20.7295 17.4046H18.6424C18.4484 17.4046 18.2908 17.5623 18.2908 17.7562V19.023C18.2908 19.2169 18.4484 19.3746 18.6424 19.3746H19.5119L18.851 20.7064L18.323 20.7843L17.2385 20.6244L17.1482 20.4427V11.0578H25.6596ZM24.5176 12.566V13.8386C24.5176 14.0332 24.36 14.1902 24.166 14.1902H18.6424C18.4484 14.1902 18.2908 14.0332 18.2908 13.8386V12.566C18.2908 12.3714 18.4484 12.2144 18.6424 12.2144H24.166C24.36 12.2144 24.5176 12.3714 24.5176 12.566ZM22.0789 14.8083H24.166C24.36 14.8083 24.5176 14.966 24.5176 15.1599V16.4267C24.5176 16.6207 24.36 16.7783 24.166 16.7783H22.0789C21.885 16.7783 21.7273 16.6207 21.7273 16.4267V15.1599C21.7273 14.966 21.885 14.8083 22.0789 14.8083ZM21.0811 15.1605V16.4273C21.0811 16.6212 20.9234 16.7789 20.7295 16.7789H18.6424C18.4484 16.7789 18.2908 16.6212 18.2908 16.4273V15.1605C18.2908 14.9666 18.4484 14.8089 18.6424 14.8089H20.7295C20.9234 14.8084 21.0811 14.966 21.0811 15.1605Z" fill="#FDB600"/>
</svg>
