<svg width="25" height="25" viewBox="0 0 25 25" fill="none" xmlns="http://www.w3.org/2000/svg">
<g clip-path="url(#clip0_673_1487)">
<path d="M24.7854 2.21648L22.8323 0.263354C22.5463 -0.0226807 22.0826 -0.0226807 21.7965 0.263354C21.5105 0.54939 21.5105 1.01311 21.7965 1.29915L22.4994 2.00198L11.4746 2.00193C8.40962 2.00193 5.52813 3.19548 3.36084 5.36277C1.19355 7.53005 0 10.4116 0 13.4765C0 16.5415 1.19355 19.423 3.36084 21.5903C5.52813 23.7576 8.40962 24.9511 11.4746 24.9511C11.8791 24.9511 12.207 24.6232 12.207 24.2187C12.207 23.8142 11.8791 23.4863 11.4746 23.4863C5.95522 23.4863 1.46484 18.996 1.46484 13.4765C1.46484 10.8029 2.50601 8.28919 4.39663 6.39856C6.28726 4.50798 8.80088 3.46682 11.4746 3.46682H22.4993L21.7965 4.1696C21.5105 4.45564 21.5105 4.91936 21.7965 5.2054C21.9396 5.34841 22.127 5.4199 22.3145 5.4199C22.5019 5.4199 22.6894 5.34841 22.8323 5.20535L24.7854 3.25222C25.0715 2.96624 25.0715 2.50251 24.7854 2.21648Z" fill="#FF4D69"/>
<path d="M22.2168 14.209C22.6213 14.209 22.9492 13.8811 22.9492 13.4766C22.9492 13.0721 22.6213 12.7441 22.2168 12.7441C21.8123 12.7441 21.4844 13.0721 21.4844 13.4766C21.4844 13.8811 21.8123 14.209 22.2168 14.209Z" fill="#FF4D69"/>
<path d="M22.5535 16.4607C22.6603 16.0706 22.4306 15.6677 22.0405 15.5609C21.6503 15.4541 21.2475 15.6838 21.1407 16.074C21.0338 16.4641 21.2635 16.867 21.6537 16.9738C22.0438 17.0806 22.4467 16.8509 22.5535 16.4607Z" fill="#FF4D69"/>
<path d="M21.1437 18.2134C20.7933 18.0111 20.3454 18.1311 20.1432 18.4814C19.9409 18.8317 20.061 19.2797 20.4113 19.4819C20.7615 19.6842 21.2095 19.5641 21.4117 19.2138C21.614 18.8636 21.494 18.4156 21.1437 18.2134ZM18.5524 20.5545C18.2664 20.8406 18.2664 21.3043 18.5524 21.5903C18.8385 21.8763 19.3022 21.8763 19.5882 21.5903C19.8742 21.3043 19.8742 20.8406 19.5882 20.5545C19.3022 20.2685 18.8385 20.2685 18.5524 20.5545Z" fill="#FF4D69"/>
<path d="M16.7754 23.5641C17.1799 23.5641 17.5078 23.2362 17.5078 22.8317C17.5078 22.4272 17.1799 22.0992 16.7754 22.0992C16.3709 22.0992 16.043 22.4272 16.043 22.8317C16.043 23.2362 16.3709 23.5641 16.7754 23.5641Z" fill="#FF4D69"/>
<path d="M14.0653 23.1453C13.6746 23.25 13.4427 23.6516 13.5474 24.0423C13.6521 24.433 14.0537 24.6649 14.4444 24.5602C14.8352 24.4555 15.067 24.0539 14.9624 23.6632C14.8577 23.2725 14.4561 23.0406 14.0653 23.1453ZM11.4746 4.93164C6.76294 4.93164 2.92969 8.76489 2.92969 13.4766C2.92969 18.1882 6.76294 22.0215 11.4746 22.0215C16.1863 22.0215 20.0195 18.1882 20.0195 13.4766C20.0195 8.76489 16.1863 4.93164 11.4746 4.93164ZM11.4746 6.39648C11.8791 6.39648 12.207 6.72441 12.207 7.12891C12.207 7.5334 11.8791 7.86133 11.4746 7.86133C11.0701 7.86133 10.7422 7.5334 10.7422 7.12891C10.7422 6.72441 11.0701 6.39648 11.4746 6.39648ZM4.39453 13.4766C4.39453 13.0721 4.72246 12.7441 5.12695 12.7441C5.53145 12.7441 5.85938 13.0721 5.85938 13.4766C5.85938 13.8811 5.53145 14.209 5.12695 14.209C4.72246 14.209 4.39453 13.8811 4.39453 13.4766ZM6.3436 17.2847C5.99331 17.4869 5.54536 17.3669 5.34312 17.0166C5.14087 16.6663 5.26089 16.2184 5.61118 16.0161C5.96147 15.8139 6.40942 15.9339 6.61167 16.2842C6.81392 16.6345 6.6939 17.0824 6.3436 17.2847ZM6.61167 10.6689C6.40942 11.0192 5.96147 11.1393 5.61118 10.937C5.26089 10.7348 5.14082 10.2868 5.34312 9.93652C5.54536 9.58623 5.99331 9.46616 6.3436 9.66846C6.6939 9.8707 6.81392 10.3187 6.61167 10.6689ZM8.93506 19.34C8.73281 19.6903 8.28486 19.8104 7.93457 19.6081C7.58428 19.4058 7.46421 18.9579 7.6665 18.6076C7.86875 18.2573 8.3167 18.1372 8.66699 18.3395C9.01729 18.5418 9.13735 18.9897 8.93506 19.34ZM8.66699 8.61362C8.3167 8.81587 7.86875 8.69585 7.6665 8.34556C7.46426 7.99526 7.58428 7.54731 7.93457 7.34507C8.28486 7.14282 8.73281 7.26284 8.93506 7.61314C9.13735 7.96343 9.01729 8.41138 8.66699 8.61362ZM11.4746 20.5566C11.0701 20.5566 10.7422 20.2287 10.7422 19.8242C10.7422 19.4197 11.0701 19.0918 11.4746 19.0918C11.8791 19.0918 12.207 19.4197 12.207 19.8242C12.207 20.2287 11.8791 20.5566 11.4746 20.5566ZM11.4746 14.209C11.0701 14.209 10.7422 13.8811 10.7422 13.4766V10.0586C10.7422 9.6541 11.0701 9.32617 11.4746 9.32617C11.8791 9.32617 12.207 9.6541 12.207 10.0586V12.7441H13.916C14.3205 12.7441 14.6484 13.0721 14.6484 13.4766C14.6484 13.8811 14.3205 14.209 13.916 14.209H11.4746ZM15.0146 19.6081C14.6644 19.8104 14.2164 19.6903 14.0142 19.34C13.8119 18.9897 13.9319 18.5418 14.2822 18.3396C14.6325 18.1373 15.0805 18.2573 15.2827 18.6076C15.485 18.9579 15.3649 19.4059 15.0146 19.6081ZM15.2827 8.34556C15.0805 8.69585 14.6325 8.81592 14.2822 8.61362C13.9319 8.41138 13.8119 7.96343 14.0142 7.61314C14.2164 7.26284 14.6644 7.14277 15.0146 7.34507C15.3649 7.54731 15.485 7.99522 15.2827 8.34556ZM17.6062 17.0166C17.4039 17.3669 16.956 17.487 16.6057 17.2847C16.2554 17.0824 16.1353 16.6345 16.3376 16.2842C16.5398 15.9339 16.9878 15.8138 17.3381 16.0161C17.6884 16.2184 17.8084 16.6663 17.6062 17.0166ZM18.5547 13.4766C18.5547 13.8811 18.2268 14.209 17.8223 14.209C17.4178 14.209 17.0898 13.8811 17.0898 13.4766C17.0898 13.0721 17.4178 12.7441 17.8223 12.7441C18.2268 12.7441 18.5547 13.0721 18.5547 13.4766ZM17.338 10.937C16.9877 11.1393 16.5398 11.0192 16.3375 10.6689C16.1353 10.3187 16.2553 9.8707 16.6056 9.66846C16.956 9.46621 17.4039 9.58623 17.6061 9.93652C17.8083 10.2868 17.6884 10.7348 17.338 10.937Z" fill="#FF4D69"/>
</g>
<defs>
<clipPath id="clip0_673_1487">
<rect width="25" height="25" fill="white"/>
</clipPath>
</defs>
</svg>
