<svg width="25" height="25" viewBox="0 0 25 25" fill="none" xmlns="http://www.w3.org/2000/svg">
<g clip-path="url(#clip0_673_1466)">
<path d="M21.2507 17.4996C22.8615 17.4996 24.1673 16.1938 24.1673 14.5829C24.1673 12.9721 22.8615 11.6663 21.2507 11.6663C19.6398 11.6663 18.334 12.9721 18.334 14.5829C18.334 16.1938 19.6398 17.4996 21.2507 17.4996Z" fill="#FDB600"/>
<path d="M13.3343 7.91623V4.58289C13.3343 4.47239 13.3782 4.36641 13.4564 4.28826C13.5345 4.21012 13.6405 4.16623 13.751 4.16623H14.7635C14.8077 4.16636 14.8509 4.15357 14.8879 4.12943C14.925 4.1053 14.9541 4.07088 14.9718 4.03039C14.9939 3.98658 15.0031 3.93738 14.9983 3.88854C14.9935 3.8397 14.9749 3.79324 14.9447 3.75456L12.6785 0.921226C12.6579 0.893232 12.631 0.870475 12.6 0.85479C12.569 0.839105 12.5347 0.830933 12.4999 0.830933C12.4652 0.830933 12.4309 0.839105 12.3999 0.85479C12.3689 0.870475 12.342 0.893232 12.3214 0.921226L10.0543 3.75456C10.0243 3.79309 10.0058 3.83936 10.0011 3.88798C9.99639 3.9366 10.0056 3.98556 10.0277 4.02914C10.0454 4.06963 10.0745 4.10405 10.1115 4.12818C10.1485 4.15232 10.1918 4.1651 10.236 4.16498H11.251C11.3615 4.16498 11.4675 4.20887 11.5456 4.28701C11.6238 4.36515 11.6677 4.47114 11.6677 4.58164V7.91498C11.6677 12.0021 8.78724 13.0083 7.25391 13.2541C7.41662 13.6783 7.50036 14.1286 7.50099 14.5829C7.50099 14.6716 7.49391 14.7591 7.48766 14.8462C8.767 14.6108 9.96815 14.0622 10.9839 13.2496C11.0448 13.1987 11.1189 13.1663 11.1976 13.1561C11.2762 13.146 11.3562 13.1585 11.428 13.1922C11.4998 13.2259 11.5605 13.2793 11.6029 13.3463C11.6454 13.4133 11.6679 13.4911 11.6677 13.5704V17.5962C12.2157 17.4673 12.7862 17.4673 13.3343 17.5962V13.5704C13.3344 13.4912 13.357 13.4136 13.3995 13.3468C13.4421 13.28 13.5028 13.2267 13.5746 13.1931C13.6463 13.1596 13.7262 13.1472 13.8047 13.1574C13.8833 13.1676 13.9573 13.2 14.0181 13.2508C15.034 14.063 16.2351 14.6111 17.5143 14.8462C17.5081 14.7587 17.501 14.6716 17.501 14.5829C17.5018 14.1292 17.5856 13.6794 17.7481 13.2558C16.2147 13.0104 13.3343 12.0037 13.3343 7.91623Z" fill="#FDB600"/>
<path d="M12.5007 24.1662C14.1115 24.1662 15.4173 22.8604 15.4173 21.2496C15.4173 19.6387 14.1115 18.3329 12.5007 18.3329C10.8898 18.3329 9.58398 19.6387 9.58398 21.2496C9.58398 22.8604 10.8898 24.1662 12.5007 24.1662Z" fill="#FDB600"/>
<path d="M3.75065 17.4996C5.36148 17.4996 6.66732 16.1938 6.66732 14.5829C6.66732 12.9721 5.36148 11.6663 3.75065 11.6663C2.13982 11.6663 0.833984 12.9721 0.833984 14.5829C0.833984 16.1938 2.13982 17.4996 3.75065 17.4996Z" fill="#FDB600"/>
</g>
<defs>
<clipPath id="clip0_673_1466">
<rect width="25" height="25" fill="white" transform="translate(0 -0.000488281)"/>
</clipPath>
</defs>
</svg>
