<svg width="25" height="25" viewBox="0 0 25 25" fill="none" xmlns="http://www.w3.org/2000/svg">
<path d="M18.5632 16.2292C17.3028 14.0938 14.9799 12.7605 12.5007 12.7605C10.0216 12.7605 7.70907 14.0834 6.43824 16.2292C5.90699 17.1355 5.89657 18.2292 6.4174 19.1355C6.92782 20.0417 7.86532 20.573 8.89657 20.573H16.0945C17.1362 20.573 18.0632 20.0313 18.5737 19.1355C19.0945 18.2188 19.0841 17.1355 18.5528 16.2292H18.5632Z" fill="#17D262"/>
<path d="M12.5 12.2396C14.6574 12.2396 16.4062 10.4907 16.4062 8.33337C16.4062 6.17601 14.6574 4.42712 12.5 4.42712C10.3426 4.42712 8.59375 6.17601 8.59375 8.33337C8.59375 10.4907 10.3426 12.2396 12.5 12.2396Z" fill="#17D262"/>
<path d="M22.9173 10.1563C22.4902 10.1563 22.1361 9.80212 22.1361 9.37504V5.20837C22.1361 3.91671 21.084 2.86462 19.7923 2.86462H15.6257C15.1986 2.86462 14.8444 2.51046 14.8444 2.08337C14.8444 1.65629 15.1986 1.30212 15.6257 1.30212H19.7923C21.9486 1.30212 23.6986 3.05212 23.6986 5.20837V9.37504C23.6986 9.80212 23.3444 10.1563 22.9173 10.1563ZM19.7923 23.698H15.6257C15.1986 23.698 14.8444 23.3438 14.8444 22.9167C14.8444 22.4896 15.1986 22.1355 15.6257 22.1355H19.7923C21.084 22.1355 22.1361 21.0834 22.1361 19.7917V15.625C22.1361 15.198 22.4902 14.8438 22.9173 14.8438C23.3444 14.8438 23.6986 15.198 23.6986 15.625V19.7917C23.6986 21.948 21.9486 23.698 19.7923 23.698ZM2.08398 10.1563C1.6569 10.1563 1.30273 9.80212 1.30273 9.37504V5.20837C1.30273 3.05212 3.05273 1.30212 5.20898 1.30212H9.37565C9.80274 1.30212 10.1569 1.65629 10.1569 2.08337C10.1569 2.51046 9.80274 2.86462 9.37565 2.86462H5.20898C3.91732 2.86462 2.86523 3.91671 2.86523 5.20837V9.37504C2.86523 9.80212 2.51107 10.1563 2.08398 10.1563ZM9.37565 23.698H5.20898C3.05273 23.698 1.30273 21.948 1.30273 19.7917V15.625C1.30273 15.198 1.6569 14.8438 2.08398 14.8438C2.51107 14.8438 2.86523 15.198 2.86523 15.625V19.7917C2.86523 21.0834 3.91732 22.1355 5.20898 22.1355H9.37565C9.80274 22.1355 10.1569 22.4896 10.1569 22.9167C10.1569 23.3438 9.80274 23.698 9.37565 23.698Z" fill="#17D262"/>
</svg>
