<svg width="25" height="25" viewBox="0 0 25 25" fill="none" xmlns="http://www.w3.org/2000/svg">
<path fill-rule="evenodd" clip-rule="evenodd" d="M6.80039 15.4734C6.86113 15.885 6.8325 16.3048 6.71647 16.7043C6.60044 17.1038 6.39972 17.4737 6.12796 17.7887C5.85621 18.1037 5.5198 18.3564 5.14162 18.5298C4.76343 18.7031 4.35235 18.793 3.93633 18.7932C2.33841 18.7932 1.04102 17.4958 1.04102 15.8979C1.04102 14.3 2.33841 13.0026 3.93633 13.0026C4.45003 13.0026 4.95448 13.1392 5.39793 13.3985C5.84138 13.6578 6.20786 14.0304 6.45977 14.4781L7.64206 13.8734C7.51881 13.4305 7.4566 12.9728 7.45716 12.513C7.45716 11.3021 7.88268 10.1896 8.59258 9.31771L6.47591 7.20052C6.16637 7.38021 5.81495 7.47519 5.45703 7.4759C5.09911 7.47661 4.74732 7.38302 4.43707 7.20456C4.12681 7.02609 3.86904 6.76905 3.68971 6.4593C3.51037 6.14955 3.41579 5.79802 3.41549 5.4401C3.41549 4.31615 4.328 3.40365 5.45195 3.40365C5.80987 3.40394 6.1614 3.49852 6.47115 3.67786C6.7809 3.85719 7.03794 4.11496 7.21641 4.42522C7.39487 4.73547 7.48846 5.08726 7.48775 5.44518C7.48704 5.8031 7.39206 6.15452 7.21237 6.46406L9.32904 8.58073C10.2313 7.84512 11.3602 7.44401 12.5244 7.44531C13.7358 7.44531 14.8478 7.87135 15.7202 8.58073L18.1171 6.18385C17.7542 5.671 17.5598 5.05796 17.5608 4.42969C17.5608 2.74844 18.9259 1.38281 20.6077 1.38281C22.2895 1.38281 23.6546 2.74844 23.6546 4.42969C23.6542 4.9876 23.5007 5.53471 23.2107 6.01139C22.9208 6.48806 22.5056 6.87602 22.0104 7.13298C21.5152 7.38994 20.9589 7.50604 20.4023 7.46863C19.8456 7.43122 19.3099 7.24174 18.8535 6.92083L16.4566 9.31771C17.1925 10.2199 17.5937 11.3488 17.5921 12.513C17.593 13.2715 17.423 14.0204 17.0947 14.7042L18.4546 15.3083C18.7373 14.9224 19.1071 14.6085 19.5338 14.3922C19.9606 14.1759 20.4324 14.0633 20.9108 14.0635C21.7188 14.0638 22.4936 14.3849 23.065 14.9563C23.6363 15.5276 23.9574 16.3024 23.9577 17.1104C23.9577 18.7917 22.5926 20.1573 20.9108 20.1573C20.4365 20.157 19.9688 20.0461 19.5449 19.8333C19.121 19.6205 18.7526 19.3118 18.469 18.9316C18.1854 18.5514 17.9944 18.1103 17.9112 17.6433C17.8281 17.1763 17.855 16.6964 17.99 16.2417L16.5436 15.599C16.1242 16.1457 15.5976 16.6011 14.996 16.9373C14.3945 17.2735 13.7307 17.4834 13.0452 17.5542V19.6375C13.5223 19.7652 13.9367 20.0618 14.2115 20.4721C14.4863 20.8825 14.6026 21.3787 14.5389 21.8684C14.4753 22.3582 14.2359 22.8081 13.8653 23.1346C13.4947 23.461 13.0182 23.6418 12.5244 23.6432C12.0305 23.6418 11.554 23.461 11.1834 23.1346C10.8128 22.8081 10.5734 22.3582 10.5098 21.8684C10.4461 21.3787 10.5624 20.8825 10.8372 20.4721C11.112 20.0618 11.5264 19.7652 12.0035 19.6375V17.5542C11.1683 17.4673 10.3677 17.1744 9.67344 16.7019C8.97923 16.2294 8.41314 15.592 8.02591 14.8469L6.80039 15.4734Z" fill="#386BB7"/>
</svg>
