<svg width="40" height="40" viewBox="0 0 40 40" fill="none" xmlns="http://www.w3.org/2000/svg">
<path d="M29.4523 19.2697C28.7627 19.2697 28.2072 19.8319 28.2072 20.5149V22.6223C28.207 22.7713 28.1477 22.9142 28.0423 23.0196C27.9369 23.125 27.794 23.1843 27.6449 23.1845C27.5709 23.1854 27.4973 23.1714 27.4287 23.1435C27.3601 23.1156 27.2978 23.0742 27.2454 23.0218C27.193 22.9694 27.1516 22.9071 27.1237 22.8385C27.0957 22.7699 27.0818 22.6963 27.0827 22.6223V19.5245C27.0817 19.343 27.0414 19.1639 26.9647 18.9994C26.8879 18.835 26.7766 18.689 26.6382 18.5716C26.4998 18.4542 26.3377 18.3681 26.1629 18.3192C25.9882 18.2703 25.8049 18.2597 25.6257 18.2882C25.0094 18.3882 24.5849 18.9704 24.5849 19.5949V22.6215C24.5847 22.7706 24.5254 22.9135 24.42 23.0189C24.3146 23.1243 24.1718 23.1835 24.0227 23.1837C23.9486 23.1846 23.8751 23.1707 23.8065 23.1428C23.7379 23.1148 23.6756 23.0735 23.6232 23.0211C23.5708 22.9687 23.5294 22.9063 23.5015 22.8377C23.4735 22.7691 23.4596 22.6956 23.4605 22.6215V19.0067C23.4605 18.2623 22.8086 17.66 22.0212 17.7763C21.3997 17.8674 20.9627 18.4437 20.9627 19.0719V22.6223C20.9636 22.6963 20.9497 22.7699 20.9217 22.8385C20.8938 22.9071 20.8524 22.9694 20.8 23.0218C20.7476 23.0742 20.6853 23.1156 20.6167 23.1435C20.5481 23.1714 20.4746 23.1854 20.4005 23.1845C20.2514 23.1843 20.1085 23.125 20.0032 23.0196C19.8978 22.9142 19.8385 22.7713 19.8383 22.6223V13.6519C19.8379 13.4518 19.7895 13.2547 19.6969 13.0773C19.6044 12.8999 19.4706 12.7473 19.3067 12.6325C19.1429 12.5177 18.9538 12.4439 18.7555 12.4175C18.5571 12.3911 18.3553 12.4128 18.1672 12.4808C17.6494 12.6637 17.3405 13.2008 17.3405 13.7497V22.9593C17.3424 23.0845 17.302 23.2067 17.2258 23.3061C17.1495 23.4055 17.0419 23.4762 16.9205 23.5067C16.7976 23.5379 16.6678 23.5268 16.552 23.475C16.4363 23.4233 16.3414 23.3339 16.2827 23.2215C16.0879 22.8615 15.9753 22.5089 15.8701 22.2015C15.1657 20.1097 13.0479 19.68 11.7901 20.7467C11.5427 20.9571 11.5049 21.2867 11.6923 21.5119C12.7049 22.7497 14.5197 25.2245 15.2997 27.9097C15.7279 29.3889 16.6842 30.7445 17.6123 31.6319C18.1109 32.1082 18.7879 32.3497 19.4775 32.3497H27.4553C28.3479 32.3497 29.196 31.9304 29.7138 31.203C30.3249 30.3445 30.6975 29.1815 30.6975 27.7149V20.5149C30.6975 19.8474 30.1575 19.2697 29.4523 19.2697ZM29.7909 33.8378V37.4126C29.7909 37.5095 29.7524 37.6024 29.6839 37.6709C29.6154 37.7393 29.5225 37.7778 29.4257 37.7778H17.9309C17.834 37.7778 17.7411 37.7393 17.6726 37.6709C17.6041 37.6024 17.5657 37.5095 17.5657 37.4126V33.8378C17.5657 33.6363 17.7294 33.4726 17.9309 33.4726H29.4257C29.6279 33.4726 29.7909 33.6363 29.7909 33.8378Z" fill="white"/>
<path d="M28.2591 12.1148C28.2591 12.9622 27.5613 13.6444 26.7139 13.6444C26.0991 13.6444 25.5739 13.2844 25.3265 12.7592H22.9865C22.8908 13.3826 22.6599 13.9775 22.3101 14.5022C21.9603 15.027 21.4999 15.4689 20.9613 15.797V13.6518C20.9611 13.0424 20.7266 12.4565 20.3063 12.0153C19.886 11.574 19.3122 11.3113 18.7036 11.2814H18.591C17.3087 11.2814 16.2132 12.414 16.2132 13.7488V15.6162C15.7395 15.2844 15.3378 14.8601 15.0323 14.369C14.7268 13.8779 14.5237 13.3301 14.4354 12.7585H12.2458C12.2162 12.7585 12.2006 12.7511 12.1784 12.7511C12.0188 13.0279 11.7773 13.2486 11.4873 13.3829C11.1972 13.5171 10.8728 13.5582 10.5584 13.5007C10.1585 13.4271 9.80428 13.1976 9.57355 12.8629C9.34282 12.5281 9.2545 12.1154 9.32801 11.7155C9.40102 11.3149 9.62998 10.9595 9.96465 10.7275C10.2993 10.4954 10.7124 10.4056 11.1132 10.4777C11.7354 10.5903 12.2006 11.0629 12.3436 11.6325H14.4139C14.4979 10.8672 14.7826 10.1377 15.2391 9.51773L13.7613 8.03995C13.731 8.01032 13.7087 7.96514 13.6865 7.92736C13.4626 7.99249 13.2266 8.00542 12.9969 7.96514C12.5972 7.89032 12.2431 7.66095 12.0114 7.32677C11.7796 6.99258 11.689 6.58052 11.7591 6.17995C11.9169 5.33995 12.7191 4.79254 13.5517 4.94217C14.3843 5.0918 14.9465 5.89477 14.7969 6.73477C14.7598 6.92482 14.6858 7.10577 14.5791 7.26736L16.0191 8.70736C16.6367 8.21868 17.3758 7.90753 18.1569 7.80736V5.23699C18.1569 5.22217 18.1643 5.20736 18.1643 5.1918C17.8755 5.07948 17.6273 4.88268 17.4521 4.62711C17.2768 4.37154 17.1828 4.06908 17.1821 3.75921C17.1821 2.9118 17.8717 2.22217 18.7117 2.22217C19.1213 2.22099 19.5146 2.38215 19.8056 2.67037C20.0966 2.9586 20.2616 3.35039 20.2643 3.75995C20.2643 4.41254 19.8443 4.96736 19.2739 5.19254C19.2739 5.20736 19.2813 5.22291 19.2813 5.23773V7.81032C20.0601 7.91009 20.7967 8.22136 21.411 8.71032L22.9858 7.13551C22.9932 7.13551 22.9932 7.13551 22.9932 7.1281C22.8786 6.89475 22.8253 6.63607 22.8384 6.37643C22.8514 6.1168 22.9304 5.86476 23.0678 5.64407C23.2052 5.42339 23.3965 5.24131 23.6237 5.11502C23.8509 4.98872 24.1066 4.92235 24.3665 4.92217C25.2213 4.92217 25.9191 5.6044 25.9191 6.4518C25.9184 6.70282 25.8565 6.94987 25.7387 7.17154C25.6209 7.39322 25.4509 7.58283 25.2433 7.72395C25.0357 7.86507 24.7968 7.95344 24.5474 7.9814C24.2979 8.00936 24.0454 7.97606 23.8117 7.8844C23.8043 7.89921 23.7969 7.91403 23.7821 7.92958L22.1843 9.52736C22.6454 10.1427 22.9329 10.8704 23.0169 11.6348H25.2591C25.3593 11.3277 25.5539 11.0601 25.8151 10.8701C26.0764 10.6802 26.3909 10.5776 26.7139 10.577C26.9164 10.5764 27.117 10.6157 27.3042 10.6927C27.4915 10.7697 27.6617 10.8828 27.8052 11.0256C27.9487 11.1685 28.0627 11.3382 28.1406 11.525C28.2184 11.7119 28.2587 11.9123 28.2591 12.1148Z" fill="white"/>
</svg>
