<svg width="40" height="40" viewBox="0 0 40 40" fill="none" xmlns="http://www.w3.org/2000/svg">
<path d="M22.3187 31.7375C22.2298 31.646 22.1145 31.5847 21.9889 31.5623C21.8633 31.5399 21.7338 31.5574 21.6187 31.6125C20.325 32.2 18.9438 32.5 17.5 32.5C11.9875 32.5 7.5 28.0125 7.5 22.5C7.5 16.9875 11.9875 12.5 17.5 12.5C17.8438 12.5 18.125 12.2188 18.125 11.875V6.875C18.125 6.53125 17.8438 6.25 17.5 6.25C8.5375 6.25 1.25 13.5375 1.25 22.5C1.25 31.4625 8.5375 38.75 17.5 38.75C20.4688 38.75 23.375 37.9437 25.9 36.4188C26.0625 36.3187 26.175 36.15 26.2 35.9625C26.225 35.775 26.1562 35.5812 26.0188 35.4437L22.3187 31.7438V31.7375ZM17.5 37.5C9.23125 37.5 2.5 30.7687 2.5 22.5C2.5 14.2313 8.89375 7.84375 16.875 7.5125V11.2688C10.9625 11.5938 6.25 16.5063 6.25 22.5C6.25 28.4937 11.2937 33.75 17.5 33.75C18.9688 33.75 20.3938 33.475 21.7313 32.925L24.55 35.7437C22.3776 36.899 19.9543 37.5022 17.4937 37.5H17.5ZM37.5 18.75C37.5 19.0938 37.2188 19.375 36.875 19.375H27.4438C27.1812 19.375 26.95 19.2125 26.8563 18.9688C26.3547 17.6398 25.5758 16.433 24.5714 15.4286C23.567 14.4242 22.3602 13.6453 21.0312 13.1438C20.7875 13.05 20.625 12.8188 20.625 12.5562V3.125C20.625 2.78125 20.9062 2.5 21.25 2.5C23.8062 2.5 26.225 3.09375 28.375 4.15L26.3 9.1375C26.1625 9.45 26.3187 9.81875 26.6375 9.95C26.7125 9.9875 26.7938 10 26.875 10C27.1187 10 27.35 9.85625 27.45 9.6125L29.4812 4.74375C34.275 7.56875 37.5 12.7875 37.5 18.75Z" fill="white"/>
<path d="M33.1258 21.875H28.1258C27.782 21.875 27.5008 22.1562 27.5008 22.5C27.5008 25.1688 26.4633 27.6813 24.5695 29.5688C24.3258 29.8125 24.3258 30.2125 24.5695 30.4562L28.107 33.9938C28.232 34.1125 28.3883 34.175 28.5508 34.175C28.7133 34.175 28.8695 34.1125 28.9945 33.9938C32.0633 30.925 33.7508 26.8438 33.7508 22.5C33.7508 22.1562 33.4695 21.875 33.1258 21.875ZM32.5008 1.875C32.5008 2.21875 32.2195 2.5 31.8758 2.5H30.4195L29.482 4.74375C29.1258 4.53125 28.757 4.33125 28.3758 4.15L29.4258 1.6375C29.5195 1.4 29.7508 1.25 30.0008 1.25H31.8758C32.2195 1.25 32.5008 1.53125 32.5008 1.875ZM38.1258 2.5H34.3758C34.032 2.5 33.7508 2.21875 33.7508 1.875C33.7508 1.53125 34.032 1.25 34.3758 1.25H38.1258C38.4695 1.25 38.7508 1.53125 38.7508 1.875C38.7508 2.21875 38.4695 2.5 38.1258 2.5ZM38.1258 5H34.3758C34.032 5 33.7508 4.71875 33.7508 4.375C33.7508 4.03125 34.032 3.75 34.3758 3.75H38.1258C38.4695 3.75 38.7508 4.03125 38.7508 4.375C38.7508 4.71875 38.4695 5 38.1258 5Z" fill="white"/>
<path d="M17.5 23.75C18.1904 23.75 18.75 23.1904 18.75 22.5C18.75 21.8096 18.1904 21.25 17.5 21.25C16.8096 21.25 16.25 21.8096 16.25 22.5C16.25 23.1904 16.8096 23.75 17.5 23.75Z" fill="white"/>
<path d="M24.8875 22.1375C24.7562 21.95 21.575 17.5 17.5 17.5C13.425 17.5 10.25 21.95 10.1125 22.1375C9.9625 22.35 9.9625 22.6438 10.1125 22.8563C10.2437 23.0438 13.425 27.4938 17.5 27.4938C21.575 27.4938 24.75 23.0438 24.8875 22.8563C25.0375 22.6438 25.0375 22.35 24.8875 22.1375ZM17.5 25C16.1188 25 15 23.8813 15 22.5C15 21.1188 16.1188 20 17.5 20C18.8813 20 20 21.1188 20 22.5C20 23.8813 18.8813 25 17.5 25Z" fill="white"/>
</svg>
