<svg width="40" height="40" viewBox="0 0 40 40" fill="none" xmlns="http://www.w3.org/2000/svg">
<path d="M5.875 6.97654H35.5969V2.74451H5.875V6.97654ZM8.87813 5.29763C8.61875 5.29763 8.40859 5.08982 8.40859 4.83044C8.40859 4.57107 8.61875 4.36091 8.87813 4.36091H8.99141C9.25078 4.36091 9.46094 4.57107 9.46094 4.83044C9.46094 5.08982 9.25078 5.29763 8.99141 5.29763H8.87813ZM11.9297 5.29763C11.6703 5.29763 11.4602 5.08982 11.4602 4.83044C11.4602 4.57107 11.6703 4.36091 11.9297 4.36091H12.043C12.3 4.36091 12.5102 4.57107 12.5102 4.83044C12.5102 5.08982 12.3 5.29763 12.043 5.29763H11.9297ZM14.9789 5.29763C14.7195 5.29763 14.5117 5.08982 14.5117 4.83044C14.5117 4.57107 14.7195 4.36091 14.9789 4.36091H15.0922C15.3516 4.36091 15.5617 4.57107 15.5617 4.83044C15.5617 5.08982 15.3516 5.29763 15.0922 5.29763H14.9789ZM10.3797 10.3515H15.8539C16.7906 10.3515 17.5547 11.1133 17.5547 12.05V17.1836C17.5547 18.1179 16.7906 18.882 15.8539 18.882H10.3797C9.44297 18.882 8.67891 18.1179 8.67891 17.1836V12.05C8.67891 11.1133 9.44297 10.3515 10.3797 10.3515ZM15.2586 11.2883V15.2078H15.2563C15.2563 15.6156 14.7648 15.8281 14.468 15.5445L13.1172 14.2515L11.8016 15.5117C11.4672 15.864 10.9758 15.6047 10.9758 15.2086V11.289H10.3797C9.96094 11.289 9.61797 11.632 9.61797 12.0508V17.1844C9.61797 17.6008 9.96094 17.9461 10.3797 17.9461H15.8539C16.2727 17.9461 16.6156 17.6008 16.6156 17.1844V12.0508C16.6156 11.632 16.2727 11.289 15.8539 11.289H15.2586V11.2883ZM14.3211 11.2883H11.9117V14.114L12.793 13.2703C12.9742 13.0976 13.2602 13.0976 13.4375 13.2703L14.3211 14.114V11.2883ZM25.618 10.3515H31.0922C32.0289 10.3515 32.793 11.1133 32.793 12.05V17.1836C32.793 18.1179 32.0289 18.882 31.0922 18.882H25.618C24.6812 18.882 23.9195 18.1179 23.9195 17.1836V12.05C23.9195 11.1133 24.6812 10.3515 25.618 10.3515ZM30.4992 11.2883V15.2078H30.4945C30.4945 15.6156 30.0055 15.8281 29.7062 15.5445L28.3555 14.2515L27.0398 15.5117C26.7078 15.864 26.2141 15.6047 26.2141 15.2086V11.289H25.618C25.1992 11.289 24.8563 11.632 24.8563 12.0508V17.1844C24.8563 17.6008 25.1992 17.9461 25.618 17.9461H31.0922C31.5109 17.9461 31.8539 17.6008 31.8539 17.1844V12.0508C31.8539 11.632 31.5109 11.289 31.0922 11.289H30.4992V11.2883ZM29.5602 11.2883H27.1508V14.114L28.0344 13.2703C28.1211 13.1872 28.2365 13.1407 28.3566 13.1407C28.4768 13.1407 28.5922 13.1872 28.6789 13.2703L29.5602 14.114V11.2883ZM22.0703 22.2351L22.4758 23.3133C23.071 23.4703 23.6424 23.7071 24.1742 24.0172L25.1992 23.5523C25.3742 23.457 25.6 23.4859 25.7484 23.6343L27.0148 24.9008V24.9031C27.1477 25.0359 27.1922 25.2445 27.1102 25.4258L26.6344 26.4758C26.9445 27.007 27.1789 27.5765 27.3367 28.1765L28.3773 28.5664C28.6344 28.6508 28.7203 28.8273 28.7203 29.0844H35.5969V7.91326H5.875V29.0844H12.7516V29.0179H12.7539C12.7539 28.8297 12.8688 28.65 13.057 28.582L14.1352 28.1765C14.2906 27.5802 14.5269 27.008 14.8375 26.4758L14.3727 25.4523C14.2797 25.275 14.3086 25.0515 14.457 24.9008L15.7234 23.6343C15.7912 23.5674 15.8775 23.5225 15.9712 23.5055C16.0649 23.4885 16.1615 23.5002 16.2484 23.539L17.2984 24.0172C17.8297 23.707 18.3969 23.4703 18.9992 23.3133L19.3891 22.2726C19.4445 22.0758 19.6258 21.9297 19.8406 21.9297H21.632V21.932C21.8219 21.9312 21.9992 22.0468 22.0703 22.2351ZM21.6875 23.8711L21.3086 22.8679H20.1633C19.5164 24.5906 19.9305 23.8711 18.482 24.4711C17.0289 25.0734 17.8375 25.2906 16.157 24.5265L15.3484 25.3351L15.7938 26.3164C15.8602 26.4648 15.8422 26.6312 15.7625 26.7593C15.3992 27.3304 15.1313 27.9687 14.9852 28.6281C14.95 28.7875 14.8367 28.9093 14.693 28.9648L13.6875 29.3414V30.4883L14.693 30.8648C14.85 30.925 14.9563 31.0578 14.9875 31.2101C15.1273 31.8547 15.4086 32.5101 15.7625 33.0703C15.8055 33.1387 15.8301 33.2171 15.834 33.2979C15.8378 33.3786 15.8207 33.459 15.7844 33.5312L15.3484 34.4945L16.157 35.3031L17.1383 34.8578C17.2867 34.789 17.4523 34.807 17.5812 34.889C18.1508 35.2523 18.7883 35.5179 19.4484 35.664C19.6102 35.6992 19.732 35.8148 19.7852 35.9562L20.1641 36.9617H21.3094C21.9586 35.2367 21.5437 35.9586 22.9898 35.3586C24.443 34.7562 23.6344 34.539 25.3148 35.3031L26.1258 34.4945L25.6781 33.5133C25.6117 33.3625 25.6297 33.1984 25.7117 33.0703H25.7094C26.0752 32.4973 26.3383 31.8649 26.4867 31.2015C26.5219 31.0422 26.6352 30.9179 26.7789 30.8648L27.7844 30.4883V29.3414C26.0617 28.6945 26.7789 29.1086 26.1789 27.6601C25.5789 26.207 25.3617 27.0179 26.1258 25.3351L25.3148 24.5265L24.3336 24.9719C24.1852 25.0383 24.0187 25.0226 23.8906 24.9406C23.3195 24.5773 22.6859 24.3117 22.0234 24.1656C21.8617 24.1304 21.7406 24.0156 21.6875 23.8711ZM22.9273 27.725C21.7156 26.5156 19.7562 26.5156 18.5445 27.725C17.3352 28.9344 17.3352 30.8961 18.5445 32.1054C19.7562 33.3148 21.7156 33.3148 22.9273 32.1054C24.1367 30.8961 24.1367 28.9336 22.9273 27.725ZM20.7367 25.8797C22.9648 25.8797 24.7719 27.6867 24.7719 29.9148C24.7719 32.1429 22.9648 33.95 20.7367 33.95C18.507 33.95 16.6992 32.1429 16.6992 29.9148C16.7 27.6867 18.507 25.8797 20.7367 25.8797ZM13.3008 22.8086C13.482 22.9922 13.482 23.289 13.3008 23.4711C13.2572 23.5147 13.2055 23.5494 13.1485 23.573C13.0915 23.5966 13.0304 23.6088 12.9688 23.6088C12.9071 23.6088 12.846 23.5966 12.789 23.573C12.732 23.5494 12.6803 23.5147 12.6367 23.4711L12.2023 23.0367L11.7664 23.4711C11.5828 23.6547 11.2859 23.6547 11.1039 23.4711C10.9203 23.2898 10.9203 22.9929 11.1039 22.8086L11.5383 22.3726L11.1039 21.9383C11.0603 21.8947 11.0256 21.8429 11.002 21.786C10.9784 21.729 10.9662 21.6679 10.9662 21.6062C10.9662 21.5445 10.9784 21.4835 11.002 21.4265C11.0256 21.3695 11.0603 21.3178 11.1039 21.2742C11.2852 21.0929 11.582 21.0929 11.7664 21.2742L12.2023 21.7101L12.6367 21.2742C12.7253 21.1871 12.8445 21.1382 12.9688 21.1382C13.093 21.1382 13.2122 21.1871 13.3008 21.2742C13.3879 21.3627 13.4367 21.482 13.4367 21.6062C13.4367 21.7305 13.3879 21.8497 13.3008 21.9383L12.8648 22.3726L13.3008 22.8086ZM30.3039 21.2734C30.4852 21.0922 30.782 21.0922 30.9664 21.2734C31.0101 21.317 31.0447 21.3687 31.0683 21.4257C31.0919 21.4827 31.1041 21.5438 31.1041 21.6054C31.1041 21.6671 31.0919 21.7282 31.0683 21.7852C31.0447 21.8421 31.0101 21.8939 30.9664 21.9375L29.432 23.4703C29.2391 23.6633 28.9273 23.6562 28.7367 23.4351L28.0102 22.6359C27.8352 22.4453 27.8508 22.1484 28.0414 21.9758C28.232 21.8008 28.5289 21.8164 28.7016 22.007L29.118 22.4609L30.3039 21.2734Z" fill="white"/>
</svg>
