<svg width="40" height="40" viewBox="0 0 40 40" fill="none" xmlns="http://www.w3.org/2000/svg">
<path d="M37.2355 26.9773V26.6586H2.86133V26.9773C2.86133 28.607 4.1082 30.0156 5.72227 30.0156H34.3746C35.9863 30.0156 37.2355 28.607 37.2355 26.9773ZM2.86133 25.8789H37.2355V6.0406C37.2355 4.41091 35.9863 3.00232 34.3746 3.00232H5.72227C4.1082 3.00232 2.86133 4.41091 2.86133 6.0406V25.8789ZM29.7793 34.1883H11.9434C11.3496 34.1883 10.8652 34.6758 10.8652 35.2664V35.8687C10.8652 36.4625 11.3504 36.9469 11.9434 36.9469H29.7793C30.3707 36.9469 30.8574 36.4617 30.8574 35.8687V35.2664C30.8574 34.675 30.3707 34.1883 29.7793 34.1883ZM17.3598 33.4062H24.3621V30.7976H17.3598V33.4062ZM9.73086 10.5054H5.66289V12.9437H9.73086V10.5054ZM5.2707 9.72341H10.1207C10.3355 9.72341 10.5105 9.89841 10.5105 10.1133V13.3351C10.5105 13.55 10.3355 13.725 10.1207 13.725H5.2707C5.05586 13.725 4.88086 13.55 4.88086 13.3351V10.1133C4.88086 9.89841 5.05586 9.72341 5.2707 9.72341ZM9.73086 15.9383H5.66289V18.3765H9.73086V15.9383ZM5.2707 15.1562H10.1207C10.3355 15.1562 10.5105 15.3312 10.5105 15.5484V18.7687C10.5105 18.9836 10.3355 19.1586 10.1207 19.1586H5.2707C5.05586 19.1586 4.88086 18.9836 4.88086 18.7687V15.5484C4.88086 15.3312 5.05586 15.1562 5.2707 15.1562ZM9.73086 21.3703H5.66289V23.8109H9.73086V21.3703ZM5.2707 20.5883H10.1207C10.3355 20.5883 10.5105 20.7633 10.5105 20.9804V24.2008C10.5105 24.4156 10.3355 24.5906 10.1207 24.5906H5.2707C5.05586 24.5906 4.88086 24.4156 4.88086 24.2008V20.9804C4.88086 20.7633 5.05586 20.5883 5.2707 20.5883ZM9.73086 5.07107H5.66289V7.51169H9.73086V5.07107ZM5.2707 4.29138H10.1207C10.3355 4.29138 10.5105 4.46638 10.5105 4.68123V7.90154C10.5105 8.11873 10.3355 8.29373 10.1207 8.29373H5.2707C5.05586 8.29373 4.88086 8.11873 4.88086 7.90154V4.68123C4.88086 4.46638 5.05586 4.29138 5.2707 4.29138ZM34.4832 17.1445L28.9512 15.1117L27.9457 20.9179L29.766 19.8679C29.952 19.7594 30.191 19.8234 30.2973 20.0093L32.8332 24.3984L35.0543 23.1164L32.5207 18.7273C32.4145 18.5414 32.4785 18.3023 32.6645 18.1961L34.4832 17.1445ZM30.5652 22.0304L29.8191 20.739L27.5754 22.0304H30.5652ZM31.4355 15.1937L33.227 15.8539V10.2492C33.227 9.60701 32.6996 9.08201 32.0598 9.08201H31.4355V15.1937ZM22.9535 8.82888C22.9488 7.91638 22.2738 7.31404 21.3504 6.93123C20.0684 6.39998 18.0418 6.27107 16.7332 6.67654C16.284 6.81638 16.0309 7.23669 16.0309 7.70623V19.5476L20.6152 19.5453C21.5301 19.5453 22.2895 19.689 22.9535 20.2804V8.82888ZM23.7332 8.83591V20.2804C24.3957 19.689 25.1574 19.5453 26.0715 19.5453H27.391L28.2613 14.5203C28.3035 14.2726 28.5605 14.1351 28.7887 14.2211L30.6535 14.9078V7.70623C30.6535 7.22576 30.3988 6.81404 29.9379 6.67185C28.6355 6.27107 26.6113 6.40154 25.3363 6.93123C24.4113 7.31404 23.7332 7.92107 23.7332 8.83591ZM15.252 8.29998C15.252 7.6531 15.1988 7.16169 15.5934 6.59919C15.8191 6.27576 16.1426 6.03435 16.5301 5.92341C18.0777 5.48748 20.1488 5.58669 21.6504 6.21169C22.3699 6.50857 22.9746 6.93591 23.3449 7.50701C24.2527 6.10544 26.4785 5.65779 28.091 5.65779C28.877 5.65779 29.548 5.75076 30.177 5.93044C30.9434 6.14763 31.4371 6.90232 31.4371 7.70623V8.29998H32.0613C33.1332 8.29998 34.0082 9.17732 34.0082 10.2492V16.1398L35.534 16.7C35.8371 16.8133 35.8996 17.2445 35.5691 17.4172L34.0082 18.3187V19.7468L35.9238 23.0664C36.0324 23.2523 35.9684 23.489 35.7824 23.5953L32.8855 25.2672C32.6996 25.3758 32.4629 25.3117 32.3543 25.1258L31.0152 22.8117H14.627C13.5551 22.8117 12.6785 21.9344 12.6785 20.8633V10.2484C12.6785 9.17654 13.5559 8.29919 14.627 8.29919H15.252V8.29998ZM23.0488 21.4609L22.5152 20.9383C21.9949 20.4265 21.3723 20.3226 20.6152 20.3226L15.641 20.3273C15.4262 20.3273 15.2512 20.1523 15.2512 19.9375V9.08123H14.627C13.9871 9.08123 13.4598 9.60623 13.4598 10.2484V20.8625C13.4598 21.5047 13.9871 22.0297 14.627 22.0297H27.2652C27.1853 21.9948 27.1193 21.9343 27.0776 21.8578C27.0359 21.7813 27.0208 21.693 27.0348 21.607L27.2559 20.325L26.0707 20.3226C25.3137 20.3226 24.691 20.4265 24.1707 20.9383L23.6348 21.4609C23.4629 21.6445 23.202 21.6336 23.0488 21.4609Z" fill="white"/>
</svg>
