<svg width="40" height="40" viewBox="0 0 40 40" fill="none" xmlns="http://www.w3.org/2000/svg">
<g clip-path="url(#clip0_673_1795)">
<path d="M13.0605 17.3411L18.8368 20.6724V27.299L13.6181 24.2894C13.4485 24.1916 13.3077 24.0508 13.2098 23.8812C13.1119 23.7117 13.0604 23.5193 13.0605 23.3235V17.3411ZM25.7453 15.335L20.0081 18.6436L14.2327 15.3124L19.4123 12.3255C19.7576 12.1279 20.1812 12.1268 20.5258 12.3255L25.7453 15.335ZM26.9197 17.3622V23.3485C26.9197 23.7459 26.7073 24.1137 26.3622 24.3129L21.1794 27.3021V20.6724L26.9197 17.3622Z" fill="white"/>
<path d="M38.8631 15.7294L36.6954 15.631C36.2968 14.0982 35.6871 12.6283 34.8837 11.2635L36.3487 9.65955C36.7711 9.19727 36.7547 8.48432 36.312 8.04078L31.9406 3.66938C31.497 3.22662 30.7848 3.21022 30.3218 3.63268L28.7178 5.09762C27.353 4.29424 25.8831 3.68452 24.3504 3.28597L24.252 1.11823C24.2239 0.492739 23.7085 0 23.0822 0H16.8991C16.2729 0 15.7575 0.492739 15.7294 1.11823L15.631 3.28597C14.0982 3.68452 12.6283 4.29424 11.2635 5.09762L9.65955 3.63268C9.19727 3.21022 8.48432 3.22662 8.04078 3.66938L3.66938 8.04078C3.22662 8.48432 3.21022 9.19727 3.63268 9.65955L5.09762 11.2635C4.29424 12.6283 3.68452 14.0982 3.28597 15.631L1.11823 15.7294C0.492739 15.7575 0 16.2729 0 16.8991V23.0822C0 23.7085 0.492739 24.2239 1.11823 24.252L3.28597 24.3504C3.68452 25.8831 4.29424 27.353 5.09762 28.7178L3.63268 30.3218C3.21022 30.7841 3.22662 31.497 3.66938 31.9406L8.04078 36.312C8.48354 36.7547 9.19649 36.7711 9.65955 36.3487L11.2635 34.8837C12.6283 35.6871 14.0982 36.2968 15.631 36.6954L15.7294 38.8631C15.7575 39.4886 16.2729 39.9813 16.8991 39.9813H23.0822C23.7085 39.9813 24.2239 39.4886 24.252 38.8631L24.3504 36.6954C25.8831 36.2968 27.353 35.6871 28.7178 34.8837L30.3218 36.3487C30.7841 36.7711 31.497 36.7547 31.9406 36.312L36.312 31.9406C36.7547 31.497 36.7711 30.7841 36.3487 30.3218L34.8837 28.7178C35.6871 27.353 36.2968 25.8831 36.6954 24.3504L38.8631 24.252C39.4886 24.2239 39.9813 23.7085 39.9813 23.0822V16.8991C39.9813 16.2729 39.4886 15.7575 38.8631 15.7294ZM24.0677 30.6427C22.8019 31.1284 21.4275 31.3939 19.9907 31.3939C16.315 31.3939 13.0463 29.6549 10.9613 26.9554C9.47292 25.0289 8.5874 22.6129 8.5874 19.9907C8.58271 13.6905 13.71 8.58115 19.9907 8.5874C26.2104 8.59052 31.3893 13.7459 31.3939 19.9821C31.3971 24.847 28.3547 29.0021 24.0677 30.6427Z" fill="white"/>
</g>
<defs>
<clipPath id="clip0_673_1795">
<rect width="40" height="40" fill="white"/>
</clipPath>
</defs>
</svg>
