<svg width="40" height="40" viewBox="0 0 40 40" fill="none" xmlns="http://www.w3.org/2000/svg">
<path d="M10.4164 12.5C10.4164 7.66667 14.3498 3.75 19.1664 3.75C23.9831 3.75 27.9164 7.66667 27.9164 12.5C27.9164 13.85 27.6164 15.1333 27.0498 16.2667C26.9164 16.25 26.7831 16.25 26.6498 16.25C24.1747 16.2577 21.7827 17.1436 19.8998 18.75C19.0831 19.4333 18.3998 20.2333 17.8331 21.1333C16.1998 20.9 14.6998 20.1833 13.4998 19.15C12.5312 18.3341 11.7531 17.3159 11.2204 16.167C10.6877 15.0181 10.4133 13.7664 10.4164 12.5ZM35.8831 35.8833C35.6487 36.1174 35.331 36.2489 34.9998 36.2489C34.6685 36.2489 34.3508 36.1174 34.1164 35.8833L31.2848 33.0517C31.0781 33.2 30.8898 33.3683 30.6664 33.5C29.7699 34.0281 28.7775 34.373 27.7467 34.5149C26.716 34.6568 25.6673 34.5929 24.6614 34.3267C23.6549 34.0658 22.7102 33.6081 21.8817 32.9799C21.0532 32.3516 20.3575 31.5654 19.8348 30.6667C19.3067 29.7701 18.9617 28.7778 18.8198 27.747C18.6779 26.7162 18.7419 25.6675 19.0081 24.6617C19.2689 23.6552 19.7267 22.7104 20.3549 21.8819C20.9831 21.0535 21.7693 20.3577 22.6681 19.835C24.4809 18.7774 26.6391 18.4818 28.6695 19.0129C30.7 19.5441 32.437 20.8586 33.4998 22.6683C34.2797 23.9924 34.6548 25.5159 34.5787 27.0508C34.5026 28.5856 33.9786 30.0646 33.0714 31.305L35.8848 34.1183C36.0009 34.2344 36.0931 34.3723 36.1559 34.524C36.2188 34.6757 36.2512 34.8383 36.2512 35.0025C36.2512 35.1667 36.2188 35.3293 36.1559 35.481C36.0931 35.6327 36.0009 35.7706 35.8848 35.8867L35.8831 35.8833ZM31.9064 28.0383C32.1782 27.0016 32.1362 25.9075 31.7859 24.8946C31.4356 23.8817 30.7927 22.9954 29.9385 22.3481C29.0843 21.7007 28.0573 21.3213 26.9874 21.2578C25.9175 21.1944 24.8528 21.4498 23.9281 21.9917C22.6798 22.7217 21.7898 23.895 21.4231 25.2933C21.0564 26.6917 21.2581 28.1533 21.9898 29.4017C22.7214 30.65 23.8931 31.54 25.2914 31.9067C26.6948 32.2717 28.1514 32.0717 29.3998 31.34C30.6481 30.6083 31.5398 29.4367 31.9064 28.0383ZM17.6814 31.9333C16.9838 30.7551 16.5273 29.4499 16.3385 28.0937C16.1496 26.7375 16.2322 25.3573 16.5814 24.0333C16.6314 23.85 16.6814 23.6667 16.7481 23.4833C14.943 23.0918 13.2643 22.2554 11.8648 21.05C11.5148 20.7667 11.1981 20.45 10.8814 20.1167C9.64809 20.7333 8.53143 21.5333 7.53143 22.5333C6.32829 23.73 5.37442 25.1534 4.72501 26.7211C4.0756 28.2888 3.74356 29.9698 3.74809 31.6667C3.74809 34.2 5.79809 36.25 8.33143 36.25H22.6148C20.5388 35.3953 18.8042 33.8774 17.6814 31.9333Z" fill="white"/>
</svg>
