<svg width="30" height="30" viewBox="0 0 30 30" fill="none" xmlns="http://www.w3.org/2000/svg">
<path fill-rule="evenodd" clip-rule="evenodd" d="M21.0972 16.0814C19.8118 16.0814 19.1669 17.6386 20.0758 18.5475C20.1562 18.6279 20.2013 18.737 20.2013 18.8507C20.2013 18.9644 20.1562 19.0735 20.0758 19.1539L19.1527 20.077C19.0723 20.1574 18.9632 20.2025 18.8495 20.2025C18.7358 20.2025 18.6267 20.1574 18.5463 20.077C17.6375 19.1681 16.0803 19.8133 16.0803 21.0984C16.0802 21.2121 16.0351 21.3212 15.9547 21.4016C15.8742 21.482 15.7652 21.5272 15.6515 21.5272H14.3461C14.2898 21.5272 14.2341 21.5161 14.182 21.4945C14.13 21.473 14.0827 21.4414 14.0429 21.4016C14.0031 21.3618 13.9715 21.3145 13.95 21.2625C13.9284 21.2105 13.9173 21.1547 13.9173 21.0984C13.9173 19.8114 12.3613 19.1669 11.4513 20.077C11.3709 20.1574 11.2618 20.2025 11.1481 20.2025C11.0344 20.2025 10.9253 20.1574 10.8449 20.077L9.92183 19.1539C9.84143 19.0735 9.79627 18.9644 9.79627 18.8507C9.79627 18.737 9.84143 18.6279 9.92183 18.5475C10.8307 17.6386 10.1855 16.0814 8.90036 16.0814C8.84406 16.0814 8.7883 16.0703 8.73629 16.0488C8.68427 16.0272 8.637 15.9957 8.59719 15.9558C8.55737 15.916 8.52579 15.8688 8.50425 15.8167C8.48271 15.7647 8.47162 15.709 8.47163 15.6527V14.3473C8.47162 14.291 8.48271 14.2352 8.50425 14.1832C8.52579 14.1312 8.55737 14.0839 8.59718 14.0441C8.637 14.0043 8.68426 13.9727 8.73628 13.9512C8.7883 13.9296 8.84406 13.9185 8.90036 13.9185C10.1857 13.9185 10.8307 12.3613 9.92183 11.4525C9.84143 11.3721 9.79627 11.263 9.79627 11.1493C9.79627 11.0356 9.84143 10.9265 9.92183 10.8461L10.8449 9.92301C10.9253 9.84262 11.0344 9.79745 11.1481 9.79745C11.2618 9.79745 11.3709 9.84262 11.4513 9.92301C12.3601 10.8319 13.9173 10.1867 13.9173 8.90155C13.9173 8.84524 13.9284 8.78949 13.95 8.73747C13.9715 8.68545 14.0031 8.63818 14.0429 8.59837C14.0827 8.55856 14.13 8.52698 14.182 8.50544C14.2341 8.48389 14.2898 8.47281 14.3461 8.47282H15.6515C15.7652 8.47282 15.8742 8.51799 15.9547 8.59839C16.0351 8.67879 16.0802 8.78784 16.0803 8.90155C16.0803 10.1869 17.6375 10.8319 18.5463 9.92301C18.6267 9.84262 18.7358 9.79745 18.8495 9.79745C18.9632 9.79745 19.0723 9.84262 19.1527 9.92301L20.0758 10.8461C20.1562 10.9265 20.2013 11.0356 20.2013 11.1493C20.2013 11.263 20.1562 11.3721 20.0758 11.4525C19.1669 12.3613 19.8121 13.9185 21.0972 13.9185C21.1535 13.9185 21.2093 13.9296 21.2613 13.9512C21.3133 13.9727 21.3606 14.0043 21.4004 14.0441C21.4402 14.0839 21.4718 14.1312 21.4933 14.1832C21.5149 14.2352 21.526 14.291 21.526 14.3473V15.6527C21.526 15.709 21.5149 15.7647 21.4933 15.8167C21.4718 15.8688 21.4402 15.916 21.4004 15.9558C21.3606 15.9957 21.3133 16.0272 21.2613 16.0488C21.2093 16.0703 21.1535 16.0814 21.0972 16.0814ZM6.18349 7.53708C4.41399 9.62071 3.44429 12.2664 3.44816 15C3.44816 21.3792 8.61958 26.5506 14.9988 26.5506H26.351C26.3821 26.5506 26.4119 26.563 26.4338 26.585C26.4558 26.6069 26.4682 26.6367 26.4682 26.6678V27.914C26.4682 27.9378 26.4754 27.961 26.4888 27.9805C26.5023 28.0001 26.5213 28.0151 26.5435 28.0236C26.5657 28.032 26.5899 28.0336 26.6129 28.028C26.636 28.0224 26.6568 28.01 26.6727 27.9923L28.9912 25.4054C29.0106 25.3839 29.0213 25.356 29.0213 25.3271C29.0213 25.2982 29.0106 25.2704 28.9912 25.2489L26.6727 22.662C26.6568 22.6443 26.636 22.6319 26.6129 22.6263C26.5899 22.6207 26.5657 22.6222 26.5435 22.6307C26.5213 22.6392 26.5023 22.6542 26.4888 22.6738C26.4754 22.6933 26.4682 22.7165 26.4682 22.7402V23.9864C26.4682 24.0175 26.4558 24.0473 26.4338 24.0693C26.4119 24.0912 26.3821 24.1036 26.351 24.1036H14.9988C13.0619 24.1035 11.1755 23.4857 9.61387 22.34C8.0522 21.1943 6.89665 19.5803 6.31519 17.7328C5.73374 15.8853 5.7567 13.9004 6.38072 12.0668C7.00475 10.2332 8.19732 8.64644 9.78507 7.53713L6.18349 7.53708ZM14.9988 5.89645C16.9357 5.89649 18.8221 6.51428 20.3837 7.66001C21.9454 8.80574 23.101 10.4197 23.6824 12.2672C24.2639 14.1148 24.2409 16.0996 23.6169 17.9332C22.9928 19.7668 21.8003 21.3536 20.2125 22.4629H23.8141C25.5836 20.3793 26.5533 17.7336 26.5494 15C26.5494 8.62077 21.378 3.44934 14.9988 3.44934H3.64661C3.61553 3.44934 3.58572 3.43699 3.56375 3.41502C3.54177 3.39304 3.52942 3.36323 3.52942 3.33215V2.08592C3.52942 2.0622 3.52222 2.03904 3.50877 2.0195C3.49533 1.99996 3.47627 1.98496 3.45412 1.97649C3.43196 1.96801 3.40776 1.96646 3.3847 1.97203C3.36165 1.9776 3.34083 1.99004 3.32499 2.0077L1.00661 4.59467C0.987268 4.61614 0.976562 4.644 0.976563 4.6729C0.976562 4.70179 0.987268 4.72966 1.00661 4.75112L3.32523 7.33803C3.34106 7.35569 3.36188 7.36813 3.38494 7.3737C3.40799 7.37928 3.4322 7.37772 3.45435 7.36924C3.4765 7.36077 3.49556 7.34577 3.50901 7.32623C3.52246 7.30669 3.52966 7.28353 3.52966 7.25981V6.01364C3.52966 5.98256 3.54201 5.95275 3.56398 5.93077C3.58596 5.9088 3.61577 5.89645 3.64685 5.89645H14.9988ZM8.6248 26.5507H3.64661C3.61553 26.5507 3.58572 26.5631 3.56375 26.5851C3.54177 26.607 3.52942 26.6369 3.52942 26.6679V27.914C3.52942 27.9378 3.52222 27.9609 3.50877 27.9805C3.49533 28 3.47627 28.015 3.45412 28.0235C3.43196 28.032 3.40776 28.0335 3.3847 28.0279C3.36165 28.0224 3.34083 28.0099 3.32499 27.9923L1.00661 25.4053C0.987268 25.3838 0.976562 25.356 0.976563 25.3271C0.976562 25.2982 0.987268 25.2703 1.00661 25.2489L3.32523 22.6619C3.34106 22.6443 3.36188 22.6318 3.38494 22.6263C3.40799 22.6207 3.4322 22.6222 3.45435 22.6307C3.4765 22.6392 3.49556 22.6542 3.50901 22.6737C3.52246 22.6933 3.52966 22.7164 3.52966 22.7402V23.9863C3.52966 24.0174 3.54201 24.0472 3.56398 24.0692C3.58596 24.0912 3.61577 24.1035 3.64685 24.1035H5.45276C6.37993 25.0753 7.4495 25.9005 8.6248 26.5506V26.5507ZM24.5447 5.89645C23.6176 4.9246 22.548 4.09946 21.3727 3.44934H26.3509C26.382 3.44934 26.4118 3.43699 26.4337 3.41502C26.4557 3.39304 26.4681 3.36323 26.4681 3.33215V2.08592C26.4681 2.0622 26.4753 2.03904 26.4887 2.0195C26.5022 1.99996 26.5212 1.98496 26.5434 1.97649C26.5655 1.96801 26.5897 1.96646 26.6128 1.97203C26.6358 1.9776 26.6567 1.99004 26.6725 2.0077L28.991 4.59467C29.0103 4.61614 29.021 4.644 29.021 4.6729C29.021 4.70179 29.0103 4.72966 28.991 4.75112L26.6724 7.33803C26.6565 7.35569 26.6357 7.36813 26.6127 7.3737C26.5896 7.37928 26.5654 7.37772 26.5432 7.36924C26.5211 7.36077 26.502 7.34577 26.4886 7.32623C26.4751 7.30669 26.4679 7.28353 26.4679 7.25981V6.01364C26.4679 5.98256 26.4556 5.95275 26.4336 5.93077C26.4116 5.9088 26.3818 5.89645 26.3508 5.89645H24.5447ZM14.9988 11.8103C14.3679 11.8103 13.7512 11.9973 13.2267 12.3478C12.7021 12.6983 12.2933 13.1965 12.0519 13.7793C11.8105 14.3622 11.7473 15.0035 11.8704 15.6223C11.9934 16.241 12.2972 16.8094 12.7433 17.2555C13.1894 17.7016 13.7578 18.0053 14.3765 18.1284C14.9953 18.2515 15.6366 18.1883 16.2195 17.9469C16.8023 17.7055 17.3005 17.2967 17.651 16.7721C18.0015 16.2476 18.1885 15.6309 18.1885 15C18.1885 14.154 17.8525 13.3427 17.2543 12.7445C16.6561 12.1463 15.8448 11.8103 14.9988 11.8103Z" fill="#386BB7"/>
</svg>
