<svg width="30" height="30" viewBox="0 0 30 30" fill="none" xmlns="http://www.w3.org/2000/svg">
<path d="M26.9531 22.7344H12.4219C11.9041 22.7344 11.4844 23.1541 11.4844 23.6719V26.9531C11.4844 27.4709 11.9041 27.8906 12.4219 27.8906H26.9531C27.4709 27.8906 27.8906 27.4709 27.8906 26.9531V23.6719C27.8906 23.1541 27.4709 22.7344 26.9531 22.7344Z" fill="#FF4D69"/>
<path d="M12.6 24.0094C12.478 24.0919 12.3348 24.1375 12.1875 24.1406C12.0762 24.1398 11.9666 24.1131 11.8674 24.0626C11.7681 24.0122 11.6819 23.9394 11.6156 23.85L10.7063 22.2563C11.209 22.2331 11.7082 22.1609 12.1969 22.0406L12.7594 23.025C12.8669 23.1773 12.9104 23.3657 12.8806 23.5497C12.8508 23.7337 12.7501 23.8988 12.6 24.0094ZM18.5156 14.0625C18.5144 15.9095 17.8898 17.702 16.7431 19.1499C15.5963 20.5978 13.9945 21.6163 12.1969 22.0406L9.64687 17.5781C9.77924 17.3678 9.84764 17.1235 9.84375 16.875C9.84375 16.5969 9.76128 16.325 9.60675 16.0937C9.45223 15.8625 9.23261 15.6822 8.97565 15.5758C8.71869 15.4694 8.43594 15.4415 8.16315 15.4958C7.89037 15.55 7.6398 15.684 7.44313 15.8806C7.24646 16.0773 7.11253 16.3279 7.05827 16.6007C7.00401 16.8734 7.03186 17.1562 7.13829 17.4131C7.24473 17.6701 7.42497 17.8897 7.65623 18.0443C7.88749 18.1988 8.15937 18.2812 8.4375 18.2812L10.7063 22.2563C10.575 22.2656 10.4438 22.2656 10.3125 22.2656C8.1369 22.2656 6.0504 21.4014 4.51201 19.863C2.97363 18.3246 2.10937 16.2381 2.10938 14.0625C2.10937 11.8869 2.97363 9.8004 4.51201 8.26201C6.0504 6.72363 8.1369 5.85938 10.3125 5.85938C10.4986 5.8606 10.6767 5.93508 10.8083 6.06667C10.9399 6.19827 11.0144 6.3764 11.0156 6.5625V13.3594H17.8125C17.9986 13.3606 18.1767 13.4351 18.3083 13.5667C18.4399 13.6983 18.5144 13.8764 18.5156 14.0625Z" fill="#FF4D69"/>
<path d="M13.125 2.10938C12.9385 2.10938 12.7597 2.18345 12.6278 2.31532C12.496 2.44718 12.4219 2.62602 12.4219 2.8125V10.3125C12.4219 10.499 12.496 10.6778 12.6278 10.8097C12.7597 10.9415 12.9385 11.0156 13.125 11.0156H20.625C20.8115 11.0156 20.9903 10.9415 21.1222 10.8097C21.254 10.6778 21.3281 10.499 21.3281 10.3125C21.3256 8.13766 20.4606 6.0526 18.9227 4.51476C17.3849 2.97691 15.2998 2.11186 13.125 2.10938ZM27.1875 14.7656H24.375C24.1885 14.7656 24.0097 14.6915 23.8778 14.5597C23.746 14.4278 23.6719 14.249 23.6719 14.0625C23.6719 13.876 23.746 13.6972 23.8778 13.5653C24.0097 13.4335 24.1885 13.3594 24.375 13.3594H27.1875C27.374 13.3594 27.5528 13.4335 27.6847 13.5653C27.8165 13.6972 27.8906 13.876 27.8906 14.0625C27.8906 14.249 27.8165 14.4278 27.6847 14.5597C27.5528 14.6915 27.374 14.7656 27.1875 14.7656ZM27.1875 17.5781H20.625C20.4385 17.5781 20.2597 17.504 20.1278 17.3722C19.996 17.2403 19.9219 17.0615 19.9219 16.875C19.9219 16.6885 19.996 16.5097 20.1278 16.3778C20.2597 16.246 20.4385 16.1719 20.625 16.1719H27.1875C27.374 16.1719 27.5528 16.246 27.6847 16.3778C27.8165 16.5097 27.8906 16.6885 27.8906 16.875C27.8906 17.0615 27.8165 17.2403 27.6847 17.3722C27.5528 17.504 27.374 17.5781 27.1875 17.5781ZM27.1875 20.3906H20.625C20.4385 20.3906 20.2597 20.3165 20.1278 20.1847C19.996 20.0528 19.9219 19.874 19.9219 19.6875C19.9219 19.501 19.996 19.3222 20.1278 19.1903C20.2597 19.0585 20.4385 18.9844 20.625 18.9844H27.1875C27.374 18.9844 27.5528 19.0585 27.6847 19.1903C27.8165 19.3222 27.8906 19.501 27.8906 19.6875C27.8906 19.874 27.8165 20.0528 27.6847 20.1847C27.5528 20.3165 27.374 20.3906 27.1875 20.3906Z" fill="#FF4D69"/>
</svg>
