<svg width="30" height="30" viewBox="0 0 30 30" fill="none" xmlns="http://www.w3.org/2000/svg">
<g clip-path="url(#clip0_705_4946)">
<path d="M18.6393 2.46971L16.6643 2.18904L15.7845 0.449281C15.4858 -0.142925 14.5142 -0.142925 14.2155 0.449281L13.3357 2.1891L11.3608 2.46977C10.6363 2.57219 10.3469 3.46978 10.8784 3.97697L12.2955 5.32445L11.9616 7.223C11.8366 7.93743 12.5867 8.4868 13.2293 8.15686L15 7.24708L16.7707 8.15686C17.4222 8.49296 18.162 7.92999 18.0384 7.223L17.7045 5.32445L19.1216 3.97691C19.6531 3.46972 19.3637 2.57219 18.6393 2.46971ZM29.2447 7.82985L27.2697 7.54919L26.3899 5.80943C26.0912 5.21722 25.1196 5.21722 24.821 5.80943L23.9412 7.54919L21.9662 7.82985C21.2417 7.93227 20.9523 8.82987 21.4839 9.33706L22.901 10.6846L22.5671 12.5831C22.4421 13.2976 23.1923 13.847 23.8348 13.517L25.6054 12.6072L27.3761 13.517C28.0309 13.8519 28.7669 13.2865 28.6439 12.5831L28.31 10.6845L29.7271 9.337C30.2586 8.82987 29.9691 7.93227 29.2447 7.82985ZM8.03384 7.82985L6.05889 7.54919L5.17904 5.80943C4.88033 5.21722 3.90874 5.21722 3.61008 5.80943L2.7303 7.54919L0.755343 7.82985C0.0308327 7.93227 -0.258561 8.82987 0.273 9.33706L1.69009 10.6846L1.35622 12.5831C1.23124 13.2976 1.98136 13.847 2.62395 13.517L4.39453 12.6072L6.16523 13.517C6.81814 13.8519 7.55625 13.2879 7.43297 12.5831L7.0991 10.6846L8.51619 9.33706C9.04769 8.82987 8.7583 7.93233 8.03384 7.82985ZM18.1685 19.242C19.439 18.2783 20.2734 16.7676 20.2734 15.0536C20.2734 12.1456 17.9079 9.78014 15 9.78014C12.092 9.78014 9.72655 12.1456 9.72655 15.0536C9.72655 16.7676 10.561 18.2782 11.8314 19.242C9.04499 20.467 7.08984 23.2454 7.08984 26.4793V29.116C7.08984 29.6018 7.48295 29.9949 7.96875 29.9949H22.0312C22.517 29.9949 22.9101 29.6018 22.9101 29.116V26.4793C22.9101 23.2454 20.955 20.467 18.1685 19.242Z" fill="#17D262"/>
</g>
<defs>
<clipPath id="clip0_705_4946">
<rect width="30" height="30" fill="white"/>
</clipPath>
</defs>
</svg>
