<svg width="30" height="30" viewBox="0 0 30 30" fill="none" xmlns="http://www.w3.org/2000/svg">
<path d="M20.1562 21.0936V18.4948C19.5845 18.4425 19.0425 18.2159 18.6036 17.8457C18.1647 17.4755 17.8499 16.9796 17.7019 16.4248L17.3438 16.7811V19.2186C17.3445 19.8399 17.5917 20.4356 18.031 20.875C18.4704 21.3144 19.0661 21.5616 19.6875 21.5623C19.8118 21.5623 19.931 21.5129 20.019 21.425C20.1069 21.3371 20.1562 21.2179 20.1562 21.0936Z" fill="#FDB600"/>
<path d="M11.2569 14.9464C11.3449 14.9022 11.4447 14.8869 11.542 14.9027C11.6393 14.9184 11.7291 14.9644 11.7987 15.0341L12.658 15.8933V15.4686C12.6573 15.1608 12.7172 14.8559 12.8344 14.5713C12.9516 14.2867 13.1236 14.028 13.3408 13.8098C13.7794 13.3693 14.375 13.1211 14.9966 13.1197C15.6182 13.1184 16.2148 13.364 16.6554 13.8025C17.0959 14.2411 17.3441 14.8367 17.3455 15.4583L17.7697 15.0341C17.8392 14.9638 17.9292 14.9172 18.0268 14.9011C18.1244 14.8851 18.2246 14.9003 18.3131 14.9446C18.4015 14.9889 18.4736 15.0601 18.5192 15.1479C18.5647 15.2357 18.5813 15.3357 18.5666 15.4335C18.5114 15.8229 18.5802 16.2198 18.7631 16.568C18.946 16.9163 19.2337 17.1982 19.5856 17.3738C19.9375 17.5495 20.3358 17.61 20.724 17.5469C21.1122 17.4838 21.4708 17.3002 21.7489 17.0221C22.027 16.7439 22.2106 16.3854 22.2738 15.9972C22.3369 15.6089 22.2763 15.2107 22.1007 14.8588C21.925 14.5069 21.6431 14.2191 21.2949 14.0362C20.9467 13.8534 20.5498 13.7846 20.1603 13.8397C20.0625 13.8545 19.9625 13.8379 19.8747 13.7923C19.7869 13.7468 19.7157 13.6747 19.6714 13.5862C19.6271 13.4978 19.6119 13.3976 19.628 13.3C19.644 13.2024 19.6906 13.1124 19.7609 13.0429L22.7436 10.0555L20.6427 7.95504C20.4487 8.36106 20.1603 8.71462 19.8014 8.98606C19.4425 9.25749 19.0238 9.43886 18.5803 9.51495C18.1369 9.59103 17.6816 9.55961 17.2528 9.42332C16.824 9.28703 16.4342 9.04985 16.116 8.73169C15.7978 8.41353 15.5607 8.02368 15.4244 7.59487C15.2881 7.16607 15.2567 6.71082 15.3327 6.26735C15.4088 5.82389 15.5902 5.40515 15.8616 5.0463C16.1331 4.68744 16.4866 4.39895 16.8927 4.20504L14.7861 2.10645L11.7987 5.0891C11.7292 5.15945 11.6392 5.20599 11.5416 5.22207C11.444 5.23815 11.3438 5.22294 11.2554 5.17862C11.1669 5.1343 11.0948 5.06314 11.0493 4.97532C11.0037 4.88751 10.9871 4.78754 11.0019 4.68973C11.0428 4.40214 11.0163 4.10899 10.9246 3.83339C10.8328 3.55778 10.6783 3.30727 10.4731 3.1016C10.1157 2.76115 9.64108 2.57124 9.1475 2.57124C8.65391 2.57124 8.17925 2.76115 7.82188 3.1016C7.54474 3.38 7.36204 3.73841 7.29957 4.12623C7.2371 4.51405 7.29801 4.9117 7.47371 5.26304C7.6494 5.61437 7.93101 5.90166 8.27877 6.08433C8.62653 6.26701 9.02288 6.33585 9.41188 6.28113C9.50969 6.2664 9.60966 6.28298 9.69747 6.32852C9.78529 6.37405 9.85645 6.44619 9.90077 6.53463C9.94509 6.62306 9.9603 6.72325 9.94422 6.82085C9.92814 6.91845 9.8816 7.00847 9.81125 7.07801L6.82812 10.0593L9.81172 13.0466C9.88212 13.1162 9.9287 13.2062 9.94478 13.3039C9.96086 13.4016 9.94561 13.5018 9.90122 13.5903C9.85684 13.6787 9.78558 13.7509 9.69768 13.7964C9.60978 13.8418 9.50973 13.8583 9.41188 13.8435C9.02244 13.7884 8.62552 13.8571 8.27731 14.04C7.92909 14.2229 7.6472 14.5106 7.47153 14.8625C7.29586 15.2145 7.23531 15.6127 7.29844 16.0009C7.36156 16.3891 7.54518 16.7477 7.8233 17.0258C8.10142 17.3039 8.45996 17.4875 8.84818 17.5507C9.2364 17.6138 9.63465 17.5532 9.98656 17.3776C10.3385 17.2019 10.6262 16.92 10.8091 16.5718C10.992 16.2236 11.0607 15.8267 11.0056 15.4372C10.9903 15.3394 11.0063 15.2392 11.0515 15.151C11.0966 15.0628 11.1685 14.9912 11.2569 14.9464Z" fill="#FDB600"/>
<path d="M16.5544 27.2488L17.0231 26.3113C17.2499 25.8555 17.368 25.3533 17.368 24.8441C17.368 24.335 17.2499 23.8328 17.0231 23.3769L16.8516 23.0329C16.5594 22.4466 16.407 21.8007 16.4062 21.1457V15.4687C16.4062 15.0957 16.2581 14.738 15.9944 14.4743C15.7306 14.2106 15.373 14.0624 15 14.0624C14.627 14.0624 14.2694 14.2106 14.0056 14.4743C13.7419 14.738 13.5938 15.0957 13.5938 15.4687V22.0312C13.5938 22.1555 13.5444 22.2747 13.4565 22.3626C13.3685 22.4505 13.2493 22.4999 13.125 22.4999C13.0007 22.4999 12.8815 22.4505 12.7935 22.3626C12.7056 22.2747 12.6562 22.1555 12.6562 22.0312V17.219L11.8622 16.4254C11.7024 17.0231 11.3496 17.5512 10.8587 17.9277C10.3678 18.3043 9.76632 18.5081 9.14766 18.5076C9.09797 18.5076 9.04969 18.5029 9.00047 18.5005L7.85391 21.8005C7.75926 22.0031 7.71367 22.2251 7.72084 22.4486C7.728 22.6721 7.78772 22.8907 7.89516 23.0868C7.90361 23.1019 7.91113 23.1176 7.91766 23.1337L9.5625 27.0262C9.74665 27.3699 9.84325 27.7537 9.84375 28.1437V28.5937H16.4062V27.8774C16.4064 27.6593 16.4571 27.4441 16.5544 27.2488ZM28.5938 10.7812H25.7812C25.6569 10.7812 25.5377 10.7318 25.4498 10.6439C25.3619 10.556 25.3125 10.4367 25.3125 10.3124C25.3125 10.1881 25.3619 10.0689 25.4498 9.98095C25.5377 9.89305 25.6569 9.84366 25.7812 9.84366H28.5938C28.7181 9.84366 28.8373 9.89305 28.9252 9.98095C29.0131 10.0689 29.0625 10.1881 29.0625 10.3124C29.0625 10.4367 29.0131 10.556 28.9252 10.6439C28.8373 10.7318 28.7181 10.7812 28.5938 10.7812ZM25.2745 5.39054C25.1713 5.39053 25.071 5.35648 24.9892 5.29366C24.9073 5.23085 24.8485 5.14278 24.8218 5.04311C24.7951 4.94344 24.802 4.83775 24.8415 4.74242C24.881 4.64708 24.9508 4.56745 25.0402 4.51585L27.4777 3.1096C27.5853 3.04842 27.7127 3.03228 27.8322 3.06472C27.9516 3.09715 28.0534 3.17551 28.1153 3.28271C28.1772 3.38991 28.1942 3.51723 28.1625 3.6369C28.1309 3.75657 28.0532 3.85887 27.9464 3.92147L25.5089 5.32772C25.4377 5.36904 25.3568 5.39071 25.2745 5.39054ZM27.7097 17.578C27.6274 17.5782 27.5465 17.5565 27.4753 17.5152L25.0378 16.109C24.9841 16.0784 24.9369 16.0375 24.899 15.9887C24.8612 15.9398 24.8333 15.884 24.8171 15.8243C24.8009 15.7646 24.7967 15.7024 24.8047 15.6411C24.8126 15.5798 24.8326 15.5206 24.8635 15.4671C24.8945 15.4136 24.9357 15.3667 24.9848 15.3291C25.0339 15.2916 25.0899 15.2641 25.1497 15.2483C25.2094 15.2325 25.2717 15.2287 25.333 15.2371C25.3942 15.2454 25.4532 15.2658 25.5066 15.2971L27.9441 16.7033C28.0334 16.7549 28.1033 16.8346 28.1427 16.9299C28.1822 17.0252 28.1891 17.1309 28.1624 17.2306C28.1357 17.3303 28.0769 17.4183 27.995 17.4812C27.9132 17.544 27.8129 17.578 27.7097 17.578ZM4.21875 10.7812H1.40625C1.28193 10.7812 1.1627 10.7318 1.07479 10.6439C0.986886 10.556 0.9375 10.4367 0.9375 10.3124C0.9375 10.1881 0.986886 10.0689 1.07479 9.98095C1.1627 9.89305 1.28193 9.84366 1.40625 9.84366H4.21875C4.34307 9.84366 4.4623 9.89305 4.55021 9.98095C4.63811 10.0689 4.6875 10.1881 4.6875 10.3124C4.6875 10.4367 4.63811 10.556 4.55021 10.6439C4.4623 10.7318 4.34307 10.7812 4.21875 10.7812ZM4.72547 5.39054C4.64316 5.39071 4.56228 5.36904 4.49109 5.32772L2.05359 3.92147C1.94681 3.85887 1.86912 3.75657 1.83748 3.6369C1.80584 3.51723 1.82282 3.38991 1.88471 3.28271C1.94661 3.17551 2.04839 3.09715 2.16784 3.06472C2.2873 3.03228 2.41474 3.04842 2.52234 3.1096L4.95984 4.51585C5.0492 4.56745 5.11904 4.64708 5.15852 4.74242C5.19801 4.83775 5.20493 4.94344 5.17823 5.04311C5.15152 5.14278 5.09267 5.23085 5.01081 5.29366C4.92895 5.35648 4.82865 5.39053 4.72547 5.39054ZM2.29031 17.578C2.18713 17.578 2.08683 17.544 2.00497 17.4812C1.92311 17.4183 1.86426 17.3303 1.83756 17.2306C1.81085 17.1309 1.81778 17.0252 1.85726 16.9299C1.89674 16.8346 1.96658 16.7549 2.05594 16.7033L4.49344 15.2971C4.54677 15.2658 4.60576 15.2454 4.667 15.2371C4.72825 15.2287 4.79055 15.2325 4.85032 15.2483C4.91008 15.2641 4.96613 15.2916 5.01524 15.3291C5.06435 15.3667 5.10554 15.4136 5.13645 15.4671C5.16736 15.5206 5.18738 15.5798 5.19534 15.6411C5.20331 15.7024 5.19908 15.7646 5.18288 15.8243C5.16668 15.884 5.13884 15.9398 5.10097 15.9887C5.06309 16.0375 5.01593 16.0784 4.96219 16.109L2.52469 17.5152C2.4535 17.5565 2.37262 17.5782 2.29031 17.578Z" fill="#FDB600"/>
</svg>
