<svg width="62" height="60" viewBox="0 0 62 60" fill="none" xmlns="http://www.w3.org/2000/svg">
<path d="M13 7H9C8.73478 7 8.48043 6.89464 8.29289 6.70711C8.10536 6.51957 8 6.26522 8 6C8 5.73478 8.10536 5.48043 8.29289 5.29289C8.48043 5.10536 8.73478 5 9 5H13C13.2652 5 13.5196 5.10536 13.7071 5.29289C13.8946 5.48043 14 5.73478 14 6C14 6.26522 13.8946 6.51957 13.7071 6.70711C13.5196 6.89464 13.2652 7 13 7Z" fill="white"/>
<path d="M61 28H13C12.7348 28 12.4804 28.1054 12.2929 28.2929C12.1054 28.4804 12 28.7348 12 29C12 35.6304 14.6339 41.9893 19.3223 46.6777C24.0107 51.3661 30.3696 54 37 54C43.6304 54 49.9893 51.3661 54.6777 46.6777C59.3661 41.9893 62 35.6304 62 29C62 28.7348 61.8946 28.4804 61.7071 28.2929C61.5196 28.1054 61.2652 28 61 28ZM58.085 35.286C57.1324 38.4192 55.5 41.3035 53.3041 43.733C51.1083 46.1626 48.4032 48.0775 45.382 49.341C45.1368 49.4423 44.8614 49.4421 44.6164 49.3403C44.3714 49.2386 44.1768 49.0437 44.0755 48.7985C43.9742 48.5533 43.9744 48.2779 44.0762 48.0329C44.1779 47.7879 44.3728 47.5933 44.618 47.492C47.3653 46.3435 49.8251 44.6028 51.822 42.394C53.8189 40.1852 55.3035 37.5628 56.17 34.714C56.2054 34.5857 56.266 34.4658 56.3484 34.3612C56.4307 34.2566 56.5331 34.1696 56.6495 34.1051C56.7659 34.0406 56.8941 34 57.0264 33.9857C57.1587 33.9714 57.2925 33.9836 57.4201 34.0217C57.5476 34.0598 57.6662 34.1229 57.769 34.2074C57.8718 34.2919 57.9567 34.3961 58.0188 34.5139C58.0808 34.6316 58.1187 34.7606 58.1302 34.8932C58.1418 35.0257 58.1257 35.1593 58.085 35.286Z" fill="#00D2FF"/>
<path d="M48.3228 53.503C44.7757 55.1477 40.9127 55.9998 37.0028 55.9998C33.0929 55.9998 29.23 55.1477 25.6828 53.503C24.8485 54.1561 24.1737 54.9903 23.7094 55.9427C23.2451 56.895 23.0035 57.9405 23.0028 59C23.0028 59.2652 23.1082 59.5196 23.2957 59.7071C23.4833 59.8946 23.7376 60 24.0028 60H50.0028C50.2681 60 50.5224 59.8946 50.7099 59.7071C50.8975 59.5196 51.0028 59.2652 51.0028 59C51.0022 57.9405 50.7606 56.895 50.2963 55.9427C49.832 54.9903 49.1571 54.1561 48.3228 53.503ZM17.3228 26H28.7478L20.8108 16.74C20.0828 15.8983 19.0541 15.3753 17.9451 15.283C16.8361 15.1906 15.735 15.5363 14.8778 16.246C14.0206 16.9557 13.4755 17.9729 13.3592 19.0797C13.243 20.1864 13.5648 21.2947 14.2558 22.167L17.3228 26ZM38.0028 25C38.0028 25.2652 38.1082 25.5196 38.2957 25.7071C38.4833 25.8946 38.7376 26 39.0028 26C39.2681 26 39.5224 25.8946 39.7099 25.7071C39.8975 25.5196 40.0028 25.2652 40.0028 25C40.0028 23.258 42.0028 23.036 42.0028 20.335C42.0028 17.653 40.0028 17.405 40.0028 15.668C40.0028 13.962 42.0028 13.668 42.0028 11C42.0028 10.7348 41.8975 10.4804 41.7099 10.2929C41.5224 10.1054 41.2681 10 41.0028 10C40.7376 10 40.4833 10.1054 40.2957 10.2929C40.1082 10.4804 40.0028 10.7348 40.0028 11C40.0028 12.705 38.0028 13 38.0028 15.668C38.0028 18.346 40.0028 18.614 40.0028 20.335C40.0028 22.085 38.0028 22.298 38.0028 25ZM46.0028 25C46.0028 25.2652 46.1082 25.5196 46.2957 25.7071C46.4833 25.8946 46.7376 26 47.0028 26C47.2681 26 47.5224 25.8946 47.7099 25.7071C47.8975 25.5196 48.0028 25.2652 48.0028 25C48.0028 23.258 50.0028 23.036 50.0028 20.335C50.0028 17.653 48.0028 17.405 48.0028 15.668C48.0028 13.962 50.0028 13.668 50.0028 11C50.0028 10.7348 49.8975 10.4804 49.7099 10.2929C49.5224 10.1054 49.2681 10 49.0028 10C48.7376 10 48.4833 10.1054 48.2957 10.2929C48.1082 10.4804 48.0028 10.7348 48.0028 11C48.0028 12.705 46.0028 13 46.0028 15.668C46.0028 18.346 48.0028 18.614 48.0028 20.335C48.0028 22.085 46.0028 22.298 46.0028 25ZM54.0028 25C54.0028 25.2652 54.1082 25.5196 54.2957 25.7071C54.4833 25.8946 54.7376 26 55.0028 26C55.2681 26 55.5224 25.8946 55.7099 25.7071C55.8975 25.5196 56.0028 25.2652 56.0028 25C56.0028 23.258 58.0028 23.036 58.0028 20.335C58.0028 17.653 56.0028 17.405 56.0028 15.668C56.0028 13.962 58.0028 13.668 58.0028 11C58.0028 10.7348 57.8975 10.4804 57.7099 10.2929C57.5224 10.1054 57.2681 10 57.0028 10C56.7376 10 56.4833 10.1054 56.2957 10.2929C56.1082 10.4804 56.0028 10.7348 56.0028 11C56.0028 12.705 54.0028 13 54.0028 15.668C54.0028 18.346 56.0028 18.614 56.0028 20.335C56.0028 22.085 54.0028 22.298 54.0028 25Z" fill="#00D2FF"/>
<path d="M13 14H9C8.73478 14 8.48043 13.8946 8.29289 13.7071C8.10536 13.5196 8 13.2652 8 13C8 12.7348 8.10536 12.4804 8.29289 12.2929C8.48043 12.1054 8.73478 12 9 12H13C13.2652 12 13.5196 12.1054 13.7071 12.2929C13.8946 12.4804 14 12.7348 14 13C14 13.2652 13.8946 13.5196 13.7071 13.7071C13.5196 13.8946 13.2652 14 13 14Z" fill="white"/>
<path d="M40.293 16.293L38.979 17.607C39.0997 15.2182 38.5028 12.8478 37.2651 10.8011C36.0274 8.75427 34.2056 7.12469 32.034 6.122C32.4176 5.42139 32.9969 4.84765 33.7012 4.47082C34.4055 4.094 35.2043 3.9304 36 4C36.2652 4 36.5196 3.89464 36.7071 3.70711C36.8946 3.51957 37 3.26522 37 3C37 2.73478 36.8946 2.48043 36.7071 2.29289C36.5196 2.10536 36.2652 2 36 2C34.7929 1.91731 33.5889 2.20086 32.5455 2.81354C31.5021 3.42622 30.6679 4.33953 30.152 5.434C28.2217 4.89754 26.187 4.8579 24.2372 5.31877C22.2875 5.77964 20.4859 6.72605 19 8.07V8C19 5.87827 18.1571 3.84344 16.6569 2.34315C15.1566 0.842855 13.1217 0 11 0C8.87827 0 6.84344 0.842855 5.34315 2.34315C3.84285 3.84344 3 5.87827 3 8V17.586L1.707 16.293C1.56715 16.1532 1.38898 16.058 1.19503 16.0194C1.00108 15.9808 0.800045 16.0007 0.617345 16.0763C0.434646 16.152 0.278483 16.2801 0.168598 16.4445C0.0587141 16.609 4.22243e-05 16.8022 0 17V49C0 49.2652 0.105357 49.5196 0.292893 49.7071C0.48043 49.8946 0.734784 50 1 50H41C41.2652 50 41.5196 49.8946 41.7071 49.7071C41.8946 49.5196 42 49.2652 42 49V17C42 16.8022 41.9413 16.609 41.8314 16.4445C41.7215 16.2801 41.5654 16.152 41.3827 16.0763C41.2 16.0007 40.9989 15.9808 40.805 16.0194C40.611 16.058 40.4328 16.1532 40.293 16.293ZM40 19.414V46.586L37 43.586V22.414L40 19.414ZM32 19.414L35 22.414V43.586L32 46.586V19.414ZM36 45.414L38.586 48H33.414L36 45.414ZM19 11.021C20.4144 9.12386 22.4556 7.78969 24.7609 7.25563C27.0662 6.72158 29.4862 7.02225 31.5907 8.10419C33.6952 9.18613 35.3479 10.9793 36.255 13.1648C37.1621 15.3504 37.2649 17.7868 36.545 20.041L36 20.586C31.68 16.3 31.702 16.208 31.383 16.076C31.2003 16 30.9991 15.9801 30.805 16.0187C30.6109 16.0574 30.4327 16.1528 30.293 16.293L26 20.586L21.707 16.293C21.5195 16.1055 21.2652 16.0002 21 16.0002C20.7348 16.0002 20.4805 16.1055 20.293 16.293L19 17.586V11.021ZM5 8C5 6.4087 5.63214 4.88258 6.75736 3.75736C7.88258 2.63214 9.4087 2 11 2C12.5913 2 14.1174 2.63214 15.2426 3.75736C16.3679 4.88258 17 6.4087 17 8V19.586L16 20.586L11.707 16.293C11.5195 16.1055 11.2652 16.0002 11 16.0002C10.7348 16.0002 10.4805 16.1055 10.293 16.293L6 20.586L5 19.586V8ZM5.293 22.707C5.48053 22.8945 5.73484 22.9998 6 22.9998C6.26516 22.9998 6.51947 22.8945 6.707 22.707L11 18.414L15.293 22.707C15.4805 22.8945 15.7348 22.9998 16 22.9998C16.2652 22.9998 16.5195 22.8945 16.707 22.707L21 18.414L25.293 22.707C25.4805 22.8945 25.7348 22.9998 26 22.9998C26.2652 22.9998 26.5195 22.8945 26.707 22.707L30 19.414V43H2V19.414L5.293 22.707ZM2 48V45H30V48H2Z" fill="white"/>
</svg>
