<svg width="62" height="62" viewBox="0 0 62 62" fill="none" xmlns="http://www.w3.org/2000/svg">
<path d="M51 57C51 55.1435 50.2625 53.363 48.9497 52.0503C47.637 50.7375 45.8565 50 44 50C42.1435 50 40.363 50.7375 39.0503 52.0503C37.7375 53.363 37 55.1435 37 57V58.236C39.0703 59.7141 41.2999 60.9552 43.647 61.936C43.8745 62.0221 44.1255 62.0221 44.353 61.936C46.7001 60.9552 48.9297 59.7141 51 58.236V57Z" fill="#00D2FF"/>
<path d="M51.0428 27.9999C48.4548 27.9961 45.9531 28.9301 44.0008 30.6289C42.0485 28.9301 39.5468 27.9961 36.9588 27.9999C34.0148 28.0426 31.2078 29.2511 29.1536 31.3605C27.0994 33.4698 25.9655 36.3077 26.0008 39.2519C26.0008 47.3349 30.5408 53.0489 35.0148 56.7229C35.066 55.092 35.5598 53.5058 36.4432 52.134C37.3265 50.7622 38.5663 49.6563 40.0298 48.9349C38.4985 48.0593 37.2995 46.7022 36.6194 45.0746C35.9393 43.4471 35.8161 41.6404 36.2691 39.9356C36.7221 38.2308 37.7258 36.7236 39.1241 35.6483C40.5224 34.573 42.2369 33.99 44.0008 33.99C45.7647 33.99 47.4792 34.573 48.8775 35.6483C50.2758 36.7236 51.2795 38.2308 51.7325 39.9356C52.1855 41.6404 52.0623 43.4471 51.3822 45.0746C50.7021 46.7022 49.5031 48.0593 47.9718 48.9349C49.4353 49.6563 50.6751 50.7622 51.5584 52.134C52.4418 53.5058 52.9355 55.092 52.9868 56.7229C57.4618 53.0499 62.0008 47.3349 62.0008 39.2519C62.0361 36.3077 60.9022 33.4698 58.848 31.3605C56.7938 29.2511 53.9868 28.0426 51.0428 27.9999Z" fill="#00D2FF"/>
<path d="M44 48C47.3137 48 50 45.3137 50 42C50 38.6863 47.3137 36 44 36C40.6863 36 38 38.6863 38 42C38 45.3137 40.6863 48 44 48Z" fill="#00D2FF"/>
<path d="M49 2.99995H42C41.7348 2.99995 41.4804 3.1053 41.2929 3.29284C41.1054 3.48038 41 3.73473 41 3.99995V10.4649L25.555 0.167948C25.3906 0.0584348 25.1975 0 25 0C24.8025 0 24.6094 0.0584348 24.445 0.167948L0.445 16.1679C0.308084 16.2593 0.195832 16.383 0.118205 16.5282C0.0405779 16.6733 -2.46193e-05 16.8354 1.11994e-08 16.9999V48.9999C1.11994e-08 49.2652 0.105357 49.5195 0.292893 49.7071C0.48043 49.8946 0.734784 49.9999 1 49.9999H49C49.2652 49.9999 49.5196 49.8946 49.7071 49.7071C49.8946 49.5195 50 49.2652 50 48.9999V3.99995C50 3.73473 49.8946 3.48038 49.7071 3.29284C49.5196 3.1053 49.2652 2.99995 49 2.99995ZM31 30.9999C30.9926 30.4277 31.1081 29.8606 31.3387 29.3369C31.5693 28.8131 31.9095 28.3449 32.3365 27.9639C32.7635 27.5829 33.2673 27.298 33.8138 27.1283C34.3603 26.9587 34.9369 26.9083 35.5046 26.9805C36.0723 27.0527 36.6178 27.2459 37.1044 27.547C37.5911 27.8481 38.0074 28.2502 38.3254 28.726C38.6433 29.2018 38.8555 29.7402 38.9476 30.305C39.0396 30.8698 39.0094 31.4478 38.859 31.9999H31.14C31.0511 31.6739 31.0041 31.3379 31 30.9999ZM47.5 24.0379L41.959 31.9999H40.909C40.9671 31.6697 40.9975 31.3352 41 30.9999C41 29.8461 40.6651 28.7171 40.036 27.7499L44.221 21.7519C44.5288 21.3288 44.9902 21.0431 45.5062 20.9564C46.0222 20.8696 46.5517 20.9886 46.9809 21.2878C47.4102 21.5871 47.7049 22.0427 47.802 22.5569C47.8991 23.0711 47.7906 23.6028 47.5 24.0379ZM48 26.8209V31.9999H44.395L48 26.8209ZM30 33.9999H48V35.9999H30V33.9999ZM43 4.99995H48V15.1299L43 11.7969V4.99995ZM2 17.5349L25 2.20095L48 17.5349V19.5349C47.1339 18.9758 46.0843 18.7752 45.073 18.9754C44.0617 19.1756 43.1678 19.761 42.58 20.6079L38.646 26.2459C37.759 25.5625 36.6981 25.1413 35.5838 25.0303C34.4695 24.9193 33.3464 25.1229 32.342 25.6179C31.3375 26.1129 30.492 26.8796 29.9012 27.831C29.3105 28.7823 28.9983 29.8801 29 30.9999C29.0021 31.3352 29.0322 31.6697 29.09 31.9999H29C28.7348 31.9999 28.4804 32.1053 28.2929 32.2928C28.1054 32.4804 28 32.7347 28 32.9999V47.9999H24V46.9999C23.9977 45.0392 23.4199 43.1222 22.3382 41.4867C21.2565 39.8513 19.7185 38.5694 17.915 37.7999C18.8646 37.1594 19.6424 36.2956 20.1803 35.2844C20.7181 34.2731 20.9996 33.1453 21 31.9999V28.9999H22C22.2652 28.9999 22.5196 28.8946 22.7071 28.7071C22.8946 28.5195 23 28.2652 23 27.9999C23 27.7347 22.8946 27.4804 22.7071 27.2928C22.5196 27.1053 22.2652 26.9999 22 26.9999H20.677L18.929 22.6279C18.8546 22.4424 18.7264 22.2834 18.5608 22.1715C18.3952 22.0595 18.1999 21.9998 18 21.9999H10C9.80012 21.9998 9.60479 22.0595 9.43919 22.1715C9.2736 22.2834 9.14535 22.4424 9.071 22.6279L7.323 26.9999H6C5.73478 26.9999 5.48043 27.1053 5.29289 27.2928C5.10536 27.4804 5 27.7347 5 27.9999C5 28.2652 5.10536 28.5195 5.29289 28.7071C5.48043 28.8946 5.73478 28.9999 6 28.9999H7V31.9999C7.00038 33.1453 7.28185 34.2731 7.81973 35.2844C8.35761 36.2956 9.13545 37.1594 10.085 37.7999C8.28148 38.5694 6.74351 39.8513 5.66181 41.4867C4.58011 43.1222 4.00229 45.0392 4 46.9999V47.9999H2V17.5349ZM6 46.9999C6.00088 45.9871 6.19537 44.9838 6.573 44.0439C6.92224 44.225 7.28187 44.3853 7.65 44.5239C7.7483 44.5639 7.83846 44.6215 7.916 44.6939C7.92553 44.7372 7.93254 44.7809 7.937 44.8249C7.96307 45.1259 8.0582 45.4168 8.215 45.6749C8.50311 46.066 8.91515 46.348 9.384 46.4749C9.84319 46.6521 10.2322 46.974 10.492 47.3919C10.6076 47.5807 10.6946 47.7856 10.75 47.9999H6V46.9999ZM12.191 46.3359C11.7012 45.5484 10.9683 44.9418 10.103 44.6079L9.917 44.5399C9.89943 44.3937 9.86966 44.2492 9.828 44.1079C9.71869 43.7934 9.54324 43.506 9.31347 43.265C9.0837 43.024 8.80495 42.8351 8.496 42.7109C8.147 42.5479 7.766 42.4369 7.541 42.2999C8.63434 40.784 10.2268 39.7018 12.0388 39.2434C13.8507 38.7849 15.7663 38.9795 17.449 39.7929C17.1324 40.1151 16.9187 40.5241 16.835 40.9679C16.7966 41.2266 16.7913 41.489 16.819 41.7489C16.8575 41.936 16.8292 42.1306 16.739 42.2989C16.6592 42.4944 16.597 42.6965 16.553 42.9029C16.4799 43.3858 16.5395 43.8795 16.7253 44.3311C16.9112 44.7827 17.2163 45.1753 17.608 45.4669C18.1999 45.8988 18.8664 46.2178 19.574 46.4079C20.3579 46.7162 21.1706 46.9453 22 47.0919V47.9999H12.777C12.7001 47.4104 12.5005 46.8435 12.191 46.3359ZM9 31.9999V28.9999H19V31.9999C19 33.326 18.4732 34.5978 17.5355 35.5355C16.5979 36.4732 15.3261 36.9999 14 36.9999C12.6739 36.9999 11.4021 36.4732 10.4645 35.5355C9.52678 34.5978 9 33.326 9 31.9999ZM9.477 26.9999L10.677 23.9999H17.323L18.523 26.9999H9.477ZM18.605 43.0189C18.8039 42.5731 18.8766 42.0812 18.815 41.5969C18.8031 41.5018 18.7997 41.4057 18.805 41.3099C18.822 41.2159 18.956 41.0849 19.19 40.9239C20.4376 41.9905 21.3271 43.4149 21.738 45.0039C21.353 44.9059 20.978 44.7729 20.198 44.5079C19.7221 44.3844 19.2705 44.1816 18.862 43.9079C18.759 43.8376 18.6741 43.7438 18.6143 43.6343C18.5545 43.5248 18.5215 43.4027 18.518 43.2779C18.5396 43.189 18.5687 43.103 18.605 43.0189ZM30 47.9999V37.9999H48V47.9999H30Z" fill="white"/>
<path d="M25 17C25.9889 17 26.9556 16.7068 27.7779 16.1574C28.6001 15.6079 29.241 14.8271 29.6194 13.9134C29.9978 12.9998 30.0969 11.9945 29.9039 11.0246C29.711 10.0546 29.2348 9.16373 28.5355 8.46447C27.8363 7.76521 26.9454 7.289 25.9755 7.09608C25.0055 6.90315 24.0002 7.00217 23.0866 7.3806C22.173 7.75904 21.3921 8.39991 20.8427 9.22215C20.2932 10.0444 20 11.0111 20 12C20.0016 13.3256 20.5289 14.5964 21.4662 15.5338C22.4036 16.4711 23.6744 16.9984 25 17ZM25 9C25.5933 9 26.1734 9.17595 26.6667 9.50559C27.1601 9.83524 27.5446 10.3038 27.7716 10.852C27.9987 11.4001 28.0581 12.0033 27.9424 12.5853C27.8266 13.1672 27.5409 13.7018 27.1213 14.1213C26.7018 14.5409 26.1672 14.8266 25.5853 14.9424C25.0033 15.0581 24.4001 14.9987 23.8519 14.7716C23.3038 14.5446 22.8352 14.1601 22.5056 13.6667C22.1759 13.1734 22 12.5933 22 12C22.0008 11.2046 22.3171 10.442 22.8796 9.87956C23.442 9.31712 24.2046 9.0008 25 9Z" fill="white"/>
</svg>
