<svg width="62" height="62" viewBox="0 0 62 62" fill="none" xmlns="http://www.w3.org/2000/svg">
<path d="M59 13.5H20C18.3431 13.5 17 14.8431 17 16.5V19.5C17 21.1569 18.3431 22.5 20 22.5H59C60.6569 22.5 62 21.1569 62 19.5V16.5C62 14.8431 60.6569 13.5 59 13.5Z" fill="#00D2FF"/>
<path d="M42 39.5V31.5H37V39.5C37 39.7652 36.8946 40.0196 36.7071 40.2071C36.5196 40.3946 36.2652 40.5 36 40.5H28V45.5H36C36.2652 45.5 36.5196 45.6054 36.7071 45.7929C36.8946 45.9804 37 46.2348 37 46.5V54.5H42V46.5C42 46.2348 42.1054 45.9804 42.2929 45.7929C42.4804 45.6054 42.7348 45.5 43 45.5H51V40.5H43C42.7348 40.5 42.4804 40.3946 42.2929 40.2071C42.1054 40.0196 42 39.7652 42 39.5Z" fill="#00D2FF"/>
<path d="M58 24.5H21C20.7348 24.5 20.4804 24.6054 20.2929 24.7929C20.1054 24.9804 20 25.2348 20 25.5V60.5C20 60.7652 20.1054 61.0196 20.2929 61.2071C20.4804 61.3946 20.7348 61.5 21 61.5H58C58.2652 61.5 58.5196 61.3946 58.7071 61.2071C58.8946 61.0196 59 60.7652 59 60.5V25.5C59 25.2348 58.8946 24.9804 58.7071 24.7929C58.5196 24.6054 58.2652 24.5 58 24.5ZM53 46.5C53 46.7652 52.8946 47.0196 52.7071 47.2071C52.5196 47.3946 52.2652 47.5 52 47.5H44V55.5C44 55.7652 43.8946 56.0196 43.7071 56.2071C43.5196 56.3946 43.2652 56.5 43 56.5H36C35.7348 56.5 35.4804 56.3946 35.2929 56.2071C35.1054 56.0196 35 55.7652 35 55.5V47.5H27C26.7348 47.5 26.4804 47.3946 26.2929 47.2071C26.1054 47.0196 26 46.7652 26 46.5V39.5C26 39.2348 26.1054 38.9804 26.2929 38.7929C26.4804 38.6054 26.7348 38.5 27 38.5H35V30.5C35 30.2348 35.1054 29.9804 35.2929 29.7929C35.4804 29.6054 35.7348 29.5 36 29.5H43C43.2652 29.5 43.5196 29.6054 43.7071 29.7929C43.8946 29.9804 44 30.2348 44 30.5V38.5H52C52.2652 38.5 52.5196 38.6054 52.7071 38.7929C52.8946 38.9804 53 39.2348 53 39.5V46.5Z" fill="#00D2FF"/>
<path d="M41 2.49994C38.7047 2.5072 36.4989 3.39117 34.8338 4.97104C33.1687 6.5509 32.1701 8.70726 32.0424 10.999C31.9147 13.2908 32.6674 15.5448 34.1466 17.2999C35.6258 19.055 37.7197 20.1786 40 20.4409V43.4999C40 44.5608 39.5786 45.5782 38.8284 46.3284C38.0783 47.0785 37.0609 47.4999 36 47.4999H21C19.9391 47.4999 18.9217 47.0785 18.1716 46.3284C17.4214 45.5782 17 44.5608 17 43.4999V38.4999H19C19.2652 38.4999 19.5196 38.3946 19.7071 38.2071C19.8946 38.0195 20 37.7652 20 37.4999V32.9929C23.4298 32.0973 26.4669 30.0919 28.6376 27.2893C30.8082 24.4868 31.9905 21.0448 32 17.4999C32 17.2347 31.8946 16.9804 31.7071 16.7928C31.5196 16.6053 31.2652 16.4999 31 16.4999H29V7.49994C28.9984 6.59536 28.6901 5.71804 28.1257 5.01118C27.5612 4.30432 26.7738 3.80966 25.892 3.60794C25.6812 2.65394 25.1305 1.80921 24.3427 1.23137C23.5549 0.653535 22.5837 0.382064 21.6104 0.46761C20.6372 0.553157 19.7283 0.989878 19.0533 1.69629C18.3784 2.4027 17.9835 3.33054 17.9423 4.30669C17.9012 5.28284 18.2166 6.24062 18.8297 7.00133C19.4428 7.76203 20.3117 8.27369 21.2744 8.44083C22.237 8.60798 23.2275 8.4192 24.0612 7.90971C24.8948 7.40022 25.5147 6.60483 25.805 5.67194C26.1599 5.82801 26.4619 6.08389 26.674 6.40843C26.8862 6.73298 26.9994 7.1122 27 7.49994V16.4999H25C24.7348 16.4999 24.4804 16.6053 24.2929 16.7928C24.1054 16.9804 24 17.2347 24 17.4999C24 19.6217 23.1571 21.6565 21.6569 23.1568C20.1566 24.6571 18.1217 25.4999 16 25.4999C13.8783 25.4999 11.8434 24.6571 10.3431 23.1568C8.84285 21.6565 8 19.6217 8 17.4999C8 17.2347 7.89464 16.9804 7.70711 16.7928C7.51957 16.6053 7.26522 16.4999 7 16.4999H5V7.49994C5.00098 7.11165 5.11497 6.73203 5.32806 6.40742C5.54114 6.08282 5.84412 5.82726 6.2 5.67194C6.48953 6.59227 7.10367 7.37601 7.92806 7.87723C8.75245 8.37845 9.7309 8.56298 10.6812 8.39646C11.6315 8.22995 12.489 7.72374 13.0938 6.97208C13.6987 6.22043 14.0098 5.27457 13.9691 4.31063C13.9285 3.34669 13.5389 2.43036 12.873 1.73228C12.207 1.0342 11.31 0.601932 10.349 0.515979C9.38808 0.430026 8.42863 0.696242 7.64935 1.26506C6.87006 1.83387 6.32406 2.66651 6.113 3.60794C5.23027 3.80868 4.44173 4.30292 3.87628 5.00987C3.31083 5.71682 3.0019 6.59467 3 7.49994V16.4999H1C0.734784 16.4999 0.48043 16.6053 0.292893 16.7928C0.105357 16.9804 0 17.2347 0 17.4999C0.00950128 21.0448 1.19177 24.4868 3.36244 27.2893C5.53311 30.0919 8.57017 32.0973 12 32.9929V37.4999C12 37.7652 12.1054 38.0195 12.2929 38.2071C12.4804 38.3946 12.7348 38.4999 13 38.4999H15V43.4999C15.0016 45.0908 15.6342 46.616 16.7591 47.7408C17.884 48.8657 19.4092 49.4984 21 49.4999H36C37.5908 49.4984 39.116 48.8657 40.2409 47.7408C41.3658 46.616 41.9984 45.0908 42 43.4999V20.4409C44.2803 20.1786 46.3742 19.055 47.8534 17.2999C49.3326 15.5448 50.0853 13.2908 49.9576 10.999C49.8299 8.70726 48.8313 6.5509 47.1662 4.97104C45.5011 3.39117 43.2953 2.5072 41 2.49994ZM22 6.49994C21.6044 6.49994 21.2178 6.38265 20.8889 6.16288C20.56 5.94312 20.3036 5.63076 20.1522 5.26531C20.0009 4.89986 19.9613 4.49772 20.0384 4.10976C20.1156 3.7218 20.3061 3.36543 20.5858 3.08573C20.8655 2.80602 21.2219 2.61554 21.6098 2.53837C21.9978 2.4612 22.3999 2.50081 22.7654 2.65218C23.1308 2.80356 23.4432 3.0599 23.6629 3.3888C23.8827 3.7177 24 4.10438 24 4.49994C24 5.03038 23.7893 5.53908 23.4142 5.91416C23.0391 6.28923 22.5304 6.49994 22 6.49994ZM10 2.49994C10.3956 2.49994 10.7822 2.61724 11.1111 2.837C11.44 3.05677 11.6964 3.36912 11.8478 3.73458C11.9991 4.10003 12.0387 4.50216 11.9616 4.89012C11.8844 5.27809 11.6939 5.63445 11.4142 5.91416C11.1345 6.19386 10.7781 6.38434 10.3902 6.46151C10.0022 6.53868 9.60009 6.49908 9.23463 6.3477C8.86918 6.19633 8.55682 5.93998 8.33706 5.61108C8.1173 5.28219 8 4.89551 8 4.49994C8 3.96951 8.21071 3.4608 8.58579 3.08573C8.96086 2.71066 9.46957 2.49994 10 2.49994ZM14 36.4999V32.1999C14 31.9694 13.9204 31.7459 13.7747 31.5674C13.6289 31.3888 13.4259 31.2661 13.2 31.2199C10.2097 30.6009 7.50243 29.0245 5.48806 26.7293C3.47369 24.4342 2.26186 21.5453 2.036 18.4999H6.05C6.29762 20.9668 7.45277 23.2537 9.29133 24.917C11.1299 26.5802 13.5207 27.5012 16 27.5012C18.4793 27.5012 20.8701 26.5802 22.7087 24.917C24.5472 23.2537 25.7024 20.9668 25.95 18.4999H29.964C29.7377 21.545 28.5257 24.4334 26.5114 26.7281C24.497 29.0229 21.79 30.599 18.8 31.2179C18.5741 31.264 18.3711 31.3868 18.2253 31.5654C18.0796 31.7439 18 31.9674 18 32.1979V36.4979L14 36.4999ZM41 13.4999C40.6044 13.4999 40.2178 13.3826 39.8889 13.1629C39.56 12.9431 39.3036 12.6308 39.1522 12.2653C39.0009 11.8999 38.9613 11.4977 39.0384 11.1098C39.1156 10.7218 39.3061 10.3654 39.5858 10.0857C39.8655 9.80603 40.2219 9.61554 40.6098 9.53837C40.9978 9.4612 41.3999 9.50081 41.7654 9.65218C42.1308 9.80356 42.4432 10.0599 42.6629 10.3888C42.8827 10.7177 43 11.1044 43 11.4999C43 12.0304 42.7893 12.5391 42.4142 12.9142C42.0391 13.2892 41.5304 13.4999 41 13.4999ZM42 18.4199V15.3579C42.9427 15.1146 43.7642 14.5357 44.3106 13.7299C44.857 12.9242 45.0908 11.9468 44.9681 10.9809C44.8454 10.0151 44.3747 9.12721 43.6442 8.48362C42.9137 7.84003 41.9736 7.48496 41 7.48496C40.0264 7.48496 39.0863 7.84003 38.3558 8.48362C37.6253 9.12721 37.1546 10.0151 37.0319 10.9809C36.9092 11.9468 37.143 12.9242 37.6894 13.7299C38.2358 14.5357 39.0573 15.1146 40 15.3579V18.4199C38.2484 18.1671 36.6576 17.2602 35.5477 15.8818C34.4378 14.5033 33.8912 12.7556 34.018 10.9905C34.1447 9.22526 34.9353 7.57358 36.2308 6.36783C37.5262 5.16207 39.2303 4.49174 41 4.49174C42.7697 4.49174 44.4738 5.16207 45.7692 6.36783C47.0647 7.57358 47.8553 9.22526 47.982 10.9905C48.1088 12.7556 47.5622 14.5033 46.4523 15.8818C45.3424 17.2602 43.7516 18.1671 42 18.4199Z" fill="white"/>
</svg>
