<svg width="62" height="54" viewBox="0 0 62 54" fill="none" xmlns="http://www.w3.org/2000/svg">
<path d="M59 24H48V53C48 53.2652 48.1054 53.5196 48.2929 53.7071C48.4804 53.8946 48.7348 54 49 54H59C59.7957 54 60.5587 53.6839 61.1213 53.1213C61.6839 52.5587 62 51.7957 62 51V27C62 26.2044 61.6839 25.4413 61.1213 24.8787C60.5587 24.3161 59.7957 24 59 24ZM12 35V51C12 51.7957 12.3161 52.5587 12.8787 53.1213C13.4413 53.6839 14.2044 54 15 54H25C25.2652 54 25.5196 53.8946 25.7071 53.7071C25.8946 53.5196 26 53.2652 26 53V32H15C14.2044 32 13.4413 32.3161 12.8787 32.8787C12.3161 33.4413 12 34.2044 12 35ZM43 12H31C30.2044 12 29.4413 12.3161 28.8787 12.8787C28.3161 13.4413 28 14.2044 28 15V53C28 53.2652 28.1054 53.5196 28.2929 53.7071C28.4804 53.8946 28.7348 54 29 54H45C45.2652 54 45.5196 53.8946 45.7071 53.7071C45.8946 53.5196 46 53.2652 46 53V15C46 14.2044 45.6839 13.4413 45.1213 12.8787C44.5587 12.3161 43.7956 12 43 12ZM42.2 21.77L39.94 23.42L40.8 26.08C40.8636 26.2797 40.8628 26.4943 40.7978 26.6935C40.7328 26.8927 40.6069 27.0665 40.4378 27.1902C40.2687 27.314 40.065 27.3816 39.8555 27.3833C39.6459 27.3851 39.4411 27.3209 39.27 27.2L37 25.55L34.73 27.2C34.5589 27.3209 34.3541 27.3851 34.1445 27.3833C33.935 27.3816 33.7313 27.314 33.5622 27.1902C33.3931 27.0665 33.2672 26.8927 33.2022 26.6935C33.1372 26.4943 33.1364 26.2797 33.2 26.08L34.06 23.42L31.8 21.77C31.6448 21.642 31.5318 21.4702 31.4757 21.277C31.4197 21.0838 31.4232 20.8782 31.4859 20.687C31.5485 20.4959 31.6673 20.328 31.8269 20.2055C31.9864 20.0829 32.1791 20.0113 32.38 20H35.18L36.05 17.34C36.1158 17.1399 36.243 16.9657 36.4136 16.8422C36.5842 16.7187 36.7894 16.6523 37 16.6523C37.2106 16.6523 37.4158 16.7187 37.5864 16.8422C37.757 16.9657 37.8842 17.1399 37.95 17.34L38.82 20H41.62C41.8209 20.0113 42.0136 20.0829 42.1731 20.2055C42.3327 20.328 42.4515 20.4959 42.5141 20.687C42.5768 20.8782 42.5803 21.0838 42.5243 21.277C42.4682 21.4702 42.3552 21.642 42.2 21.77Z" fill="#00D2FF"/>
<path d="M46 1.54355e-05C45.4305 0.00322881 44.8683 0.128002 44.3509 0.36599C43.8336 0.603978 43.373 0.949694 43 1.38002C42.6322 0.943485 42.1727 0.593473 41.6541 0.354935C41.1356 0.116397 40.5708 -0.00478971 40 1.54355e-05C39.4305 0.00322881 38.8683 0.128002 38.3509 0.36599C37.8336 0.603978 37.373 0.949694 37 1.38002C36.6322 0.943485 36.1727 0.593473 35.6541 0.354935C35.1356 0.116397 34.5708 -0.00478971 34 1.54355e-05C33.4305 0.00322881 32.8683 0.128002 32.3509 0.36599C31.8336 0.603978 31.373 0.949694 31 1.38002C30.6322 0.943485 30.1727 0.593473 29.6541 0.354935C29.1356 0.116397 28.5708 -0.00478971 28 1.54355e-05C27.1154 0.00288778 26.2568 0.298886 25.5584 0.841705C24.8599 1.38452 24.3611 2.14354 24.14 3.00002H1C0.734784 3.00002 0.48043 3.10537 0.292893 3.29291C0.105357 3.48045 0 3.7348 0 4.00002V8.00002C0 8.00002 0.07 8.36002 0.08 8.39002L8.08 26.39C8.15954 26.5646 8.28763 26.7126 8.44899 26.8164C8.61034 26.9202 8.79814 26.9754 8.99 26.9754C9.18186 26.9754 9.36966 26.9202 9.53101 26.8164C9.69237 26.7126 9.82045 26.5646 9.9 26.39L17.65 9.00002H18.9C18.5359 9.44843 18.2732 9.9704 18.13 10.53C18.0507 10.6744 18.0062 10.8354 18 11V17.39C18 25.55 25 25.47 25 32.61V33.14C24.0685 33.3929 23.2599 33.974 22.7233 34.7762C22.1866 35.5785 21.9581 36.5477 22.0799 37.5051C22.2017 38.4626 22.6656 39.3437 23.3861 39.986C24.1065 40.6283 25.0349 40.9884 26 41H43C43.9651 40.9884 44.8935 40.6283 45.6139 39.986C46.3344 39.3437 46.7983 38.4626 46.9201 37.5051C47.0419 36.5477 46.8134 35.5785 46.2767 34.7762C45.7401 33.974 44.9315 33.3929 44 33.14V32.24C44 25.45 50 25.49 50 17.76V4.00002C50 2.93915 49.5786 1.92173 48.8284 1.17159C48.0783 0.421443 47.0609 1.54355e-05 46 1.54355e-05ZM46 2.00002C46.5304 2.00002 47.0391 2.21073 47.4142 2.5858C47.7893 2.96087 48 3.46958 48 4.00002V10C48 10.5304 47.7893 11.0392 47.4142 11.4142C47.0391 11.7893 46.5304 12 46 12C45.4696 12 44.9609 11.7893 44.5858 11.4142C44.2107 11.0392 44 10.5304 44 10V4.00002C44 3.46958 44.2107 2.96087 44.5858 2.5858C44.9609 2.21073 45.4696 2.00002 46 2.00002ZM40 2.00002C40.5304 2.00002 41.0391 2.21073 41.4142 2.5858C41.7893 2.96087 42 3.46958 42 4.00002V10C42 10.5304 41.7893 11.0392 41.4142 11.4142C41.0391 11.7893 40.5304 12 40 12C39.4696 12 38.9609 11.7893 38.5858 11.4142C38.2107 11.0392 38 10.5304 38 10V4.00002C38 3.46958 38.2107 2.96087 38.5858 2.5858C38.9609 2.21073 39.4696 2.00002 40 2.00002ZM34 2.00002C34.5304 2.00002 35.0391 2.21073 35.4142 2.5858C35.7893 2.96087 36 3.46958 36 4.00002V8.38002C35.2909 7.8111 34.4091 7.50072 33.5 7.50002H32V4.00002C32 3.46958 32.2107 2.96087 32.5858 2.5858C32.9609 2.21073 33.4696 2.00002 34 2.00002ZM28 2.00002C28.5304 2.00002 29.0391 2.21073 29.4142 2.5858C29.7893 2.96087 30 3.46958 30 4.00002V7.50002H26V4.00002C26 3.46958 26.2107 2.96087 26.5858 2.5858C26.9609 2.21073 27.4696 2.00002 28 2.00002ZM2 5.00002H24V7.00002H2V5.00002ZM9 23.54L2.54 9.00002H15.46L9 23.54ZM45 37C45 37.5304 44.7893 38.0392 44.4142 38.4142C44.0391 38.7893 43.5304 39 43 39H26C25.4696 39 24.9609 38.7893 24.5858 38.4142C24.2107 38.0392 24 37.5304 24 37C24 36.4696 24.2107 35.9609 24.5858 35.5858C24.9609 35.2107 25.4696 35 26 35H43C43.5304 35 44.0391 35.2107 44.4142 35.5858C44.7893 35.9609 45 36.4696 45 37ZM42 32.24V33H27V32.61C27 24.44 20 24.54 20 17.39V11.5C20 10.9696 20.2107 10.4609 20.5858 10.0858C20.9609 9.71073 21.4696 9.50002 22 9.50002H33.5C34.0304 9.50002 34.5391 9.71073 34.9142 10.0858C35.2893 10.4609 35.5 10.9696 35.5 11.5C35.5 12.0304 35.2893 12.5392 34.9142 12.9142C34.5391 13.2893 34.0304 13.5 33.5 13.5H27C26.7348 13.5 26.4804 13.6054 26.2929 13.7929C26.1054 13.9804 26 14.2348 26 14.5C26 14.7652 26.1054 15.0196 26.2929 15.2071C26.4804 15.3947 26.7348 15.5 27 15.5H33.5C34.3145 15.495 35.1082 15.2415 35.7747 14.7733C36.4413 14.3051 36.949 13.6446 37.23 12.88C37.6205 13.2524 38.0823 13.5419 38.5877 13.7311C39.093 13.9204 39.6314 14.0054 40.1705 13.9811C40.7095 13.9568 41.2381 13.8237 41.7244 13.5898C42.2106 13.3559 42.6446 13.026 43 12.62C43.373 13.0503 43.8336 13.3961 44.3509 13.634C44.8683 13.872 45.4305 13.9968 46 14C46.705 13.9971 47.396 13.8036 48 13.44V17.76C48 24.44 42 24.63 42 32.24Z" fill="#EBEBEB"/>
</svg>
