<svg width="72" height="72" viewBox="0 0 72 72" fill="none" xmlns="http://www.w3.org/2000/svg">
<path d="M46.4062 48.7188C47.6834 48.7188 48.7188 47.6834 48.7188 46.4062C48.7188 45.1291 47.6834 44.0938 46.4062 44.0938C45.1291 44.0938 44.0938 45.1291 44.0938 46.4062C44.0938 47.6834 45.1291 48.7188 46.4062 48.7188Z" fill="#00D2FF"/>
<path d="M46.4063 37.1562C44.5768 37.1562 42.7884 37.6988 41.2672 38.7152C39.7461 39.7316 38.5605 41.1762 37.8604 42.8664C37.1603 44.5566 36.9771 46.4165 37.334 48.2108C37.6909 50.0052 38.5719 51.6533 39.8655 52.947C41.1592 54.2406 42.8073 55.1216 44.6017 55.4785C46.396 55.8354 48.2559 55.6522 49.9461 54.9521C51.6363 54.252 53.0809 53.0664 54.0973 51.5453C55.1138 50.0241 55.6563 48.2357 55.6563 46.4062C55.6535 43.9538 54.6781 41.6027 52.944 39.8686C51.2098 38.1344 48.8587 37.159 46.4063 37.1562ZM46.4063 51.0312C45.4915 51.0312 44.5973 50.76 43.8367 50.2518C43.0762 49.7436 42.4834 49.0213 42.1333 48.1762C41.7833 47.3311 41.6917 46.4011 41.8701 45.504C42.0486 44.6068 42.4891 43.7827 43.1359 43.1359C43.7827 42.4891 44.6068 42.0486 45.504 41.8701C46.4011 41.6917 47.3311 41.7833 48.1762 42.1333C49.0213 42.4834 49.7436 43.0762 50.2518 43.8367C50.76 44.5973 51.0313 45.4915 51.0313 46.4062C51.0313 47.6329 50.544 48.8093 49.6766 49.6766C48.8093 50.544 47.6329 51.0312 46.4063 51.0312Z" fill="#00D2FF"/>
<path d="M46.4063 20.9688C41.3752 20.9688 36.4571 22.4606 32.2739 25.2557C28.0908 28.0508 24.8304 32.0236 22.9051 36.6717C20.9798 41.3198 20.476 46.4345 21.4575 51.3689C22.439 56.3033 24.8617 60.8358 28.4192 64.3933C31.9767 67.9508 36.5093 70.3735 41.4436 71.355C46.378 72.3365 51.4927 71.8327 56.1408 69.9074C60.7889 67.9821 64.7617 64.7217 67.5568 60.5386C70.3519 56.3554 71.8438 51.4373 71.8438 46.4062C71.8361 39.6622 69.1536 33.1965 64.3848 28.4277C59.616 23.6589 53.1504 20.9764 46.4063 20.9688ZM46.4063 64.9062C42.7473 64.9062 39.1705 63.8212 36.1282 61.7884C33.0859 59.7556 30.7147 56.8663 29.3145 53.4859C27.9143 50.1055 27.5479 46.3857 28.2617 42.7971C28.9756 39.2084 30.7375 35.912 33.3248 33.3248C35.9121 30.7375 39.2084 28.9755 42.7971 28.2617C46.3857 27.5479 50.1055 27.9143 53.4859 29.3145C56.8663 30.7147 59.7556 33.0859 61.7884 36.1282C63.8213 39.1705 64.9063 42.7473 64.9063 46.4062C64.9004 51.311 62.9495 56.0131 59.4813 59.4813C56.0132 62.9495 51.311 64.9004 46.4063 64.9062Z" fill="#00D2FF"/>
<path d="M46.4062 30.2187C43.2047 30.2187 40.075 31.1681 37.413 32.9468C34.7509 34.7255 32.6761 37.2537 31.451 40.2115C30.2258 43.1694 29.9052 46.4242 30.5298 49.5643C31.1544 52.7043 32.6961 55.5887 34.96 57.8525C37.2238 60.1164 40.1082 61.6581 43.2482 62.2827C46.3883 62.9073 49.6431 62.5867 52.6009 61.3615C55.5588 60.1363 58.087 58.0615 59.8657 55.3995C61.6444 52.7375 62.5938 49.6078 62.5938 46.4062C62.5892 42.1144 60.8822 37.9998 57.8475 34.965C54.8127 31.9303 50.698 30.2233 46.4062 30.2187ZM46.4062 57.9687C44.1194 57.9687 41.8839 57.2906 39.9825 56.0201C38.081 54.7496 36.599 52.9438 35.7239 50.831C34.8488 48.7182 34.6198 46.3934 35.0659 44.1505C35.5121 41.9076 36.6133 39.8474 38.2303 38.2303C39.8474 36.6133 41.9076 35.512 44.1505 35.0659C46.3934 34.6198 48.7183 34.8487 50.831 35.7239C52.9438 36.599 54.7496 38.081 56.0201 39.9825C57.2906 41.8839 57.9688 44.1194 57.9688 46.4062C57.9654 49.4718 56.7461 52.4108 54.5785 54.5784C52.4108 56.7461 49.4718 57.9654 46.4062 57.9687ZM17.5 56.3338V25.8666L18.7777 28.4231C18.9147 28.6975 19.1552 28.9063 19.4462 29.0034C19.7372 29.1006 20.0549 29.0782 20.3293 28.9411C20.6038 28.804 20.8126 28.5635 20.9097 28.2725C21.0069 27.9815 20.9844 27.6638 20.8473 27.3894L17.3786 20.4519C17.2827 20.2595 17.1351 20.0976 16.9523 19.9845C16.7695 19.8713 16.5587 19.8114 16.3438 19.8114C16.1288 19.8114 15.918 19.8713 15.7352 19.9845C15.5524 20.0976 15.4048 20.2595 15.3089 20.4519L11.8402 27.3894C11.7031 27.6638 11.6806 27.9815 11.7778 28.2725C11.8749 28.5635 12.0837 28.804 12.3582 28.9411C12.6326 29.0782 12.9503 29.1006 13.2413 29.0034C13.5323 28.9063 13.7728 28.6975 13.9098 28.4231L15.1875 25.8666V56.3338L10.9013 60.62C10.6844 60.8368 10.5626 61.1309 10.5625 61.4375V69.5312C10.5625 69.7599 10.6304 69.9834 10.7574 70.1735C10.8845 70.3636 11.0651 70.5117 11.2763 70.5992C11.4876 70.6867 11.72 70.7096 11.9443 70.665C12.1685 70.6204 12.3745 70.5104 12.5362 70.3487L16.3438 66.5412L20.1513 70.3487C20.313 70.5104 20.519 70.6204 20.7432 70.665C20.9675 70.7096 21.1999 70.6867 21.4112 70.5992C21.6224 70.5117 21.803 70.3636 21.9301 70.1735C22.0571 69.9834 22.125 69.7599 22.125 69.5312V61.4375C22.1249 61.1309 22.0031 60.8368 21.7862 60.62L17.5 56.3338Z" fill="#00D2FF"/>
<path d="M55.6562 3.625H54.5C54.5 2.70503 54.1345 1.82274 53.484 1.17222C52.8335 0.521707 51.9512 0.15625 51.0312 0.15625H41.7812C40.8613 0.15625 39.979 0.521707 39.3285 1.17222C38.678 1.82274 38.3125 2.70503 38.3125 3.625H37.1562C36.2363 3.625 35.354 3.99046 34.7035 4.64097C34.053 5.29149 33.6875 6.17378 33.6875 7.09375V9.40625C33.6875 9.71291 33.8093 10.007 34.0262 10.2238C34.243 10.4407 34.5371 10.5625 34.8438 10.5625C35.1504 10.5625 35.4445 10.4407 35.6613 10.2238C35.8782 10.007 36 9.71291 36 9.40625V7.09375C36 6.78709 36.1218 6.493 36.3387 6.27616C36.5555 6.05932 36.8496 5.9375 37.1562 5.9375H38.3125V10.5625C38.3148 12.5071 39.0171 14.3859 40.2911 15.8552C41.565 17.3245 43.3253 18.2859 45.25 18.5637V20.9688H38.3125C37.3925 20.9688 36.5102 21.3342 35.8597 21.9847C35.2092 22.6352 34.8438 23.5175 34.8438 24.4375V31.375H20.9688C20.0488 31.375 19.1665 31.7405 18.516 32.391C17.8655 33.0415 17.5 33.9238 17.5 34.8438V41.7812H3.625C2.70503 41.7812 1.82274 42.1467 1.17222 42.7972C0.521707 43.4477 0.15625 44.33 0.15625 45.25V56.8125C0.15625 57.1192 0.278069 57.4133 0.494908 57.6301C0.711747 57.8469 1.00584 57.9688 1.3125 57.9688H56.8125C57.1192 57.9688 57.4133 57.8469 57.6301 57.6301C57.8469 57.4133 57.9688 57.1192 57.9688 56.8125V24.4375C57.9688 23.5175 57.6033 22.6352 56.9528 21.9847C56.3023 21.3342 55.42 20.9688 54.5 20.9688H47.5625V18.5637C49.4872 18.2859 51.2475 17.3245 52.5214 15.8552C53.7954 14.3859 54.4977 12.5071 54.5 10.5625V5.9375H55.6562C55.9629 5.9375 56.257 6.05932 56.4738 6.27616C56.6907 6.493 56.8125 6.78709 56.8125 7.09375V9.40625C56.8125 9.71291 56.9343 10.007 57.1512 10.2238C57.368 10.4407 57.6621 10.5625 57.9688 10.5625C58.2754 10.5625 58.5695 10.4407 58.7863 10.2238C59.0032 10.007 59.125 9.71291 59.125 9.40625V7.09375C59.125 6.17378 58.7595 5.29149 58.109 4.64097C57.4585 3.99046 56.5762 3.625 55.6562 3.625ZM2.46875 45.25C2.46875 44.9433 2.59057 44.6492 2.80741 44.4324C3.02425 44.2156 3.31834 44.0938 3.625 44.0938H17.5V55.6562H2.46875V45.25ZM19.8125 55.6562V34.8438C19.8125 34.5371 19.9343 34.243 20.1512 34.0262C20.368 33.8093 20.6621 33.6875 20.9688 33.6875H34.8438V55.6562H19.8125ZM55.6562 24.4375V55.6562H37.1562V24.4375C37.1562 24.1308 37.2781 23.8367 37.4949 23.6199C37.7117 23.4031 38.0058 23.2812 38.3125 23.2812H54.5C54.8067 23.2812 55.1008 23.4031 55.3176 23.6199C55.5344 23.8367 55.6562 24.1308 55.6562 24.4375ZM52.1875 10.5625C52.1875 12.0958 51.5784 13.5663 50.4942 14.6505C49.41 15.7347 47.9395 16.3438 46.4062 16.3438C44.873 16.3438 43.4025 15.7347 42.3183 14.6505C41.2341 13.5663 40.625 12.0958 40.625 10.5625V3.625C40.625 3.31834 40.7468 3.02425 40.9637 2.80741C41.1805 2.59057 41.4746 2.46875 41.7812 2.46875H51.0312C51.3379 2.46875 51.632 2.59057 51.8488 2.80741C52.0657 3.02425 52.1875 3.31834 52.1875 3.625V10.5625Z" fill="white"/>
</svg>
