<svg width="62" height="63" viewBox="0 0 62 63" fill="none" xmlns="http://www.w3.org/2000/svg">
<path d="M60.501 61H55.501V42H60.501C60.7126 41.9995 60.9185 41.9319 61.0893 41.807C61.26 41.682 61.3867 41.5062 61.4512 41.3047C61.5157 41.1032 61.5145 40.8864 61.448 40.6856C61.3815 40.4847 61.253 40.3101 61.081 40.187L40.081 25.187C39.9115 25.0662 39.7086 25.0012 39.5005 25.0012C39.2924 25.0012 39.0895 25.0662 38.92 25.187L17.92 40.187C17.748 40.3101 17.6195 40.4847 17.553 40.6856C17.4865 40.8864 17.4853 41.1032 17.5498 41.3047C17.6143 41.5062 17.741 41.682 17.9117 41.807C18.0825 41.9319 18.2884 41.9995 18.5 42H23.5V61H18.5C18.2348 61 17.9804 61.1053 17.7929 61.2929C17.6054 61.4804 17.5 61.7347 17.5 62C17.5 62.2652 17.6054 62.5195 17.7929 62.7071C17.9804 62.8946 18.2348 63 18.5 63H60.5C60.7652 63 61.0196 62.8946 61.2071 62.7071C61.3946 62.5195 61.5 62.2652 61.5 62C61.5 61.7347 61.3946 61.4804 61.2071 61.2929C61.0196 61.1053 60.7662 61 60.501 61ZM38.501 59C38.501 59.2652 38.3956 59.5195 38.2081 59.7071C38.0206 59.8946 37.7662 60 37.501 60C37.2358 60 36.9814 59.8946 36.7939 59.7071C36.6064 59.5195 36.501 59.2652 36.501 59V55C36.501 53.9391 36.0796 52.9217 35.3294 52.1715C34.5793 51.4214 33.5619 51 32.501 51C31.4401 51 30.4227 51.4214 29.6726 52.1715C28.9224 52.9217 28.501 53.9391 28.501 55V59C28.501 59.2652 28.3956 59.5195 28.2081 59.7071C28.0206 59.8946 27.7662 60 27.501 60C27.2358 60 26.9814 59.8946 26.7939 59.7071C26.6064 59.5195 26.501 59.2652 26.501 59V55C26.5021 53.9706 26.7682 52.9588 27.2736 52.0621C27.7791 51.1654 28.5069 50.4139 29.387 49.88C28.5755 49.2341 27.9848 48.3519 27.697 47.3555C27.4091 46.3591 27.4382 45.2978 27.7803 44.3186C28.1223 43.3395 28.7604 42.491 29.6061 41.8906C30.4518 41.2902 31.4633 40.9677 32.5005 40.9677C33.5377 40.9677 34.5492 41.2902 35.3949 41.8906C36.2406 42.491 36.8787 43.3395 37.2207 44.3186C37.5628 45.2978 37.5919 46.3591 37.304 47.3555C37.0162 48.3519 36.4255 49.2341 35.614 49.88C36.4943 50.4138 37.2223 51.1652 37.7279 52.0619C38.2336 52.9587 38.4998 53.9705 38.501 55V59ZM52.501 59C52.501 59.2652 52.3956 59.5195 52.2081 59.7071C52.0206 59.8946 51.7662 60 51.501 60C51.2358 60 50.9814 59.8946 50.7939 59.7071C50.6064 59.5195 50.501 59.2652 50.501 59V55C50.501 53.9391 50.0796 52.9217 49.3294 52.1715C48.5793 51.4214 47.5619 51 46.501 51C45.4401 51 44.4227 51.4214 43.6726 52.1715C42.9224 52.9217 42.501 53.9391 42.501 55V59C42.501 59.2652 42.3956 59.5195 42.2081 59.7071C42.0206 59.8946 41.7662 60 41.501 60C41.2358 60 40.9814 59.8946 40.7939 59.7071C40.6064 59.5195 40.501 59.2652 40.501 59V55C40.5021 53.9706 40.7682 52.9588 41.2736 52.0621C41.7791 51.1654 42.5069 50.4139 43.387 49.88C42.5755 49.2341 41.9848 48.3519 41.697 47.3555C41.4091 46.3591 41.4382 45.2978 41.7803 44.3186C42.1223 43.3395 42.7604 42.491 43.6061 41.8906C44.4518 41.2902 45.4633 40.9677 46.5005 40.9677C47.5377 40.9677 48.5492 41.2902 49.3949 41.8906C50.2406 42.491 50.8787 43.3395 51.2207 44.3186C51.5628 45.2978 51.5919 46.3591 51.304 47.3555C51.0162 48.3519 50.4255 49.2341 49.614 49.88C50.4943 50.4138 51.2223 51.1652 51.7279 52.0619C52.2336 52.9587 52.4998 53.9705 52.501 55V59Z" fill="#00D2FF"/>
<path d="M32.5 49C34.1569 49 35.5 47.6569 35.5 46C35.5 44.3431 34.1569 43 32.5 43C30.8431 43 29.5 44.3431 29.5 46C29.5 47.6569 30.8431 49 32.5 49Z" fill="#00D2FF"/>
<path d="M46.5 49C48.1569 49 49.5 47.6569 49.5 46C49.5 44.3431 48.1569 43 46.5 43C44.8431 43 43.5 44.3431 43.5 46C43.5 47.6569 44.8431 49 46.5 49Z" fill="#00D2FF"/>
<path d="M43.5 49H33.5V30C33.4984 28.6744 32.9711 27.4035 32.0338 26.4662C31.0964 25.5288 29.8256 25.0015 28.5 25C27.7904 25.0023 27.0896 25.1571 26.445 25.454C26.3149 24.4991 25.8439 23.6235 25.1189 22.9887C24.3938 22.3539 23.4637 22.0027 22.5 22H17.5V14.92C18.9145 14.7163 20.2328 14.0847 21.2779 13.11C22.323 12.1352 23.0448 10.8641 23.3464 9.46715C23.648 8.07025 23.515 6.6145 22.9651 5.29541C22.4153 3.97633 21.475 2.85707 20.2705 2.08795C19.066 1.31884 17.655 0.936689 16.2271 0.992834C14.7991 1.04898 13.4224 1.54073 12.2821 2.40204C11.1417 3.26335 10.2922 4.45298 9.84758 5.81116C9.403 7.16935 9.38465 8.63105 9.795 9.99996H9.5C7.11386 10.0026 4.82622 10.9517 3.13896 12.6389C1.45171 14.3262 0.502647 16.6138 0.5 19V33C0.500794 33.7954 0.81712 34.558 1.37956 35.1204C1.94199 35.6828 2.70459 35.9992 3.5 36V49H1.5C1.23478 49 0.98043 49.1053 0.792893 49.2929C0.605357 49.4804 0.5 49.7347 0.5 50C0.5 50.2652 0.605357 50.5195 0.792893 50.7071C0.98043 50.8946 1.23478 51 1.5 51H43.5C43.7652 51 44.0196 50.8946 44.2071 50.7071C44.3946 50.5195 44.5 50.2652 44.5 50C44.5 49.7347 44.3946 49.4804 44.2071 49.2929C44.0196 49.1053 43.7652 49 43.5 49ZM21.5 24H22.5C23.0304 24 23.5391 24.2107 23.9142 24.5857C24.2893 24.9608 24.5 25.4695 24.5 26C24.5 26.5304 24.2893 27.0391 23.9142 27.4142C23.5391 27.7892 23.0304 28 22.5 28H21.5V24ZM21.5 7.99996C21.4984 9.32556 20.9711 10.5964 20.0338 11.5337C19.0964 12.4711 17.8256 12.9984 16.5 13C15.3393 12.9948 14.2174 12.5821 13.33 11.834C15.0164 11.527 16.5947 10.7885 17.9109 9.69039C19.2272 8.5923 20.2367 7.17206 20.841 5.56796C21.2673 6.308 21.4943 7.14595 21.5 7.99996ZM16.5 2.99996C17.4908 2.9991 18.4593 3.29441 19.281 3.84796C18.8886 5.53321 17.9568 7.04427 16.627 8.15144C15.2973 9.25862 13.6424 9.90136 11.914 9.98196C11.5836 9.22175 11.4476 8.39122 11.5185 7.56533C11.5893 6.73945 11.8647 5.9442 12.3198 5.25137C12.7748 4.55853 13.3953 3.98993 14.1251 3.59687C14.8549 3.20381 15.6711 2.99867 16.5 2.99996ZM3.5 34C3.23486 33.9997 2.98066 33.8943 2.79319 33.7068C2.60571 33.5193 2.50026 33.2651 2.5 33V19C2.50212 17.1441 3.2403 15.3648 4.55259 14.0526C5.86489 12.7403 7.64413 12.0021 9.5 12H10.764C11.3119 12.7846 12.0148 13.4485 12.8294 13.9507C13.644 14.4529 14.5529 14.7828 15.5 14.92V23C15.5 23.2652 15.6054 23.5195 15.7929 23.7071C15.9804 23.8946 16.2348 24 16.5 24H19.5V28H14.5C13.7046 27.9992 12.942 27.6828 12.3796 27.1204C11.8171 26.558 11.5008 25.7954 11.5 25V17C11.5 16.7347 11.3946 16.4804 11.2071 16.2929C11.0196 16.1053 10.7652 16 10.5 16C10.2348 16 9.98043 16.1053 9.79289 16.2929C9.60536 16.4804 9.5 16.7347 9.5 17V25C9.50159 26.3256 10.0289 27.5964 10.9662 28.5337C11.9036 29.4711 13.1744 29.9984 14.5 30H15.5V33C15.4997 33.2651 15.3943 33.5193 15.2068 33.7068C15.0193 33.8943 14.7651 33.9997 14.5 34H3.5ZM10.5 36V44H5.5V36H10.5ZM5.5 49V46H11.5C12.3865 46.0012 13.2475 46.2963 13.9484 46.8391C14.6492 47.382 15.1502 48.1419 15.373 49H5.5ZM31.5 49H17.41C17.2015 47.7728 16.6172 46.6407 15.7376 45.7599C14.8581 44.8792 13.7268 44.2932 12.5 44.083V36H14.5C15.2954 35.9992 16.058 35.6828 16.6204 35.1204C17.1829 34.558 17.4992 33.7954 17.5 33V30H23.5V32C23.5 32.2652 23.6054 32.5195 23.7929 32.7071C23.9804 32.8946 24.2348 33 24.5 33C24.7652 33 25.0196 32.8946 25.2071 32.7071C25.3946 32.5195 25.5 32.2652 25.5 32V30C25.5 29.2043 25.8161 28.4412 26.3787 27.8786C26.9413 27.316 27.7044 27 28.5 27C29.2956 27 30.0587 27.316 30.6213 27.8786C31.1839 28.4412 31.5 29.2043 31.5 30V49Z" fill="white"/>
</svg>
