<svg width="62" height="63" viewBox="0 0 62 63" fill="none" xmlns="http://www.w3.org/2000/svg">
<path d="M47.9998 40C47.1993 39.9925 46.4075 40.1662 45.6837 40.5081C44.9598 40.8499 44.3226 41.351 43.8198 41.974C43.7233 42.0988 43.5995 42.2 43.4579 42.2697C43.3163 42.3394 43.1606 42.3759 43.0028 42.3762C42.845 42.3766 42.6891 42.341 42.5472 42.2719C42.4053 42.2029 42.281 42.1024 42.1838 41.978C41.6809 41.3539 41.0433 40.8517 40.3187 40.5092C39.594 40.1666 38.8013 39.9925 37.9998 40C37.449 40.0103 36.906 40.1319 36.4034 40.3576C35.9008 40.5832 35.4491 40.9083 35.0754 41.3131C34.7017 41.7179 34.4137 42.1941 34.2289 42.7131C34.0441 43.2321 33.9661 43.7831 33.9998 44.333C33.9998 47.621 37.2728 51.09 42.9998 53.891C48.7268 51.09 51.9998 47.621 51.9998 44.333C52.0335 43.7831 51.9556 43.2321 51.7708 42.7131C51.5859 42.1941 51.298 41.7179 50.9243 41.3131C50.5506 40.9083 50.0989 40.5832 49.5963 40.3576C49.0937 40.1319 48.5507 40.0103 47.9998 40Z" fill="#00D2FF"/>
<path d="M59 31H47.414L41.707 25.293C41.5671 25.1532 41.389 25.058 41.195 25.0194C41.0011 24.9809 40.8 25.0007 40.6173 25.0764C40.4346 25.152 40.2785 25.2802 40.1686 25.4446C40.0587 25.609 40 25.8023 40 26V31H27C26.2046 31.0008 25.442 31.3172 24.8796 31.8796C24.3171 32.442 24.0008 33.2046 24 34V60C24.0008 60.7954 24.3171 61.558 24.8796 62.1205C25.442 62.6829 26.2046 62.9992 27 63H59C59.7954 62.9992 60.558 62.6829 61.1204 62.1205C61.6829 61.558 61.9992 60.7954 62 60V34C61.9992 33.2046 61.6829 32.442 61.1204 31.8796C60.558 31.3172 59.7954 31.0008 59 31ZM43.428 55.904C43.2941 55.9671 43.148 55.9998 43 55.9998C42.852 55.9998 42.7059 55.9671 42.572 55.904C33.373 51.551 32 46.786 32 44.333C31.97 43.5212 32.1022 42.7115 32.3889 41.9514C32.6756 41.1913 33.1111 40.496 33.6698 39.9063C34.2285 39.3165 34.8993 38.8442 35.6428 38.5169C36.3864 38.1895 37.1877 38.0138 38 38C39.8506 37.9918 41.6362 38.6821 43 39.933C44.3638 38.6821 46.1494 37.9918 48 38C48.8123 38.0138 49.6136 38.1895 50.3572 38.5169C51.1007 38.8442 51.7715 39.3165 52.3302 39.9063C52.8889 40.496 53.3244 41.1913 53.6111 41.9514C53.8978 42.7115 54.03 43.5212 54 44.333C54 46.786 52.627 51.551 43.428 55.904Z" fill="#00D2FF"/>
<path d="M49 49H47V47C46.9974 46.1156 46.7014 45.257 46.1585 44.5589C45.6156 43.8607 44.8565 43.3624 44 43.142V37.362C44.0016 36.9681 43.925 36.5779 43.7747 36.2138C43.6243 35.8498 43.4032 35.5192 43.1242 35.2413C42.8451 34.9634 42.5137 34.7436 42.149 34.5947C41.7844 34.4458 41.3938 34.3708 41 34.374V34C40.9974 31.6138 40.0483 29.3262 38.361 27.6389C36.6738 25.9517 34.3861 25.0026 32 25H31.896C34.2884 23.5029 36.1287 21.2679 37.1388 18.6327C38.1489 15.9975 38.274 13.1051 37.4953 10.3925C36.7165 7.67983 35.0761 5.29431 32.8219 3.59622C30.5678 1.89814 27.8222 0.979736 25 0.979736C22.1778 0.979736 19.4322 1.89814 17.1781 3.59622C14.9239 5.29431 13.2835 7.67983 12.5047 10.3925C11.726 13.1051 11.8511 15.9975 12.8612 18.6327C13.8713 21.2679 15.7116 23.5029 18.104 25H18C15.6139 25.0026 13.3262 25.9517 11.639 27.6389C9.95171 29.3262 9.00265 31.6138 9 34V34.374C8.60624 34.3708 8.21577 34.4458 7.85121 34.5946C7.48665 34.7434 7.15524 34.9631 6.8762 35.2409C6.59716 35.5188 6.37603 35.8492 6.22563 36.2131C6.07522 36.577 5.99853 36.9672 6 37.361V43.142C5.14352 43.3624 4.38436 43.8607 3.84147 44.5589C3.29858 45.257 3.00263 46.1156 3 47V49H1C0.734784 49 0.48043 49.1053 0.292893 49.2928C0.105357 49.4804 0 49.7347 0 50C0 50.2652 0.105357 50.5195 0.292893 50.7071C0.48043 50.8946 0.734784 51 1 51H49C49.2652 51 49.5196 50.8946 49.7071 50.7071C49.8946 50.5195 50 50.2652 50 50C50 49.7347 49.8946 49.4804 49.7071 49.2928C49.5196 49.1053 49.2652 49 49 49ZM42 37.361V43.142C41.1435 43.3624 40.3844 43.8607 39.8415 44.5589C39.2986 45.257 39.0026 46.1156 39 47V49H26V38.847L40.835 36.374C40.9784 36.35 41.1252 36.3575 41.2653 36.3961C41.4055 36.4347 41.5355 36.5033 41.6464 36.5973C41.7573 36.6912 41.8464 36.8082 41.9075 36.9401C41.9685 37.072 42.0001 37.2156 42 37.361ZM35.947 12.947C33.407 12.6993 31.0318 11.5773 29.2272 9.77273C27.4226 7.96816 26.3007 5.59296 26.053 3.05295C28.593 3.30063 30.9682 4.4226 32.7728 6.22718C34.5774 8.03175 35.6993 10.4069 35.947 12.947ZM23.947 3.05295C23.6993 5.59296 22.5774 7.96816 20.7728 9.77273C18.9682 11.5773 16.593 12.6993 14.053 12.947C14.3007 10.4069 15.4226 8.03175 17.2272 6.22718C19.0318 4.4226 21.407 3.30063 23.947 3.05295ZM14.048 14.947C16.4274 14.7525 18.7075 13.9076 20.639 12.5046C22.5706 11.1016 24.0792 9.19455 25 6.99195C25.9208 9.19455 27.4294 11.1016 29.361 12.5046C31.2925 13.9076 33.5726 14.7525 35.952 14.947C35.7173 17.69 34.4619 20.2451 32.4339 22.1071C30.4059 23.969 27.7531 25.0021 25 25.0021C22.2469 25.0021 19.5941 23.969 17.5661 22.1071C15.5381 20.2451 14.2827 17.69 14.048 14.947ZM18 27H32C33.8559 27.0021 35.6351 27.7402 36.9474 29.0525C38.2597 30.3648 38.9979 32.1441 39 34V34.653L35 35.319V32C35 31.7347 34.8946 31.4804 34.7071 31.2928C34.5196 31.1053 34.2652 31 34 31C33.7348 31 33.4804 31.1053 33.2929 31.2928C33.1054 31.4804 33 31.7347 33 32V35.653L25.165 36.959C25.0557 36.9765 24.9443 36.9765 24.835 36.959L17 35.653V32C17 31.7347 16.8946 31.4804 16.7071 31.2928C16.5196 31.1053 16.2652 31 16 31C15.7348 31 15.4804 31.1053 15.2929 31.2928C15.1054 31.4804 15 31.7347 15 32V35.32L11 34.653V34C11.0021 32.1441 11.7403 30.3648 13.0526 29.0525C14.3649 27.7402 16.1441 27.0021 18 27ZM9.165 36.374L24 38.847V49H11V47C10.9974 46.1156 10.7014 45.257 10.1585 44.5589C9.61564 43.8607 8.85648 43.3624 8 43.142V37.362C7.99958 37.2165 8.03094 37.0727 8.09189 36.9406C8.15283 36.8085 8.2419 36.6913 8.35285 36.5972C8.4638 36.5031 8.59397 36.4343 8.73425 36.3958C8.87453 36.3572 9.02154 36.3498 9.165 36.374ZM5 49V47C5 46.4695 5.21071 45.9608 5.58579 45.5857C5.96086 45.2107 6.46957 45 7 45C7.53043 45 8.03914 45.2107 8.41421 45.5857C8.78929 45.9608 9 46.4695 9 47V49H5ZM41 49V47C41 46.4695 41.2107 45.9608 41.5858 45.5857C41.9609 45.2107 42.4696 45 43 45C43.5304 45 44.0391 45.2107 44.4142 45.5857C44.7893 45.9608 45 46.4695 45 47V49H41Z" fill="white"/>
<path d="M29.9902 17.3269C29.4418 18.1486 28.6991 18.8223 27.828 19.2883C26.9568 19.7542 25.9841 19.998 24.9962 19.998C24.0083 19.998 23.0356 19.7542 22.1645 19.2883C21.2933 18.8223 20.5506 18.1486 20.0022 17.3269C19.8514 17.1149 19.6239 16.9701 19.368 16.9232C19.1121 16.8762 18.848 16.9308 18.6318 17.0754C18.4155 17.22 18.2641 17.4431 18.2096 17.6975C18.1552 17.9519 18.202 18.2175 18.3402 18.4379C19.0713 19.5329 20.0612 20.4307 21.2222 21.0515C22.3833 21.6724 23.6796 21.9973 24.9962 21.9973C26.3129 21.9973 27.6091 21.6724 28.7702 21.0515C29.9312 20.4307 30.9212 19.5329 31.6522 18.4379C31.7877 18.2175 31.8325 17.9532 31.7772 17.7004C31.7219 17.4477 31.5709 17.2262 31.3557 17.0826C31.1406 16.9389 30.8781 16.8842 30.6235 16.9299C30.3689 16.9757 30.1419 17.1173 29.9902 17.3269Z" fill="white"/>
</svg>
