<svg width="62" height="62" viewBox="0 0 62 62" fill="none" xmlns="http://www.w3.org/2000/svg">
<path d="M36.0001 39.4141L33.4141 42.0001H36.0001V39.4141Z" fill="#00D2FF"/>
<path d="M53 38H38V43C38 43.2652 37.8946 43.5196 37.7071 43.7071C37.5196 43.8946 37.2652 44 37 44H32V53C32 53.2652 32.1054 53.5196 32.2929 53.7071C32.4804 53.8946 32.7348 54 33 54H53C53.2652 54 53.5196 53.8946 53.7071 53.7071C53.8946 53.5196 54 53.2652 54 53V39C54 38.7348 53.8946 38.4804 53.7071 38.2929C53.5196 38.1054 53.2652 38 53 38ZM51 52H35C34.7348 52 34.4804 51.8946 34.2929 51.7071C34.1054 51.5196 34 51.2652 34 51C34 50.7348 34.1054 50.4804 34.2929 50.2929C34.4804 50.1054 34.7348 50 35 50H51C51.2652 50 51.5196 50.1054 51.7071 50.2929C51.8946 50.4804 52 50.7348 52 51C52 51.2652 51.8946 51.5196 51.7071 51.7071C51.5196 51.8946 51.2652 52 51 52ZM51 48H35C34.7348 48 34.4804 47.8946 34.2929 47.7071C34.1054 47.5196 34 47.2652 34 47C34 46.7348 34.1054 46.4804 34.2929 46.2929C34.4804 46.1054 34.7348 46 35 46H51C51.2652 46 51.5196 46.1054 51.7071 46.2929C51.8946 46.4804 52 46.7348 52 47C52 47.2652 51.8946 47.5196 51.7071 47.7071C51.5196 47.8946 51.2652 48 51 48ZM51 44H43C42.7348 44 42.4804 43.8946 42.2929 43.7071C42.1054 43.5196 42 43.2652 42 43C42 42.7348 42.1054 42.4804 42.2929 42.2929C42.4804 42.1054 42.7348 42 43 42H51C51.2652 42 51.5196 42.1054 51.7071 42.2929C51.8946 42.4804 52 42.7348 52 43C52 43.2652 51.8946 43.5196 51.7071 43.7071C51.5196 43.8946 51.2652 44 51 44Z" fill="#00D2FF"/>
<path d="M59 30H40.414L34.707 24.293C34.5671 24.1532 34.389 24.058 34.195 24.0194C34.0011 23.9809 33.8 24.0007 33.6173 24.0764C33.4346 24.152 33.2785 24.2802 33.1686 24.4446C33.0587 24.609 33 24.8023 33 25V30H27C26.2046 30.0008 25.442 30.3172 24.8796 30.8796C24.3171 31.442 24.0008 32.2046 24 33V59C24.0008 59.7954 24.3171 60.558 24.8796 61.1205C25.442 61.6829 26.2046 61.9992 27 62H59C59.7954 61.9992 60.558 61.6829 61.1204 61.1205C61.6829 60.558 61.9992 59.7954 62 59V33C61.9992 32.2046 61.6829 31.442 61.1204 30.8796C60.558 30.3172 59.7954 30.0008 59 30ZM56 53C55.9992 53.7954 55.6829 54.558 55.1204 55.1205C54.558 55.6829 53.7954 55.9992 53 56H33C32.2046 55.9992 31.442 55.6829 30.8796 55.1205C30.3171 54.558 30.0008 53.7954 30 53V43C30.0006 42.7345 30.1063 42.4799 30.294 42.292L36.292 36.294C36.4799 36.1063 36.7344 36.0006 37 36H53C53.7954 36.0008 54.558 36.3172 55.1204 36.8796C55.6829 37.442 55.9992 38.2046 56 39V53Z" fill="#00D2FF"/>
<path d="M47 6H32V3C31.9992 2.20459 31.6829 1.44199 31.1204 0.879557C30.558 0.31712 29.7954 0.000794215 29 0H21C20.2046 0.000794215 19.442 0.31712 18.8796 0.879557C18.3171 1.44199 18.0008 2.20459 18 3V6H3C2.20459 6.00079 1.44199 6.31712 0.879557 6.87956C0.31712 7.44199 0.000794215 8.20459 0 9V41C0.000794215 41.7954 0.31712 42.558 0.879557 43.1204C1.44199 43.6829 2.20459 43.9992 3 44H47C47.7954 43.9992 48.558 43.6829 49.1204 43.1204C49.6829 42.558 49.9992 41.7954 50 41V9C49.9992 8.20459 49.6829 7.44199 49.1204 6.87956C48.558 6.31712 47.7954 6.00079 47 6ZM20 3C20 2.73478 20.1054 2.48043 20.2929 2.29289C20.4804 2.10536 20.7348 2 21 2H29C29.2652 2 29.5196 2.10536 29.7071 2.29289C29.8946 2.48043 30 2.73478 30 3V6H20V3ZM3 8H47C47.2652 8 47.5196 8.10536 47.7071 8.29289C47.8946 8.48043 48 8.73478 48 9V24.245L29 29.674V29.5C28.9995 28.8371 28.7359 28.2015 28.2672 27.7328C27.7985 27.2641 27.1629 27.0005 26.5 27H23.5C22.8371 27.0005 22.2015 27.2641 21.7328 27.7328C21.2641 28.2015 21.0005 28.8371 21 29.5V29.674L2 24.245V9C2 8.73478 2.10536 8.48043 2.29289 8.29289C2.48043 8.10536 2.73478 8 3 8ZM27 29.5V32.5C26.9997 32.6325 26.947 32.7595 26.8533 32.8533C26.7596 32.947 26.6325 32.9997 26.5 33H23.5C23.3675 32.9997 23.2404 32.947 23.1467 32.8533C23.053 32.7595 23.0003 32.6325 23 32.5V29.5C23.0003 29.3675 23.053 29.2404 23.1467 29.1467C23.2404 29.053 23.3675 29.0003 23.5 29H26.5C26.6325 29.0003 26.7596 29.053 26.8533 29.1467C26.947 29.2404 26.9997 29.3675 27 29.5ZM47 42H3C2.73478 42 2.48043 41.8946 2.29289 41.7071C2.10536 41.5196 2 41.2652 2 41V26.326L21 31.755V32.5C21.0005 33.1629 21.2641 33.7985 21.7328 34.2672C22.2015 34.7359 22.8371 34.9995 23.5 35H26.5C27.1629 34.9995 27.7985 34.7359 28.2672 34.2672C28.7359 33.7985 28.9995 33.1629 29 32.5V31.755L48 26.326V41C48 41.2652 47.8946 41.5196 47.7071 41.7071C47.5196 41.8946 47.2652 42 47 42Z" fill="#EBEBEB"/>
</svg>
