<svg width="62" height="62" viewBox="0 0 62 62" fill="none" xmlns="http://www.w3.org/2000/svg">
<path d="M25.208 26.2899C25.115 26.1962 25.0044 26.1218 24.8826 26.071C24.7607 26.0203 24.63 25.9941 24.498 25.9941C24.366 25.9941 24.2353 26.0203 24.1134 26.071C23.9916 26.1218 23.881 26.1962 23.788 26.2899L12.788 37.2899C12.647 37.4298 12.5508 37.6085 12.5117 37.8033C12.4727 37.998 12.4925 38.2 12.5686 38.3834C12.6448 38.5669 12.7739 38.7235 12.9394 38.8333C13.1049 38.9431 13.2994 39.0011 13.498 38.9999H17.498V58.9999C17.498 59.7956 17.8141 60.5586 18.3767 61.1213C18.9393 61.6839 19.7024 61.9999 20.498 61.9999H28.498C29.2937 61.9999 30.0567 61.6839 30.6193 61.1213C31.1819 60.5586 31.498 59.7956 31.498 58.9999V38.9999H35.498C35.6966 39.0011 35.8911 38.9431 36.0566 38.8333C36.2221 38.7235 36.3512 38.5669 36.4274 38.3834C36.5035 38.2 36.5234 37.998 36.4843 37.8033C36.4452 37.6085 36.349 37.4298 36.208 37.2899L25.208 26.2899Z" fill="#00D2FF"/>
<path d="M61.208 26.2899L47.208 12.2899C47.115 12.1962 47.0044 12.1218 46.8826 12.071C46.7607 12.0203 46.63 11.9941 46.498 11.9941C46.366 11.9941 46.2353 12.0203 46.1134 12.071C45.9916 12.1218 45.881 12.1962 45.788 12.2899L31.788 26.2899C31.647 26.4298 31.5508 26.6085 31.5117 26.8033C31.4727 26.998 31.4925 27.2 31.5686 27.3834C31.6448 27.5669 31.7739 27.7235 31.9394 27.8333C32.1049 27.9431 32.2994 28.0011 32.498 27.9999H38.498V58.9999C38.498 59.7956 38.8141 60.5586 39.3767 61.1213C39.9393 61.6839 40.7024 61.9999 41.498 61.9999H51.498C52.2937 61.9999 53.0567 61.6839 53.6193 61.1213C54.1819 60.5586 54.498 59.7956 54.498 58.9999V27.9999H60.498C60.6966 28.0011 60.8911 27.9431 61.0566 27.8333C61.2221 27.7235 61.3512 27.5669 61.4274 27.3834C61.5035 27.2 61.5234 26.998 61.4843 26.8033C61.4452 26.6085 61.349 26.4298 61.208 26.2899Z" fill="#00D2FF"/>
<path d="M29 22.66C31.3912 21.4269 33.2986 19.426 34.416 16.9786C35.5335 14.5312 35.796 11.7794 35.1616 9.16482C34.5271 6.55029 33.0325 4.22481 30.9176 2.56177C28.8028 0.898732 26.1904 -0.00537109 23.5 -0.00537109C20.8096 -0.00537109 18.1972 0.898732 16.0824 2.56177C13.9675 4.22481 12.4729 6.55029 11.8384 9.16482C11.204 11.7794 11.4666 14.5312 12.584 16.9786C13.7014 19.426 15.6088 21.4269 18 22.66C13.01 23.8997 8.57737 26.7716 5.40662 30.8193C2.23587 34.867 0.508849 39.8583 0.5 45C0.5 45.2652 0.605357 45.5196 0.792893 45.7071C0.98043 45.8946 1.23478 46 1.5 46H45.5C45.7652 46 46.0196 45.8946 46.2071 45.7071C46.3946 45.5196 46.5 45.2652 46.5 45C46.4911 39.8583 44.7641 34.867 41.5934 30.8193C38.4226 26.7716 33.99 23.8997 29 22.66ZM13.5 12C13.5 10.0222 14.0865 8.08878 15.1853 6.44429C16.2841 4.7998 17.8459 3.51807 19.6732 2.7612C21.5004 2.00432 23.5111 1.80629 25.4509 2.19214C27.3907 2.57799 29.1725 3.5304 30.5711 4.92893C31.9696 6.32745 32.922 8.10928 33.3079 10.0491C33.6937 11.9889 33.4957 13.9996 32.7388 15.8268C31.9819 17.6541 30.7002 19.2159 29.0557 20.3147C27.4112 21.4135 25.4778 22 23.5 22C20.8478 22 18.3043 20.9464 16.4289 19.0711C14.5536 17.1957 13.5 14.6522 13.5 12ZM23.5 24C25.8112 24.0071 28.1054 24.3956 30.29 25.15L23.5 37.88L16.71 25.15C18.8946 24.3956 21.1888 24.0071 23.5 24ZM2.5 44C2.69016 40.1379 3.94298 36.4032 6.12037 33.2077C8.29776 30.0122 11.3152 27.4799 14.84 25.89L22.62 40.47C22.7057 40.6287 22.8327 40.7614 22.9876 40.8538C23.1426 40.9462 23.3196 40.995 23.5 40.995C23.6804 40.995 23.8574 40.9462 24.0124 40.8538C24.1673 40.7614 24.2943 40.6287 24.38 40.47L32.16 25.89C35.6811 27.4828 38.6944 30.0163 40.8681 33.2116C43.0418 36.4068 44.2916 40.14 44.48 44H2.5Z" fill="white"/>
</svg>
