<svg width="16" height="16" viewBox="0 0 16 16" fill="none" xmlns="http://www.w3.org/2000/svg">
<circle cx="8" cy="8" r="8" fill="white"/>
<path d="M8.14844 7.03125C8.64062 7.03125 9.02344 6.96289 9.29688 6.82617C9.72656 6.61133 9.94141 6.22461 9.94141 5.66602C9.94141 5.10352 9.71289 4.72461 9.25586 4.5293C8.99805 4.41992 8.61523 4.36523 8.10742 4.36523H6.02734V7.03125H8.14844ZM8.54102 11.0039C9.25586 11.0039 9.76562 10.7969 10.0703 10.3828C10.2617 10.1211 10.3574 9.80469 10.3574 9.43359C10.3574 8.80859 10.0781 8.38281 9.51953 8.15625C9.22266 8.03516 8.83008 7.97461 8.3418 7.97461H6.02734V11.0039H8.54102ZM4.88477 3.39258H8.58203C9.58984 3.39258 10.3066 3.69336 10.7324 4.29492C10.9824 4.65039 11.1074 5.06055 11.1074 5.52539C11.1074 6.06836 10.9531 6.51367 10.6445 6.86133C10.4844 7.04492 10.2539 7.21289 9.95312 7.36523C10.3945 7.5332 10.7246 7.72266 10.9434 7.93359C11.3301 8.30859 11.5234 8.82617 11.5234 9.48633C11.5234 10.041 11.3496 10.543 11.002 10.9922C10.4824 11.6641 9.65625 12 8.52344 12H4.88477V3.39258Z" fill="black"/>
</svg>
