<svg width="16" height="16" viewBox="0 0 16 16" fill="none" xmlns="http://www.w3.org/2000/svg">
<circle cx="8" cy="8" r="8" fill="white"/>
<path d="M8.54102 3.1582C9.63086 3.1582 10.4766 3.44531 11.0781 4.01953C11.6797 4.59375 12.0137 5.24609 12.0801 5.97656H10.9434C10.8145 5.42188 10.5566 4.98242 10.1699 4.6582C9.78711 4.33398 9.24805 4.17188 8.55273 4.17188C7.70508 4.17188 7.01953 4.4707 6.49609 5.06836C5.97656 5.66211 5.7168 6.57422 5.7168 7.80469C5.7168 8.8125 5.95117 9.63086 6.41992 10.2598C6.89258 10.8848 7.5957 11.1973 8.5293 11.1973C9.38867 11.1973 10.043 10.8672 10.4922 10.207C10.7305 9.85938 10.9082 9.40234 11.0254 8.83594H12.1621C12.0605 9.74219 11.7246 10.502 11.1543 11.1152C10.4707 11.8535 9.54883 12.2227 8.38867 12.2227C7.38867 12.2227 6.54883 11.9199 5.86914 11.3145C4.97461 10.5137 4.52734 9.27734 4.52734 7.60547C4.52734 6.33594 4.86328 5.29492 5.53516 4.48242C6.26172 3.59961 7.26367 3.1582 8.54102 3.1582Z" fill="black"/>
</svg>
