<svg width="16" height="16" viewBox="0 0 16 16" fill="none" xmlns="http://www.w3.org/2000/svg">
<circle cx="8" cy="8" r="8" fill="white"/>
<path d="M8.21875 11.0039C8.61328 11.0039 8.9375 10.9629 9.19141 10.8809C9.64453 10.7285 10.0156 10.4355 10.3047 10.002C10.5352 9.6543 10.7012 9.20898 10.8027 8.66602C10.8613 8.3418 10.8906 8.04102 10.8906 7.76367C10.8906 6.69727 10.6777 5.86914 10.252 5.2793C9.83008 4.68945 9.14844 4.39453 8.20703 4.39453H6.13867V11.0039H8.21875ZM4.9668 3.39258H8.45312C9.63672 3.39258 10.5547 3.8125 11.207 4.65234C11.7891 5.41016 12.0801 6.38086 12.0801 7.56445C12.0801 8.47852 11.9082 9.30469 11.5645 10.043C10.959 11.3477 9.91797 12 8.44141 12H4.9668V3.39258Z" fill="black"/>
</svg>
