<svg width="30" height="30" viewBox="0 0 30 30" fill="none" xmlns="http://www.w3.org/2000/svg">
<g clip-path="url(#clip0_705_4349)">
<path d="M2.75391 17.6954H0.878906C0.393516 17.6954 0 18.0889 0 18.5743V29.1212C0 29.6066 0.393516 30.0001 0.878906 30.0001H3.63281V18.5743C3.63281 18.0889 3.2393 17.6954 2.75391 17.6954ZM26.4261 18.2818L22.5848 20.9716C22.6538 21.261 22.6888 21.5575 22.6889 21.8551C22.6889 23.9587 20.9835 25.664 18.8798 25.6638L13.4975 25.6634C13.0121 25.6634 12.6186 25.2698 12.6186 24.7845C12.6187 24.2991 13.0122 23.9056 13.4976 23.9056L18.88 23.906L18.8801 23.9059C20.0128 23.906 20.931 22.9877 20.9311 21.855C20.9311 20.7223 20.0129 19.804 18.8802 19.804H14.0604C13.3095 19.804 12.5779 19.5884 11.933 19.2035C10.2314 18.188 8.15063 18.0932 6.36328 18.9506L5.39062 19.4172V30.0001H17.5245C19.5689 30.0001 21.5091 29.2225 22.9876 27.8106L29.2974 21.7848C29.5195 21.5727 29.6962 21.3178 29.817 21.0355C29.9377 20.7532 30 20.4494 30 20.1423C30 18.3047 27.9314 17.2279 26.4261 18.2818ZM25.5469 5.8595C25.0615 5.8595 24.668 6.25301 24.668 6.7384C24.668 7.22379 25.0615 7.61731 25.5469 7.61731H27.3047C27.7901 7.61731 28.1836 7.22379 28.1836 6.7384C28.1836 6.25301 27.7901 5.8595 27.3047 5.8595H25.5469ZM25.4004 3.69094L26.9227 2.81204C27.343 2.56934 27.487 2.0318 27.2443 1.61145C27.0016 1.1911 26.4641 1.04707 26.0438 1.28977L24.5215 2.16868C24.1011 2.41137 23.9571 2.94891 24.1998 3.36926C24.4425 3.78961 24.98 3.93364 25.4004 3.69094ZM24.5215 11.3081L26.0438 12.187C26.4641 12.4297 27.0016 12.2857 27.2443 11.8654C27.487 11.445 27.343 10.9075 26.9227 10.6648L25.4004 9.78586C24.98 9.54317 24.4425 9.68719 24.1998 10.1075C23.9571 10.5279 24.1011 11.0654 24.5215 11.3081ZM6.79688 7.61731C7.28227 7.61731 7.67578 7.22379 7.67578 6.7384C7.67578 6.25301 7.28227 5.8595 6.79688 5.8595H5.03906C4.55367 5.8595 4.16016 6.25301 4.16016 6.7384C4.16016 7.22379 4.55367 7.61731 5.03906 7.61731H6.79688ZM5.42109 2.81204L6.94336 3.69094C7.36371 3.93364 7.90125 3.78961 8.14395 3.36926C8.38664 2.94891 8.24262 2.41137 7.82227 2.16868L6.3 1.28977C5.87965 1.04707 5.34211 1.1911 5.09941 1.61145C4.85672 2.0318 5.00068 2.56934 5.42109 2.81204ZM6.3 12.187L7.82227 11.3081C8.24262 11.0654 8.38664 10.5279 8.14395 10.1075C7.90125 9.68719 7.36371 9.54317 6.94336 9.78586L5.42109 10.6648C5.00074 10.9075 4.85672 11.445 5.09941 11.8654C5.34211 12.2857 5.87959 12.4297 6.3 12.187Z" fill="#FDB600"/>
<path d="M12.7295 16.1133C12.7295 17.2459 13.6477 18.1641 14.7803 18.1641H17.5635C18.6961 18.1641 19.6143 17.2459 19.6143 16.1133V15.5273H12.7295V16.1133ZM11.8861 11.933C12.4221 12.3749 12.7295 12.9831 12.7295 13.6015V13.7695H15.293V8.2742L13.7926 6.77385C13.4494 6.43061 13.4494 5.87414 13.7926 5.5309C14.1358 5.18766 14.6923 5.18766 15.0356 5.5309L16.1719 6.66721L17.3082 5.5309C17.6514 5.18766 18.2079 5.18766 18.5512 5.5309C18.8944 5.87414 18.8944 6.43061 18.5512 6.77385L17.0508 8.2742V13.7695H19.6143V13.6015C19.6143 12.9831 19.9217 12.3749 20.4577 11.933C22.0163 10.6481 22.9102 8.75461 22.9102 6.73828C22.9102 3.02279 19.8874 0 16.1719 0C12.4564 0 9.43359 3.02279 9.43359 6.73828C9.43359 8.75461 10.3275 10.6481 11.8861 11.933Z" fill="#FDB600"/>
</g>
<defs>
<clipPath id="clip0_705_4349">
<rect width="30" height="30" fill="white"/>
</clipPath>
</defs>
</svg>
