<svg width="30" height="30" viewBox="0 0 30 30" fill="none" xmlns="http://www.w3.org/2000/svg">
<g clip-path="url(#clip0_705_4359)">
<path d="M3.64969 25.1153C3.30965 24.955 2.93833 24.8721 2.56242 24.8723C1.14949 24.8723 0 26.0224 0 27.4361C0 28.8499 1.14949 30 2.56242 30C3.97535 30 5.12484 28.8499 5.12484 27.4361C5.12509 27.0653 5.04441 26.6988 4.88842 26.3624L9.06035 22.1905L7.48436 21.2805L3.64969 25.1153ZM26.3612 4.88965C26.6983 5.04668 27.0657 5.12792 27.4376 5.12766C28.8505 5.12766 30 3.97752 30 2.56383C30 1.15014 28.8505 0 27.4376 0C26.0246 0 24.8752 1.15014 24.8752 2.56389C24.8749 2.93876 24.9573 3.30908 25.1165 3.64846L20.9419 7.82309L22.5179 8.73299L26.3612 4.88965ZM4.88215 3.6515C5.04228 3.31131 5.12516 2.93989 5.12484 2.56389C5.12484 1.15014 3.97535 0 2.56242 0C1.14949 0 0 1.15014 0 2.56389C0 3.97758 1.14949 5.12772 2.56242 5.12772C2.94562 5.12772 3.30908 5.04252 3.63586 4.89105L7.47938 8.73457L9.05537 7.82467L4.88215 3.6515ZM22.4338 11.7291L15.8789 15.5136V23.0825L22.4338 19.2981V11.7291ZM14.1211 15.5136L7.56615 11.7291V19.2981L14.1211 23.0825V15.5136ZM15 6.42223L8.44506 10.2067L15 13.9913L21.5549 10.2067L15 6.42223ZM27.4376 24.8723C27.0605 24.872 26.6881 24.9554 26.3473 25.1166L22.5128 21.2821L20.9368 22.192L25.1102 26.3654C24.9551 26.701 24.8749 27.0664 24.8751 27.4361C24.8751 28.8499 26.0246 30 27.4375 30C28.8505 30 30 28.8499 30 27.4361C30 26.0224 28.8505 24.8723 27.4376 24.8723Z" fill="#386BB7"/>
</g>
<defs>
<clipPath id="clip0_705_4359">
<rect width="30" height="30" fill="white"/>
</clipPath>
</defs>
</svg>
