<svg width="30" height="30" viewBox="0 0 30 30" fill="none" xmlns="http://www.w3.org/2000/svg">
<g clip-path="url(#clip0_705_4540)">
<path d="M1.80859 14.1102V14.9897C1.80865 15.1809 1.87096 15.3669 1.98609 15.5195C2.10123 15.6722 2.26294 15.7832 2.44676 15.8358C2.7027 15.9087 8.79311 17.6282 15.0012 17.6282C21.2093 17.6282 27.2997 15.9087 27.5556 15.8358C27.7395 15.7832 27.9012 15.6722 28.0163 15.5195C28.1314 15.3669 28.1938 15.1809 28.1938 14.9897V14.1102C28.1938 13.6241 27.8004 13.2307 27.3143 13.2307H2.6881C2.20197 13.2307 1.80859 13.6241 1.80859 14.1102ZM25.5553 21.1463C26.0414 21.1463 26.4348 20.7529 26.4348 20.2668V17.9353C25.1858 18.2301 23.306 18.6245 21.1151 18.9296C20.8937 22.1242 18.2512 24.6643 15.0012 24.6643C11.7512 24.6643 9.10868 22.1242 8.88728 18.9296C6.6959 18.6244 4.81633 18.2299 3.56761 17.9352V20.2668C3.56761 20.7529 3.96098 21.1463 4.44712 21.1463H5.69426C5.89866 21.8652 6.18813 22.5583 6.56004 23.2179L5.6728 24.1052C5.32926 24.4487 5.32926 25.0053 5.6728 25.3489L8.16016 27.8362C8.5037 28.1798 9.06031 28.1798 9.40384 27.8362L10.2911 26.949C10.9507 27.3209 11.6438 27.6103 12.3627 27.8148V29.1205C12.3627 29.6067 12.7561 30 13.2422 30H16.7603C17.2464 30 17.6398 29.6067 17.6398 29.1205V27.8148C18.3587 27.6104 19.0518 27.3209 19.7114 26.949L20.5987 27.8362C20.9422 28.1798 21.4988 28.1798 21.8424 27.8362L24.3297 25.3489C24.6733 25.0053 24.6733 24.4487 24.3297 24.1052L23.4425 23.2179C23.8144 22.5583 24.1038 21.8652 24.3083 21.1463H25.5553ZM13.6038 9.63452C13.1608 9.83499 12.639 9.63657 12.4408 9.19477L9.69525 3.04842C6.55623 4.70019 4.30194 7.83458 3.73724 11.4717H26.2652C25.7005 7.83458 23.4462 4.70013 20.3072 3.04842L17.5616 9.19477C17.3633 9.63687 16.8412 9.83475 16.3986 9.63452C15.9563 9.43528 15.7588 8.91479 15.9589 8.47158L18.998 1.67339C19.2164 1.18884 18.965 0.597932 18.452 0.458911C16.1921 -0.15301 13.81 -0.15297 11.5501 0.459029C11.0371 0.598049 10.7857 1.18896 11.0041 1.67351L14.0435 8.47158C14.2437 8.91479 14.047 9.43528 13.6038 9.63452Z" fill="#17D262"/>
</g>
<defs>
<clipPath id="clip0_705_4540">
<rect width="30" height="30" fill="white"/>
</clipPath>
</defs>
</svg>
