<svg width="34" height="35" viewBox="0 0 34 35" fill="none" xmlns="http://www.w3.org/2000/svg">
<g clip-path="url(#clip0_245_72)">
<path d="M16.1592 4.95833C16.6312 3.73017 18.3688 3.73017 18.8408 4.95833C19.4343 6.5026 21.3615 7.01897 22.6476 5.97835C23.6705 5.15075 25.1753 6.01955 24.97 7.31918C24.7119 8.95332 26.1226 10.3641 27.7567 10.1059C29.0564 9.90065 29.9252 11.4055 29.0976 12.4283C28.057 13.7145 28.5733 15.6416 30.1176 16.2351C31.3458 16.7071 31.3458 18.4447 30.1176 18.9168C28.5733 19.5103 28.057 21.4374 29.0976 22.7235C29.9252 23.7464 29.0564 25.2512 27.7567 25.0459C26.1226 24.7878 24.7119 26.1985 24.97 27.8327C25.1753 29.1323 23.6705 30.0011 22.6476 29.1735C21.3615 28.1329 19.4343 28.6493 18.8408 30.1935C18.3688 31.4217 16.6312 31.4217 16.1592 30.1935C15.5657 28.6493 13.6385 28.1329 12.3524 29.1735C11.3295 30.0011 9.82472 29.1323 10.03 27.8327C10.2881 26.1985 8.87739 24.7878 7.24325 25.0459C5.94362 25.2512 5.07482 23.7464 5.90243 22.7235C6.94304 21.4374 6.42667 19.5103 4.8824 18.9168C3.65424 18.4447 3.65424 16.7071 4.8824 16.2351C6.42667 15.6416 6.94304 13.7145 5.90243 12.4283C5.07482 11.4055 5.94362 9.90065 7.24325 10.1059C8.87739 10.3641 10.2881 8.95332 10.03 7.31918C9.82472 6.01955 11.3295 5.15075 12.3524 5.97835C13.6385 7.01897 15.5657 6.5026 16.1592 4.95833Z" stroke="#FF4D69"/>
<circle cx="17.5" cy="17.5759" r="8.42857" stroke="#FF4D69"/>
</g>
<defs>
<clipPath id="clip0_245_72">
<rect width="34" height="34" fill="white" transform="translate(0 0.0759277)"/>
</clipPath>
</defs>
</svg>
