<svg width="16" height="14" viewBox="0 0 16 14" fill="none" xmlns="http://www.w3.org/2000/svg">
<path d="M0 4.80699V4.62575C0 2.44137 1.57875 0.578245 3.73125 0.219495C5.12813 -0.0176924 6.60625 0.446682 7.625 1.467L8 1.84137L8.34688 1.467C9.39375 0.446682 10.8438 -0.0176924 12.2688 0.219495C14.4219 0.578245 16 2.44137 16 4.62575V4.80699C16 6.10387 15.4625 7.3445 14.5125 8.22887L8.86563 13.5007C8.63125 13.7195 8.32187 13.8414 8 13.8414C7.67812 13.8414 7.36875 13.7195 7.13438 13.5007L1.48719 8.22887C0.538437 7.3445 9.375e-06 6.10387 9.375e-06 4.80699H0Z" fill="white"/>
</svg>
