<svg width="25" height="23" viewBox="0 0 25 23" fill="none" xmlns="http://www.w3.org/2000/svg">
<path fill-rule="evenodd" clip-rule="evenodd" d="M6.25 5C5.25544 5 4.30161 5.39509 3.59835 6.09835C2.89509 6.80161 2.5 7.75544 2.5 8.75V18.75C2.5 19.7446 2.89509 20.6984 3.59835 21.4017C4.30161 22.1049 5.25544 22.5 6.25 22.5H18.75C19.7446 22.5 20.6984 22.1049 21.4017 21.4017C22.1049 20.6984 22.5 19.7446 22.5 18.75V8.75C22.5 7.75544 22.1049 6.80161 21.4017 6.09835C20.6984 5.39509 19.7446 5 18.75 5H6.25ZM5.625 11.875C5.625 11.0462 5.95424 10.2513 6.54029 9.66529C7.12634 9.07924 7.9212 8.75 8.75 8.75C9.5788 8.75 10.3737 9.07924 10.9597 9.66529C11.5458 10.2513 11.875 11.0462 11.875 11.875V17.5H9.375V15H8.125V17.5H5.625V13.75V11.875ZM9.375 12.5V11.875C9.375 11.7092 9.30915 11.5503 9.19194 11.4331C9.07473 11.3158 8.91576 11.25 8.75 11.25C8.58424 11.25 8.42527 11.3158 8.30806 11.4331C8.19085 11.5503 8.125 11.7092 8.125 11.875V12.5H9.375ZM14.375 8.75C14.0435 8.75 13.7255 8.8817 13.4911 9.11612C13.2567 9.35054 13.125 9.66848 13.125 10V17.5C13.125 17.8315 13.2567 18.1495 13.4911 18.3839C13.7255 18.6183 14.0435 18.75 14.375 18.75H15.625C16.6196 18.75 17.5734 18.3549 18.2767 17.6517C18.9799 16.9484 19.375 15.9946 19.375 15V12.5C19.375 11.5054 18.9799 10.5516 18.2767 9.84835C17.5734 9.14509 16.6196 8.75 15.625 8.75H14.375ZM16.875 15C16.875 15.3315 16.7433 15.6495 16.5089 15.8839C16.2745 16.1183 15.9565 16.25 15.625 16.25V11.25C15.9565 11.25 16.2745 11.3817 16.5089 11.6161C16.7433 11.8505 16.875 12.1685 16.875 12.5V13.75V15ZM25 2.5H0V0H25V2.5Z" fill="#FF4D69"/>
<path fill-rule="evenodd" clip-rule="evenodd" d="M10 1.25V6.25H7.5V1.25H10ZM17.5 1.25V6.25H15V1.25H17.5Z" fill="#FF4D69"/>
</svg>
