<svg width="30" height="30" viewBox="0 0 30 30" fill="none" xmlns="http://www.w3.org/2000/svg">
<g clip-path="url(#clip0_705_4048)">
<path fill-rule="evenodd" clip-rule="evenodd" d="M1.32467 8.85476C2.14381 5.79757 4.14309 3.37185 6.70088 1.93589L6.11957 1.17441C7.50303 0.808256 10.1807 0.751889 11.6101 1.85081C10.6228 2.34201 9.5793 3.47064 8.75787 4.63062L8.08082 3.74369C5.31561 5.21943 3.19568 8.07974 2.36289 11.1878C1.83766 13.1479 1.79998 15.1057 2.16895 16.8949C0.947383 14.4977 0.573497 11.6581 1.32467 8.85476ZM15 8.22494C14.2856 8.22494 13.7065 8.80408 13.7065 9.51845C13.7065 10.0675 14.0486 10.5366 14.5312 10.7243V13.2588H15.4687V10.7243C15.9513 10.5366 16.2934 10.0675 16.2934 9.51845C16.2934 8.80408 15.7144 8.22494 15 8.22494ZM6.4044 8.22494C5.69002 8.22494 5.11088 8.80408 5.11088 9.51845C5.11088 10.2328 5.69002 10.812 6.4044 10.812C6.95342 10.812 7.42252 10.4698 7.61025 9.9872H8.79256V12.0467H9.73006V9.51845C9.73006 9.39413 9.68067 9.2749 9.59277 9.18699C9.50486 9.09909 9.38563 9.0497 9.26131 9.0497H7.61025C7.42252 8.56706 6.95342 8.22494 6.4044 8.22494ZM18.4719 22.3609H11.528C11.4659 22.3612 11.4046 22.3473 11.3486 22.3203C11.2927 22.2933 11.2436 22.2539 11.2052 22.2051C11.1668 22.1564 11.1399 22.0995 11.1268 22.0388C11.1136 21.9781 11.1144 21.9152 11.1292 21.8548C11.5497 20.107 13.1231 18.8081 14.9999 18.8081C16.8768 18.8081 18.4502 20.107 18.8706 21.8549C18.8854 21.9152 18.8862 21.9781 18.8731 22.0388C18.8599 22.0995 18.8331 22.1564 18.7947 22.2052C18.7562 22.2539 18.7072 22.2933 18.6513 22.3203C18.5953 22.3473 18.534 22.3612 18.4719 22.3609ZM20.7387 12.9842C21.8504 12.9842 22.7515 13.8854 22.7515 14.9971C22.7515 16.1088 21.8503 17.01 20.7387 17.01C19.627 17.01 18.7257 16.1088 18.7257 14.9971C18.7257 13.8854 19.627 12.9842 20.7387 12.9842ZM14.9999 14.1963C13.8882 14.1963 12.9871 15.0976 12.9871 16.2093C12.9871 17.321 13.8883 18.2221 14.9999 18.2221C16.1116 18.2221 17.0129 17.3209 17.0129 16.2093C17.0129 15.0976 16.1116 14.1963 14.9999 14.1963ZM9.26131 12.9842C8.14961 12.9842 7.24844 13.8854 7.24844 14.9971C7.24844 16.1088 8.14967 17.01 9.26131 17.01C10.373 17.01 11.2742 16.1088 11.2742 14.9971C11.2742 13.8854 10.373 12.9842 9.26131 12.9842ZM19.638 21.1488H24.2106C24.2727 21.149 24.334 21.1352 24.39 21.1082C24.4459 21.0812 24.4949 21.0418 24.5334 20.993C24.5718 20.9442 24.5986 20.8873 24.6118 20.8266C24.625 20.7659 24.6241 20.703 24.6094 20.6427C24.1889 18.8949 22.6155 17.596 20.7387 17.596C19.6182 17.596 18.606 18.059 17.8825 18.804C18.6779 19.3791 19.2995 20.1896 19.638 21.1488ZM5.78939 21.1488H10.3619C10.7004 20.1896 11.3221 19.3791 12.1174 18.804C11.394 18.059 10.3817 17.596 9.26131 17.596C7.38443 17.596 5.81102 18.8949 5.39061 20.6427C5.37583 20.703 5.37499 20.7659 5.38815 20.8266C5.40132 20.8873 5.42814 20.9442 5.46658 20.993C5.50502 21.0418 5.55407 21.0812 5.61 21.1082C5.66594 21.1352 5.72729 21.149 5.78939 21.1488ZM20.2699 12.0467V9.51845C20.2699 9.39413 20.3193 9.2749 20.4072 9.18699C20.4951 9.09909 20.6143 9.0497 20.7387 9.0497H22.3896C22.5774 8.56706 23.0465 8.22494 23.5955 8.22494C24.3099 8.22494 24.889 8.80408 24.889 9.51845C24.889 10.2328 24.3099 10.812 23.5955 10.812C23.0465 10.812 22.5774 10.4698 22.3896 9.9872H21.2074V12.0467H20.2699ZM28.6753 21.1452C29.4265 18.3419 29.0526 15.5023 27.831 13.1051C28.2 14.8943 28.1623 16.852 27.6371 18.8122C26.8043 21.9202 24.6844 24.7805 21.9191 26.2563L21.242 25.3694C20.4206 26.5293 19.3771 27.658 18.3898 28.1492C19.8192 29.2481 22.4968 29.1917 23.8803 28.8256L23.2991 28.0641C25.8569 26.6281 27.8562 24.2024 28.6753 21.1452Z" fill="#FDB600"/>
</g>
<defs>
<clipPath id="clip0_705_4048">
<rect width="30" height="30" fill="white"/>
</clipPath>
</defs>
</svg>
