<svg width="30" height="30" viewBox="0 0 30 30" fill="none" xmlns="http://www.w3.org/2000/svg">
<path d="M2.87867 22.9143V9.23371C2.87867 8.52461 3.45529 7.9477 4.16404 7.9477H11.549C11.5735 7.78656 11.6015 7.6276 11.6328 7.47086H3.94437C3.09195 7.47086 2.39844 8.16326 2.39844 9.01434V23.3784H2.96586C2.90819 23.2304 2.87862 23.0731 2.87867 22.9143ZM19.4097 15.8979V14.726C19.4097 13.8053 19.0156 12.77 18.6618 12.4166L18.3734 12.1286C18.2345 12.8874 18.0315 13.6483 17.7672 14.4L19.4097 15.8979ZM15.0078 9.86969C15.2274 9.86969 15.4061 9.69145 15.4061 9.47242C15.4061 9.25334 15.2274 9.07516 15.0078 9.07516C14.7882 9.07516 14.6095 9.2534 14.6095 9.47242C14.6095 9.69145 14.7882 9.86969 15.0078 9.86969ZM15.0078 3.3833C14.1527 3.93959 13.46 4.80473 12.9814 5.88695H17.0346C16.5559 4.80473 15.863 3.93965 15.0078 3.3833Z" fill="#17D262"/>
<path d="M26.3187 22.9144V9.23377C26.3187 8.98135 26.1049 8.76807 25.8519 8.76807H18.5615C18.6213 9.5343 18.6074 10.3214 18.5212 11.1167L19.2417 11.8363C19.7961 12.3899 20.2303 13.6592 20.2303 14.7261V16.8271C20.2302 16.9066 20.2071 16.9844 20.1637 17.051C20.1203 17.1176 20.0584 17.1701 19.9857 17.2023C19.913 17.2344 19.8325 17.2446 19.754 17.2318C19.6755 17.219 19.6025 17.1837 19.5437 17.1302L17.4521 15.2226C17.3155 15.551 17.168 15.8748 17.0099 16.1934C16.9759 16.2618 16.9236 16.3193 16.8586 16.3596C16.7937 16.3998 16.7189 16.4211 16.6425 16.4211H16.495C16.421 18.0755 15.9011 19.034 15.3423 19.8205C15.3044 19.8739 15.2543 19.9174 15.1961 19.9474C15.138 19.9774 15.0734 19.9931 15.008 19.9931H15.0077C14.9422 19.9931 14.8776 19.9773 14.8195 19.9472C14.7613 19.9171 14.7112 19.8735 14.6733 19.82C14.1148 19.0315 13.5952 18.0718 13.5211 16.4211H13.3735C13.2971 16.4211 13.2223 16.3998 13.1574 16.3595C13.0924 16.3193 13.04 16.2617 13.0061 16.1933C12.8399 15.8582 12.6854 15.5174 12.5431 15.1715L10.3968 17.1301C10.3381 17.1837 10.265 17.2191 10.1865 17.232C10.108 17.2448 10.0275 17.2345 9.95475 17.2024C9.88199 17.1703 9.82014 17.1177 9.77672 17.0511C9.7333 16.9845 9.71018 16.9067 9.71018 16.8272V14.7261C9.71018 13.6572 10.1446 12.3877 10.6992 11.8358L11.4885 11.0459C11.4091 10.2747 11.3973 9.51156 11.4553 8.76813H4.16428C3.90787 8.76813 3.69922 8.97707 3.69922 9.23383V22.9144C3.69922 23.1702 3.90787 23.3783 4.16428 23.3783H25.8519C26.1093 23.3784 26.3187 23.1702 26.3187 22.9144ZM12.4105 18.3395C11.0708 18.3395 9.96418 19.3422 9.83627 20.6717C9.831 20.7264 9.81479 20.7795 9.78861 20.8279C9.76242 20.8762 9.72679 20.9188 9.68383 20.953C9.64087 20.9873 9.59146 21.0126 9.53853 21.0274C9.4856 21.0423 9.43024 21.0463 9.37572 21.0393C9.26712 21.0259 9.15778 21.0194 9.04836 21.0198C8.0627 21.0198 7.14793 21.5938 6.71803 22.4822C6.69456 22.5307 6.66178 22.574 6.62155 22.6099C6.58131 22.6457 6.53442 22.6732 6.48354 22.6909C6.43267 22.7086 6.37881 22.7161 6.32503 22.713C6.27126 22.7098 6.21863 22.6961 6.17015 22.6727C6.12166 22.6492 6.07828 22.6164 6.04246 22.5762C6.00665 22.536 5.97911 22.4891 5.96142 22.4382C5.94373 22.3873 5.93623 22.3335 5.93935 22.2797C5.94248 22.2259 5.95616 22.1733 5.97963 22.1248C6.54564 20.9552 7.75021 20.1995 9.04836 20.1995L9.08041 20.1996C9.41264 18.6465 10.7807 17.5192 12.4104 17.5192C12.6369 17.5192 12.8206 17.7028 12.8206 17.9293C12.8206 17.9832 12.81 18.0365 12.7894 18.0863C12.7688 18.136 12.7386 18.1813 12.7005 18.2194C12.6624 18.2575 12.6172 18.2877 12.5674 18.3083C12.5177 18.3289 12.4643 18.3395 12.4105 18.3395ZM23.8454 22.6729C23.7474 22.7202 23.6347 22.7265 23.532 22.6907C23.4293 22.6548 23.345 22.5796 23.2978 22.4816C22.8696 21.5936 21.955 21.0198 20.9677 21.0198C20.8527 21.0198 20.7423 21.0263 20.6395 21.0394C20.5851 21.0462 20.5298 21.0421 20.477 21.0272C20.4241 21.0123 20.3748 20.987 20.3319 20.9527C20.2891 20.9184 20.2535 20.8759 20.2274 20.8276C20.2012 20.7793 20.185 20.7263 20.1798 20.6717C20.0519 19.3421 18.9453 18.3395 17.6056 18.3395C17.4968 18.3395 17.3925 18.2963 17.3155 18.2193C17.2386 18.1424 17.1954 18.0381 17.1954 17.9293C17.1954 17.8205 17.2386 17.7162 17.3155 17.6393C17.3925 17.5624 17.4968 17.5192 17.6056 17.5192C19.2353 17.5192 20.6033 18.6465 20.9356 20.1996L20.9676 20.1995C22.2678 20.1995 23.4725 20.9554 24.0366 22.1253C24.0601 22.1738 24.0737 22.2265 24.0767 22.2803C24.0798 22.3341 24.0722 22.3879 24.0545 22.4388C24.0367 22.4896 24.0091 22.5365 23.9732 22.5767C23.9374 22.6168 23.8939 22.6496 23.8454 22.6729ZM10.7813 25.0371H19.2155C19.4477 25.0371 19.6367 24.8494 19.6367 24.6187V24.1987H10.3602V24.6187C10.3602 24.8494 10.5491 25.0371 10.7813 25.0371Z" fill="#17D262"/>
<path d="M16.6777 14.9518H13.3418C13.4334 15.1703 13.5301 15.3867 13.6318 15.6007H16.3874C16.4893 15.3867 16.586 15.1704 16.6777 14.9518ZM15.6755 16.4209H14.3438C14.3944 17.4648 14.6404 18.1894 15.01 18.8286C15.3793 18.191 15.625 17.4667 15.6755 16.4209ZM29.4598 24.1986H20.4585V24.6187C20.4585 25.3016 19.9016 25.8574 19.2171 25.8574H10.7828C10.0983 25.8574 9.54135 25.3017 9.54135 24.6187V24.1986H0.540117C0.501445 24.1986 0.46875 24.2318 0.46875 24.2712V24.6082C0.46875 25.7157 1.37039 26.6168 2.47863 26.6168H27.5213C28.6296 26.6168 29.5313 25.7157 29.5313 24.6082V24.2712C29.5312 24.2318 29.4986 24.1986 29.4598 24.1986ZM11.2804 12.4163C10.926 12.7689 10.5322 13.8036 10.5322 14.7259V15.8974L12.2321 14.3461C11.9696 13.5902 11.7693 12.8254 11.6334 12.063L11.2804 12.4163ZM16.9939 14.1315C17.6932 12.1455 17.9367 10.0979 17.6804 8.22134C17.6077 7.6889 17.4946 7.18241 17.345 6.70728H12.6747C12.5252 7.18235 12.4121 7.68884 12.3395 8.22128C12.0834 10.0977 12.3268 12.1454 13.0258 14.1315H16.9939V14.1315ZM15.0096 8.25485C15.6816 8.25485 16.2282 8.80106 16.2282 9.47243C16.2282 10.1438 15.6816 10.69 15.0096 10.69C14.3377 10.69 13.791 10.1438 13.791 9.47243C13.791 8.80106 14.3377 8.25485 15.0096 8.25485ZM25.8534 7.94765C26.5631 7.94765 27.1406 8.52456 27.1406 9.23366V22.9143C27.1406 23.0779 27.1095 23.2342 27.0533 23.3783H27.619V9.01429C27.619 8.16321 26.9255 7.47081 26.0731 7.47081H18.3853C18.4169 7.62909 18.4449 7.78808 18.4692 7.94765H25.8534Z" fill="#17D262"/>
</svg>
