<svg width="30" height="30" viewBox="0 0 30 30" fill="none" xmlns="http://www.w3.org/2000/svg">
<g clip-path="url(#clip0_705_4057)">
<path d="M22.5562 10.8473L27.7757 7.83378C28.8779 9.87835 29.504 12.2176 29.504 14.7034H23.4819C23.4819 13.3148 23.1479 12.0041 22.5562 10.8473ZM15.002 22.0017C11.295 22.0017 8.28969 18.9964 8.28969 15.2894H0.5L0.500059 17.0032C0.500059 17.4916 0.899551 17.8911 1.38793 17.8911H3.00488C3.98293 17.8911 4.81807 18.4492 5.1923 19.3527C5.5666 20.2564 5.37066 21.2414 4.67902 21.933L3.53562 23.0764C3.19027 23.4218 3.19027 23.9867 3.53562 24.3321L5.95936 26.7558C6.30465 27.1011 6.86967 27.1011 7.21496 26.7558L8.35836 25.6124C9.04994 24.9208 10.035 24.7249 10.9386 25.0992C11.8422 25.4734 12.4002 26.3086 12.4002 27.2866V28.9036C12.4002 29.3919 12.7998 29.7914 13.2881 29.7914H16.7157C17.2041 29.7914 17.6036 29.3919 17.6036 28.9036V27.2866C17.6036 26.3085 18.1616 25.4734 19.0652 25.0991C19.9688 24.7249 20.9539 24.9208 21.6454 25.6124L22.7888 26.7558C23.1341 27.1011 23.6992 27.1011 24.0444 26.7558L26.4682 24.3321C26.8135 23.9867 26.8135 23.4218 26.4682 23.0764L25.3248 21.933C24.6332 21.2414 24.4373 20.2564 24.8115 19.3527C25.1858 18.4492 26.0209 17.8911 26.9989 17.8911H28.6159C29.1042 17.8911 29.5038 17.4916 29.5038 17.0032V15.2894H21.7141C21.7142 18.9964 18.7089 22.0017 15.002 22.0017ZM22.1178 10.0899L27.3373 7.0764C26.1521 5.16484 24.5405 3.55349 22.6288 2.36845L19.6156 7.58745C20.6155 8.2374 21.468 9.0899 22.1178 10.0899ZM21.8718 1.92946C19.9481 0.892647 17.7632 0.277822 15.4414 0.20874V6.23476C16.6321 6.2947 17.7966 6.60653 18.8579 7.14964L21.8718 1.92946ZM15.002 13.0456C15.2147 13.0456 15.4206 13.0752 15.6156 13.1306L19.9773 10.3141L17.1608 14.6757C17.2173 14.8754 17.2459 15.0819 17.2457 15.2894C17.2457 16.5286 16.2412 17.5331 15.002 17.5331C13.7628 17.5331 12.7583 16.5286 12.7583 15.2894C12.7582 14.0502 13.7628 13.0456 15.002 13.0456ZM14.2487 15.2894C14.2487 15.7054 14.5859 16.0426 15.002 16.0426C15.418 16.0426 15.7552 15.7054 15.7552 15.2894C15.7552 14.8733 15.418 14.5361 15.002 14.5361C14.5859 14.5361 14.2487 14.8733 14.2487 15.2894ZM15.002 18.4119C13.2777 18.4119 11.8794 17.0136 11.8794 15.2894H9.16859C9.16859 18.5111 11.7802 21.1227 15.002 21.1227C18.2237 21.1227 20.8353 18.5111 20.8353 15.2894H18.1245C18.1245 17.0137 16.7262 18.4119 15.002 18.4119ZM14.5625 6.23476V0.20874C12.241 0.277822 10.0565 0.892647 8.13289 1.92911L11.1467 7.14923C12.2079 6.60634 13.3721 6.29466 14.5625 6.23476ZM10.3876 7.58792L7.37434 2.36886C5.463 3.55394 3.85174 5.16512 2.66656 7.0764L7.88609 10.0899C8.53577 9.09012 9.38795 8.23778 10.3876 7.58792ZM7.44775 10.8473L2.22822 7.83378C1.1259 9.87835 0.5 12.2176 0.5 14.7034H6.52203C6.52203 13.3148 6.8559 12.0041 7.44775 10.8473Z" fill="url(#paint0_linear_705_4057)"/>
</g>
<defs>
<linearGradient id="paint0_linear_705_4057" x1="0.5" y1="15.0001" x2="29.504" y2="15.0001" gradientUnits="userSpaceOnUse">
<stop stop-color="#3A7BD5"/>
<stop offset="1" stop-color="#00D2FF"/>
</linearGradient>
<clipPath id="clip0_705_4057">
<rect width="30" height="30" fill="white"/>
</clipPath>
</defs>
</svg>
