<svg width="31" height="31" viewBox="0 0 31 31" fill="none" xmlns="http://www.w3.org/2000/svg">
<path d="M26.9952 2.42191C26.876 2.42206 26.7578 2.39864 26.6476 2.35298C26.5374 2.30732 26.4373 2.24033 26.3531 2.15586C25.9984 1.80124 25.9984 1.22616 26.3531 0.871481L26.9586 0.266013C27.3132 -0.0886709 27.8883 -0.0886709 28.2429 0.266013C28.5976 0.620696 28.5976 1.19571 28.2429 1.55039L27.6375 2.15586C27.5532 2.24034 27.4531 2.30733 27.3429 2.35299C27.2327 2.39865 27.1145 2.42207 26.9952 2.42191ZM27.6007 20.5829C27.4814 20.5831 27.3633 20.5597 27.2531 20.514C27.1429 20.4684 27.0428 20.4014 26.9586 20.3169L26.3531 19.7114C25.9984 19.3568 25.9984 18.7817 26.3531 18.427C26.7077 18.0724 27.2828 18.0724 27.6375 18.427L28.2429 19.0325C28.5976 19.3871 28.5976 19.9622 28.2429 20.3169C28.1587 20.4014 28.0586 20.4684 27.9484 20.514C27.8382 20.5597 27.72 20.5831 27.6007 20.5829ZM30.0918 11.1997H29.418C28.9164 11.1997 28.5098 10.7931 28.5098 10.2915C28.5098 9.78998 28.9164 9.38334 29.418 9.38334H30.0918C30.5934 9.38334 31 9.78998 31 10.2915C31 10.7931 30.5934 11.1997 30.0918 11.1997ZM4.00475 2.42191C3.88545 2.42207 3.7673 2.39865 3.65708 2.35299C3.54687 2.30733 3.44677 2.24034 3.36253 2.15586L2.75706 1.55039C2.40238 1.19577 2.40238 0.620696 2.75706 0.266013C3.11175 -0.0886709 3.68682 -0.0886709 4.04144 0.266013L4.64691 0.871481C5.0016 1.2261 5.0016 1.80118 4.64691 2.15586C4.56268 2.24033 4.46259 2.30732 4.35239 2.35298C4.24218 2.39864 4.12404 2.42206 4.00475 2.42191ZM3.39928 20.5829C3.27999 20.5831 3.16183 20.5597 3.05162 20.514C2.9414 20.4684 2.8413 20.4014 2.75706 20.3169C2.40238 19.9623 2.40238 19.3872 2.75706 19.0325L3.36253 18.427C3.71721 18.0724 4.29229 18.0724 4.64691 18.427C5.00154 18.7817 5.0016 19.3567 4.64691 19.7114L4.04144 20.3169C3.95722 20.4014 3.85712 20.4684 3.74692 20.514C3.63671 20.5597 3.51857 20.5831 3.39928 20.5829ZM1.58203 11.1997H0.908203C0.406633 11.1997 0 10.7931 0 10.2915C0 9.78998 0.406633 9.38334 0.908203 9.38334H1.58203C2.0836 9.38334 2.49023 9.78998 2.49023 10.2915C2.49023 10.7931 2.0836 11.1997 1.58203 11.1997ZM10.4968 26.9924H20.5032V25.3575C20.5032 25.2969 20.5047 25.2364 20.506 25.176H10.4939C10.4953 25.2365 10.4968 25.297 10.4968 25.3576V26.9924ZM10.7226 28.8088C11.2103 30.0716 12.4364 30.9701 13.8691 30.9701H17.1308C18.5636 30.9701 19.7897 30.0715 20.2774 28.8088H10.7226ZM19.3294 8.25457C19.5511 8.25457 19.772 8.27939 19.9882 8.32523C19.9901 8.30482 19.9914 8.28424 19.9914 8.26335C19.9914 7.90297 19.6982 7.6098 19.3379 7.6098C19.2334 7.60949 19.1305 7.63455 19.0379 7.68282C18.905 7.75169 18.7571 7.78665 18.6074 7.78459C18.4578 7.78253 18.3109 7.74352 18.18 7.67102C18.049 7.59852 17.938 7.49477 17.8568 7.36902C17.7756 7.24327 17.7267 7.0994 17.7146 6.95021C17.6873 6.61441 17.4014 6.3514 17.0637 6.3514C16.7034 6.3514 16.4102 6.64457 16.4102 7.00494V15.8519C16.4102 16.2122 16.7034 16.5054 17.0637 16.5054C17.4014 16.5054 17.6873 16.2424 17.7146 15.9066C17.7267 15.7574 17.7755 15.6134 17.8567 15.4876C17.9379 15.3618 18.0489 15.2581 18.1799 15.1855C18.3109 15.113 18.4578 15.0741 18.6076 15.0721C18.7573 15.0701 18.9052 15.1051 19.0381 15.1741C19.1306 15.2223 19.2335 15.2473 19.3379 15.247C19.6982 15.247 19.9914 14.9538 19.9914 14.5935C19.9914 14.5726 19.9901 14.552 19.9882 14.5316C19.7717 14.578 19.5509 14.6017 19.3294 14.6022C18.8278 14.6022 18.4212 14.1956 18.4212 13.694C18.4212 13.1925 18.8278 12.7858 19.3294 12.7858C19.5507 12.7858 19.7612 12.7344 19.9552 12.6333C19.957 12.6323 19.9586 12.6311 19.9604 12.6302C20.4085 12.3942 20.6869 11.9336 20.6869 11.4284C20.6869 10.9231 20.4085 10.4627 19.9604 10.2266C19.9586 10.2256 19.957 10.2244 19.9552 10.2234C19.7621 10.1225 19.5473 10.0701 19.3294 10.0709C18.8278 10.0709 18.4212 9.66428 18.4212 9.16271C18.4212 8.66114 18.8278 8.25457 19.3294 8.25457Z" fill="#17D162"/>
<path d="M23.4705 3.32219C21.3753 1.20825 18.5832 0.0286772 15.6085 0.00058345C12.5996 -0.0298111 9.75679 1.12827 7.60895 3.25589C5.46178 5.38296 4.27924 8.21183 4.2793 11.2214C4.27936 14.3387 5.5925 17.3413 7.88214 19.4593C9.03519 20.5259 9.84664 21.8875 10.2358 23.3596H14.5923V18.2332C14.3788 18.2922 14.1582 18.322 13.9367 18.3219C13.0251 18.3219 12.2132 17.8139 11.7857 17.0603C11.7447 17.0624 11.7037 17.0635 11.6626 17.0635C10.3007 17.0635 9.19268 15.9555 9.19268 14.5935C9.19285 14.2637 9.25905 13.9373 9.38739 13.6335C8.82407 13.0512 8.49723 12.2663 8.49723 11.4285C8.49723 10.5907 8.82407 9.80579 9.38739 9.22351C9.25905 8.9197 9.19285 8.59328 9.19268 8.26348C9.19268 6.90153 10.3007 5.79353 11.6626 5.79353C11.7037 5.79353 11.7447 5.79458 11.7857 5.79668C12.2132 5.04311 13.0251 4.53512 13.9367 4.53512C14.5296 4.53512 15.0743 4.74528 15.5005 5.09482C15.9267 4.74528 16.4714 4.53512 17.0643 4.53512C17.976 4.53512 18.7879 5.04305 19.2153 5.79668C19.2563 5.79461 19.2973 5.79356 19.3384 5.79353C20.7003 5.79353 21.8083 6.90153 21.8083 8.26348C21.8081 8.59328 21.7419 8.9197 21.6136 9.22351C22.1769 9.80579 22.5037 10.5907 22.5037 11.4285C22.5037 12.2663 22.1769 13.0512 21.6136 13.6335C21.7419 13.9373 21.8081 14.2637 21.8083 14.5935C21.8083 15.9555 20.7003 17.0635 19.3384 17.0635C19.2973 17.0635 19.2563 17.0624 19.2153 17.0603C18.7878 17.814 17.976 18.3219 17.0643 18.3219C16.8428 18.3219 16.6223 18.2921 16.4087 18.2332V23.3596H20.7559C21.1337 21.8863 21.9246 20.5462 23.0496 19.5228C25.3833 17.3998 26.7217 14.374 26.7217 11.2213C26.7217 8.24277 25.567 5.43751 23.4705 3.32219Z" fill="#17D162"/>
<path d="M11.6709 14.6023C11.4492 14.6023 11.2282 14.5775 11.0121 14.5317C11.0102 14.5521 11.0089 14.5727 11.0089 14.5936C11.0089 14.9539 11.302 15.2471 11.6624 15.2471C11.7681 15.2471 11.8689 15.2226 11.9622 15.1742C12.0951 15.1052 12.2429 15.0702 12.3926 15.0722C12.5423 15.0742 12.6892 15.1132 12.8202 15.1857C12.9512 15.2582 13.0623 15.3619 13.1435 15.4877C13.2247 15.6135 13.2736 15.7574 13.2857 15.9066C13.3131 16.2424 13.5989 16.5055 13.9365 16.5055C14.2969 16.5055 14.59 16.2123 14.59 15.852V7.00498C14.59 6.64461 14.2969 6.35144 13.9365 6.35144C13.5989 6.35144 13.313 6.61452 13.2857 6.95037C13.2736 7.09957 13.2247 7.24346 13.1435 7.36923C13.0623 7.49499 12.9513 7.59874 12.8204 7.67124C12.6894 7.74373 12.5425 7.78271 12.3928 7.78473C12.2432 7.78675 12.0953 7.75173 11.9624 7.68281C11.8698 7.63458 11.7669 7.60955 11.6625 7.60985C11.3021 7.60985 11.0089 7.90301 11.0089 8.26339C11.0089 8.28422 11.0102 8.3048 11.0121 8.32527C11.2287 8.27883 11.4495 8.25515 11.6709 8.25461C12.1725 8.25461 12.5791 8.66124 12.5791 9.16281C12.5791 9.66438 12.1725 10.071 11.6709 10.071C11.4496 10.071 11.2391 10.1225 11.0449 10.2237C11.0432 10.2246 11.0417 10.2258 11.04 10.2267C10.5919 10.4627 10.3135 10.9232 10.3135 11.4285C10.3135 11.9337 10.5919 12.3942 11.04 12.6303C11.0417 12.6312 11.0432 12.6324 11.0449 12.6333C11.2381 12.7343 11.453 12.7867 11.6709 12.7859C12.1725 12.7859 12.5791 13.1926 12.5791 13.6941C12.5791 14.1957 12.1725 14.6023 11.6709 14.6023Z" fill="#17D162"/>
</svg>
