<svg width="31" height="30" viewBox="0 0 31 30" fill="none" xmlns="http://www.w3.org/2000/svg">
<path fill-rule="evenodd" clip-rule="evenodd" d="M10.5484 14.8144C10.5484 17.3766 12.6234 19.4516 15.1857 19.4516C17.748 19.4516 19.823 17.3766 19.823 14.8144H10.5484ZM29.9784 11.5361H22.2665C21.9097 10.3125 21.2488 9.23076 20.3771 8.36853C21.4267 7.1767 22.9639 6.42469 24.6768 6.42469C27.4928 6.42469 29.834 8.45698 30.3142 11.1349C30.3232 11.184 30.3213 11.2345 30.3086 11.2828C30.2958 11.3311 30.2726 11.376 30.2406 11.4144C30.2085 11.4527 30.1684 11.4834 30.1231 11.5045C30.0778 11.5255 30.0284 11.5363 29.9784 11.5361ZM30.3714 14.8144V16.8694L27.855 17.838C27.5356 19.1786 27.0045 20.4597 26.2817 21.633L27.3769 24.099L24.4705 27.0055L22.0052 25.9106C20.8316 26.6336 19.5502 27.1648 18.2092 27.4841L17.2408 30H13.1306L12.1619 27.4835C10.8213 27.1642 9.54023 26.6331 8.36694 25.9102L5.90091 27.0055L2.99443 24.0991L4.08938 21.6338C3.36628 20.4602 2.83507 19.1788 2.51577 17.8378L0 16.8695V14.8144H8.01742C8.01742 18.7736 11.2264 21.9826 15.1856 21.9826C19.1449 21.9826 22.3539 18.7736 22.3539 14.8144H30.3714ZM15.1858 0.176724C16.9629 0.176724 18.4034 1.61734 18.4034 3.39432C18.4034 5.1713 16.9628 6.61192 15.1858 6.61192C13.4088 6.61192 11.9682 5.1713 11.9682 3.39432C11.9682 1.61734 13.4087 0.176724 15.1858 0.176724ZM9.29523 12.9239L21.0762 12.9239C21.1318 12.9241 21.1866 12.9121 21.237 12.8887C21.2873 12.8653 21.3319 12.8312 21.3675 12.7886C21.4031 12.746 21.4289 12.6961 21.4431 12.6424C21.4572 12.5888 21.4593 12.5326 21.4493 12.478C20.9105 9.47379 18.2854 7.24472 15.1858 7.24472C12.0569 7.24472 9.45576 9.50277 8.92224 12.478C8.9122 12.5326 8.91432 12.5888 8.92845 12.6424C8.94258 12.6961 8.96838 12.746 9.00399 12.7886C9.03961 12.8312 9.08417 12.8654 9.13451 12.8888C9.18485 12.9122 9.23973 12.9242 9.29523 12.9239ZM5.6947 0C7.29408 0 8.59068 1.29654 8.59068 2.89598C8.59068 4.49541 7.29408 5.79196 5.6947 5.79196C4.09527 5.79196 2.79873 4.49535 2.79873 2.89598C2.79873 1.29654 4.09527 0 5.6947 0ZM0.393057 11.5361C0.343095 11.5363 0.293697 11.5255 0.248382 11.5045C0.203068 11.4834 0.162952 11.4527 0.130892 11.4143C0.0988317 11.376 0.075617 11.3311 0.0629013 11.2828C0.0501857 11.2345 0.048282 11.1839 0.0573261 11.1348C0.537511 8.45692 2.8787 6.42463 5.6947 6.42463C7.40765 6.42463 8.94476 7.17664 9.99435 8.36846C9.12262 9.2307 8.46167 10.3124 8.10493 11.536L0.393057 11.5361ZM24.6768 0C26.2762 0 27.5728 1.29654 27.5728 2.89598C27.5728 4.49541 26.2762 5.79196 24.6768 5.79196C23.0774 5.79196 21.7809 4.49535 21.7809 2.89598C21.7809 1.29654 23.0775 0 24.6768 0Z" fill="#FDB600"/>
</svg>
