<svg width="30" height="30" viewBox="0 0 30 30" fill="none" xmlns="http://www.w3.org/2000/svg">
<path d="M0 15C0 23.286 6.714 30 15 30C23.286 30 30 23.286 30 15C30 6.714 23.286 0 15 0C6.714 0 0 6.714 0 15ZM22.5 15.864C22.5 16.692 21.498 17.118 20.904 16.524L19.638 15.258L15.888 19.008C15.396 19.494 14.604 19.494 14.118 19.008L11.25 16.14L9.45 17.94C9.21 18.186 8.814 18.186 8.568 17.94L7.686 17.058C7.44 16.818 7.44 16.422 7.686 16.176L10.368 13.494C10.86 13.008 11.652 13.008 12.138 13.494L15.006 16.362L17.874 13.488L16.608 12.222C16.014 11.64 16.428 10.626 17.268 10.626H21.882C22.23 10.626 22.506 10.908 22.5 11.25V15.864Z" fill="#386BB7"/>
</svg>
