<svg width="32" height="30" viewBox="0 0 32 30" fill="none" xmlns="http://www.w3.org/2000/svg">
<path d="M31.0702 13.0578H29.3378C28.822 10.6776 27.7616 9.01902 25.9813 7.80033V4.95553C25.9813 4.43715 25.5569 4.01741 25.0385 4.01779C22.6919 4.01948 21.4623 5.20391 20.4582 7.03113H19.0169C18.8713 7.03113 18.7277 7.06502 18.5975 7.13013C18.4673 7.19523 18.354 7.28976 18.2667 7.40623L16.0083 10.4173C15.9292 10.5228 15.8732 10.6439 15.844 10.7725C15.8148 10.9012 15.8131 11.0345 15.839 11.1639L16.9096 16.5168C16.9398 16.6681 16.9323 16.8247 16.8875 16.9724C16.8428 17.1202 16.7623 17.2546 16.6531 17.3637L14.5283 19.4886C14.3313 19.6855 13.9946 19.546 13.9946 19.2675V16.2258C13.9946 16.0802 13.9607 15.9366 13.8956 15.8064L12.1408 12.2969C12.0407 12.0967 12.0155 11.8672 12.0698 11.6501L12.9201 8.24894C13.078 7.61747 12.5598 7.01988 11.9125 7.08889C7.10916 7.60115 3.26198 11.5784 3.02411 16.5229C2.78617 16.6237 2.50678 16.6105 2.26866 16.4656C2.01797 16.3131 1.88181 16.0318 1.87487 15.7384C1.86299 15.2339 1.45264 14.828 0.946444 14.8233C0.409618 14.8182 -0.0104907 15.279 0.000199563 15.8157C0.0215801 16.8904 0.671435 17.845 1.66801 18.2578C1.99667 18.3943 2.34902 18.4647 2.7049 18.4649C2.83687 18.4649 2.96834 18.4551 3.09825 18.4359C3.71935 23.5495 7.53127 26.2025 8.03459 26.5557V29.0623C8.03459 29.5801 8.45445 30 8.97233 30H12.9901C13.508 30 13.9279 29.5801 13.9279 29.0623V26.9867H17.5768V29.0623C17.5768 29.5801 17.9967 30 18.5145 30H22.5323C23.0502 30 23.4701 29.5801 23.4701 29.0623V26.9246C27.0316 26.4488 29.0873 23.558 29.4346 20.96H31.0702C31.588 20.96 32.0079 20.5401 32.0079 20.0222V13.9956C32.0079 13.4777 31.5881 13.0578 31.0702 13.0578ZM25.9813 15C25.9813 15.5329 25.5367 15.9621 24.9982 15.9367C24.4938 15.9129 24.1058 15.4784 24.1058 14.9735V14.022C24.1058 13.5171 24.4938 13.0826 24.9982 13.0588C25.5367 13.0334 25.9813 13.4625 25.9813 13.9955V15ZM16.0035 3.88444C16.5214 3.88444 16.9413 3.46458 16.9413 2.9467V0.937742C16.9413 0.419858 16.5214 0 16.0035 0C15.4856 0 15.0658 0.419858 15.0658 0.937742V2.94664C15.0658 3.46458 15.4856 3.88444 16.0035 3.88444ZM11.3226 4.61419C11.5057 4.7973 11.7457 4.88889 11.9857 4.88889C12.2256 4.88889 12.4657 4.79736 12.6487 4.61419C13.0149 4.24797 13.0149 3.65426 12.6487 3.28804L11.6443 2.28359C11.2781 1.91737 10.6843 1.91737 10.3181 2.28359C9.95189 2.64981 9.95189 3.24353 10.3181 3.60975L11.3226 4.61419Z" fill="#FF4D69"/>
</svg>
