<svg width="30" height="30" viewBox="0 0 30 30" fill="none" xmlns="http://www.w3.org/2000/svg">
<path d="M22.4224 8.68562C20.1064 7.32362 17.5924 6.60962 15.0004 6.60962C6.17256 6.60962 1.24836 14.8182 1.06836 14.9916C1.26876 15.1836 5.91276 23.3796 15.0004 23.3796C23.8282 23.3796 28.7782 15.1392 28.9324 14.9916C28.6546 14.6634 26.6878 11.1876 22.4224 8.68562ZM15.0004 21.0456C11.6644 21.0456 8.95236 18.3336 8.95236 14.9976C8.95236 11.6616 11.6644 8.94962 15.0004 8.94962C18.3364 8.94962 21.0484 11.6616 21.0484 14.9976C21.0484 18.3336 18.3364 21.0456 15.0004 21.0456Z" fill="#FDB600"/>
<path d="M16.2998 13.6883C15.3848 12.7733 15.641 11.7011 15.5996 11.3945H14.9996C13.0142 11.3945 11.3996 13.0091 11.3996 14.9945C11.3996 16.9457 13.0484 18.5945 14.9996 18.5945C16.985 18.5945 18.5996 16.9793 18.5996 14.9945V14.3945C18.2864 14.3519 17.2184 14.6057 16.2998 13.6883ZM14.3978 2.40955H15.5978V4.82695H14.3978V2.40955ZM22.9616 6.19615L24.6716 4.48675L25.52 5.33515L23.81 7.04515L22.9616 6.19615ZM4.47257 5.33275L5.32097 4.48435L7.02977 6.19375L6.18137 7.04215L4.47257 5.33275ZM14.3978 25.1723H15.5978V27.5903H14.3978V25.1723ZM4.46777 24.6683L6.17657 22.9595L7.02497 23.8079L5.31617 25.5167L4.46777 24.6683ZM22.9598 23.8055L23.8082 22.9571L25.5176 24.6671L24.6692 25.5149L22.9598 23.8055Z" fill="#FDB600"/>
</svg>
