<svg width="30" height="30" viewBox="0 0 30 30" fill="none" xmlns="http://www.w3.org/2000/svg">
<g clip-path="url(#clip0_633_1062)">
<path d="M22.0287 10.5093C22.0287 10.7751 21.9705 11.0498 21.8599 11.31L20.5484 14.3521L17.5352 11.0929L18.1329 9.70449C18.2381 9.45962 18.3906 9.23791 18.5816 9.05203C18.7726 8.86615 18.9984 8.71976 19.2461 8.62124C19.4937 8.52271 19.7583 8.47398 20.0248 8.47784C20.2913 8.48169 20.5544 8.53806 20.7991 8.64371C21.1634 8.80128 21.4738 9.06173 21.6922 9.39312C21.9106 9.72451 22.0275 10.1124 22.0287 10.5093ZM21.6865 16.8885C21.619 16.792 21.5515 16.6907 21.4694 16.6087L20.5676 15.6253L20.5535 15.6159L13.4468 7.93543C12.6898 7.11043 11.4026 7.06261 10.578 7.82902C9.7582 8.58605 9.70992 9.87324 10.4669 10.6978L17.7424 18.5615C17.819 18.6446 17.8596 18.7547 17.8551 18.8676C17.8506 18.9806 17.8015 19.0871 17.7185 19.1639C17.6403 19.2381 17.5366 19.2795 17.4288 19.2796C17.3093 19.2782 17.1951 19.2297 17.111 19.1446L11.5999 13.1812C11.1841 13.2331 10.7948 13.4134 10.4862 13.6968C10.2376 13.9269 10.0508 14.2157 9.94298 14.5368C9.83519 14.8579 9.80985 15.2009 9.86929 15.5343C9.92895 15.9217 10.1056 16.2815 10.3755 16.5656L14.7677 21.3196C14.9271 21.4931 14.9173 21.7631 14.7434 21.9271C14.6621 21.9987 14.5577 22.0381 14.4494 22.0382C14.3907 22.0388 14.3326 22.027 14.2786 22.0038C14.2247 21.9805 14.1762 21.9463 14.1363 21.9032L9.92695 17.347C9.50746 17.3974 9.11533 17.5815 8.80851 17.872C8.56127 18.0998 8.37554 18.3863 8.26852 18.7049C8.16151 19.0236 8.13667 19.3641 8.19632 19.695C8.24929 20.0278 8.38382 20.3456 8.60601 20.6254L11.793 24.0726C11.9524 24.246 11.9426 24.5161 11.7687 24.6801C11.6898 24.7525 11.5865 24.7922 11.4794 24.7912C11.42 24.7916 11.3611 24.7798 11.3064 24.7566C11.2516 24.7334 11.2022 24.6992 11.1612 24.6562L8.35523 21.6187C7.93574 21.6692 7.54361 21.8532 7.23679 22.1437C6.98845 22.3717 6.80202 22.6589 6.69495 22.9786C6.58788 23.2982 6.56368 23.6398 6.6246 23.9714C6.6853 24.3623 6.8635 24.7256 7.13554 25.0129L9.33867 27.3993C12.3855 30.6876 17.5254 30.885 20.8137 27.8381C23.9332 24.9553 24.2609 20.1764 21.6865 16.8885ZM20.2849 1.26933C20.2798 1.25527 20.2769 1.24121 20.2709 1.23043C19.6727 -0.00894886 18.2262 -0.351136 17.2324 0.382926C16.8729 0.645784 16.5578 0.964505 16.2991 1.32699C16.0404 0.964505 15.7253 0.645784 15.3659 0.382926C14.3721 -0.351136 12.9251 -0.00894886 12.326 1.23043C12.3204 1.24168 12.3176 1.25527 12.3119 1.26933C11.989 1.94293 12.0663 2.71308 12.3316 3.41152C13.3446 6.07543 15.6884 7.0223 16.2987 7.0223C16.909 7.0223 19.2527 6.07543 20.2657 3.41152C20.531 2.71308 20.6079 1.94293 20.2849 1.26933Z" fill="#386BB7"/>
</g>
<defs>
<clipPath id="clip0_633_1062">
<rect width="30" height="30" fill="white"/>
</clipPath>
</defs>
</svg>
