<svg width="30" height="30" viewBox="0 0 30 30" fill="none" xmlns="http://www.w3.org/2000/svg">
<path d="M21.7477 2.81348H8.18625C5.19703 2.81348 2.76562 5.24488 2.76562 8.2327V21.7964C2.76562 24.7557 5.1975 27.1622 8.18625 27.1622H21.7481C24.7383 27.1622 27.1711 24.7552 27.1711 21.7964V8.2327C27.1711 5.24441 24.7378 2.81348 21.7477 2.81348ZM19.3162 9.3427C19.4028 9.25322 19.5063 9.18187 19.6207 9.13282C19.7351 9.08377 19.8582 9.058 19.9826 9.057C20.1071 9.05601 20.2305 9.07982 20.3457 9.12704C20.4609 9.17426 20.5655 9.24395 20.6535 9.33203C20.7415 9.42012 20.811 9.52484 20.858 9.64009C20.9051 9.75533 20.9287 9.8788 20.9276 10.0033C20.9264 10.1278 20.9005 10.2508 20.8512 10.3651C20.802 10.4794 20.7305 10.5828 20.6409 10.6693L18.2583 13.0496C18.0755 13.2324 17.8359 13.3238 17.5959 13.3238C17.4105 13.3238 17.2292 13.2687 17.0751 13.1656C16.9209 13.0626 16.8008 12.9161 16.7299 12.7447C16.659 12.5734 16.6405 12.3848 16.6767 12.203C16.713 12.0211 16.8024 11.8541 16.9336 11.723L19.3162 9.3427ZM14.8313 8.2327C14.8313 7.98406 14.93 7.7456 15.1058 7.56978C15.2817 7.39397 15.5201 7.2952 15.7687 7.2952C16.0174 7.2952 16.2558 7.39397 16.4317 7.56978C16.6075 7.7456 16.7062 7.98406 16.7062 8.2327V11.6124C16.7062 11.861 16.6075 12.0995 16.4317 12.2753C16.2558 12.4511 16.0174 12.5499 15.7687 12.5499C15.5201 12.5499 15.2817 12.4511 15.1058 12.2753C14.93 12.0995 14.8313 11.861 14.8313 11.6124V8.2327ZM10.8984 9.34316C11.0744 9.16755 11.3128 9.06888 11.5614 9.06879C11.81 9.0687 12.0485 9.1672 12.2245 9.3427L14.6067 11.723C14.7375 11.8543 14.8265 12.0213 14.8625 12.2031C14.8985 12.3848 14.8799 12.5732 14.809 12.7444C14.7381 12.9156 14.6181 13.0619 14.4642 13.165C14.3102 13.2682 14.1292 13.3234 13.9439 13.3238C13.8208 13.324 13.6989 13.2998 13.5852 13.2528C13.4714 13.2057 13.3681 13.1367 13.2811 13.0496L10.8989 10.6693C10.7232 10.4934 10.6244 10.2549 10.6243 10.0063C10.6243 9.75768 10.7228 9.51917 10.8984 9.34316ZM9.8475 13.2755H13.223C13.4716 13.2755 13.7101 13.3743 13.8859 13.5501C14.0617 13.7259 14.1605 13.9644 14.1605 14.213C14.1605 14.4616 14.0617 14.7001 13.8859 14.8759C13.7101 15.0517 13.4716 15.1505 13.223 15.1505H9.8475C9.59886 15.1505 9.3604 15.0517 9.18459 14.8759C9.00877 14.7001 8.91 14.4616 8.91 14.213C8.91 13.9644 9.00877 13.7259 9.18459 13.5501C9.3604 13.3743 9.59886 13.2755 9.8475 13.2755ZM8.90766 22.4002C8.82066 22.4885 8.71695 22.5585 8.60258 22.6062C8.48822 22.6539 8.36549 22.6784 8.24156 22.6782C8.05656 22.6781 7.87571 22.6234 7.72178 22.5208C7.56784 22.4181 7.4477 22.2723 7.37649 22.1015C7.30528 21.9308 7.28617 21.7428 7.32158 21.5612C7.35698 21.3797 7.44532 21.2126 7.57547 21.0811L13.2778 15.3235C13.3639 15.2336 13.467 15.1618 13.5811 15.1122C13.6952 15.0625 13.818 15.0361 13.9424 15.0345C14.0669 15.0328 14.1904 15.056 14.3058 15.1025C14.4211 15.1491 14.5261 15.2182 14.6145 15.3057C14.7029 15.3933 14.773 15.4975 14.8207 15.6125C14.8685 15.7274 14.8928 15.8507 14.8924 15.9751C14.892 16.0995 14.8668 16.2226 14.8183 16.3372C14.7698 16.4518 14.699 16.5556 14.61 16.6425L8.90766 22.4002ZM16.7062 20.1352C16.7062 20.3838 16.6075 20.6223 16.4317 20.7981C16.2558 20.9739 16.0174 21.0727 15.7687 21.0727C15.5201 21.0727 15.2817 20.9739 15.1058 20.7981C14.93 20.6223 14.8313 20.3838 14.8313 20.1352V16.7597C14.8313 16.5111 14.93 16.2726 15.1058 16.0968C15.2817 15.921 15.5201 15.8222 15.7687 15.8222C16.0174 15.8222 16.2558 15.921 16.4317 16.0968C16.6075 16.2726 16.7062 16.5111 16.7062 16.7597V20.1352ZM20.6339 19.0908C20.4511 19.2694 20.2144 19.358 19.9786 19.358C19.7348 19.358 19.492 19.2638 19.3083 19.0758L16.9256 16.6388C16.7557 16.4603 16.6628 16.2221 16.6672 15.9757C16.6716 15.7293 16.7728 15.4945 16.9489 15.3221C17.1251 15.1498 17.3621 15.0538 17.6085 15.0548C17.8549 15.0558 18.0911 15.1539 18.2658 15.3277L20.6484 17.7647C20.7346 17.8527 20.8025 17.9569 20.8484 18.0711C20.8943 18.1854 20.9173 18.3076 20.9159 18.4308C20.9146 18.5539 20.889 18.6756 20.8406 18.7889C20.7922 18.9021 20.722 19.0047 20.6339 19.0908ZM21.6923 15.1505H18.3169C18.0682 15.1505 17.8298 15.0517 17.654 14.8759C17.4781 14.7001 17.3794 14.4616 17.3794 14.213C17.3794 13.9644 17.4781 13.7259 17.654 13.5501C17.8298 13.3743 18.0682 13.2755 18.3169 13.2755H21.6923C21.941 13.2755 22.1794 13.3743 22.3553 13.5501C22.5311 13.7259 22.6298 13.9644 22.6298 14.213C22.6298 14.4616 22.5311 14.7001 22.3553 14.8759C22.1794 15.0517 21.941 15.1505 21.6923 15.1505Z" fill="#386BB7"/>
</svg>
