<svg width="30" height="30" viewBox="0 0 30 30" fill="none" xmlns="http://www.w3.org/2000/svg">
<path fill-rule="evenodd" clip-rule="evenodd" d="M10.6768 29.2089H19.3176C19.4787 29.2089 19.6105 29.0771 19.6105 28.916V23.5042C19.6105 22.6974 19.8982 22.0031 20.4684 21.4324L25.5889 16.3119C26.1607 15.74 26.1607 14.8124 25.5889 14.2406C25.017 13.6687 24.0895 13.6687 23.5176 14.2406L19.2338 18.5244C18.6631 19.0951 17.9688 19.3822 17.1619 19.3822H12.8324C12.0256 19.3822 11.3312 19.0945 10.7605 18.5244L6.47676 14.2406C5.90488 13.6687 4.97734 13.6687 4.40547 14.2406C3.83359 14.8124 3.83359 15.74 4.40547 16.3119L9.52598 21.4324C10.0967 22.0031 10.3838 22.6974 10.3838 23.5042V28.916C10.3838 29.0771 10.5156 29.2089 10.6768 29.2089ZM15.1832 1.46478L16.0662 4.20111C16.0926 4.28314 16.1658 4.33646 16.2525 4.33646L19.1277 4.33119C19.317 4.33119 19.3955 4.57377 19.2426 4.68451L16.9135 6.37025C16.8797 6.39421 16.8546 6.42841 16.8418 6.46778C16.829 6.50716 16.8293 6.5496 16.8426 6.58881L17.7361 9.32162C17.7947 9.50092 17.5879 9.65092 17.4355 9.54018L15.1129 7.84564C15.0796 7.82082 15.0393 7.80741 14.9978 7.80741C14.9563 7.80741 14.9159 7.82082 14.8826 7.84564L12.56 9.54018C12.4076 9.65092 12.2008 9.50092 12.2594 9.32162L13.1529 6.58881C13.1799 6.50678 13.1518 6.42064 13.082 6.37025L10.7529 4.68451C10.6 4.57377 10.6785 4.33061 10.8678 4.33119L13.743 4.33646C13.8291 4.33646 13.9023 4.28314 13.9293 4.20111L14.8123 1.46478C14.8703 1.2849 15.1258 1.2849 15.1838 1.46478H15.1832ZM17.7104 2.62143L18.7023 1.25561C18.7479 1.19282 18.7666 1.11453 18.7544 1.03794C18.7422 0.961346 18.7001 0.892739 18.6373 0.847207C18.5745 0.801675 18.4962 0.782947 18.4196 0.795144C18.343 0.807341 18.2744 0.849464 18.2289 0.912246L17.2369 2.27807C17.2144 2.30915 17.1982 2.34437 17.1892 2.38172C17.1803 2.41907 17.1788 2.45781 17.1848 2.49574C17.1909 2.53366 17.2043 2.57003 17.2244 2.60275C17.2445 2.63548 17.2709 2.66392 17.302 2.68646C17.333 2.70901 17.3683 2.72522 17.4056 2.73416C17.443 2.74309 17.4817 2.74458 17.5196 2.73854C17.5575 2.7325 17.5939 2.71905 17.6266 2.69896C17.6594 2.67886 17.6878 2.65252 17.7104 2.62143ZM18.9133 7.43725L20.5188 7.95873C20.6723 8.00853 20.8375 7.92475 20.8873 7.77123C20.9371 7.61771 20.8533 7.45248 20.6998 7.40268L19.0943 6.88119C18.9408 6.83139 18.7756 6.91518 18.7258 7.06869C18.676 7.22221 18.7598 7.38744 18.9133 7.43725ZM10.9012 6.88119L9.2957 7.40268C9.14219 7.45248 9.05781 7.61771 9.1082 7.77123C9.15859 7.92475 9.32324 8.00912 9.47676 7.95873L11.0822 7.43725C11.2357 7.38744 11.3201 7.22221 11.2697 7.06869C11.2193 6.91518 11.0547 6.8308 10.9012 6.88119ZM12.7586 2.27807L11.7666 0.912246C11.7441 0.881159 11.7156 0.854818 11.6829 0.834726C11.6502 0.814634 11.6138 0.801184 11.5759 0.795144C11.5379 0.789105 11.4992 0.790594 11.4619 0.799527C11.4245 0.80846 11.3893 0.824661 11.3582 0.847207C11.3271 0.869752 11.3008 0.8982 11.2807 0.930925C11.2606 0.96365 11.2471 1.00001 11.2411 1.03794C11.2351 1.07586 11.2366 1.1146 11.2455 1.15195C11.2544 1.1893 11.2706 1.22452 11.2932 1.25561L12.2852 2.62143C12.3077 2.65251 12.3361 2.67885 12.3689 2.69895C12.4016 2.71904 12.438 2.73249 12.4759 2.73853C12.5138 2.74457 12.5525 2.74308 12.5899 2.73414C12.6272 2.72521 12.6625 2.70901 12.6936 2.68646C12.7246 2.66392 12.751 2.63547 12.7711 2.60275C12.7912 2.57002 12.8046 2.53366 12.8107 2.49574C12.8167 2.45781 12.8152 2.41907 12.8063 2.38172C12.7973 2.34438 12.7811 2.30915 12.7586 2.27807ZM14.9975 12.4329C16.6375 12.4329 17.9664 13.7624 17.9664 15.4019C17.9664 17.0413 16.6369 18.3708 14.9975 18.3708C13.358 18.3708 12.0285 17.0413 12.0285 15.4019C12.0285 13.7624 13.358 12.4329 14.9975 12.4329Z" fill="#FDB600"/>
</svg>
