<svg width="30" height="30" viewBox="0 0 30 30" fill="none" xmlns="http://www.w3.org/2000/svg">
<path fill-rule="evenodd" clip-rule="evenodd" d="M13.4886 3.78396C13.683 3.77478 13.8786 3.77014 14.0752 3.77014C20.8382 3.77014 26.3289 9.26078 26.3289 16.0238C26.3289 16.3211 26.3183 16.616 26.2974 16.908C27.4316 17.5914 28.1929 18.8353 28.1929 20.2511C28.1929 22.3991 26.4409 24.1511 24.2929 24.1511C23.9733 24.1513 23.655 24.1121 23.3451 24.0344C21.0974 26.6325 17.7769 28.2774 14.0752 28.2774C12.1785 28.2774 10.3819 27.8456 8.77832 27.0749C8.06415 27.982 6.95615 28.5645 5.7125 28.5645C3.55909 28.5645 1.8125 26.8179 1.8125 24.6645C1.8125 23.4665 2.35309 22.3944 3.20356 21.6789C2.32074 19.9866 1.82156 18.063 1.82156 16.0238C1.82156 12.6 3.22868 9.50225 5.49579 7.27796C5.32724 6.80564 5.24136 6.3078 5.24191 5.80631C5.24191 3.39214 7.1985 1.43555 9.61268 1.43555C11.2971 1.43555 12.7588 2.38808 13.4886 3.78396ZM5.93585 8.17067C3.97168 10.2059 2.76274 12.9748 2.76274 16.0238C2.76274 17.8733 3.2075 19.6197 3.99585 21.1618C4.51391 20.9074 5.09656 20.7645 5.7125 20.7645C7.86591 20.7645 9.6125 22.5111 9.6125 24.6645C9.6125 25.2353 9.4898 25.7774 9.26932 26.2661C10.7283 26.9525 12.3573 27.3363 14.0752 27.3363C17.3736 27.3363 20.3443 25.9215 22.4129 23.6663C21.2102 23.0007 20.3929 21.7183 20.3929 20.2511C20.3929 18.1031 22.1449 16.3511 24.2929 16.3511C24.669 16.3511 25.033 16.4049 25.3776 16.5051C25.3843 16.3455 25.3877 16.185 25.3877 16.0238C25.3877 9.78025 20.3187 4.71131 14.0752 4.71131C13.9986 4.71131 13.9221 4.71208 13.8458 4.71355C13.9375 5.07056 13.9837 5.43772 13.9834 5.80631C13.9834 8.22049 12.0269 10.1771 9.61268 10.1771C8.06974 10.1771 6.71362 9.37784 5.93585 8.17067ZM15.3335 10.7548C15.8912 10.8873 16.4241 11.1081 16.912 11.4089L17.9379 10.9527L19.1462 12.1611L18.6918 13.187C18.9929 13.6754 19.2138 14.2089 19.3459 14.7672L20.3925 15.17V16.8793L19.3459 17.2821C19.2134 17.8398 18.9913 18.3717 18.6918 18.8605L19.1462 19.8864L17.9379 21.0948L16.912 20.6404C16.4242 20.9415 15.8913 21.1623 15.3335 21.2945L14.9307 22.3411H13.2214L12.8186 21.2945C12.2592 21.162 11.7273 20.9399 11.2384 20.6404L10.2126 21.0948L9.00415 19.8864L9.46032 18.8605C9.15909 18.3734 8.93874 17.8398 8.8045 17.2821L7.75791 16.8793V15.17L8.8045 14.7672C8.93801 14.2091 9.15938 13.6757 9.46032 13.187L9.00415 12.1611L10.2126 10.9527L11.2384 11.4089C11.7264 11.1081 12.2592 10.8873 12.8169 10.7548L13.2214 9.70649H14.9307L15.3335 10.7548ZM14.0752 13.0424C12.4279 13.0424 11.0939 14.3765 11.0939 16.0238C11.0939 17.6711 12.4279 19.0068 14.0752 19.0068C15.7225 19.0068 17.0583 17.6711 17.0583 16.0238C17.0583 14.3765 15.7225 13.0424 14.0752 13.0424ZM23.8223 17.9282C23.7582 17.9454 23.6954 17.966 23.6344 17.99C23.0727 18.211 22.6703 18.6974 22.7026 19.3564C22.7429 20.2104 23.5009 20.584 24.2211 20.7013C24.3959 20.7301 24.5837 20.7708 24.7489 20.8458C24.9059 20.9171 25.0458 21.022 25.0696 21.2204L25.0697 21.2209C25.0919 21.4043 24.9712 21.5148 24.8299 21.5841C24.678 21.6585 24.4983 21.6931 24.333 21.6968H24.332C23.9707 21.7058 23.591 21.5568 23.499 21.1874C23.4688 21.0663 23.3918 20.9622 23.2848 20.8978C23.1779 20.8335 23.0498 20.8143 22.9287 20.8444C22.8076 20.8746 22.7035 20.9516 22.6392 21.0586C22.5748 21.1655 22.5556 21.2936 22.5857 21.4147C22.7422 22.0433 23.2379 22.4423 23.8223 22.5823V22.7196C23.8223 22.9793 24.0332 23.1902 24.2929 23.1902C24.5526 23.1902 24.7634 22.9793 24.7634 22.7196V22.5893C25.4633 22.4383 26.1047 21.9395 26.004 21.1078C25.8993 20.2374 25.1054 19.8931 24.3732 19.7725L24.3724 19.7724C24.212 19.7462 24.0417 19.7068 23.8947 19.635C23.7649 19.5717 23.6506 19.4798 23.6427 19.3119L23.6426 19.3108C23.6316 19.0885 23.7895 18.9404 23.9789 18.8658C24.3313 18.7272 24.824 18.8112 25.0078 19.2492C25.0562 19.3642 25.1482 19.4554 25.2637 19.5026C25.3792 19.5498 25.5088 19.5492 25.6239 19.501C25.7389 19.4527 25.83 19.3606 25.8773 19.2451C25.9245 19.1296 25.9239 19.0001 25.8757 18.885C25.6526 18.3535 25.2287 18.0432 24.7634 17.9231V17.784C24.7634 17.5243 24.5526 17.3134 24.2929 17.3134C24.0332 17.3134 23.8223 17.5243 23.8223 17.784V17.9282ZM5.24191 22.3477V24.6645C5.24191 24.7471 5.26364 24.8282 5.30493 24.8997C5.34621 24.9712 5.40558 25.0306 5.47709 25.072L7.15456 26.0411C7.26264 26.1035 7.39107 26.1204 7.51162 26.0881C7.63217 26.0559 7.73497 25.9771 7.79744 25.869C7.85981 25.7609 7.87672 25.6325 7.84446 25.512C7.8122 25.3914 7.7334 25.2886 7.62538 25.2261L6.18309 24.3929V22.3477C6.18309 22.088 5.97221 21.8771 5.7125 21.8771C5.45279 21.8771 5.24191 22.088 5.24191 22.3477ZM12.1426 8.12208C12.7013 7.51196 13.0423 6.69902 13.0423 5.80631C13.0423 3.91202 11.507 2.37672 9.61268 2.37672C7.71838 2.37672 6.18309 3.91202 6.18309 5.80631C6.18309 6.69902 6.52403 7.51196 7.08285 8.12208C7.48362 7.11719 8.46544 6.40684 9.61268 6.40684C10.7599 6.40684 11.7418 7.11719 12.1426 8.12208ZM9.61268 6.18284C8.85491 6.18284 8.23532 5.56325 8.23532 4.80543C8.23532 4.04766 8.85491 3.42808 9.61268 3.42808C10.3705 3.42808 10.9901 4.04766 10.9901 4.80543C10.9901 5.56325 10.3705 6.18284 9.61268 6.18284Z" fill="#17D262"/>
</svg>
