<svg width="30" height="30" viewBox="0 0 30 30" fill="none" xmlns="http://www.w3.org/2000/svg">
<path fill-rule="evenodd" clip-rule="evenodd" d="M19.9007 7.89445C19.9759 7.89445 20.0496 7.91437 20.1143 7.95163L22.3307 9.49573L21.2913 7.88509C21.2842 7.80874 21.2981 7.7319 21.3312 7.66277C21.3644 7.59364 21.4157 7.5348 21.4797 7.49251C22.157 7.04125 22.5627 6.29065 22.5627 5.48401C22.5627 4.15423 21.4808 3.07309 20.1515 3.07309H17.9229C16.5932 3.07309 15.5124 4.15423 15.5124 5.48401C15.5124 6.81301 16.5932 7.89451 17.9229 7.89451L19.9007 7.89445ZM25.4994 10.9891C24.7698 10.9891 24.1625 11.5498 24.0997 12.2725L22.6221 13.4677C22.4849 13.5786 22.3333 13.6324 22.157 13.6324H18.0109C17.4795 13.6324 17.0471 14.0649 17.0471 14.5966C17.0471 15.1279 17.4788 15.5608 18.0109 15.5608H22.6563C22.956 15.5608 23.2144 15.469 23.4476 15.2802L24.0944 14.7567V17.617C24.0944 17.895 23.868 18.1217 23.5909 18.1217H22.412C20.9743 18.1217 19.7363 19.0536 19.3395 20.4356L17.451 27.0132H19.4573L20.9168 21.93C21.0529 21.4551 21.471 21.1399 21.9656 21.1399H23.7082C25.4704 21.1399 26.9039 19.7064 26.9039 17.9438V12.3939C26.904 11.619 26.2741 10.9891 25.4994 10.9891ZM15.3864 3.43669C14.1548 4.96009 14.5373 7.20481 16.1916 8.24611C15.5873 8.95987 14.7069 9.37465 13.7607 9.37465H11.2362C11.1616 9.37483 11.0884 9.39455 11.0238 9.43183L8.89341 11.4373L9.34545 9.23437C9.35228 9.15808 9.33842 9.08137 9.30534 9.01228C9.27226 8.9432 9.22118 8.88431 9.15747 8.84179C8.25909 8.24425 7.72281 7.24957 7.72281 6.18079C7.72281 4.41973 9.15483 2.98657 10.9167 2.98657H13.7608C14.3331 2.98651 14.8953 3.14449 15.3864 3.43669ZM26.511 21.991C26.5982 21.991 26.673 22.0654 26.673 22.1531V26.8512C26.673 26.9388 26.5982 27.0132 26.511 27.0132H20.3801L21.6659 22.5336C21.761 22.2038 22.0438 21.991 22.3856 21.991H26.511ZM4.50297 10.0628C5.36229 10.0628 6.06063 9.36373 6.06063 8.50477C6.06063 7.64545 5.36193 6.94675 4.50297 6.94675C3.64407 6.94675 2.94531 7.64545 2.94531 8.50477C2.94531 9.36373 3.64401 10.0628 4.50297 10.0628ZM25.4994 10.0628C26.3583 10.0628 27.057 9.36373 27.057 8.50477C27.057 7.64545 26.3583 6.94675 25.4994 6.94675C24.6397 6.94675 23.9414 7.64545 23.9414 8.50477C23.9414 9.36373 24.6397 10.0628 25.4994 10.0628ZM7.61559 21.991H3.49137C3.40335 21.991 3.32889 22.0654 3.32889 22.1531V26.8512C3.32889 26.9388 3.40335 27.0132 3.49137 27.0132H9.62187L8.33577 22.5336C8.24097 22.2039 7.95855 21.991 7.61559 21.991ZM10.6624 20.4357C10.2657 19.0536 9.02841 18.1218 7.59075 18.1218H6.41181C6.13389 18.1218 5.90751 17.895 5.90751 17.6171V14.7184L9.96219 16.7886C10.2597 16.9778 10.6316 17.0628 10.9591 16.8909C11.0816 16.827 11.1855 16.7326 11.2607 16.6168C11.5841 16.1196 11.2803 15.5589 10.8267 15.2818L5.90115 12.265C5.83533 11.546 5.23023 10.9891 4.50297 10.9891C3.72831 10.9891 3.09801 11.619 3.09801 12.394V17.9439C3.09801 19.7065 4.53189 21.1401 6.29373 21.1401H8.03673C8.53089 21.1401 8.94903 21.4556 9.08553 21.9306L10.5446 27.0133H12.5509L10.6624 20.4357Z" fill="#FF4D69"/>
</svg>
