<svg width="30" height="30" viewBox="0 0 30 30" fill="none" xmlns="http://www.w3.org/2000/svg">
<g clip-path="url(#clip0_705_5265)">
<path d="M19.6804 18.8182L19.0895 18.6819C19.044 18.4546 18.9531 18.2728 18.8168 18.0455L19.1804 17.5455C19.3168 17.3637 19.2713 17.1364 19.1349 16.9546L18.1349 16C17.9986 15.8637 17.7259 15.8182 17.544 15.9546L17.044 16.3182C16.8622 16.2273 16.6349 16.1364 16.4077 16.0455L16.3168 15.4546C16.2713 15.2273 16.0895 15.091 15.8622 15.091H14.4986C14.2713 15.091 14.0895 15.2273 14.044 15.4546L13.9531 16.0455C13.7259 16.091 13.544 16.1819 13.3168 16.3182L12.8168 15.9546C12.6349 15.8182 12.4077 15.8637 12.2259 16L11.2713 16.9546C11.1349 17.091 11.0895 17.3637 11.2259 17.5455L11.5895 18.0455C11.4986 18.2273 11.4077 18.4546 11.3168 18.6819L10.7259 18.8182C10.4986 18.8637 10.3622 19.0455 10.3622 19.2728V20.6364C10.3622 20.8637 10.4986 21.0455 10.7259 21.091L11.3168 21.1819C11.3622 21.4091 11.4531 21.591 11.5895 21.8182L11.2259 22.3182C11.0895 22.5 11.1349 22.7273 11.2713 22.9091L12.2259 23.8637C12.3622 24.0455 12.6349 24.0455 12.8168 23.9091L13.3168 23.5455C13.544 23.6364 13.7259 23.7273 13.9531 23.8182L14.044 24.4091C14.0895 24.6364 14.2713 24.7728 14.4986 24.7728H15.8622C16.4077 24.7728 16.3168 24.0455 16.4077 23.7728C16.6349 23.7273 16.8168 23.6364 17.044 23.5C17.2713 23.6364 17.7259 24.1819 18.1349 23.8182L19.1349 22.8182C19.2713 22.6819 19.3168 22.4091 19.1804 22.2273L18.8168 21.7273C18.9077 21.5455 18.9986 21.3182 19.0895 21.091L19.6804 21C19.9077 20.9546 20.044 20.7728 20.044 20.5455V19.1819C20.044 19.0455 19.9077 18.8182 19.6804 18.8182ZM16.4531 21.2273C15.7713 21.9091 14.6349 21.9546 13.8622 21.2273C12.7259 20.091 13.544 18.1364 15.1804 18.1364C16.8168 18.091 17.6349 20.091 16.4531 21.2273ZM3.31676 18.7273C3.31676 17.1364 4.58949 15.8637 6.1804 15.8637C7.77131 15.8637 9.04403 17.1364 9.04403 18.7273C9.04403 20.3182 7.77131 21.591 6.1804 21.591C4.58949 21.591 3.31676 20.3182 3.31676 18.7273ZM11.9531 26.9091V29.091C11.9531 29.3637 11.7713 29.5455 11.4986 29.5455H0.90767C0.634943 29.5455 0.453125 29.3637 0.453125 29.091V26.9091C0.453125 24.5 2.40767 22.5455 4.81676 22.5455C4.99858 22.5455 5.1804 22.6364 5.22585 22.8182L6.1804 24.7273L7.13494 22.8182C7.22585 22.6819 7.36222 22.5455 7.54403 22.5455C9.99858 22.591 11.9531 24.5455 11.9531 26.9091ZM12.1349 3.31823C12.1349 1.72732 13.4077 0.45459 14.9986 0.45459C16.5895 0.45459 17.8622 1.72732 17.8622 3.31823C17.8622 4.90914 16.5895 6.18186 14.9986 6.18186C13.4077 6.18186 12.1349 4.90914 12.1349 3.31823ZM20.9531 18.7273C20.9531 17.1364 22.2259 15.8637 23.8168 15.8637C25.4077 15.8637 26.6804 17.1364 26.6804 18.7273C26.6804 20.3182 25.4077 21.591 23.8168 21.591C22.2259 21.591 20.9531 20.3182 20.9531 18.7273ZM29.544 26.9091V29.091C29.544 29.3637 29.3168 29.5455 29.0895 29.5455H18.4986C18.2713 29.5455 18.044 29.3637 18.044 29.091V26.9091C18.044 24.5 19.9986 22.5455 22.4077 22.5455C22.5895 22.5455 22.7713 22.6364 22.8168 22.8182L23.7713 24.7273L24.7259 22.8182C24.8168 22.6819 24.9531 22.5455 25.1349 22.5455C27.5895 22.591 29.544 24.5455 29.544 26.9091ZM9.27131 13.6819V11.5C9.27131 9.09095 11.2259 7.13641 13.6349 7.13641C13.8168 7.13641 13.9986 7.22732 14.044 7.40914L14.9986 9.27277L15.9531 7.40914C16.044 7.27277 16.1804 7.13641 16.3622 7.13641C18.8168 7.13641 20.7259 9.09095 20.7259 11.5V13.6819C20.7259 13.9546 20.4986 14.1364 20.2713 14.1364H9.72585C9.45312 14.1364 9.27131 13.9091 9.27131 13.6819ZM28.3622 9.27277C28.1349 9.13641 27.8622 9.22732 27.7259 9.45459L26.8168 11.091C25.7713 7.5455 22.3168 6.22732 22.1349 6.13641C21.9077 6.0455 21.6349 6.18186 21.544 6.40914C21.4531 6.63641 21.5895 6.90914 21.8168 7.00004C21.8622 7.00004 25.044 8.27277 25.9531 11.4091L24.2259 10.4091C23.9986 10.2728 23.7259 10.3637 23.5895 10.591C23.4531 10.8182 23.544 11.091 23.7713 11.2273L26.4077 12.7728C26.4986 12.8182 26.544 12.8182 26.6349 12.8182C26.7713 12.8182 26.9531 12.7273 27.044 12.591L28.5895 9.95459C28.6349 9.68186 28.5895 9.40914 28.3622 9.27277ZM8.31676 6.40914C8.22585 6.18186 7.95312 6.0455 7.72585 6.13641C7.54403 6.18186 4.08949 7.5455 3.04403 11.091L2.08949 9.45459C1.95312 9.22732 1.6804 9.18186 1.45312 9.27277C1.22585 9.40914 1.1804 9.68186 1.27131 9.90913L2.81676 12.5455C2.95312 12.7728 3.22585 12.8182 3.45312 12.7273L6.08949 11.1819C6.31676 11.0455 6.36222 10.7728 6.27131 10.5455C6.13494 10.3182 5.86222 10.2728 5.63494 10.3637L3.90767 11.3637C4.81676 8.22732 7.99858 7.00004 8.04403 6.95459C8.27131 6.90914 8.40767 6.63641 8.31676 6.40914Z" fill="#386BB7"/>
</g>
<defs>
<clipPath id="clip0_705_5265">
<rect width="30" height="30" fill="white"/>
</clipPath>
</defs>
</svg>
