<svg width="30" height="30" viewBox="0 0 30 30" fill="none" xmlns="http://www.w3.org/2000/svg">
<path d="M20.625 1.25C18.1562 1.25 16.0125 2.69375 15 4.775C14.4878 3.71871 13.6886 2.82793 12.6938 2.20455C11.6991 1.58118 10.5489 1.25038 9.375 1.25C5.93125 1.25 3.125 4.05625 3.125 7.5C3.125 14.9313 8.95625 21.2688 14.4812 24.7812C14.7688 23.5438 15.6687 22.5125 16.875 22.0875V19.0625C16.875 17.5125 18.1375 16.25 19.6875 16.25C21.1 16.25 22.2625 17.3 22.4562 18.6562C25.0375 15.4813 26.875 11.6625 26.875 7.5C26.875 4.05625 24.0688 1.25 20.625 1.25Z" fill="#17D262"/>
<path d="M19.525 17.5063C18.7125 17.5876 18.125 18.3313 18.125 19.1501V22.5626C18.125 22.8688 17.9062 23.1126 17.6062 23.1751C17.0461 23.2939 16.5437 23.6014 16.183 24.0462C15.8224 24.4911 15.6254 25.0462 15.625 25.6188V26.2438C15.625 26.5876 15.3438 26.8688 15 26.8688C14.6562 26.8688 14.375 26.5876 14.375 26.2438V26.1313C14.25 26.0876 14.125 26.0313 14.0062 25.9563C12.5933 25.0712 11.2536 24.0743 10 22.9751V26.0876C10 26.5876 10.2 27.0626 10.55 27.4126L11.6937 28.5563C11.8125 28.6751 11.9688 28.7376 12.1375 28.7376H19.1187C19.2875 28.7376 19.4437 28.6688 19.5625 28.5563L20.7063 27.4126C21.0563 27.0626 21.2562 26.5813 21.2562 26.0876V19.0501C21.2566 18.831 21.2108 18.6143 21.1219 18.414C21.0331 18.2138 20.9031 18.0345 20.7404 17.8877C20.5777 17.741 20.386 17.63 20.1777 17.5622C19.9694 17.4943 19.7491 17.471 19.5312 17.4938L19.525 17.5063Z" fill="#17D262"/>
</svg>
