<svg width="30" height="30" viewBox="0 0 30 30" fill="none" xmlns="http://www.w3.org/2000/svg">
<g clip-path="url(#clip0_705_5255)">
<path d="M29.1211 11.7773H27.786C27.4745 10.5317 26.9803 9.33893 26.3197 8.23787L27.2639 7.29363C27.6071 6.95039 27.6071 6.39393 27.2639 6.05068L23.9493 2.73609C23.6061 2.39285 23.0496 2.39285 22.7064 2.73609L21.7621 3.68033C20.6611 3.01966 19.4683 2.52552 18.2227 2.21396V0.878906C18.2227 0.393516 17.8291 0 17.3438 0H12.6562C12.1709 0 11.7773 0.393516 11.7773 0.878906V2.21396C10.5317 2.5255 9.33891 3.01964 8.23787 3.68033L7.29363 2.73609C6.95039 2.39285 6.39393 2.39285 6.05068 2.73609L2.73615 6.05068C2.39291 6.39393 2.39291 6.95039 2.73615 7.29363L3.68033 8.23787C3.01965 9.33892 2.52551 10.5317 2.21396 11.7773H0.878906C0.393516 11.7773 0 12.1709 0 12.6562V17.3438C0 17.8291 0.393516 18.2227 0.878906 18.2227H2.21396C2.52551 19.4683 3.01965 20.6611 3.68033 21.7621L2.73609 22.7064C2.39285 23.0496 2.39285 23.6061 2.73609 23.9493L6.05062 27.2638C6.39387 27.6071 6.95033 27.6071 7.29357 27.2638L8.23781 26.3196C9.33888 26.9802 10.5316 27.4744 11.7773 27.7859V29.1211C11.7773 29.6065 12.1708 30 12.6562 30H17.3437C17.8291 30 18.2226 29.6065 18.2226 29.1211V27.786C19.4683 27.4744 20.661 26.9803 21.7621 26.3197L22.7063 27.2638C23.0496 27.6071 23.606 27.6071 23.9493 27.2638L27.2638 23.9493C27.6071 23.6061 27.6071 23.0496 27.2638 22.7064L26.3196 21.7621C26.9803 20.6611 27.4744 19.4683 27.7859 18.2227H29.1211C29.6065 18.2227 30 17.8291 30 17.3438V12.6562C30 12.1709 29.6065 11.7773 29.1211 11.7773ZM15 24.082C9.99217 24.082 5.91797 20.0078 5.91797 15C5.91797 9.99217 9.99217 5.91797 15 5.91797C20.0078 5.91797 24.082 9.99217 24.082 15C24.082 20.0078 20.0078 24.082 15 24.082Z" fill="#FDB600"/>
<path d="M15 7.67578C10.9614 7.67578 7.67578 10.9614 7.67578 15C7.67578 19.0386 10.9614 22.3242 15 22.3242C19.0386 22.3242 22.3242 19.0386 22.3242 15C22.3242 10.9614 19.0386 7.67578 15 7.67578ZM19.3504 13.1355L14.3785 18.1074C14.2069 18.279 13.9819 18.3649 13.7571 18.3649C13.5322 18.3649 13.3072 18.2791 13.1356 18.1074L10.6497 15.6215C10.3065 15.2783 10.3065 14.7218 10.6497 14.3786C10.9929 14.0353 11.5494 14.0353 11.8927 14.3786L13.7571 16.243L18.1075 11.8926C18.4507 11.5494 19.0072 11.5494 19.3505 11.8926C19.6936 12.2358 19.6936 12.7924 19.3504 13.1355Z" fill="#FDB600"/>
</g>
<defs>
<clipPath id="clip0_705_5255">
<rect width="30" height="30" fill="white"/>
</clipPath>
</defs>
</svg>
