<svg width="30" height="30" viewBox="0 0 30 30" fill="none" xmlns="http://www.w3.org/2000/svg">
<path d="M10.716 27.8571C6.00167 27.8571 2.14453 23.9999 2.14453 19.2856C2.14453 16.6071 3.3231 14.2499 5.25167 12.7499C5.25167 12.7499 5.35882 12.7499 5.35882 12.6428L15.4302 4.49991C15.7517 4.28563 16.1802 4.17848 16.6088 4.39277C16.9302 4.60705 17.1445 4.92848 17.1445 5.35705V6.85706L26.3588 2.24991C26.7874 2.03563 27.216 2.14277 27.6445 2.4642C27.966 2.78563 28.0731 3.32134 27.8588 3.74991L23.1445 12.8571H24.6445C25.0731 12.8571 25.3945 13.0713 25.6088 13.4999C25.8231 13.8213 25.716 14.3571 25.5017 14.6785L17.3588 24.7499C17.3588 24.7499 17.3588 24.8571 17.2517 24.8571C15.7517 26.6785 13.3945 27.8571 10.716 27.8571ZM10.716 12.8571C7.18025 12.8571 4.28739 15.7499 4.28739 19.2856C4.28739 22.8213 7.18025 25.7142 10.716 25.7142C14.2517 25.7142 17.1445 22.8213 17.1445 19.2856C17.1445 15.7499 14.2517 12.8571 10.716 12.8571ZM10.716 23.5713C10.0731 23.5713 9.64453 23.1428 9.64453 22.4999C9.64453 21.8571 10.0731 21.4285 10.716 21.4285C11.3588 21.4285 11.7874 21.8571 11.7874 22.4999C11.7874 23.1428 11.3588 23.5713 10.716 23.5713ZM7.50167 20.3571C6.85882 20.3571 6.43025 19.9285 6.43025 19.2856C6.43025 18.6428 6.85882 18.2142 7.50167 18.2142C8.14453 18.2142 8.5731 18.6428 8.5731 19.2856C8.5731 19.9285 8.14453 20.3571 7.50167 20.3571ZM10.716 17.1428C10.0731 17.1428 9.64453 16.7142 9.64453 16.0713C9.64453 15.4285 10.0731 14.9999 10.716 14.9999C11.3588 14.9999 11.7874 15.4285 11.7874 16.0713C11.7874 16.7142 11.3588 17.1428 10.716 17.1428Z" fill="#FF4D69"/>
</svg>
