<svg width="30" height="30" viewBox="0 0 30 30" fill="none" xmlns="http://www.w3.org/2000/svg">
<path d="M28.7326 27.769C27.9063 28.5953 26.5542 28.5953 25.7279 27.769L19.9436 21.9847C19.5616 21.6028 19.5452 20.9901 19.8942 20.5882L19.6506 20.3446C19.0927 19.7867 18.2549 19.682 17.5768 20.0854C16.0928 20.9681 14.3591 21.4752 12.507 21.4752C12.3038 21.4752 12.1022 21.4683 11.9021 21.4563C11.641 20.402 11.1069 19.4555 10.3793 18.6957C11.0699 18.9006 11.7865 19.0045 12.5068 19.004C16.6273 19.004 19.9676 15.6637 19.9676 11.5431C19.9676 7.4226 16.6273 4.08228 12.5068 4.08228C8.38623 4.08228 5.04592 7.42266 5.04592 11.5431C5.04592 13.6845 5.9482 15.6149 7.39313 16.9754C6.92149 16.8619 6.43809 16.8048 5.95301 16.8051C5.35828 16.8051 4.78342 16.8902 4.23961 17.0483C3.18826 15.4727 2.57502 13.5796 2.57502 11.5433C2.57502 6.05801 7.0217 1.61133 12.507 1.61133C17.9922 1.61133 22.4389 6.05801 22.4389 11.5433C22.4389 13.3954 21.9318 15.129 21.049 16.6131C20.6456 17.2912 20.7504 18.129 21.3083 18.687L21.5519 18.9305C21.9537 18.5816 22.5664 18.598 22.9484 18.98L28.7326 24.7642C29.559 25.5906 29.559 26.9426 28.7326 27.769H28.7326ZM11.2616 22.934C11.2616 25.8659 8.88492 28.2425 5.95307 28.2425C3.02121 28.2425 0.644531 25.8659 0.644531 22.934C0.644531 20.0021 3.02127 17.6255 5.95307 17.6255C8.88486 17.6255 11.2616 20.0022 11.2616 22.934ZM8.94891 20.586C8.66555 20.3026 8.20184 20.3026 7.91842 20.586L4.89826 23.6062L4.10379 22.2302C3.90369 21.8835 3.45498 21.7633 3.1084 21.9635C2.76135 22.1638 2.64129 22.6117 2.84168 22.9588L4.08217 25.1075C4.20633 25.3225 4.40443 25.4549 4.65059 25.4873C4.89674 25.5197 5.12238 25.4431 5.29793 25.2676L8.94885 21.6166C9.23227 21.3332 9.23227 20.8695 8.94885 20.5861L8.94891 20.586ZM9.91752 10.136C9.88868 10.2409 9.90267 10.353 9.95642 10.4475C10.0102 10.5421 10.0993 10.6115 10.2042 10.6404C10.4228 10.7009 10.6484 10.5719 10.7083 10.3539C11.043 9.13641 11.7442 8.35301 12.6821 8.14846C13.5243 7.96441 14.4162 8.28967 15.0096 8.99695C15.7999 9.93908 15.8972 11.3459 15.277 12.8559C15.1912 13.0656 15.2912 13.3054 15.5007 13.3914C15.5501 13.4115 15.6029 13.4219 15.6563 13.422C15.7377 13.422 15.8172 13.3979 15.8848 13.3526C15.9524 13.3073 16.005 13.2429 16.0359 13.1677C16.7759 11.3659 16.6307 9.65379 15.6379 8.47014C14.8479 7.52853 13.6488 7.09787 12.5072 7.34684C11.2747 7.61578 10.3309 8.63238 9.9174 10.136H9.91752ZM7.85297 14.8709C7.93852 14.8709 8.02471 14.8446 8.09842 14.7895C9.73254 13.5666 9.63709 12.0619 9.5526 10.7341C9.46336 9.33088 9.38654 8.11922 11.1675 7.1366C11.2628 7.08392 11.3332 6.99556 11.3633 6.89097C11.3935 6.78637 11.3808 6.67408 11.3282 6.57879C11.3022 6.53165 11.2671 6.4901 11.225 6.45651C11.1829 6.42292 11.1346 6.39796 11.0829 6.38304C11.0311 6.36812 10.977 6.36354 10.9235 6.36956C10.8699 6.37558 10.8181 6.39208 10.771 6.41813C8.53477 7.65275 8.64064 9.31734 8.73416 10.7858C8.81549 12.0684 8.8858 13.1758 7.60699 14.1326C7.51991 14.1978 7.46228 14.2949 7.44676 14.4026C7.43125 14.5103 7.45912 14.6197 7.52426 14.7069C7.56247 14.7579 7.6121 14.7994 7.66917 14.8278C7.72624 14.8563 7.78918 14.8711 7.85297 14.8709ZM14.6653 5.99168C14.5606 5.96212 14.4485 5.97532 14.3535 6.02837C14.2585 6.08141 14.1884 6.16998 14.1587 6.27463C14.0971 6.49207 14.2236 6.71936 14.4417 6.78094C15.8566 7.1823 16.9617 8.4842 17.3255 10.1776C17.3664 10.3704 17.537 10.5016 17.7262 10.5016C17.7545 10.5016 17.7838 10.4987 17.8124 10.4929C18.0341 10.4448 18.1753 10.2268 18.1279 10.0053C17.7 8.01434 16.3734 6.47619 14.6653 5.99168ZM6.9992 13.3645C7.06401 13.4047 7.13874 13.426 7.215 13.4261C7.28495 13.4261 7.35374 13.4082 7.41484 13.3742C7.47594 13.3401 7.52732 13.291 7.5641 13.2315C8.02869 12.4815 8.20324 11.5931 8.08318 10.5901C8.05635 10.3657 7.85215 10.2051 7.62709 10.2321C7.57363 10.2385 7.52194 10.2554 7.475 10.2817C7.42805 10.3081 7.38676 10.3435 7.35349 10.3858C7.32021 10.4281 7.2956 10.4766 7.28105 10.5285C7.26651 10.5803 7.26232 10.6345 7.26873 10.688C7.36617 11.5012 7.23088 12.212 6.86684 12.7996C6.83842 12.8454 6.81931 12.8963 6.81059 12.9495C6.80187 13.0027 6.80371 13.057 6.81601 13.1095C6.82831 13.1619 6.85082 13.2115 6.88226 13.2552C6.91371 13.299 6.9534 13.3361 6.9992 13.3645ZM12.4005 6.76336C12.4164 6.76336 12.4325 6.76213 12.4486 6.76037C12.6367 6.73796 12.8261 6.72839 13.0154 6.73172C13.2417 6.73699 13.4286 6.55529 13.4323 6.32859C13.4341 6.2198 13.3926 6.11473 13.317 6.03649C13.2414 5.95826 13.1378 5.91324 13.029 5.91135C12.8047 5.90783 12.5771 5.91896 12.3534 5.94533C12.2494 5.95744 12.1539 6.00884 12.0866 6.08901C12.0193 6.16919 11.9851 6.27206 11.9911 6.37659C11.9972 6.48112 12.0429 6.57939 12.119 6.65129C12.1951 6.72319 12.2958 6.76328 12.4005 6.76336ZM15.4976 16.2279C15.599 16.2279 15.701 16.1904 15.7804 16.1149C16.7143 15.2254 17.3038 14.4449 17.5822 13.7289C17.665 13.518 17.5599 13.28 17.349 13.1981C17.2476 13.1586 17.1348 13.161 17.0352 13.2048C16.9356 13.2485 16.8575 13.33 16.818 13.4313C16.5838 14.0324 16.0594 14.7162 15.2146 15.5207C15.1359 15.5957 15.0901 15.699 15.0875 15.8078C15.0848 15.9166 15.1255 16.0219 15.2005 16.1007C15.2388 16.141 15.2849 16.173 15.336 16.1949C15.3871 16.2168 15.4421 16.228 15.4976 16.2279ZM18.0756 12.3888C18.1329 12.1112 18.1727 11.8257 18.1934 11.541C18.2092 11.3149 18.0391 11.1185 17.8135 11.1027C17.5876 11.0857 17.391 11.2562 17.3749 11.4824C17.3571 11.7311 17.3228 11.9784 17.2721 12.2225C17.2266 12.4445 17.3689 12.6613 17.591 12.707C17.6192 12.7129 17.6466 12.7158 17.6748 12.7158C17.8646 12.7158 18.0357 12.5822 18.0756 12.3888V12.3888ZM13.1921 16.6762C13.2749 16.6762 13.3557 16.651 13.4238 16.6041C13.9036 16.2749 14.7817 15.5992 15.2708 14.7718C15.3863 14.5774 15.3217 14.3254 15.1268 14.21C14.9319 14.0951 14.6803 14.1595 14.5651 14.3541C14.1408 15.0713 13.3012 15.6935 12.9598 15.9279C12.7731 16.0556 12.7256 16.3112 12.8536 16.498C12.8914 16.5529 12.9419 16.5979 13.0009 16.6289C13.0599 16.6599 13.1256 16.6762 13.1922 16.6762H13.1921ZM11.8458 14.2064C11.9704 14.2064 12.0933 14.1502 12.1737 14.0429C12.8168 13.188 13.2594 12.2629 13.489 11.2926C13.5014 11.2402 13.5034 11.1858 13.4948 11.1326C13.4862 11.0794 13.4673 11.0285 13.439 10.9826C13.4107 10.9367 13.3737 10.8969 13.33 10.8654C13.2863 10.8338 13.2369 10.8112 13.1844 10.7987C13.132 10.7863 13.0777 10.7843 13.0245 10.7929C12.9713 10.8015 12.9203 10.8204 12.8744 10.8487C12.8286 10.877 12.7887 10.914 12.7572 10.9577C12.7257 11.0014 12.703 11.0509 12.6906 11.1033C12.4873 11.9629 12.093 12.7862 11.5185 13.5496C11.4861 13.5926 11.4625 13.6416 11.449 13.6937C11.4355 13.7459 11.4324 13.8001 11.44 13.8535C11.4475 13.9068 11.4655 13.9581 11.4929 14.0045C11.5202 14.0509 11.5565 14.0914 11.5996 14.1238C11.6704 14.1775 11.7569 14.2065 11.8458 14.2064ZM10.1654 16.9697C10.2234 17.0618 10.3156 17.127 10.4217 17.151C10.5278 17.1751 10.6391 17.156 10.7312 17.0981C12.137 16.2133 13.8452 14.418 14.4609 13.1781C14.8758 12.3426 15.2333 10.7271 14.7292 9.75275C14.4897 9.28986 14.0827 9.00105 13.5526 8.91838C12.868 8.81121 12.1625 9.13113 11.7112 9.75334C11.3602 10.2373 11.1054 10.9119 10.8103 11.6928C10.3446 12.9262 9.81668 14.3248 8.759 15.3854C8.72099 15.4235 8.69086 15.4688 8.67034 15.5186C8.64981 15.5684 8.6393 15.6217 8.63939 15.6756C8.63948 15.7294 8.65018 15.7827 8.67087 15.8324C8.69157 15.8822 8.72185 15.9273 8.76 15.9653C8.79815 16.0033 8.84341 16.0335 8.8932 16.054C8.94299 16.0745 8.99633 16.085 9.05019 16.0849C9.10404 16.0849 9.15735 16.0742 9.20707 16.0535C9.25679 16.0328 9.30195 16.0025 9.33996 15.9643C10.5219 14.7789 11.1074 13.2286 11.5776 11.9828C11.8518 11.2569 12.0885 10.63 12.3749 10.235C12.6449 9.86355 13.0476 9.66961 13.4258 9.72873C13.6983 9.77098 13.881 9.89871 14.0005 10.1301C14.3481 10.8016 14.059 12.1428 13.7263 12.8131C13.1759 13.9218 11.572 15.5998 10.2943 16.4038C10.2022 16.4618 10.1369 16.554 10.1127 16.6602C10.0886 16.7663 10.1076 16.8777 10.1655 16.9699L10.1654 16.9697Z" fill="#386BB7"/>
</svg>
