<svg width="30" height="30" viewBox="0 0 30 30" fill="none" xmlns="http://www.w3.org/2000/svg">
<path d="M25.6055 17.7541L24.5515 19.1599L25.9575 20.2148H22.7854C22.3924 18.7026 21.0282 17.5781 19.3945 17.5781H10.6055C8.9717 17.5781 7.60758 18.7026 7.21459 20.2148H5.27344C3.33457 20.2148 1.75781 18.6381 1.75781 16.6992C1.75781 14.7604 3.33457 13.1836 5.27344 13.1836H7.21459C7.60758 14.6958 8.9717 15.8203 10.6055 15.8203H19.3945C21.0283 15.8203 22.3924 14.6958 22.7854 13.1836H24.7266C27.6345 13.1836 30 10.8181 30 7.91016C30 5.00221 27.6345 2.63672 24.7266 2.63672H22.7854C22.3924 1.12447 21.0283 0 19.3945 0H10.6055C8.9717 0 7.60758 1.12447 7.21459 2.63672H6.44531L3.16359 0.176016L2.10984 1.5818L3.51586 2.63672H0V4.39453H3.51586L2.10984 5.44945L3.16359 6.85523L6.44531 4.39453H7.21459C7.60758 5.90678 8.9717 7.03125 10.6055 7.03125H19.3945C21.0283 7.03125 22.3924 5.90678 22.7854 4.39453H24.7266C26.6654 4.39453 28.2422 5.97129 28.2422 7.91016C28.2422 9.84902 26.6654 11.4258 24.7266 11.4258H22.7854C22.3924 9.91354 21.0283 8.78906 19.3945 8.78906H10.6055C8.9717 8.78906 7.60758 9.91354 7.21459 11.4258H5.27344C2.36549 11.4258 0 13.7913 0 16.6992C0 19.6072 2.36549 21.9727 5.27344 21.9727H7.21459C7.60758 23.4849 8.9717 24.6094 10.6055 24.6094H19.3945C21.0283 24.6094 22.3924 23.4849 22.7854 21.9727H25.9575L24.5515 23.0276L25.6055 24.4334L30 21.0938L25.6055 17.7541Z" fill="#17D262"/>
</svg>
