<svg width="30" height="30" viewBox="0 0 30 30" fill="none" xmlns="http://www.w3.org/2000/svg">
<path d="M24.3245 9.7393L23.3214 8.35977C23.7175 7.84414 23.4573 6.98164 22.8128 6.81571C22.8095 6.82086 22.4083 5.23696 22.4083 5.23696C22.3679 5.06399 22.2095 4.96883 22.0436 4.93743L22.2119 4.88774C22.6572 4.75649 22.6604 4.12555 22.2156 3.99008L14.6608 1.6829C14.5698 1.65521 14.4725 1.65586 14.3819 1.68477L6.98451 4.03883C6.55092 4.17665 6.54529 4.7879 6.97701 4.92993C9.33576 5.70571 12.7164 6.81336 14.5211 7.40961L19.5109 5.7718L13.8217 4.14805C13.7263 4.12011 13.6456 4.05585 13.597 3.96907C13.5485 3.8823 13.5359 3.77994 13.562 3.68399C13.6951 3.27102 14.1269 3.43274 14.4212 3.54899C15.0803 3.73649 21.2725 5.50321 21.7337 5.63164C21.7511 5.72164 22.0337 6.90477 22.0239 6.91039C21.4023 7.25586 21.3751 8.24821 22.0028 8.60821L21.6611 9.92446C21.6461 10.0051 21.5378 10.3154 21.5669 10.4002C21.6859 11.3349 24.8748 10.6674 24.324 9.7393H24.3245Z" fill="#FF4D69"/>
<path d="M14.524 10.8067C16.8415 8.88342 18.7797 8.61389 19.7388 8.63404C19.8091 8.62607 19.8771 8.63873 19.9436 8.63873C19.9436 7.74998 19.5888 6.97561 19.384 6.60107L14.7288 8.1292C14.5964 8.1766 14.4516 8.1766 14.3191 8.1292L9.66349 6.60107C9.45912 6.97045 9.10427 7.74482 9.10943 8.63873C9.18209 8.63311 9.26365 8.63123 9.33912 8.62889C10.3029 8.61904 12.2266 8.89842 14.524 10.8067ZM13.2054 27.5805C13.2054 28.0098 13.5551 28.3595 13.9844 28.3595H15.1085C15.5379 28.3595 15.8876 28.0098 15.8876 27.5805V27.1604H13.2054V27.5805ZM17.9557 15.8017C18.0311 14.5867 16.2307 14.4929 16.1871 15.707V16.6759H17.0716C17.3047 16.6769 17.5286 16.5854 17.6944 16.4216C17.8601 16.2577 17.9541 16.0348 17.9557 15.8017ZM12.0213 14.8328C10.8391 14.8445 10.8386 16.6609 12.0213 16.6759H12.9054V15.707C12.9054 15.2223 12.506 14.8328 12.0213 14.8328ZM13.6549 17.4254H15.438V22.9351H13.6549V17.4254Z" fill="#FF4D69"/>
<path d="M14.7641 11.581C14.6964 11.6425 14.6083 11.6765 14.5169 11.6765C14.4254 11.6765 14.3373 11.6425 14.2696 11.581C12.1466 9.73274 10.3537 9.4079 9.45928 9.38821C8.31553 10.502 7.57631 11.9504 7.36162 13.479C7.00162 16.0416 7.99584 18.5293 10.019 20.1324C10.9252 20.8409 11.5772 21.8241 11.8771 22.9346H12.9008V17.4254H12.0168C11.7947 17.4257 11.5749 17.3808 11.3708 17.2935C11.1666 17.2062 10.9823 17.0783 10.8291 16.9176C10.6758 16.7569 10.5569 16.5667 10.4794 16.3585C10.402 16.1504 10.3676 15.9288 10.3785 15.707C10.4479 13.5638 13.5801 13.5601 13.6504 15.707V16.6759H15.4335V15.707C15.516 13.502 18.7424 13.5934 18.7007 15.8017C18.7007 16.696 17.9708 17.4254 17.0671 17.4254H16.1826V22.9346H17.2068C17.5067 21.8242 18.1587 20.8409 19.0649 20.1324C20.7983 18.7543 21.7921 16.7059 21.7921 14.5131C21.7921 12.5649 21.0233 10.7518 19.6246 9.38306C18.7452 9.39806 16.9269 9.69759 14.7641 11.581ZM12.0716 24.6629H17.0122C17.0076 24.3432 17.0122 23.9973 17.0568 23.6842H12.0276C12.0571 23.9092 12.0716 24.6629 12.0716 24.6629ZM12.0716 25.727C12.0716 26.102 12.3815 26.4067 12.7663 26.4067H16.3176C16.7019 26.4067 17.0118 26.102 17.0118 25.727V25.4124H12.0716V25.727Z" fill="#FF4D69"/>
</svg>
