<svg width="30" height="30" viewBox="0 0 30 30" fill="none" xmlns="http://www.w3.org/2000/svg">
<g clip-path="url(#clip0_776_3325)">
<path d="M21.2645 7.23535L18.3391 10.1607C17.3901 9.33302 16.3662 8.5994 15.2051 8.24563C13.7197 7.79322 11.9645 8.04721 10.656 9.35456C10.5583 9.45209 10.4807 9.56794 10.4278 9.69548C10.3749 9.82302 10.3477 9.95974 10.3477 10.0978C10.3477 10.2359 10.3749 10.3726 10.4278 10.5002C10.4807 10.6277 10.5583 10.7435 10.656 10.8411L18.0817 18.2668C18.1792 18.3644 18.295 18.4418 18.4225 18.4946C18.5499 18.5474 18.6865 18.5746 18.8244 18.5746C18.9624 18.5746 19.099 18.5474 19.2264 18.4946C19.3538 18.4418 19.4696 18.3644 19.5671 18.2668L25.9304 11.9024C26.0281 11.8048 26.1057 11.689 26.1586 11.5615C26.2115 11.4339 26.2387 11.2972 26.2387 11.1591C26.2387 11.021 26.2115 10.8843 26.1586 10.7568C26.1057 10.6292 26.0281 10.5134 25.9304 10.4159L22.7476 7.23535C22.5508 7.03899 22.2841 6.92871 22.0061 6.92871C21.728 6.92871 21.4613 7.03899 21.2645 7.23535Z" fill="#FDB600"/>
<path d="M8.75461 20.0393C8.47665 20.0392 8.20997 20.1493 8.01306 20.3455C7.91548 20.443 7.83808 20.5587 7.78527 20.6862C7.73246 20.8136 7.70528 20.9502 7.70528 21.0881C7.70528 21.2261 7.73246 21.3627 7.78527 21.4901C7.83808 21.6175 7.91548 21.7333 8.01306 21.8308L9.5778 23.3956C8.71961 24.1321 8.01613 25.0315 7.50813 26.0419C7.00012 27.0523 6.6977 28.1534 6.61839 29.2815H4.49805C4.21978 29.2818 3.95301 29.3926 3.75635 29.5894C3.55968 29.7863 3.44922 30.0532 3.44922 30.3315C3.44922 30.6097 3.55968 30.8766 3.75635 31.0735C3.95301 31.2704 4.21978 31.3811 4.49805 31.3814H25.4996C25.7781 31.3814 26.0452 31.2708 26.2421 31.0739C26.439 30.877 26.5496 30.6099 26.5496 30.3315C26.5496 30.053 26.439 29.7859 26.2421 29.589C26.0452 29.3921 25.7781 29.2815 25.4996 29.2815H8.7274C8.80527 28.4299 9.05239 27.6024 9.45426 26.8475C9.85613 26.0926 10.4047 25.4256 11.0677 24.8855L12.7572 26.5761C12.954 26.7724 13.2207 26.8827 13.4987 26.8827C13.7768 26.8827 14.0435 26.7724 14.2403 26.5761C14.3379 26.4786 14.4153 26.3628 14.4681 26.2354C14.5209 26.1079 14.5481 25.9713 14.5481 25.8334C14.5481 25.6955 14.5209 25.5589 14.4681 25.4314C14.4153 25.304 14.3379 25.1882 14.2403 25.0907L9.49616 20.3466C9.29943 20.15 9.03273 20.0395 8.75461 20.0393Z" fill="#FDB600"/>
</g>
<defs>
<clipPath id="clip0_776_3325">
<rect width="30" height="30" fill="white"/>
</clipPath>
</defs>
</svg>
