<svg width="30" height="30" viewBox="0 0 30 30" fill="none" xmlns="http://www.w3.org/2000/svg">
<path d="M1 10C1 11.419 4.9 13 10.5 13C10.7775 13 11.05 12.989 11.322 12.98C11.3616 12.8926 11.4133 12.8111 11.4755 12.738C11.8598 12.2813 12.2825 11.8585 12.739 11.474C12.8919 11.344 13.0785 11.2599 13.2773 11.2314C13.476 11.2029 13.6787 11.2312 13.862 11.313L15.224 11.8945C15.8314 11.5519 16.4777 11.2833 17.149 11.0945L17.699 9.71952C17.7728 9.53502 17.8957 9.37424 18.0543 9.25455C18.213 9.13487 18.4013 9.06086 18.599 9.04052C19.0646 8.99998 19.5325 8.99397 19.999 9.02252V5.78052C18.2045 7.23202 14.266 8.00002 10.5 8.00002C6.734 8.00002 2.7955 7.23202 1 5.78052V10ZM4.513 9.81002C4.5431 9.68096 4.6232 9.56913 4.7357 9.49909C4.84821 9.42906 4.98391 9.40655 5.113 9.43652C5.2715 9.47302 5.433 9.50852 5.598 9.54152C5.71952 9.56619 5.82753 9.63514 5.90107 9.73497C5.97461 9.8348 6.00843 9.9584 5.99597 10.0818C5.98351 10.2051 5.92565 10.3195 5.83363 10.4026C5.74161 10.4857 5.622 10.5316 5.498 10.5315C5.46443 10.5319 5.43091 10.5287 5.398 10.522C5.223 10.487 5.05133 10.4497 4.883 10.41C4.75459 10.3791 4.6436 10.2987 4.57428 10.1863C4.50496 10.0739 4.48293 9.93862 4.513 9.81002ZM2.047 8.88802C2.07482 8.82852 2.1141 8.77508 2.16258 8.73076C2.21107 8.68644 2.26781 8.65211 2.32957 8.62973C2.39132 8.60735 2.45688 8.59736 2.5225 8.60032C2.58812 8.60329 2.65251 8.61916 2.712 8.64702C2.862 8.71735 3.01917 8.78502 3.1835 8.85002C3.24585 8.87317 3.30296 8.90854 3.35147 8.95404C3.39999 8.99954 3.43894 9.05427 3.46604 9.11501C3.49314 9.17575 3.50785 9.24129 3.50931 9.30779C3.51077 9.37429 3.49894 9.44041 3.47452 9.50228C3.45011 9.56415 3.41359 9.62053 3.36712 9.66811C3.32064 9.71569 3.26514 9.75352 3.20386 9.77939C3.14258 9.80525 3.07676 9.81863 3.01024 9.81874C2.94373 9.81885 2.87786 9.80568 2.8165 9.78002C2.6325 9.70702 2.4555 9.63002 2.288 9.55302C2.2285 9.52519 2.17506 9.48592 2.13074 9.43743C2.08643 9.38895 2.0521 9.33221 2.02971 9.27045C2.00733 9.2087 1.99734 9.14314 2.00031 9.07752C2.00327 9.0119 2.01914 8.9475 2.047 8.88802Z" fill="#17D262"/>
<path d="M1 16C1 17.2545 4.207 18.7 9.027 18.955C9.034 18.8345 9.033 18.7135 9.045 18.5935C9.06574 18.3971 9.13957 18.21 9.25857 18.0523C9.37758 17.8946 9.53726 17.7723 9.7205 17.6985L11.1 17.15C11.2883 16.4784 11.5569 15.8319 11.9 15.2245L11.369 13.9805C11.079 13.9885 10.792 14 10.5 14C6.734 14 2.7955 13.232 1 11.7805V16Z" fill="#17D262"/>
<path d="M10.5 7C15.7467 7 20 5.65685 20 4C20 2.34315 15.7467 1 10.5 1C5.2533 1 1 2.34315 1 4C1 5.65685 5.2533 7 10.5 7Z" fill="#17D262"/>
<path d="M19.5 22.5C21.1569 22.5 22.5 21.1569 22.5 19.5C22.5 17.8431 21.1569 16.5 19.5 16.5C17.8431 16.5 16.5 17.8431 16.5 19.5C16.5 21.1569 17.8431 22.5 19.5 22.5Z" fill="#17D262"/>
<path d="M19.5 25C20.5878 25 21.6512 24.6774 22.5556 24.0731C23.4601 23.4687 24.1651 22.6098 24.5813 21.6048C24.9976 20.5998 25.1065 19.4939 24.8943 18.427C24.6821 17.3601 24.1583 16.3801 23.3891 15.6109C22.6199 14.8417 21.6399 14.3179 20.573 14.1057C19.5061 13.8935 18.4002 14.0024 17.3952 14.4187C16.3902 14.8349 15.5313 15.5399 14.9269 16.4444C14.3226 17.3488 14 18.4122 14 19.5C14.0017 20.9582 14.5817 22.3561 15.6128 23.3872C16.6439 24.4183 18.0418 24.9983 19.5 25ZM19.5 15.5C20.2911 15.5 21.0645 15.7346 21.7223 16.1741C22.3801 16.6136 22.8928 17.2384 23.1955 17.9693C23.4983 18.7002 23.5775 19.5044 23.4231 20.2804C23.2688 21.0563 22.8878 21.769 22.3284 22.3284C21.769 22.8878 21.0563 23.2688 20.2804 23.4231C19.5044 23.5775 18.7002 23.4983 17.9693 23.1955C17.2384 22.8928 16.6136 22.3801 16.1741 21.7223C15.7346 21.0645 15.5 20.2911 15.5 19.5C15.5012 18.4395 15.923 17.4228 16.6729 16.6729C17.4228 15.923 18.4395 15.5012 19.5 15.5Z" fill="#17D262"/>
<path d="M10.0413 20.3125C10.045 20.3266 10.052 20.3396 10.0618 20.3503C10.0715 20.3611 10.0837 20.3694 10.0973 20.3745L11.7038 21.016C11.7776 21.0455 11.8433 21.0921 11.8955 21.152C11.9476 21.2119 11.9848 21.2834 12.0038 21.3605C12.1894 22.1085 12.4864 22.8244 12.8848 23.484C12.9257 23.5519 12.9499 23.6285 12.9553 23.7075C12.9608 23.7865 12.9474 23.8657 12.9163 23.9385L12.2358 25.5335C12.2289 25.5455 12.2253 25.559 12.2253 25.5728C12.2253 25.5866 12.2289 25.6001 12.2358 25.612C12.5846 26.0276 12.9685 26.4124 13.3833 26.762C13.3951 26.7715 13.4094 26.7772 13.4244 26.7786C13.4395 26.7799 13.4546 26.7768 13.4678 26.7695L15.0628 26.0885C15.1356 26.0575 15.2147 26.0442 15.2936 26.0496C15.3725 26.0551 15.449 26.0792 15.5168 26.12C16.1767 26.5183 16.8927 26.8149 17.6408 27C17.7179 27.0191 17.7894 27.0562 17.8493 27.1084C17.9092 27.1606 17.9559 27.2263 17.9853 27.3L18.6278 28.9085C18.6326 28.9219 18.6406 28.9339 18.6512 28.9434C18.6618 28.9529 18.6745 28.9597 18.6883 28.963C19.227 29.0126 19.7691 29.0126 20.3078 28.963C20.3229 28.9604 20.3369 28.9538 20.3486 28.944C20.3603 28.9342 20.3692 28.9214 20.3743 28.907L21.0163 27.3C21.0458 27.2263 21.0924 27.1606 21.1523 27.1084C21.2122 27.0562 21.2837 27.0191 21.3608 27C22.1088 26.8145 22.8247 26.5176 23.4843 26.119C23.5521 26.0782 23.6286 26.0541 23.7075 26.0486C23.7864 26.0432 23.8655 26.0565 23.9383 26.0875L25.5323 26.768C25.5443 26.775 25.5579 26.7786 25.5718 26.7786C25.5857 26.7786 25.5993 26.775 25.6113 26.768C26.027 26.4185 26.4117 26.0337 26.7613 25.618C26.7701 25.6061 26.7754 25.592 26.7765 25.5772C26.7775 25.5624 26.7744 25.5476 26.7673 25.5345L26.0863 23.938C26.0552 23.8652 26.0418 23.786 26.0473 23.707C26.0528 23.628 26.0769 23.5514 26.1178 23.4835C26.5163 22.8239 26.8132 22.108 26.9988 21.36C27.0179 21.2829 27.055 21.2114 27.1072 21.1515C27.1593 21.0916 27.225 21.045 27.2988 21.0155L28.9078 20.373C28.9209 20.3678 28.9326 20.3596 28.9419 20.349C28.9512 20.3384 28.9578 20.3257 28.9613 20.312C29.0151 19.7735 29.0151 19.231 28.9613 18.6925C28.9584 18.6774 28.9517 18.6633 28.9418 18.6515C28.9319 18.6396 28.9192 18.6306 28.9048 18.625L27.2983 17.9835C27.2245 17.9541 27.1588 17.9075 27.1067 17.8476C27.0545 17.7876 27.0174 17.7162 26.9983 17.639C26.8127 16.891 26.5158 16.1752 26.1173 15.5155C26.0764 15.4477 26.0523 15.3711 26.0468 15.2921C26.0413 15.2131 26.0547 15.1339 26.0858 15.061L26.7663 13.466C26.7732 13.4541 26.7768 13.4406 26.7768 13.4268C26.7768 13.413 26.7732 13.3995 26.7663 13.3875C26.4169 12.9717 26.0321 12.5869 25.6163 12.2375C25.6045 12.2282 25.5902 12.2224 25.5752 12.2211C25.5602 12.2198 25.5451 12.2229 25.5318 12.23L23.9368 12.911C23.8641 12.9424 23.785 12.9559 23.706 12.9504C23.627 12.945 23.5505 12.9206 23.4828 12.8795C22.8236 12.4817 22.1082 12.1852 21.3608 12C21.2837 11.981 21.2122 11.9439 21.1523 11.8917C21.0924 11.8395 21.0458 11.7738 21.0163 11.7L20.3738 10.0915C20.369 10.0782 20.361 10.0662 20.3504 10.0567C20.3399 10.0472 20.3271 10.0404 20.3133 10.037C19.7746 9.987 19.2325 9.987 18.6938 10.037C18.6788 10.0397 18.6647 10.0462 18.653 10.0561C18.6413 10.0659 18.6325 10.0787 18.6273 10.093L17.9853 11.7C17.9559 11.7738 17.9092 11.8395 17.8493 11.8917C17.7894 11.9439 17.7179 11.981 17.6408 12C16.8928 12.1855 16.1769 12.4825 15.5173 12.881C15.4496 12.9221 15.3731 12.9465 15.2941 12.9519C15.2152 12.9574 15.136 12.9439 15.0633 12.9125L13.4693 12.232C13.4573 12.2252 13.4437 12.2216 13.4298 12.2216C13.416 12.2216 13.4024 12.2252 13.3903 12.232C12.9749 12.5819 12.5901 12.9666 12.2403 13.382C12.2315 13.3939 12.2262 13.4081 12.2252 13.4229C12.2241 13.4377 12.2273 13.4525 12.2343 13.4655L12.9153 15.062C12.9464 15.1349 12.9598 15.2141 12.9543 15.2931C12.9489 15.3721 12.9247 15.4487 12.8838 15.5165C12.4854 16.1762 12.1884 16.892 12.0028 17.64C11.9838 17.7172 11.9466 17.7886 11.8945 17.8486C11.8423 17.9085 11.7766 17.9551 11.7028 17.9845L10.0938 18.627C10.0807 18.6323 10.069 18.6405 10.0598 18.6511C10.0505 18.6617 10.0438 18.6744 10.0403 18.688C9.98656 19.2265 9.98656 19.769 10.0403 20.3075L10.0413 20.3125ZM19.5008 13C20.7864 13 22.0431 13.3813 23.112 14.0955C24.1809 14.8097 25.0141 15.8249 25.506 17.0126C25.998 18.2003 26.1267 19.5072 25.8759 20.7681C25.6251 22.029 25.006 23.1872 24.097 24.0962C23.188 25.0053 22.0298 25.6243 20.7689 25.8751C19.508 26.1259 18.2011 25.9972 17.0134 25.5053C15.8256 25.0133 14.8105 24.1802 14.0963 23.1112C13.382 22.0423 13.0008 20.7856 13.0008 19.5C13.0028 17.7767 13.6883 16.1246 14.9068 14.906C16.1254 13.6875 17.7775 13.002 19.5008 13Z" fill="#17D262"/>
<path d="M10.5 25.0001C10.8 25.0001 11.091 24.9906 11.3825 24.9826L11.897 23.7771C11.5548 23.1691 11.2872 22.5221 11.1 21.8501L9.725 21.3001C9.5406 21.2262 9.37993 21.1033 9.26041 20.9447C9.1409 20.786 9.06709 20.5977 9.047 20.4001C9.032 20.2501 9.032 20.1001 9.0245 19.9501C4.9295 19.7551 2.306 18.8416 1 17.7471V22.0001C1 23.4191 4.9 25.0001 10.5 25.0001Z" fill="#17D262"/>
</svg>
