<svg width="30" height="30" viewBox="0 0 30 30" fill="none" xmlns="http://www.w3.org/2000/svg">
<g opacity="0.54" clip-path="url(#clip0_817_2895)">
<path d="M13.1508 0.942383C9.91372 0.945194 6.80993 2.23188 4.5203 4.52018C2.23068 6.80847 0.94219 9.91152 0.9375 13.1486C0.94219 16.3857 2.23068 19.4887 4.5203 21.777C6.80993 24.0653 9.91372 25.352 13.1508 25.3548C16.1767 25.3548 18.9439 24.2423 21.0804 22.4104L22.1434 23.4734L21.4808 24.1395C21.3935 24.2267 21.3242 24.3303 21.2769 24.4443C21.2297 24.5583 21.2054 24.6804 21.2054 24.8038C21.2054 24.9272 21.2297 25.0494 21.2769 25.1634C21.3242 25.2774 21.3935 25.381 21.4808 25.4682L24.2976 28.285C24.5746 28.5722 24.9081 28.7988 25.277 28.9507C25.6459 29.1025 26.0424 29.1763 26.4412 29.1673C27.1511 29.1301 27.8213 28.8279 28.3191 28.3204C28.825 27.8244 29.1271 27.1571 29.1659 26.4496C29.1759 26.0504 29.1029 25.6535 28.9517 25.2839C28.8004 24.9144 28.5742 24.5802 28.2872 24.3025L25.4668 21.4821C25.3787 21.3936 25.2737 21.3235 25.1581 21.2761C25.0425 21.2286 24.9186 21.2047 24.7936 21.2058C24.5474 21.2083 24.312 21.3076 24.1382 21.4821L23.472 22.1482L22.4091 21.0853C24.3121 18.8791 25.3584 16.0622 25.357 13.1486C25.357 6.41658 19.8828 0.942383 13.1508 0.942383ZM15.0216 8.44681H18.7773C18.9018 8.44587 19.0253 8.46969 19.1405 8.5169C19.2557 8.56411 19.3604 8.63376 19.4484 8.72179C19.5364 8.80983 19.6061 8.91449 19.6533 9.0297C19.7005 9.1449 19.7243 9.26834 19.7234 9.39284V13.1486C19.7234 13.3976 19.6245 13.6364 19.4484 13.8125C19.2723 13.9886 19.0335 14.0875 18.7844 14.0875C18.5354 14.0875 18.2966 13.9886 18.1205 13.8125C17.9444 13.6364 17.8455 13.3976 17.8455 13.1486V11.6569L13.8063 15.6855C13.6305 15.8597 13.393 15.9574 13.1455 15.9574C12.898 15.9574 12.6605 15.8597 12.4847 15.6855L11.2729 14.4702L8.17974 17.5634C7.29749 18.5094 5.91211 17.124 6.85105 16.2382L10.6068 12.4825C10.7828 12.3072 11.021 12.2088 11.2694 12.2088C11.5177 12.2088 11.756 12.3072 11.9319 12.4825L13.1437 13.7013L16.5204 10.3247H15.0216C14.7726 10.3247 14.5337 10.2258 14.3577 10.0497C14.1816 9.8736 14.0827 9.63477 14.0827 9.38575C14.0827 9.13673 14.1816 8.89791 14.3577 8.72182C14.5337 8.54573 14.7726 8.44681 15.0216 8.44681Z" fill="#17D262"/>
</g>
<defs>
<clipPath id="clip0_817_2895">
<rect width="30" height="30" fill="white"/>
</clipPath>
</defs>
</svg>
