<svg width="30" height="30" viewBox="0 0 30 30" fill="none" xmlns="http://www.w3.org/2000/svg">
<path fill-rule="evenodd" clip-rule="evenodd" d="M14.5876 2.46094V0.416016C14.5876 -0.117188 15.4021 -0.117188 15.4021 0.416016V2.46094C15.4021 2.68359 15.2205 2.87109 14.9919 2.87109C14.7751 2.86523 14.5876 2.68359 14.5876 2.46094ZM23.1892 3.63867L21.7419 5.08594C21.5837 5.24414 21.5837 5.50781 21.7419 5.66602C21.9002 5.82422 22.1638 5.82422 22.322 5.66602L23.7693 4.21875C24.1443 3.83789 23.5701 3.26367 23.1892 3.63867ZM26.9919 12H24.947C24.408 12 24.4138 12.8145 24.947 12.8203H26.9919C27.531 12.8203 27.5252 12.0059 26.9919 12ZM5.04859 12H3.00367C2.4646 12 2.47046 12.8145 3.00367 12.8203H5.04859C5.58179 12.8203 5.58179 12.0059 5.04859 12ZM8.25366 5.08594L6.8064 3.63867C6.42554 3.26367 5.85132 3.83789 6.22632 4.21875L7.67359 5.66602C8.05445 6.04102 8.62866 5.4668 8.25366 5.08594ZM11.6345 17.168C12.2849 17.5781 12.6892 17.6777 12.7712 19.0137H17.2244C17.2888 17.8125 17.6521 17.5898 18.1736 17.2793C21.5779 15.375 22.1814 10.2539 19.363 7.61133C15.5837 3.75 8.77515 6.50391 8.81617 11.9824C8.81617 14.1035 9.89429 16.0371 11.6345 17.168ZM20.8572 15.8086C20.2771 16.6934 19.5037 17.4434 18.5955 17.9824C18.2966 18.1641 18.0857 18.2871 18.0447 19.084C18.5486 19.2598 18.9002 19.7344 18.9002 20.2852V21.375C18.9002 21.9141 18.5603 22.3828 18.0681 22.5703C18.1384 22.7461 18.0916 23.4023 18.1033 23.5957C18.1033 24.1465 17.6462 24.6035 17.0955 24.6035H12.9001C12.3494 24.6035 11.8923 24.1465 11.8923 23.5957C11.9041 23.3965 11.863 22.752 11.9275 22.5703C11.4353 22.3828 11.0955 21.9199 11.0955 21.375V20.2852C11.0955 19.7344 11.447 19.2598 11.9509 19.084C11.9099 18.2871 11.699 18.1582 11.4001 17.9824C10.4919 17.4434 9.71851 16.6934 9.13843 15.8086C4.45093 20.8711 8.17163 29.1973 14.9978 29.1445C21.8533 29.1855 25.533 20.8535 20.8572 15.8086ZM12.9001 22.6523C12.7947 22.6523 12.7126 22.7402 12.7126 22.8398V23.5957C12.7126 23.7012 12.7947 23.7832 12.9001 23.7832H17.0955C17.2009 23.7832 17.283 23.7012 17.283 23.5957V22.8398C17.283 22.7344 17.1951 22.6523 17.0955 22.6523H12.9001ZM17.6287 21.832C17.8748 21.832 18.0857 21.627 18.0857 21.375V20.2852C18.0857 20.0332 17.8806 19.8281 17.6287 19.8281H12.3669C12.1209 19.8281 11.9099 20.0332 11.9099 20.2852C11.9392 20.6836 11.8103 21.5332 12.0447 21.6973C12.2029 21.9023 12.6775 21.8145 12.8943 21.832C13.1638 21.8379 17.5466 21.832 17.6287 21.832ZM21.2029 27.3984C20.9685 27.6328 20.7283 27.8496 20.4763 28.0488L22.4158 29.9883L23.7927 28.6113L21.8533 26.6719C21.6541 26.9238 21.4373 27.1641 21.2029 27.3984Z" fill="#FF4D69"/>
</svg>
