<svg width="30" height="30" viewBox="0 0 30 30" fill="none" xmlns="http://www.w3.org/2000/svg">
<path d="M14.5301 23.0063C14.2273 22.635 14.0228 22.1935 13.9357 21.7224C13.8485 21.2514 13.8814 20.7659 14.0313 20.3109C14.1769 19.8548 14.435 19.4427 14.7819 19.1127C15.1288 18.7827 15.5532 18.5454 16.016 18.4228L18.2013 17.8378L19.4295 15.9394C19.7098 15.5054 20.1042 15.1571 20.5695 14.9325C22.0845 13.5525 23.0435 11.5772 23.0435 9.37313C23.0426 5.23875 19.677 1.875 15.5454 1.875C11.4138 1.875 8.04822 5.24062 8.04822 9.37219C8.04813 10.4276 8.27108 11.4711 8.70246 12.4344C9.13383 13.3976 9.76389 14.2588 10.5513 14.9616H10.0329C8.50809 14.9639 7.02533 15.4617 5.80791 16.3798C4.5905 17.2979 3.70434 18.5868 3.28291 20.0522L2.23947 23.7441C2.11266 24.1868 2.09086 24.6529 2.17582 25.1055C2.26077 25.5581 2.45013 25.9847 2.72885 26.3512C3.00553 26.7198 3.36469 27.0185 3.77755 27.2233C4.1904 27.4281 4.64549 27.5333 5.10635 27.5306H15.852C15.8229 27.3581 15.8135 27.1856 15.8229 27.0131L15.9476 24.7603L14.5301 23.0063Z" fill="#FDB600"/>
<path d="M27.8276 20.9017C27.7783 20.7498 27.6917 20.6126 27.5757 20.5027C27.4598 20.3929 27.3182 20.3138 27.1639 20.2726L24.2726 19.4973L22.6433 16.9885C22.5562 16.8547 22.437 16.7447 22.2966 16.6685C22.1562 16.5924 21.9991 16.5525 21.8394 16.5525C21.6796 16.5525 21.5225 16.5924 21.3821 16.6685C21.2417 16.7447 21.1225 16.8547 21.0355 16.9885L19.4051 19.4964L16.5148 20.2717C16.3606 20.313 16.2192 20.3922 16.1034 20.5021C15.9875 20.612 15.901 20.749 15.8516 20.9009C15.8023 21.0527 15.7916 21.2145 15.8207 21.3715C15.8497 21.5284 15.9175 21.6757 16.018 21.7998L17.9023 24.1267L17.743 27.1145C17.7344 27.2742 17.7659 27.4335 17.8346 27.5779C17.9033 27.7224 18.007 27.8473 18.1363 27.9414C18.2657 28.0355 18.4165 28.0958 18.575 28.1168C18.7336 28.1377 18.8949 28.1187 19.0442 28.0614L21.8398 26.9879L24.6336 28.0604C24.7828 28.1171 24.9437 28.1358 25.1019 28.1147C25.2601 28.0936 25.4106 28.0335 25.5397 27.9397C25.6688 27.8459 25.7726 27.7215 25.8416 27.5776C25.9105 27.4337 25.9426 27.2748 25.9348 27.1154L25.7773 24.1267L27.6617 21.8007C27.8651 21.5476 27.928 21.211 27.8276 20.9017Z" fill="#FDB600"/>
</svg>
