<svg width="25" height="25" viewBox="0 0 25 25" fill="none" xmlns="http://www.w3.org/2000/svg">
<path d="M23.6971 6.25004V18.75C23.696 20.062 23.1744 21.3199 22.2467 22.2475C21.319 23.1752 20.0611 23.6969 18.7492 23.698H6.24921C5.35451 23.6976 4.47655 23.4555 3.70823 22.997C2.9399 22.5386 2.30981 21.881 1.88462 21.0938L9.47837 13.5105L12.0617 15.2292C12.2122 15.3299 12.3929 15.3756 12.5732 15.3585C12.7535 15.3414 12.9224 15.2626 13.0513 15.1355L17.968 10.2188V11.4584C17.968 11.6656 18.0503 11.8643 18.1968 12.0108C18.3433 12.1573 18.542 12.2396 18.7492 12.2396C18.9564 12.2396 19.1551 12.1573 19.3016 12.0108C19.4481 11.8643 19.5305 11.6656 19.5305 11.4584V8.33337C19.5309 8.22943 19.5096 8.12654 19.468 8.03129C19.386 7.84522 19.2374 7.69657 19.0513 7.61462C18.956 7.573 18.8532 7.55171 18.7492 7.55212H15.6242C15.417 7.55212 15.2183 7.63443 15.0718 7.78095C14.9253 7.92746 14.843 8.12617 14.843 8.33337C14.843 8.54058 14.9253 8.73929 15.0718 8.8858C15.2183 9.03231 15.417 9.11462 15.6242 9.11462H16.8638L12.395 13.573L9.81171 11.8542C9.66118 11.7535 9.48052 11.7078 9.30023 11.7249C9.11993 11.742 8.95106 11.8208 8.82212 11.948L1.35337 19.4167C1.31494 19.1966 1.2975 18.9734 1.30129 18.75V6.25004C1.30239 4.93811 1.82404 3.68023 2.75172 2.75255C3.67939 1.82488 4.93728 1.30323 6.24921 1.30212H18.7492C20.0611 1.30323 21.319 1.82488 22.2467 2.75255C23.1744 3.68023 23.696 4.93811 23.6971 6.25004Z" fill="#FF4D69"/>
</svg>
