<svg width="25" height="25" viewBox="0 0 25 25" fill="none" xmlns="http://www.w3.org/2000/svg">
<path d="M3.38477 19.2709V22.9167C3.38477 23.0625 3.49935 23.1771 3.64518 23.1771H13.0202C13.166 23.1771 13.2806 23.0625 13.2806 22.9167V19.2709C13.2806 18.3646 13.0306 17.5157 12.6035 16.7813C13.0775 16.875 13.5618 16.9271 14.0618 16.9271C18.2285 16.9271 21.6139 13.5417 21.6139 9.37504C21.6139 7.48442 20.9108 5.75525 19.7546 4.42712H20.3118C20.3796 4.42712 20.4473 4.40108 20.4941 4.349L21.5358 3.30733C21.5717 3.27103 21.5962 3.22494 21.6061 3.17482C21.616 3.12471 21.6109 3.07279 21.5914 3.02555C21.572 2.97832 21.539 2.93786 21.4967 2.90924C21.4544 2.88062 21.4046 2.8651 21.3535 2.86462H20.9421L21.541 2.26567C21.6452 2.1615 21.6452 2.00004 21.541 1.89587C21.4369 1.79171 21.2754 1.79171 21.1712 1.89587L20.5723 2.49483V2.08337C20.5718 2.03229 20.5563 1.98249 20.5276 1.94018C20.499 1.89787 20.4586 1.86493 20.4113 1.84548C20.3641 1.82603 20.3122 1.82093 20.2621 1.83082C20.212 1.84071 20.1659 1.86515 20.1296 1.90108L19.0879 2.94275C19.0393 2.99115 19.0113 3.05647 19.0098 3.12504V3.68233C17.6402 2.48363 15.8819 1.82291 14.0618 1.82296C10.3639 1.82296 7.28581 4.49483 6.63997 8.01046C5.62956 8.599 4.94727 9.68754 4.94727 10.9375C4.94727 12.1875 5.87435 13.6355 6.84831 14.5521C4.8431 15.1823 3.38477 17.0625 3.38477 19.2709ZM14.0618 11.198C13.0566 11.198 12.2389 10.3802 12.2389 9.37504C12.2389 8.36983 13.0566 7.55212 14.0618 7.55212C14.4681 7.55212 14.8431 7.69275 15.1504 7.92192L14.3223 8.75004V8.33858C14.3223 8.19275 14.2077 8.07817 14.0618 8.07817C13.916 8.07817 13.8014 8.19275 13.8014 8.33858V9.38025C13.8014 9.41671 13.8066 9.44796 13.8223 9.47921C13.8327 9.51046 13.8535 9.5365 13.8796 9.56254C13.9056 9.58858 13.9316 9.60421 13.9629 9.61983C13.9941 9.63025 14.0254 9.64067 14.0618 9.64067H15.1035C15.2493 9.64067 15.3639 9.52608 15.3639 9.38025C15.3639 9.23442 15.2493 9.11983 15.1035 9.11983H14.6921L15.5202 8.29171C15.7493 8.59379 15.89 8.96879 15.89 9.38025C15.89 10.3855 15.0723 11.2032 14.0671 11.2032L14.0618 11.198ZM19.2077 4.599C20.3744 5.85421 21.0931 7.53129 21.0931 9.37504C21.0931 13.25 17.9369 16.4063 14.0618 16.4063C13.4004 16.4063 12.765 16.3073 12.1608 16.1355C11.5496 15.3904 10.7355 14.8386 9.81706 14.5469C10.2129 14.1719 10.6035 13.7032 10.9264 13.1927C11.809 13.9209 12.9177 14.3187 14.0618 14.3177C16.791 14.3177 19.0098 12.099 19.0098 9.36983C19.0098 8.099 18.5254 6.94275 17.7337 6.06775L19.2077 4.59379V4.599ZM14.0618 2.34379C15.9056 2.34379 17.5827 3.06254 18.8379 4.22921L17.3639 5.70317C16.4605 4.88157 15.283 4.42656 14.0618 4.42712C11.9108 4.42712 10.0827 5.80733 9.40039 7.72921C9.06185 7.61462 8.70768 7.55212 8.33268 7.55212C7.95768 7.55212 7.57747 7.61983 7.22852 7.73962C7.9681 4.65108 10.7441 2.34379 14.0618 2.34379Z" fill="#386BB7"/>
</svg>
