<svg width="25" height="25" viewBox="0 0 25 25" fill="none" xmlns="http://www.w3.org/2000/svg">
<path fill-rule="evenodd" clip-rule="evenodd" d="M12.2806 18.9192C12.1635 18.8616 12.048 18.8008 11.9343 18.7369L11.9679 23.8231H6.18437L5.76354 18.1792C5.76354 18.1792 1.0752 14.8023 0.616183 12.5073C0.616183 12.5073 0.502261 11.6843 1.09604 11.2449C1.2913 11.102 1.52836 11.0276 1.77031 11.0333C2.01226 11.0391 2.24551 11.1247 2.43373 11.2769C2.74662 11.5283 3.17344 11.9963 3.65868 12.8617C4.66589 14.6578 6.52912 15.0439 7.43559 15.1278C7.95202 15.1756 9.20755 15.2406 10.2875 15.3492C10.2674 15.5184 10.303 15.6897 10.389 15.8369C10.4749 15.9841 10.6065 16.0993 10.7638 16.165C11.325 16.3997 11.6843 16.6638 11.902 16.9827C12.2476 17.489 12.2507 18.0938 12.2817 18.7531L12.2806 18.9192ZM7.2626 19.3474H8.01466C8.23108 19.3474 8.40682 19.1717 8.40682 18.9553C8.40682 18.7389 8.23108 18.5631 8.01466 18.5631H7.2626C7.04618 18.5631 6.87045 18.7389 6.87045 18.9553C6.87045 19.1717 7.04618 19.3474 7.2626 19.3474ZM8.87574 9.48931C9.95236 9.48931 10.8265 10.503 10.8265 11.7515C10.8265 13.0001 9.95236 14.0137 8.87574 14.0137C7.79908 14.0137 6.92501 13.0001 6.92501 11.7515C6.92501 10.503 7.79908 9.48931 8.87574 9.48931ZM16.1247 9.48931C17.2013 9.48931 18.0754 10.503 18.0754 11.7515C18.0754 13.0001 17.2013 14.0137 16.1247 14.0137C15.048 14.0137 14.1739 13.0001 14.1739 11.7515C14.1739 10.503 15.048 9.48931 16.1247 9.48931ZM18.816 23.8231H13.0325L13.0661 18.7369C13.0005 17.3662 12.9146 16.2143 11.0664 15.4415C13.3448 13.4527 14.5391 15.7891 17.5648 15.1278C18.4541 14.9334 20.3345 14.6578 21.3417 12.8617C21.827 11.9963 22.2538 11.5283 22.5667 11.2769C22.7549 11.1247 22.9881 11.0391 23.2301 11.0333C23.472 11.0276 23.7091 11.102 23.9044 11.2449C24.4981 11.6843 24.3842 12.5073 24.3842 12.5073C23.9252 14.8023 19.2369 18.1792 19.2369 18.1792L18.816 23.8231ZM15.459 1.17603C15.459 2.14603 16.0071 2.93348 16.6822 2.93348C17.3572 2.93348 17.9053 2.14603 17.9053 1.17603H19.1793C19.2443 1.17603 19.3066 1.20185 19.3526 1.24781C19.3985 1.29378 19.4244 1.35612 19.4244 1.42112V6.43446C19.4244 6.49946 19.3985 6.5618 19.3526 6.60777C19.3066 6.65373 19.2443 6.67956 19.1793 6.67956H14.1659C14.1337 6.67956 14.1019 6.67323 14.0721 6.66091C14.0424 6.6486 14.0154 6.63054 13.9926 6.60778C13.9699 6.58502 13.9518 6.558 13.9395 6.52826C13.9272 6.49852 13.9208 6.46665 13.9208 6.43446V5.47098C13.1193 5.47098 12.4685 4.77951 12.4685 3.92779C12.4685 3.07607 13.1193 2.3846 13.9208 2.3846V1.17603H15.459ZM11.0796 5.14137V6.67956H9.87099C9.87099 7.48112 9.17952 8.13191 8.3278 8.13191C7.47608 8.13191 6.78466 7.48112 6.78466 6.67956H5.82113C5.78895 6.67956 5.75707 6.67323 5.72733 6.66091C5.69759 6.6486 5.67057 6.63054 5.64781 6.60778C5.62505 6.58502 5.60699 6.558 5.59468 6.52826C5.58236 6.49852 5.57603 6.46665 5.57604 6.43446V1.42112C5.57604 1.35612 5.60186 1.29378 5.64782 1.24781C5.69379 1.20185 5.75613 1.17603 5.82113 1.17603H10.8345C10.8995 1.17603 10.9618 1.20185 11.0078 1.24781C11.0537 1.29378 11.0796 1.35612 11.0796 1.42112V2.69514C10.1096 2.69514 9.32211 3.24323 9.32211 3.91823C9.32211 4.59328 10.1096 5.14137 11.0796 5.14137Z" fill="#FDB600"/>
</svg>
