<svg width="25" height="25" viewBox="0 0 25 25" fill="none" xmlns="http://www.w3.org/2000/svg">
<g clip-path="url(#clip0_673_2629)">
<path d="M23.6456 10.5181C23.3526 10.2772 22.9098 9.91309 22.8592 9.72402C22.8025 9.51177 23.0017 8.97793 23.147 8.58804C23.4285 7.83271 23.7478 6.97651 23.3263 6.2479C22.8996 5.5105 21.9908 5.35923 21.1887 5.22573C20.8067 5.16206 20.2293 5.06592 20.0817 4.91831C19.9341 4.77065 19.8379 4.19331 19.7743 3.81128C19.6407 3.00923 19.4893 2.10034 18.7519 1.67368C18.0237 1.2522 17.1673 1.57148 16.4118 1.85298C16.0221 1.99834 15.488 2.19707 15.276 2.14058C15.0869 2.09009 14.7228 1.64717 14.4817 1.3542C13.9599 0.719629 13.3682 0 12.5 0C11.6318 0 11.0401 0.719629 10.5181 1.35439C10.2772 1.64736 9.91309 2.09023 9.72402 2.14082C9.51157 2.19727 8.97793 1.99834 8.58804 1.85298C7.83271 1.57148 6.97651 1.2522 6.2479 1.67368C5.5105 2.10039 5.35923 3.00923 5.22573 3.81128C5.16206 4.19331 5.06592 4.77065 4.91831 4.91831C4.77065 5.06592 4.19331 5.16206 3.81128 5.22573C3.00923 5.35928 2.10034 5.51069 1.67368 6.2481C1.2522 6.97651 1.57148 7.83271 1.85298 8.58823C1.99834 8.97788 2.19727 9.51196 2.14058 9.72402C2.09009 9.91309 1.64717 10.2772 1.3542 10.5183C0.719629 11.0401 0 11.6318 0 12.5C0 13.3682 0.719629 13.9599 1.35439 14.4819C1.64736 14.7228 2.09023 15.0869 2.14082 15.276C2.19746 15.4882 1.99834 16.0221 1.85298 16.412C1.57148 17.1673 1.2522 18.0235 1.67368 18.7521C2.10039 19.4895 3.00923 19.6408 3.81128 19.7743C4.19331 19.8379 4.77065 19.9341 4.91831 20.0817C5.06592 20.2293 5.16206 20.8067 5.22573 21.1887C5.35928 21.9908 5.51069 22.8997 6.2481 23.3263C6.97632 23.7478 7.83271 23.4285 8.58823 23.147C8.97788 23.0017 9.51216 22.8029 9.72402 22.8594C9.91309 22.9099 10.2772 23.3528 10.5183 23.6458C11.0401 24.2804 11.6318 25 12.5 25C13.3682 25 13.9599 24.2804 14.4819 23.6456C14.7228 23.3526 15.0869 22.9098 15.276 22.8592C15.4884 22.8029 16.0221 23.0017 16.412 23.147C17.1673 23.4283 18.0235 23.7478 18.7521 23.3263C19.4895 22.8996 19.6408 21.9908 19.7743 21.1887C19.8379 20.8067 19.9341 20.2293 20.0817 20.0817C20.2293 19.9341 20.8067 19.8379 21.1887 19.7743C21.9908 19.6407 22.8997 19.4893 23.3263 18.7519C23.7478 18.0235 23.4285 17.1673 23.147 16.4118C23.0017 16.0221 22.8027 15.488 22.8594 15.276C22.9099 15.0869 23.3528 14.7228 23.6458 14.4817C24.2804 13.9599 25 13.3682 25 12.5C25 11.6318 24.2804 11.0401 23.6456 10.5181ZM17.8846 10.7693L13.5576 16.5384C13.3786 16.7774 13.1463 16.9713 12.8793 17.1048C12.6122 17.2383 12.3177 17.3078 12.0191 17.3077C11.5055 17.3077 11.0226 17.1078 10.6594 16.7444L7.77476 13.86C7.02495 13.11 7.02495 11.89 7.77476 11.1402C8.52471 10.3905 9.74463 10.3905 10.4944 11.1402L11.8111 12.4569L14.8077 8.46157C15.1159 8.05073 15.5657 7.78428 16.0742 7.71157C16.5827 7.63892 17.0891 7.7688 17.5 8.07705C17.9109 8.38511 18.1772 8.83501 18.2499 9.34351C18.3226 9.85205 18.1929 10.3583 17.8847 10.7693H17.8846Z" fill="#17D262"/>
</g>
<defs>
<clipPath id="clip0_673_2629">
<rect width="25" height="25" fill="white"/>
</clipPath>
</defs>
</svg>
