<svg width="40" height="40" viewBox="0 0 40 40" fill="none" xmlns="http://www.w3.org/2000/svg">
<g clip-path="url(#clip0_673_2731)">
<path d="M38.8945 38.875C38.5469 39.2236 38.1338 39.5002 37.6791 39.6889C37.2244 39.8777 36.7369 39.9748 36.2445 39.9748C35.7522 39.9748 35.2647 39.8777 34.81 39.6889C34.3552 39.5002 33.9422 39.2236 33.5945 38.875L29.857 35.15C32.1874 34.0447 34.0642 32.1679 35.1695 29.8375L38.8945 33.575C39.5913 34.281 39.982 35.233 39.982 36.225C39.982 37.217 39.5913 38.169 38.8945 38.875ZM25.0195 16.25C23.2889 16.25 21.5972 16.7632 20.1583 17.7246C18.7194 18.6861 17.5979 20.0527 16.9356 21.6515C16.2733 23.2504 16.1 25.0097 16.4377 26.707C16.7753 28.4044 17.6086 29.9635 18.8324 31.1872C20.0561 32.4109 21.6152 33.2443 23.3125 33.5819C25.0098 33.9195 26.7692 33.7462 28.368 33.0839C29.9669 32.4217 31.3334 31.3002 32.2949 29.8612C33.2564 28.4223 33.7695 26.7306 33.7695 25C33.7695 22.6794 32.8477 20.4538 31.2067 18.8128C29.5658 17.1719 27.3402 16.25 25.0195 16.25ZM29.3358 23.33L24.9458 27.7175C24.7114 27.9518 24.3935 28.0835 24.062 28.0835C23.7306 28.0835 23.4127 27.9518 23.1783 27.7175L21.4233 25.9625C21.3039 25.8472 21.2087 25.7093 21.1432 25.5568C21.0776 25.4043 21.0432 25.2402 21.0417 25.0743C21.0403 24.9083 21.0719 24.7437 21.1348 24.5901C21.1976 24.4364 21.2904 24.2969 21.4078 24.1795C21.5252 24.0621 21.6647 23.9693 21.8183 23.9065C21.972 23.8436 22.1366 23.812 22.3025 23.8134C22.4685 23.8149 22.6325 23.8494 22.785 23.9149C22.9375 23.9804 23.0755 24.0756 23.1908 24.195L24.062 25.0675L27.5683 21.5625C27.804 21.3348 28.1198 21.2088 28.4475 21.2117C28.7753 21.2145 29.0888 21.346 29.3206 21.5777C29.5523 21.8095 29.6838 22.123 29.6866 22.4507C29.6895 22.7785 29.5635 23.0942 29.3358 23.33Z" fill="white"/>
<path d="M25.0195 36.25C25.6268 36.2508 26.2331 36.2006 26.832 36.1C24.4714 38.1191 21.5814 39.4194 18.5045 39.8466C15.4276 40.2739 12.2927 39.8102 9.47118 38.5106C6.64968 37.211 4.2598 35.1299 2.58466 32.5138C0.909522 29.8978 0.0193269 26.8564 0.0195313 23.75C0.0195313 15.025 14.782 0.937472 15.407 0.337472C15.6419 0.120572 15.9498 0.00012207 16.2695 0.00012207C16.5892 0.00012207 16.8972 0.120572 17.132 0.337472C21.5835 4.62071 25.5683 9.36389 29.0195 14.4875C27.7427 13.9984 26.3868 13.7484 25.0195 13.75C22.0358 13.75 19.1744 14.9352 17.0646 17.045C14.9548 19.1548 13.7695 22.0163 13.7695 25C13.7695 27.9837 14.9548 30.8451 17.0646 32.9549C19.1744 35.0647 22.0358 36.25 25.0195 36.25Z" fill="white"/>
</g>
<defs>
<clipPath id="clip0_673_2731">
<rect width="40" height="40" fill="white"/>
</clipPath>
</defs>
</svg>
