<svg width="40" height="40" viewBox="0 0 40 40" fill="none" xmlns="http://www.w3.org/2000/svg">
<path d="M22.1517 29.7281V22.5936H16.2097C10.4397 22.5936 5.50809 27.0576 5.26889 32.8225C5.19918 34.4225 5.49122 36.0177 6.12329 37.4893C3.05009 34.8092 1.08329 30.8916 1.00249 26.5104C0.848087 18.1384 7.90329 11.2864 16.2765 11.2864H22.1525V4.15245C22.1525 2.71525 23.8701 1.97365 24.9165 2.95965L38.4849 15.7469C38.6475 15.9001 38.7771 16.085 38.8657 16.2901C38.9542 16.4953 38.9999 16.7164 38.9999 16.9398C38.9999 17.1633 38.9542 17.3844 38.8657 17.5896C38.7771 17.7947 38.6475 17.9796 38.4849 18.1328L24.9157 30.9209C23.8697 31.9065 22.1517 31.1653 22.1517 29.7281Z" fill="white"/>
</svg>
