<svg width="40" height="40" viewBox="0 0 40 40" fill="none" xmlns="http://www.w3.org/2000/svg">
<path d="M10.3242 11.6324C10.2017 9.09841 8.24328 7.0381 5.75344 6.75443C7.00555 6.48388 7.94688 5.36818 7.94688 4.0363C7.94688 2.50271 6.69922 1.25427 5.16563 1.25427C3.63203 1.25427 2.38438 2.50271 2.38438 4.0363C2.38438 5.36802 3.32547 6.48365 4.57734 6.75435C2.00508 7.0474 0 9.23607 0 11.8847V13.966C0 14.6132 0.524687 15.1379 1.17188 15.1379H7.27266C7.26539 12.8489 8.44297 11.7615 10.3242 11.6324ZM35.4227 6.75435C36.6746 6.48365 37.6156 5.36802 37.6156 4.0363C37.6156 2.50271 36.368 1.25427 34.8344 1.25427C33.3008 1.25427 32.0531 2.50271 32.0531 4.0363C32.0531 5.36818 32.9944 6.48388 34.2466 6.75443C31.7568 7.03802 29.7984 9.09841 29.6758 11.6324C31.5529 11.7611 32.7347 12.8445 32.7273 15.1379H38.8281C39.4753 15.1379 40 14.6132 40 13.966V11.8847C40 9.23607 37.9949 7.0474 35.4227 6.75435ZM32.6969 22.4902C30.657 20.8754 29.9616 20.0949 30.1773 17.4816C30.2714 16.353 30.5865 14.5681 30.182 14.1636C30.0836 14.0652 29.9008 14.0097 29.6695 13.9824C28.2504 13.8194 25.9948 14.6106 24.3188 13.916C23.3219 13.5019 22.5766 12.5597 21.8563 11.6488C21.2563 10.8902 20.5094 9.94646 20 9.94646C19.4906 9.94646 18.7437 10.8902 18.1438 11.6488C17.4234 12.5597 16.6781 13.5019 15.6812 13.916C14.6377 14.3485 13.3928 14.2061 12.2352 14.0761C11.5564 14.002 10.1629 13.8215 9.81797 14.1636C9.14242 14.8392 10.3768 18.0804 9.57031 20.0269C9.15625 21.0238 8.21406 21.7691 7.30313 22.4902C6.54453 23.0894 5.60078 23.8363 5.60078 24.3457C5.60078 24.8551 6.54453 25.6019 7.30313 26.2019C8.21406 26.9222 9.15625 27.6676 9.57031 28.6652C10 29.7012 9.8625 30.9262 9.73047 32.1105C9.63203 32.9949 9.49609 34.2066 9.81797 34.5277C10.1391 34.8496 11.3508 34.7137 12.2352 34.6152C13.4254 34.4821 14.6459 34.3471 15.6812 34.7762C16.6781 35.1894 17.4234 36.1316 18.1438 37.0433C18.7437 37.8012 19.4906 38.7457 20 38.7457C20.5094 38.7457 21.2563 37.8012 21.8555 37.0433C22.5766 36.1316 23.3219 35.1894 24.3188 34.7762C25.3555 34.3457 26.5805 34.4832 27.7648 34.6152C28.6492 34.7144 29.8602 34.8496 30.182 34.5277C30.5031 34.2066 30.368 32.9949 30.2695 32.1105C30.1375 30.9262 30 29.7012 30.4297 28.6652C30.8438 27.6676 31.7859 26.9222 32.6969 26.2019C33.4555 25.6019 34.3992 24.8551 34.3992 24.3457C34.3992 23.8363 33.4555 23.0894 32.6969 22.4902ZM24.5187 23.2433L18.9336 27.9199C18.3979 28.3687 17.5957 28.2487 17.2102 27.6762L15.2617 24.7863C14.9 24.2496 15.0414 23.5215 15.5781 23.159C16.1148 22.7972 16.843 22.9394 17.2047 23.4762C17.5241 23.9492 17.2816 23.5898 18.4266 25.2879C21.7613 22.4957 20.7441 23.3472 23.0148 21.4465C23.5109 21.0308 24.25 21.0965 24.6656 21.5926C25.0805 22.0887 25.0156 22.8285 24.5187 23.2433Z" fill="white"/>
</svg>
