<svg width="40" height="40" viewBox="0 0 40 40" fill="none" xmlns="http://www.w3.org/2000/svg">
<path d="M37.9173 33.3334C37.9173 34.55 37.434 35.7167 36.5673 36.5667C35.6673 37.4667 34.5006 37.9 33.334 37.9C32.1673 37.9 30.984 37.45 30.1006 36.5667L27.934 34.4C30.6007 32.8 32.8173 30.5834 34.4173 27.9167L36.584 30.0834C37.4507 30.95 37.934 32.1 37.934 33.3167L37.9173 33.3334ZM34.584 18.3334C34.584 27.3 27.3007 34.5834 18.334 34.5834C9.36732 34.5834 2.08398 27.3 2.08398 18.3334C2.08398 9.36671 9.36732 2.08337 18.334 2.08337C27.3007 2.08337 34.584 9.36671 34.584 18.3334ZM12.3173 18.3334L15.6006 15.05C16.084 14.5667 16.084 13.7667 15.6006 13.2834C15.1173 12.8 14.3173 12.8 13.834 13.2834L9.66732 17.45C9.18398 17.9334 9.18398 18.7334 9.66732 19.2167L13.834 23.3834C14.084 23.6334 14.4007 23.75 14.7173 23.75C15.034 23.75 15.3506 23.6334 15.6006 23.3834C16.084 22.9 16.084 22.1 15.6006 21.6167L12.3173 18.3334ZM26.984 17.45L22.8173 13.2834C22.334 12.8 21.534 12.8 21.0507 13.2834C20.5673 13.7667 20.5673 14.5667 21.0507 15.05L24.334 18.3334L21.0507 21.6167C20.5673 22.1 20.5673 22.9 21.0507 23.3834C21.3007 23.6334 21.6173 23.75 21.934 23.75C22.2507 23.75 22.5673 23.6334 22.8173 23.3834L26.984 19.2167C27.4673 18.7334 27.4673 17.9334 26.984 17.45Z" fill="white"/>
</svg>
