<svg width="40" height="40" viewBox="0 0 40 40" fill="none" xmlns="http://www.w3.org/2000/svg">
<g clip-path="url(#clip0_673_2718)">
<path d="M26.6667 36.6666H23.3333V33.3333H16.6667V36.6666H13.3333C12.8913 36.6666 12.4674 36.8422 12.1548 37.1548C11.8423 37.4673 11.6667 37.8913 11.6667 38.3333C11.6667 38.7753 11.8423 39.1992 12.1548 39.5118C12.4674 39.8244 12.8913 40 13.3333 40H26.6667C27.1087 40 27.5326 39.8244 27.8452 39.5118C28.1577 39.1992 28.3333 38.7753 28.3333 38.3333C28.3333 37.8913 28.1577 37.4673 27.8452 37.1548C27.5326 36.8422 27.1087 36.6666 26.6667 36.6666ZM37.0833 6.66663H35.7333C35.3833 7.79996 34.9167 8.91663 34.3667 9.99996H36.6667V30H3.33333V9.99996H6.46667C6.63333 9.21663 7.01667 8.49996 7.6 7.91663C8.05 7.46663 8.55 7.03329 9.1 6.66663H2.91667C1.31667 6.66663 0 7.98329 0 9.58329V30.4166C0 32.0166 1.31667 33.3333 2.91667 33.3333H37.0833C38.6833 33.3333 40 32.0166 40 30.4166V9.58329C40 7.98329 38.6833 6.66663 37.0833 6.66663Z" fill="white"/>
<path d="M33.1503 0.453348C33.0705 0.374961 32.9759 0.313114 32.8721 0.271356C32.7683 0.229599 32.6572 0.208753 32.5453 0.210015C27.8336 0.298348 22.337 3.04835 18.847 7.04335C15.072 7.17668 11.9203 8.31502 9.95531 10.28C9.85045 10.3848 9.77543 10.5156 9.73798 10.659C9.70053 10.8024 9.702 10.9532 9.74225 11.0959C9.7825 11.2385 9.86006 11.3678 9.96694 11.4705C10.0738 11.5732 10.2062 11.6455 10.3503 11.68L13.8986 12.53L13.877 12.5533C13.7342 12.712 13.6577 12.9193 13.6633 13.1327C13.6689 13.346 13.7561 13.5491 13.907 13.7L19.902 19.695C19.9792 19.7727 20.0712 19.8343 20.1725 19.876C20.2738 19.9178 20.3824 19.939 20.492 19.9383C20.692 19.9383 20.8903 19.8683 21.0486 19.725L21.072 19.7033L21.922 23.2517C21.9561 23.3963 22.0282 23.5292 22.1309 23.6365C22.2336 23.7439 22.3632 23.8218 22.5061 23.8623C22.6491 23.9027 22.8003 23.9042 22.944 23.8666C23.0878 23.829 23.2188 23.7536 23.3236 23.6483C25.2903 21.6817 26.427 18.5317 26.562 14.755C30.562 11.2533 33.307 5.76335 33.3953 1.05668C33.3969 0.944845 33.376 0.833831 33.3339 0.730201C33.2918 0.626572 33.2294 0.532433 33.1503 0.453348Z" fill="white"/>
<path d="M11.2528 17.4533C10.1345 18.5716 8.70282 23.2166 8.42782 24.1366C8.38593 24.2807 8.38353 24.4333 8.42087 24.5786C8.45821 24.7238 8.53391 24.8564 8.64006 24.9624C8.74621 25.0684 8.87889 25.1439 9.02423 25.181C9.16956 25.2181 9.3222 25.2154 9.46616 25.1733C10.3862 24.8983 15.0295 23.4683 16.1495 22.3483C16.7978 21.6984 17.1619 20.8179 17.1619 19.9C17.1619 18.982 16.7978 18.1015 16.1495 17.4516C15.4994 16.8035 14.6188 16.4398 13.7008 16.4401C12.7829 16.4404 11.9025 16.8048 11.2528 17.4533Z" fill="white"/>
</g>
<defs>
<clipPath id="clip0_673_2718">
<rect width="40" height="40" fill="white"/>
</clipPath>
</defs>
</svg>
