<svg width="40" height="40" viewBox="0 0 40 40" fill="none" xmlns="http://www.w3.org/2000/svg">
<path d="M19.375 16.875H18.125C17.7108 16.8755 17.3136 17.0403 17.0207 17.3332C16.7278 17.6261 16.563 18.0233 16.5625 18.4375V22.5C16.5625 22.6658 16.6283 22.8247 16.7456 22.9419C16.8628 23.0592 17.0217 23.125 17.1875 23.125C17.3533 23.125 17.5122 23.0592 17.6294 22.9419C17.7467 22.8247 17.8125 22.6658 17.8125 22.5V20.625H19.6875V22.5C19.6875 22.6658 19.7533 22.8247 19.8706 22.9419C19.9878 23.0592 20.1467 23.125 20.3125 23.125C20.4783 23.125 20.6372 23.0592 20.7544 22.9419C20.8717 22.8247 20.9375 22.6658 20.9375 22.5V18.4375C20.937 18.0233 20.7722 17.6261 20.4793 17.3332C20.1864 17.0403 19.7892 16.8755 19.375 16.875ZM17.8125 19.375V18.4375C17.8125 18.3546 17.8454 18.2751 17.904 18.2165C17.9626 18.1579 18.0421 18.125 18.125 18.125H19.375C19.4579 18.125 19.5374 18.1579 19.596 18.2165C19.6546 18.2751 19.6875 18.3546 19.6875 18.4375V19.375H17.8125ZM22.1875 17.5V22.5C22.1875 22.6658 22.2533 22.8247 22.3706 22.9419C22.4878 23.0592 22.6467 23.125 22.8125 23.125C22.9783 23.125 23.1372 23.0592 23.2544 22.9419C23.3717 22.8247 23.4375 22.6658 23.4375 22.5V17.5C23.4375 17.3342 23.3717 17.1753 23.2544 17.0581C23.1372 16.9408 22.9783 16.875 22.8125 16.875C22.6467 16.875 22.4878 16.9408 22.3706 17.0581C22.2533 17.1753 22.1875 17.3342 22.1875 17.5Z" fill="white"/>
<path d="M31.2689 20C31.8705 19.4227 32.4429 18.8156 32.9839 18.1812C35.3464 15.3687 36.1214 12.9062 35.1652 11.25C33.2764 7.98438 26.1989 9.47375 20.0052 12.4012C18.5687 11.7172 17.0911 11.1233 15.5808 10.6231C16.657 6.34687 18.3914 3.75 20.0089 3.75C20.6964 3.75 21.4027 4.2125 22.0714 5.05625C22.3884 4.77818 22.7614 4.57144 23.1652 4.45C22.2214 3.18125 21.1464 2.5 20.0089 2.5C17.6314 2.5 15.5777 5.55 14.3814 10.2575C9.70766 8.93875 6.04078 9.19187 4.85266 11.25C2.96703 14.515 7.79766 19.9062 13.4264 23.805C13.5521 25.3895 13.7765 26.9647 14.0983 28.5212C9.85891 29.7262 6.74453 29.5238 5.93391 28.125C5.59016 27.525 5.64016 26.6875 6.03391 25.6938C5.62978 25.5499 5.2596 25.3244 4.94641 25.0312C4.31516 26.4812 4.27141 27.75 4.85266 28.75C5.55891 29.9688 7.13391 30.5562 9.27766 30.5562C11.0075 30.5144 12.7239 30.2403 14.3808 29.7412C15.577 34.4494 17.6308 37.5 20.0089 37.5C23.7839 37.5 26.027 30.645 26.5877 23.795C27.9015 22.8911 29.1585 21.9072 30.3514 20.8488C30.9402 21.4118 31.4996 22.0046 32.0277 22.625C33.9964 24.9688 34.7464 26.975 34.0839 28.125C33.834 28.4654 33.5101 28.7447 33.1366 28.9417C32.7631 29.1388 32.3497 29.2484 31.9277 29.2625C31.9601 29.4462 31.9768 29.6322 31.9777 29.8187C31.976 30.0585 31.9488 30.2973 31.8964 30.5312C33.4714 30.3437 34.5839 29.75 35.1652 28.75C36.1214 27.0938 35.3464 24.6313 32.9839 21.8188C32.4429 21.1843 31.8705 20.5773 31.2689 20ZM13.2714 20C13.2714 20.7437 13.2902 21.4731 13.3233 22.1894C7.91516 18.2456 4.76766 13.9031 5.93391 11.875C6.74453 10.4719 9.85891 10.2706 14.0989 11.4769C13.5323 14.2821 13.255 17.1381 13.2714 20ZM20.0089 36.25C18.3914 36.25 16.657 33.6538 15.5808 29.3775C18.2942 28.4653 20.9069 27.277 23.3777 25.8313C24.0104 25.4637 24.6345 25.0815 25.2495 24.685C24.5389 31.3525 22.3558 36.25 20.0089 36.25ZM22.7527 24.75C20.3898 26.1316 17.8931 27.2704 15.3008 28.1487C14.7668 25.4657 14.5056 22.7356 14.5214 20C14.5056 17.264 14.7667 14.5334 15.3008 11.85C17.893 12.7292 20.3897 13.8683 22.7527 15.25C25.1308 16.6075 27.3677 18.1987 29.4302 20C27.3677 21.8013 25.1308 23.3925 22.7527 24.75ZM23.3777 14.1687C22.7442 13.8038 22.1023 13.4535 21.4527 13.1181C27.5752 10.4019 32.9077 9.84312 34.0839 11.875C34.7464 13.025 33.9964 15.0312 32.0277 17.375C31.4996 17.9954 30.9402 18.5882 30.3514 19.1513C28.2012 17.2589 25.8647 15.5896 23.3777 14.1687Z" fill="white"/>
<path d="M24.0898 9.30627C25.1254 9.30627 25.9648 8.46681 25.9648 7.43127C25.9648 6.39574 25.1254 5.55627 24.0898 5.55627C23.0543 5.55627 22.2148 6.39574 22.2148 7.43127C22.2148 8.46681 23.0543 9.30627 24.0898 9.30627Z" fill="white"/>
<path d="M7.08398 24.625C8.11952 24.625 8.95898 23.7855 8.95898 22.75C8.95898 21.7145 8.11952 20.875 7.08398 20.875C6.04845 20.875 5.20898 21.7145 5.20898 22.75C5.20898 23.7855 6.04845 24.625 7.08398 24.625Z" fill="white"/>
<path d="M28.8535 31.6937C29.889 31.6937 30.7285 30.8543 30.7285 29.8187C30.7285 28.7832 29.889 27.9437 28.8535 27.9437C27.818 27.9437 26.9785 28.7832 26.9785 29.8187C26.9785 30.8543 27.818 31.6937 28.8535 31.6937Z" fill="white"/>
</svg>
