<svg width="30" height="30" viewBox="0 0 30 30" fill="none" xmlns="http://www.w3.org/2000/svg">
<g clip-path="url(#clip0_817_3211)">
<path d="M25.6594 8.79014L24.7302 12.4415C24.591 12.9856 24.0375 13.3148 23.4934 13.1763L22.451 12.9106C22.9567 10.9737 22.9506 11.0026 22.9506 10.9962C23.2354 9.85626 23.7426 9.41599 24.6393 9.10157H24.64C24.9622 8.98901 25.3806 8.87455 25.6594 8.79014ZM10.1274 8.73643C10.0627 8.71996 10.0019 8.6909 9.94838 8.65092C9.8949 8.61093 9.84982 8.5608 9.81572 8.50339C9.78162 8.44598 9.75916 8.38242 9.74963 8.31633C9.7401 8.25024 9.74367 8.18291 9.76016 8.11821C10.1817 6.46304 9.17804 4.77355 7.52287 4.35203C5.46036 3.82679 5.61499 3.86747 5.5787 3.85425C4.69544 6.61424 5.72126 10.0033 9.43685 10.9496L20.1553 13.6792C20.6974 13.8172 21.2493 13.4915 21.3903 12.9501L21.7191 11.6884L10.1274 8.73643ZM8.32897 6.85926C8.29569 6.98994 8.21186 7.10204 8.09592 7.17091C7.97998 7.23978 7.84143 7.25978 7.71075 7.22649C7.64603 7.21002 7.5852 7.18096 7.53172 7.14098C7.47825 7.10099 7.43317 7.05086 7.39907 6.99345C7.36496 6.93604 7.3425 6.87248 7.33297 6.80639C7.32344 6.74029 7.32702 6.67297 7.34351 6.60827C7.35998 6.54356 7.38904 6.48272 7.42903 6.42925C7.46901 6.37577 7.51914 6.33069 7.57655 6.29659C7.63396 6.26249 7.69753 6.24003 7.76362 6.23049C7.82971 6.22096 7.89703 6.22454 7.96174 6.24103C8.09241 6.27433 8.2045 6.35816 8.27337 6.4741C8.34224 6.59004 8.36224 6.72858 8.32897 6.85926Z" fill="#FDB600"/>
<path d="M27.6011 4.13418L12.1713 0.204729C9.21801 -0.547349 7.02019 0.866937 5.96875 2.90727L7.77201 3.36647C9.82162 3.88841 11.098 5.85145 10.8394 7.86865L21.9739 10.7043C23.0083 6.78289 26.6595 9.00086 28.2698 5.55445C28.5404 4.97518 28.2208 4.292 27.6011 4.13418ZM20.6752 7.75272C20.6588 7.81743 20.6297 7.87826 20.5897 7.93174C20.5497 7.98522 20.4996 8.0303 20.4422 8.0644C20.3847 8.0985 20.3212 8.12096 20.2551 8.13049C20.189 8.14002 20.1217 8.13644 20.057 8.11995L14.4541 6.69308C14.3894 6.67661 14.3286 6.64755 14.2751 6.60756C14.2216 6.56758 14.1766 6.51745 14.1425 6.46004C14.1084 6.40263 14.0859 6.33906 14.0764 6.27297C14.0668 6.20688 14.0704 6.13956 14.0869 6.07486C14.1562 5.8027 14.433 5.63809 14.7051 5.70762L20.308 7.13449C20.4387 7.16779 20.5508 7.25162 20.6196 7.36756C20.6885 7.4835 20.7085 7.62204 20.6752 7.75272ZM24.0131 26.7722H21.5669C21.432 26.7722 21.3027 26.7186 21.2074 26.6232C21.112 26.5279 21.0584 26.3986 21.0584 26.2637C21.0584 23.7427 23.5046 24.2557 23.5046 23.2694C23.5046 22.2729 22.0754 22.3089 22.0754 23.244C22.0754 23.3788 22.0218 23.5081 21.9264 23.6035C21.8311 23.6988 21.7017 23.7524 21.5669 23.7524C21.432 23.7524 21.3027 23.6988 21.2074 23.6035C21.112 23.5081 21.0584 23.3788 21.0584 23.244C21.0584 20.9578 24.5216 20.9354 24.5216 23.2694C24.5216 25.0861 22.4667 24.6328 22.1377 25.7552H24.0131C24.148 25.7552 24.2773 25.8088 24.3726 25.9042C24.468 25.9995 24.5216 26.1289 24.5216 26.2637C24.5216 26.3986 24.468 26.5279 24.3726 26.6232C24.2773 26.7186 24.148 26.7722 24.0131 26.7722ZM27.3172 26.7567C27.1824 26.7567 27.053 26.7032 26.9577 26.6078C26.8623 26.5124 26.8088 26.3831 26.8088 26.2483V25.5426H25.1925C24.7803 25.5426 24.539 25.0759 24.778 24.7395L26.9028 21.7506C27.1886 21.3484 27.8257 21.5511 27.8257 22.0452V24.5277C27.9523 24.5389 28.0701 24.5971 28.156 24.6908C28.2418 24.7846 28.2894 24.9071 28.2894 25.0342C28.2894 25.1613 28.2418 25.2838 28.156 25.3775C28.0701 25.4713 27.9523 25.5295 27.8257 25.5407V26.2484C27.8256 26.3832 27.7721 26.5125 27.6767 26.6078C27.5814 26.7032 27.452 26.7567 27.3172 26.7567ZM26.1778 24.5257H26.8088V23.6381L26.1778 24.5257Z" fill="#FDB600"/>
<path d="M28.8737 27.8465L28.7402 29.3445C28.7289 29.471 28.6708 29.5886 28.5772 29.6744C28.4835 29.7601 28.3612 29.8077 28.2343 29.8078C27.9336 29.8078 27.7008 29.5501 27.7271 29.2543L27.75 28.9969C25.5471 30.5081 22.5327 30.3158 20.54 28.3924C18.294 26.2252 18.1376 22.5878 20.4612 20.2532C22.575 18.1308 25.902 17.951 28.1561 19.8128C28.3722 19.9914 28.4033 20.3117 28.2241 20.5284C28.1816 20.58 28.1294 20.6226 28.0704 20.6539C28.0114 20.6852 27.9469 20.7046 27.8804 20.7109C27.8139 20.7172 27.7468 20.7104 27.683 20.6907C27.6192 20.6711 27.5599 20.639 27.5084 20.5964C25.6452 19.0597 22.9121 19.2333 21.1819 20.9708C19.2673 22.8936 19.3995 25.8795 21.2461 27.6602C22.8327 29.1922 25.1951 29.3835 26.9784 28.2856L26.8551 28.2837C26.7883 28.2827 26.7224 28.2684 26.6612 28.2419C26.6 28.2153 26.5445 28.1769 26.4982 28.1289C26.4518 28.081 26.4153 28.0243 26.3908 27.9622C26.3663 27.9001 26.3543 27.8338 26.3555 27.767C26.3598 27.4997 26.5723 27.2668 26.8729 27.2668L28.376 27.2929C28.6707 27.2981 28.9002 27.5526 28.8737 27.8465ZM12.484 13.9305L11.3152 19.9672C12.0258 20.2996 12.5177 21.0216 12.5177 21.858C12.5177 23.0103 11.5834 23.9453 10.4311 23.9453C9.60932 23.9453 8.89811 23.4699 8.55807 22.7796L4.05882 23.7444V28.0238C4.05882 29.9769 1.125 29.975 1.125 28.0238V18.4247C1.125 16.4715 4.05882 16.4728 4.05882 18.4247V22.704L8.34516 21.785C8.38202 20.7038 9.24132 19.8318 10.3167 19.774L11.4773 13.7799C10.7686 13.5225 10.1794 12.9523 10.032 12.1509L14.0259 13.1678C13.63 13.6572 13.0656 13.8987 12.484 13.9305Z" fill="#FDB600"/>
</g>
<defs>
<clipPath id="clip0_817_3211">
<rect width="30" height="30" fill="white"/>
</clipPath>
</defs>
</svg>
