<svg width="30" height="30" viewBox="0 0 30 30" fill="none" xmlns="http://www.w3.org/2000/svg">
<path fill-rule="evenodd" clip-rule="evenodd" d="M28.4375 21.875C28.4375 21.295 28.2075 20.7388 27.7963 20.3288C27.5934 20.1254 27.3524 19.964 27.087 19.854C26.8217 19.7439 26.5373 19.6874 26.25 19.6875H20C19.42 19.6875 18.8637 19.9175 18.4537 20.3288C18.2504 20.5316 18.089 20.7726 17.979 21.038C17.8689 21.3033 17.8124 21.5877 17.8125 21.875V25.625C17.8125 26.205 18.0425 26.7612 18.4537 27.1712C18.8637 27.5825 19.42 27.8125 20 27.8125H26.25C26.83 27.8125 27.3863 27.5825 27.7963 27.1712C28.2075 26.7612 28.4375 26.205 28.4375 25.625V21.875Z" fill="#386BB7"/>
<path fill-rule="evenodd" clip-rule="evenodd" d="M23.125 14.6875C22.0538 14.6875 21.0275 15.0938 20.27 15.8125C19.8906 16.1686 19.5878 16.5984 19.3801 17.0755C19.1725 17.5527 19.0644 18.0672 19.0625 18.5875V20.625C19.0625 21.1425 19.4825 21.5625 20 21.5625H26.25C26.4986 21.5625 26.7371 21.4638 26.9129 21.2879C27.0887 21.1121 27.1875 20.8737 27.1875 20.625V18.5875C27.1856 18.0672 27.0775 17.5527 26.8699 17.0755C26.6622 16.5984 26.3594 16.1686 25.98 15.8125C25.207 15.0866 24.1854 14.6841 23.125 14.6875ZM23.125 16.5625C23.7112 16.5625 24.275 16.78 24.69 17.1738C25.0863 17.5488 25.3125 18.0563 25.3125 18.5875V19.6875H20.9375V18.5875C20.9375 18.0563 21.1637 17.5488 21.56 17.1738C21.9845 16.7777 22.5444 16.559 23.125 16.5625Z" fill="#386BB7"/>
<path fill-rule="evenodd" clip-rule="evenodd" d="M16.5625 25.3125V21.875C16.563 21.3683 16.6753 20.868 16.8913 20.4097C17.1074 19.9515 17.4219 19.5465 17.8125 19.2238V18.5875C17.8125 17.2088 18.3813 15.8813 19.41 14.905C20.3963 13.97 21.73 13.4375 23.125 13.4375C24.52 13.4375 25.8538 13.97 26.84 14.905C27.3428 15.3778 27.7438 15.9483 28.0185 16.5815C28.2932 17.2147 28.4358 17.8973 28.4375 18.5875V9.375C28.4375 8.46375 28.075 7.58875 27.4313 6.94375C26.786 6.29974 25.9117 5.93788 25 5.9375H16.4188C15.9075 5.9375 15.4288 5.6875 15.1363 5.26875L14.015 3.66C13.6984 3.20552 13.2766 2.83428 12.7856 2.57789C12.2946 2.32151 11.7489 2.18758 11.195 2.1875H5C4.08832 2.1875 3.21398 2.54966 2.56932 3.19432C1.92466 3.83898 1.5625 4.71332 1.5625 5.625V21.875C1.5625 22.7863 1.925 23.6613 2.56875 24.3063C3.21403 24.9503 4.08834 25.3121 5 25.3125H16.5625Z" fill="#386BB7"/>
</svg>
