<svg width="30" height="30" viewBox="0 0 30 30" fill="none" xmlns="http://www.w3.org/2000/svg">
<path d="M14.9969 4.65469C15.1212 4.65469 15.2404 4.6053 15.3283 4.51739C15.4162 4.42949 15.4656 4.31026 15.4656 4.18594V2.34375C15.4656 2.21943 15.4162 2.1002 15.3283 2.01229C15.2404 1.92439 15.1212 1.875 14.9969 1.875C14.8726 1.875 14.7533 1.92439 14.6654 2.01229C14.5775 2.1002 14.5281 2.21943 14.5281 2.34375V4.18594C14.5281 4.31026 14.5775 4.42949 14.6654 4.51739C14.7533 4.6053 14.8726 4.65469 14.9969 4.65469ZM8.15781 7.21406C8.24759 7.28243 8.35903 7.31612 8.47165 7.30893C8.58427 7.30174 8.69052 7.25417 8.77088 7.17495C8.85124 7.09572 8.90033 6.99016 8.90912 6.87766C8.91792 6.76515 8.88583 6.65325 8.81875 6.5625L7.49687 5.24531C7.40861 5.15767 7.28914 5.10867 7.16475 5.10911C7.04036 5.10955 6.92124 5.15939 6.83359 5.24766C6.74595 5.33592 6.69696 5.45539 6.6974 5.57978C6.69784 5.70417 6.74767 5.82329 6.83594 5.91094L8.15781 7.21406ZM5.79062 12.9187H3.95312C3.8288 12.9187 3.70958 12.9681 3.62167 13.056C3.53376 13.144 3.48438 13.2632 3.48438 13.3875C3.48438 13.5118 3.53376 13.631 3.62167 13.719C3.70958 13.8069 3.8288 13.8562 3.95312 13.8562H5.79062C5.91495 13.8562 6.03417 13.8069 6.12208 13.719C6.20999 13.631 6.25937 13.5118 6.25937 13.3875C6.25937 13.2632 6.20999 13.144 6.12208 13.056C6.03417 12.9681 5.91495 12.9187 5.79062 12.9187ZM8.15781 19.5656L6.85469 20.8687C6.78858 20.9343 6.7435 21.0181 6.72518 21.1094C6.70687 21.2007 6.71615 21.2953 6.75186 21.3813C6.78756 21.4673 6.84806 21.5407 6.92565 21.5922C7.00324 21.6437 7.09439 21.6709 7.1875 21.6703C7.31114 21.6686 7.42908 21.618 7.51562 21.5297L8.81875 20.2312C8.86246 20.1879 8.89718 20.1363 8.92096 20.0795C8.94473 20.0226 8.95707 19.9617 8.95729 19.9001C8.95751 19.8385 8.94559 19.7775 8.92222 19.7205C8.89886 19.6635 8.86449 19.6117 8.82109 19.568C8.7777 19.5243 8.72611 19.4895 8.6693 19.4658C8.61248 19.442 8.55153 19.4296 8.48994 19.4294C8.42835 19.4292 8.36732 19.4411 8.31033 19.4645C8.25334 19.4879 8.20152 19.5222 8.15781 19.5656ZM21.8359 19.5656C21.7477 19.478 21.6282 19.429 21.5038 19.4294C21.3794 19.4299 21.2603 19.4797 21.1727 19.568C21.085 19.6562 21.036 19.7757 21.0365 19.9001C21.0369 20.0245 21.0867 20.1436 21.175 20.2312L22.4969 21.5297C22.5834 21.618 22.7014 21.6686 22.825 21.6703C22.9181 21.6709 23.0093 21.6437 23.0869 21.5922C23.1644 21.5407 23.2249 21.4673 23.2606 21.3813C23.2963 21.2953 23.3056 21.2007 23.2873 21.1094C23.269 21.0181 23.2239 20.9343 23.1578 20.8687L21.8359 19.5656ZM26.0406 12.9187H24.2031C24.0788 12.9187 23.9596 12.9681 23.8717 13.056C23.7838 13.144 23.7344 13.2632 23.7344 13.3875C23.7344 13.5118 23.7838 13.631 23.8717 13.719C23.9596 13.8069 24.0788 13.8562 24.2031 13.8562H26.0406C26.1649 13.8562 26.2842 13.8069 26.3721 13.719C26.46 13.631 26.5094 13.5118 26.5094 13.3875C26.5094 13.2632 26.46 13.144 26.3721 13.056C26.2842 12.9681 26.1649 12.9187 26.0406 12.9187ZM22.4969 5.24531L21.175 6.5625C21.0867 6.65015 21.0369 6.76927 21.0365 6.89365C21.036 7.01804 21.085 7.13751 21.1727 7.22578C21.2603 7.31405 21.3794 7.36388 21.5038 7.36432C21.6282 7.36476 21.7477 7.31577 21.8359 7.22812L23.1391 5.925C23.2191 5.83765 23.2631 5.72321 23.2623 5.60472C23.2614 5.48622 23.2156 5.37247 23.1342 5.28633C23.0529 5.2002 22.9419 5.14809 22.8236 5.14048C22.7054 5.13287 22.5886 5.17032 22.4969 5.24531Z" fill="#17D262"/>
<path d="M14.9987 5.80786C13.3652 5.8068 11.7751 6.33345 10.4653 7.30936C9.15539 8.28526 8.19582 9.65821 7.7295 11.2237C7.26318 12.7891 7.31505 14.4634 7.87739 15.997C8.43973 17.5306 9.48245 18.8415 10.8502 19.7344V21.6657H19.1471V19.7344C20.5149 18.8415 21.5576 17.5306 22.1199 15.997C22.6823 14.4634 22.7341 12.7891 22.2678 11.2237C21.8015 9.65821 20.8419 8.28526 19.5321 7.30936C18.2222 6.33345 16.6321 5.8068 14.9987 5.80786ZM14.9987 7.9688C15.4622 7.9688 15.9153 8.10626 16.3008 8.36379C16.6862 8.62133 16.9866 8.98737 17.164 9.41564C17.3414 9.8439 17.3878 10.3152 17.2974 10.7698C17.2069 11.2244 16.9837 11.6421 16.6559 11.9698C16.3282 12.2976 15.9105 12.5208 15.4559 12.6113C15.0013 12.7017 14.53 12.6553 14.1017 12.4779C13.6735 12.3005 13.3074 12.0001 13.0499 11.6147C12.7924 11.2292 12.6549 10.7761 12.6549 10.3126C12.6549 9.69095 12.9018 9.09481 13.3414 8.65527C13.7809 8.21573 14.3771 7.9688 14.9987 7.9688ZM19.2174 17.3438C19.2174 17.4681 19.168 17.5873 19.0801 17.6753C18.9922 17.7632 18.873 17.8125 18.7487 17.8125H11.2487C11.1243 17.8125 11.0051 17.7632 10.9172 17.6753C10.8293 17.5873 10.7799 17.4681 10.7799 17.3438V16.4063C10.7798 15.6846 11.0177 14.983 11.4566 14.4102C11.8956 13.8373 12.5112 13.4252 13.208 13.2376C13.3274 13.2028 13.4551 13.2111 13.569 13.261C14.0141 13.476 14.502 13.5877 14.9963 13.5877C15.4906 13.5877 15.9786 13.476 16.4237 13.261C16.5295 13.2071 16.6517 13.1954 16.7658 13.2282C17.4686 13.4118 18.0906 13.8235 18.5343 14.3987C18.9779 14.9738 19.2182 15.6799 19.2174 16.4063V17.3438ZM19.1424 22.6032H10.8549C10.7556 22.6302 10.6679 22.6891 10.6054 22.7708C10.543 22.8526 10.5091 22.9526 10.5091 23.0555C10.5091 23.1584 10.543 23.2585 10.6054 23.3402C10.6679 23.422 10.7556 23.4809 10.8549 23.5079H19.1424C19.2417 23.4809 19.3294 23.422 19.3919 23.3402C19.4544 23.2585 19.4882 23.1584 19.4882 23.0555C19.4882 22.9526 19.4544 22.8526 19.3919 22.7708C19.3294 22.6891 19.2417 22.6302 19.1424 22.6032ZM19.1424 24.4454H10.8549C10.7575 24.4738 10.672 24.533 10.6112 24.6141C10.5503 24.6953 10.5174 24.7939 10.5174 24.8954C10.5174 24.9968 10.5503 25.0955 10.6112 25.1766C10.672 25.2578 10.7575 25.317 10.8549 25.3454H19.1424C19.2123 25.3657 19.2859 25.3696 19.3575 25.3566C19.4291 25.3435 19.4967 25.314 19.5549 25.2704C19.6131 25.2267 19.6604 25.1701 19.6929 25.105C19.7255 25.0399 19.7424 24.9681 19.7424 24.8954C19.7424 24.8226 19.7255 24.7508 19.6929 24.6857C19.6604 24.6206 19.6131 24.564 19.5549 24.5204C19.4967 24.4767 19.4291 24.4472 19.3575 24.4342C19.2859 24.4212 19.2123 24.425 19.1424 24.4454ZM13.6158 28.1251H16.4049C16.8917 28.1178 17.3565 27.9216 17.7012 27.5778C18.0459 27.234 18.2433 26.7696 18.2518 26.2829H11.769C11.7774 26.7696 11.9749 27.234 12.3196 27.5778C12.6642 27.9216 13.1291 28.1178 13.6158 28.1251Z" fill="#17D262"/>
<path d="M16.6735 14.1655C16.1451 14.3938 15.5756 14.5116 15.0001 14.5116C14.4245 14.5116 13.855 14.3938 13.3266 14.1655C12.8562 14.3211 12.4472 14.6218 12.1583 15.0243C11.8694 15.4269 11.7155 15.9107 11.7188 16.4062V16.8749H18.2813V16.4062C18.2846 15.9107 18.1307 15.4269 17.8418 15.0243C17.5529 14.6218 17.1439 14.3211 16.6735 14.1655Z" fill="#17D262"/>
</svg>
