<svg width="30" height="30" viewBox="0 0 30 30" fill="none" xmlns="http://www.w3.org/2000/svg">
<g clip-path="url(#clip0_817_3233)">
<path d="M28.125 10.3126H27C26.4844 10.3126 26.0625 10.7344 26.0625 11.2501C26.0625 11.7657 26.4844 12.1876 27 12.1876H28.125C28.6406 12.1876 29.0625 11.7657 29.0625 11.2501C29.0625 10.7344 28.6406 10.3126 28.125 10.3126ZM26.25 7.52819C26.4844 7.52819 26.7281 7.43444 26.9062 7.25631L27.8813 6.29069C28.2469 5.92506 28.2563 5.33444 27.8813 4.96881C27.7951 4.88088 27.6923 4.81102 27.5788 4.76333C27.4653 4.71565 27.3434 4.69108 27.2203 4.69108C27.0972 4.69108 26.9753 4.71565 26.8619 4.76333C26.7484 4.81102 26.6455 4.88088 26.5594 4.96881L25.5844 5.93444C25.4964 6.02059 25.4266 6.12342 25.3789 6.23691C25.3312 6.3504 25.3066 6.47227 25.3066 6.59537C25.3066 6.71848 25.3312 6.84034 25.3789 6.95383C25.4266 7.06732 25.4964 7.17016 25.5844 7.25631C25.7719 7.44381 26.0063 7.53756 26.25 7.53756V7.52819ZM26.9062 15.2438C26.5406 14.8782 25.95 14.8876 25.5844 15.2438C25.2188 15.6094 25.2281 16.2094 25.5844 16.5657L26.5594 17.5313C26.7375 17.7094 26.9813 17.8032 27.2156 17.8032C27.45 17.8032 27.6938 17.7094 27.8813 17.5219C28.2469 17.1563 28.2375 16.5563 27.8813 16.2001L26.9062 15.2344V15.2438ZM3 12.1876C3.51562 12.1876 3.9375 11.7657 3.9375 11.2501C3.9375 10.7344 3.51562 10.3126 3 10.3126H1.875C1.35938 10.3126 0.9375 10.7344 0.9375 11.2501C0.9375 11.7657 1.35938 12.1876 1.875 12.1876H3ZM3.43125 4.95944C3.06563 4.59381 2.475 4.60319 2.10938 4.95944C1.74375 5.32506 1.75313 5.92506 2.10938 6.28131L3.08437 7.24694C3.2625 7.42506 3.50625 7.51881 3.74062 7.51881C3.975 7.51881 4.21875 7.42506 4.40625 7.23756C4.77187 6.87194 4.7625 6.27194 4.40625 5.91569L3.43125 4.95006V4.95944ZM3.09375 15.2438L2.11875 16.2094C2.03082 16.2956 1.96096 16.3984 1.91327 16.5119C1.86559 16.6254 1.84102 16.7473 1.84102 16.8704C1.84102 16.9935 1.86559 17.1153 1.91327 17.2288C1.96096 17.3423 2.03082 17.4452 2.11875 17.5313C2.30625 17.7188 2.54063 17.8126 2.78438 17.8126C3.02813 17.8126 3.2625 17.7188 3.44063 17.5407L4.41563 16.5751C4.78125 16.2094 4.79063 15.6188 4.41563 15.2532C4.32947 15.1653 4.22664 15.0954 4.11315 15.0477C3.99966 15 3.87779 14.9755 3.75469 14.9755C3.63158 14.9755 3.50972 15 3.39623 15.0477C3.28274 15.0954 3.1799 15.1653 3.09375 15.2532V15.2438ZM22.5 23.4376H7.5C6.98438 23.4376 6.5625 23.8594 6.5625 24.3751C6.5625 24.8907 6.98438 25.3126 7.5 25.3126H10.3125V28.1251C10.3125 28.6407 10.7344 29.0626 11.25 29.0626H18.75C19.2656 29.0626 19.6875 28.6407 19.6875 28.1251V25.3126H22.5C23.0156 25.3126 23.4375 24.8907 23.4375 24.3751C23.4375 23.8594 23.0156 23.4376 22.5 23.4376ZM15 16.8751C18.1031 16.8751 20.625 14.3532 20.625 11.2501C20.625 8.14694 18.1031 5.62506 15 5.62506C11.8969 5.62506 9.375 8.14694 9.375 11.2501C9.375 14.3532 11.8969 16.8751 15 16.8751ZM12.225 10.5094C12.3111 10.4219 12.4136 10.3522 12.5267 10.3044C12.6398 10.2565 12.7612 10.2314 12.884 10.2306C13.0068 10.2297 13.1285 10.2531 13.2423 10.2993C13.356 10.3455 13.4595 10.4138 13.5469 10.5001L14.3531 11.2876L16.4531 9.23444C16.5405 9.14814 16.644 9.07992 16.7577 9.03367C16.8715 8.98743 16.9932 8.96408 17.116 8.96495C17.2388 8.96582 17.3602 8.9909 17.4733 9.03875C17.5864 9.0866 17.6889 9.15628 17.775 9.24381C18.1406 9.60944 18.1313 10.2094 17.7656 10.5657L15.0094 13.2657C14.8313 13.4438 14.5875 13.5376 14.3531 13.5376C14.1188 13.5376 13.875 13.4438 13.6969 13.2657L12.2344 11.8313C12.1468 11.7452 12.0772 11.6427 12.0293 11.5296C11.9815 11.4165 11.9564 11.2951 11.9555 11.1723C11.9546 11.0495 11.978 10.9278 12.0242 10.814C12.0705 10.7003 12.1387 10.5968 12.225 10.5094Z" fill="#FF4D69"/>
<path d="M8.43385 20.7844V21.5626H21.5589V20.7844C21.5589 19.8376 21.9057 18.9469 22.5339 18.2719C24.3181 16.3693 25.3104 13.8584 25.3089 11.2501C25.3089 8.31569 24.0526 5.51257 21.8589 3.55319C20.7701 2.58468 19.4892 1.85691 18.0998 1.41749C16.7105 0.978065 15.244 0.836888 13.7964 1.00319C9.2026 1.51881 5.4151 5.21256 4.78698 9.78757C4.35573 12.9094 5.3401 16.0126 7.4776 18.3001C8.09635 18.9563 8.43385 19.8376 8.43385 20.7938V20.7844ZM14.9964 3.75007C19.1307 3.75007 22.4964 7.11569 22.4964 11.2501C22.4964 15.3844 19.1307 18.7501 14.9964 18.7501C10.862 18.7501 7.49635 15.3844 7.49635 11.2501C7.49635 7.11569 10.862 3.75007 14.9964 3.75007Z" fill="#FF4D69"/>
</g>
<defs>
<clipPath id="clip0_817_3233">
<rect width="30" height="30" fill="white"/>
</clipPath>
</defs>
</svg>
