<svg width="40" height="40" viewBox="0 0 40 40" fill="none" xmlns="http://www.w3.org/2000/svg">
<g clip-path="url(#clip0_675_3469)">
<path d="M36.318 0H18.7445C16.7108 0 15.0625 1.64859 15.0625 3.68195V12.3382C15.9915 12.7999 16.9953 13.2992 17.9321 13.7649L19.3655 10.897C20.2335 9.16258 22.3492 8.45789 24.083 9.3243C25.8203 10.1938 26.5244 12.3038 25.6546 14.0415L23.0994 19.1532C23.1678 19.8316 23.1057 20.5169 22.9163 21.1719H24.6033L20.1538 33.407C19.8898 34.1327 20.4001 34.9795 21.2555 34.9795C21.7337 34.9795 22.1836 34.6845 22.3562 34.2077L27.0969 21.1719H27.9181L32.7069 34.2117C32.8811 34.6859 33.3298 34.9795 33.8077 34.9795C34.6069 34.9795 35.1928 34.1813 34.9069 33.4039L30.4148 21.1719H36.3181C38.3514 21.1719 40 19.5233 40 17.4899V3.68203C40 1.64859 38.3514 0 36.318 0ZM33.8071 16.1514H28.5492C27.9022 16.1514 27.3773 15.6266 27.3773 14.9795C27.3773 14.332 27.9022 13.8077 28.5492 13.8077H33.807C34.4547 13.8077 34.9789 14.332 34.9789 14.9795C34.9789 15.6266 34.4548 16.1514 33.8071 16.1514ZM33.8071 11.7578H28.5492C27.9022 11.7578 27.3773 11.2336 27.3773 10.5859C27.3773 9.93898 27.9022 9.41406 28.5492 9.41406H33.807C34.4547 9.41406 34.9789 9.93898 34.9789 10.5859C34.9789 11.2336 34.4548 11.7578 33.8071 11.7578ZM33.8071 7.36484H21.2555C20.6078 7.36484 20.0836 6.83984 20.0836 6.19297C20.0836 5.54609 20.6078 5.02109 21.2555 5.02109H33.807C34.4546 5.02109 34.9789 5.54594 34.9789 6.19297C34.9789 6.84 34.4547 7.36484 33.8071 7.36484Z" fill="white"/>
<path d="M20.6189 20.6692C20.8306 20.0488 20.8291 19.4006 20.6503 18.8092L23.5587 12.9931C23.848 12.4142 23.6136 11.7102 23.0347 11.4209C22.4561 11.1312 21.752 11.3659 21.4624 11.9449L18.982 16.9052C17.4994 16.167 15.2469 15.047 13.4323 14.1446C11.7441 13.3051 10.5392 12.5522 8.48359 12.5522H7.44812C9.04875 12.5522 10.4773 11.8155 11.4123 10.6625C12.1259 9.78516 12.5525 8.66695 12.5525 7.44844C12.5525 4.62891 10.2673 2.34375 7.4475 2.34375C4.62891 2.34375 2.34375 4.62891 2.34375 7.44844C2.34375 8.8025 2.87109 10.033 3.73141 10.9461C4.66156 11.9352 5.98266 12.5522 7.44719 12.5525C5.48367 12.5525 3.56414 13.348 2.1832 14.7327C0.775391 16.1368 0 18.0075 0 20.0003V23.7659C0 25.387 1.05258 26.7663 2.51039 27.2571V33.8073C2.51039 34.4547 3.035 34.9792 3.68227 34.9792H11.2134C11.8606 34.9792 12.3852 34.4547 12.3852 33.8073V20.6406C13.4964 21.1961 14.9561 21.9258 16.1371 22.5166C16.965 22.9304 17.9324 22.9676 18.7952 22.6166C19.6555 22.2627 20.3186 21.558 20.6143 20.683L20.6189 20.6692Z" fill="white"/>
</g>
<defs>
<clipPath id="clip0_675_3469">
<rect width="40" height="40" fill="white"/>
</clipPath>
</defs>
</svg>
