<svg width="40" height="40" viewBox="0 0 40 40" fill="none" xmlns="http://www.w3.org/2000/svg">
<g clip-path="url(#clip0_675_3454)">
<path d="M38.775 0H35.2067C34.5301 0 33.9817 0.548438 33.9817 1.225C33.9817 1.90156 34.5301 2.45 35.2067 2.45H37.5501V4.79336C37.5501 5.46992 38.0985 6.01836 38.7751 6.01836C39.4517 6.01836 40 5.46992 40 4.79336V1.225C40 0.548438 39.4516 0 38.775 0ZM38.775 21.5692C38.0985 21.5692 37.55 22.1177 37.55 22.7942V25.1377H35.2067C34.5301 25.1377 33.9817 25.6861 33.9817 26.3627C33.9817 27.0392 34.5301 27.5877 35.2067 27.5877H38.775C39.4516 27.5877 40 27.0392 40 26.3627V22.7942C40 22.1177 39.4516 21.5692 38.775 21.5692ZM13.6374 6.01836C14.314 6.01836 14.8624 5.46992 14.8624 4.79336V2.45H17.2058C17.8824 2.45 18.4308 1.90156 18.4308 1.225C18.4308 0.548438 17.8824 0 17.2058 0H13.6375C12.961 0 12.4125 0.548438 12.4125 1.225V4.79336C12.4125 5.46992 12.9609 6.01836 13.6374 6.01836ZM19.1443 17.9648L0.597832 36.5112C-0.199277 37.3083 -0.199277 38.6001 0.597832 39.3972C1.39494 40.1943 2.68682 40.1943 3.48393 39.3972L22.0303 20.8508L21.2473 18.7478L19.1443 17.9648ZM36.2189 16.3721L33.508 12.1731C33.4154 12.0292 33.354 11.8675 33.3275 11.6985C33.3011 11.5294 33.3103 11.3567 33.3545 11.1914L34.639 6.40469C34.8099 5.7675 34.2267 5.18438 33.5895 5.35547L28.8035 6.64062C28.6382 6.68482 28.4655 6.694 28.2965 6.66756C28.1275 6.64113 27.9658 6.57966 27.822 6.48711L23.6228 3.77617C23.0671 3.41766 22.3316 3.79727 22.3026 4.45828L22.0841 9.39664C22.0765 9.57055 22.0319 9.74085 21.9533 9.8962C21.8748 10.0515 21.764 10.1884 21.6285 10.2976L17.7246 13.439C17.2071 13.8556 17.3401 14.6771 17.9627 14.9091L21.0495 16.0595C23.4851 16.9666 23.0295 16.5124 23.9356 18.9456L25.0861 22.0325C25.318 22.655 26.1396 22.788 26.5561 22.2705L29.6975 18.3667C29.8067 18.2312 29.9436 18.1204 30.0989 18.0418C30.2542 17.9633 30.4245 17.9187 30.5985 17.9111L35.5368 17.6926C36.1978 17.6633 36.5774 16.9281 36.2188 16.372L36.2189 16.3721Z" fill="white"/>
</g>
<defs>
<clipPath id="clip0_675_3454">
<rect width="40" height="40" fill="white"/>
</clipPath>
</defs>
</svg>
