<svg width="35" height="38" viewBox="0 0 35 38" fill="none" xmlns="http://www.w3.org/2000/svg">
<path d="M19.2776 18.5047H23.4987V12.8313H11.2151V18.5047H12.7096C13.044 15.1649 16.7135 13.2563 19.6393 14.8992C20.3391 15.2918 20.9264 15.8575 21.3448 16.5422C21.4799 16.7617 21.4088 17.0492 21.1901 17.1844C20.969 17.3196 20.6807 17.2485 20.5456 17.0297C19.2924 14.9742 16.4331 14.618 14.719 16.3344C13.2596 17.7914 13.2596 20.1547 14.719 21.6141C16.4331 23.3281 19.2924 22.9719 20.5456 20.9164C20.6107 20.8106 20.7151 20.7349 20.8359 20.7059C20.9567 20.6769 21.0841 20.697 21.1901 20.7617C21.4096 20.8969 21.4799 21.1844 21.3448 21.4039C19.7745 23.9774 16.2002 24.4227 14.0542 22.2766C13.3143 21.5344 12.8206 20.5446 12.7096 19.4422H11.2151V25.1156H23.4995V19.4422H19.2784C18.9174 20.9281 17.0526 21.4664 15.9588 20.3727C14.7167 19.1305 15.6026 16.9977 17.3581 16.9977C18.2792 16.9969 19.0651 17.6297 19.2776 18.5047ZM8.47759 9.62424H14.4573L12.9495 3.79533C12.894 3.58049 12.9979 3.36096 13.1862 3.26408L17.126 0.989864C17.1975 0.948541 17.2788 0.927177 17.3614 0.928002C17.444 0.928826 17.5249 0.951809 17.5956 0.994552L21.3362 3.15393C22.2377 2.20158 23.8057 2.37893 24.4651 3.5219C25.344 5.04299 23.9315 6.85236 22.2549 6.40314C21.1963 6.11955 20.5721 5.01877 20.8729 3.96486L17.3581 1.9344L13.9432 3.90627L15.4229 9.62424H26.2026L28.2956 7.56721C28.4549 7.41018 28.701 7.39221 28.8799 7.5094L32.8127 9.77971C32.8836 9.82109 32.9423 9.88029 32.9832 9.95143C33.024 10.0226 33.0455 10.1031 33.0456 10.1852H33.0479V14.5102C33.2159 14.55 33.4174 14.625 33.5752 14.7203V14.718C35.0924 15.5953 34.7776 17.8696 33.0995 18.3188C32.6213 18.4469 32.0721 18.3938 31.6088 18.1219C30.6612 17.575 30.3463 16.35 30.8917 15.4375H30.8893C31.0208 15.2095 31.1968 15.0103 31.4068 14.8516C31.6169 14.693 31.8567 14.5782 32.112 14.5141V10.4524L28.6995 8.48127L26.7065 10.4414V21.0805L32.6706 22.7344C32.8854 22.7742 33.0495 22.9649 33.0495 23.1953V27.7617C33.0495 27.9524 32.9385 28.1164 32.7768 28.1891L29.0721 30.3281C29.4463 31.5836 28.5049 32.8571 27.1877 32.8571C25.4401 32.8571 24.5588 30.7352 25.7971 29.5C26.5745 28.7227 27.837 28.7336 28.601 29.5219L32.1135 27.4938V23.5492L26.7081 22.05V27.8524C26.7081 28.1094 26.5002 28.3219 26.2385 28.3219H20.2588L21.7667 34.1508C21.8245 34.3656 21.7182 34.5852 21.5276 34.6821L17.5924 36.9563C17.5205 36.9976 17.4388 37.019 17.3559 37.0181C17.2729 37.0173 17.1917 36.9943 17.1206 36.9516L13.3799 34.7922C13.137 35.0499 12.8288 35.2371 12.4881 35.3337C12.1474 35.4304 11.7869 35.4331 11.4448 35.3414C10.3971 35.0602 9.7729 33.9821 10.0542 32.9344C10.3354 31.8867 11.4135 31.2625 12.4612 31.5438C13.5198 31.8274 14.144 32.9281 13.8432 33.9821L17.3596 36.0125L20.7745 34.0391L19.2948 28.3211H8.5104L6.41743 30.3781C6.25806 30.5352 6.01196 30.5555 5.83306 30.436L1.90259 28.1664C1.83124 28.1255 1.77198 28.0665 1.73082 27.9952C1.68966 27.924 1.66806 27.8432 1.66821 27.761H1.66587V23.4383C1.49087 23.3961 1.30259 23.3235 1.14087 23.2281H1.13853C-0.376317 22.3531 -0.0661609 20.0766 1.61431 19.6274C2.09009 19.4992 2.64634 19.5524 3.10493 19.8242C4.63775 20.7078 4.30103 23.0047 2.60259 23.4321V27.4938L6.01509 29.4649L8.00806 27.5047V16.8656L2.044 15.2133C1.82915 15.1711 1.66509 14.9805 1.66509 14.7524V10.1836C1.66509 9.99299 1.77837 9.83127 1.93931 9.75627L5.64243 7.61721C5.26821 6.36408 6.20962 5.0883 7.52915 5.0883C9.27446 5.0883 10.1557 7.21018 8.91978 8.44533C8.14243 9.22268 6.87993 9.21174 6.11587 8.42346L2.60103 10.4524V14.3961L8.0065 15.8953V10.0938C8.00806 9.8344 8.21821 9.62424 8.47759 9.62424Z" fill="white"/>
</svg>
