<svg width="40" height="40" viewBox="0 0 40 40" fill="none" xmlns="http://www.w3.org/2000/svg">
<path d="M6.66602 35.8334H18.3327C18.9957 35.8334 19.6316 35.57 20.1005 35.1012C20.5693 34.6323 20.8327 33.9965 20.8327 33.3334V31.6667C20.8327 31.4457 20.7449 31.2338 20.5886 31.0775C20.4323 30.9212 20.2204 30.8334 19.9993 30.8334V24.1667C19.9993 23.5037 19.736 22.8678 19.2671 22.399C18.7983 21.9301 18.1624 21.6667 17.4993 21.6667H7.49935C6.83631 21.6667 6.20042 21.9301 5.73158 22.399C5.26274 22.8678 4.99935 23.5037 4.99935 24.1667V30.8334C4.77834 30.8334 4.56637 30.9212 4.41009 31.0775C4.25381 31.2338 4.16602 31.4457 4.16602 31.6667V33.3334C4.16602 33.9965 4.42941 34.6323 4.89825 35.1012C5.36709 35.57 6.00297 35.8334 6.66602 35.8334ZM6.66602 24.1667C6.66602 23.9457 6.75381 23.7338 6.91009 23.5775C7.06637 23.4212 7.27834 23.3334 7.49935 23.3334H17.4993C17.7204 23.3334 17.9323 23.4212 18.0886 23.5775C18.2449 23.7338 18.3327 23.9457 18.3327 24.1667V30.8334H6.66602V24.1667ZM35.8327 15.8334V14.1667C35.8327 13.9457 35.7449 13.7338 35.5886 13.5775C35.4323 13.4212 35.2204 13.3334 34.9993 13.3334V6.66675C34.9993 6.00371 34.736 5.36782 34.2671 4.89898C33.7983 4.43014 33.1624 4.16675 32.4993 4.16675H22.4993C21.8363 4.16675 21.2004 4.43014 20.7316 4.89898C20.2627 5.36782 19.9993 6.00371 19.9993 6.66675V13.3334C19.7783 13.3334 19.5664 13.4212 19.4101 13.5775C19.2538 13.7338 19.166 13.9457 19.166 14.1667V15.8334C19.166 16.4965 19.4294 17.1323 19.8982 17.6012C20.3671 18.07 21.003 18.3334 21.666 18.3334H33.3327C33.9957 18.3334 34.6316 18.07 35.1004 17.6012C35.5693 17.1323 35.8327 16.4965 35.8327 15.8334ZM33.3327 13.3334H21.666V6.66675C21.666 6.44573 21.7538 6.23377 21.9101 6.07749C22.0664 5.92121 22.2783 5.83341 22.4993 5.83341H32.4993C32.7204 5.83341 32.9323 5.92121 33.0886 6.07749C33.2449 6.23377 33.3327 6.44573 33.3327 6.66675V13.3334ZM31.666 23.3334C33.066 23.3334 33.5744 23.4417 33.9243 23.0917C34.0315 22.9849 34.1075 22.8508 34.1442 22.704C34.1809 22.5572 34.1769 22.4031 34.1327 22.2584C34.1327 22.0251 33.9743 21.9251 31.4243 19.3751C31.3469 19.297 31.2547 19.235 31.1532 19.1927C31.0516 19.1504 30.9427 19.1286 30.8327 19.1286C30.7227 19.1286 30.6138 19.1504 30.5122 19.1927C30.4107 19.235 30.3185 19.297 30.241 19.3751C27.8077 21.8084 27.2744 22.0584 27.566 22.7917C27.8577 23.5251 28.3327 23.3334 29.9993 23.3334C29.9993 25.3225 29.2092 27.2302 27.8027 28.6367C26.3961 30.0432 24.4885 30.8334 22.4993 30.8334C22.2783 30.8334 22.0664 30.9212 21.9101 31.0775C21.7538 31.2338 21.666 31.4457 21.666 31.6667C21.666 31.8878 21.7538 32.0997 21.9101 32.256C22.0664 32.4123 22.2783 32.5001 22.4993 32.5001C24.9305 32.5001 27.2621 31.5343 28.9812 29.8152C30.7002 28.0961 31.666 25.7646 31.666 23.3334ZM17.4993 9.16675C17.7204 9.16675 17.9323 9.07895 18.0886 8.92267C18.2449 8.76639 18.3327 8.55443 18.3327 8.33342C18.3327 8.1124 18.2449 7.90044 18.0886 7.74416C17.9323 7.58788 17.7204 7.50008 17.4993 7.50008C15.0682 7.50008 12.7366 8.46585 11.0175 10.1849C9.29845 11.904 8.33268 14.2356 8.33268 16.6667C6.54935 16.6667 6.56602 16.6667 6.34102 16.7334C6.19039 16.7972 6.06187 16.9039 5.97148 17.0403C5.88109 17.1766 5.83282 17.3365 5.83268 17.5001C5.83268 17.9834 5.99935 18.0167 8.57435 20.5917C8.65182 20.6699 8.74399 20.7319 8.84554 20.7742C8.94708 20.8165 9.05601 20.8382 9.16602 20.8382C9.27603 20.8382 9.38495 20.8165 9.4865 20.7742C9.58805 20.7319 9.68021 20.6699 9.75768 20.5917C12.191 18.1584 12.7243 17.9084 12.4327 17.1751C12.141 16.4417 11.666 16.6667 9.99935 16.6667C9.99935 14.6776 10.7895 12.77 12.196 11.3634C13.6026 9.95692 15.5102 9.16675 17.4993 9.16675Z" fill="white"/>
</svg>
