<svg width="43" height="43" viewBox="0 0 43 43" fill="none" xmlns="http://www.w3.org/2000/svg">
<path d="M29.7051 23.4215H30.7146V29.3323C30.7146 29.6112 30.4886 29.8346 30.2098 29.8346H24.687V28.8276H29.7051V23.4215ZM14.4552 18.6176H13.4482V12.606C13.4482 12.3272 13.6741 12.1013 13.953 12.1013H19.2927V13.1082H14.4552V18.6176ZM3.92773 28.7235V29.7808C3.92773 29.9454 3.99408 30.0924 4.10158 30.2024C4.21362 30.3138 4.3652 30.3763 4.52318 30.3763H4.6752C5.03465 30.3763 5.36807 30.493 5.63934 30.6979C5.91061 30.9003 6.11553 31.1884 6.21547 31.5361C6.29801 31.8241 6.39728 32.107 6.51277 32.3835C6.62951 32.6623 6.75801 32.9336 6.9033 33.1956C7.07715 33.5097 7.13678 33.8574 7.08891 34.1908C7.04104 34.5285 6.8865 34.8476 6.63455 35.1029L6.52537 35.2104C6.40863 35.3271 6.35152 35.4792 6.35152 35.6345C6.35152 35.7865 6.40863 35.9394 6.52537 36.0561L7.27031 36.8011C7.38705 36.9178 7.53906 36.9749 7.69443 36.9749C7.84645 36.9749 7.9993 36.9178 8.11603 36.8011V36.8036L8.19918 36.7204C8.20674 36.7112 8.21598 36.7011 8.2227 36.6944C8.47717 36.4399 8.79631 36.2846 9.13477 36.2375C9.46818 36.1897 9.81588 36.2493 10.13 36.4231C10.3945 36.5684 10.6658 36.6994 10.9421 36.8137C11.2209 36.9279 11.5014 37.0278 11.792 37.111C12.1372 37.2134 12.4253 37.4158 12.6277 37.6871C12.8326 37.9584 12.9493 38.2918 12.9493 38.6512V38.8007C12.9493 38.9653 13.0157 39.1148 13.1257 39.2223C13.2332 39.3298 13.3827 39.3987 13.5448 39.3987H14.6021C14.7668 39.3987 14.9137 39.3298 15.0238 39.2223C15.079 39.167 15.1229 39.1012 15.1527 39.0289C15.1825 38.9565 15.1978 38.879 15.1976 38.8007V38.6487C15.1976 38.2893 15.3143 37.9559 15.5193 37.6846C15.7217 37.4133 16.0097 37.2109 16.3574 37.1085C16.6454 37.0259 16.9284 36.9266 17.2048 36.8111C17.4837 36.6969 17.7549 36.5659 18.017 36.4206C18.3311 36.2468 18.6788 36.1871 19.0147 36.235C19.3506 36.2829 19.6698 36.4374 19.9242 36.6919L20.0049 36.775C20.0141 36.7818 20.0242 36.7918 20.0334 36.7985C20.1476 36.9153 20.2996 36.9724 20.455 36.9724V36.9749C20.6054 36.9749 20.7599 36.9153 20.8766 36.7985L21.6216 36.0536C21.677 35.9983 21.7208 35.9326 21.7507 35.8602C21.7805 35.7878 21.7957 35.7103 21.7954 35.632C21.7954 35.4775 21.7383 35.3246 21.6216 35.2079H21.6241L21.5409 35.1273C21.5317 35.118 21.5216 35.1105 21.5149 35.1012C21.2604 34.8468 21.1051 34.5276 21.058 34.1892C21.0102 33.8557 21.0698 33.508 21.2436 33.1939C21.3889 32.9319 21.5199 32.6606 21.6342 32.3818C21.7494 32.105 21.8494 31.8221 21.934 31.5344C22.0339 31.1867 22.2363 30.8986 22.5076 30.6962C22.7789 30.4913 23.1123 30.3746 23.4717 30.3746H23.6238C23.7884 30.3746 23.9379 30.3082 24.0454 30.2007C24.1545 30.0916 24.2242 29.9412 24.2242 29.7791H24.2217V28.7218C24.2217 28.5572 24.1554 28.4102 24.0454 28.3002C23.99 28.2449 23.9242 28.2011 23.8519 28.1712C23.7795 28.1414 23.702 28.1261 23.6238 28.1263H23.4717C23.1123 28.1263 22.7789 28.0096 22.5076 27.8047C22.2363 27.6023 22.0339 27.3142 21.934 26.9665C21.8494 26.6788 21.7494 26.3959 21.6342 26.1191C21.52 25.841 21.3896 25.5698 21.2436 25.307C21.0698 24.9929 21.0102 24.6452 21.058 24.3118C21.1059 23.9733 21.2604 23.655 21.5149 23.3997L21.6224 23.2922C21.7391 23.1754 21.7962 23.0234 21.7962 22.8681C21.7962 22.716 21.7391 22.5632 21.6224 22.4465L20.8775 21.7015C20.8222 21.6461 20.7564 21.6022 20.6841 21.5724C20.6117 21.5426 20.5341 21.5273 20.4559 21.5277C20.3013 21.5277 20.1485 21.5848 20.0343 21.7015L20.0317 21.699L19.9511 21.7821C19.9419 21.7914 19.9343 21.8015 19.9251 21.8082C19.6706 22.0626 19.3515 22.218 19.0155 22.265C18.6796 22.3129 18.3319 22.2533 18.0178 22.0794C17.755 21.9335 17.4838 21.8031 17.2057 21.6889C16.9292 21.5734 16.6463 21.4742 16.3583 21.3916C16.0106 21.2917 15.7225 21.0868 15.5201 20.8155C15.3152 20.5442 15.1984 20.2108 15.1984 19.8513V19.6993C15.1984 19.5347 15.1321 19.3852 15.0246 19.2777C14.9154 19.1702 14.7676 19.1014 14.603 19.1014H13.5465C13.3844 19.1014 13.2349 19.1677 13.1274 19.2777C13.0714 19.3327 13.027 19.3984 12.9967 19.4708C12.9664 19.5431 12.9509 19.6209 12.951 19.6993V19.8513C12.951 20.2108 12.8343 20.5442 12.6294 20.8155C12.427 21.0868 12.1389 21.2917 11.7937 21.3916C11.5082 21.4722 11.2251 21.5722 10.9438 21.6889C10.665 21.8031 10.3962 21.9342 10.1317 22.0794C9.81756 22.2533 9.46986 22.3129 9.13645 22.265C8.79799 22.2172 8.47969 22.0626 8.22437 21.8082H8.22689L8.14375 21.725C8.13451 21.7175 8.12443 21.7108 8.11771 21.7015C8.06241 21.6461 7.99668 21.6022 7.92431 21.5724C7.85195 21.5426 7.77439 21.5273 7.69611 21.5277C7.54158 21.5277 7.38873 21.5848 7.27199 21.7015L6.52705 22.4465C6.47165 22.5018 6.42777 22.5675 6.39793 22.6399C6.36809 22.7122 6.35289 22.7898 6.3532 22.8681C6.3532 23.0226 6.41031 23.1754 6.52705 23.2922H6.52453L6.60768 23.3728C6.61691 23.382 6.62699 23.3896 6.63623 23.3988C6.88818 23.6533 7.04355 23.9725 7.09059 24.3109C7.13846 24.6443 7.07883 24.992 6.90498 25.3061C6.76221 25.5656 6.63623 25.8277 6.52369 26.0939C6.52117 26.1006 6.51865 26.1107 6.51445 26.1174C6.39896 26.3939 6.29969 26.6768 6.21715 26.9648C6.11721 27.3125 5.91229 27.6006 5.64102 27.803C5.36975 28.0079 5.03633 28.1246 4.67688 28.1246H4.52486C4.36025 28.1246 4.21328 28.191 4.10326 28.2985C3.99408 28.411 3.92773 28.5588 3.92773 28.7235ZM11.315 28.0826C11.2377 28.008 11.1344 27.9661 11.0269 27.9659C10.9102 27.9659 10.8052 28.0138 10.7296 28.0894C10.6532 28.1658 10.6062 28.2699 10.6062 28.3867C10.6062 28.5034 10.654 28.6084 10.7296 28.684C10.8061 28.7604 10.9102 28.8074 11.0269 28.8074C11.1412 28.8074 11.2487 28.7596 11.3242 28.684C11.3981 28.6076 11.446 28.5034 11.446 28.3867C11.446 28.2699 11.3981 28.165 11.3242 28.0894L11.3192 28.0868L11.3167 28.0818H11.315V28.0826ZM14.4123 30.7542C14.3359 30.6778 14.2318 30.6307 14.115 30.6307C13.9983 30.6307 13.8933 30.6786 13.8177 30.7542C13.7413 30.8306 13.6943 30.9348 13.6943 31.049C13.6943 31.1657 13.7421 31.2707 13.8177 31.3463C13.8942 31.4227 13.9983 31.4697 14.115 31.4697C14.2318 31.4697 14.3368 31.4219 14.4123 31.3463C14.4888 31.2699 14.5341 31.1657 14.5341 31.049C14.5339 30.9385 14.4901 30.8326 14.4123 30.7542ZM15.8476 26.1376C15.7712 26.0611 15.6671 26.0141 15.5503 26.0141C15.4336 26.0141 15.3286 26.062 15.253 26.1376C15.1766 26.2115 15.1296 26.3181 15.1296 26.4324C15.1296 26.5491 15.1774 26.6541 15.253 26.7297C15.3295 26.8061 15.4336 26.8531 15.5503 26.8531C15.6671 26.8531 15.7721 26.8052 15.8476 26.7297C15.9241 26.6532 15.9694 26.5491 15.9694 26.4324C15.9694 26.319 15.9241 26.2115 15.8476 26.1376ZM16.0551 24.1094V25.097C16.2457 25.1684 16.4171 25.2826 16.5598 25.4229C16.8193 25.6824 16.9789 26.0393 16.9789 26.4324C16.9789 26.8279 16.8193 27.1849 16.5598 27.4444C16.3003 27.7014 15.9434 27.8609 15.5503 27.8609C15.1548 27.8609 14.7978 27.7014 14.5408 27.4444C14.4077 27.3117 14.3021 27.1539 14.2302 26.9802C14.1582 26.8066 14.1214 26.6203 14.1218 26.4324C14.1218 26.0393 14.2813 25.6824 14.5408 25.4229C14.6811 25.2826 14.8549 25.1684 15.0456 25.097V23.828C14.729 23.7709 14.4056 23.7423 14.0722 23.7423C13.7438 23.7423 13.4196 23.7709 13.1055 23.8255V26.7969C13.1055 26.9371 13.0484 27.0656 12.9535 27.1563L12.3228 27.787C12.4085 27.9701 12.4563 28.1725 12.4563 28.3867C12.4563 28.7822 12.2943 29.1392 12.0373 29.3962C11.7778 29.6557 11.4208 29.8152 11.0278 29.8152C10.6322 29.8152 10.2753 29.6557 10.0183 29.3962C9.75877 29.1392 9.5992 28.7822 9.5992 28.3867C9.5992 27.9911 9.75877 27.6342 10.0183 27.3772C10.2753 27.1177 10.6322 26.9581 11.0278 26.9581C11.2327 26.9581 11.4275 27.0009 11.6064 27.0799L12.0994 26.5869V24.106C11.3786 24.3825 10.7239 24.8074 10.1779 25.3532C9.18012 26.3509 8.56367 27.7291 8.56367 29.25C8.56367 30.771 9.18012 32.15 10.1779 33.1469C10.4852 33.4543 10.8304 33.7256 11.2041 33.954V32.1038C11.2041 31.8821 11.3444 31.694 11.5426 31.6276L12.6923 31.1607C12.6898 31.1246 12.6873 31.0868 12.6873 31.0465C12.6873 30.6534 12.8469 30.2965 13.1064 30.037C13.2389 29.9045 13.3963 29.7995 13.5696 29.728C13.7428 29.6565 13.9285 29.6199 14.1159 29.6204C14.5089 29.6204 14.8659 29.78 15.1254 30.037C15.3824 30.2965 15.5445 30.6534 15.5445 31.0465C15.5445 31.442 15.3824 31.799 15.1254 32.0585C14.8659 32.3155 14.5089 32.475 14.1159 32.475C13.7304 32.475 13.3777 32.323 13.1207 32.0727L12.2111 32.4414V34.4361C12.7923 34.6452 13.4205 34.7577 14.073 34.7577C15.594 34.7577 16.973 34.1413 17.9699 33.1461C18.9677 32.1483 19.5841 30.7701 19.5841 29.2492C19.5841 27.7282 18.9677 26.3492 17.9699 25.3523C17.4282 24.8165 16.7782 24.3882 16.0551 24.1094ZM15.662 22.9285C15.6687 22.931 15.6763 22.9336 15.6813 22.9336C16.8361 23.2267 17.8641 23.8288 18.6813 24.6427C19.8596 25.8235 20.5902 27.4519 20.5902 29.2517C20.5902 31.0515 19.8596 32.68 18.6813 33.8608C17.503 35.0391 15.872 35.7697 14.0722 35.7697C13.1652 35.7697 12.301 35.5841 11.5174 35.2482C11.5098 35.2457 11.5031 35.2432 11.4981 35.2406C10.7382 34.9134 10.0474 34.4448 9.46231 33.8599C8.284 32.6791 7.55334 31.0507 7.55334 29.2509C7.55334 27.4511 8.284 25.8226 9.46231 24.6418C10.6431 23.4635 12.2716 22.7328 14.0714 22.7328C14.6215 22.7337 15.1522 22.8026 15.662 22.9285ZM19.8277 12.2298V13.2846C19.8277 13.4492 19.8965 13.5987 20.004 13.7062C20.1115 13.8154 20.261 13.8826 20.4256 13.8826H20.5776C20.9371 13.8826 21.2705 13.9993 21.5418 14.2017C21.813 14.4066 22.018 14.6947 22.1179 15.0399C22.1985 15.3254 22.2985 15.6084 22.4152 15.8873C22.532 16.1661 22.6604 16.4374 22.8057 16.6994C22.9796 17.016 23.0392 17.3637 22.9913 17.6971C22.9435 18.0348 22.7889 18.3539 22.537 18.6067L22.4278 18.7159C22.3724 18.7712 22.3285 18.8369 22.2987 18.9093C22.2689 18.9816 22.2536 19.0592 22.254 19.1375C22.254 19.2895 22.3111 19.4449 22.4278 19.5591L23.1728 20.3065C23.2858 20.4179 23.4382 20.4804 23.5969 20.4804C23.7489 20.4804 23.9017 20.4208 24.0185 20.3065L24.126 20.1974C24.3805 19.9429 24.6996 19.79 25.038 19.743C25.3715 19.6951 25.7192 19.7548 26.0333 19.9286C26.2978 20.0714 26.5666 20.2024 26.8454 20.3191C27.1259 20.4334 27.4098 20.5333 27.6928 20.6164C28.0405 20.7164 28.3286 20.9213 28.531 21.1901C28.7359 21.4638 28.8526 21.7973 28.8526 22.1542V22.3087C28.8526 22.4733 28.919 22.6203 29.029 22.7303C29.1401 22.8415 29.2909 22.904 29.4481 22.9042H30.5054C30.67 22.9042 30.817 22.8378 30.927 22.7303C31.0384 22.6183 31.1009 22.4667 31.1009 22.3087V22.1542C31.1009 21.7973 31.2176 21.4638 31.4225 21.1901C31.6249 20.9213 31.913 20.7164 32.2607 20.6164C32.5437 20.5333 32.8276 20.4334 33.1081 20.3191C33.3869 20.2024 33.6582 20.0714 33.9202 19.9286C34.2343 19.7548 34.582 19.6951 34.918 19.743C35.2539 19.7909 35.573 19.9429 35.8275 20.1974L35.825 20.1999L35.9081 20.2805C35.9174 20.2897 35.9275 20.2973 35.9367 20.3065C35.9921 20.3618 36.0578 20.4057 36.1302 20.4355C36.2025 20.4653 36.28 20.4806 36.3583 20.4804C36.5103 20.4804 36.6632 20.4208 36.7799 20.3065L37.5248 19.5591C37.6416 19.4449 37.6987 19.2903 37.6987 19.1375C37.6987 18.9855 37.6416 18.8326 37.5248 18.7159H37.5274L37.4442 18.6327C37.435 18.6252 37.4249 18.6159 37.4182 18.6067C37.1637 18.3547 37.0083 18.0356 36.9613 17.6971C36.9134 17.3637 36.9731 17.016 37.1469 16.6994C37.2922 16.4374 37.4232 16.1661 37.5374 15.8873C37.6542 15.6084 37.7541 15.3254 37.8347 15.0399C37.9372 14.6947 38.1396 14.4066 38.4109 14.2017C38.6821 13.9993 39.0156 13.8826 39.375 13.8826H39.527V13.8851C39.6916 13.8851 39.8386 13.8162 39.9486 13.7062C40.0578 13.5987 40.125 13.4492 40.125 13.2846V12.2298C40.125 12.0651 40.0587 11.9157 39.9486 11.8082C39.8934 11.7525 39.8277 11.7083 39.7554 11.678C39.683 11.6478 39.6054 11.6321 39.527 11.6318H39.375C39.0156 11.6318 38.6821 11.5176 38.4109 11.3126C38.1396 11.1102 37.9372 10.8197 37.8347 10.4745C37.7522 10.1865 37.6529 9.90353 37.5374 9.62708C37.4233 9.34896 37.2929 9.07778 37.1469 8.81495C36.9731 8.50085 36.9134 8.15064 36.9613 7.81722C37.0092 7.48128 37.1637 7.16214 37.4182 6.90767L37.5257 6.79849C37.6424 6.68427 37.6995 6.52974 37.6995 6.37689C37.6995 6.22487 37.6424 6.07202 37.5257 5.95528L36.7807 5.20782C36.7254 5.15243 36.6597 5.10854 36.5873 5.0787C36.515 5.04886 36.4374 5.03366 36.3591 5.03397C36.2046 5.03397 36.0518 5.0936 35.9375 5.20782L35.8284 5.317C35.5739 5.57148 35.2547 5.72685 34.9188 5.77388C34.5829 5.82175 34.2352 5.76212 33.9211 5.58827C33.6582 5.44231 33.3871 5.31191 33.1089 5.19774C32.8321 5.08255 32.5492 4.98246 32.2615 4.89792C31.9138 4.79798 31.6258 4.59306 31.4234 4.32431C31.214 4.04657 31.101 3.70801 31.1017 3.36017V3.20563C31.1017 3.04354 31.0354 2.89405 30.9279 2.78655C30.8187 2.67737 30.6709 2.61019 30.5063 2.61019H29.4455V2.60767C29.2835 2.60767 29.134 2.67653 29.0265 2.78655C28.9707 2.84122 28.9264 2.90642 28.8962 2.97837C28.8659 3.05032 28.8502 3.12757 28.8501 3.20563V3.36017C28.8501 3.7171 28.7334 4.05304 28.5284 4.32431C28.326 4.59306 28.038 4.79798 27.6903 4.89792C27.4026 4.98246 27.1197 5.08255 26.8429 5.19774C26.564 5.31196 26.2953 5.44298 26.0307 5.58827C25.7166 5.7596 25.3689 5.82175 25.0355 5.77388C24.6971 5.72601 24.3788 5.57148 24.1235 5.317L24.016 5.20782C23.9036 5.09692 23.7522 5.0345 23.5944 5.03397C23.4398 5.03397 23.287 5.0936 23.1702 5.20782L22.4253 5.95528C22.3699 6.01059 22.326 6.07632 22.2962 6.14868C22.2663 6.22105 22.2511 6.29861 22.2514 6.37689H22.2489C22.2489 6.5289 22.3086 6.68175 22.4253 6.79849L22.4228 6.80101L22.5059 6.88163C22.5152 6.88919 22.5252 6.89843 22.532 6.90767C22.7864 7.16214 22.9418 7.48128 22.9888 7.81722C23.0367 8.15064 22.9771 8.50085 22.8032 8.81495C22.6579 9.07698 22.5294 9.34825 22.4127 9.62708C22.2972 9.90353 22.1979 10.1865 22.1154 10.4745C22.0154 10.8197 21.8105 11.1102 21.5393 11.3126C21.268 11.5176 20.9346 11.6318 20.5751 11.6318H20.4231C20.2585 11.6318 20.109 11.7007 20.0015 11.8082C19.8974 11.9157 19.8277 12.066 19.8277 12.2298ZM27.225 11.5965L27.2183 11.5898C27.141 11.5151 27.0377 11.4733 26.9302 11.4731C26.8135 11.4731 26.7085 11.5209 26.6329 11.5965C26.5565 11.6729 26.5095 11.7771 26.5095 11.8938C26.5095 12.008 26.5573 12.1155 26.6329 12.1894C26.7093 12.2659 26.8135 12.3129 26.9302 12.3129C27.0444 12.3129 27.1519 12.265 27.225 12.1894C27.3014 12.1155 27.3485 12.0089 27.3485 11.8938C27.3485 11.7779 27.3006 11.6729 27.225 11.5965ZM30.3148 14.258C30.2357 14.1796 30.1288 14.1358 30.0175 14.1362C29.9007 14.1362 29.7958 14.1816 29.7202 14.258C29.6437 14.3344 29.5967 14.4385 29.5967 14.5553C29.5967 14.672 29.6446 14.777 29.7202 14.8526C29.7966 14.929 29.9007 14.976 30.0175 14.976C30.1317 14.976 30.2392 14.9282 30.3148 14.8526C30.3926 14.7731 30.4363 14.6665 30.4366 14.5553C30.4361 14.4441 30.3924 14.3375 30.3148 14.258ZM31.7501 9.6422C31.6737 9.56577 31.5695 9.51874 31.4528 9.51874C31.336 9.51874 31.2311 9.56661 31.1555 9.6422C31.1163 9.68118 31.0852 9.72751 31.064 9.77853C31.0428 9.82955 31.0319 9.88425 31.0319 9.9395C31.0319 9.99475 31.0428 10.0495 31.064 10.1005C31.0852 10.1515 31.1163 10.1978 31.1555 10.2368C31.1944 10.276 31.2408 10.307 31.2918 10.3282C31.3428 10.3494 31.3975 10.3604 31.4528 10.3604C31.508 10.3604 31.5627 10.3494 31.6138 10.3282C31.6648 10.307 31.7111 10.276 31.7501 10.2368C31.8265 10.1604 31.8719 10.0562 31.8719 9.9395C31.8719 9.82276 31.8265 9.71862 31.7501 9.6422ZM31.955 7.61398V8.60415C32.1482 8.67554 32.3195 8.78724 32.4623 8.93001C32.7218 9.187 32.8813 9.54394 32.8813 9.9395C32.8813 10.3351 32.7218 10.692 32.4623 10.949C32.2028 11.2085 31.8458 11.3681 31.4528 11.3681C31.0572 11.3681 30.7003 11.2085 30.4433 10.949C30.1838 10.692 30.0242 10.3351 30.0242 9.9395C30.0242 9.54394 30.1838 9.187 30.4433 8.93001C30.5835 8.78724 30.7574 8.67554 30.948 8.60415V7.33263C30.6314 7.27804 30.3072 7.24696 29.9746 7.24696C29.6463 7.24696 29.3221 7.27552 29.008 7.33263V10.3015C29.008 10.4442 28.9509 10.5727 28.856 10.6634L28.2253 11.2942C28.3109 11.4747 28.3588 11.6797 28.3588 11.8938C28.3588 12.2869 28.1967 12.6438 27.9397 12.9033C27.6802 13.1603 27.3233 13.3199 26.9302 13.3199C26.5346 13.3199 26.1777 13.1603 25.9182 12.9033C25.6612 12.6438 25.5016 12.2869 25.5016 11.8938C25.5016 11.4983 25.6612 11.1413 25.9182 10.8818C26.1777 10.6248 26.5346 10.4652 26.9302 10.4652C27.1351 10.4652 27.33 10.5081 27.5089 10.587L28.0019 10.094V7.61146C27.2737 7.89028 26.6212 8.32112 26.0803 8.86114C25.0826 9.85888 24.4661 11.2345 24.4661 12.758C24.4661 14.279 25.0826 15.6555 26.0803 16.6524C26.3877 16.9623 26.7329 17.2335 27.1066 17.462V15.6126C27.1066 15.3909 27.2468 15.2028 27.445 15.1339L28.5948 14.6695C28.5897 14.6317 28.5897 14.5931 28.5897 14.5553C28.5897 14.1597 28.7493 13.8028 29.0088 13.5458C29.2658 13.2863 29.6228 13.1267 30.0183 13.1267C30.4114 13.1267 30.7683 13.2863 31.0278 13.5458C31.2848 13.8028 31.4469 14.1597 31.4469 14.5553C31.4469 14.9509 31.2848 15.3078 31.0278 15.5648C30.7683 15.8243 30.4114 15.9839 30.0183 15.9839C29.6328 15.9839 29.2801 15.8318 29.0231 15.5816L28.1136 15.9503V17.9449C28.6947 18.1523 29.3229 18.2666 29.9755 18.2666C31.4964 18.2666 32.8755 17.6501 33.8724 16.6524C34.8676 15.6546 35.4865 14.279 35.4865 12.758C35.4865 11.2345 34.8676 9.85804 33.8724 8.86114C33.3271 8.31636 32.674 7.89156 31.955 7.61398ZM31.5645 6.43567C31.572 6.43819 31.5762 6.43819 31.5838 6.44071C32.7361 6.73382 33.7665 7.33347 34.5837 8.1498C35.762 9.3281 36.4927 10.9591 36.4927 12.7589C36.4927 14.5586 35.762 16.1871 34.5837 17.3654C33.4054 18.5462 31.7744 19.2744 29.9746 19.2744C29.0676 19.2744 28.2034 19.0888 27.4182 18.7553C27.4131 18.7528 27.4064 18.7503 27.4014 18.7461C26.6346 18.4177 25.9468 17.9466 25.3656 17.3654C24.1873 16.1871 23.4566 14.5586 23.4566 12.7589C23.4566 10.9591 24.1873 9.3281 25.3656 8.1498C26.5464 6.96898 28.1749 6.24083 29.9746 6.24083C30.5247 6.23999 31.0572 6.30718 31.5645 6.43567Z" fill="white"/>
</svg>
