<svg width="40" height="38" viewBox="0 0 40 38" fill="none" xmlns="http://www.w3.org/2000/svg">
<path d="M33.8977 18.7531H38.8281C39.475 18.7531 40 18.2289 40 17.5812C40 16.9343 39.475 16.4093 38.8281 16.4093H34.3633C34.925 12.8687 34.6641 10.4742 34.6492 10.3453C34.6233 10.1187 34.5318 9.90465 34.3859 9.72937C34.2401 9.55409 34.0462 9.42521 33.8281 9.35854C32.0477 8.81323 30.4961 8.26011 29.1461 7.71792V4.82104H33.1703C33.6539 6.18511 34.957 7.16479 36.4844 7.16479C38.4227 7.16479 40 5.58745 40 3.64917C40 1.71011 38.4227 0.133545 36.4844 0.133545C34.957 0.133545 33.6539 1.11323 33.1703 2.47729H27.9742C27.3266 2.47729 26.8023 3.00151 26.8023 3.64917V6.69839C22.4586 4.64761 21.0187 2.96558 20.932 2.86089C20.4638 2.21675 19.5366 2.2162 19.068 2.86089C18.9813 2.96558 17.5414 4.64761 13.1977 6.69839V3.64917C13.1977 3.00151 12.6734 2.47729 12.0258 2.47729H6.82969C6.34609 1.11323 5.04297 0.133545 3.51562 0.133545C1.57734 0.133545 0 1.71011 0 3.64917C0 5.58745 1.57734 7.16479 3.51562 7.16479C5.04297 7.16479 6.34609 6.18511 6.82969 4.82104H10.8539V7.71792C9.50391 8.26011 7.95234 8.81323 6.17188 9.35854C5.72656 9.49448 5.40391 9.88198 5.35078 10.3453C5.33594 10.4742 5.075 12.8687 5.63672 16.4093H1.17188C0.525 16.4093 0 16.9343 0 17.5812C0 18.2289 0.525 18.7531 1.17188 18.7531H6.10234C6.35836 19.8192 6.65758 20.844 7.05625 21.9601H3.83672C3.18984 21.9601 2.66484 22.4843 2.66484 23.132C2.66484 23.7789 3.18984 24.3039 3.83672 24.3039H8.00156C9.01852 26.5525 10.2561 28.5849 11.7211 30.4812H6.82969C6.34609 29.1171 5.04297 28.1374 3.51562 28.1374C1.57734 28.1374 0 29.7148 0 31.6531C0 33.5914 1.57734 35.1687 3.51562 35.1687C5.04297 35.1687 6.34609 34.189 6.82969 32.825H13.7195C15.3703 34.5851 17.2445 36.2015 19.3297 37.6554C19.7329 37.9367 20.2672 37.9367 20.6703 37.6554C22.7555 36.2015 24.6297 34.5851 26.2805 32.825H33.1703C33.6539 34.189 34.957 35.1687 36.4844 35.1687C38.4227 35.1687 40 33.5914 40 31.6531C40 29.7148 38.4227 28.1374 36.4844 28.1374C34.957 28.1374 33.6539 29.1171 33.1703 30.4812H28.2789C29.7404 28.5894 30.9791 26.5576 31.9984 24.3039H36.1633C36.8102 24.3039 37.3352 23.7789 37.3352 23.132C37.3352 22.4843 36.8102 21.9601 36.1633 21.9601H32.9437C33.342 20.8453 33.6413 19.8206 33.8977 18.7531ZM26.4484 24.7562C26.4484 25.9343 25.4906 26.8921 24.3125 26.8921H15.6875C14.5094 26.8921 13.5516 25.9343 13.5516 24.7562V18.0453C13.5516 17.114 14.15 16.321 14.9828 16.0289V15.2664C14.9828 12.5 17.2336 10.2492 20 10.2492C22.7664 10.2492 25.0172 12.5 25.0172 15.2664V16.0289C25.85 16.321 26.4484 17.114 26.4484 18.0453V24.7562Z" fill="white"/>
<path d="M15.8945 18.2532V24.5485H24.1039V18.2532H15.8945ZM21.1711 21.8141C21.1711 22.4618 20.6461 22.986 19.9992 22.986C19.3523 22.986 18.8273 22.4618 18.8273 21.8141V20.9875C18.8273 20.3399 19.3523 19.8157 19.9992 19.8157C20.6461 19.8157 21.1711 20.3399 21.1711 20.9875V21.8141ZM22.6727 15.2665V15.9094H17.3258V15.2665C17.3258 13.7922 18.525 12.593 19.9992 12.593C21.4734 12.593 22.6727 13.7922 22.6727 15.2665Z" fill="white"/>
</svg>
