<svg width="30" height="30" viewBox="0 0 30 30" fill="none" xmlns="http://www.w3.org/2000/svg">
<g clip-path="url(#clip0_705_3470)">
<path d="M15 3.75C11.0228 3.75331 7.20938 5.33473 4.39705 8.14705C1.58473 10.9594 0.00331022 14.7728 0 18.75L0 20C0 21.6576 0.65848 23.2473 1.83058 24.4194C3.00269 25.5915 4.5924 26.25 6.25 26.25H23.75C24.5708 26.25 25.3835 26.0883 26.1418 25.7742C26.9001 25.4602 27.5891 24.9998 28.1694 24.4194C28.7498 23.8391 29.2102 23.1501 29.5242 22.3918C29.8383 21.6335 30 20.8208 30 20V18.75C29.9967 14.7728 28.4153 10.9594 25.6029 8.14705C22.7906 5.33473 18.9772 3.75331 15 3.75ZM21.25 20C20.9185 20 20.6005 19.8683 20.3661 19.6339C20.1317 19.3995 20 19.0815 20 18.75C20 17.4239 19.4732 16.1521 18.5355 15.2145C17.5979 14.2768 16.3261 13.75 15 13.75C13.6739 13.75 12.4021 14.2768 11.4645 15.2145C10.5268 16.1521 10 17.4239 10 18.75C10 19.0815 9.8683 19.3995 9.63388 19.6339C9.39946 19.8683 9.08152 20 8.75 20C8.41848 20 8.10054 19.8683 7.86612 19.6339C7.6317 19.3995 7.5 19.0815 7.5 18.75C7.5 16.7609 8.29018 14.8532 9.6967 13.4467C11.1032 12.0402 13.0109 11.25 15 11.25C16.9891 11.25 18.8968 12.0402 20.3033 13.4467C21.7098 14.8532 22.5 16.7609 22.5 18.75C22.5 19.0815 22.3683 19.3995 22.1339 19.6339C21.8995 19.8683 21.5815 20 21.25 20ZM25 20C24.6685 20 24.3505 19.8683 24.1161 19.6339C23.8817 19.3995 23.75 19.0815 23.75 18.75C23.75 16.4294 22.8281 14.2038 21.1872 12.5628C19.5462 10.9219 17.3206 10 15 10C12.6794 10 10.4538 10.9219 8.81282 12.5628C7.17187 14.2038 6.25 16.4294 6.25 18.75C6.25 19.0815 6.1183 19.3995 5.88388 19.6339C5.64946 19.8683 5.33152 20 5 20C4.66848 20 4.35054 19.8683 4.11612 19.6339C3.8817 19.3995 3.75 19.0815 3.75 18.75C3.75 15.7663 4.93526 12.9048 7.04505 10.795C9.15483 8.68526 12.0163 7.5 15 7.5C17.9837 7.5 20.8452 8.68526 22.955 10.795C25.0647 12.9048 26.25 15.7663 26.25 18.75C26.25 19.0815 26.1183 19.3995 25.8839 19.6339C25.6495 19.8683 25.3315 20 25 20Z" fill="#FF4D69"/>
</g>
<defs>
<clipPath id="clip0_705_3470">
<rect width="30" height="30" fill="white"/>
</clipPath>
</defs>
</svg>
