<svg width="30" height="30" viewBox="0 0 30 30" fill="none" xmlns="http://www.w3.org/2000/svg">
<path fill-rule="evenodd" clip-rule="evenodd" d="M27.5601 13.6305C28.3145 13.6305 28.9259 14.2421 28.9259 14.9964C28.9259 15.7508 28.3144 16.3624 27.5601 16.3624C26.9697 16.3624 26.4668 15.9878 26.2761 15.4634H24.3714V14.5295H26.2761C26.4668 14.0051 26.9697 13.6305 27.5601 13.6305ZM4.44441 27.9517C3.69008 27.9517 3.07854 27.3401 3.07854 26.5857C3.07854 25.8313 3.69008 25.2198 4.44441 25.2198C5.0348 25.2198 5.53766 25.5944 5.72838 26.1188H9.40871V24.6013H10.3462L10.3444 26.5857C10.3444 26.7096 10.2952 26.8283 10.2076 26.9159C10.1201 27.0035 10.0013 27.0527 9.87746 27.0527H5.72838C5.5376 27.5771 5.0348 27.9517 4.44441 27.9517ZM13.7431 27.6966C13.7431 28.451 14.3546 29.0625 15.1089 29.0625C15.8633 29.0625 16.4749 28.451 16.4749 27.6966C16.4749 27.1062 16.1003 26.6034 15.5759 26.4127V24.6014H14.6421V26.4127C14.1176 26.6034 13.7431 27.1062 13.7431 27.6966ZM26.3472 27.9517C27.1015 27.9517 27.713 27.3401 27.713 26.5857C27.713 25.8313 27.1015 25.2198 26.3472 25.2198C25.7568 25.2198 25.2539 25.5944 25.0632 26.1188H21.3829V24.6013H20.4454L20.4472 26.5857C20.4472 26.7096 20.4964 26.8283 20.584 26.9159C20.6715 27.0035 20.7903 27.0527 20.9141 27.0527H25.0632C25.254 27.5771 25.7568 27.9517 26.3472 27.9517ZM26.9802 1.92469C27.7346 1.92469 28.3461 2.53623 28.3461 3.29063C28.3461 4.04502 27.7346 4.65656 26.9802 4.65656C26.3898 4.65656 25.8869 4.28197 25.6961 3.75756H20.7498V5.39145H19.8123L19.8141 3.29063C19.8142 3.16679 19.8634 3.04803 19.9509 2.96047C20.0385 2.87291 20.1572 2.82371 20.2811 2.82369H25.6961C25.8869 2.29922 26.3898 1.92469 26.9802 1.92469ZM2.4401 13.6305C1.6857 13.6305 1.07422 14.2421 1.07422 14.9964C1.07422 15.7508 1.68576 16.3624 2.4401 16.3624C3.03049 16.3624 3.53334 15.9878 3.72406 15.4634H5.84656V14.5295H3.72406C3.53334 14.0051 3.03049 13.6305 2.4401 13.6305ZM4.44441 1.92469C3.69002 1.92469 3.07848 2.53623 3.07848 3.29057C3.07848 4.0449 3.69002 4.6565 4.44441 4.6565C5.0348 4.6565 5.53766 4.28191 5.72838 3.7575H9.40871V5.39139H10.3462L10.3444 3.29057C10.3444 3.16673 10.2952 3.04798 10.2076 2.96041C10.1201 2.87285 10.0013 2.82365 9.87746 2.82363H5.72838C5.5376 2.29922 5.0348 1.92469 4.44441 1.92469ZM13.7431 2.30338C13.7431 1.54904 14.3546 0.9375 15.1089 0.9375C15.8633 0.9375 16.4749 1.54904 16.4749 2.30338C16.4749 2.89377 16.1003 3.39662 15.5759 3.5874V5.39145H14.6421V3.5874C14.1177 3.39662 13.7431 2.89377 13.7431 2.30338ZM15.1089 11.1269C12.9717 11.1269 11.2394 12.8592 11.2394 14.9965C11.2394 17.1338 12.9717 18.866 15.1089 18.866C17.2462 18.866 18.9785 17.1338 18.9785 14.9965C18.9785 12.8591 17.2462 11.1269 15.1089 11.1269ZM17.2572 14.6515L14.7963 17.6955C14.7227 17.7866 14.5752 17.7247 14.5888 17.6083L14.8242 15.5914C14.8262 15.5749 14.8246 15.5583 14.8197 15.5425C14.8148 15.5267 14.8065 15.5121 14.7955 15.4997C14.7845 15.4874 14.771 15.4775 14.7559 15.4707C14.7408 15.464 14.7244 15.4605 14.7078 15.4606H13.0468C12.9489 15.4606 12.8942 15.3485 12.9545 15.2713L15.2918 12.2786C15.362 12.1888 15.5079 12.2419 15.5011 12.3575L15.3859 14.3366C15.3848 14.3526 15.3871 14.3685 15.3926 14.3836C15.398 14.3986 15.4064 14.4124 15.4174 14.424C15.4284 14.4356 15.4416 14.4449 15.4563 14.4512C15.471 14.4575 15.4868 14.4607 15.5028 14.4606H17.1661C17.2648 14.4606 17.3192 14.5747 17.2572 14.6515ZM22.0306 6.32895H8.18738C7.41553 6.32895 6.78406 6.96041 6.78406 7.73227V22.2606C6.78406 23.0324 7.41553 23.6639 8.18738 23.6639H22.0306C22.8024 23.6639 23.4339 23.0324 23.4339 22.2606V7.73227C23.4339 6.96041 22.8024 6.32895 22.0306 6.32895ZM22.1033 15.943L20.9442 16.3891C20.7971 17.0066 20.5525 17.5966 20.2196 18.1371L20.724 19.2728L19.3854 20.6115L18.2499 20.1072C17.7094 20.4403 17.1192 20.685 16.5015 20.832L16.0555 21.9908H14.1624L13.7163 20.8317C13.0988 20.6846 12.5088 20.44 11.9684 20.1071L10.8325 20.6115L9.49385 19.2728L9.99816 18.1374C9.66507 17.5969 9.42041 17.0067 9.27342 16.389L8.11461 15.943V14.0499L9.27359 13.6038C9.4207 12.9863 9.66533 12.3962 9.99828 11.8557L9.49385 10.72L10.8325 9.38133L11.9683 9.88576C12.5087 9.55285 13.0987 9.30823 13.7162 9.16113L14.1624 8.00203H16.0555L16.5016 9.16113C17.1191 9.30823 17.7091 9.55285 18.2495 9.88576L19.3854 9.38133L20.724 10.72L20.2197 11.8554C20.5527 12.396 20.7974 12.9862 20.9445 13.6038L22.1033 14.0498L22.1033 15.943Z" fill="#17D162"/>
</svg>
