<svg width="30" height="30" viewBox="0 0 30 30" fill="none" xmlns="http://www.w3.org/2000/svg">
<g clip-path="url(#clip0_705_3462)">
<path d="M22.0267 10.5093C22.0267 10.7751 21.9686 11.0498 21.858 11.31L20.5464 14.3521L17.5333 11.0929L18.1309 9.70449C18.2362 9.45962 18.3887 9.23791 18.5797 9.05203C18.7707 8.86615 18.9965 8.71976 19.2441 8.62124C19.4917 8.52271 19.7564 8.47398 20.0229 8.47784C20.2894 8.48169 20.5525 8.53806 20.7972 8.64371C21.1615 8.80128 21.4718 9.06173 21.6902 9.39312C21.9086 9.72451 22.0256 10.1124 22.0267 10.5093ZM21.6845 16.8885C21.617 16.792 21.5495 16.6907 21.4675 16.6087L20.5656 15.6253L20.5516 15.6159L13.4448 7.93543C12.6878 7.11043 11.4006 7.06261 10.5761 7.82902C9.75624 8.58605 9.70796 9.87324 10.465 10.6978L17.7405 18.5615C17.8171 18.6446 17.8576 18.7547 17.8531 18.8676C17.8486 18.9806 17.7995 19.0871 17.7166 19.1639C17.6383 19.2381 17.5347 19.2795 17.4269 19.2796C17.3073 19.2782 17.1931 19.2297 17.1091 19.1446L11.598 13.1812C11.1821 13.2331 10.7928 13.4134 10.4842 13.6968C10.2356 13.9269 10.0488 14.2157 9.94103 14.5368C9.83323 14.8579 9.80789 15.2009 9.86734 15.5343C9.927 15.9217 10.1036 16.2815 10.3736 16.5656L14.7658 21.3196C14.9251 21.4931 14.9153 21.7631 14.7414 21.9271C14.6602 21.9987 14.5557 22.0381 14.4475 22.0382C14.3888 22.0388 14.3306 22.027 14.2767 22.0038C14.2228 21.9805 14.1743 21.9463 14.1344 21.9032L9.92499 17.347C9.5055 17.3974 9.11338 17.5815 8.80656 17.872C8.55932 18.0998 8.37359 18.3863 8.26657 18.7049C8.15955 19.0236 8.13472 19.3641 8.19437 19.695C8.24734 20.0278 8.38187 20.3456 8.60406 20.6254L11.7911 24.0726C11.9505 24.246 11.9406 24.5161 11.7667 24.6801C11.6879 24.7525 11.5845 24.7922 11.4775 24.7912C11.418 24.7916 11.3591 24.7798 11.3044 24.7566C11.2497 24.7334 11.2003 24.6992 11.1592 24.6562L8.35327 21.6187C7.93379 21.6692 7.54166 21.8532 7.23484 22.1437C6.9865 22.3717 6.80007 22.6589 6.693 22.9786C6.58593 23.2982 6.56173 23.6398 6.62265 23.9714C6.68335 24.3623 6.86155 24.7256 7.13359 25.0129L9.33671 27.3993C12.3836 30.6876 17.5234 30.885 20.8117 27.8381C23.9312 24.9553 24.2589 20.1764 21.6845 16.8885ZM20.283 1.26933C20.2778 1.25527 20.275 1.24121 20.2689 1.23043C19.6708 -0.00894886 18.2242 -0.351136 17.2305 0.382926C16.871 0.645784 16.5559 0.964505 16.2972 1.32699C16.0385 0.964505 15.7234 0.645784 15.3639 0.382926C14.3701 -0.351136 12.9231 -0.00894886 12.3241 1.23043C12.3184 1.24168 12.3156 1.25527 12.31 1.26933C11.987 1.94293 12.0644 2.71308 12.3297 3.41152C13.3426 6.07543 15.6864 7.0223 16.2967 7.0223C16.907 7.0223 19.2508 6.07543 20.2637 3.41152C20.5291 2.71308 20.6059 1.94293 20.283 1.26933Z" fill="#386BB7"/>
</g>
<defs>
<clipPath id="clip0_705_3462">
<rect width="30" height="30" fill="white"/>
</clipPath>
</defs>
</svg>
