<svg width="30" height="30" viewBox="0 0 30 30" fill="none" xmlns="http://www.w3.org/2000/svg">
<path d="M22.4204 8.68562C20.1044 7.32362 17.5904 6.60962 14.9984 6.60962C6.17061 6.60962 1.24641 14.8182 1.06641 14.9916C1.26681 15.1836 5.91081 23.3796 14.9984 23.3796C23.8262 23.3796 28.7762 15.1392 28.9304 14.9916C28.6526 14.6634 26.6858 11.1876 22.4204 8.68562ZM14.9984 21.0456C11.6624 21.0456 8.95041 18.3336 8.95041 14.9976C8.95041 11.6616 11.6624 8.94962 14.9984 8.94962C18.3344 8.94962 21.0464 11.6616 21.0464 14.9976C21.0464 18.3336 18.3344 21.0456 14.9984 21.0456Z" fill="#FDB600"/>
<path d="M16.3007 13.6885C15.3857 12.7735 15.6419 11.7013 15.6005 11.3947H15.0005C13.0151 11.3947 11.4005 13.0093 11.4005 14.9947C11.4005 16.9459 13.0493 18.5947 15.0005 18.5947C16.9859 18.5947 18.6005 16.9795 18.6005 14.9947V14.3947C18.2873 14.3521 17.2193 14.6059 16.3007 13.6885ZM14.3987 2.40967H15.5987V4.82707H14.3987V2.40967ZM22.9625 6.19627L24.6725 4.48687L25.521 5.33527L23.8109 7.04527L22.9625 6.19627ZM4.47355 5.33287L5.32195 4.48447L7.03075 6.19387L6.18235 7.04227L4.47355 5.33287ZM14.3987 25.1725H15.5987V27.5905H14.3987V25.1725ZM4.46875 24.6685L6.17755 22.9597L7.02595 23.8081L5.31715 25.5169L4.46875 24.6685ZM22.9607 23.8057L23.8091 22.9573L25.5185 24.6673L24.6702 25.5151L22.9607 23.8057Z" fill="#FDB600"/>
</svg>
