<svg width="30" height="30" viewBox="0 0 30 30" fill="none" xmlns="http://www.w3.org/2000/svg">
<g clip-path="url(#clip0_705_3771)">
<path d="M28.6106 28.3407C28.7981 28.6595 28.5637 29.0532 28.1887 29.0438C27.1574 28.997 25.3481 28.8751 23.5574 28.5282C22.0293 29.1001 20.3043 29.2595 18.4856 28.7813C16.4653 28.2448 14.7133 26.9834 13.5637 25.2376C19.6012 24.6188 24.4668 19.8563 25.2074 13.847L25.2356 13.5563C27.1762 14.822 28.5731 16.8751 28.9481 19.2376C29.3512 21.7313 28.6481 24.0563 27.2606 25.8188C27.7668 26.8782 28.2637 27.7595 28.6106 28.3407ZM23.3512 13.6126C22.7137 18.8251 18.3824 22.9595 13.1418 23.3907C11.2574 23.5501 9.45744 23.2313 7.85432 22.5657C5.67932 23.1751 3.11994 23.3532 1.80744 23.4095C1.43244 23.4282 1.19807 23.0251 1.38557 22.7063C1.84494 21.9282 2.59494 20.5876 3.26057 19.0126C1.62932 16.8845 0.729318 14.1657 0.973068 11.222C1.41369 6.0001 5.53869 1.66885 10.7512 1.02197C18.0824 0.121971 24.2512 6.28135 23.3512 13.6126ZM9.37307 12.1876C9.37307 11.672 8.95119 11.2501 8.43557 11.2501C7.91994 11.2501 7.49807 11.672 7.49807 12.1876C7.49807 12.7032 7.91994 13.1251 8.43557 13.1251C8.95119 13.1251 9.37307 12.7032 9.37307 12.1876ZM13.1231 12.1876C13.1231 11.672 12.7012 11.2501 12.1856 11.2501C11.6699 11.2501 11.2481 11.672 11.2481 12.1876C11.2481 12.7032 11.6699 13.1251 12.1856 13.1251C12.7012 13.1251 13.1231 12.7032 13.1231 12.1876ZM16.8731 12.1876C16.8731 11.672 16.4512 11.2501 15.9356 11.2501C15.4199 11.2501 14.9981 11.672 14.9981 12.1876C14.9981 12.7032 15.4199 13.1251 15.9356 13.1251C16.4512 13.1251 16.8731 12.7032 16.8731 12.1876Z" fill="#FF4D69"/>
</g>
<defs>
<clipPath id="clip0_705_3771">
<rect width="30" height="30" fill="white"/>
</clipPath>
</defs>
</svg>
