<svg width="30" height="30" viewBox="0 0 30 30" fill="none" xmlns="http://www.w3.org/2000/svg">
<path fill-rule="evenodd" clip-rule="evenodd" d="M8.30174 16.7717C6.63051 17.3732 4.9978 17.745 3.3821 17.9288C3.36413 17.8599 3.34682 17.7907 3.33016 17.7214L1.16016 16.8862V13.3422L3.33016 12.5071C3.60851 11.3472 4.06533 10.2444 4.68992 9.23077L3.74416 7.10359L6.24957 4.59818L8.37669 5.54394C9.38834 4.92027 10.4932 4.46243 11.6495 4.18777L12.4882 2.01424H16.0322L16.8674 4.18777C18.0236 4.46244 19.1285 4.92028 20.1402 5.54394L20.6063 5.33671C20.6236 5.34959 20.6412 5.36212 20.6593 5.37418L21.7917 6.13283C20.8337 7.53365 19.5811 8.9883 18.1968 10.3455C17.127 9.46177 15.7547 8.93094 14.2585 8.93094C10.8429 8.93094 8.07692 11.6969 8.07692 15.1125C8.07692 15.6872 8.15522 16.2437 8.30174 16.7717ZM20.3835 15.9776C22.1431 14.7607 23.6963 13.3761 25.0194 11.882C25.0812 12.0887 25.137 12.2972 25.1867 12.5071L27.3567 13.3422V16.8862L25.1867 17.7214C24.9119 18.8778 24.4515 19.9806 23.8305 20.9942L24.7727 23.1213L22.2673 25.6268L20.1402 24.6845C19.1301 25.3091 18.0237 25.7659 16.8674 26.0408L16.0322 28.2107H12.4882L11.653 26.0408C10.4931 25.7659 9.39027 25.3055 8.37669 24.6845L6.24957 25.6268L3.74416 23.1213L4.68992 20.9942C4.61284 20.8696 4.53828 20.7434 4.46627 20.6158C6.46945 20.7524 8.57069 20.607 10.6937 20.1665C11.7009 20.8789 12.9306 21.2975 14.2585 21.2975C17.3804 21.2975 19.9626 18.9837 20.3835 15.9776ZM26.5853 8.21547C24.5818 11.4514 21.551 14.3914 17.7024 16.5393C12.4644 19.4602 6.77504 20.3235 1.9711 19.3296C1.92964 19.32 1.89307 19.2957 1.86821 19.2612C1.84334 19.2267 1.83186 19.1843 1.83592 19.142C1.83998 19.0996 1.8593 19.0602 1.89027 19.0311C1.92124 19.0019 1.96176 18.985 2.00427 18.9835C5.42975 18.8199 8.90351 17.8939 12.6145 15.8241C16.4187 13.7018 20.8497 9.50842 23.0862 5.86718L21.1831 4.5923C21.138 4.562 21.1021 4.51981 21.0795 4.47039C21.0569 4.42097 21.0484 4.36626 21.055 4.31231C21.0616 4.25837 21.083 4.2073 21.1168 4.16477C21.1507 4.12224 21.1956 4.08991 21.2467 4.07136L27.4722 1.81765C27.5393 1.79336 27.611 1.78465 27.682 1.79218C27.7529 1.7997 27.8213 1.82327 27.8818 1.8611C27.9423 1.89893 27.9934 1.95003 28.0313 2.01052C28.0691 2.07102 28.0927 2.13933 28.1003 2.2103L28.839 9.14547C28.8449 9.20112 28.8348 9.25729 28.81 9.30741C28.7851 9.35753 28.7464 9.39951 28.6985 9.42843C28.6506 9.45734 28.5954 9.47199 28.5395 9.47066C28.4836 9.46932 28.4292 9.45205 28.3827 9.42089L26.5853 8.21547Z" fill="#FDB600"/>
</svg>
