<svg width="30" height="30" viewBox="0 0 30 30" fill="none" xmlns="http://www.w3.org/2000/svg">
<path d="M22.419 14.5768L20.2388 12.4496C20.2217 12.4331 20.2102 12.4116 20.2062 12.3881C20.2021 12.3647 20.2057 12.3405 20.2163 12.3193L21.5663 9.58738C21.6609 9.38868 21.6909 9.16539 21.6522 8.94878C21.6135 8.73218 21.508 8.5331 21.3505 8.37943C21.193 8.22576 20.9914 8.1252 20.7739 8.09183C20.5564 8.05846 20.3339 8.09394 20.1376 8.19332L17.4399 9.61035C17.419 9.62132 17.3951 9.62537 17.3716 9.62192C17.3482 9.61846 17.3265 9.60769 17.3096 9.59113L15.1285 7.46301C14.9687 7.31195 14.7657 7.21462 14.5478 7.18464C14.33 7.15466 14.1082 7.19352 13.9135 7.29579C13.7188 7.39806 13.561 7.55862 13.4621 7.75502C13.3632 7.95142 13.3281 8.17383 13.3618 8.39113L13.8756 11.3949C13.8794 11.4181 13.8758 11.4419 13.8653 11.463C13.8547 11.484 13.8378 11.5012 13.817 11.5121L11.1188 12.9291C10.9227 13.0321 10.7642 13.1946 10.6661 13.3933C10.568 13.592 10.5353 13.8166 10.5727 14.035C10.6101 14.2534 10.7157 14.4543 10.8744 14.609C11.033 14.7637 11.2366 14.8641 11.4559 14.896L12.5574 15.0568L2.33633 25.5329C2.1425 25.7324 2.03563 26.0006 2.03915 26.2788C2.04266 26.5569 2.15627 26.8223 2.35508 27.0169L3.18618 27.8279C3.38557 28.0218 3.65373 28.1287 3.93185 28.1252C4.20997 28.1217 4.47534 28.008 4.66977 27.8091L14.8913 17.3335L15.0793 18.4313C15.1193 18.6478 15.226 18.8464 15.3846 18.9991C15.5432 19.1519 15.7457 19.2511 15.9636 19.2828C16.1815 19.3146 16.4038 19.2773 16.5994 19.1762C16.795 19.0751 16.9541 18.9152 17.0541 18.7191L18.4041 15.9872C18.4152 15.9666 18.4322 15.9497 18.4529 15.9389C18.4736 15.928 18.4971 15.9236 18.5204 15.9263L21.5354 16.366C21.7535 16.3943 21.975 16.3537 22.1689 16.25C22.3628 16.1462 22.5194 15.9844 22.6168 15.7873C22.7142 15.5901 22.7476 15.3674 22.7122 15.1504C22.6768 14.9333 22.574 14.7328 22.419 14.5768ZM3.99805 27.1547C3.98788 27.1654 3.97569 27.1738 3.96219 27.1797C3.9487 27.1856 3.93417 27.1887 3.91946 27.1888C3.90475 27.189 3.89015 27.1863 3.87652 27.1807C3.8629 27.1752 3.85051 27.167 3.84008 27.1566L3.00946 26.3461C2.98844 26.3252 2.97643 26.2968 2.976 26.2672C2.97556 26.2375 2.98672 26.2088 3.00711 26.1872L11.2234 17.7666L12.2148 18.7341L3.99805 27.1547ZM12.8691 18.0629L11.8782 17.0958L13.7045 15.2241L14.4713 15.3361C14.4946 15.3397 14.5162 15.3505 14.533 15.367C14.5498 15.3835 14.561 15.4048 14.5651 15.428L14.6959 16.1911L12.8691 18.0629ZM21.7871 15.3769C21.778 15.3992 21.7614 15.4175 21.7402 15.4288C21.7189 15.4401 21.6944 15.4436 21.6709 15.4388L18.6559 14.9991C18.4364 14.9659 18.2121 15.0036 18.0156 15.1067C17.8191 15.2098 17.6606 15.373 17.5632 15.5724L16.2132 18.3043C16.2039 18.3263 16.1872 18.3445 16.166 18.3556C16.1448 18.3667 16.1204 18.3701 16.097 18.3652C16.0728 18.3635 16.0501 18.3533 16.0328 18.3364C16.0156 18.3194 16.0049 18.2969 16.0027 18.2729L15.489 15.2696C15.4521 15.051 15.3467 14.8499 15.1881 14.6951C15.0294 14.5403 14.8257 14.44 14.6063 14.4085L11.5913 13.9688C11.568 13.9653 11.5464 13.9546 11.5296 13.9382C11.5127 13.9218 11.5014 13.9004 11.4974 13.8772C11.4933 13.854 11.4967 13.8301 11.507 13.809C11.5173 13.7878 11.534 13.7704 11.5548 13.7593L14.2524 12.3422C14.4491 12.2397 14.6081 12.0772 14.7063 11.8783C14.8046 11.6795 14.837 11.4545 14.799 11.236L14.2857 8.2327C14.2801 8.20939 14.2829 8.18485 14.2936 8.16341C14.3043 8.14197 14.3223 8.12501 14.3443 8.11551C14.3649 8.10351 14.3889 8.09883 14.4125 8.10224C14.4361 8.10564 14.4578 8.11693 14.4741 8.13426L16.6543 10.2619C16.8128 10.4171 17.0165 10.518 17.2361 10.55C17.4556 10.582 17.6796 10.5435 17.8759 10.44L20.5735 9.02348C20.5944 9.0127 20.6181 9.00876 20.6414 9.01221C20.6646 9.01566 20.6862 9.02633 20.703 9.0427C20.7199 9.05908 20.7311 9.08034 20.7352 9.10347C20.7393 9.1266 20.736 9.15043 20.7259 9.1716L19.3763 11.9035C19.2775 12.102 19.2443 12.3268 19.2815 12.5455C19.3188 12.7641 19.4245 12.9653 19.5835 13.1199L21.7646 15.248C21.783 15.2634 21.7954 15.2849 21.7995 15.3086C21.8037 15.3323 21.7993 15.3562 21.7871 15.3769ZM22.8901 7.27035C22.9527 7.27043 23.0146 7.25793 23.0723 7.23362C23.1299 7.2093 23.1821 7.17365 23.2257 7.12879L24.662 5.65691C24.747 5.56761 24.7934 5.44841 24.7911 5.32513C24.7889 5.20185 24.7381 5.08442 24.6499 4.99829C24.5617 4.91215 24.4431 4.86425 24.3198 4.86496C24.1965 4.86567 24.0784 4.91493 23.9912 5.00207L22.5545 6.47395C22.4915 6.5405 22.4492 6.62396 22.4329 6.71412C22.4165 6.80428 22.4268 6.89725 22.4623 6.98169C22.4979 7.06613 22.5573 7.13839 22.6333 7.18965C22.7092 7.2409 22.7985 7.26895 22.8901 7.27035ZM27.4946 12.2513C27.4923 12.248 25.4359 12.2785 25.4321 12.2761C25.3706 12.2765 25.3097 12.2891 25.253 12.313C25.1962 12.3369 25.1448 12.3718 25.1016 12.4156C25.0583 12.4594 25.0241 12.5113 25.0009 12.5683C24.9777 12.6253 24.966 12.6864 24.9664 12.7479C24.9668 12.8095 24.9793 12.8704 25.0033 12.9271C25.0272 12.9838 25.062 13.0352 25.1059 13.0785C25.1497 13.1217 25.2016 13.1559 25.2586 13.1791C25.3156 13.2023 25.3766 13.214 25.4382 13.2136C25.4405 13.2169 27.497 13.1864 27.5007 13.1888C27.5623 13.1884 27.6231 13.1759 27.6799 13.1519C27.7366 13.128 27.788 13.0932 27.8313 13.0493C27.8745 13.0055 27.9087 12.9536 27.9319 12.8966C27.9551 12.8396 27.9668 12.7785 27.9664 12.717C27.966 12.6554 27.9535 12.5946 27.9296 12.5378C27.9056 12.4811 27.8708 12.4297 27.827 12.3864C27.7832 12.3432 27.7313 12.309 27.6742 12.2858C27.6172 12.2626 27.5562 12.2509 27.4946 12.2513ZM23.3645 18.4139C23.2754 18.3271 23.1556 18.2792 23.0312 18.2807C22.9069 18.2823 22.7882 18.3331 22.7014 18.4221C22.6146 18.5112 22.5667 18.631 22.5682 18.7554C22.5697 18.8797 22.6206 18.9984 22.7096 19.0852L24.1815 20.521C24.2712 20.6035 24.3896 20.6479 24.5115 20.6446C24.6334 20.6413 24.7492 20.5906 24.8344 20.5033C24.9195 20.416 24.9673 20.299 24.9676 20.1771C24.9679 20.0551 24.9206 19.9379 24.8359 19.8502L23.3645 18.4139ZM17.0935 20.8289C17.0315 20.8289 16.9701 20.8412 16.9128 20.8652C16.8556 20.8891 16.8037 20.9241 16.7601 20.9682C16.7165 21.0123 16.682 21.0647 16.6588 21.1222C16.6356 21.1797 16.624 21.2413 16.6248 21.3033L16.6501 23.3597C16.6516 23.484 16.7025 23.6027 16.7915 23.6895C16.8805 23.7763 17.0004 23.8242 17.1247 23.8226C17.249 23.8211 17.3676 23.7702 17.4544 23.6812C17.5412 23.5922 17.5891 23.4723 17.5876 23.348L17.5623 21.2916C17.5607 21.1683 17.5106 21.0507 17.4228 20.9641C17.3351 20.8775 17.2168 20.8289 17.0935 20.8289ZM6.4843 13.4471C6.48665 13.4499 8.54352 13.4189 8.5468 13.4213C8.67112 13.4205 8.79005 13.3704 8.87743 13.282C8.96482 13.1936 9.01349 13.074 9.01274 12.9497C9.01199 12.8254 8.96189 12.7065 8.87346 12.6191C8.78502 12.5317 8.6655 12.483 8.54118 12.4838C8.53883 12.4805 6.48196 12.5114 6.47868 12.5096C6.41712 12.5099 6.35624 12.5224 6.29951 12.5463C6.24278 12.5702 6.19131 12.6051 6.14804 12.6489C6.10478 12.6926 6.07056 12.7445 6.04735 12.8015C6.02413 12.8585 6.01237 12.9196 6.01274 12.9811C6.01311 13.0427 6.0256 13.1036 6.0495 13.1603C6.0734 13.217 6.10823 13.2685 6.15202 13.3118C6.19581 13.355 6.24769 13.3892 6.30471 13.4125C6.36172 13.4357 6.42275 13.4474 6.4843 13.4471ZM10.6149 7.28441C10.704 7.37119 10.8239 7.41903 10.9482 7.4174C11.0726 7.41577 11.1912 7.36482 11.278 7.27574C11.3647 7.18667 11.4126 7.06677 11.411 6.94242C11.4093 6.81808 11.3584 6.69947 11.2693 6.6127L9.79743 5.17645C9.70841 5.08961 9.58855 5.04169 9.4642 5.04323C9.33986 5.04476 9.22122 5.09564 9.13438 5.18465C9.04754 5.27366 8.99962 5.39353 9.00116 5.51787C9.0027 5.64222 9.05357 5.76086 9.14258 5.8477L10.6149 7.28441ZM16.8854 4.86941C16.9475 4.86942 17.0089 4.8571 17.0662 4.83316C17.1235 4.80922 17.1754 4.77415 17.219 4.72997C17.2626 4.6858 17.297 4.6334 17.3202 4.57583C17.3434 4.51825 17.355 4.45664 17.3541 4.39457L17.3293 2.3377C17.3277 2.21338 17.2767 2.09479 17.1877 2.00802C17.0986 1.92126 16.9788 1.87342 16.8545 1.87504C16.7301 1.87666 16.6116 1.92759 16.5248 2.01664C16.438 2.10569 16.3902 2.22556 16.3918 2.34988L16.4166 4.40629C16.4181 4.52963 16.4682 4.64742 16.5559 4.73412C16.6437 4.82081 16.762 4.86942 16.8854 4.86941Z" fill="#17D262"/>
</svg>
