<svg width="30" height="30" viewBox="0 0 30 30" fill="none" xmlns="http://www.w3.org/2000/svg">
<g clip-path="url(#clip0_705_3758)">
<path d="M18.3236 13.0805C18.0281 12.5721 17.9375 11.97 18.0705 11.3971L16.6566 10.4655C16.44 10.6862 16.1814 10.8613 15.8961 10.9808C15.6108 11.1002 15.3046 11.1615 14.9953 11.161C14.686 11.1605 14.3799 11.0982 14.095 10.9779C13.8101 10.8576 13.5521 10.6816 13.3361 10.4602L11.9258 11.3895C12.0617 11.9735 11.967 12.5873 11.6613 13.1032C11.3556 13.619 10.8626 13.9969 10.2852 14.1581V15.8432C10.6256 15.9384 10.9399 16.11 11.204 16.3449C11.4682 16.5798 11.6754 16.8718 11.8097 17.1988C11.944 17.5258 12.0021 17.8791 11.9793 18.2319C11.9566 18.5846 11.8537 18.9276 11.6785 19.2346L12.9887 19.9911C13.1935 19.641 13.4862 19.3506 13.8379 19.1485C14.1896 18.9465 14.588 18.8399 14.9935 18.8393C15.3991 18.8387 15.7978 18.9442 16.1501 19.1452C16.5023 19.3462 16.7959 19.6357 17.0018 19.9852L18.3119 19.2288C18.1384 18.9228 18.0366 18.5814 18.0142 18.2303C17.9918 17.8793 18.0494 17.5277 18.1826 17.2021C18.3158 16.8766 18.5211 16.5855 18.7832 16.3508C19.0452 16.1161 19.3571 15.944 19.6953 15.8473V14.154C19.1156 13.9888 18.6233 13.6036 18.3236 13.0805ZM17.4219 17.8905H12.5762C12.4093 17.8905 12.2492 17.8242 12.1312 17.7062C12.0132 17.5881 11.9469 17.4281 11.9469 17.2612C11.9477 16.7364 12.1322 16.2285 12.4683 15.8255C12.8045 15.4225 13.2712 15.15 13.7873 15.0551C13.5003 14.8078 13.2958 14.4786 13.2014 14.1117C13.1069 13.7448 13.127 13.3578 13.2589 13.0026C13.3908 12.6475 13.6283 12.3412 13.9393 12.1249C14.2504 11.9086 14.6202 11.7927 14.999 11.7927C15.3779 11.7927 15.7477 11.9086 16.0587 12.1249C16.3698 12.3412 16.6072 12.6475 16.7391 13.0026C16.871 13.3578 16.8911 13.7448 16.7967 14.1117C16.7022 14.4786 16.4977 14.8078 16.2107 15.0551C16.7269 15.15 17.1935 15.4225 17.5297 15.8255C17.8659 16.2285 18.0504 16.7364 18.0512 17.2612C18.0512 17.3438 18.0349 17.4257 18.0033 17.502C17.9716 17.5784 17.9253 17.6477 17.8669 17.7062C17.8084 17.7646 17.739 17.8109 17.6627 17.8426C17.5863 17.8742 17.5045 17.8905 17.4219 17.8905Z" fill="url(#paint0_linear_705_3758)"/>
<path d="M15 0C6.71602 0 0 6.71602 0 15C0 23.284 6.71602 30 15 30C23.284 30 30 23.2846 30 15C30 6.71543 23.284 0 15 0ZM21.5039 16.067C22.0349 16.3708 22.4249 16.8714 22.5898 17.4605C22.7547 18.0496 22.6811 18.6799 22.3849 19.2152C22.0888 19.7505 21.5939 20.1477 21.0073 20.3211C20.4206 20.4944 19.7893 20.43 19.2498 20.1416L17.3244 21.2549C17.302 21.8562 17.0477 22.4255 16.6147 22.8434C16.1817 23.2613 15.6037 23.4953 15.0019 23.4963C14.4001 23.4972 13.8214 23.2652 13.387 22.8487C12.9526 22.4322 12.6964 21.8638 12.6721 21.2625L10.7385 20.1492C10.4495 20.3011 10.1319 20.3906 9.80614 20.4118C9.48039 20.433 9.15383 20.3854 8.84764 20.2722C8.54145 20.1591 8.26248 19.9828 8.02883 19.7548C7.79518 19.5268 7.61208 19.2523 7.4914 18.949C7.37072 18.6457 7.31516 18.3204 7.32833 17.9942C7.3415 17.668 7.42311 17.3483 7.56785 17.0557C7.71259 16.7631 7.91724 16.5042 8.16851 16.2958C8.41977 16.0874 8.71205 15.9342 9.02637 15.8461V14.1586C8.83928 14.1056 8.65942 14.0299 8.49082 13.933C8.22216 13.782 7.98615 13.5791 7.79649 13.3362C7.60682 13.0932 7.46728 12.815 7.38594 12.5178C7.3046 12.2205 7.28309 11.91 7.32266 11.6043C7.36222 11.2987 7.46207 11.0039 7.61642 10.7371C7.77077 10.4704 7.97655 10.2369 8.22181 10.0503C8.46708 9.86361 8.74696 9.72751 9.04523 9.64986C9.3435 9.5722 9.65421 9.55453 9.95936 9.59788C10.2645 9.64122 10.558 9.74471 10.8229 9.90234C11.0045 10.0075 11.1714 10.1364 11.3191 10.2855L12.7307 9.35566C12.6522 9.01412 12.6518 8.65927 12.7295 8.31756C12.8072 7.97584 12.9611 7.65608 13.1796 7.38211C13.3981 7.10813 13.6757 6.88702 13.9915 6.73524C14.3074 6.58347 14.6535 6.50495 15.0039 6.50553C15.3544 6.50612 15.7001 6.5858 16.0155 6.73864C16.3309 6.89148 16.6077 7.11352 16.8253 7.38823C17.0429 7.66293 17.1957 7.98321 17.2722 8.32518C17.3488 8.66716 17.3472 9.02201 17.2676 9.36328L18.6738 10.2908C18.924 10.0353 19.2296 9.84086 19.567 9.72252C19.9044 9.60418 20.2646 9.56514 20.6195 9.60842C20.9745 9.6517 21.3147 9.77615 21.6138 9.97211C21.9129 10.1681 22.1628 10.4303 22.3442 10.7384C22.5256 11.0465 22.6337 11.3923 22.6599 11.7489C22.6861 12.1055 22.6299 12.4634 22.4956 12.7947C22.3612 13.1261 22.1523 13.4221 21.8852 13.6597C21.618 13.8973 21.2997 14.0703 20.9549 14.165V15.8414C21.1468 15.8928 21.3313 15.9687 21.5039 16.067Z" fill="url(#paint1_linear_705_3758)"/>
</g>
<defs>
<linearGradient id="paint0_linear_705_3758" x1="10.2852" y1="15.2256" x2="19.6953" y2="15.2256" gradientUnits="userSpaceOnUse">
<stop stop-color="#3A7BD5"/>
<stop offset="1" stop-color="#00D2FF"/>
</linearGradient>
<linearGradient id="paint1_linear_705_3758" x1="0" y1="15" x2="30" y2="15" gradientUnits="userSpaceOnUse">
<stop stop-color="#3A7BD5"/>
<stop offset="1" stop-color="#00D2FF"/>
</linearGradient>
<clipPath id="clip0_705_3758">
<rect width="30" height="30" fill="white"/>
</clipPath>
</defs>
</svg>
