<svg width="25" height="25" viewBox="0 0 25 25" fill="none" xmlns="http://www.w3.org/2000/svg">
<g clip-path="url(#clip0_673_3339)">
<path fill-rule="evenodd" clip-rule="evenodd" d="M0.878614 6.28189C0.621264 5.73899 0.487932 5.14563 0.488282 4.54482C0.488282 2.304 2.30425 0.488037 4.54512 0.488037C6.78599 0.488037 8.60054 2.30396 8.60054 4.54482C8.60054 5.22163 8.43443 5.86113 8.14102 6.42305C7.81851 5.71577 7.16524 5.23408 6.43027 4.95034C6.67101 4.5754 6.79881 4.13913 6.79844 3.69355C6.79844 2.40913 5.75762 1.36826 4.47451 1.36826C3.19141 1.36826 2.15059 2.40913 2.15059 3.69355C2.15003 4.13935 2.27836 4.5758 2.52012 4.95034C1.84053 5.21333 1.22183 5.64653 0.878565 6.28184L0.878614 6.28189ZM24.5122 20.4565C24.5122 22.696 22.6963 24.5119 20.4568 24.5119C18.2173 24.5119 16.4 22.6959 16.4 20.4565C16.4 18.217 18.216 16.3997 20.4568 16.3997C22.6976 16.3997 24.5122 18.2157 24.5122 20.4565ZM23.8741 20.4565C23.8741 18.5686 22.3447 17.0377 20.4568 17.0377C18.5689 17.0377 17.038 18.5686 17.038 20.4565C17.038 22.3444 18.5688 23.8739 20.4568 23.8739C22.3447 23.8739 23.8741 22.3444 23.8741 20.4565ZM23.2887 20.4565C23.2887 22.0205 22.0209 23.2884 20.4568 23.2884C18.8927 23.2884 17.6235 22.0206 17.6235 20.4565C17.6235 18.8924 18.8928 17.6232 20.4568 17.6232C22.0208 17.6232 23.2887 18.8925 23.2887 20.4565ZM21.9613 19.3215C21.8478 19.2066 21.6623 19.2066 21.5474 19.3215L19.9599 20.9077L19.4118 19.9568C19.3315 19.817 19.1529 19.7686 19.0131 19.8489C18.8733 19.9292 18.8249 20.1077 18.9052 20.2475L19.6457 21.5292C19.6843 21.5964 19.7479 21.6455 19.8227 21.6657C19.8974 21.6859 19.9772 21.6757 20.0443 21.6372L21.9613 19.7354C22.0762 19.6219 22.0762 19.4351 21.9613 19.3215H21.9613ZM15.9861 5.14971C15.9519 5.16708 15.9214 5.19107 15.8965 5.22029C15.8716 5.24951 15.8528 5.28338 15.841 5.31994C15.8293 5.3565 15.825 5.39502 15.8282 5.43327C15.8315 5.47152 15.8424 5.50874 15.8601 5.54277C15.9334 5.68672 16.1106 5.74209 16.2532 5.66875L17.8408 4.85215C18.0941 4.73311 18.0636 4.40786 17.8408 4.31235L16.2532 3.49575C16.1106 3.42241 15.9335 3.47773 15.8601 3.62168C15.8424 3.65572 15.8315 3.69294 15.8283 3.7312C15.825 3.76945 15.8293 3.80797 15.8411 3.84453C15.8528 3.88109 15.8716 3.91496 15.8965 3.94419C15.9214 3.97341 15.9519 3.99741 15.9861 4.0148L16.5176 4.28887H9.17905L9.1749 4.87573H16.5176L15.9861 5.14981V5.14971ZM20.7114 11.2633V6.20439C20.519 6.23901 20.3184 6.23901 20.1259 6.20439V11.2633C20.1259 11.6744 19.7896 12.0121 19.3771 12.0121H16.3889L16.9218 11.738C17.0643 11.6632 17.1211 11.4875 17.0463 11.3435C16.973 11.1996 16.7972 11.1442 16.6533 11.2175L15.0657 12.0341C14.8138 12.1532 14.8442 12.4798 15.0657 12.5739L16.6533 13.3905C16.6873 13.4083 16.7245 13.4191 16.7628 13.4224C16.801 13.4257 16.8395 13.4213 16.8761 13.4096C16.9127 13.3979 16.9465 13.3791 16.9758 13.3542C17.005 13.3293 17.029 13.2988 17.0463 13.2646C17.1211 13.122 17.0644 12.9449 16.9218 12.8715L16.3889 12.5974H19.3771C20.1121 12.5974 20.7114 11.9981 20.7114 11.2631V11.2633ZM5.54302 15.6398C5.50898 15.622 5.47176 15.6112 5.43351 15.6079C5.39526 15.6046 5.35674 15.609 5.32018 15.6207C5.28362 15.6324 5.24975 15.6513 5.22053 15.6762C5.19131 15.7011 5.16732 15.7315 5.14995 15.7658L4.87593 16.2973V13.309C4.87593 12.8965 5.21226 12.5602 5.62334 12.5602H10.8788C10.8442 12.3666 10.8442 12.1684 10.8788 11.9748H5.62334C4.88838 11.9748 4.28906 12.5741 4.28906 13.309V16.2973L4.01499 15.7658C3.99762 15.7316 3.97363 15.7011 3.94441 15.6762C3.91518 15.6513 3.88131 15.6325 3.84476 15.6208C3.8082 15.6091 3.76968 15.6047 3.73143 15.608C3.69318 15.6113 3.65596 15.6221 3.62192 15.6398C3.47798 15.7132 3.42261 15.8904 3.49595 16.033L4.3126 17.6205C4.33519 17.6734 4.37281 17.7184 4.42079 17.7501C4.46877 17.7818 4.525 17.7987 4.5825 17.7987C4.63999 17.7987 4.69622 17.7818 4.7442 17.7501C4.79218 17.7184 4.8298 17.6734 4.85239 17.6205L5.669 16.033C5.74233 15.8904 5.68701 15.7132 5.54302 15.6398ZM14.8968 20.1492L13.3106 19.3312C13.1667 19.2579 12.9909 19.3146 12.9161 19.4572C12.8807 19.5262 12.874 19.6065 12.8976 19.6804C12.9212 19.7543 12.9732 19.8159 13.042 19.8517L13.575 20.1257H6.20464C6.23921 20.3181 6.23921 20.5188 6.20464 20.7112H13.575L13.0421 20.9853C12.8981 21.0586 12.8428 21.2358 12.9162 21.3784C12.9909 21.5223 13.1667 21.5791 13.3106 21.5043L14.8968 20.6877C15.1501 20.5701 15.1197 20.2435 14.8968 20.1493L14.8968 20.1492ZM20.4194 5.6438C21.0048 5.6438 21.481 5.16904 21.481 4.58218C21.481 3.99531 21.0049 3.52056 20.4194 3.52056C19.8339 3.52056 19.3564 3.99531 19.3564 4.58218C19.3564 5.16904 19.8325 5.6438 20.4194 5.6438ZM4.58247 19.3562C3.99561 19.3562 3.52085 19.8323 3.52085 20.4178C3.52085 21.0033 3.99561 21.4808 4.58247 21.4808C5.16934 21.4808 5.64409 21.0046 5.64409 20.4178C5.64409 19.8309 5.16934 19.3562 4.58247 19.3562ZM11.4393 12.2682C11.4393 12.8537 11.9141 13.3298 12.5009 13.3298C13.0878 13.3298 13.5626 12.8537 13.5626 12.2682C13.5626 11.6827 13.0878 11.2052 12.5009 11.2052C11.9141 11.2052 11.4393 11.6813 11.4393 12.2682ZM7.72993 7.05425C7.57632 6.25283 6.89395 5.7103 6.02197 5.42656C5.14028 6.21411 3.80879 6.21411 2.9271 5.42656C2.10908 5.6937 1.45581 6.18921 1.25234 6.91309C2.82886 9.10137 6.06069 9.17192 7.72993 7.05425ZM4.47451 1.95518C3.51397 1.95518 2.73608 2.73306 2.73608 3.6936C2.73608 4.65415 3.51397 5.43203 4.47451 5.43203C5.43506 5.43203 6.21294 4.65278 6.21294 3.6936C6.21294 2.73442 5.43506 1.95518 4.47451 1.95518Z" fill="#FDB600"/>
</g>
<defs>
<clipPath id="clip0_673_3339">
<rect width="25" height="25" fill="white"/>
</clipPath>
</defs>
</svg>
