<svg width="25" height="25" viewBox="0 0 25 25" fill="none" xmlns="http://www.w3.org/2000/svg">
<g clip-path="url(#clip0_673_3336)">
<path fill-rule="evenodd" clip-rule="evenodd" d="M20.0425 17.2261L17.3623 18.7734C17.418 18.9536 17.4478 19.1411 17.4512 19.332L21.9111 18.1416C21.7939 17.2725 20.8159 16.7798 20.0425 17.2261ZM1.39942 15.4023L3.38526 14.8701C3.82862 14.7515 4.28809 15.0166 4.40674 15.46L6.32959 22.6362C6.44824 23.0796 6.18311 23.5391 5.73975 23.6577L3.75391 24.1899C3.31055 24.3086 2.85108 24.0435 2.73242 23.6001L0.809573 16.4243C0.69092 15.981 0.956057 15.521 1.39942 15.4023ZM9.08594 2.99219L9.58887 3.81104L10.523 4.03662L9.8999 4.76807L9.97412 5.72607L9.08594 5.35938L8.19776 5.72607L8.27198 4.76807L7.64893 4.03662L8.58301 3.81104L9.08594 2.99219ZM19.7612 2.99219L20.2642 3.81104L21.1982 4.03662L20.5752 4.76807L20.6494 5.72607L19.7612 5.35938L18.873 5.72607L18.9473 4.76807L18.3242 4.03662L19.2583 3.81104L19.7612 2.99219ZM14.4233 0.78125L14.9263 1.6001L15.8604 1.82568L15.2373 2.55664L15.3115 3.51465L14.4233 3.14795L13.5352 3.51465L13.6094 2.55664L12.9863 1.82568L13.9204 1.6001L14.4233 0.78125ZM14.4233 4.95166C11.7231 4.95166 9.53418 7.14062 9.53418 9.84082C9.53418 12.541 11.7231 14.73 14.4233 14.73C17.1235 14.73 19.3125 12.541 19.3125 9.84082C19.3125 7.14062 17.1235 4.95166 14.4233 4.95166ZM17.2671 10.7793C17.2671 11.9761 16.2891 12.9546 15.0918 12.9546H13.7549C12.5576 12.9546 11.5796 11.9766 11.5796 10.7793C11.5796 10.6177 11.7109 10.4863 11.8726 10.4863H16.9736C17.1357 10.4863 17.2671 10.6177 17.2671 10.7793ZM16.6538 11.0723C16.5132 11.8188 15.854 12.3687 15.0918 12.3687H13.7549C12.9927 12.3687 12.3335 11.8188 12.1929 11.0723H16.6538ZM16.062 6.72705C16.6382 6.72705 17.1079 7.19678 17.1079 7.77344C17.1079 8.35107 16.6397 8.81982 16.062 8.81982C15.4858 8.81982 15.0156 8.34961 15.0156 7.77344C15.0161 7.19531 15.4844 6.72705 16.062 6.72705ZM16.062 7.31299C16.3174 7.31299 16.522 7.51758 16.522 7.77344C16.522 8.02783 16.3159 8.23389 16.062 8.23389C16.0015 8.23415 15.9415 8.22241 15.8855 8.19936C15.8295 8.17631 15.7787 8.14241 15.7359 8.0996C15.693 8.05679 15.6591 8.00593 15.6361 7.94995C15.613 7.89397 15.6013 7.83398 15.6016 7.77344C15.6021 7.51904 15.8081 7.31299 16.062 7.31299ZM12.7847 6.72705C13.3608 6.72705 13.8311 7.19678 13.8311 7.77344C13.8311 8.35107 13.3628 8.81982 12.7847 8.81982C12.2085 8.81982 11.7383 8.34961 11.7383 7.77344C11.7388 7.19531 12.207 6.72705 12.7847 6.72705ZM12.7847 7.31299C13.04 7.31299 13.2451 7.51758 13.2451 7.77344C13.2451 8.02783 13.0391 8.23389 12.7847 8.23389C12.7241 8.23415 12.6641 8.22241 12.6082 8.19936C12.5522 8.17631 12.5013 8.14241 12.4585 8.0996C12.4157 8.05679 12.3818 8.00593 12.3587 7.94995C12.3357 7.89397 12.324 7.83398 12.3242 7.77344C12.3247 7.51904 12.5308 7.31299 12.7847 7.31299ZM16.6553 20.1509C16.2944 20.7744 15.6226 20.9585 14.9922 20.6094L11.2803 18.4663C11.1406 18.3853 10.9619 18.4331 10.8809 18.5728C10.7998 18.7124 10.8477 18.8911 10.9873 18.9722C12.2168 19.6821 13.4673 20.4453 14.7105 21.1211C15.6235 21.627 16.6421 21.3408 17.1616 20.4404C17.2007 20.3838 17.2554 20.1895 17.3071 19.9771L22.0581 18.709C23.0142 18.4526 23.9683 18.8818 24.1772 19.6631C24.3867 20.4438 23.7754 21.2925 22.8188 21.5488L15.876 23.4092C15.231 23.582 14.626 23.543 14.0703 23.293L9.75098 21.3477C9.27686 21.1343 8.76026 21.1011 8.20996 21.2485L6.67481 21.6597L5.19385 16.1333L9.5 14.9795C10.0503 14.832 10.5762 14.9014 11.0698 15.186L16.0825 18.0801C16.9482 18.5801 17.022 19.481 16.6553 20.1509ZM17.9399 16.3999C18.5166 16.0464 19.2744 16.2183 19.6436 16.7798L17.1074 18.2441C16.854 17.8696 16.5737 17.6875 16.1958 17.4697L17.9399 16.3999Z" fill="#17D262"/>
</g>
<defs>
<clipPath id="clip0_673_3336">
<rect width="25" height="25" fill="white"/>
</clipPath>
</defs>
</svg>
