<svg width="25" height="25" viewBox="0 0 25 25" fill="none" xmlns="http://www.w3.org/2000/svg">
<path d="M2.72621 18.7527C2.70148 18.7179 2.66947 18.6889 2.6324 18.6676C2.59532 18.6464 2.55408 18.6335 2.51151 18.6297C2.46895 18.626 2.42609 18.6316 2.3859 18.6461C2.3457 18.6606 2.30914 18.6837 2.27875 18.7137L0.840274 20.1525C0.723757 20.268 0.641888 20.4138 0.603929 20.5734C0.565971 20.733 0.573438 20.9001 0.625486 21.0556C0.677534 21.2112 0.772086 21.3491 0.898442 21.4537C1.0248 21.5584 1.17792 21.6255 1.34047 21.6477L3.25961 21.9029C3.32274 21.9114 3.38134 21.9404 3.42638 21.9854C3.47142 22.0304 3.50039 22.089 3.50883 22.1522L3.7643 24.0715C3.78636 24.2341 3.85351 24.3873 3.95813 24.5137C4.06276 24.6401 4.20069 24.7347 4.35631 24.7868C4.51193 24.8389 4.67901 24.8463 4.83866 24.8084C4.9983 24.7704 5.14412 24.6885 5.25961 24.5719L6.65473 23.1768C6.6842 23.1469 6.70694 23.111 6.72144 23.0716C6.73593 23.0322 6.74184 22.9901 6.73877 22.9482C6.7357 22.9063 6.72372 22.8656 6.70364 22.8287C6.68355 22.7918 6.65582 22.7597 6.6223 22.7344C5.11716 21.6262 3.80143 20.2816 2.72621 18.7527ZM22.9418 21.06C22.9951 20.9038 23.0032 20.7358 22.9655 20.5752C22.9277 20.4146 22.8454 20.2678 22.7282 20.1518L21.2897 18.7129C21.2593 18.6829 21.2227 18.6599 21.1825 18.6455C21.1423 18.631 21.0995 18.6255 21.0569 18.6292C21.0144 18.6329 20.9732 18.6458 20.9361 18.667C20.899 18.6882 20.867 18.7172 20.8422 18.752C19.767 20.2808 18.4513 21.6254 16.9461 22.7336C16.9126 22.7589 16.8849 22.7911 16.8648 22.828C16.8448 22.8649 16.8328 22.9056 16.8298 22.9475C16.8267 22.9894 16.8326 23.0314 16.8472 23.0708C16.8617 23.1102 16.8844 23.1461 16.9139 23.176L18.3088 24.5711C18.4243 24.6877 18.5701 24.7696 18.7298 24.8076C18.8894 24.8456 19.0565 24.8381 19.2121 24.786C19.3677 24.7339 19.5057 24.6393 19.6103 24.5129C19.7149 24.3865 19.7821 24.2333 19.8041 24.0707L20.0596 22.1512C20.0681 22.0881 20.0971 22.0296 20.1421 21.9846C20.1871 21.9396 20.2457 21.9107 20.3088 21.9024L22.228 21.6469C22.39 21.6259 22.543 21.5597 22.6692 21.456C22.7954 21.3522 22.8899 21.2149 22.9418 21.06Z" fill="#FF4D69"/>
<path d="M12.3549 24.6846C16.9557 22.7008 20.1801 19.6402 21.9391 15.5873C23.2352 12.6008 23.751 9.11251 23.5156 4.92326C23.5028 4.71775 23.4468 4.51725 23.3514 4.33478C23.256 4.1523 23.1233 3.99193 22.9619 3.86409C22.8005 3.73624 22.614 3.64377 22.4145 3.59269C22.2151 3.54161 22.0071 3.53306 21.8041 3.56759C17.5998 4.33166 13.8945 1.51701 12.4984 0.271303C12.3021 0.0965481 12.0484 0 11.7855 0C11.5227 0 11.269 0.0965481 11.0727 0.271303C9.67578 1.51701 5.97226 4.33185 1.76562 3.5674C1.56269 3.53295 1.35478 3.54157 1.15539 3.5927C0.956 3.64382 0.769592 3.73631 0.608266 3.86415C0.446941 3.99199 0.314304 4.15233 0.218968 4.33476C0.123631 4.51719 0.0677249 4.71762 0.0548797 4.92306C-0.179495 9.11251 0.335153 12.601 1.63125 15.5871C3.39023 19.6401 6.61484 22.7006 11.2154 24.6846C11.3954 24.7618 11.5893 24.8016 11.7852 24.8016C11.981 24.8016 12.1749 24.7618 12.3549 24.6846ZM2.54687 6.21466C2.76679 6.22834 2.98769 6.23419 3.20644 6.23419C6.94179 6.23419 10.1205 4.25412 11.7861 2.97248C13.4516 4.25373 16.6311 6.23419 20.3664 6.23419C20.5862 6.23415 20.8059 6.22724 21.0252 6.21349C21.1857 14.1399 18.2437 19.2147 11.7852 22.16C5.32675 19.2147 2.38476 14.1399 2.54687 6.21466Z" fill="#FF4D69"/>
<path d="M13.3164 18.386L13.3281 18.0442C13.8014 17.9142 14.2567 17.7259 14.6836 17.4837L14.9336 17.7161C15.0813 17.8553 15.2776 17.9311 15.4805 17.9275C15.6835 17.9238 15.8769 17.841 16.0195 17.6965L17.0801 16.636C17.2245 16.4934 17.3074 16.2999 17.311 16.097C17.3147 15.8941 17.2388 15.6978 17.0996 15.5501L16.8652 15.3001C17.1091 14.8737 17.2981 14.4183 17.4277 13.9446L17.7695 13.9329C17.9722 13.9266 18.1644 13.8414 18.3053 13.6955C18.4461 13.5495 18.5244 13.3544 18.5234 13.1516V11.6516C18.5244 11.4488 18.4461 11.2537 18.3053 11.1078C18.1644 10.9619 17.9722 10.8767 17.7695 10.8704L17.4277 10.8587C17.2978 10.3853 17.1095 9.93004 16.8672 9.50318L17.0996 9.25318C17.2388 9.10547 17.3147 8.90916 17.311 8.70623C17.3074 8.50331 17.2245 8.30986 17.0801 8.16724L16.0195 7.1067C15.8769 6.96228 15.6835 6.87939 15.4805 6.87574C15.2776 6.87209 15.0813 6.94797 14.9336 7.08717L14.6836 7.32154C14.2574 7.07735 13.802 6.88833 13.3281 6.75904L13.3164 6.41724C13.3101 6.21456 13.2249 6.02234 13.079 5.88153C12.9331 5.74071 12.7379 5.66243 12.5352 5.66334H11.0352C10.8324 5.66243 10.6373 5.74071 10.4913 5.88153C10.3454 6.02234 10.2602 6.21456 10.2539 6.41724L10.2422 6.75904C9.76889 6.88901 9.31358 7.0773 8.88673 7.31959L8.63673 7.08717C8.48878 6.94844 8.29257 6.87287 8.08979 6.87652C7.88701 6.88016 7.69365 6.96274 7.55079 7.1067L6.49024 8.16724C6.34583 8.30986 6.26294 8.50331 6.25929 8.70623C6.25564 8.90916 6.33152 9.10547 6.47071 9.25318L6.70509 9.50318C6.46089 9.92934 6.27188 10.3848 6.14259 10.8587L5.80079 10.8704C5.5981 10.8767 5.40589 10.9619 5.26507 11.1078C5.12426 11.2537 5.04597 11.4488 5.04688 11.6516V13.1516C5.04597 13.3544 5.12426 13.5495 5.26507 13.6955C5.40589 13.8414 5.5981 13.9266 5.80079 13.9329L6.14259 13.9446C6.2722 14.418 6.46051 14.8734 6.70313 15.3001L6.47071 15.5501C6.33152 15.6978 6.25564 15.8941 6.25929 16.097C6.26294 16.2999 6.34583 16.4934 6.49024 16.636L7.55079 17.6965C7.6934 17.841 7.88685 17.9238 8.08978 17.9275C8.29271 17.9311 8.48901 17.8553 8.63673 17.7161L8.88673 17.4817C9.31305 17.7256 9.76848 17.9146 10.2422 18.0442L10.2539 18.386C10.2602 18.5887 10.3454 18.7809 10.4913 18.9217C10.6373 19.0625 10.8324 19.1408 11.0352 19.1399H12.5352C12.7379 19.1408 12.9331 19.0625 13.079 18.9217C13.2249 18.7809 13.3101 18.5887 13.3164 18.386ZM8.06055 12.4016C8.06055 11.665 8.279 10.9448 8.68826 10.3323C9.09753 9.71983 9.67923 9.24244 10.3598 8.96053C11.0404 8.67862 11.7893 8.60486 12.5118 8.74858C13.2343 8.89229 13.898 9.24703 14.4189 9.76792C14.9398 10.2888 15.2945 10.9525 15.4382 11.675C15.5819 12.3975 15.5082 13.1464 15.2263 13.827C14.9443 14.5075 14.467 15.0893 13.8544 15.4985C13.2419 15.9078 12.5218 16.1262 11.7852 16.1262C10.7976 16.1255 9.85066 15.7328 9.15232 15.0345C8.45399 14.3361 8.06133 13.3892 8.06055 12.4016Z" fill="#FF4D69"/>
<path d="M14.4848 10.4446C14.291 10.243 14.0257 10.1256 13.7462 10.118C13.4666 10.1103 13.1952 10.2129 12.9907 10.4036L11.1391 12.1594L10.6001 11.6204C10.4022 11.4225 10.1338 11.3113 9.85396 11.3113C9.57412 11.3113 9.30575 11.4225 9.10787 11.6204C8.90999 11.8182 8.79883 12.0866 8.79883 12.3665C8.79883 12.6463 8.90999 12.9147 9.10787 13.1126L10.3735 14.3782C10.5672 14.574 10.83 14.6859 11.1054 14.69C11.3808 14.694 11.6468 14.5897 11.8462 14.3997L14.4438 11.9368C14.6463 11.7439 14.7643 11.4787 14.7719 11.1991C14.7796 10.9196 14.6764 10.6483 14.4848 10.4446Z" fill="#FF4D69"/>
</svg>
