<svg width="25" height="25" viewBox="0 0 25 25" fill="none" xmlns="http://www.w3.org/2000/svg">
<g clip-path="url(#clip0_673_3067)">
<path d="M12.8907 5.12161H12.5C12.1449 5.12161 11.8042 4.98052 11.5531 4.72938C11.302 4.47823 11.1609 4.13761 11.1609 3.78245C11.1609 3.42728 11.302 3.08666 11.5531 2.83552C11.8042 2.58438 12.1449 2.44329 12.5 2.44329H12.8907V0.801001C12.96 0.804517 13.0299 0.806226 13.0988 0.811548C13.214 0.820532 13.3286 0.831079 13.4423 0.845288C13.5773 0.861939 13.7108 0.883081 13.8437 0.906665C13.9554 0.926587 14.0669 0.946899 14.1768 0.971558C14.3079 1.00085 14.437 1.03577 14.5656 1.0718C14.673 1.10188 14.7804 1.13142 14.8857 1.16604C15.0127 1.20774 15.1369 1.25554 15.2609 1.30364C15.3628 1.34314 15.4654 1.38113 15.5652 1.42483C15.689 1.47903 15.809 1.54001 15.9294 1.60061C16.0238 1.64807 16.1195 1.69304 16.2116 1.74421C16.3333 1.81179 16.4501 1.88679 16.5677 1.96077C16.6527 2.01423 16.74 2.06443 16.8227 2.12112C16.9459 2.20554 17.0629 2.29788 17.1808 2.38909C17.2515 2.44382 17.3254 2.4946 17.3941 2.55173C17.5533 2.68401 17.7052 2.82444 17.8531 2.96897C17.8969 3.01171 17.94 3.05489 17.9827 3.09851C18.1267 3.24607 18.2668 3.39749 18.3987 3.55618C18.4563 3.62556 18.5076 3.70012 18.5629 3.77156C18.6536 3.88875 18.7454 4.0053 18.8294 4.128C18.8865 4.2113 18.9371 4.29919 18.9909 4.38489C19.0641 4.50159 19.1388 4.6176 19.2057 4.73845C19.2575 4.83147 19.3029 4.9282 19.3508 5.02351C19.4109 5.14309 19.4714 5.26228 19.5253 5.38528C19.5692 5.48523 19.6071 5.58801 19.6467 5.69006C19.6947 5.81399 19.7425 5.93801 19.7841 6.06492C19.8188 6.17039 19.8484 6.278 19.8785 6.38547C19.9144 6.51384 19.9492 6.64275 19.9785 6.7738C20.0033 6.88381 20.0236 6.99529 20.0435 7.10701C20.0671 7.23987 20.0883 7.37336 20.1049 7.50847C20.1189 7.62209 20.1296 7.73665 20.1386 7.85183C20.144 7.92073 20.1456 7.99055 20.1492 8.05994H18.5075V8.45056C18.5053 8.80437 18.3633 9.14297 18.1123 9.3924C17.8614 9.64183 17.5219 9.78183 17.1681 9.78183C16.8143 9.78183 16.4749 9.64183 16.2239 9.3924C15.973 9.14297 15.8309 8.80437 15.8288 8.45056V8.05994H12.8907V5.12161ZM10.3798 3.78225C10.3804 3.28785 10.5535 2.80916 10.8692 2.42872C11.185 2.04828 11.6236 1.78995 12.1094 1.69827V0.800415C8.19198 0.999146 5.03875 4.14206 4.84085 8.05964H5.7471C5.83833 7.57344 6.09662 7.13441 6.47731 6.81851C6.858 6.5026 7.33713 6.3297 7.83182 6.3297C8.32651 6.3297 8.80564 6.5026 9.18633 6.81851C9.56701 7.13441 9.82531 7.57344 9.91654 8.05964H12.1094V5.86658C11.6236 5.77481 11.185 5.51641 10.8692 5.13591C10.5535 4.75542 10.3804 4.27668 10.3798 3.78225ZM7.4387 16.468C7.41181 16.4118 7.37403 16.3614 7.32755 16.3198C7.28107 16.2782 7.22681 16.2463 7.1679 16.2258L7.16712 16.2254C7.10841 16.2049 7.04623 16.1961 6.98413 16.1996C6.92203 16.2031 6.86123 16.2188 6.80519 16.2458C6.74915 16.2728 6.69898 16.3105 6.65754 16.3569C6.61609 16.4033 6.58419 16.4574 6.56366 16.5161L5.55428 19.1928L5.12625 18.7588C4.45273 18.0846 3.89629 17.303 3.47982 16.4459C2.9557 16.6998 2.85882 16.8331 2.84813 16.8499C2.5951 17.245 2.29642 19.2993 2.14847 20.7568L4.57523 22.5278C4.99588 22.2101 5.75242 21.4926 6.21908 20.1686L7.46038 16.8254C7.48047 16.7673 7.48889 16.7059 7.48517 16.6445C7.48145 16.5832 7.46566 16.5232 7.4387 16.468ZM10.2539 16.04L9.87625 15.9405L10.6255 13.0996L7.78431 12.3504L7.88421 11.9728C7.97436 11.6293 7.92457 11.2641 7.74579 10.9573C7.567 10.6505 7.27381 10.4272 6.93055 10.3363C6.76048 10.2914 6.58323 10.2805 6.40895 10.3042C6.23466 10.3278 6.06674 10.3856 5.91478 10.4742C5.76281 10.5627 5.62978 10.6803 5.52328 10.8203C5.41678 10.9603 5.3389 11.1199 5.29408 11.29L5.19486 11.6676L3.5973 11.2465C3.28375 12.7256 3.42003 14.2647 3.98861 15.6657L4.03519 15.7772C4.33957 16.4953 4.75341 17.1619 5.262 17.7532L5.82962 16.2487C5.94117 15.9349 6.17278 15.6783 6.4735 15.5354C6.77422 15.3924 7.11942 15.3747 7.43316 15.4863C7.7469 15.5978 8.00348 15.8294 8.14646 16.1302C8.28943 16.4309 8.30708 16.7761 8.19554 17.0898L7.30833 19.4733C7.77202 19.7422 8.26272 19.9616 8.77235 20.1279L9.19271 18.5306L9.57034 18.6302C9.74074 18.6761 9.91851 18.6878 10.0935 18.6648C10.2684 18.6418 10.4371 18.5844 10.5898 18.4959C10.7425 18.4075 10.8762 18.2898 10.9833 18.1495C11.0904 18.0093 11.1687 17.8492 11.2137 17.6786C11.2587 17.508 11.2696 17.3302 11.2457 17.1553C11.2218 16.9805 11.1636 16.8121 11.0744 16.6598C10.9852 16.5076 10.8668 16.3744 10.726 16.2681C10.5852 16.1617 10.4248 16.0842 10.2539 16.04ZM24.1242 16.9765C24.086 16.9241 24.0379 16.8798 23.9825 16.8461C23.9271 16.8125 23.8655 16.7901 23.8014 16.7804C23.7764 16.7767 23.7512 16.7747 23.7259 16.7747C23.6227 16.7747 23.5222 16.8077 23.439 16.869L23.4227 16.8809L20.6131 19.1139L20.5119 19.0665C20.4708 19.1394 20.4492 19.2216 20.4491 19.3053C20.4491 19.3889 20.4706 19.4712 20.5116 19.5442C20.5526 19.6171 20.6117 19.6782 20.6832 19.7217C20.7547 19.7651 20.8362 19.7894 20.9198 19.7922C21.0305 19.7972 21.1396 19.7641 21.2288 19.6983L24.0166 17.6635C24.1218 17.5865 24.1921 17.471 24.2123 17.3423C24.2325 17.2135 24.2007 17.082 24.1242 16.9765ZM16.0454 12.8773C15.9272 12.7591 15.8333 12.6189 15.7693 12.4645C15.7053 12.31 15.6723 12.1445 15.6723 11.9774C15.6723 11.8102 15.7053 11.6447 15.7693 11.4903C15.8333 11.3359 15.9272 11.1956 16.0454 11.0775C16.5246 10.5976 17.3653 10.5968 17.8445 11.0782L19.098 12.3314C19.3658 11.8849 19.586 11.4116 19.7549 10.9192L19.8113 10.754C20.0063 10.1335 20.1211 9.49057 20.1531 8.84089H19.253C19.1616 9.32701 18.9033 9.76593 18.5226 10.0817C18.1419 10.3976 17.6629 10.5704 17.1682 10.5704C16.6736 10.5704 16.1945 10.3976 15.8139 10.0817C15.4332 9.76593 15.1749 9.32701 15.0835 8.84089H12.8907V11.0336C13.3767 11.1249 13.8157 11.3831 14.1315 11.7637C14.4473 12.1444 14.6202 12.6234 14.6202 13.118C14.6202 13.6125 14.4473 14.0916 14.1315 14.4722C13.8157 14.8528 13.3767 15.1111 12.8907 15.2023V16.1091C14.5592 16.0238 16.1538 15.3935 17.4297 14.3149C17.3548 14.2062 17.2707 14.1041 17.1784 14.0098L16.0454 12.8773ZM22.1528 12.424C22.1314 12.3912 21.9101 12.1029 20.3583 11.5413C20.1282 12.1141 19.8371 12.6605 19.4901 13.171L19.2254 13.5628L17.2921 11.6302C17.2466 11.5842 17.1924 11.5476 17.1327 11.5226C17.073 11.4976 17.0089 11.4846 16.9442 11.4844C16.8795 11.4843 16.8153 11.4969 16.7555 11.5216C16.6957 11.5463 16.6413 11.5826 16.5956 11.6284C16.5498 11.6742 16.5136 11.7285 16.4889 11.7884C16.4642 11.8482 16.4516 11.9124 16.4519 11.9771C16.4521 12.0418 16.4651 12.1059 16.4901 12.1656C16.5152 12.2252 16.5518 12.2794 16.5978 12.3249L17.7306 13.4577C17.9565 13.6848 18.1442 13.947 18.2864 14.2341C18.295 14.2497 18.3024 14.2659 18.3087 14.2826C18.4018 14.472 18.4715 14.6721 18.5164 14.8783C18.9099 16.8146 19.9064 17.7449 20.4156 18.109L22.8516 16.3305C22.7035 14.873 22.405 12.8188 22.1528 12.424ZM4.39154 23.5439L1.58031 21.3094L1.5618 21.2959C1.47862 21.2341 1.37778 21.2007 1.27415 21.2005C1.17025 21.2003 1.06895 21.233 0.984772 21.2939C0.900594 21.3548 0.837866 21.4408 0.805587 21.5395C0.773307 21.6383 0.773134 21.7447 0.805093 21.8436C0.837052 21.9424 0.8995 22.0286 0.98348 22.0898L3.77127 24.1242C3.8595 24.1919 3.96926 24.2254 4.08026 24.2184C4.15461 24.2153 4.2273 24.1954 4.29294 24.1604C4.35858 24.1253 4.41549 24.0759 4.45946 24.0159C4.51294 23.9408 4.54408 23.8521 4.54926 23.7601C4.55445 23.668 4.53347 23.5764 4.48875 23.4958L4.39154 23.5439Z" fill="#386BB7"/>
</g>
<defs>
<clipPath id="clip0_673_3067">
<rect width="25" height="25" fill="white"/>
</clipPath>
</defs>
</svg>
