<svg width="6" height="6" viewBox="0 0 6 6" fill="none" xmlns="http://www.w3.org/2000/svg">
<g clip-path="url(#clip0_1_632)">
<path d="M3.47612 0.81C3.63913 0.65 3.83042 0.551667 4.04999 0.515C4.25292 0.481667 4.45087 0.505834 4.64382 0.5875C4.83677 0.669167 4.99313 0.795 5.1129 0.965C5.23931 1.145 5.30252 1.35 5.30252 1.58V4.42C5.30252 4.61667 5.25428 4.7975 5.15781 4.9625C5.06133 5.1275 4.93075 5.25833 4.76608 5.355C4.6014 5.45167 4.42093 5.5 4.22465 5.5H1.32537C1.09249 5.5 0.886231 5.435 0.706586 5.305C0.53692 5.185 0.411335 5.02583 0.329829 4.8275C0.248323 4.62917 0.225867 4.42833 0.262462 4.225C0.302383 4.005 0.405513 3.81333 0.571851 3.65L3.47612 0.81Z" fill="white"/>
</g>
<defs>
<clipPath id="clip0_1_632">
<rect width="5.07" height="5" fill="white" transform="matrix(1 0 0 -1 0.23999 5.5)"/>
</clipPath>
</defs>
</svg>
