<svg width="40" height="40" viewBox="0 0 40 40" fill="none" xmlns="http://www.w3.org/2000/svg">
<g clip-path="url(#clip0_655_1006)">
<path d="M30.6906 38.1156C29.6607 37.6567 28.7522 36.9638 28.0371 36.092C27.3221 35.2202 26.8204 34.1935 26.5719 33.0938C26.5486 32.9938 26.4938 32.904 26.4156 32.8375C25.6444 32.1704 24.9979 31.3715 24.5062 30.4781C24.3121 30.1356 24.2191 29.7451 24.238 29.3519C24.2569 28.9587 24.387 28.5788 24.6131 28.2566C24.8391 27.9343 25.152 27.6827 25.5153 27.5311C25.8786 27.3795 26.2775 27.334 26.6656 27.4C26.9171 27.4456 27.173 27.4614 27.4281 27.4469C27.4969 27.4428 27.5639 27.4236 27.6244 27.3906C27.6849 27.3577 27.7374 27.3118 27.7781 27.2563C28.7654 25.9057 30.2029 24.9525 31.8312 24.5688C31.9329 24.5443 32.0234 24.4863 32.0881 24.404C32.1527 24.3218 32.1877 24.2202 32.1875 24.1156V20.6969C32.1874 20.5838 32.1466 20.4745 32.0726 20.389C31.9986 20.3035 31.8963 20.2475 31.7844 20.2313C31.5125 20.1906 31.2719 20.1469 31.05 20.0938C30.1214 19.8693 29.2407 19.4798 28.45 18.9438C28.3639 18.8821 28.2586 18.8533 28.1531 18.8625C27.0059 18.9287 25.8561 18.7869 24.7594 18.4438C23.0347 17.9978 22.6509 15.5206 24.1594 14.5719C24.4491 14.3759 24.7118 14.1426 24.9406 13.8781C24.9854 13.8276 25.0184 13.7677 25.0373 13.7029C25.0563 13.6381 25.0606 13.5698 25.05 13.5031C24.8383 12.0209 25.0484 10.509 25.6562 9.14063C26.1967 7.91014 27.0429 6.83835 28.1144 6.02719C29.1859 5.21602 30.4472 4.69245 31.7781 4.50625C31.8935 4.4893 31.9984 4.42996 32.0724 4.33982C32.1463 4.24968 32.184 4.1352 32.1781 4.01875C32.1291 2.9357 31.6641 1.91333 30.8799 1.16467C30.0957 0.416013 29.0529 -0.00118672 27.9688 2.53557e-06H12.0312C10.9129 0.00165572 9.84078 0.446661 9.04997 1.23747C8.25916 2.02828 7.81415 3.10038 7.8125 4.21875V11.1875C7.81319 11.253 7.82749 11.3177 7.85451 11.3775C7.88154 11.4372 7.92068 11.4906 7.96946 11.5344C8.01824 11.5782 8.07559 11.6114 8.13788 11.6318C8.20016 11.6522 8.26601 11.6595 8.33125 11.6531C8.68939 11.6151 9.04923 11.5953 9.40938 11.5938C11.3856 11.5956 13.3195 12.1661 14.9802 13.2373C16.6409 14.3084 17.9583 15.8349 18.775 17.6344C18.8018 17.6946 18.841 17.7486 18.89 17.7927C18.9389 17.8369 18.9967 17.8702 19.0594 17.8906C19.6616 18.0881 20.2912 18.1893 20.925 18.1906C21.3859 18.1928 21.8368 18.3252 22.2257 18.5725C22.6146 18.8199 22.9256 19.1722 23.1229 19.5887C23.3203 20.0052 23.3958 20.469 23.3409 20.9266C23.2859 21.3842 23.1028 21.817 22.8125 22.175C21.8378 23.4123 20.6309 24.4473 19.2594 25.2219C19.1591 25.2743 19.0822 25.3624 19.0437 25.4688C18.311 27.4358 16.9934 29.1312 15.2681 30.3268C13.5429 31.5224 11.4928 32.1608 9.39375 32.1563C9.03875 32.1534 8.68413 32.1326 8.33125 32.0938C8.26603 32.0875 8.20022 32.0948 8.13798 32.1153C8.07573 32.1358 8.01842 32.1689 7.96966 32.2127C7.9209 32.2565 7.88176 32.3099 7.8547 32.3695C7.82765 32.4292 7.81328 32.4939 7.8125 32.5594V35.7813C7.81415 36.8996 8.25916 37.9717 9.04997 38.7625C9.84078 39.5533 10.9129 39.9984 12.0312 40H27.9688C29.0238 40.0002 30.0402 39.603 30.8156 38.8875C30.8726 38.835 30.9156 38.7692 30.9409 38.696C30.9662 38.6228 30.973 38.5444 30.9606 38.468C30.9482 38.3915 30.9171 38.3193 30.8699 38.2578C30.8228 38.1963 30.7612 38.1475 30.6906 38.1156ZM17.0625 3.4375C16.7038 3.42629 16.3549 3.31809 16.0528 3.1244C15.7507 2.93071 15.5068 2.65877 15.3469 2.3375L14.5969 0.937503H25.4062L24.6531 2.3375C24.4932 2.65877 24.2493 2.93071 23.9472 3.1244C23.6451 3.31809 23.2962 3.42629 22.9375 3.4375H17.0625ZM23.2812 35.9375H16.7188C16.5944 35.9375 16.4752 35.8881 16.3873 35.8002C16.2994 35.7123 16.25 35.5931 16.25 35.4688C16.25 35.3444 16.2994 35.2252 16.3873 35.1373C16.4752 35.0494 16.5944 35 16.7188 35H23.2812C23.4056 35 23.5248 35.0494 23.6127 35.1373C23.7006 35.2252 23.75 35.3444 23.75 35.4688C23.75 35.5931 23.7006 35.7123 23.6127 35.8002C23.5248 35.8881 23.4056 35.9375 23.2812 35.9375ZM32.9634 32.1875H34.2016L34.5366 30.9375H33.2984L32.9634 32.1875Z" fill="white"/>
<path d="M31.1928 25.75C29.9696 26.2414 28.9372 27.1136 28.2484 28.2375C28.238 28.2539 28.2243 28.2679 28.2082 28.2787C28.192 28.2894 28.1738 28.2967 28.1547 28.3C27.6096 28.4105 27.0488 28.4191 26.5006 28.3253C26.2881 28.2892 26.0697 28.3142 25.8708 28.3973C25.6719 28.4804 25.5006 28.6182 25.3769 28.7948C25.2533 28.9714 25.1822 29.1794 25.1721 29.3947C25.162 29.6101 25.2131 29.8238 25.3197 30.0112C25.8199 30.9371 26.5125 31.7451 27.3509 32.3809C27.3655 32.3911 27.3779 32.404 27.3875 32.4189C27.397 32.4339 27.4035 32.4506 27.4066 32.4681C27.8462 35.4819 30.6831 37.8666 33.6444 37.8341C34.7781 37.8212 35.8869 37.4999 36.8519 36.9047C37.8169 36.3095 38.6016 35.4628 39.1219 34.4555C39.6422 33.4481 39.8785 32.3181 39.8054 31.1867C39.7323 30.0553 39.3525 28.9651 38.7069 28.0331C37.8964 26.8598 36.7125 25.9954 35.3481 25.5808C33.9837 25.1662 32.519 25.2259 31.1928 25.75ZM36.4059 30.9375H35.5069L35.1722 32.1875H36.0934C36.2177 32.1875 36.337 32.2369 36.4249 32.3248C36.5128 32.4127 36.5622 32.5319 36.5622 32.6562C36.5622 32.7806 36.5128 32.8998 36.4249 32.9877C36.337 33.0756 36.2177 33.125 36.0934 33.125H34.9209L34.6212 34.2428C34.6053 34.3023 34.5778 34.3581 34.5403 34.407C34.5028 34.4558 34.456 34.4969 34.4027 34.5277C34.3493 34.5585 34.2904 34.5785 34.2294 34.5865C34.1683 34.5945 34.1062 34.5905 34.0467 34.5745C33.9872 34.5586 33.9314 34.5311 33.8825 34.4936C33.8337 34.4561 33.7927 34.4093 33.7619 34.356C33.7311 34.3026 33.7111 34.2437 33.703 34.1826C33.695 34.1216 33.699 34.0595 33.715 34L33.9494 33.125H32.7112L32.4081 34.2566C32.3922 34.3161 32.3647 34.3718 32.3272 34.4207C32.2897 34.4696 32.2429 34.5106 32.1895 34.5414C32.1362 34.5722 32.0773 34.5922 32.0162 34.6002C31.9552 34.6083 31.8931 34.6042 31.8336 34.5883C31.7741 34.5723 31.7183 34.5448 31.6694 34.5073C31.6205 34.4698 31.5795 34.4231 31.5487 34.3697C31.5179 34.3164 31.4979 34.2575 31.4899 34.1964C31.4819 34.1353 31.4859 34.0733 31.5019 34.0137L31.74 33.125H31.0934C30.9691 33.125 30.8499 33.0756 30.762 32.9877C30.6741 32.8998 30.6247 32.7806 30.6247 32.6562C30.6247 32.5319 30.6741 32.4127 30.762 32.3248C30.8499 32.2369 30.9691 32.1875 31.0934 32.1875H31.9925L32.3272 30.9375H31.4059C31.2816 30.9375 31.1624 30.8881 31.0745 30.8002C30.9866 30.7123 30.9372 30.5931 30.9372 30.4687C30.9372 30.3444 30.9866 30.2252 31.0745 30.1373C31.1624 30.0494 31.2816 30 31.4059 30H32.5784L32.8781 28.8822C32.9103 28.762 32.9889 28.6595 33.0967 28.5973C33.2044 28.5351 33.3325 28.5183 33.4526 28.5505C33.5728 28.5827 33.6753 28.6613 33.7375 28.769C33.7997 28.8768 33.8166 29.0048 33.7844 29.125L33.55 30H34.7881L35.0912 28.8684C35.1072 28.8089 35.1347 28.7531 35.1722 28.7043C35.2097 28.6554 35.2565 28.6144 35.3098 28.5836C35.3632 28.5528 35.4221 28.5328 35.4831 28.5247C35.5442 28.5167 35.6063 28.5208 35.6658 28.5367C35.7253 28.5527 35.7811 28.5802 35.8299 28.6177C35.8788 28.6552 35.9198 28.7019 35.9506 28.7553C35.9814 28.8086 36.0014 28.8675 36.0095 28.9286C36.0175 28.9897 36.0134 29.0517 35.9975 29.1112L35.7581 30H36.4059C36.5302 30 36.6495 30.0494 36.7374 30.1373C36.8253 30.2252 36.8747 30.3444 36.8747 30.4687C36.8747 30.5931 36.8253 30.7123 36.7374 30.8002C36.6495 30.8881 36.5302 30.9375 36.4059 30.9375ZM26.5147 9.51937C25.9102 10.8725 25.7515 12.3827 26.0616 13.8319C26.0679 13.8627 26.0678 13.8946 26.0612 13.9254C26.0547 13.9562 26.0418 13.9853 26.0234 14.0109C25.6647 14.5359 25.2116 14.9898 24.6872 15.3494C24.4963 15.4809 24.3463 15.6636 24.2544 15.8765C24.1626 16.0893 24.1325 16.3238 24.1678 16.5529C24.2031 16.7821 24.3022 16.9967 24.4538 17.1721C24.6054 17.3475 24.8034 17.4766 25.025 17.5447C26.1417 17.9064 27.3234 18.0221 28.4891 17.8841C28.5155 17.8802 28.5425 17.8815 28.5685 17.8881C28.5944 17.8946 28.6188 17.9062 28.6403 17.9222C29.8739 18.8618 31.38 19.374 32.9306 19.3816C38.0672 19.405 41.5191 13.7847 39.1453 9.17281C36.4787 3.99406 28.8781 4.16937 26.5147 9.51937ZM33.3975 15.5119C33.2667 15.5861 33.1188 15.6251 32.9684 15.6251C32.818 15.6251 32.6702 15.5861 32.5394 15.5119C30.7059 14.4697 29.6644 13.1756 29.7087 11.5353C29.7076 11.2938 29.7541 11.0544 29.8455 10.8308C29.9369 10.6072 30.0715 10.4038 30.2415 10.2322C30.4115 10.0606 30.6137 9.9242 30.8364 9.83074C31.0592 9.73728 31.2981 9.6886 31.5397 9.6875C31.8147 9.68737 32.0862 9.74965 32.3337 9.86966C32.5812 9.98966 32.7982 10.1643 32.9684 10.3803C33.1386 10.1643 33.3557 9.98966 33.6032 9.86966C33.8506 9.74965 34.1221 9.68737 34.3972 9.6875C34.6387 9.6886 34.8777 9.73728 35.1004 9.83074C35.3232 9.9242 35.5253 10.0606 35.6953 10.2322C35.8654 10.4038 35.9999 10.6072 36.0913 10.8308C36.1827 11.0544 36.2292 11.2938 36.2281 11.5353C36.2741 13.1756 35.2309 14.4687 33.3975 15.5119ZM18.2809 24.81C18.3 24.7545 18.3298 24.7033 18.3688 24.6593C18.4077 24.6154 18.455 24.5796 18.5078 24.5541C19.9017 23.8322 21.1229 22.8172 22.0875 21.5787C22.2649 21.3582 22.3766 21.092 22.4097 20.8109C22.4429 20.5297 22.3961 20.2449 22.2748 19.9892C22.1535 19.7334 21.9625 19.5169 21.7238 19.3647C21.4851 19.2125 21.2084 19.1306 20.9253 19.1284C20.0413 19.1238 19.1658 18.9551 18.3434 18.6309C18.2818 18.6077 18.2256 18.5722 18.1783 18.5264C18.1309 18.4807 18.0934 18.4258 18.0681 18.365C17.3261 16.5329 16.0211 14.9839 14.3416 13.9416C7.73562 9.80094 -0.736259 15.2972 0.136553 23.0062C0.652491 27.5625 4.86749 31.3262 9.41218 31.2312C13.2466 31.315 17.1156 28.5722 18.2809 24.81ZM7.18718 25.8503C7.045 25.9336 6.8832 25.9775 6.71843 25.9775H5.46843C5.21979 25.9775 4.98133 25.8787 4.80552 25.7029C4.6297 25.5271 4.53093 25.2886 4.53093 25.04V20.3525C4.53093 20.1039 4.6297 19.8654 4.80552 19.6896C4.98133 19.5138 5.21979 19.415 5.46843 19.415H6.71843C6.88295 19.4147 7.04465 19.4578 7.18718 19.54V25.8503ZM8.12468 25.4303V19.8159C9.0428 18.9641 9.63343 17.2297 10.0269 16.4122C10.7194 14.9722 12.1144 16.9037 11.7734 17.9434C11.6556 18.3034 11.4059 19.4122 11.4059 19.4122C12.1518 19.4122 12.8672 19.7085 13.3947 20.2359C13.9221 20.7634 14.2184 21.4788 14.2184 22.2247V23.1622C14.2184 23.9081 13.9221 24.6235 13.3947 25.1509C12.8672 25.6784 12.1518 25.9747 11.4059 25.9747H9.66093C9.36986 25.9746 9.0828 25.9068 8.82249 25.7766L8.12468 25.4303Z" fill="white"/>
</g>
<defs>
<clipPath id="clip0_655_1006">
<rect width="40" height="40" fill="white"/>
</clipPath>
</defs>
</svg>
