<svg width="40" height="40" viewBox="0 0 40 40" fill="none" xmlns="http://www.w3.org/2000/svg">
<g clip-path="url(#clip0_655_1015)">
<path d="M2.41016 18.8136V19.9863C2.41023 20.2412 2.49331 20.4892 2.64682 20.6927C2.80034 20.8962 3.01595 21.0442 3.26105 21.1143C3.6023 21.2117 11.7229 23.5043 20.0003 23.5043C28.2778 23.5043 36.3983 21.2117 36.7396 21.1143C36.9847 21.0442 37.2003 20.8962 37.3538 20.6927C37.5073 20.4892 37.5904 20.2412 37.5905 19.9863V18.8136C37.5905 18.1654 37.066 17.6409 36.4178 17.6409H3.58283C2.93466 17.6409 2.41016 18.1654 2.41016 18.8136ZM34.0724 28.195C34.7206 28.195 35.2451 27.6705 35.2451 27.0224V23.9137C33.5798 24.3068 31.0734 24.8327 28.1522 25.2394C27.857 29.499 24.3336 32.8857 20.0003 32.8857C15.667 32.8857 12.1436 29.499 11.8484 25.2394C8.92656 24.8326 6.42048 24.3065 4.75551 23.9136V27.0224C4.75551 27.6705 5.28001 28.195 5.92819 28.195H7.59104C7.86357 29.1536 8.24954 30.0777 8.74542 30.9572L7.56243 32.1402C7.10438 32.5983 7.10438 33.3404 7.56243 33.7985L10.8789 37.115C11.337 37.573 12.0791 37.573 12.5372 37.115L13.7202 35.932C14.5997 36.4278 15.5238 36.8137 16.4824 37.0863V38.8274C16.4824 39.4756 17.0069 40.0001 17.655 40.0001H22.3457C22.9939 40.0001 23.5184 39.4756 23.5184 38.8274V37.0863C24.477 36.8138 25.4011 36.4278 26.2806 35.932L27.4636 37.115C27.9217 37.573 28.6638 37.573 29.1219 37.115L32.4383 33.7985C32.8964 33.3404 32.8964 32.5983 32.4383 32.1402L31.2553 30.9572C31.7512 30.0777 32.1371 29.1536 32.4097 28.195H34.0724ZM18.1371 12.846C17.5464 13.1133 16.8507 12.8488 16.5865 12.2597L12.9257 4.06455C8.74034 6.26692 5.73462 10.4461 4.98168 15.2956H35.0189C34.266 10.4461 31.2603 6.26684 27.0749 4.06455L23.4141 12.2597C23.1497 12.8492 22.4536 13.113 21.8635 12.846C21.2738 12.5804 21.0104 11.8864 21.2772 11.2954L25.3293 2.23119C25.6206 1.58513 25.2854 0.797243 24.6014 0.611882C21.5881 -0.204014 18.4121 -0.20396 15.3988 0.612038C14.7148 0.797399 14.3796 1.58528 14.6709 2.23135L18.7234 11.2954C18.9902 11.8864 18.728 12.5804 18.1371 12.846Z" fill="white"/>
</g>
<defs>
<clipPath id="clip0_655_1015">
<rect width="40" height="40" fill="white"/>
</clipPath>
</defs>
</svg>
