<svg width="40" height="40" viewBox="0 0 40 40" fill="none" xmlns="http://www.w3.org/2000/svg">
<g clip-path="url(#clip0_655_1029)">
<path d="M20.001 0C16.1178 0 12.9697 3.22611 12.9697 7.1094C12.9697 10.9927 16.1177 14.1407 20.001 14.1407C23.8843 14.1407 27.0323 10.9927 27.0323 7.1094C27.0323 3.22611 23.8842 0 20.001 0ZM25.2401 24.1798C22.1856 24.1798 21.1407 27.8247 21.1304 27.8614C21.1273 27.8725 21.1154 27.8775 21.112 27.8885C21.112 27.8884 21.1123 27.8884 21.1123 27.8882C20.9611 28.3773 20.5182 28.7162 20.0043 28.7185H19.9997C19.4768 28.7185 19.0167 28.3694 18.8725 27.8659C18.8301 27.7148 17.7875 24.1797 14.7617 24.1797C12.442 24.1797 10.6934 26.1207 10.6934 28.6956C10.6934 31.7604 13.4571 34.8362 18.0371 38.702C18.428 39.0315 18.83 39.3708 19.2423 39.7211C19.6792 40.0922 20.3214 40.0933 20.7584 39.7223C21.1704 39.3726 21.5717 39.034 21.9613 38.7042C25.4456 35.7649 29.3084 31.9862 29.3084 28.6954C29.3084 26.1207 27.5598 24.1798 25.2401 24.1798Z" fill="white"/>
<path d="M25.9767 14.2579C24.3595 15.6408 22.297 16.4845 20.0001 16.4845C17.7032 16.4845 15.6407 15.6408 14.0235 14.2579C7.46096 14.9141 2.42188 20.4298 2.42188 27.1095V28.7502C2.42188 32.5471 3.89844 36.1095 6.57041 38.7814C6.57041 38.8048 6.57041 38.8048 6.59384 38.8048C7.32041 39.5314 8.32823 39.9533 9.35948 39.9767C11.0731 39.9338 12.4593 38.6337 12.6875 36.9616C10.503 34.7173 8.34877 31.8415 8.34877 28.6956C8.34877 24.6924 11.4074 21.836 14.75 21.836C14.7523 21.836 14.754 21.8364 14.7564 21.8364C14.7579 21.8364 14.7593 21.836 14.761 21.836C16.9667 21.836 18.8097 23.0492 20.0012 24.8241C21.2039 23.0323 22.9969 21.836 25.2392 21.836C25.2408 21.836 25.2422 21.8364 25.2438 21.8364C25.2461 21.8364 25.2478 21.836 25.2502 21.836C28.8011 21.836 31.6514 24.8819 31.6514 28.6956C31.541 28.9924 32.1269 31.8824 27.3096 36.9301C27.5247 38.6172 28.9164 39.9335 30.6408 39.9767C31.6721 39.9533 32.6799 39.5314 33.4065 38.8048C33.4299 38.8048 33.4299 38.8048 33.4299 38.7814C36.1017 36.1095 37.5783 32.5471 37.5783 28.7502V27.1095C37.5783 20.4298 32.5391 14.9141 25.9767 14.2579Z" fill="white"/>
</g>
<defs>
<clipPath id="clip0_655_1029">
<rect width="40" height="40" fill="white"/>
</clipPath>
</defs>
</svg>
