<svg width="40" height="40" viewBox="0 0 40 40" fill="none" xmlns="http://www.w3.org/2000/svg">
<path fill-rule="evenodd" clip-rule="evenodd" d="M6.37589 19.0061C6.50573 20.6747 6.93831 22.3241 7.67323 23.8653L5.13011 25.3336C4.1437 23.3364 3.58058 21.1827 3.44097 19.0062H6.37589V19.0061ZM20.9087 7.39313C23.0607 7.39313 24.8052 9.13766 24.8052 11.2896C24.8052 13.4416 23.0607 15.1861 20.9087 15.1861C18.7567 15.1861 17.0122 13.4416 17.0122 11.2896C17.0122 9.13766 18.7567 7.39313 20.9087 7.39313ZM14.0737 22.8446H27.7437C27.8492 22.8451 27.9534 22.8217 28.0486 22.7762C28.1438 22.7308 28.2275 22.6644 28.2935 22.5821C28.3595 22.4998 28.406 22.4037 28.4297 22.3009C28.4533 22.198 28.4534 22.0912 28.43 21.9884C27.6613 18.5429 24.5858 15.9673 20.9087 15.9673C17.2315 15.9673 14.1561 18.5429 13.3874 21.9884C13.364 22.0913 13.3641 22.1981 13.3878 22.3009C13.4114 22.4037 13.4579 22.4998 13.5239 22.5821C13.5899 22.6645 13.6736 22.7308 13.7688 22.7762C13.864 22.8217 13.9682 22.8451 14.0737 22.8446ZM19.772 29.8673C20.4386 29.9487 20.9862 29.748 21.1717 29.0556C21.3385 28.433 20.945 27.8489 20.3585 27.6436C18.4657 27.2965 16.6317 26.6335 15.1895 26.112C13.12 25.3638 12.5796 25.1879 10.5382 26.3698L6.86636 28.4958L9.91558 33.8836L10.1566 33.7445C10.2991 33.6623 10.4684 33.6402 10.6273 33.6828L18.9065 35.8993C20.1082 36.2212 20.8372 36.0921 21.8515 35.4675L33.2212 28.4665C33.5754 28.2484 33.7495 27.7421 33.6982 27.247C33.6561 26.8419 33.4594 26.4755 33.0867 26.2867C32.4953 25.9872 31.4681 26.0766 29.8793 27.002L23.5899 30.6652C23.0846 30.9595 22.5647 31.1465 22.025 31.2371C20.4656 31.499 18.1169 30.7639 16.7203 30.3651C16.2715 30.237 15.816 30.1068 15.371 29.9876C15.2908 29.9673 15.2155 29.9313 15.1494 29.8817C15.0833 29.832 15.0277 29.7698 14.9859 29.6985C14.944 29.6272 14.9168 29.5483 14.9057 29.4664C14.8945 29.3845 14.8998 29.3012 14.9211 29.2213C14.9425 29.1415 14.9795 29.0666 15.03 29.0012C15.0805 28.9357 15.1434 28.881 15.2153 28.84C15.2871 28.7991 15.3663 28.7729 15.4484 28.7629C15.5304 28.7528 15.6137 28.7592 15.6932 28.7816C17.0506 29.1452 18.3964 29.5824 19.772 29.8673ZM4.97237 27.687L9.94292 36.4697C10.1832 36.8944 10.0325 37.4384 9.60776 37.6787L7.91706 38.6356C7.49237 38.8759 6.94831 38.7252 6.708 38.3005L1.73745 29.5178C1.49714 29.0931 1.64792 28.5491 2.07261 28.3088L3.76331 27.3519C4.18792 27.1116 4.73206 27.2623 4.97237 27.687ZM3.83261 29.0035C3.75417 29.015 3.67875 29.0418 3.61067 29.0824C3.54259 29.123 3.48318 29.1766 3.43583 29.2402C3.38847 29.3038 3.35411 29.376 3.3347 29.4529C3.31528 29.5298 3.3112 29.6097 3.32269 29.6881C3.33995 29.8063 3.39187 29.9166 3.47186 30.0053C3.55186 30.0939 3.65634 30.1568 3.7721 30.1861C3.88786 30.2154 4.0097 30.2096 4.1222 30.1696C4.23471 30.1296 4.33282 30.0572 4.40415 29.9614C4.47547 29.8657 4.51679 29.7509 4.5229 29.6317C4.529 29.5124 4.4996 29.3941 4.43842 29.2915C4.37724 29.189 4.28703 29.1069 4.1792 29.0556C4.07136 29.0044 3.95075 28.9862 3.83261 29.0035ZM3.44097 16.8487C3.58605 14.5902 4.17987 12.4522 5.13464 10.5239L7.693 12.0009C6.98948 13.4873 6.53706 15.1221 6.38737 16.8487H3.44097ZM6.21464 8.65633C7.43886 6.82398 9.01152 5.25031 10.8431 4.02492L12.305 6.55703C10.9157 7.51703 9.71628 8.72883 8.76425 10.1283L6.21464 8.65633ZM12.7105 2.94445C14.6371 1.98984 16.7745 1.39492 19.0366 1.25039V4.18438C17.2959 4.31672 15.6573 4.7668 14.1719 5.47563L12.7105 2.94445ZM21.1939 1.25V4.18484C28.3042 4.73336 33.9029 10.6765 33.9029 17.9274C33.9029 18.5079 33.8668 19.0799 33.7971 19.6415H32.8336C32.5517 19.6415 32.3945 19.9655 32.5689 20.187L35.1714 23.4925C35.3063 23.6638 35.566 23.6638 35.7009 23.4925L38.3034 20.187C38.4778 19.9655 38.3205 19.6416 38.0386 19.6415H36.7448C36.8028 19.072 36.8318 18.4999 36.8317 17.9274C36.8317 9.05851 29.923 1.80437 21.1939 1.25Z" fill="white"/>
</svg>
