<svg width="40" height="34" viewBox="0 0 40 34" fill="none" xmlns="http://www.w3.org/2000/svg">
<path fill-rule="evenodd" clip-rule="evenodd" d="M20.5156 0.0087906C17.0199 -0.108052 13.5849 0.942657 10.7528 2.99505C7.92068 5.04745 5.85277 7.98463 4.8755 11.3429C4.59487 11.3112 4.25943 11.3273 3.86163 11.44C2.37351 11.8614 1.25503 13.0795 0.752119 14.1532C0.0998418 15.5498 -0.175251 17.401 0.115432 19.3081C0.403601 21.2151 1.20776 22.7842 2.21358 23.7583C3.22192 24.73 4.36152 25.0493 5.49308 24.8084C7.17783 24.4524 8.01317 24.1828 7.7773 22.6137L6.63569 15.0046C6.75094 12.9337 7.34639 10.9179 8.37494 9.11668C9.4035 7.31548 10.837 5.77825 12.562 4.62653C14.8865 3.07189 17.6398 2.28481 20.4348 2.37592C23.2298 2.46703 25.9259 3.43175 28.1443 5.13447C29.6758 6.30885 30.9352 7.80069 31.8359 9.5076C32.7366 11.2145 33.2574 13.0961 33.3625 15.0232L32.5634 20.3436C31.6975 22.7196 30.1754 24.8013 28.174 26.347C26.1725 27.8927 23.7736 28.839 21.2559 29.0761H17.8532C17.6451 29.0755 17.439 29.116 17.2467 29.1953C17.0543 29.2746 16.8796 29.3911 16.7324 29.5381C16.5852 29.6851 16.4685 29.8597 16.3889 30.052C16.3094 30.2442 16.2687 30.4503 16.269 30.6583V31.4941C16.2687 31.7023 16.3094 31.9084 16.3889 32.1008C16.4684 32.2931 16.5851 32.4679 16.7322 32.6151C16.8794 32.7622 17.0542 32.8789 17.2465 32.9584C17.4389 33.0379 17.645 33.0786 17.8532 33.0783H22.1435C22.3515 33.0786 22.5576 33.0379 22.7498 32.9584C22.9421 32.8788 23.1167 32.7621 23.2637 32.6149C23.4107 32.4677 23.5272 32.2929 23.6065 32.1006C23.6858 31.9083 23.7263 31.7022 23.7257 31.4941V31.0591C27.5803 30.1146 30.9386 27.7545 33.1331 24.4478L34.5081 24.8094C35.6266 25.1001 36.7793 24.731 37.7876 23.7593C38.7934 22.7852 39.5981 21.2161 39.8858 19.3086C40.1764 17.402 39.8938 15.5553 39.2491 14.1537C38.6023 12.7506 37.6382 11.8604 36.5248 11.5431C36.0586 11.4093 35.5532 11.357 35.1181 11.3465C34.1839 8.13014 32.2478 5.29576 29.5916 3.25559C26.9792 1.25292 23.8055 0.117958 20.5156 0.00979635V0.0087906Z" fill="white"/>
<path fill-rule="evenodd" clip-rule="evenodd" d="M23.2733 11.7669H25.6878V16.3062H26.7932V18.0161H25.6878V19.7431H23.5248V18.0166H20.3132V16.3062L23.2733 11.7669ZM16.3342 11.7669C17.1881 11.7669 17.8821 11.9952 18.4192 12.4508C18.9589 12.9095 19.2289 13.517 19.2289 14.2764C19.2289 15.1666 18.8095 15.8827 18.1834 16.3484L16.214 17.8154H19.2757V19.7431H13.205V17.9361L15.6331 16.1367C16.1933 15.7193 16.5313 15.3557 16.6807 15.1122C17.1207 14.3921 16.9739 13.5326 16.1566 13.5326C15.5803 13.5326 15.2584 13.9852 15.19 14.892L13.205 14.5042C13.3514 13.5789 13.7105 12.8949 14.2863 12.4458C14.8657 11.9927 15.5486 11.7669 16.3342 11.7669ZM19.9994 4.86842C13.97 4.86842 9.11133 9.56462 9.11133 15.7565C9.11133 18.7302 10.2348 21.3539 12.0659 23.2826L11.4162 26.1974C11.2014 27.1565 11.8668 27.8007 12.7288 27.3184L15.5727 25.7312C16.9701 26.3357 18.4769 26.6458 19.9994 26.642C26.0318 26.642 30.8879 21.9463 30.8879 15.756C30.8879 9.56462 26.0318 4.86792 19.9999 4.86792L19.9994 4.86842Z" fill="white"/>
<path fill-rule="evenodd" clip-rule="evenodd" d="M23.5263 13.9595L22.0352 16.3066H23.5258L23.5263 13.9595Z" fill="white"/>
</svg>
