<svg width="40" height="40" viewBox="0 0 40 40" fill="none" xmlns="http://www.w3.org/2000/svg">
<g clip-path="url(#clip0_655_992)">
<path d="M34.0809 8.13965C33.6056 6.23661 32.5432 4.51075 31.0379 3.21801C29.3132 1.737 27.113 0.92145 24.8423 0.92145C23.1387 0.92145 21.507 1.36075 20.0667 2.20004C18.5415 0.8052 16.5416 0.0216064 14.4402 0.0216064C9.93297 0.0216064 6.24906 3.61465 6.10203 8.08669C4.54383 8.52223 3.13297 9.40879 2.05445 10.6454C0.730195 12.1632 0.000381951 14.1092 0 16.1235C0 20.7237 3.7425 24.4662 8.34273 24.4662H31.6573C36.2575 24.4662 40 20.7237 40 16.1235C40 12.4351 37.5537 9.19497 34.0809 8.13965ZM12.5781 26.8101V29.0406H8.42992C7.91836 27.2394 6.25984 25.9158 4.29688 25.9158C1.92758 25.9158 0 27.8434 0 30.2127C0 32.582 1.92758 34.5096 4.29688 34.5096C6.26 34.5096 7.91859 33.1857 8.43008 31.3843H13.75C14.3969 31.3843 14.9219 30.8601 14.9219 30.2125V26.8101H12.5781ZM21.1719 31.5483V26.8101H18.8281V31.5483C17.0268 32.0598 15.7031 33.7184 15.7031 35.6814C15.7031 38.0507 17.6307 39.9783 20 39.9783C22.3693 39.9783 24.2969 38.0507 24.2969 35.6814C24.2969 33.7184 22.9732 32.0598 21.1719 31.5483ZM35.7031 25.9158C33.7402 25.9158 32.0816 27.2394 31.5701 29.0406H27.4219V26.8101H25.0781V30.2125C25.0781 30.8601 25.6031 31.3843 26.25 31.3843H31.5699C32.0814 33.1857 33.74 34.5096 35.7031 34.5096C38.0724 34.5096 40 32.582 40 30.2127C40 27.8434 38.0724 25.9158 35.7031 25.9158Z" fill="white"/>
</g>
<defs>
<clipPath id="clip0_655_992">
<rect width="40" height="40" fill="white"/>
</clipPath>
</defs>
</svg>
