<svg width="40" height="37" viewBox="0 0 40 37" fill="none" xmlns="http://www.w3.org/2000/svg">
<path d="M38.9011 19.9287H25.0381C24.4322 19.9287 23.9384 20.4226 23.9384 21.0283C23.9384 21.3369 24.0695 21.6148 24.2739 21.8153L34.0356 31.577C34.1387 31.6878 34.2635 31.7762 34.4023 31.8366C34.5411 31.8971 34.6909 31.9283 34.8422 31.9282C35.0229 31.9286 35.2008 31.8845 35.3603 31.7997C35.5198 31.7149 35.6559 31.592 35.7565 31.442C38.1565 28.6562 39.6999 25.1181 39.9778 21.225C39.9931 21.1605 40.0008 21.0945 40.0009 21.0282C40.0009 20.8838 39.9725 20.7407 39.9172 20.6073C39.862 20.4739 39.781 20.3526 39.6789 20.2505C39.5767 20.1484 39.4555 20.0674 39.322 20.0122C39.1886 19.957 39.0456 19.9286 38.9011 19.9287ZM20.8516 0C20.2458 0.00370406 19.7559 0.493874 19.7559 1.09961V16.5061C19.7559 17.1158 20.2458 17.6097 20.8516 17.6097H36.2621C36.868 17.6097 37.3617 17.1158 37.3617 16.5061C36.8176 7.63975 29.722 0.544126 20.8516 0Z" fill="white"/>
<path d="M29.3199 30.6781L17.9532 19.3113C17.7603 19.1145 17.6446 18.8405 17.6446 18.5435L17.6406 2.48861C17.6407 2.34468 17.6124 2.20214 17.5574 2.06915C17.5023 1.93616 17.4216 1.81533 17.3198 1.71355C17.2181 1.61178 17.0972 1.53107 16.9642 1.47604C16.8312 1.421 16.6887 1.39273 16.5448 1.39282C7.31168 1.95621 0 9.62657 0 18.9988C0 28.7412 7.89828 36.6432 17.6406 36.6432C22.0854 36.6432 26.1445 34.9996 29.2466 32.287C29.369 32.1845 29.4673 32.0564 29.5346 31.9118C29.602 31.7671 29.6367 31.6094 29.6364 31.4498C29.6362 31.161 29.5225 30.8839 29.3199 30.6781Z" fill="white"/>
</svg>
