<svg width="40" height="40" viewBox="0 0 40 40" fill="none" xmlns="http://www.w3.org/2000/svg">
<path d="M29.9998 20.0001C30.0084 11.4715 19.8384 6.85507 13.457 12.4501C8.89267 16.2065 8.89124 23.7944 13.457 27.5501C19.8391 33.1451 30.0091 28.5286 29.9998 20.0001ZM25.3212 24.8501C25.0498 25.1715 24.6427 25.3572 24.2212 25.3572H15.7784C14.9298 25.3772 14.202 24.5544 14.357 23.7144C14.5065 22.7884 14.8828 21.9137 15.4524 21.1685C16.0219 20.4232 16.767 19.8304 17.6212 19.4429C15.1941 17.3608 16.7548 13.1679 19.9998 13.2144C23.2455 13.1708 24.807 17.3579 22.3784 19.4429C23.2326 19.8304 23.9777 20.4232 24.5472 21.1685C25.1168 21.9137 25.4931 22.7884 25.6427 23.7144C25.707 24.1215 25.5927 24.5358 25.3212 24.8501Z" fill="white"/>
<path d="M20 20.3571C17.8857 20.3571 16.1071 21.8643 15.7714 23.9429C15.7857 23.9357 24.2271 23.9429 24.2357 23.9214C23.8929 21.8643 22.1143 20.3571 20 20.3571ZM20 18.9286C22.825 18.85 22.8243 14.7207 20 14.6429C17.1757 14.7214 17.1764 18.8507 20 18.9286ZM19.2857 5.62143C23.4521 6.47286 24.2757 0.237857 20 0C16.6557 0.0385714 16.0886 4.77429 19.2857 5.62143ZM19.2857 7.08571V8.59286C19.7615 8.5614 20.2389 8.56378 20.7143 8.6V7.08571C20.2411 7.16082 19.7589 7.16082 19.2857 7.08571ZM7.87857 10.7357C11.655 10.6186 11.6543 5.13643 7.87857 5.02143C4.11143 5.11571 4.11143 10.6421 7.87857 10.7357ZM11.4357 12.4429C11.7429 12.0929 12.0786 11.75 12.4429 11.4357L11.3714 10.3643C11.0944 10.754 10.754 11.0944 10.3643 11.3714L11.4357 12.4429ZM5.71429 20C5.605 16.2393 0.122143 16.2093 0 20C0.123571 23.7914 5.605 23.76 5.71429 20ZM7.08571 19.2857C7.16082 19.7589 7.16082 20.2411 7.08571 20.7143H8.59286C8.56137 20.2385 8.56375 19.7611 8.6 19.2857H7.08571ZM9.9 30.1C7.12857 27.5771 3.27286 31.3593 5.85714 34.1429C8.59643 36.7357 12.4914 32.8357 9.9 30.1ZM11.4357 27.5571L10.3571 28.6357C10.745 28.8957 11.1086 29.2571 11.3714 29.6357L12.4429 28.5643C12.0929 28.2643 11.75 27.9214 11.4357 27.5571ZM20.7143 34.3786C16.5486 33.5271 15.725 39.7621 20 40C23.345 39.9614 23.9121 35.2257 20.7143 34.3786ZM20.7143 32.9143V31.4071C20.2657 31.4343 19.745 31.4407 19.2857 31.4V32.9214C19.7236 32.8336 20.2693 32.8414 20.7143 32.9143ZM30.6786 29.6643C27.1079 31.9914 30.9693 37 34.1429 34.1429C36.4643 31.7329 33.58 28.0643 30.6786 29.6643ZM28.5643 27.5571C28.2643 27.9071 27.9214 28.25 27.5571 28.5643L28.6286 29.6357C28.9053 29.2434 29.2486 28.9025 29.6429 28.6286L28.5643 27.5571ZM37.1429 17.1429C33.3657 17.2614 33.3679 22.7393 37.1429 22.8571C40.9193 22.7414 40.9193 17.2579 37.1429 17.1429ZM32.9214 20.7143C32.8343 20.2771 32.8414 19.7307 32.9143 19.2857H31.4071C31.4343 19.7343 31.4407 20.2557 31.4 20.7143H32.9214ZM30.1 9.9C32.8371 12.4914 36.7357 8.59429 34.1429 5.85714C31.4043 3.26429 27.5093 7.16429 30.1 9.9ZM28.5643 12.4429L29.6357 11.3714C29.2478 11.0923 28.9077 10.7522 28.6286 10.3643L27.5571 11.4357C27.9 11.7357 28.2429 12.0714 28.5643 12.4429Z" fill="white"/>
</svg>
