<svg width="45" height="45" viewBox="0 0 45 45" fill="none" xmlns="http://www.w3.org/2000/svg">
<path fill-rule="evenodd" clip-rule="evenodd" d="M16.019 43.8135H28.9803C29.222 43.8135 29.4197 43.6158 29.4197 43.3741V35.2565C29.4197 34.0462 29.8513 33.0047 30.7064 32.1487L38.3872 24.4679C39.245 23.6101 39.245 22.2188 38.3872 21.361C37.5294 20.5032 36.1381 20.5032 35.2803 21.361L28.8546 27.7867C27.9985 28.6427 26.957 29.0734 25.7468 29.0734H19.2525C18.0423 29.0734 17.0008 28.6418 16.1447 27.7867L9.71904 21.361C8.86123 20.5032 7.46992 20.5032 6.61211 21.361C5.7543 22.2188 5.7543 23.6101 6.61211 24.4679L14.2929 32.1487C15.1489 33.0047 15.5796 34.0462 15.5796 35.2565V43.3741C15.5796 43.6158 15.7773 43.8135 16.019 43.8135ZM22.7787 2.1973L24.1032 6.30179C24.1428 6.42484 24.2526 6.50482 24.3827 6.50482L28.6955 6.49691C28.9794 6.49691 29.0972 6.86078 28.8678 7.02689L25.3741 9.5555C25.3235 9.59143 25.2858 9.64274 25.2666 9.7018C25.2475 9.76086 25.2479 9.82452 25.2678 9.88333L26.6081 13.9826C26.696 14.2515 26.3857 14.4765 26.1572 14.3104L22.6732 11.7686C22.6234 11.7314 22.5628 11.7112 22.5005 11.7112C22.4383 11.7112 22.3777 11.7314 22.3278 11.7686L18.8438 14.3104C18.6153 14.4765 18.3051 14.2515 18.393 13.9826L19.7333 9.88333C19.7737 9.76029 19.7315 9.63109 19.627 9.5555L16.1333 7.02689C15.9039 6.86078 16.0217 6.49603 16.3056 6.49691L20.6184 6.50482C20.7476 6.50482 20.8574 6.42484 20.8979 6.30179L22.2224 2.1973C22.3094 1.92748 22.6926 1.92748 22.7796 2.1973H22.7787ZM26.5694 3.93226L28.0574 1.88353C28.1257 1.78936 28.1538 1.67191 28.1355 1.55703C28.1172 1.44214 28.054 1.33923 27.9599 1.27093C27.8657 1.20263 27.7482 1.17454 27.6334 1.19284C27.5185 1.21113 27.4156 1.27432 27.3473 1.36849L25.8593 3.41722C25.8255 3.46385 25.8011 3.51668 25.7877 3.5727C25.7743 3.62873 25.7721 3.68684 25.7812 3.74373C25.7902 3.80062 25.8104 3.85516 25.8405 3.90425C25.8707 3.95334 25.9102 3.99601 25.9568 4.02982C26.0035 4.06364 26.0563 4.08795 26.1123 4.10136C26.1683 4.11476 26.2265 4.117 26.2833 4.10794C26.3402 4.09888 26.3948 4.0787 26.4439 4.04856C26.493 4.01841 26.5356 3.9789 26.5694 3.93226ZM28.3738 11.156L30.782 11.9382C31.0123 12.0129 31.2602 11.8872 31.3349 11.657C31.4096 11.4267 31.2839 11.1788 31.0536 11.1041L28.6454 10.3219C28.4151 10.2472 28.1673 10.3729 28.0926 10.6032C28.0179 10.8334 28.1436 11.0813 28.3738 11.156ZM16.3557 10.3219L13.9475 11.1041C13.7172 11.1788 13.5906 11.4267 13.6662 11.657C13.7418 11.8872 13.9888 12.0138 14.219 11.9382L16.6272 11.156C16.8575 11.0813 16.9841 10.8334 16.9085 10.6032C16.8329 10.3729 16.5859 10.2463 16.3557 10.3219ZM19.1418 3.41722L17.6538 1.36849C17.62 1.32186 17.5773 1.28235 17.5282 1.25221C17.4791 1.22207 17.4246 1.2019 17.3677 1.19284C17.3108 1.18378 17.2527 1.18601 17.1967 1.19941C17.1407 1.21281 17.0878 1.23711 17.0412 1.27093C16.9946 1.30475 16.9551 1.34742 16.9249 1.39651C16.8948 1.4456 16.8746 1.50014 16.8656 1.55703C16.8565 1.61391 16.8587 1.67202 16.8721 1.72804C16.8855 1.78407 16.9098 1.8369 16.9437 1.88353L18.4316 3.93226C18.4655 3.97889 18.5081 4.0184 18.5572 4.04854C18.6063 4.07868 18.6608 4.09885 18.7177 4.10791C18.7746 4.11697 18.8327 4.11474 18.8888 4.10134C18.9448 4.08794 18.9976 4.06364 19.0442 4.02982C19.0909 3.996 19.1304 3.95333 19.1605 3.90424C19.1907 3.85515 19.2108 3.80061 19.2199 3.74373C19.2289 3.68684 19.2267 3.62873 19.2133 3.57271C19.1999 3.51668 19.1756 3.46385 19.1418 3.41722ZM22.5001 18.6495C24.9602 18.6495 26.9535 20.6438 26.9535 23.103C26.9535 25.5621 24.9593 27.5564 22.5001 27.5564C20.0409 27.5564 18.0467 25.5621 18.0467 23.103C18.0467 20.6438 20.0409 18.6495 22.5001 18.6495Z" fill="white"/>
</svg>
