<svg width="25" height="25" viewBox="0 0 25 25" fill="none" xmlns="http://www.w3.org/2000/svg">
<path fill-rule="evenodd" clip-rule="evenodd" d="M19.069 2.77686L17.1115 5.20215C17.0895 5.22852 17.0856 5.25488 17.1017 5.28516C17.1159 5.31543 17.1374 5.32959 17.1715 5.32959H18.0329C18.1945 5.32959 18.3258 5.46045 18.3258 5.62256V9.18652C18.3478 9.20557 18.3698 9.22461 18.3898 9.24561L18.7746 9.62988C19.0044 9.85874 19.1412 10.1647 19.1585 10.4886C19.1758 10.8124 19.0724 11.1312 18.8683 11.3833L18.5934 11.7212C18.7409 11.957 18.8747 12.1992 18.9918 12.4482H19.7252C19.9206 12.4482 20.0822 12.2886 20.0822 12.0918V5.62207C20.0822 5.46045 20.2135 5.3291 20.3751 5.3291H21.2345C21.2682 5.3291 21.2902 5.31494 21.3043 5.28467C21.3205 5.2544 21.3161 5.22803 21.2965 5.20215L19.3371 2.77686C19.3014 2.73291 19.2594 2.71338 19.2033 2.71338C19.1466 2.71338 19.1051 2.73291 19.069 2.77686ZM14.5221 14.9605L12.9093 16.5742C12.8537 16.6289 12.7799 16.6602 12.7018 16.6602C12.6237 16.6602 12.5504 16.6289 12.4943 16.5742L11.4518 15.5312L9.97671 17.0059C9.9495 17.0332 9.91716 17.0548 9.88154 17.0696C9.84592 17.0843 9.80774 17.0919 9.76919 17.0918C9.69546 17.0918 9.61977 17.063 9.56167 17.0059C9.50702 16.9508 9.47635 16.8764 9.47635 16.7988C9.47635 16.7213 9.50702 16.6468 9.56167 16.5918L11.2443 14.9102C11.298 14.8555 11.3737 14.8242 11.4518 14.8242C11.5294 14.8242 11.6032 14.855 11.6593 14.9102L12.7018 15.9531L14.109 14.5469H13.7062C13.5426 14.5469 13.4132 14.4155 13.4132 14.2539C13.4132 14.0918 13.5426 13.9609 13.7062 13.9609H14.8146C14.9762 13.9609 15.1076 14.0923 15.1076 14.2539V15.3638C15.1076 15.5254 14.9762 15.6567 14.8146 15.6567C14.653 15.6567 14.5216 15.5254 14.5216 15.3638V14.9605H14.5221ZM12.4928 10.6812C15.1637 10.6812 17.3385 12.8545 17.3385 15.5259C17.3385 18.1973 15.1637 20.3706 12.4928 20.3706C9.82143 20.3706 7.64907 18.1973 7.64907 15.5259C7.64858 12.8545 9.82143 10.6812 12.4928 10.6812ZM12.2218 7.50146H12.7663C13.1388 7.50146 13.4499 7.78125 13.4879 8.15185L13.5578 8.79443C13.5695 8.92188 13.6652 9.02588 13.7912 9.05078C14.6383 9.21973 15.4337 9.54932 16.1554 10.0308C16.2609 10.102 16.4025 10.0957 16.5021 10.0151L17.0045 9.6084C17.2956 9.37402 17.7121 9.396 17.9752 9.65967L18.36 10.0444C18.6232 10.3081 18.6452 10.7256 18.4118 11.0156L18.005 11.5186C17.9254 11.6182 17.9171 11.7588 17.9889 11.8652C18.4713 12.5859 18.8004 13.3813 18.9699 14.229C18.9816 14.2903 19.0127 14.3463 19.0587 14.3885C19.1047 14.4307 19.1631 14.457 19.2252 14.4634L19.8693 14.5317C20.2379 14.5708 20.5192 14.8818 20.5192 15.2549V15.7988C20.5192 16.1714 20.2379 16.4824 19.8693 16.5215L19.2252 16.5898C19.0978 16.6035 18.9938 16.6982 18.9699 16.8237C18.8004 17.6709 18.4713 18.4663 17.9889 19.1875C17.9171 19.2939 17.9249 19.4346 18.005 19.5342L18.4118 20.0376C18.5245 20.1772 18.5817 20.3536 18.5721 20.5329C18.5625 20.7121 18.487 20.8815 18.36 21.0083L17.9752 21.3931C17.7121 21.6567 17.2956 21.6787 17.0045 21.4443L16.5021 21.0381C16.4025 20.9575 16.2609 20.9512 16.1554 21.0225C15.4337 21.5039 14.6383 21.833 13.7912 22.002C13.6657 22.0269 13.57 22.1309 13.5578 22.2583L13.4879 22.9009C13.4698 23.0795 13.3859 23.245 13.2525 23.3652C13.1191 23.4854 12.9458 23.5518 12.7663 23.5513H12.2218C11.8493 23.5513 11.5382 23.272 11.4982 22.9009L11.4303 22.2583C11.4162 22.1309 11.3229 22.0269 11.195 22.002C10.3498 21.8335 9.55434 21.5034 8.83266 21.022C8.7842 20.9898 8.72729 20.9726 8.66909 20.9727C8.60512 20.9727 8.5397 20.9946 8.4855 21.0376L7.98305 21.4438C7.69204 21.6782 7.27554 21.6562 7.01235 21.3926L6.62759 21.0078C6.49975 20.8814 6.42361 20.712 6.41404 20.5325C6.40446 20.353 6.46215 20.1764 6.57583 20.0371L6.98257 19.5342C7.02133 19.4854 7.04376 19.4257 7.04665 19.3634C7.04954 19.3012 7.03276 19.2397 6.99868 19.1875C6.51626 18.4668 6.18716 17.6714 6.01772 16.8237C5.9938 16.6978 5.88833 16.603 5.7604 16.5898L5.11831 16.5215C4.7477 16.4824 4.46841 16.1714 4.46841 15.7988V15.2539C4.46841 14.8809 4.7477 14.5703 5.11831 14.5308L5.76235 14.4624C5.8244 14.4558 5.8827 14.4295 5.92867 14.3873C5.97464 14.3451 6.00586 14.2893 6.01772 14.228C6.18716 13.3809 6.51626 12.5854 6.99868 11.8647C7.0685 11.7583 7.06264 11.6177 6.98257 11.5181L6.57583 11.0146C6.46215 10.8753 6.40447 10.6986 6.41404 10.5191C6.42361 10.3395 6.49974 10.1699 6.62759 10.0435L7.01235 9.65869C7.27554 9.39502 7.69204 9.37305 7.98305 9.60742L8.4855 10.0142C8.58511 10.0947 8.72671 10.1011 8.83218 10.0298C9.55385 9.54834 10.3493 9.21875 11.1945 9.0498C11.256 9.03786 11.312 9.00652 11.3544 8.96038C11.3967 8.91424 11.4232 8.85574 11.4298 8.79346L11.4977 8.15088C11.5377 7.78125 11.8488 7.50146 12.2218 7.50146ZM12.4928 10.0952C15.4889 10.0952 17.9249 12.5317 17.9249 15.5259C17.9249 18.52 15.4889 20.9565 12.4928 20.9565C9.49868 20.9565 7.06264 18.52 7.06264 15.5259C7.06264 12.5313 9.49868 10.0952 12.4928 10.0952ZM7.87612 5.20215L5.91665 2.77686C5.88052 2.73291 5.84097 2.71338 5.7853 2.71338C5.72768 2.71338 5.68764 2.73291 5.65151 2.77686L3.69204 5.20215C3.67202 5.22852 3.66811 5.25488 3.68227 5.28516C3.69839 5.31543 3.72036 5.32959 3.75405 5.32959H4.61343C4.77505 5.32959 4.90639 5.46045 4.90639 5.62256V12.0928C4.90639 12.2891 5.06606 12.4492 5.26333 12.4492H5.99673C6.1144 12.2007 6.24575 11.958 6.39321 11.7227L6.12026 11.3843C5.91615 11.1322 5.81275 10.8134 5.83007 10.4895C5.84738 10.1657 5.98418 9.85972 6.21401 9.63086L6.59878 9.24658C6.6188 9.22559 6.64077 9.20654 6.66274 9.1875V5.62354C6.66274 5.46191 6.79409 5.33057 6.95571 5.33057H7.81704C7.85073 5.33057 7.8727 5.31641 7.88686 5.28613C7.90005 5.2544 7.89809 5.22852 7.87612 5.20215ZM14.5861 3.67529L12.6261 1.25C12.5905 1.20605 12.5504 1.18652 12.4923 1.18652C12.4367 1.18652 12.3947 1.20605 12.361 1.25L10.4015 3.67529C10.3795 3.70117 10.3776 3.72754 10.3917 3.75781C10.4059 3.78809 10.4274 3.80225 10.4616 3.80225H11.3229C11.4845 3.80225 11.6159 3.93359 11.6159 4.09522V7.06299C11.7975 6.96826 12.0026 6.91504 12.2218 6.91504H12.7663C12.9835 6.91504 13.1911 6.96826 13.3722 7.06299V4.09522C13.3722 3.93359 13.5036 3.80225 13.6652 3.80225H14.5246C14.5583 3.80225 14.5822 3.78809 14.5963 3.75781C14.61 3.72754 14.6056 3.70117 14.5861 3.67529Z" fill="#17D262"/>
</svg>
