<svg width="30" height="30" viewBox="0 0 30 30" fill="none" xmlns="http://www.w3.org/2000/svg">
<path d="M20.1562 21.0938V18.495C19.5845 18.4427 19.0425 18.2161 18.6036 17.8459C18.1647 17.4758 17.8499 16.9798 17.7019 16.425L17.3438 16.7813V19.2188C17.3445 19.8402 17.5917 20.4359 18.031 20.8753C18.4704 21.3146 19.0661 21.5618 19.6875 21.5625C19.8118 21.5625 19.931 21.5132 20.019 21.4253C20.1069 21.3373 20.1562 21.2181 20.1562 21.0938Z" fill="#386BB7"/>
<path d="M11.2549 14.9466C11.343 14.9024 11.4428 14.887 11.54 14.9028C11.6373 14.9185 11.7272 14.9645 11.7968 15.0342L12.656 15.8934V15.4688C12.6553 15.161 12.7153 14.8561 12.8324 14.5714C12.9496 14.2868 13.1217 14.0281 13.3388 13.81C13.7774 13.3695 14.373 13.1212 14.9946 13.1198C15.6162 13.1185 16.2129 13.3641 16.6534 13.8027C17.0939 14.2412 17.3421 14.8368 17.3435 15.4584L17.7677 15.0342C17.8373 14.9639 17.9273 14.9173 18.0249 14.9013C18.1225 14.8852 18.2227 14.9004 18.3111 14.9447C18.3995 14.989 18.4717 15.0602 18.5172 15.148C18.5628 15.2358 18.5793 15.3358 18.5646 15.4336C18.5095 15.823 18.5782 16.22 18.7611 16.5682C18.944 16.9164 19.2318 17.1983 19.5837 17.3739C19.9356 17.5496 20.3338 17.6102 20.7221 17.547C21.1103 17.4839 21.4688 17.3003 21.7469 17.0222C22.0251 16.7441 22.2087 16.3855 22.2718 15.9973C22.3349 15.6091 22.2744 15.2108 22.0987 14.8589C21.923 14.507 21.6411 14.2192 21.2929 14.0364C20.9447 13.8535 20.5478 13.7847 20.1584 13.8398C20.0605 13.8546 19.9606 13.838 19.8728 13.7925C19.7849 13.7469 19.7138 13.6748 19.6695 13.5864C19.6251 13.4979 19.6099 13.3977 19.626 13.3001C19.6421 13.2025 19.6886 13.1125 19.759 13.043L22.7416 10.0556L20.6407 7.95516C20.4468 8.36118 20.1583 8.71475 19.7994 8.98618C19.4406 9.25761 19.0219 9.43898 18.5784 9.51507C18.1349 9.59116 17.6797 9.55973 17.2509 9.42344C16.8221 9.28715 16.4322 9.04997 16.1141 8.73181C15.7959 8.41365 15.5587 8.0238 15.4224 7.595C15.2861 7.16619 15.2547 6.71094 15.3308 6.26747C15.4069 5.82401 15.5883 5.40527 15.8597 5.04642C16.1311 4.68756 16.4847 4.39907 16.8907 4.20516L14.7841 2.10657L11.7968 5.08922C11.7273 5.15957 11.6372 5.20611 11.5396 5.22219C11.442 5.23827 11.3418 5.22306 11.2534 5.17874C11.165 5.13442 11.0928 5.06326 11.0473 4.97545C11.0018 4.88763 10.9852 4.78766 10.9999 4.68985C11.0408 4.40227 11.0144 4.10911 10.9226 3.83351C10.8308 3.55791 10.6763 3.30739 10.4712 3.10172C10.1138 2.76127 9.63913 2.57137 9.14555 2.57137C8.65196 2.57137 8.1773 2.76127 7.81992 3.10172C7.54279 3.38012 7.36009 3.73853 7.29762 4.12635C7.23515 4.51417 7.29606 4.91182 7.47176 5.26316C7.64745 5.6145 7.92906 5.90178 8.27682 6.08446C8.62458 6.26713 9.02093 6.33597 9.40992 6.28125C9.50774 6.26652 9.6077 6.2831 9.69552 6.32864C9.78333 6.37417 9.8545 6.44632 9.89882 6.53475C9.94314 6.62318 9.95835 6.72337 9.94227 6.82097C9.92619 6.91857 9.87964 7.00859 9.8093 7.07813L6.82617 10.0594L9.80977 13.0467C9.88017 13.1163 9.92675 13.2064 9.94283 13.304C9.95891 13.4017 9.94366 13.5019 9.89927 13.5904C9.85488 13.6788 9.78363 13.751 9.69573 13.7965C9.60782 13.842 9.50778 13.8585 9.40992 13.8436C9.02048 13.7885 8.62357 13.8572 8.27535 14.0401C7.92713 14.223 7.64525 14.5108 7.46958 14.8627C7.29391 15.2146 7.23335 15.6128 7.29648 16.001C7.35961 16.3893 7.54323 16.7478 7.82135 17.0259C8.09947 17.304 8.45801 17.4877 8.84623 17.5508C9.23445 17.6139 9.6327 17.5534 9.98461 17.3777C10.3365 17.202 10.6243 16.9201 10.8072 16.5719C10.99 16.2237 11.0588 15.8268 11.0037 15.4373C10.9883 15.3395 11.0044 15.2393 11.0495 15.1511C11.0946 15.0629 11.1666 14.9913 11.2549 14.9466Z" fill="#386BB7"/>
<path d="M16.5544 27.2489L17.0231 26.3114C17.2499 25.8556 17.368 25.3534 17.368 24.8443C17.368 24.3351 17.2499 23.8329 17.0231 23.3771L16.8516 23.033C16.5594 22.4468 16.407 21.8008 16.4062 21.1458V15.4688C16.4062 15.0958 16.2581 14.7381 15.9944 14.4744C15.7306 14.2107 15.373 14.0625 15 14.0625C14.627 14.0625 14.2694 14.2107 14.0056 14.4744C13.7419 14.7381 13.5938 15.0958 13.5938 15.4688V22.0313C13.5938 22.1556 13.5444 22.2748 13.4565 22.3627C13.3685 22.4506 13.2493 22.5 13.125 22.5C13.0007 22.5 12.8815 22.4506 12.7935 22.3627C12.7056 22.2748 12.6562 22.1556 12.6562 22.0313V17.2191L11.8622 16.4255C11.7024 17.0232 11.3496 17.5513 10.8587 17.9279C10.3678 18.3044 9.76632 18.5082 9.14766 18.5077C9.09797 18.5077 9.04969 18.503 9.00047 18.5007L7.85391 21.8007C7.75926 22.0032 7.71367 22.2252 7.72084 22.4487C7.728 22.6722 7.78772 22.8908 7.89516 23.0869C7.90361 23.1021 7.91113 23.1177 7.91766 23.1338L9.5625 27.0263C9.74665 27.37 9.84325 27.7538 9.84375 28.1438V28.5938H16.4062V27.8775C16.4064 27.6594 16.4571 27.4442 16.5544 27.2489ZM28.5938 10.7813H25.7812C25.6569 10.7813 25.5377 10.7319 25.4498 10.644C25.3619 10.5561 25.3125 10.4369 25.3125 10.3125C25.3125 10.1882 25.3619 10.069 25.4498 9.98108C25.5377 9.89317 25.6569 9.84378 25.7812 9.84378H28.5938C28.7181 9.84378 28.8373 9.89317 28.9252 9.98108C29.0131 10.069 29.0625 10.1882 29.0625 10.3125C29.0625 10.4369 29.0131 10.5561 28.9252 10.644C28.8373 10.7319 28.7181 10.7813 28.5938 10.7813ZM25.2745 5.39066C25.1713 5.39065 25.071 5.3566 24.9892 5.29379C24.9073 5.23097 24.8485 5.1429 24.8218 5.04323C24.7951 4.94356 24.802 4.83787 24.8415 4.74254C24.881 4.64721 24.9508 4.56757 25.0402 4.51597L27.4777 3.10972C27.5853 3.04854 27.7127 3.03241 27.8322 3.06484C27.9516 3.09727 28.0534 3.17564 28.1153 3.28283C28.1772 3.39003 28.1942 3.51736 28.1625 3.63703C28.1309 3.7567 28.0532 3.85899 27.9464 3.9216L25.5089 5.32785C25.4377 5.36916 25.3568 5.39083 25.2745 5.39066ZM27.7097 17.5782C27.6274 17.5783 27.5465 17.5567 27.4753 17.5153L25.0378 16.1091C24.9841 16.0785 24.9369 16.0377 24.899 15.9888C24.8612 15.9399 24.8333 15.8841 24.8171 15.8244C24.8009 15.7648 24.7967 15.7025 24.8047 15.6412C24.8126 15.5799 24.8326 15.5208 24.8635 15.4672C24.8945 15.4137 24.9357 15.3668 24.9848 15.3292C25.0339 15.2917 25.0899 15.2642 25.1497 15.2484C25.2094 15.2326 25.2717 15.2288 25.333 15.2372C25.3942 15.2455 25.4532 15.266 25.5066 15.2972L27.9441 16.7035C28.0334 16.7551 28.1033 16.8347 28.1427 16.93C28.1822 17.0254 28.1891 17.1311 28.1624 17.2307C28.1357 17.3304 28.0769 17.4185 27.995 17.4813C27.9132 17.5441 27.8129 17.5782 27.7097 17.5782ZM4.21875 10.7813H1.40625C1.28193 10.7813 1.1627 10.7319 1.07479 10.644C0.986886 10.5561 0.9375 10.4369 0.9375 10.3125C0.9375 10.1882 0.986886 10.069 1.07479 9.98108C1.1627 9.89317 1.28193 9.84378 1.40625 9.84378H4.21875C4.34307 9.84378 4.4623 9.89317 4.55021 9.98108C4.63811 10.069 4.6875 10.1882 4.6875 10.3125C4.6875 10.4369 4.63811 10.5561 4.55021 10.644C4.4623 10.7319 4.34307 10.7813 4.21875 10.7813ZM4.72547 5.39066C4.64316 5.39083 4.56228 5.36916 4.49109 5.32785L2.05359 3.9216C1.94681 3.85899 1.86912 3.7567 1.83748 3.63703C1.80584 3.51736 1.82282 3.39003 1.88471 3.28283C1.94661 3.17564 2.04839 3.09727 2.16784 3.06484C2.2873 3.03241 2.41474 3.04854 2.52234 3.10972L4.95984 4.51597C5.0492 4.56757 5.11904 4.64721 5.15852 4.74254C5.19801 4.83787 5.20493 4.94356 5.17823 5.04323C5.15152 5.1429 5.09267 5.23097 5.01081 5.29379C4.92895 5.3566 4.82865 5.39065 4.72547 5.39066ZM2.29031 17.5782C2.18713 17.5782 2.08683 17.5441 2.00497 17.4813C1.92311 17.4185 1.86426 17.3304 1.83756 17.2307C1.81085 17.1311 1.81778 17.0254 1.85726 16.93C1.89674 16.8347 1.96658 16.7551 2.05594 16.7035L4.49344 15.2972C4.54677 15.266 4.60576 15.2455 4.667 15.2372C4.72825 15.2288 4.79055 15.2326 4.85032 15.2484C4.91008 15.2642 4.96613 15.2917 5.01524 15.3292C5.06435 15.3668 5.10554 15.4137 5.13645 15.4672C5.16736 15.5208 5.18738 15.5799 5.19534 15.6412C5.20331 15.7025 5.19908 15.7648 5.18288 15.8244C5.16668 15.8841 5.13884 15.9399 5.10097 15.9888C5.06309 16.0377 5.01593 16.0785 4.96219 16.1091L2.52469 17.5153C2.4535 17.5567 2.37262 17.5783 2.29031 17.5782Z" fill="#386BB7"/>
</svg>
