<svg width="25" height="25" viewBox="0 0 25 25" fill="none" xmlns="http://www.w3.org/2000/svg">
<g clip-path="url(#clip0_675_3911)">
<path fill-rule="evenodd" clip-rule="evenodd" d="M14.9321 14.4297C13.5718 15.5948 11.8045 16.2984 9.87276 16.2984C5.57477 16.2984 2.09124 12.8149 2.09124 8.51692C2.09124 4.21888 5.57477 0.735352 9.87276 0.735352C14.1708 0.735352 17.6543 4.21888 17.6543 8.51692C17.6543 10.1751 17.1358 11.712 16.2521 12.9744L18.6842 15.3511L18.7764 15.256C19.0464 14.9772 19.4979 14.9705 19.7768 15.2405L24.0504 19.3881C24.3293 19.6581 24.3359 20.1074 24.0637 20.3884L22.5211 21.9775C22.2511 22.2563 21.8018 22.263 21.5207 21.993L17.2493 17.8455C16.9682 17.5755 16.9616 17.124 17.2338 16.8451L17.317 16.7594L14.9321 14.4297ZM9.87276 2.29574C6.43683 2.29574 3.65158 5.08094 3.65158 8.51692C3.65158 11.9529 6.43683 14.7381 9.87276 14.7381C13.3087 14.7381 16.0939 11.9529 16.0939 8.51692C16.0939 5.08094 13.3087 2.29574 9.87276 2.29574ZM7.30315 12.3594C7.21835 12.5585 6.98781 12.6513 6.78869 12.5665C6.58957 12.4816 6.49678 12.2511 6.58163 12.052C6.86283 11.3922 7.06518 10.7016 7.18447 9.99442C7.30673 9.26609 7.34241 8.52462 7.29697 7.78839C7.28364 7.57236 7.44825 7.38619 7.66428 7.37285C7.76807 7.36651 7.87013 7.40162 7.94805 7.47048C8.02597 7.53935 8.07336 7.63632 8.07982 7.74011C8.12889 8.53584 8.09006 9.33722 7.95795 10.1244L7.95786 10.1247C7.82833 10.8928 7.60857 11.6429 7.30315 12.3594ZM9.70854 7.63722C9.70204 7.53342 9.73702 7.43129 9.80578 7.35328C9.87455 7.27526 9.97147 7.22773 10.0753 7.22114C10.179 7.21464 10.2812 7.24962 10.3592 7.31838C10.4372 7.38714 10.4847 7.48407 10.4913 7.58785C10.571 8.85177 10.476 10.262 10.0794 11.7181C10.052 11.8185 9.98595 11.9038 9.89567 11.9554C9.80539 12.0071 9.69831 12.0207 9.59795 11.9934C9.38913 11.9366 9.2658 11.7208 9.32266 11.512C9.69477 10.1459 9.7833 8.82295 9.70854 7.63722ZM8.60629 12.2019C8.57111 12.2998 8.49852 12.3797 8.40447 12.424C8.31042 12.4684 8.2026 12.4736 8.10472 12.4385C8.00686 12.4033 7.92698 12.3307 7.88262 12.2366C7.83826 12.1426 7.83306 12.0348 7.86815 11.9369C8.07196 11.3679 8.22478 10.782 8.32482 10.186C8.3608 9.97261 8.5633 9.82854 8.77673 9.86452C8.99016 9.9005 9.13423 10.103 9.09825 10.3164C8.99043 10.9583 8.82579 11.5892 8.60629 12.2019ZM7.21462 6.27354C7.17088 6.36788 7.09147 6.441 6.99384 6.47682C6.89622 6.51264 6.78836 6.50823 6.69398 6.46457C6.59965 6.42081 6.52654 6.34138 6.49073 6.24375C6.45492 6.14612 6.45933 6.03826 6.503 5.94388C7.1131 4.62687 8.39781 3.74545 9.85197 3.65471C10.068 3.64123 10.2543 3.80565 10.2678 4.02168C10.2813 4.2377 10.1168 4.42403 9.90085 4.43751C9.32924 4.47323 8.7779 4.66269 8.30507 4.98587C7.83225 5.30904 7.45549 5.75393 7.21462 6.27354ZM9.24124 9.01594C9.23578 9.11979 9.18931 9.21722 9.11204 9.28682C9.03477 9.35642 8.93303 9.3925 8.82918 9.38712C8.72533 9.38163 8.62791 9.33514 8.55831 9.25787C8.48871 9.1806 8.45264 9.07886 8.458 8.97501C8.47981 8.5556 8.47747 8.13528 8.45099 7.71614L8.45094 7.71579C8.39496 6.8105 9.0906 6.02074 9.99712 5.96359L9.99756 5.96354C10.9029 5.90756 11.6926 6.6032 11.7498 7.50972V7.50991C11.8171 8.58653 11.7628 9.67153 11.5834 10.7351C11.5198 11.1162 11.4395 11.4944 11.3429 11.8685C11.3168 11.9692 11.2519 12.0554 11.1623 12.1082C11.0727 12.161 10.9658 12.1761 10.8651 12.1502C10.7644 12.1241 10.6782 12.0592 10.6254 11.9696C10.5726 11.88 10.5575 11.7732 10.5834 11.6725C10.6744 11.3203 10.7499 10.9644 10.8098 10.6056L10.81 10.6049C10.9794 9.60045 11.0306 8.57574 10.967 7.55898C10.9369 7.08266 10.522 6.71707 10.0462 6.74638C9.56987 6.77653 9.20438 7.19158 9.23379 7.66736C9.26197 8.11658 9.26477 8.56672 9.24124 9.01594ZM13.2945 9.03163C13.3031 8.81535 13.4857 8.64677 13.702 8.6554C13.9182 8.66403 14.0868 8.84663 14.0782 9.0629C14.0326 10.2065 13.8685 11.3417 13.5827 12.45C13.5566 12.5506 13.4917 12.6369 13.4021 12.6897C13.3126 12.7425 13.2057 12.7577 13.105 12.7317C13.0043 12.7057 12.918 12.6408 12.8652 12.5512C12.8124 12.4616 12.7973 12.3547 12.8232 12.254C13.0952 11.1997 13.2511 10.1196 13.2945 9.03163ZM11.2527 4.64697C11.1557 4.60926 11.0778 4.5346 11.0359 4.43942C10.994 4.34424 10.9916 4.23632 11.0292 4.13937C11.0669 4.04246 11.1416 3.96448 11.2368 3.92258C11.332 3.88069 11.4399 3.8783 11.5368 3.91594C12.9737 4.47457 13.9618 5.81771 14.0586 7.36452C14.0651 7.46831 14.0301 7.57042 13.9613 7.6484C13.8925 7.72638 13.7955 7.77386 13.6917 7.7804C13.5879 7.78684 13.4858 7.75182 13.4079 7.68302C13.3299 7.61422 13.2824 7.51728 13.2758 7.41349C13.1982 6.17256 12.4054 5.09511 11.2527 4.64697ZM8.31702 6.65932C8.26759 6.75081 8.18386 6.81893 8.08424 6.84871C7.98461 6.8785 7.87724 6.86753 7.7857 6.81819C7.6942 6.76878 7.62606 6.68506 7.59626 6.58543C7.56646 6.4858 7.57744 6.37841 7.62678 6.28687C8.07335 5.45918 8.92374 4.87197 9.92452 4.80962C11.4654 4.71251 12.8077 5.89638 12.9038 7.43726C12.9459 8.10383 12.9446 8.77243 12.9 9.43883C12.893 9.54259 12.8451 9.63933 12.7668 9.70777C12.6885 9.77621 12.5862 9.81076 12.4824 9.80383C12.3787 9.79679 12.282 9.74885 12.2135 9.67055C12.1451 9.59225 12.1105 9.48999 12.1175 9.38623C12.1599 8.75437 12.1608 8.11991 12.121 7.48628V7.48609C12.0517 6.3756 11.0843 5.52236 9.97379 5.59236L9.97344 5.59241C9.25158 5.63731 8.63913 6.06231 8.31702 6.65932ZM11.9803 10.6144C11.9961 10.5116 12.052 10.4193 12.1358 10.3577C12.2196 10.2962 12.3245 10.2704 12.4273 10.2861C12.5301 10.3019 12.6224 10.3578 12.6839 10.4417C12.7455 10.5255 12.7712 10.6303 12.7556 10.7331C12.6881 11.1721 12.6006 11.6078 12.4931 12.0387C12.4408 12.2488 12.2279 12.3768 12.0179 12.3246C11.917 12.2994 11.8302 12.2352 11.7766 12.1461C11.723 12.057 11.707 11.9502 11.732 11.8493C11.8337 11.4417 11.9165 11.0296 11.9803 10.6144ZM6.42844 11.421C6.39337 11.5189 6.32087 11.5989 6.22686 11.6433C6.13286 11.6878 6.02505 11.6931 5.92712 11.6581C5.82922 11.6231 5.74925 11.5505 5.70479 11.4565C5.66032 11.3625 5.65499 11.2547 5.68996 11.1568C6.06727 10.102 6.21237 8.98388 6.14212 7.86148C6.13566 7.75768 6.17069 7.65556 6.23949 7.57757C6.30829 7.49958 6.40524 7.45209 6.50903 7.44555C6.61282 7.43912 6.71492 7.47415 6.7929 7.54295C6.87088 7.61174 6.91836 7.70868 6.92491 7.81246C7.00183 9.04163 6.84163 10.2659 6.42844 11.421ZM4.71839 24.2648C2.52433 24.2648 0.734375 22.476 0.734375 20.282C0.734375 18.0879 2.52433 16.298 4.71839 16.298C6.91242 16.298 8.70119 18.0879 8.70119 20.282C8.70119 22.476 6.91242 24.2648 4.71839 24.2648ZM4.19541 20.6326L3.30521 19.7424C3.07462 19.5118 2.70021 19.5118 2.46967 19.7424C2.23908 19.9741 2.23908 20.3473 2.46967 20.5779L3.77825 21.8877C4.00884 22.1182 4.3832 22.1182 4.61379 21.8877C5.40295 21.0985 6.18266 20.301 6.9683 19.5082C7.19766 19.2764 7.19648 18.9032 6.9659 18.6738C6.73536 18.4445 6.36094 18.4456 6.13153 18.6762L4.19541 20.6326Z" fill="#FF4D69"/>
</g>
<defs>
<clipPath id="clip0_675_3911">
<rect width="25" height="25" fill="white"/>
</clipPath>
</defs>
</svg>
