<svg width="25" height="25" viewBox="0 0 25 25" fill="none" xmlns="http://www.w3.org/2000/svg">
<g clip-path="url(#clip0_675_3891)">
<path fill-rule="evenodd" clip-rule="evenodd" d="M12.4886 0.0198975C19.3917 0.0198975 24.9886 5.61497 24.9886 12.5216C24.9886 19.4247 19.3918 25.0198 12.4886 25.0198C5.58535 25.0198 -0.0117188 19.4247 -0.0117188 12.5216C-0.0117188 5.61477 5.58511 0.0198975 12.4886 0.0198975ZM12.4867 15.4163C13.0373 15.4163 13.5755 15.253 14.0333 14.947C14.4912 14.6411 14.848 14.2063 15.0586 13.6975C15.2693 13.1888 15.3244 12.629 15.217 12.089C15.1095 11.549 14.8444 11.0529 14.455 10.6636C14.0657 10.2742 13.5696 10.0091 13.0295 9.90166C12.4895 9.79424 11.9297 9.84938 11.421 10.0601C10.9123 10.2708 10.4775 10.6276 10.1716 11.0855C9.86566 11.5433 9.70236 12.0815 9.70234 12.6322C9.70322 13.3703 9.99686 14.078 10.5188 14.5999C11.0408 15.1219 11.7485 15.4155 12.4867 15.4163ZM8.42075 11.5488C8.41122 11.5847 8.39117 11.6169 8.36318 11.6412C8.33519 11.6656 8.30055 11.681 8.26372 11.6855L7.32026 11.8014C7.31309 11.8021 7.30642 11.8054 7.30162 11.8108C7.29682 11.8162 7.29423 11.8232 7.29438 11.8304V13.4338C7.29425 13.441 7.29685 13.448 7.30165 13.4534C7.30645 13.4587 7.31309 13.4621 7.32026 13.4628L8.26372 13.5787C8.30054 13.5832 8.33517 13.5987 8.36315 13.623C8.39114 13.6474 8.41119 13.6796 8.42075 13.7154C8.51606 14.0746 8.65892 14.4194 8.84556 14.7408C8.86425 14.7729 8.87287 14.8099 8.87031 14.8469C8.86775 14.884 8.85413 14.9194 8.8312 14.9487L8.2458 15.698C8.24128 15.7035 8.23903 15.7106 8.23949 15.7178C8.23995 15.7249 8.24309 15.7317 8.24829 15.7366L9.38213 16.8704C9.387 16.8756 9.39368 16.8788 9.4008 16.8792C9.40792 16.8796 9.41494 16.8773 9.42041 16.8727L10.1699 16.2873C10.1991 16.2645 10.2346 16.2509 10.2716 16.2484C10.3086 16.2459 10.3455 16.2545 10.3776 16.2731C10.6991 16.4596 11.0439 16.6025 11.403 16.6979C11.4388 16.7076 11.471 16.7276 11.4953 16.7556C11.5197 16.7836 11.5351 16.8182 11.5397 16.855L11.6557 17.7986C11.6563 17.8057 11.6596 17.8123 11.6649 17.817C11.6703 17.8218 11.6772 17.8243 11.6843 17.8241H13.288C13.2952 17.8244 13.3022 17.8218 13.3075 17.8171C13.3129 17.8123 13.3162 17.8057 13.3168 17.7986L13.4333 16.855C13.4379 16.8182 13.4534 16.7836 13.4777 16.7556C13.5021 16.7277 13.5342 16.7076 13.57 16.698C13.9292 16.6025 14.274 16.4597 14.5954 16.2732C14.6275 16.2545 14.6644 16.2459 14.7014 16.2485C14.7384 16.251 14.7738 16.2646 14.803 16.2874L15.5524 16.8728C15.5579 16.8774 15.565 16.8797 15.5721 16.8793C15.5793 16.8789 15.586 16.8757 15.5909 16.8705L16.7247 15.7367C16.7299 15.7318 16.733 15.725 16.7335 15.7179C16.7339 15.7107 16.7317 15.7036 16.7271 15.6981L16.1419 14.9488C16.119 14.9195 16.1054 14.8841 16.1028 14.847C16.1003 14.81 16.1089 14.773 16.1276 14.7409C16.3141 14.4195 16.457 14.0747 16.5524 13.7155C16.562 13.6797 16.5821 13.6475 16.6101 13.6231C16.6381 13.5988 16.6727 13.5833 16.7096 13.5788L17.653 13.4629C17.6602 13.4622 17.6668 13.4588 17.6716 13.4534C17.6764 13.4481 17.6789 13.4411 17.6788 13.4339V11.8306C17.6789 11.8234 17.6764 11.8164 17.6716 11.811C17.6668 11.8057 17.6602 11.8023 17.653 11.8016L16.7097 11.6857C16.6728 11.6812 16.6382 11.6657 16.6102 11.6414C16.5822 11.617 16.5621 11.5848 16.5525 11.549C16.457 11.1898 16.3142 10.845 16.1277 10.5236C16.109 10.4915 16.1004 10.4545 16.103 10.4175C16.1055 10.3805 16.1191 10.3451 16.142 10.3158L16.7274 9.56653C16.7319 9.56096 16.7342 9.55389 16.7337 9.54673C16.7333 9.53957 16.7301 9.53284 16.7249 9.52791L15.5911 8.39412C15.5862 8.38886 15.5795 8.38568 15.5724 8.38525C15.5652 8.38481 15.5582 8.38715 15.5527 8.39177L14.8031 8.97708C14.7739 8.9999 14.7385 9.01344 14.7015 9.01598C14.6645 9.01851 14.6276 9.00991 14.5955 8.99128C14.2741 8.80479 13.9293 8.66193 13.5701 8.56648C13.5343 8.55686 13.5021 8.53676 13.4778 8.50876C13.4534 8.48076 13.438 8.44613 13.4334 8.4093L13.3174 7.46585C13.3168 7.45872 13.3134 7.45211 13.3081 7.44736C13.3027 7.44261 13.2958 7.44007 13.2886 7.44026H11.6847C11.6776 7.44011 11.6707 7.44266 11.6653 7.44741C11.66 7.45216 11.6567 7.45875 11.6561 7.46585L11.5401 8.4093C11.5356 8.44612 11.5201 8.48075 11.4957 8.50874C11.4714 8.53674 11.4393 8.55684 11.4034 8.56648C11.0443 8.66194 10.6995 8.8048 10.378 8.99128C10.3459 9.0099 10.309 9.0185 10.272 9.01596C10.235 9.01343 10.1995 8.99989 10.1703 8.97708L9.42061 8.39167C9.41515 8.38706 9.40813 8.38473 9.40099 8.38516C9.39386 8.3856 9.38717 8.38877 9.38232 8.39402L8.24849 9.52781C8.24329 9.53275 8.24015 9.53947 8.23969 9.54663C8.23922 9.55379 8.24148 9.56086 8.246 9.56643L8.8314 10.3157C8.85429 10.345 8.8679 10.3804 8.87045 10.4174C8.87301 10.4544 8.86441 10.4914 8.84575 10.5235C8.65926 10.8449 8.5164 11.1897 8.42095 11.5489L8.42075 11.5488ZM7.27495 11.4324C7.17778 11.4444 7.08834 11.4915 7.02345 11.5648C6.95855 11.6381 6.92268 11.7326 6.92256 11.8305V13.434C6.92269 13.5319 6.95857 13.6264 7.02346 13.6997C7.08835 13.773 7.17778 13.8201 7.27495 13.8321L8.09526 13.9329C8.18626 14.2398 8.30912 14.5362 8.46182 14.8175L7.95303 15.4691C7.89281 15.5463 7.86284 15.6428 7.86877 15.7405C7.87469 15.8382 7.9161 15.9304 7.9852 15.9997L9.11899 17.1334C9.18827 17.2025 9.28042 17.244 9.37812 17.25C9.47582 17.256 9.57235 17.2261 9.64956 17.1659L10.3014 16.6569C10.5826 16.8097 10.879 16.9325 11.1859 17.0234L11.2868 17.8441C11.2987 17.9412 11.3458 18.0306 11.419 18.0954C11.4923 18.1603 11.5867 18.1961 11.6846 18.1963H13.2883C13.3862 18.1962 13.4806 18.1603 13.5539 18.0955C13.6272 18.0306 13.6743 17.9412 13.6863 17.8441L13.787 17.0234C14.0939 16.9327 14.3904 16.8099 14.6715 16.6569L15.3234 17.1659C15.4006 17.2261 15.4972 17.256 15.5949 17.2501C15.6926 17.2441 15.7847 17.2027 15.8541 17.1335L16.9878 15.9997C17.0569 15.9303 17.0983 15.8382 17.1042 15.7405C17.1101 15.6428 17.0802 15.5463 17.02 15.4691L16.5112 14.8175C16.664 14.5363 16.7869 14.2398 16.8777 13.9329L17.698 13.8321C17.7952 13.8201 17.8846 13.773 17.9495 13.6996C18.0144 13.6263 18.0502 13.5319 18.0504 13.434V11.8306C18.0503 11.7327 18.0144 11.6382 17.9495 11.5649C17.8846 11.4916 17.7952 11.4445 17.698 11.4324L16.8777 11.3316C16.7868 11.0248 16.664 10.7283 16.5112 10.447L17.02 9.79543C17.0802 9.71825 17.1101 9.62176 17.1042 9.52407C17.0983 9.42638 17.0569 9.33422 16.9878 9.26487L15.8541 8.13103C15.7848 8.0619 15.6926 8.02045 15.5949 8.01447C15.4972 8.00849 15.4007 8.03839 15.3234 8.09856L14.6715 8.60764C14.3904 8.45465 14.0939 8.3318 13.787 8.24114L13.6863 7.42048C13.6743 7.32335 13.6272 7.23394 13.5539 7.16908C13.4806 7.10422 13.3862 7.06837 13.2883 7.06829H11.6847C11.5869 7.06841 11.4924 7.10427 11.4192 7.16913C11.3459 7.23399 11.2989 7.32338 11.2869 7.42048L11.186 8.24114C10.8791 8.33185 10.5826 8.4547 10.3015 8.60764L9.64971 8.09856C9.5725 8.0384 9.47598 8.00849 9.37828 8.01447C9.28059 8.02045 9.18843 8.0619 9.11914 8.13103L7.98535 9.26487C7.91625 9.33419 7.87484 9.42636 7.86891 9.52407C7.86299 9.62177 7.89295 9.71827 7.95317 9.79543L8.46196 10.447C8.3092 10.7283 8.18635 11.0248 8.09541 11.3316L7.2751 11.4324L7.27495 11.4324ZM17.7659 7.60916C19.9767 9.93142 20.4007 13.4949 18.7954 16.2749C17.9518 17.7473 16.6189 18.8775 15.0285 19.4691C13.438 20.0607 11.6905 20.0763 10.0898 19.5132C10.2044 19.179 10.1877 18.8137 10.0431 18.4912C9.89852 18.1688 9.63687 17.9134 9.31109 17.7765C8.9853 17.6397 8.61971 17.6318 8.28829 17.7543C7.95687 17.8768 7.68436 18.1207 7.52592 18.4365C7.36747 18.7523 7.33492 19.1166 7.43485 19.4555C7.53477 19.7944 7.75971 20.0827 8.06415 20.2621C8.36859 20.4414 8.7298 20.4984 9.07468 20.4216C9.41957 20.3447 9.72237 20.1397 9.92183 19.848C11.1537 20.2857 12.4771 20.4008 13.766 20.1823C15.0549 19.9638 16.2664 19.419 17.2852 18.5998C18.304 17.7806 19.0961 16.7143 19.5862 15.5023C20.0763 14.2903 20.2479 12.9731 20.0849 11.676C19.8769 10.0541 19.1592 8.54021 18.0353 7.35261C18.0184 7.33493 17.9983 7.32073 17.9759 7.31084C17.9536 7.30094 17.9296 7.29554 17.9051 7.29494C17.8807 7.29435 17.8564 7.29856 17.8337 7.30735C17.8109 7.31614 17.79 7.32933 17.7724 7.34617C17.7547 7.36301 17.7405 7.38316 17.7306 7.40549C17.7207 7.42781 17.7153 7.45187 17.7147 7.47628C17.7141 7.50069 17.7183 7.52498 17.7271 7.54776C17.7359 7.57054 17.7491 7.59137 17.7659 7.60906V7.60916ZM7.19961 18.0996C7.23636 18.0996 7.27228 18.0887 7.30283 18.0682C7.33339 18.0478 7.3572 18.0188 7.37126 17.9848C7.38532 17.9509 7.38901 17.9135 7.38185 17.8774C7.3747 17.8414 7.35702 17.8083 7.33105 17.7823C6.17641 16.6257 5.44401 15.1147 5.25153 13.4918C5.05904 11.869 5.41764 10.2285 6.26972 8.83397C7.1218 7.43945 8.41789 6.37181 9.94978 5.80257C11.4817 5.23333 13.1604 5.19553 14.7164 5.69524C14.6435 5.93097 14.6268 6.18053 14.6678 6.42386C14.7089 6.66719 14.8064 6.8975 14.9526 7.09628C15.0988 7.29507 15.2896 7.45678 15.5097 7.56843C15.7297 7.68008 15.9729 7.73855 16.2197 7.73914C16.3583 7.73905 16.4963 7.72078 16.6302 7.68479C16.8798 7.618 17.1091 7.49092 17.2979 7.31473C17.4868 7.13853 17.6296 6.91862 17.7135 6.67434C17.7975 6.43005 17.8201 6.16887 17.7795 5.91378C17.7388 5.65868 17.6361 5.41748 17.4804 5.2114C17.3246 5.00531 17.1207 4.84065 16.8863 4.7319C16.652 4.62314 16.3946 4.57363 16.1367 4.58771C15.8787 4.60179 15.6282 4.67904 15.4072 4.81266C15.1861 4.94627 15.0012 5.13216 14.8688 5.35398C11.443 4.22854 7.66538 5.66834 5.85518 8.80369C5.0137 10.2633 4.67651 11.9595 4.89573 13.63C5.11495 15.3004 5.87838 16.8522 7.06797 18.0452C7.08522 18.0625 7.1057 18.0762 7.12825 18.0855C7.1508 18.0949 7.17496 18.0997 7.19937 18.0996H7.19961ZM9.34106 19.3906C9.41332 19.2657 9.44236 19.1205 9.42368 18.9775C9.40501 18.8344 9.33966 18.7015 9.23777 18.5994C9.13588 18.4973 9.00315 18.4316 8.86015 18.4126C8.71714 18.3936 8.57187 18.4223 8.44683 18.4943C8.3218 18.5662 8.22401 18.6774 8.16861 18.8106C8.11321 18.9438 8.10331 19.0916 8.14043 19.231C8.17756 19.3704 8.25963 19.4937 8.37394 19.5817C8.48825 19.6697 8.6284 19.7175 8.77266 19.7178C8.88778 19.7179 9.00091 19.6878 9.10069 19.6303C9.20046 19.5729 9.28337 19.4902 9.34106 19.3906ZM16.3637 5.91702C16.3209 5.8921 16.2723 5.87894 16.2228 5.87888C16.1978 5.87888 16.173 5.88217 16.1489 5.88865C16.0856 5.90558 16.0302 5.94393 15.992 5.99717C15.9538 6.05042 15.9352 6.11525 15.9395 6.18064C15.9437 6.24602 15.9705 6.30791 16.0153 6.35575C16.0601 6.40359 16.1201 6.43442 16.185 6.443C16.25 6.45158 16.3159 6.43737 16.3716 6.40279C16.4272 6.36821 16.4692 6.3154 16.4902 6.25336C16.5113 6.19132 16.5102 6.12389 16.4872 6.06256C16.4641 6.00123 16.4205 5.9498 16.3638 5.91702H16.3637ZM16.2214 6.81692C16.3805 6.81729 16.5343 6.7598 16.6541 6.65516C16.7739 6.55053 16.8516 6.40588 16.8726 6.2482C16.8937 6.09051 16.8567 5.93056 16.7685 5.79815C16.6803 5.66574 16.547 5.56991 16.3934 5.52854C16.2398 5.48717 16.0764 5.50307 15.9336 5.57328C15.7909 5.64349 15.6785 5.76323 15.6176 5.91015C15.5566 6.05708 15.5511 6.22117 15.6021 6.37184C15.6532 6.5225 15.7573 6.64946 15.8951 6.72903C15.9943 6.78635 16.1068 6.81666 16.2214 6.81692ZM8.91519 18.8179C8.87236 18.793 8.82368 18.7798 8.77412 18.7799C8.74939 18.7799 8.72477 18.7832 8.70088 18.7896C8.63755 18.8065 8.58203 18.8448 8.54379 18.898C8.50554 18.9513 8.48695 19.0161 8.49117 19.0815C8.49538 19.1469 8.52216 19.2088 8.56692 19.2567C8.61168 19.3046 8.67167 19.3354 8.73664 19.344C8.80161 19.3526 8.86756 19.3384 8.92323 19.3038C8.9789 19.2693 9.02085 19.2164 9.04193 19.1544C9.06301 19.0923 9.06192 19.0249 9.03883 18.9635C9.01575 18.9022 8.9721 18.8508 8.91533 18.818L8.91519 18.8179Z" fill="#FDB600"/>
</g>
<defs>
<clipPath id="clip0_675_3891">
<rect width="25" height="25" fill="white" transform="translate(0 -0.000488281)"/>
</clipPath>
</defs>
</svg>
