<svg width="40" height="40" viewBox="0 0 40 40" fill="none" xmlns="http://www.w3.org/2000/svg">
<g clip-path="url(#clip0_675_3983)">
<path d="M12.9339 20.1417C18.4922 20.1417 23.0005 15.6333 23.0005 10.075C23.0005 4.51667 18.4922 0 12.9339 0C7.37552 0 2.86719 4.50833 2.86719 10.0667C2.86719 15.625 7.37552 20.1417 12.9339 20.1417ZM9.41719 14.05C9.50885 13.7167 9.60052 13.3917 9.70052 13.0583C9.81719 12.675 9.92552 12.6333 10.2755 12.8167C10.8755 13.125 11.5089 13.3 12.1755 13.3833C12.6005 13.4333 13.0255 13.3917 13.4172 13.2167C14.1589 12.8917 14.2755 12.0333 13.6505 11.5167C13.4339 11.3417 13.1922 11.2083 12.9422 11.1C12.2922 10.8167 11.6172 10.6 11.0005 10.2333C10.0089 9.64167 9.37552 8.81667 9.45052 7.60833C9.53385 6.24167 10.3089 5.38333 11.5589 4.93333C12.0755 4.74167 12.0755 4.75 12.0839 4.20833V3.65833C12.0922 3.25 12.1672 3.18333 12.5672 3.16667H12.9422C13.8089 3.16667 13.8089 3.16667 13.8089 4.03333C13.8089 4.64167 13.8089 4.65 14.4172 4.74167C14.8839 4.81667 15.3255 4.95 15.7589 5.14167C16.0005 5.25 16.0839 5.41667 16.0172 5.66667C15.9089 6.04167 15.8089 6.41667 15.6839 6.78333C15.5672 7.13333 15.4589 7.18333 15.1255 7.025C14.4505 6.7 13.7422 6.55833 12.9922 6.6C12.7922 6.60833 12.6089 6.63333 12.4255 6.71667C11.7839 7 11.6755 7.70833 12.2255 8.15C12.5005 8.375 12.8172 8.53333 13.1505 8.66667C13.7172 8.9 14.2922 9.13333 14.8422 9.43333C16.5672 10.3917 17.0339 12.5583 15.8172 14.0333C15.3755 14.5667 14.8089 14.925 14.1339 15.1083C13.8422 15.1917 13.7089 15.3417 13.7255 15.6417C13.7422 15.9417 13.7255 16.2333 13.7255 16.5333C13.7255 16.8 13.5922 16.9417 13.3255 16.95C13.0089 16.9583 12.6839 16.9583 12.3672 16.95C12.0839 16.9417 11.9505 16.7833 11.9505 16.5083C11.9505 16.2917 11.9505 16.075 11.9422 15.8583C11.9339 15.3833 11.9255 15.3583 11.4589 15.2833C10.8672 15.1917 10.2922 15.0583 9.75052 14.7917C9.34219 14.6 9.30052 14.4917 9.41719 14.05Z" fill="white"/>
<path d="M35.5163 20.9834H34.3413C33.5663 18.6084 32.0496 16.5 30.0246 14.8667C30.0246 14.7917 30.0079 14.7084 29.9913 14.6334C29.5663 13.1417 30.0913 11.7834 30.6996 10.8084C31.1246 10.125 30.5746 9.25002 29.7746 9.35002C27.9829 9.57502 26.7496 10.2334 25.8996 10.975C25.3163 11.4834 24.8996 12.1667 24.7163 12.925C23.4329 18.2417 18.6413 22.2 12.9329 22.2C10.1579 22.2 7.60794 21.2667 5.56628 19.7C4.85794 21.2334 4.47461 22.9084 4.47461 24.6667C4.47461 25.6167 4.59128 26.5417 4.80794 27.4334C4.80794 27.4334 4.80794 27.45 4.81628 27.475C5.04128 28.4 5.38294 29.2917 5.81628 30.1334C6.39128 31.375 7.22461 32.825 8.37461 34C10.0329 35.7084 10.3163 37.825 10.3579 38.7417V39.1917C10.3913 39.6417 10.7663 40 11.2246 40H16.4913C16.9663 40 17.3579 39.6167 17.3579 39.1334V37.8334C18.1246 37.9334 18.9079 37.9917 19.6996 37.9917C20.3246 37.9917 20.9329 37.9584 21.5413 37.8917V39.1334C21.5413 39.6084 21.9246 40 22.4079 40H27.6913C28.1663 40 28.5579 39.6167 28.5579 39.1334V37.8334C28.5663 37.4 28.7163 35.675 30.3496 34.2L30.5246 34.05C30.5413 34.0334 30.5579 34.025 30.5746 34.0084C32.3913 32.3917 33.7329 30.375 34.4246 28.125H35.5329C36.4163 28.125 37.1329 27.4084 37.1329 26.525V22.5834C37.1163 21.7 36.3996 20.9834 35.5163 20.9834ZM28.9246 21.2667C28.1996 21.2667 27.6163 20.6834 27.6163 19.9584C27.6163 19.2334 28.1996 18.65 28.9246 18.65C29.6496 18.65 30.2329 19.2334 30.2329 19.9584C30.2329 20.6834 29.6496 21.2667 28.9246 21.2667Z" fill="white"/>
</g>
<defs>
<clipPath id="clip0_675_3983">
<rect width="40" height="40" fill="white"/>
</clipPath>
</defs>
</svg>
