<svg width="40" height="40" viewBox="0 0 40 40" fill="none" xmlns="http://www.w3.org/2000/svg">
<path d="M33.9673 8.16665C32.4923 6.68907 30.5586 5.75712 28.4839 5.5239C26.4092 5.29069 24.3168 5.77008 22.5506 6.88331L26.2506 10.65C26.3984 10.8136 26.5123 11.0048 26.5857 11.2127C26.6591 11.4206 26.6905 11.641 26.6781 11.8612C26.6657 12.0813 26.6097 12.2967 26.5135 12.4951C26.4172 12.6934 26.2825 12.8707 26.1173 13.0166C25.8092 13.2884 25.4115 13.4368 25.0006 13.4333C24.7652 13.4351 24.5322 13.387 24.3167 13.2922C24.1013 13.1974 23.9083 13.0581 23.7506 12.8833L19.0506 8.16665C18.3766 7.49328 17.6004 6.93077 16.7506 6.49998C15.0169 5.6118 13.0467 5.2947 11.1218 5.59406C9.19694 5.89341 7.41607 6.79388 6.03396 8.16665C4.30446 10.1798 3.35352 12.746 3.35352 15.4C3.35352 18.054 4.30446 20.6202 6.03396 22.6333C9.13396 25.9666 16.6673 33.6833 20.0506 33.6833C22.684 33.6833 27.8506 29 31.434 25.35C32.334 24.45 33.1006 23.6833 33.7673 22.9333L34.0173 22.6666C35.7488 20.6452 36.6963 18.069 36.6871 15.4074C36.6779 12.7458 35.7127 10.1761 33.9673 8.16665ZM23.334 22.5H21.6673V24.1666C21.6673 24.6087 21.4917 25.0326 21.1791 25.3452C20.8666 25.6577 20.4427 25.8333 20.0006 25.8333C19.5586 25.8333 19.1347 25.6577 18.8221 25.3452C18.5096 25.0326 18.334 24.6087 18.334 24.1666V22.5H16.6673C16.2253 22.5 15.8013 22.3244 15.4888 22.0118C15.1762 21.6993 15.0006 21.2753 15.0006 20.8333C15.0006 20.3913 15.1762 19.9674 15.4888 19.6548C15.8013 19.3422 16.2253 19.1666 16.6673 19.1666H18.334V17.5C18.334 17.058 18.5096 16.634 18.8221 16.3215C19.1347 16.0089 19.5586 15.8333 20.0006 15.8333C20.4427 15.8333 20.8666 16.0089 21.1791 16.3215C21.4917 16.634 21.6673 17.058 21.6673 17.5V19.1666H23.334C23.776 19.1666 24.1999 19.3422 24.5125 19.6548C24.825 19.9674 25.0006 20.3913 25.0006 20.8333C25.0006 21.2753 24.825 21.6993 24.5125 22.0118C24.1999 22.3244 23.776 22.5 23.334 22.5Z" fill="white"/>
</svg>
