<svg width="40" height="40" viewBox="0 0 40 40" fill="none" xmlns="http://www.w3.org/2000/svg">
<path d="M20.2244 33.397L25.6972 30.1848C26.0143 29.9985 26.3692 29.9001 26.7235 29.9001C27.3155 29.9001 27.8283 30.1715 28.0954 30.6263C28.111 30.6528 28.1237 30.6823 28.1377 30.7106L21.355 34.692L20.2426 34.8535C20.3947 34.3998 20.3905 33.8909 20.2244 33.397ZM29.6938 30.8645C29.3512 30.8645 29.0065 30.9569 28.6972 31.1317C28.6911 31.1351 28.6841 31.1367 28.6778 31.1398C28.6736 31.1426 28.67 31.1461 28.6655 31.1488L21.627 35.2803C21.5911 35.3013 21.5513 35.3153 21.5102 35.3213L19.8282 35.5656C19.813 35.5825 19.7983 35.5999 19.7828 35.6162H24.4692L31.1388 32.9016C31.3148 32.4463 31.2894 31.9738 31.0637 31.5892C30.7973 31.1355 30.2852 30.8645 29.6938 30.8645ZM4.66398 27.6367L4.66367 35.8053L13.588 39.4502L25.2196 39.4506L33.4156 36.114C34.3574 35.7305 34.8541 34.7559 34.5229 33.9415C34.2916 33.3733 33.6901 33.006 32.9906 33.006C32.7262 33.006 32.4646 33.0578 32.2134 33.1602L31.5136 33.445C31.5116 33.446 31.5098 33.4472 31.5079 33.4481L24.654 36.2378C24.6154 36.2534 24.5741 36.2616 24.5323 36.2616H18.2443C18.2412 36.2616 18.2383 36.2606 18.2353 36.2606L18.2107 36.2608C17.6134 36.2608 17.0234 36.0442 16.5424 35.6477L11.763 32.5868C11.6919 32.5403 11.642 32.4675 11.6243 32.3844C11.6065 32.3013 11.6222 32.2146 11.6681 32.143C11.7139 32.0715 11.7861 32.0209 11.869 32.0022C11.9519 31.9836 12.0388 31.9984 12.1109 32.0435L16.9071 35.1151C16.9186 35.1224 16.9296 35.1305 16.9402 35.1394C17.3157 35.4536 17.778 35.6217 18.2394 35.6154H18.2445C18.2454 35.6154 18.2463 35.6156 18.2472 35.6156C18.7068 35.6063 19.1084 35.4242 19.3781 35.1017C19.7535 34.6535 19.8127 34.0026 19.5334 33.4014C19.5323 33.3996 19.5311 33.398 19.53 33.3961C19.405 33.1292 19.2259 32.8959 18.9976 32.7023L11.8346 27.6367H4.66398ZM3.28078 38.3106V37.9881L0.737656 37.9879C0.330938 37.9878 0 37.6569 0 37.2503V26.2508C0 26.0549 0.0770313 25.8701 0.216875 25.7303C0.285003 25.6614 0.366107 25.6068 0.455487 25.5696C0.544868 25.5324 0.64075 25.5132 0.737578 25.5133L3.28117 25.5135C3.68797 25.5136 4.01883 25.8446 4.01883 26.2513L4.01844 37.2506C4.01844 37.4464 3.94141 37.6313 3.80156 37.7712C3.73343 37.84 3.65234 37.8945 3.56297 37.9318C3.47361 37.969 3.37775 37.9881 3.28094 37.9881L3.28078 38.3106ZM3.62063 35.6168C3.62063 34.7283 2.89789 34.0054 2.00945 34.0054C1.12094 34.0054 0.398047 34.7283 0.398047 35.6168C0.398047 36.5053 1.12094 37.228 2.00945 37.228C2.89789 37.228 3.62063 36.5053 3.62063 35.6168ZM10.3062 9.13541C10.6488 9.13541 10.9934 9.04299 11.3029 8.8683C11.3089 8.86479 11.3157 8.86322 11.322 8.86018C11.3264 8.85736 11.3299 8.85377 11.3345 8.85111L18.373 4.71963C18.4088 4.69852 18.4485 4.68459 18.4897 4.67861L20.1718 4.43432C20.187 4.41744 20.2016 4.39994 20.2172 4.38369H15.5308L8.86102 7.09838C8.685 7.55361 8.71055 8.02611 8.93633 8.41072C9.20266 8.86447 9.71484 9.13541 10.3062 9.13541ZM19.7575 5.14635L18.645 5.30783L11.8623 9.28924C11.8763 9.31744 11.8891 9.3469 11.9046 9.37338C12.1717 9.8283 12.6844 10.0997 13.2765 10.0997C13.6308 10.0997 13.9858 10.0013 14.3029 9.81502L19.7756 6.60268C19.6095 6.109 19.6052 5.6001 19.7575 5.14635ZM35.336 12.3632L35.3363 4.19463L26.412 0.549707L14.7803 0.549316L6.5843 3.8858C5.64258 4.26947 5.14578 5.24408 5.47703 6.05838C5.70828 6.62666 6.30977 6.99393 7.00938 6.99393C7.27375 6.99393 7.53516 6.94205 7.78648 6.83971L8.48656 6.55479C8.48852 6.55393 8.49016 6.55268 8.49203 6.55189L15.3459 3.76221C15.3846 3.74649 15.4259 3.73843 15.4676 3.73846H21.7556C21.7593 3.73846 21.7627 3.73939 21.7663 3.73947C22.3699 3.7326 22.9705 3.95088 23.4576 4.35228L28.2369 7.41314C28.3071 7.46008 28.3561 7.5327 28.3734 7.61538C28.3907 7.69807 28.3749 7.78424 28.3293 7.85538C28.2838 7.92653 28.2121 7.97697 28.1298 7.99587C28.0475 8.01478 27.961 8.00065 27.889 7.9565L23.0929 4.88494C23.0814 4.87749 23.0703 4.86937 23.0598 4.86064C22.6844 4.54643 22.2226 4.37643 21.7606 4.38455H21.7555C21.7546 4.38455 21.7537 4.38432 21.7528 4.38432C21.2932 4.39369 20.8917 4.57572 20.6218 4.89838C20.2465 5.34643 20.1873 5.99729 20.4666 6.59846C20.4676 6.60033 20.4689 6.60189 20.4699 6.60385C20.595 6.8708 20.7741 7.10416 21.0023 7.29768L28.1653 12.3633H35.336V12.3632ZM39.2624 14.8092V14.4867L36.7189 14.4864C36.312 14.4863 35.9812 14.1553 35.9812 13.7486L35.9816 2.74939C35.9816 2.34275 36.3123 2.01197 36.7191 2.01197L39.2623 2.01205C39.6691 2.01213 40 2.34307 40 2.74979V13.7492C40 13.945 39.923 14.1299 39.7831 14.2698C39.715 14.3386 39.6339 14.3931 39.5446 14.4304C39.4552 14.4676 39.3594 14.4867 39.2626 14.4867L39.2624 14.8092ZM39.602 4.38314C39.602 3.49471 38.8791 2.77197 37.9905 2.77197C37.1021 2.77197 36.3794 3.49471 36.3794 4.38314C36.3794 5.27166 37.1021 5.99455 37.9905 5.99455C38.8791 5.99455 39.602 5.27174 39.602 4.38314ZM37.9905 3.41713C37.458 3.41713 37.0245 3.85049 37.0245 4.38314C37.0245 4.91588 37.458 5.34932 37.9905 5.34932C38.5232 5.34932 38.9568 4.91588 38.9568 4.38314C38.9568 3.85049 38.5233 3.41713 37.9905 3.41713ZM12.7859 21.8649L20 29.0791L27.2141 21.865C28.071 21.008 28.5478 19.8688 28.5567 18.657C28.5655 17.4471 28.1064 16.3167 27.264 15.4742C26.4303 14.6405 25.312 14.1813 24.1147 14.1813C22.8903 14.1813 21.7391 14.6581 20.8731 15.5241L20.228 16.1691C20.198 16.199 20.1625 16.2228 20.1234 16.239C20.0842 16.2552 20.0423 16.2636 20 16.2636C19.9576 16.2636 19.9157 16.2552 19.8766 16.239C19.8374 16.2228 19.8019 16.199 19.772 16.1691L19.1269 15.5241C18.2609 14.6581 17.1097 14.1813 15.8853 14.1813C14.688 14.1813 13.5695 14.6405 12.7358 15.4742C10.9877 17.2225 11.0102 20.0895 12.7859 21.8649Z" fill="white"/>
</svg>
