<svg width="40" height="32" viewBox="0 0 40 32" fill="none" xmlns="http://www.w3.org/2000/svg">
<path d="M6.11889 0.720474H6.11553C5.92921 0.720073 5.74467 0.756584 5.57254 0.827897C5.40042 0.899211 5.24413 1.00391 5.11269 1.13596C4.97869 1.26896 4.87244 1.42725 4.80012 1.60164C4.7278 1.77604 4.69085 1.96306 4.69141 2.15186V23.6152C4.69141 24.4023 5.33424 25.0442 6.12455 25.0462C9.45628 25.0542 15.0382 25.7486 18.889 29.7784V7.31632C18.889 7.04952 18.8209 6.79888 18.6923 6.59147C15.5317 1.50162 9.45816 0.728286 6.11889 0.720474ZM35.3089 23.6152V2.15172C35.3089 1.76762 35.1593 1.40681 34.8876 1.13583C34.7562 1.00381 34.5999 0.899132 34.4278 0.82782C34.2557 0.756508 34.0712 0.719979 33.8849 0.72034H33.8814C30.5423 0.728286 24.4687 1.50162 21.308 6.59147C21.1794 6.79888 21.1114 7.04952 21.1114 7.31632V29.7782C24.9622 25.7484 30.5442 25.054 33.8759 25.0461C34.6661 25.0441 35.3089 24.4022 35.3089 23.6152Z" fill="white"/>
<path d="M38.5689 5.67029H37.531V23.6153C37.531 25.6248 35.8937 27.2635 33.8811 27.2685C31.0551 27.2752 26.3954 27.8278 23.0953 30.9512C28.8028 29.5537 34.8195 30.4622 38.2485 31.2436C38.4585 31.292 38.6768 31.2923 38.887 31.2444C39.0972 31.1965 39.2938 31.1016 39.4621 30.9669C39.6303 30.8333 39.7661 30.6633 39.8593 30.4697C39.9524 30.276 40.0005 30.0638 40 29.849V7.1014C40.0001 6.31231 39.358 5.67029 38.5689 5.67029ZM2.46896 23.6153V5.67029H1.43112C0.642157 5.67029 0 6.31231 0 7.1014V29.8486C0 30.2863 0.196095 30.6938 0.537914 30.9665C0.706179 31.1013 0.902785 31.1962 1.11297 31.2441C1.32316 31.292 1.54147 31.2917 1.75152 31.2432C5.18049 30.4616 11.1973 29.5533 16.9046 30.9508C13.6046 27.8275 8.94495 27.2751 6.11894 27.2683C4.10641 27.2635 2.46896 25.6248 2.46896 23.6153Z" fill="white"/>
</svg>
