<svg width="104" height="104" viewBox="0 0 104 104" fill="none" xmlns="http://www.w3.org/2000/svg">
<g filter="url(#filter0_d_1_357)">
<rect x="24" y="15.0759" width="56" height="56" rx="15" fill="#202020" shape-rendering="crispEdges"/>
<rect x="24.25" y="15.3259" width="55.5" height="55.5" rx="14.75" stroke="#14763B" stroke-width="0.5" shape-rendering="crispEdges"/>
<path d="M44.7616 35.4718C44.7616 34.4499 45.0647 33.451 45.6324 32.6013C46.2001 31.7517 47.007 31.0895 47.9511 30.6984C48.8952 30.3074 49.934 30.205 50.9363 30.4044C51.9385 30.6038 52.8591 31.0958 53.5817 31.8184C54.3043 32.541 54.7963 33.4616 54.9957 34.4638C55.1951 35.4661 55.0927 36.5049 54.7017 37.449C54.3106 38.3931 53.6484 39.2 52.7988 39.7677C51.9491 40.3354 50.9502 40.6385 49.9283 40.6385C48.558 40.6385 47.2439 40.0941 46.2749 39.1252C45.306 38.1562 44.7616 36.8421 44.7616 35.4718ZM53.9209 51.3851C53.5787 51.066 53.3348 50.6557 53.2181 50.2025C53.1014 49.7494 53.1167 49.2724 53.2621 48.8276C53.4035 48.3767 53.6707 47.9756 54.0322 47.6713C54.3937 47.3669 54.8345 47.1721 55.3029 47.1097L56.9175 46.8772C56.9175 46.8772 57.1759 46.8527 57.2534 46.6964L57.77 45.663C57.8114 45.5882 57.8294 45.5027 57.8217 45.4176C57.8056 45.3448 57.7699 45.2778 57.7184 45.2239C57.0391 44.5408 56.2229 44.0092 55.3235 43.6642C54.4241 43.3191 53.4619 43.1683 52.5 43.2218H47.3334C42.0892 43.2218 40.2292 47.058 40.2292 50.3518C40.2292 53.2968 41.7921 54.8468 44.75 54.8468H54.5538C54.7604 54.8468 54.8922 54.6918 54.9542 54.356L55.2125 52.8705C55.2264 52.8073 55.2229 52.7415 55.2024 52.6802C55.1819 52.6188 55.1453 52.564 55.0963 52.5218L53.9209 51.3851ZM65.2449 49.9888C65.3213 49.9153 65.3753 49.8217 65.4008 49.7187C65.4262 49.6158 65.422 49.5078 65.3886 49.4071C65.3553 49.3065 65.2941 49.2174 65.2122 49.15C65.1303 49.0827 65.031 49.0398 64.9259 49.0265L62.3529 48.661C62.2612 48.6483 62.1739 48.6136 62.0986 48.5598C62.0232 48.506 61.962 48.4348 61.9201 48.3523L60.8041 46.141C60.7519 46.0396 60.6727 45.9545 60.5753 45.8952C60.4779 45.8358 60.366 45.8044 60.252 45.8044C60.1379 45.8044 60.026 45.8358 59.9286 45.8952C59.8312 45.9545 59.7521 46.0396 59.6998 46.141L58.5851 48.3523C58.5431 48.4348 58.4819 48.5059 58.4065 48.5597C58.3312 48.6134 58.244 48.6482 58.1524 48.661L55.5794 49.0265C55.4739 49.0394 55.3742 49.0819 55.292 49.1492C55.2098 49.2165 55.1484 49.3058 55.115 49.4066C55.0815 49.5074 55.0774 49.6157 55.1032 49.7188C55.1289 49.8219 55.1834 49.9155 55.2603 49.9888L57.1203 51.7636C57.1873 51.8269 57.2376 51.9057 57.2667 51.9932C57.2957 52.0806 57.3027 52.1739 57.2869 52.2647L56.862 54.6918C56.844 54.8043 56.8578 54.9196 56.9018 55.0247C56.9458 55.1298 57.0182 55.2205 57.111 55.2867C57.2037 55.3528 57.3131 55.3918 57.4268 55.3992C57.5405 55.4066 57.654 55.3822 57.7545 55.3286L59.9852 54.1816C60.0679 54.1389 60.1596 54.1166 60.2526 54.1166C60.3456 54.1166 60.4373 54.1389 60.52 54.1816L62.752 55.3299C62.8525 55.3831 62.9658 55.4073 63.0793 55.3997C63.1928 55.3921 63.3019 55.3531 63.3944 55.287C63.487 55.2208 63.5593 55.1303 63.6032 55.0254C63.6472 54.9205 63.661 54.8054 63.6432 54.6931L63.2209 52.2635C63.2052 52.1728 63.212 52.0796 63.2409 51.9922C63.2697 51.9048 63.3196 51.8258 63.3862 51.7623L65.2449 49.9888Z" fill="#17D262"/>
</g>
<defs>
<filter id="filter0_d_1_357" x="0.799999" y="0.875927" width="102.4" height="102.4" filterUnits="userSpaceOnUse" color-interpolation-filters="sRGB">
<feFlood flood-opacity="0" result="BackgroundImageFix"/>
<feColorMatrix in="SourceAlpha" type="matrix" values="0 0 0 0 0 0 0 0 0 0 0 0 0 0 0 0 0 0 127 0" result="hardAlpha"/>
<feOffset dy="9"/>
<feGaussianBlur stdDeviation="11.6"/>
<feComposite in2="hardAlpha" operator="out"/>
<feColorMatrix type="matrix" values="0 0 0 0 0.0945167 0 0 0 0 0.535 0 0 0 0 0.27071 0 0 0 0.07 0"/>
<feBlend mode="normal" in2="BackgroundImageFix" result="effect1_dropShadow_1_357"/>
<feBlend mode="normal" in="SourceGraphic" in2="effect1_dropShadow_1_357" result="shape"/>
</filter>
</defs>
</svg>
